<?xml version="1.0" encoding="UTF-8"?>
<svg id="Layer_1" xmlns="http://www.w3.org/2000/svg" width="27.21" height="27.21" xmlns:xlink="http://www.w3.org/1999/xlink" viewBox="0 0 27.21 27.21">
  <defs>
    <clipPath id="clippath">
      <rect width="27.21" height="27.21" fill="none"/>
    </clipPath>
    <clipPath id="clippath-1">
      <rect y="0" width="27.21" height="27.21" fill="none"/>
    </clipPath>
  </defs>
  <g clip-path="url(#clippath)">
    <g clip-path="url(#clippath-1)">
      <path d="M16.09,20.68l.1.03.03.14-.03.03-.03.17-1.16,1.94-.48.85-.2.27c-.34.55-.54.82-.61.82-.03,0-.1-.03-.2-.1l.37-.44,1.8-2.99.41-.71ZM8.98,11.77l1.12,2.62.92,1.87.48.99,1.56,3.06.55.95.2.41.14.07.1.07s.1-.07.2-.17c.1-.17.31-.54.61-1.16.03-.07.1-.14.14-.27.03-.07.1-.2.14-.31l.44.41.27.17.07.14-2.04,3.5c-.24.37-.41.58-.51.58s-.17-.1-.27-.34l-2.93-5.48.07-.14.2.07c.07.14.14.2.17.2l.14-.03c.2-.24.31-.41.31-.58,0-.07-.07-.24-.17-.54-.1-.07-.2-.14-.27-.17l-.24-.17s.03-.17.1-.37c.1-.24.14-.41.14-.54,0-.44-.07-.82-.24-1.12l-.17-.31-.14-.17c-.14-.17-.24-.24-.31-.24s-.14.1-.2.27c-.03.14-.1.24-.1.31l-.07.1s-.14.03-.34.07c-.24.07-.34.1-.37.1-.1,0-.17-.1-.27-.31l-.44-.99-.17-.44c-.1-.27-.2-.51-.31-.68-.1-.17-.17-.34-.27-.44l.92-.48c.31-.17.58-.34.85-.51M9.25,11.56l2.89,6.09,1.9,3.64.07.03-.1.24-.17-.2-.51-.95-.07-.07-.24-.48c-.1-.17-.17-.34-.24-.48-.03-.1-.1-.2-.14-.27l-.27-.48-.17-.37-.14-.2-.34-.71-.2-.37-.37-.75-.65-1.36-.03-.14-.1-.2-.17-.34-.31-.65-.1-.31-.14-.27-.37-.89-.07-.17c-.03-.14-.07-.2-.07-.17l.1-.17ZM20.34,11.73l1.05-2.65.07-.07.07-.03.03.03.07.03v.07s-.03.03-.07.17l-.61,1.6-.58,1.43c-.17.31-.31.61-.37.82-.14.27-.2.44-.31.61l-1.29,2.72-.44.82-.17.44-.51,1.02c-.14.31-.27.55-.37.75-.03.1-.1.17-.14.17-.1,0-.14,0-.17-.03l3.74-7.89ZM15.78,18.88s-.03-.14-.03-.27c0-.1.07-.27.2-.51,1.09-1.73,2.52-4.83,4.32-9.35.17.03.31.03.41.07.14.03.27.07.37.1l.2.07-.95,2.41-.54,1.26-.99,2.01-.68,1.43-1.39,2.93-.2.44-.03.03c-.1,0-.24-.1-.41-.34l-.27-.27ZM7.28,6.43l.2.48.14.44,1.36,3.33-.2.14-.58-1.23-1.12-2.89.14-.2.07-.07ZM1.56,3.3l.44.2.48.17c.31.1.54.27.75.51l-.17-.07-.14-.07c-.48-.17-.82-.27-.95-.34-.2-.07-.31-.2-.41-.41M19.39,3.2l1.46.54c.24.14.34.24.34.31v.03l-.48-.17-.71-.17c-.27-.07-.48-.24-.61-.54M25.54,2.99c.1.17.14.27.14.37,0,.14-.07.2-.2.24l-1.26.48c-.1.03-.17.1-.24.17l-.37.44c-.1.07-.17.17-.2.2l-.1.2-.27.48-.14.37-.48,1.19-.1.34-.2-.17.37-1.06.27-.78.17-.31.41-.65.03-.07c.17-.31.51-.55,1.02-.71.17-.03.31-.1.37-.14.14-.03.2-.1.31-.14l.34-.17.03-.1.1-.2ZM7.89,2.96c.1.07.14.14.14.2,0,.17-.1.31-.27.41l-.54.27-.07.03-.07.1c-.24.24-.34.44-.31.61v.24h-.27c.07-.58.34-1.06.78-1.36.2-.03.38-.14.55-.34l.07-.17ZM21.19,3.74c-.14-.1-.27-.14-.37-.2-.1,0-.2-.03-.31-.07-.68-.14-1.02-.27-1.02-.44s.2-.2.58-.17l1.73.14,3.54-.07.07.07v.07l-.07.14-1.23.48c-.44.17-.78.48-1.02.89-.24.37-.58,1.16-1.02,2.35l-.03.14s-.07.1-.1.2c-.17-.03-.31-.17-.41-.34l-.2-.37c-.03-.17-.07-.27-.07-.24,0-.14.07-.37.2-.71.14-.34.2-.61.2-.78s-.07-.44-.2-.75l-.27-.31ZM3.23,2.86h3.03c.34-.03.58-.03.75-.07.07-.03.17-.03.31-.03.27,0,.41.07.41.24,0,.1-.2.24-.65.48-.44.24-.65.54-.68.92l-.03.51-.51.27c-.27.14-.41.37-.41.68,0,.1.07.31.17.61l.2.17.58-.03.24.14.31-.03,1.53,3.84c.14.17.2.31.2.37l-.07.14-.88.54-.34.14-.24.1-.14.07c-.1,0-.14-.07-.17-.2l-.95-2.31-1.43-3.78-.54-1.05-.24-.24-.75-.65-1.05-.37c-.24-.1-.34-.2-.34-.37.03-.1.17-.14.41-.14l.24.03,1.05.03Z" fill="#a91e22"/>
    </g>
  </g>
</svg>