<?xml version="1.0" encoding="UTF-8"?>
<svg id="Layer_1" xmlns="http://www.w3.org/2000/svg" width="27.21" height="27.21" xmlns:xlink="http://www.w3.org/1999/xlink" viewBox="0 0 27.21 27.21">
  <defs>
    <clipPath id="clippath">
      <rect width="27.21" height="27.21" fill="none"/>
    </clipPath>
    <clipPath id="clippath-1">
      <rect y="0" width="27.21" height="27.21" fill="none"/>
    </clipPath>
  </defs>
  <g clip-path="url(#clippath)">
    <g clip-path="url(#clippath-1)">
      <path d="M4.05,18.13l-.07.17h.24v-.41l-.17.24ZM4.35,22.55l-.14.55-.17.1-.17-.03-.34-.07.07.2c.24.03.37.07.44.07l.27-.07.07-.07s.03-.1.03-.24l-.07-.44ZM24.56,22.58l-.07-.1h-.03c-.1,0-.14,0-.14.03l.07.07.07.03.1-.03ZM3.06,21.43l.03-.31-.24.48h.17l.03-.17ZM4.56,22.21l.14-.03-.1.03c.07,0,.1-.07.1-.17v-.2c-.03-.07-.03-.17-.07-.27l-.07-.14-.14-.17.14.95ZM11.33,20.92l.27-.07.37-.31-.65.37ZM2.08,20.24s.2-.03.51,0c.1,0,.14.03,0,.07l-.24.1-.27-.17ZM17.79,20.2l-.03-.14s-.03.03-.14,0c-.1,0-.14.07-.14.24,0,.1.03.17.1.17l.03-.14s.07-.1.17-.14M17.14,19.86v.68c.17-.27.24-.44.2-.48-.03-.1-.1-.17-.14-.2h-.07ZM16.73,19.86v.14c-.03.1-.03.24-.07.41v.07l-.03.1c.2,0,.31-.17.27-.54l.07.1-.24-.27ZM2.38,19.9h-.31l.17.17h.17c.14-.03.24-.1.27-.17h-.31ZM4.59,19.52l-.24.31-.38.41-.17.14v.14c.1,0,.2-.03.24-.07l-.03-.03-.07.07.07-.03.1-.1-.07.03-.03.03v-.03l.2-.27c.17-.17.24-.27.24-.31l.14-.27ZM3.71,20.1l-.2.14.03-.1c.31-.27.48-.41.48-.38l-.31.34ZM2.31,19.79l.1-.03c.2-.07.31-.14.31-.2,0-.1-.07-.1-.17,0h-.2l-.24-.1c0,.2.07.31.2.34M12.79,19.49c.1,0,.2.03.27.03.14.07.2.07.24.1v.07s-.17,0-.37-.03c-.38-.07-.61-.07-.72,0l.58-.17ZM3.64,19.08v-.1c-.68.75-1.02,1.53-1.02,2.38v.34l.07.03.03-.03v-.1c.14-.78.44-1.63.92-2.52M14.08,18.88l.17.24.17.2.41.27.03-.2c-.1-.1-.2-.17-.31-.2l-.14-.1-.34-.2ZM14.42,18.77l.03.1.17.14.2.14.37.27-.03-.17h-.07l-.14-.14-.17-.14c-.24-.1-.34-.17-.37-.2M3.67,18.81c-.07-.1-.1-.17-.07-.17.1,0,.14-.03.17-.14.03-.03.07,0,.14.1.07.1.07.17-.03.17h.03-.03l-.14.07-.07-.03ZM24.59,17.41c-.17.03-.27.17-.34.44l.14.03c.1-.17.17-.27.17-.31l.03-.17ZM24.62,16.94c-.38.31-.58.61-.61.92l.07.03.31-.48c.07-.1.1-.17.1-.24l.14-.24ZM2.96,16.36l-.03.03-.07.1-.07.17c-.17.17-.27.31-.31.38v.03s.14-.07.27-.27c.14-.14.2-.31.2-.44M1.94,16.26v.14c.17-.17.24-.27.27-.31-.17.1-.24.1-.24.03l-.07.03-.27-.24.07.31.1.1.14-.07ZM3.5,16.05l-.27.37-.27.54s.1-.1.14-.2c-.03.03-.07.14-.17.24-.07.1-.1.2-.14.24v.03l.03-.03-.03.03.03-.14.2-.31-.48.78s.17-.1.37-.34c.1-.17.2-.34.27-.41.03-.14.07-.2.14-.27,0-.1.03-.17.07-.24l.1-.31ZM16.8,16.12l-.1-.14s-.03.07-.03.2c0,.03.03.03.14.07v-.14ZM2.04,15.88l-.03.03s-.1.03-.2-.03l-.14-.31.2.17c.14.03.27.03.37-.07.14-.1.17-.14.07-.14-.1.03-.17.17-.27.34M24.25,15.61c-.17.07-.31.2-.37.37-.03.2-.07.34-.07.37l.03.03s.1-.07.14-.17l.1-.31.17-.31ZM2.96,15.24l-.31.51c-.07.17-.2.37-.34.54v-.03l.03-.1c-.03.14-.07.24-.1.37l-.07.24-.07.31c-.03.24-.07.37-.1.44,0,.07.03.17.1.34l.07-.03v-.2c-.03-.58.14-1.09.44-1.53l.34-.85ZM20.99,15.48h.31l-.14-.17-.17.17ZM24.69,15.41l.17-.1.31.03.24.24h-.2l-.17-.14-.34-.03ZM3.13,15.24l.27-.27-.03-.07-.24.1v.24ZM21.46,15.34h.2l-.31-.27.1.27ZM24.93,15.03l.41.17-.2-.31-.41-.14.2.27ZM21.67,14.97l-.03.1.1.14.17-.31-.24.07ZM13.98,14.49l-.65.44-.14.14-.14.2.14-.03c.14-.1.27-.24.41-.37l.37-.37ZM14.05,14.69l-.27.2-.2.27c-.31.24-.54.44-.65.61l-.24.31.24-.27c.65-.44,1.02-.82,1.12-1.12M10.95,14.08c.1.17.24.27.34.31.03-.03.1-.03.2-.03l.07-.07s.1-.07.2-.1h-.48l-.34-.1ZM20.68,14.29h-.1c-.03.1-.07.14-.1.2v.03h.17l.03-.24ZM20.24,14.18h-.17l-.03.1-.03.1.17.07.07-.27ZM10.99,13.77l.27.24s.1-.03.37-.03l-.17-.03c-.1-.07-.17-.07-.14-.1l-.34-.07ZM19.9,14.08s-.03.03-.17.03l-.03.03-.03.03.14.14.07-.14.03-.1ZM12.82,13.43l-.14.1-.07.07.31.07.03-.2-.14-.03ZM16.12,13.57l.03-.24-.17-.07-.03.1c-.03.14,0,.2.17.2l-.14-.14.14.14ZM20.78,13.23c.07.1.14.14.24.14.03,0,.1-.03.27-.1.14-.1.27-.14.38-.17l-.89.14ZM16.5,13.03l-.17.2.24.17-.07-.37ZM13.4,13.26l-.07-.07c0-.07-.03-.1-.14-.1s-.14.03-.14.1c0,.1.03.14.14.14h.07l.07.03.07-.1ZM16.9,12.92l-.1.1.03.07.1.14.14-.17-.17-.14ZM13.57,12.89l-.07.07-.1.1.07.07.1-.24ZM2.55,12.65l-.2.61-.48.92c.03-.24.14-.48.24-.72s.17-.34.17-.31c0-.65.14-.95.37-.92l-.1.41ZM24.49,12.14c-.17.31-.31.48-.34.51.44-.24.65-.61.65-1.12l-.03-.03c-.1.1-.17.31-.27.65M12.86,11.6l-.51.51c-.41.41-.61.85-.65,1.36l.24-.51.03-.07c.34-.54.58-.85.68-.95.14-.1.2-.2.2-.34M4.46,12.01c-.34.17-.61.37-.82.65.24-.24.48-.41.68-.54l.54-.41-.41.31ZM4.73,11.67l-.85.44.37-.34.48-.1ZM3.03,11.56l-.1.54-.07.2-.07.34.17-.41.07-.1v-.58ZM20.95,10.99l-.65.89-.03.03c.24-.41.37-.68.41-.82l.27-.1ZM20.24,11.22l-.1.24.07.07.03.03c.17,0,.24-.17.24-.51,0,.1.14-.17.41-.75-.14,0-.27.2-.41.58l.03-.1-.27.44ZM15.48,9.66l.03-.31.2.2-.24.1ZM16.36,9.52c.1.1.17.2.2.31.1.27.17.41.2.41l.2.58c.07.03.1,0,.14-.1,0-.07-.03-.17-.07-.27-.03-.1-.07-.14-.07-.07,0-.1-.07-.24-.17-.41l-.44-.44ZM15.34,9.49c0,.17-.07.17-.2.03l-.07-.1.07-.17.1.03.1.2ZM14.9,9.22h-.07l-.1.03-.07.07.07.17c.14-.03.2-.03.2-.07,0-.14,0-.2-.03-.2M14.25,9.42c.17-.03.24-.07.24-.17l-.07-.07-.14.03h-.03v.2ZM16.46,9.25l.27.37.24.27.07.17-.07-.17-.14-.31-.14-.27-.24-.07ZM14.01,9.12l-.17-.03-.14.14.07.1h.31l.03-.1-.1-.1ZM2.99,10.03l.1-.82c-.03-.24-.07-.34-.1-.27v.14c-.03.24-.07.44-.1.58-.03.14-.03.2-.03.17,0,.14-.07.31-.17.48l-.1.44.41-.71ZM18.13,8.67l-.1.1s-.07.07-.1.17c0,.03.07.17.17.44l.2.44v-.31l-.1-.34-.07-.51ZM18.37,8.71l-.03.1v.2c0,.44.07.65.24.65l-.03-.34v-.24c0-.07-.07-.2-.17-.37M19.83,8.57l-.1.2.2.03.03-.14-.14-.1ZM19.49,8.13s-.03.14-.03.27c-.03.03.03.03.14.03.14,0,.2-.07.2-.2,0-.1-.07-.14-.17-.1h-.14ZM20.31,8.23l.27.24c.2.2.34.48.41.78.03.14.1.2.14.24.03.17.1.27.1.34l.07.1.03-.31-.31-.75-.51-.58-.2-.07ZM13.67,8.4l-.17-.27s-.07.07-.07.17c.14.14.24.2.27.2h.1l.34-.14-.48.03ZM23.16,6.87c.03.1.1.24.17.34.07.1.14.24.17.34l.17.78.1-.1c-.1-.61-.2-.99-.34-1.09l-.27-.27ZM11.97,6.33l.14.1.17.14.34.65-.14-.41c0-.14-.03-.27-.17-.37-.07-.1-.2-.2-.34-.31-.17-.1-.31-.17-.48-.2-.14-.07-.24-.1-.34-.1l-.07.03s.14.14.37.24l-.1-.03c.24.03.44.1.61.27M23.57,5.68l.07.1.27.17h.78l-.68-.07-.44-.2ZM17.48,5.37c0,.38,0,.58-.03.58l.24-.48c0-.24-.03-.37-.1-.37-.03,0-.07.03-.1.14s-.03.14,0,.14M21.94,5.2l.37.34.27.75c-.03-.48-.14-.85-.37-1.09-.1-.03-.17-.07-.24-.1l-.03.1ZM16.26,4.15v.14l.85.34-.14-.17-.31-.1-.41-.2ZM21.02,4.01l-.07.03s-.07.07-.17.1c-.1,0-.14.03-.14.14-.03.03-.07.03-.1-.07-.1,0-.07-.07.07-.2.17-.1.27-.17.37-.17.07,0,.07.07.03.17M4.11,4.05l-.24.34.27-.27c.07-.03.1-.1.1-.27l-.14-.31v.51ZM20.78,3.74c-.37.03-.58.17-.58.34v.07h.1l-.07.03.24-.24.31-.2ZM17.48,4.35c-.65-.37-1.16-.58-1.46-.58l-.17.03.65.24.95.44.03-.14ZM20.41,3.47c-.27.07-.41.14-.48.17,0,.03-.03.17-.03.37v.03l.31-.37c.07,0,.2-.03.37-.14l-.17-.07ZM13.57,3.06l-.07.03c-.14,0-.2.1-.2.31,0,.1.03.17.1.17l.2.07-.07-.27.03-.31ZM13.94,2.99c-.17.1-.24.24-.24.44,0,.03.07.1.24.27l.1-.03-.1-.17-.03-.14v-.07c0-.17,0-.27.03-.31M10.61,25.88c.1,0,.14.03.14.1v.07l-.17.1c-.1,0-.17-.03-.17-.1,0-.1.07-.17.2-.17M9.25,25.82c.1.03.17.03.2.03l.17.03.07-.03.2-.03h.07l.14.07c-.17.1-.34.14-.51.14-.2,0-.31-.07-.34-.2M2.62,25.61c.17,0,.24.07.24.17,0,.17-.07.27-.24.27s-.24-.07-.24-.24c0-.14.07-.2.24-.2M10.44,25.44c.1.03.17.1.17.14,0,.07-.07.1-.17.1v-.24ZM1.77,25.41c.24.03.37.14.37.31s-.1.24-.27.24c-.2,0-.31-.1-.31-.31,0-.03.07-.14.2-.24M9.93,25.34c.1,0,.17.03.17.1,0,.1-.03.14-.1.14-.1,0-.17-.03-.17-.14l.07-.1h.03ZM1.63,25.1l.1.17-.14.17.03-.34ZM3.5,26.09c-.24-.1-.34-.2-.34-.37,0-.34.24-.51.71-.51.27,0,.54.07.85.24.2.1.34.2.41.2.07.07.2.1.41.17v.1l-.37-.03-.65-.27c-.17-.1-.34-.14-.55-.14-.31,0-.48.2-.48.61M2.11,25.27l.24-.24h.03c.1.03.14.1.14.2s-.07.17-.17.17c-.07,0-.14-.03-.24-.14M2.92,25.2c.1-.27.17-.41.27-.41.07,0,.1.03.1.14,0,.07-.14.17-.37.27M25.14,24.79l.48.07c.2.1.31.24.31.34l-.03.24c-.03.24-.07.34-.17.34h-.1c0-.1,0-.17.03-.21,0-.1-.03-.17-.14-.27-.37-.1-.58-.17-.61-.17-.1,0-.27.03-.44.1-.17.03-.31.07-.41.03h-.27l1.36-.48ZM13.2,24.76l.14.14.1.07c.34.27.51.51.51.68,0,.31-.17.48-.48.48-.17,0-.27-.14-.37-.44.17.07.27.1.31.1.17,0,.24-.14.24-.38v-.07c-.24-.17-.37-.34-.44-.58M6.12,24.69l1.6.41c-.07.03-.2.03-.41.03-.51,0-.89-.14-1.19-.44M12.55,24.73l.07-.03.07-.03c.07,0,.1.03.1.14,0,.27-.03.44-.14.54l-.2.24-.1.17c-.1.17-.31.24-.61.24-.34,0-.61-.14-.78-.38l-.24-.37c-.17-.24-.44-.37-.75-.37-.44,0-.68.24-.71.75l-.17-.2v-.1c-.03-.41.27-.61.99-.61.37,0,.61.07.71.24l.61.75.1.03.17.03c.58,0,.88-.34.88-1.02M13.57,24.76l.07-.1.14-.03c.14,0,.24.07.34.24.31.17.61.24.99.24.34,0,.68-.1.99-.27h.07c-.1.24-.27.41-.48.48l-.68.07-.31-.03-.44-.14c-.31-.14-.51-.27-.68-.44M18.57,24.66c.27.03.51.1.72.2.14.17.2.34.2.48,0,.44-.14.61-.37.58h-.1c.07-.14.1-.24.1-.34s-.03-.24-.14-.41c-.17-.14-.34-.2-.48-.2-.1,0-.14,0-.17.03l-2.35.71h-.24s-.2-.03-.48-.03c.55-.07.99-.17,1.29-.31l1.16-.51c.31-.1.58-.17.88-.17h-.17l.14-.03ZM21.29,24.66h.07l.38.54.07.61-.31-.14s-.14.03-.27.17-.24.2-.27.2c.03,0-.07-.03-.24-.07-.27-.2-.41-.41-.41-.65,0-.1.1-.27.31-.44l.07.48.14.1c.14.07.24.1.31.1s.14-.07.24-.2c.07-.1.1-.2.1-.27,0-.03-.07-.14-.17-.31v-.14ZM1.57,24.76c0-.17.07-.24.24-.24.2,0,.31.07.31.24,0,.2-.1.31-.27.31s-.27-.1-.27-.31M2.65,24.45h.03c.1,0,.17.07.17.17,0,.17-.07.24-.2.24s-.2-.07-.2-.24c0-.07.07-.14.2-.17M23.64,24.49l.03.1v.03c0,.1-.1.2-.31.31-.31.17-.54.24-.71.24.03,0-.07-.03-.24-.07-.48-.2-.71-.31-.71-.34,0-.1.07-.14.17-.1l1.02.14h.07l.1-.03.58-.27ZM3.2,24.35l.1.1c0,.1-.03.14-.14.14l-.1-.1c0-.1.03-.14.14-.14M3.5,24.18l.2.03-.17.17-.03-.2ZM3.98,24.18c.14,0,.2.03.2.14s-.03.14-.1.14c-.1,0-.17-.07-.17-.17l.07-.1ZM5.03,24.05l.24.34.51.44.37.27.1.03.17.07.17.03.14.03.2.03h.48c.48,0,.71.07.71.24,0,.1-.1.21-.27.34l-.51.07h-.14s-.1,0-.2-.03c-.07,0-.17,0-.27-.03-.17-.03-.34-.07-.48-.1-.14-.03-.24-.03-.34-.07-.1-.03-.24-.1-.41-.2-.17-.07-.34-.17-.51-.27-.44-.27-.65-.48-.65-.65l.27-.14.27-.14.14-.27ZM6.05,24.22l8.91-.03h.27c.2-.03.44.07.68.27l-9.8.03-.48-.34c.17.07.31.1.41.07M4.66,24.15l-.03.07-.17.1c-.1,0-.14-.07-.14-.17s.07-.14.17-.14.17.03.17.14M4.83,23.94l-.07-.07-.03-.07c0-.1.07-.17.17-.17s.14.03.14.14c0,.03-.07.1-.2.17M2.76,23.6h.03c.2,0,.31.07.31.24,0,.24-.1.37-.27.37s-.27-.1-.27-.27.07-.31.2-.34M2.38,24.11l.03.1c0,.1-.07.14-.17.14-.24,0-.41-.14-.58-.41-.17-.24-.24-.48-.24-.68,0-.31.14-.54.41-.75.27-.24.58-.34.95-.34h.2c.51,0,.78.07.78.17,0,.14-.07.17-.17.14h-.03c-.1,0-.24-.03-.41-.03-.17-.07-.31-.07-.41-.07-.17,0-.34.07-.58.24-.31.2-.48.41-.48.61,0,.31.1.51.27.61l.41.27ZM5.82,21.87c.07-.14.2-.2.44-.2.51,0,.78.24.78.75,0,.2-.1.37-.34.55v-.14c0-.1-.03-.14-.14-.17l-.31-.07-.27-.14s-.07-.03-.17-.03c-.17,0-.27.24-.31.68l.03.1c.03.1.03.24.03.34v.03s-.07.1-.17.2l-.1-.65c0-.31.03-.58.1-.82l.03-.07.14-.17c.07-.07.14-.14.24-.2M11.26,21.97c.17.24.31.34.48.34.37,0,.68-.31.92-.92.1-.2.17-.31.27-.31h.03l.07.07-.17.27c-.07.07-.14.24-.24.54-.14.44-.41.65-.82.65s-.61-.17-.61-.48l.07-.17ZM15.37,21.02l.55.58.31.34.2.34c.07-.44.27-.68.58-.71l-.03.24c0,.2.14.44.37.68l.07.17c.17.27.27.48.24.61v.27l-.14-.03.07.44-.07.24-.03-.14c-.1,0-.14,0-.17.03l.03.41-.17.17v-.34c0-.24-.1-.51-.27-.82l.03.03-.17.03c.17.24.24.48.24.71,0,.37-.14.65-.37.82l.1-.48c-.1,0-.17.07-.2.2-.07.31-.2.44-.44.41h-.03c.17-.17.27-.31.27-.41s-.03-.2-.14-.37c-.17-.17-.37-.31-.61-.41-.27-.1-.48-.24-.58-.41l-.1-.17.1-.2c.07-.14.2-.17.37-.2l.03-.17.03.14.03-.07-.24-.27-.1-.17-.03-.31h-.03c-.03-.1-.03-.2-.03-.27l-.03-.17c0-.17.14-.44.37-.75M4.42,20.78c.1,0,.17.14.24.37l.14.44v.27l.07.34v.34c0,.14,0,.24-.03.31l-.03.1c-.03.17-.07.31-.1.37l-.2.03v.14c.03.14,0,.2-.07.2.03,0-.07-.03-.24-.07l.07.17-.07.07-.07.03-.1-.07-.14-.07-.07.14-.31-.14-.07-.14-.34-.31-.17-.34c-.07-.07-.14-.2-.17-.31l.03-.07h.44c.17,0,.31.07.44.24.03.04.1.04.2.04.07,0,.14-.07.2-.21l-.07-.31-.17-.37-.1-.14-.1-.2c.24-.37.51-.68.78-.88M23.91,20.88l.34-.37h.03s.1.14.14.37c0,.1.1.24.27.44.2.2.34.31.37.31.07-.07.14-.17.17-.27.17-.1.31-.14.41-.14h.17c-.14.48-.2.71-.2.75v.1c.03.07.03.17.03.27v.24c-.03.14-.03.24-.07.38l-.1-.17-.17.03c.14.24.2.41.2.51s-.03.2-.1.37l-.1-.17v-.07h-.14c.03.1.03.2.07.27v.14c0,.17-.07.31-.2.48l-.07-.1c.03-.1.03-.2.07-.27v-.14c0-.1-.03-.27-.1-.51v-.17l-.2-.31h-.14c.17.31.24.72.24,1.16,0,.37-.1.58-.31.68l.07-.54h-.17c-.03.31-.14.58-.31.78l-.1-.03c.1-.1.14-.17.14-.24l-.07-.07-.14.1-.24.31-.44.14c.44-.31.68-.65.68-.95,0-.2-.03-.37-.14-.54l-.17-.2c-.31-.17-.48-.27-.51-.27l-.27.07.2-.55v-.03c.17-.17.34-.24.51-.24h.14v.07-.37c-.03-.07-.03-.17-.03-.27,0-.07.07-.31.2-.71,0-.1,0-.2.03-.24M23.26,20.41c.1.17.17.31.17.34,0,.17-.03.31-.14.48l-1.53,3.2-4.08.03.14-.31,3.13.03h.41l.14.03.14-.07c0-.07.07-.17.14-.31.07-.14.17-.34.27-.61.03-.1.1-.24.24-.48l.71-1.56c.17-.37.24-.65.27-.78M22.24,21.19c.14-.2.24-.34.34-.44l.17-.34c.07-.1.14-.17.24-.17s.17.07.17.2c0,.1-.03.2-.14.37l-.65,1.39-.37.68c-.1,0-.17.17-.24.54-.07.44-.27.65-.61.61h-.14c-.37-.03-.65-.03-.82-.03-.14-.03-.17-.03-.1-.03l-1.84.07h-.34v-1.05h.24c1.19-.07,2.14-.31,2.82-.72.1-.03.2-.1.34-.2.41-.24.72-.54.92-.88M14.45,20.1c.37-.2.71-.31,1.02-.31.38,0,.55.07.55.17l-.07.1h-.58c-.07,0-.2.03-.37.07l-.65.34-.31.1-.07.1v.1l.1-.1.2-.17.07.1c-.41.37-.61.75-.61,1.09,0,.1.03.2.14.31l.14.03c.31-.03.44-.17.48-.44.14.1.2.24.2.34,0,.41-.2.61-.65.61-.2,0-.37-.14-.54-.41-.1-.03-.14-.07-.14-.17,0-.24.07-.48.24-.71v-.07l.24-.34c-.24.17-.41.34-.44.44l-.24.41-.24,1.12-.2-.07-.03-.1c0-.1.03-.2.07-.41.03-.14.07-.27.07-.34.03-.24.1-.41.21-.54l-.03-.03.65-.75.24-.17c.24-.17.41-.27.58-.31M21.87,19.76l.03.07c-.17.17-.34.27-.44.38-.1.07-.2.14-.24.17s-.2.1-.48.17l-1.09.44c-.48.17-.71.41-.71.65,0,.31.17.48.54.54-.03.17-.17.24-.41.24-.51,0-.75-.24-.75-.68,0-.24.17-.48.48-.75l.27-.07.2-.1.51-.14,1.63-.68.44-.24ZM12.75,19.25l.34.03.2.03.34.14.27.1.1.1.17.03.07.03.03.03h.03v.1l-.27.17-.54.37-.72.07c-.24.03-.51.17-.75.48-.1.17-.17.37-.17.54,0,.03,0,.1.03.2,0,.07,0,.17.03.27-.48-.1-.78-.34-.88-.71v-.17c0-.1.03-.24.1-.41l.1-.17c.1-.17.27-.24.51-.27l.03-.1-.03.07-.03-.1c-.34,0-.51-.07-.51-.2,0-.04.1-.14.31-.31.2-.14.44-.24.71-.27l.51-.07ZM10.61,19.15l-.03-.27c-.03-.31.14-.44.44-.44.2,0,.41.07.58.17l.27.2.27.17h-.31l-.44-.17h-.1c-.24,0-.34.07-.34.24,0,.03.03.17.07.34-.17,0-.31-.07-.41-.24M23.54,18.43h.07l.1.07v.1l-.2.27-.17.2c-.03.1-.1.17-.17.24l-.24.24-.88.78c-.17.14-.27.24-.31.27l-.27.44c-.1.24-.2.37-.24.41-.1.34-.2.54-.2.58-.07.07-.1.1-.2.1l-.07-.1c0-.2.14-.54.41-1.02.31-.61.72-1.05,1.19-1.36l.41-.41.27-.24c.17-.31.34-.48.51-.58M10.07,17.58l.27.14.03,2.01-.03.38v.44l-.03.65v.03c0,.31.1.68.27,1.09l-.07.03-.14-.1-.17-.34c-.1-.34-.14-.82-.14-1.39v-.55c.03-.07.03-.17.03-.31v-.2l-.03-1.87ZM15.75,17.75c.31-.34.58-.51.82-.48l1.43.03.27-.03h.41l-.2.14-1.56.24c-.44.07-.68.27-.68.58,0,.2.1.34.27.44.17.1.34.14.44.14s.24-.07.41-.2l.07.07-.03.1c-.17.31-.41.44-.75.44-.71,0-1.06-.34-1.06-1.02,0-.03.07-.17.17-.44M3.3,17.18c.07.1.1.2.1.24s-.1.14-.27.24h-.1l.17-.31.1-.17ZM18.67,18.2l-.03-.27c-.03-.44.2-.68.75-.68h.24l.48.24.14.31-.54-.2-.07-.03c-.34,0-.51.2-.51.58,0,.17.14.37.37.61l.2.03c.31.1.54.14.78.14.31,0,.65-.07.95-.2l.72-.37.27-.2.54-.31c-.99,1.02-2.08,1.53-3.2,1.53-.31,0-.58-.07-.88-.24l-.2-.17c-.24-.24-.41-.54-.51-.88l.51.14ZM8.03,17.01l1.36.31.14.03.31.1.1.07v2.18l-.03.78c0,.34,0,.61.03.82,0,.24,0,.41.03.51.1.41.38.71.82.95l.14.07.48.2,3.47-.03c-.14.14-.2.24-.2.34v.17l.27.41.07.14-8.54.03c-.51,0-.75-.03-.75-.14s.17-.24.48-.34c.17-.03.44-.14.82-.37.48-.24.78-.51.88-.82.1-.17.14-.54.14-1.19v-4.22ZM22.79,17.69c-.51.34-.95.51-1.29.51-.51,0-.78-.24-.78-.75,0-.31.17-.48.48-.48.1,0,.17.03.27.14-.24.17-.34.31-.34.48,0,.24.17.37.55.37.03,0,.14-.03.27-.07l.51-.2.31-.07.03.07ZM12.75,16.67l.1.24v.89l.27.61.1.24.2.31c-.07-.03-.17-.1-.31-.24l-.27-.31-.07-.14-.03-.07-.07-.1-.1-.34v-.54l.17-.55ZM5.31,18.13c.1-.68.41-1.12.95-1.36.14-.07.2-.1.24-.1.14-.07.24-.1.31-.1.1,0,.14.03.14.07,0,.1-.07.17-.2.27-.78.2-1.16.61-1.16,1.22,0,.48.2.71.65.71.1,0,.14,0,.17-.03l.51-.17s.07-.03.17-.03c.51,0,.75.41.75,1.22,0,.38-.14.75-.41,1.09l-.2.17-.24.07-.14.07-.17.1c-.31,0-.58-.2-.85-.65-.17-.24-.24-.51-.24-.88s.07-.58.24-.58c.1,0,.14.03.14.14l-.07.24c-.03.14-.07.2-.07.31v.03l.03.07.03.17c.2.54.51.82.88.82.51,0,.78-.41.78-1.19,0-.1-.07-.27-.17-.44l-.44-.27c-.07.03-.17.03-.31.03-.1,0-.17,0-.2.03h-.14c-.44,0-.75-.24-.92-.75l-.03-.14-.03-.14ZM7.59,16.8l.1-.27h.34l.71.1.34.1.34.07.31.14.34.14.31.14.34.17.58.34.61.41.17.17.68.48.38.27c-.03.07-.14.1-.27.1l-.1-.03s-.17-.1-.37-.27c-.24-.14-.54-.37-.92-.68l-.17-.14-.2-.1c-1.16-.71-2.31-1.09-3.5-1.12M10.78,16.33l.2.03v.37c0,.1,0,.17.03.2l.24.31.2.27h-.03c-.17,0-.27-.03-.37-.14-.31-.2-.44-.41-.44-.58,0-.1.03-.24.14-.41l.03-.07ZM13.81,16.09l.27-.03.1-.03c.65,0,.95.31.92.92v.27h-.07l-.17-.17c-.17-.1-.31-.14-.41-.14-.24,0-.37.14-.37.44,0,.14.03.27.1.44l.17.24.78.71.07.03.24.14.03.07.58.31c.58.27,1.33.41,2.24.41.85,0,1.6-.1,2.18-.31.24-.07.44-.14.61-.2.24-.1.41-.17.55-.24l.34-.17.41-.24.37-.31.37-.31c.1-.1.2-.17.37-.2-.17.78-.54,1.33-1.19,1.63l-.71.41-.51.24-.2.07-.88.34c-.92.37-1.94.54-3.03.54-.37,0-.58,0-.65-.03-.54-.07-.89-.1-1.02-.1h-.07c-.44,0-.68-.07-.68-.17s.1-.17.31-.31c.2-.07.34-.14.44-.1h.27-.17.27l.44.07h.03c.17,0,.24-.07.24-.17v-.07l-.07-.14-.07-.1-.61-.27-.71.1-.14.03c-.24,0-.54-.2-.99-.61l-.31-.37-.1-.14-.07-.1-.2-.48-.03-.1c-.07-.14-.1-.24-.1-.31s0-.17.07-.27c0-.1.07-.17.1-.17h.17l.03-.61c.1-.17.27-.34.44-.44M7.18,16.43c.03-.17.1-.31.1-.51.07-.14.14-.24.27-.24l.07.03-.07.37c-.03.24-.1.41-.17.58l-.17.41-.58.85-.37.68h-.03c-.14,0-.2-.07-.2-.17v-.03l.14-.17.37-.61.17-.27c.03-.1.1-.17.17-.27l.14-.2.17-.44ZM18.43,15.44l.24.07v.1c0,.1-.03.14-.14.14s-.14-.03-.14-.14,0-.14.03-.17M5.37,15.2v-.1c0-.07.03-.1.14-.1l1.02.31s.14.03.27.03.31-.03.48-.1c.17-.07.31-.1.37-.14h.03c.07,0,.1.03.1.14,0,.24-.44.34-1.29.34-.17,0-.54-.14-1.12-.37M18.16,15c.14,0,.2.03.2.1,0,.14-.07.2-.2.2-.1,0-.14-.03-.14-.14l.03-.07.07-.1h.03ZM16.46,14.97h.03l.1.1c0,.1-.03.14-.1.14-.1,0-.14-.03-.14-.1v-.03l.1-.1ZM16.87,14.86l.17.07.07.03c.24.03.44.1.58.17l.2.17.24.27v.07l.14.1.17.17.44.27.17.03.24.1c.37.1.65.17.75.17l.44-.03c-.24.17-.48.27-.68.27-.34,0-.71-.07-1.09-.24l.03.14.41.17.48.07-.07.07c-.24.07-.44.1-.54.1-.17,0-.55-.1-1.19-.31-.1-.03-.24-.07-.34-.14-.1-.03-.24-.1-.41-.2l-.07.03.07.07-.07-.03.17.14h.07l.14.1.37.17.07.03.54.17c-.1.03-.2.03-.27.07h-.14c-.2,0-.44-.07-.71-.2l-.03.17c-.17-.03-.31-.07-.41-.1-.14-.03-.24-.03-.34-.07-.03-.03-.27-.14-.75-.31-.1-.03-.17-.07-.2-.1l-.14-.03-.17-.07c.1-.17.24-.27.44-.31l-.03-.03h.14l-.1-.2-.07-.17v-.07c-.07-.1-.1-.2-.1-.31s0-.2.03-.24l.31.17.54.14.27.07.17.1c.1.1.17.17.2.17l.1-.07.03.1-.07-.17-.14-.24-.03-.07-.03-.44ZM15.99,15.2c-.14-.1-.2-.17-.2-.27,0-.2.1-.31.27-.31.1,0,.17.07.17.2,0,.1-.07.17-.24.27v.1ZM24.62,14.63l.31.03c.17.03.34.14.44.27.24.31.34.58.34.88,0,.58-.17,1.16-.48,1.67l-.48.75c-.03.1-.1.2-.14.34s-.07.31-.1.51l.1.31.14.27.34.07.27-.03.03-.03.03-.1v-.31l-.17-.61c-.1-.17-.14-.31-.14-.44,0-.31.14-.48.41-.48.1,0,.2,0,.24.03l.17.17.07.17-.54-.03-.07.17c0,.1.03.2.1.31.24.37.34.61.34.71v.31l-.03.07c-.17.44-.48.68-.92.68-.72,0-1.06-.41-1.06-1.19,0-.03.07-.24.17-.61.03-.03.07-.1.1-.27-.03.03-.14.03-.24.03s-.17-.03-.17-.1l.03-.14.31-.68.2-.27.24-.27c.41-.41.61-.75.61-.99,0-.17-.07-.27-.2-.27-.2,0-.31.07-.34.24l-.2.65c-.17.58-.54.95-1.12,1.12v-.34l-.37.17s-.1.03-.2.03c-.58,0-.88-.31-.88-.92,0-.51.17-.78.54-.75h.24c-.24.24-.37.44-.37.61,0,.44.2.65.61.65h.1c.34-.1.58-.27.68-.58l.44-1.26.27-.34.34-.2ZM18.77,14.59l.03.07.03.03c0,.17-.07.24-.24.24-.1,0-.14-.07-.14-.24v-.1l.14-.03.17.03ZM7.55,14.35c.17.07.27.14.27.24s-.07.17-.17.17-.14-.07-.14-.24v-.03l.03-.14ZM17.69,14.73c0-.24.07-.34.24-.34s.24.1.24.27-.07.24-.24.24c-.03,0-.14-.07-.24-.17M16.5,14.39l.1-.03.17.1v.07l.03.03c0,.14-.07.2-.2.2-.1,0-.17-.03-.17-.14,0,.03.03-.07.07-.24M4.39,15.34c.2-.31.37-.48.51-.51l.24-.1.34-.24s.17-.07.41-.1l.61-.1h.03c.17,0,.24.1.24.34-.58,0-1.09.1-1.53.34-.44.2-.65.44-.65.75,0,.1.07.2.17.24l.27.07.1.07,1.16-.31c.2,0,.31.07.31.2l-.03.1-.03.1-.44-.03-.82.2s-.07.03-.17.03c-.51,0-.78-.2-.78-.65l.03-.14c0-.07,0-.17.03-.27M22.52,14.29l-.2.34-.03-.24.24-.1ZM17.21,14.25h.03l.03-.03c.1,0,.14.07.14.24,0,.1-.1.2-.27.31-.14-.03-.2-.1-.2-.24,0-.07.1-.17.27-.27M24.45,14.42c.03-.17.17-.27.37-.27.44,0,.75.27.88.78-.37-.34-.71-.51-1.02-.51h-.24ZM18.23,13.88l.17.1.07.27c0,.07-.1.1-.27.1-.07-.1-.1-.17-.1-.2l.03-.14.1-.14ZM17.69,13.77c.1.1.14.2.14.31,0,.07-.03.1-.14.1s-.17-.03-.17-.14l.03-.07c.07-.03.1-.1.14-.2M14.52,13.57h.03c.1,0,.14.07.14.17,0,.14-.07.2-.2.2-.1,0-.14-.07-.17-.24l.2-.1h-.1l.1-.03ZM17.92,13.26c.17.03.24.1.24.27,0,.03-.03.1-.14.2h-.03c-.1,0-.17-.03-.27-.1v-.03c0-.2.07-.31.24-.34l-.1-.03.07.03ZM4.42,13.77c0-.65.31-.99.92-.99.31,0,.65.14,1.05.37.37.24.65.58.78.99l.17.44.07.17v.14c0,.1-.07.14-.17.14l-.07-.07-.07-.14-.1-.27-.1-.24-.2-.38c-.44-.58-.92-.85-1.46-.85-.1,0-.17,0-.2.03l-.31.41-.03.03v.07l-.03.07c0,.1.1.34.34.72-.03.03-.07.1-.17.2l-.07-.07-.14-.1-.2-.68ZM15,12.72c.1,0,.14.07.14.17s-.07.14-.17.14l-.07-.1s.03-.1.1-.2M18.26,12.58h.03c.14,0,.2.03.2.14,0,.17-.07.24-.24.24-.1,0-.14-.03-.14-.14,0-.14.03-.2.14-.24M18.74,12.79v-.07c-.03-.14,0-.2.14-.2.17,0,.24.07.24.24,0,.1-.03.17-.14.17h-.07l-.14-.07-.03-.07ZM21.22,12.45c.17,0,.24.03.24.14s-.07.17-.17.17c-.14,0-.2-.07-.2-.2l.1-.1h.03ZM20.85,12.58c0,.14-.07.2-.2.2-.1,0-.17-.07-.17-.17v-.03c.03-.1.1-.17.2-.17s.17.07.17.17M23.16,12.31c.1.1.17.2.17.27,0,.14-.03.34-.14.61-.07.31-.1.51-.1.68,0,.03,0,.1.03.2l.03.41c.1.1.2.17.24.17s.17-.03.34-.1l.17-.31.07.07s.03.07.03.17-.03.24-.1.37c-.17.24-.37.37-.61.37-.41,0-.61-.17-.61-.54,0-.03.03-.14.07-.31l.31-1.12c.03-.1.03-.2.07-.34.03-.17.03-.34.07-.51l-.03-.1ZM15.31,12.28l.1.03.03.14c0,.1-.03.17-.14.17-.03,0-.07-.07-.1-.24l.1-.1ZM16.33,12.21l.1.1.14.27h.1l-.03.1.31-.27.71-.1.27-.07h.14l-.14.51s-.03.1-.14.2l-.24.31-.17.07c-.07.07-.17.1-.27.14.24.03.37.1.37.17l-.1.17-.17.2-1.12.31c-.51.17-.78.51-.78.99,0,.17.03.34.1.58-.27-.27-.41-.48-.41-.58s.07-.31.2-.65l-.07-.03-.27.44-.03-.2c.03-.27.17-.54.48-.85l.07-.1.14-.14-.75.65c.03-.14.03-.27.07-.38.03-.1.03-.2.07-.31l.1-.03.14-.24.1-.1-.14-.07.31-.48c.38-.31.61-.48.72-.51l.24-.1h-.03ZM16.73,11.94h.14c.14,0,.2.07.2.17s-.07.17-.24.17c-.1,0-.17-.03-.17-.1,0-.1,0-.17.03-.2l.03-.03ZM17.41,11.94c.17.03.27.07.27.1,0,.1-.07.17-.17.17s-.14-.03-.14-.14l.03-.14ZM18.57,11.87c.17.1.27.24.27.34s-.07.17-.17.17c-.17,0-.27-.1-.27-.27s.07-.24.2-.2h.03l-.07-.03ZM21.12,11.8c.17.03.27.1.27.17,0,.24-.1.34-.27.34l-.1-.1-.07-.17s.07-.14.17-.24M6.94,11.73c.03.07.03.17.03.27v.34c0,.34.1.51.31.51.1,0,.24-.07.37-.24l.07.07c-.1.31-.27.48-.51.48s-.41-.14-.48-.41l-.07-.2v-.07c0,.17.1-.1.27-.75M15.48,11.84l.07-.07.07-.03h.07c.17,0,.27.1.27.27s-.1.24-.27.24-.24-.07-.24-.2c0-.1,0-.17.03-.2M6.39,11.67l.03-.1.14-.07c.1,0,.14.1.14.27,0,.07-.03.1-.14.1s-.17-.07-.17-.2M6.05,11.5c.1.03.17.1.17.14l-.07.07c-.1,0-.14,0-.17-.03l.07-.17ZM16.16,11.5l.1-.07h.03c.1,0,.17.1.17.27s-.03.24-.14.24c-.17,0-.27-.07-.27-.24,0-.03.03-.1.1-.2M17.35,11.36h.03c.24,0,.34.07.34.24,0,.1-.07.17-.24.17s-.27-.07-.27-.24c0-.1.03-.17.14-.17M14.76,11.33c.27.03.41.1.41.2v.07h-.14l-.1.03-.1-.03-.07-.03-.03-.17.03-.07ZM21.6,11.36c.14,0,.2.07.2.17,0,.2-.07.31-.17.31-.17,0-.24-.1-.24-.34h.03v-.07l.14-.07h.03ZM16.63,11.5v-.07c0-.1.07-.14.17-.14.14,0,.2.07.2.17s-.07.17-.17.17c-.03,0-.1-.03-.2-.14M18.06,11.22h.03c.17-.03.24.1.24.41,0,.1-.03.14-.1.14-.2,0-.31-.14-.31-.37,0-.1.03-.17.14-.17M5.58,11.36v-.1c-.03-.1.03-.14.14-.14s.17.07.17.17-.03.14-.14.14c.03,0-.03-.03-.17-.07M15.51,11.16h.17c.17,0,.24.07.24.17,0,.14-.1.2-.31.2-.14,0-.2-.07-.2-.17s0-.17.03-.21h.07ZM6.8,11.33l.07-.37.2.03.07.07c0,.17-.1.27-.34.27M4.8,10.99l.31-.07.14-.03c.1,0,.17.03.17.1,0,.14-.07.38-.24.68l.03.03h.03l.07-.17.31.1.17.1c.07.2.1.37.1.48v.03c0,.14-.07.2-.24.24-.2-.24-.44-.37-.68-.37s-.41.03-.48.1l-.38.27c-.44.31-.75.92-.92,1.84l-.03-.31c-.37.03-.71.27-1.02.65l-.1-.1,1.09-1.9c.1-.17.17-.27.2-.41l.14-.2c.1-.14.24-.34.48-.54.2-.27.48-.41.85-.51M12.18,10.85c-.58,1.06-.88,1.87-.88,2.45,0,.2,0,.34.03.41l.17-.1c-.03.1-.1.14-.17.17l.14-.07.07-.31.03-.34.14-.34c.1-.31.24-.54.41-.71l-.03.03c.44-.51.71-.75.85-.75.03,0,.1.07.14.2l.07.31.17-.07-.17.14h.1l.2-.27h.1l.2-.07.41.1c.1.07.2.1.31.1.37.03.58.14.58.24,0,.17-.03.31-.1.48l-.31.61-.54.61-.24.27.44.1.03.07.03.07c0,.41-.24.85-.68,1.29l-.71.61c-.34.34-.51.78-.51,1.29v.41l.03.34-.07-.1c-.14-.1-.17-.2-.14-.34v-.61h-.14l-.03.61-.14-.14-.07-.2v-.07l.07-.34.03-.51-.07.03s-.07.1-.1.27l-.03.2v.03s.03.1.1.2l-.07.14c-.1-.03-.17-.1-.17-.2l.03-.17-.03-.51.17-.54.03-.24-.03.07c-.03-.14-.07-.2-.07-.17l.07-.34.2-.58s.07-.1.07-.2c.07-.1.1-.2.2-.31l.17-.31-.24.34.2-.31h-.03c-.1,0-.17.07-.24.2l-.2.38c-.07.14-.14.2-.17.31l-.2.58-.1.27.03.85-.03.37-.24-.27.1-1.09-.17.03-.03.61-.2-.31.03-.41.14-.48v.07l-.1-.07-.14.48-.1-.03.03-.1-.1-.31-.03-.14-.07-.37-.07-.24c-.03-.07-.03-.24-.03-.48,0-.68.2-1.36.61-2.01l.2-.34v.03c0,.14.03.2.07.2.1,0,.2-.14.24-.38,0-.17.07-.24.24-.27l.24-.1h.07ZM6.02,11.09v-.1c-.03-.14.03-.2.27-.2s.34.1.34.34c0,.17-.07.24-.24.24-.14,0-.27-.03-.44-.14l.07-.14ZM3.98,10.82l.17-.07.03-.03c.07,0,.1.03.1.14v.07s-.14.1-.27.17c-.1.03-.2.14-.27.31l.03-.27c.1-.07.17-.17.2-.31M18.33,10.75l.03-.07h.14v.37l-.1.1c-.1,0-.14-.07-.14-.17,0,.03.03-.07.07-.24M5.61,10.68l.03-.1.2.07.03.07c0,.1-.07.17-.17.17-.07,0-.1-.07-.1-.2M17.62,10.58c.17.07.24.14.24.24l-.03.1-.07.2h-.07c-.1,0-.17-.07-.17-.2s0-.24.03-.27l.07-.07ZM22.75,10.58c.17.51.27.89.27,1.19,0,.14-.03.24-.14.31-.17.14-.24.24-.24.27l.1.1c.1,0,.14-.07.17-.24l.1-.03v.07c0,.24-.17.44-.51.65v.07l.17-.03c.07-.03.14-.07.24-.1-.03.37-.27.68-.71.99-.2.14-.61.34-1.19.58v.1l-.03.03h.14l.51-.2.37-.17.24-.24.31-.24.14-.17c0,.31-.07.51-.24.61l-.27.17-.14.54.14.07c-.68.99-1.4,1.5-2.14,1.5-.24,0-.51-.07-.78-.2l.85-.1c.1-.03.2-.1.31-.14.1-.03.2-.1.31-.14l.17-.03h-.03l.1-.03-.07-.03c-.34.07-.61.1-.85.1-.1,0-.24-.03-.37-.03-.17-.07-.31-.1-.48-.14-.14-.07-.27-.14-.34-.2-.14-.1-.17-.17-.17-.24s.24-.14.68-.17c-.03-.17-.14-.31-.27-.37l-.37-.44c-.03-.07-.07-.17-.1-.27l-.1-.2-.2-.44-.07-.1c0-.07.07-.1.17-.1.17,0,.27,0,.31.03.41.03.65.07.71.1.1.03.17.1.2.1l.14.1.03-.03.1-.03s-.03-.14-.03-.31l.07-.1h.17l.44.03h.37c.31,0,.65-.1,1.09-.34.51-.44.78-1.02.78-1.73,0-.17,0-.27-.03-.34M4.73,10.44c-.03.27-.1.41-.2.41s-.14-.03-.14-.1c0-.1,0-.2.03-.24l.31-.07ZM6.73,10.14c.17.03.27.14.27.27,0,.24-.1.34-.27.34-.2,0-.31-.1-.31-.31,0-.1.1-.2.31-.31M17.58,10.14l.07-.1h.03c.17,0,.24.07.24.2,0,.1-.07.17-.17.17.03,0-.03-.03-.17-.07v-.2ZM4.25,10.2c.31-.17.58-.24.89-.24.58,0,.92.2,1.02.65-.37-.31-.68-.48-.92-.48-.48,0-1.02.27-1.6.78l.07-.27c.1-.1.17-.2.27-.27.1-.07.17-.14.27-.17M4.52,9.59c.17,0,.27.07.27.17l-.17.03c-.07.07-.24.1-.41.17.07-.17.17-.31.31-.37M17.52,9.52c.1.03.17.1.17.14v.07l-.07.14-.14-.14v-.17l.03-.03ZM10.75,8.81c.07-.1.17-.14.27-.14.27,0,.41.17.41.51,0,.1,0,.14-.03.17l-.48,1.09-.1.31-.14.34v-.41l.17-.65h.03c.03-.31.07-.51.14-.65,0-.07.03-.07.03.03,0-.03-.03-.17-.1-.34l-.14-.03c-.07,0-.14.03-.24.1v-.2l.17-.14ZM1.12,8.78l.41-.38h.07c.34,0,.51.24.51.75v.37c0,.1-.03.24-.07.48l-.14.48-.48,2.55-.07-.03-.03-.51.07-.24.14-.78s.03-.07.07-.31c.17-.65.24-1.22.24-1.67v-.31c-.07-.17-.17-.24-.27-.24-.27,0-.38.2-.34.58v.37c-.1-.03-.17-.17-.17-.37l-.03-.51.03-.07.07-.07v-.1ZM24.39,8.47c.44.85.65,1.73.65,2.72,0,.51-.07.85-.2,1.02l-.41.37-.2.2-.14.1-.1.03c-.1,0-.14-.03-.14-.14l.03-.1v-.51h-.1c-.17,0-.31-.07-.41-.2l-.14-.37-.03-.44c-.03-.54.24-.85.88-.88.17,0,.24.1.24.31l-.03.17s0,.1-.03.2c-.1-.17-.24-.27-.34-.27-.31,0-.44.1-.44.31,0,.07.07.24.17.55l.24.1.34-.03c.34-.17.51-.58.51-1.23,0-.37-.1-.85-.34-1.39v-.51ZM25.27,8.2l.07.03c.17.24.31.34.41.34.07,0,.17-.03.34-.14l.03.1c0,.27-.1.41-.34.41-.17,0-.34-.17-.51-.51v-.24ZM24.45,7.82c.78.44,1.22,1.77,1.36,4.05v.41c.03.31,0,.65-.03.99-.07.31-.1.51-.14.61,0,.17-.03.27-.07.27s-.27-.07-.65-.24c.03-.07.03-.2.03-.37l.07-.2c.17-.58.24-1.12.2-1.63v-.48l-.03-.54-.03-.2c-.1-.37-.14-.68-.2-.92,0-.24-.03-.37-.07-.41l-.1-.31-.24-.61-.1-.2v-.2ZM6.12,7.52l.03-.03s.27-.03.65.07l.14.03.14.03c.27.07.41.17.41.31,0,.07-.1.14-.27.2l.07.1.24.2c.1.17.14.31.14.44,0,.24-.1.48-.24.65-.2.17-.38.27-.61.27-.17,0-.41-.07-.71-.24-.31-.17-.48-.27-.51-.27-.14,0-.24.14-.27.37-.17-.03-.24-.1-.24-.24,0-.24.14-.37.41-.37h.1l.65.31s.1.07.2.07c.31,0,.51-.14.61-.44v-.14c0-.1-.03-.17-.1-.2l.03-.07h-.07c-.24-.24-.48-.34-.75-.34-.68,0-1.22.27-1.6.78l-.38.54c-.03.1-.1.24-.14.31-.03.14-.07.2-.1.27l-.14.03.03-.1.03-.34.17-.31.41-.78.24-.17.24-.34.95-.61h.24ZM20.54,7.31c.27.03.54.2.78.44l.14.07c.44.37.75.58.92.58l.24-.03c.1-.17.17-.31.17-.34,0-.1-.03-.17-.14-.27.34.1.51.31.51.54,0,.38-.2.55-.65.55-.17,0-.37-.07-.61-.24l-.55-.58-.82-.71ZM2.99,6.9c.17.31.24.51.24.68l.03.51h-.07l-.1-.14-.14.1-.03-.2.03-.78.03-.17ZM6.46,6.87c.31-.17.54-.27.68-.27.1,0,.17,0,.2.03.17.03.27.17.27.41s-.07.34-.24.34c-.03,0-.07-.03-.07-.14v-.03l-.03-.14c-.17-.1-.31-.17-.41-.17s-.34.1-.65.27v-.1l.07-.03.17-.17ZM2.72,6.8l-.07-.24.14.03.03.31-.1-.1ZM16.43,6.63l.2-.03.75.03.27.1.34.17.1.1.17.1c.1.1.24.2.34.31.1.1.2.17.31.27l.34.2-.1-.17-.24-.34-.1-.1-.38-.27-.1-.03-.2-.2.37.03c.14.03.24.07.31.1l.17.1.07.14c.07,0,.1.03.2.03v-.2l.14.07.2.03v.03l.1.07c.24.03.48.14.65.27l.17.14.2.17.2.14.27.27.24.17.17.24.31.27.14.27c.44.51.68.88.65,1.12v.17l-.03.41v.24l-.1.07-.03.51-.1.24-.03-.27h-.1c-.1.58-.24.92-.48,1.09l.1-.41.1-.37c.07-.17.1-.44.1-.82s-.03-.71-.1-.95l-.1-.41-.1-.34-.17-.34-.41-.58-.51-.44-.27-.14.1.2.27.31c.51.44.71.95.68,1.57v.2l.03.37s.03.1.03.2-.17.14-.48.14c-.1.85-.65,1.53-1.63,1.97l-.1-.41-.2-.31c-.24-.37-.37-.68-.37-.92,0-.03.03-.14.07-.31.14-.41.2-.65.2-.68,0-.1,0-.2-.03-.24l-.14-.07s-.1.1-.2.27c-.1.17-.24.27-.34.27s-.17-.1-.2-.31l-.17-.31-.1-.31-.03-.14c-.07-.31-.1-.48-.1-.58-.03-.07-.03-.14-.03-.24v-.17c-.03-.1-.07-.2-.14-.34l-.1-.24-.27-.27c-.1-.17-.24-.27-.44-.34l.1.1.14.14.34.34.2.54-.17-.17-.24-.17c-.1-.1-.2-.14-.31-.17-.44-.24-.88-.37-1.33-.37-.37,0-.85.14-1.5.37-.17.1-.27.2-.27.27l.1.07c-.07,0,.14-.03.58-.1h-.14.24c.27-.1.51-.14.71-.14h.17c.1,0,.2,0,.27.03l.44.07.44.27-.2.31.07.1h-.07c.1.03.17.1.27.17l.2.17c.31.24.44.68.44,1.36,0,.48,0,.71.03.68-.17-.03-.31-.03-.41-.03-.1-.03-.2-.03-.31-.03-.51-.07-.78-.14-.88-.24l-.17-.2-.37-.1c.17.17.24.31.24.44s-.17.2-.51.2h-.31c-.1-.03-.2-.03-.31-.07l-1.26-.41s-.14-.03-.31-.03c-.75,0-1.39.51-1.94,1.5-.03.1-.07.2-.17.31,0-.71.31-1.36.92-1.87l.2-.14c.24-.03.34-.1.34-.2l-.03-.1.03.1s-.1.1-.27.14l.27-.14-.03-.1-.37.14-.2.17-.24.17-.31.27c.03-.27.14-.51.27-.71l-.1.03.48-.31c.14-.14.31-.24.54-.27l.82-.24.34-.03s.07-.07.1-.17l-1.19.34-.82.34.17-.37.34-.24.1-.17.07-.03-.1-.03.17-.27.27-.24.27-.27.55-.31-.03-.07.17-.03.1-.14.07-.03c.24-.24.61-.41,1.12-.54.2-.1.48-.14.82-.14.27,0,.65.07,1.09.17-.24-.17-.58-.24-1.02-.24h-.44l.1-.07.78-.14c.51.1.88.17,1.09.31l.68.34c-.37-.27-.65-.44-.88-.54l-.14-.07c-.07-.03-.14-.07-.24-.1M2.38,6.39l.17.34.07.34.17.65.07.34-.07.24c-.03.14-.07.2-.07.24l.07.07s.1-.07.14-.2c.03-.14.1-.24.14-.27l.17.68.03.31v.2c-.03.07-.03.17-.07.27l-.07.37c-.2.48-.37.78-.48.88-.1.1-.17.2-.17.31l.1.1.07-.03.31-.51c.1,0,.17.07.17.17l-.03.17c.07.17.1.34.1.51,0,.51-.2,1.12-.65,1.84-.44.65-.68,1.26-.75,1.84l.14.41c.07-.31.31-.71.68-1.26l.37-.2.03.41.14.03.44-.44.51-.07-.03.14v.61c0,.1-.03.17-.14.27l-.41.41c-.1.1-.2.17-.24.2v.14l.37-.07c-.03.41-.1.65-.17.71l-.92,1.57s-.1.14-.24.31l-.03.17-.03.51-.03.17c0,.1.03.14.14.14.07,0,.1-.14.1-.37.03-.37.37-.88,1.02-1.53l.14.24c.07,0,.17-.07.27-.2.14-.17.27-.27.37-.38.14-.07.27-.1.34-.14.14-.03.2-.03.24-.07l.03-.14c.1.44.17.78.17.95,0,.31-.07.58-.17.85l-.17.34-.14.34h.14l.2-.1-.14.2-.14.2c-.2.44-.27.65-.2.65l.1-.07-.75.78c-.17.17-.27.34-.31.51l-.17.44c-.07.07-.17.07-.41.07h-.2c-.17,0-.31,0-.37.03l.03-.78-.14-.03-.07.37-.1-.24.03-.92-.14.03v.44l-.07-.03c-.1-.31-.17-.51-.17-.65,0-.2.03-.38.14-.55l-.14-.07-.1.34-.1-.58.17-.61v-.1c-.1.03-.2.17-.24.37l-.07-.41.03-.17.07-.24.07-.17.03-.1-.1-.1-.07.17-.1.1-.03-.37.03-.07.17-.48-.1-.14-.14.24-.03-.48.17-.31.1-.24-.1-.1-.14.24-.03-.03-.03-.24c0-.17.07-.34.2-.51l.1-.24-.1-.07-.14.2.03-.54.1-.24.31-.48-.14-.07-.21.37h-.07l.17-1.29.1-.34.07-.54.37-1.6.17-1.02.1-.2.03-.65-.03-.07v-.14l.03-.38-.17-1.9h.2l.03-.03ZM10,6.12c.17.03.24.1.27.27l.07,10.54c-.17,0-.27-.07-.31-.2l-.03-10v-.61ZM25.75,6.16c.1.17.17.31.17.37,0,.24-.14.34-.44.34h-.14l-.44-.24.07-.03h.31c.31.03.48-.07.48-.37v-.07ZM8.23,6.12l.44-.07.51-.03h.17c.2-.03.34-.03.41.03.07,0,.1.07.1.17l.03,10.51-.24-.03-.61-.17c-.1,0-.2,0-.27-.03l-.14-.03c-.07,0-.17,0-.27-.03l-.37-.07-.07-8.26v-1.87l.31-.1ZM22.99,6.02l.34.31c.58.71.88,1.26.88,1.63v.37l-.17-.03-.07.07-.07.68c0,.17-.03.27-.1.37-.17.27-.37.41-.61.41l-.07-.03-.07-.07.17-.27.07-.2.14-.51v-.31l.03-.48-.24-.71-.27-.37c-.03-.14-.07-.2-.07-.17,0-.03.03-.1.07-.24.03-.17.07-.31.03-.44M20.24,5.92c.2.17.31.34.31.51,0,.34-.2.51-.61.51-.17,0-.27,0-.31-.03l-.85-.24c-.14-.03-.34-.07-.65-.1l-.37-.07c.1-.03.2-.03.31-.03.1-.03.17-.03.2-.03.14,0,.34.03.58.1.24.07.44.1.61.1.14,0,.34-.07.61-.2.14-.1.2-.2.2-.37l-.03-.14ZM22.86,5.48l.1.07.2.2.58.48.17.1.17.07.1.03h.07c.17,0,.31.1.41.31.2.41.61.71,1.22.92-.24.24-.44.34-.61.34-.14,0-.34-.1-.58-.27l-.1-.07-.24-.31-.82-1.09-.2-.2-.17-.1-.27-.24v-.07l-.03-.17ZM3.23,6.02v-.24c-.03-.31.14-.48.54-.48.34,0,.51.24.51.72,0,.51-.14.88-.41,1.19.1-.24.14-.54.14-.85,0-.17-.03-.34-.14-.51l-.2-.03c-.14,0-.24.14-.27.37l-.17-.17ZM8.6,5.48l1.02-.17.14-.03c.24,0,.48.03.75.14l.14.03.1.03.24.03.37.14.17.07.24.14c.27.1.51.27.75.54.31.31.44.65.44,1.02l-.07.1h-.61l-.07.31c-.07.37-.37.58-.92.58-.1,0-.2-.03-.37-.1l-.2-.17-.14-.24-.03-.1-.03-.27.07-.24h.07c.03.1.03.2.07.27l.07.14h.31c.31.03.48-.14.51-.51,0-.2-.07-.41-.2-.58l-.1-.07-.07-.03c-.51-.44-1.23-.68-2.11-.68-.24,0-.51.03-.82.1-.31.07-.58.14-.88.27-.27.07-.51.2-.75.34-.24.1-.41.24-.51.37-.24.24-.37.41-.44.44-.07.07-.2.14-.44.2l.14-.24.31-.2.2-.27,1.09-.75.31-.2c.27-.17.71-.31,1.29-.41M12.96,6.36c-.31-.1-.48-.27-.48-.51,0-.41.24-.61.68-.61.58,0,.88.34.88,1.06,0,.51-.14.85-.41,1.05l-.27.2-.2.17-.1-.07c0-.1.07-.17.2-.24.24-.31.41-.58.44-.85l.03-.24.03-.14c0-.37-.17-.54-.54-.54-.1,0-.2.07-.34.2l.07.51ZM1.77,4.83l.48.37.07.07.14.1.17.17v.07l-.2.03.03.14v.03l.27.03c.17.03.24.1.24.27l-.2.03.03.1c.31.1.41.27.37.58v.07l-.2-.27c-.2-.2-.41-.31-.65-.31s-.37.03-.41.1l-.34.41-.07-.24.1-.2v-.24.07l-.03-.07h-.17l-.27-.03-.03-.17c0-.2.17-.37.54-.55v-.2c0-.1.03-.2.14-.37M6.8,5.2l.75-.51.14.2.03.07v.07c0,.1-.1.24-.34.37l-1.74,1.43-1.29,1.6-.44.85-.48,1.53-.14.31.03-.31c0-.14-.03-.27-.1-.41l.24-.88c.03-.14.1-.27.14-.41l.2-.41.55-.92c.17-.31.37-.58.54-.82l.34-.37,1.12-1.02.44-.38ZM6.33,4.93c.65-.37.95-.58.85-.58.03.03.1.07.2.1l-.24.17-.41.27-1.12.99-.31.24.14-.17.1-.14c.17-.31.44-.61.78-.89M13.67,5.03c-.03-.17-.07-.31-.07-.34,0-.27.2-.41.65-.41.1,0,.17.07.27.24h-.07c-.37,0-.54.14-.54.44s.17.54.54.75l.2.1.1.14c-.44-.1-.75-.34-.99-.75l-.1-.17ZM10.51,4.97h.1l.27-.03c.51-.1.88-.24,1.16-.51.2-.2.37-.34.41-.34l.2.07-.34.41c-.31.31-.68.51-1.05.58l-.27.03-.31.03c-.1-.03-.17-.1-.17-.14v-.1ZM5.31,4.52c.2-.31.41-.48.65-.48s.37.14.48.44c-.1-.03-.2-.03-.31-.07h-.17c-.31,0-.44.14-.48.41l-.07.54-.1.31-.1-.75.1-.41ZM17.48,3.81l.07-.07.54.1.89.34c.1.03.24.1.41.27.31.27.48.54.48.85,0,.58-.27.89-.82.89-.2,0-.41-.14-.65-.41.03.03.14.03.31.03.44,0,.68-.24.68-.68,0-.1-.03-.2-.14-.37-.31-.34-.65-.58-.99-.68l-.41-.14-.37-.14ZM1.02,4.05c.24-.27.55-.41.95-.41.2,0,.44.03.68.14l.17.1-.1.07s-.14,0-.27-.07c-.1,0-.2-.03-.31-.03-.37,0-.65.1-.75.27l-.03.1-.03.07.1.14s.14-.03.27-.03l.03.03c0,.2-.1.31-.34.31-.14,0-.24-.03-.31-.14-.07-.1-.1-.17-.1-.27,0-.14,0-.24.03-.27M24.66,3.78l.07-.07c.1,0,.17.1.2.34l.17.27.31.24c.14.14.2.34.2.58,0,.31-.24.58-.68.82l-.07.1.03.24h-.17l-.55-.03-.44-.2-.51-.41-.14-.17-.31-.2-.41-.31-.17-.14.17-.03.85-.34.54.37.14.1c.44.17.68.27.72.27.31,0,.51-.07.58-.2v-.03c0-.14-.03-.24-.14-.34l-.2-.27c-.03-.1-.1-.17-.14-.24l-.1-.17.03-.17ZM25.17,3.98l-.1-.2c0-.1.14-.14.37-.14.31,0,.48.14.48.44,0,.1-.07.17-.24.27l-.1-.31c-.1-.07-.17-.1-.2-.1-.1,0-.17,0-.2.03M5.17,3.06l1.09.27c.37.14.71.31.99.51l.24.34c-.44-.27-.92-.48-1.36-.58-.65-.17-.95-.34-.95-.54M2.18,3.03l.31.17.34.2c.24.17.44.27.58.34l.2.14-.07.14-.14-.1-.27-.14-.34-.17c-.44-.2-.68-.34-.68-.44l.03-.07.03-.07ZM1.46,3.03c.24,0,.34.07.34.24l-.03.07c-.03.1-.1.14-.24.14-.17,0-.27-.1-.27-.27,0-.1.07-.17.21-.17M17.79,2.79h.2l.61.1c.2.03.38.03.51.07.17.03.27.03.37.07.07,0,.2.03.37.1.31.03.61.1.88.2.27.07.51.14.71.24l1.02.48-.37.17h-1.19c-.07,0-.1.07-.1.17,0,.07.03.14.14.17.1.07.2.14.34.17s.27.1.41.1c.14.07.24.07.31.07l.1.07.14.17.17.17c.17.24.31.58.34.95l-.1.24-.34-.1.03.27c.03.17-.03.37-.2.54s-.34.27-.51.27c-.2,0-.41-.1-.65-.31-.1-.17-.14-.27-.14-.37,0-.07.03-.17.1-.31h.1c0,.24.1.34.31.34.14,0,.27-.1.38-.27l.03-.14c0-.17-.07-.37-.2-.54l-.03-.1-.03-.1-.2-.27-.07-.1-.51-.48-.2-.14-.07-.07-.61-.31-.2-.1-.92-.41-.68-.2-.44-.1-.44-.1.51-.24c.1-.03.17-.1.2-.14l-.1-.17.03-.07ZM12.75,2.69c.14.07.2.17.2.27,0,.14-.2.34-.58.58-.14.03-.27.07-.37.14-.1,0-.2.07-.31.1-.51.14-.88.27-1.09.44-.17.17-.31.44-.34.82l-.1.07c-.1,0-.14,0-.17-.03.07-.61.44-1.09,1.09-1.39l.37-.1.58-.24.51-.2.1-.14.03-.14.07-.17ZM2.38,2.48h.07c.14,0,.2.07.2.17v.07l-.07.1v.07c-.2,0-.31-.1-.31-.27l.1-.14ZM2.01,2.62s.03.14.03.24l-.07.07c-.31,0-.44-.1-.44-.27,0-.14.07-.2.24-.2.03,0,.14.07.24.17M9.76,2.58l2.01-.1h.17c.48-.03.71.03.71.2s-.2.38-.58.55c-.41.17-.71.27-.99.37-.2.07-.37.14-.44.17-.37.24-.68.68-.85,1.33h-.24c-.44,0-.99.1-1.63.31l-.03-.37-.03-.48s-.03-.14-.1-.24v-.1l-.07-.07-.14-.17c-.34-.34-.58-.54-.75-.58l-1.39-.41c-.17-.03-.24-.1-.24-.24,0-.17.17-.24.51-.2h.1c.1.03.24.03.48.03h.27c.1,0,.24,0,.34.03.17.03.34.03.48.03.14.03.24.03.31.03.1,0,.24,0,.48-.03.24-.03.44-.03.61-.03l1.02-.03ZM23.43,2.89l-.1-.2-.03-.1c0-.14.03-.2.1-.2.24,0,.34.2.34.65,0,.17-.07.41-.2.75h-.03c-.41.65-.95.95-1.67.95-.17,0-.38-.03-.58-.14l.07-.1c1.22-.03,1.94-.41,2.11-1.16l.07-.24-.07-.2ZM23.09,2.89l-.2.03c-.24.03-.34-.1-.34-.34,0-.17.1-.24.34-.24.07,0,.14.03.2.14v.41ZM1.09,2.41c0-.2.07-.31.2-.31s.2.07.2.2c0,.1-.07.17-.24.17h-.14l-.03-.07ZM23.71,2.18l.1-.1h.03c.17,0,.27.1.27.27,0,.1-.07.17-.17.17s-.17-.07-.27-.2l.03-.14ZM2.18,1.87c.14,0,.2.07.2.17,0,.2-.1.31-.27.31s-.24-.07-.24-.2c0-.17.07-.27.24-.27h.07ZM22.48,1.8c.14.07.24.14.27.17l.03.1.03.1c0,.07-.07.1-.17.1s-.24-.03-.37-.1v-.17c0-.07.07-.14.2-.2M3.84,2.35c.03-.44.31-.68.78-.68.17,0,.34.14.44.37-.07-.03-.17-.03-.34-.03-.37,0-.55.2-.55.58,0,.17.1.38.24.61.2.24.27.44.27.58,0,.1-.03.2-.1.37.27.37.41.75.41,1.12,0,.61-.17,1.19-.48,1.7-.48.78-.72,1.19-.75,1.29-.03.17-.1.27-.2.27.1-.44.27-.85.58-1.26.14-.2.24-.41.27-.58.17-.31.27-.58.27-.78,0-.17-.03-.48-.1-.85l-.17-.37-.17-.14-.1-.1c-.07.37-.2.54-.44.54-.07,0-.17-.03-.34-.1-.24-.14-.41-.2-.48-.2-.14,0-.27.14-.41.41-.07-.17-.1-.31-.1-.41,0-.24.17-.34.48-.31l.2.03v-.44c.17.03.34.14.44.31.27-.03.41-.1.41-.24,0,.03-.03-.07-.07-.24l-.17-.14-.17-.2-.07-.24v-.14l.1-.27.2.07h.17l-.03-.55h-.03ZM23.23,2.18c-.24,0-.34-.1-.34-.34,0-.07.07-.1.24-.1.2,0,.31.07.31.24,0,.14-.07.2-.2.2M1.33,1.53c.27,0,.41.07.41.24,0,.1-.07.14-.17.14-.27,0-.41-.1-.41-.27,0-.07.07-.1.17-.1M24.45,1.97c.31-.31.51-.44.68-.44.48,0,.71.27.71.82,0,.34-.07.58-.17.72-.1.1-.41.24-.92.41-.27.1-.44.24-.48.34l-.07.27.27.1.07.1c0,.1-.14.17-.41.17-.1,0-.17-.03-.2-.14-.03-.1-.07-.17-.07-.2,0-.14,0-.24.03-.27l.14-.17c.31-.31.72-.58,1.29-.82l.1-.41-.03-.2c-.17-.1-.31-.17-.37-.17-.27,0-.41.17-.41.48v.17c.03.1.03.2.07.31l-.27.07c-.03-.1-.03-.17-.07-.24v-.14c-.03-.1,0-.37.1-.75M2.76,2.41v-.31c-.03-.51.14-.78.51-.78.14,0,.27.1.44.34-.44.03-.68.27-.68.65,0,.03.03.1.07.24l.1.31v.41c-.17-.37-.27-.61-.37-.72l-.07-.14ZM12.86,2.38c-.17-.03-.24-.1-.24-.24,0-.54.17-.82.51-.82.2,0,.34.14.44.44-.03-.03-.17-.03-.34-.03-.24,0-.34.2-.38.65M1.77,1.26l.24.07c.1,0,.14.07.14.17,0,.07-.03.1-.14.1s-.17-.07-.24-.17l-.03-.07.03-.1ZM23.71,1.9s-.1-.03-.17-.14c-.07-.1-.1-.17-.1-.27s.07-.17.2-.17c.17,0,.27.1.27.34,0,.17-.07.24-.2.24M5.48,1.97c.17-.58.58-.88,1.16-.88.37,0,.54.17.54.48l-.07.27c0,.1.07.17.21.27h.14c.14.03.24-.03.27-.24-.03-.03-.03-.14-.03-.27,0-.31.27-.48.85-.48.71,0,1.05.27,1.05.82,0,.14-.14.27-.44.41l.07-.34s-.03-.07-.07-.24c-.17-.2-.41-.31-.65-.31-.31,0-.54.1-.68.34l.17.41c-.24.17-.44.24-.68.24-.44,0-.65-.1-.65-.27l.1-.54c0-.1-.14-.17-.37-.17-.07,0-.37.17-.92.51M10.27,2.14l-.07-.34c0-.17.1-.34.31-.51.2-.14.41-.2.61-.2.71,0,1.19.41,1.39,1.19l-.24-.07c-.17-.48-.51-.71-.95-.71s-.65.14-.65.41l.03.14.14.2-.41.03-.17-.14ZM1.05,1.05c.14,0,.2.03.2.1,0,.1-.07.14-.17.14-.07,0-.1-.03-.1-.14l.07-.1ZM14.35,1.67v.07c0,.31.27.41.82.37l.2-.03.24-.1.2-.07.82-.65c.1-.1.27-.17.44-.17.58,0,.88.24.88.75,0,.37-.2.65-.61.78l-.03.14.1.2s-.07.07-.24.14l-.54.14-.71.07-1.57-.17c-.17,0-.24.07-.24.24s.1.24.34.24l1.19-.1h.03c.17,0,.55.07,1.05.2l.17.24h.34l.17.1.31.2c.2.24.37.48.48.75l-.41.03v.24c.03.17.03.31.03.41v.41c-.03.1-.27.14-.68.17l-.14-.24-.14-.07s-.1.07-.2.17c-.17.17-.41.27-.65.27-.58,0-.89-.24-.99-.71l-.07-.27-.1-.78.07-.1.17.27.27.85c.03.17.17.34.41.44.03.03.1.03.2.03.07,0,.2-.07.37-.2.1-.1.14-.2.14-.31l-.07-.27v-.1l-.1-.17-.14-.17-.1-.1c-.31-.34-.82-.58-1.5-.71-.17-.03-.41-.07-.71-.1-.27-.03-.58-.03-.95-.07h-.38c.41-.37.61-.71.61-1.02v-.24l2.79-.2c.17-.03.31-.07.37-.1.1-.03.31-.1.65-.2.24-.2.37-.37.37-.51,0-.2-.1-.31-.34-.31-.1,0-.2.03-.27.1l-.61.58c-.17.2-.58.31-1.19.31-.44,0-.78-.14-1.02-.41v-.14c-.03-.44.17-.65.61-.65.1,0,.2.03.31.1l.41.2.54.03c-.1.14-.24.2-.34.2-.07,0-.2-.03-.37-.1-.17-.1-.31-.14-.41-.14-.07,0-.17.07-.31.24M21.53,1.97c-.03-.17-.07-.27-.07-.24,0-.48.2-.71.58-.71.51,0,.75.17.75.51l-.1.1-.1-.03-.17-.14s-.1-.03-.2-.03c-.17,0-.31.1-.41.34.14.31.2.58.2.75,0,.1-.03.17-.07.2l-.17.2-.03.1c-.1.07-.17.1-.2.1-.37,0-.68-.17-.99-.51l-.03-.88c-.2-.14-.37-.2-.48-.2l-.95.65-.07.03-.1.03c-.44,0-.68-.2-.68-.61,0-.24.1-.37.31-.37.1,0,.2.03.34.1-.14.14-.2.24-.2.34,0,.14.1.2.34.2.07,0,.17-.1.37-.27.14-.2.41-.31.71-.31.48,0,.71.14.75.44l.03.61c.03.24.2.34.51.34.24,0,.34-.1.34-.31,0-.14,0-.24-.03-.27l-.17-.17ZM.82,26.39h25.54V.85H.82v25.54ZM.41.41h26.39v26.39H.41V.41ZM0,27.21h27.21V0H0v27.21Z" fill="#231f20"/>
    </g>
  </g>
</svg>