<?xml version="1.0" encoding="UTF-8"?>
<svg id="Layer_1" xmlns="http://www.w3.org/2000/svg" width="27.21" height="27.21" xmlns:xlink="http://www.w3.org/1999/xlink" viewBox="0 0 27.21 27.21">
  <defs>
    <clipPath id="clippath">
      <rect width="27.21" height="27.21" fill="none"/>
    </clipPath>
    <clipPath id="clippath-1">
      <rect y="0" width="27.21" height="27.21" fill="none"/>
    </clipPath>
  </defs>
  <g clip-path="url(#clippath)">
    <g clip-path="url(#clippath-1)">
      <path d="M18.33,23.3c.65-.41,1.09-.82,1.33-1.19l.37-.58.31-.44c.07-.14.1-.24.14-.34.1-.41.17-.65.2-.68l.14-.07.1.07c-.1.37-.17.61-.24.75-.07.17-.14.27-.17.34-1.19,2.14-2.79,3.26-4.73,3.33l.14-.31.51-.1.31-.07.75-.27.54-.27.31-.17ZM20.24,20.03l.37-.1c-.75,2.14-1.9,3.43-3.44,3.81-.78.2-1.16.31-1.09.31-.07,0-.1-.03-.1-.14,0-.03.03-.1.14-.24.07-.17.1-.31.1-.41l-.03-.1c0-.17.07-.27.24-.27h.03c.75-.24,1.33-.54,1.73-.95.41-.41.78-1.05,1.16-1.91h.88ZM7.69,18.13c.17.2.27.34.27.44.07.07.1.24.14.54.07.51.31,1.12.75,1.84l-.17-.03s-.03-.14-.07-.27l-.31-.51-.07-.2-.2-.44-.14-.37c-.03-.17-.07-.27-.1-.41-.03-.07-.03-.17-.07-.27l-.03-.31ZM12.38,23.13c-.1.24-.17.34-.2.37-.14.37-.27.54-.37.54s-.2,0-.24-.03l-.82-.1-1.67-.41-.44-.07-.61.2-.41.07-.1-.07-.03-.1-.03-.07-.03-.44-.03-1.26-.1-1.26-.1-.99c-.03-.17-.03-.31-.03-.48-.03-.14-.03-.27-.03-.38,0-.44.07-.68.2-.68.17,0,.27.31.34.88.17,1.09.65,2.01,1.5,2.75.85.72,1.9,1.22,3.23,1.5M11.84,24.22v.2c0,.1-.03.14-.1.14l-.61-.14c-.41-.14-1.02-.27-1.87-.44-.24-.03-.37-.07-.41-.07-.1,0-.24.03-.41.1-.17.07-.31.1-.37.1-.2,0-.31-.1-.31-.27l.78-.2h.14s.14,0,.27.03c.14,0,.31,0,.51.03l.95.27.31.1h.17l.95.14ZM20.58,15.65l.1.03.03.2c.41.55.61,1.26.61,2.18,0,.17-.03.48-.1.89l-.03.34-.24-.07.03-.34.07-.31s.03-.1.03-.2c0-.92-.17-1.84-.51-2.72M18.06,16.29l-2.96-1.67-.65-.34-2.01-.99-.07-.17.07-.1c.1,0,.17.03.27.14l.78.41c.24.1.44.2.61.24l.24.14.17.1.31.14.34.2.24.14.48.27.24.14.27.14.17.14.34.2c.1.07.2.14.31.17h.07l.27.2.14.07.2.17.2.17c.17.1.24.17.24.24l-.03.1-.27-.2.03-.03ZM12.35,10.48l.31.17.1.03.37.2.51.27,1.12.54c.34.17.54.27.71.34l1.16.61.75.37c1.4.72,2.35,1.43,2.82,2.14.48.71.71,1.73.71,3.03,0,.37-.03.68-.14.99h-.65c.1,0-.14.03-.75.1l.03-.24c0-1.02-.31-1.87-.92-2.55-.58-.65-1.6-1.33-3.13-2.11l-3.1-1.6-.07-.1c-.03-.1-.03-.24-.03-.37v-.31c0-.58.07-1.09.17-1.53M8.5,10.1l-.07-.2.71.89.31.34.38.31.37.31.78.54.1.07.27.14c.24.07.37.24.37.48l-.54-.34c-.31-.17-.58-.34-.85-.51-.2-.17-.44-.31-.61-.48l-.1-.07-.27-.31-.2-.2-.48-.61.03.03-.1-.2-.1-.17ZM10.68,4.25l.37-.2v-.03c.07,0,.1.03.1.14s-.03.14-.1.17l-.78.58-.17.2-.31.48-.14.65-.07.48.24,1.36-.24-.24-.03-.37-.14-.48v-.17c-.1-1.12.34-1.97,1.26-2.55M14.01,3.71c.68.1,1.29.24,1.8.41l-.03.07c-.72-.24-1.33-.34-1.84-.31l-1.12.1h-.44c-.07.03-.17.03-.27.07-.14.03-.24.03-.27.03-.07,0-.1-.03-.1-.14v-.07h.17l.37-.14.58-.03.24-.03s.17-.03.41-.03c.03,0,.07,0,.17.03l.34.03ZM10.44,3.2l.1-.03c.24,0,.37.24.48.75l-.34.17c-.92.51-1.4,1.4-1.4,2.59,0,.95.44,1.8,1.36,2.58l.51.41.27.24.17.1.07.07.1.07.07.07s-.03.1-.1.2c0,.1,0,.17-.03.24l-.07.27v.82c0,.17,0,.27.03.34v.34l-.07.07c-.1,0-.17-.03-.27-.14l-.48-.31c-.1-.07-.17-.1-.2-.14-.2-.1-.44-.27-.65-.48-.27-.24-.51-.48-.82-.78l-.31-.41-.34-.48c-.34-.58-.54-1.05-.58-1.43l-.07-.51c-.03-.1-.03-.2-.07-.34v-.24c0-.17.03-.24.07-.24l.34-.17.1-.17.24-.07.24-.07.17-.41-.07-.1-.17-.24-.48-.2c.31-.95,1.02-1.74,2.18-2.38M19.49,5.41c-.14-1.4-.2-2.08-.24-2.01l.1-.51.85,5.1-.14.51-.27.07h-.07l-.14-.07c.24-.17.37-.37.37-.58l-.2-1.12-.03-.48c-.03-.17-.07-.27-.1-.41l-.07-.24-.07-.27ZM11.22,3.03l-.03-.03c0-.1.1-.17.31-.2l.48-.14c.31-.07.78-.1,1.43-.1,1.33,0,2.59.14,3.77.37.31.07.54.1.75.1s.41-.1.61-.34c.1-.1.2-.17.27-.17.03,0,.1.03.2.1v.48l.54,3.57.2.95s.03.1.03.24c0,.31-.07.48-.2.48-.1,0-.2-.14-.31-.41-.24-.54-.41-.95-.51-1.22l-.17-.37c-.31-.78-.95-1.46-1.94-2.04-1.05-.58-2.07-.85-3.06-.75l-1.23.07h-.07c-.07,0-.17.03-.31.07-.14.03-.24.07-.27.07-.1,0-.17-.1-.27-.34l-.24-.37Z" fill="#a91e22"/>
    </g>
  </g>
</svg>