<?xml version="1.0" encoding="UTF-8"?>
<svg id="Layer_1" xmlns="http://www.w3.org/2000/svg" width="27.21" height="27.21" xmlns:xlink="http://www.w3.org/1999/xlink" viewBox="0 0 27.21 27.21">
  <defs>
    <clipPath id="clippath">
      <rect width="27.21" height="27.21" fill="none"/>
    </clipPath>
    <clipPath id="clippath-1">
      <rect y="0" width="27.21" height="27.21" fill="none"/>
    </clipPath>
  </defs>
  <g clip-path="url(#clippath)">
    <g clip-path="url(#clippath-1)">
      <path d="M17.82,20.14c-.17-.24-.24-.41-.24-.54,0-.1.03-.14.14-.14h.03l.1.31.31.44v.1h.03c0,.1-.07.17-.17.17s-.17-.1-.2-.34M12.18,19.05v.31c0,.1-.07.27-.17.58-.27.51-.48.92-.65,1.22-.17.31-.27.54-.31.65-.48,1.19-.85,1.87-1.12,2.07-.17.14-.27.24-.31.34l-.07.03h-.03s-.1-.07-.17-.17c.48-.44,1.02-1.33,1.67-2.72l.31-.61.2-.37c.03-.1.14-.27.24-.51l.41-.82ZM9.39,18.64l-.03-.27.17.14.1.41.2.58.07.27.27.34c-.03.1-.14.17-.24.2l-.1-.37-.27-.78-.03-.17-.14-.34ZM11.39,18.03c.51.17.78.44.78.82l-.03.1-2.31,4.32c-.24.44-.44.68-.55.68-.03-.03-.1-.14-.2-.31l-1.39-3.54-.61-1.63c-.17,0-.24-.07-.27-.2-.03-.17.03-.27.17-.34l.14-.03c.2,0,.44.03.68.14.2.03.37.07.51.07.17.03.31.03.41.07l.24.07.24.14.51,1.73.17.31s.14.03.24.03c.03,0,.14-.14.27-.37l1.02-2.04ZM13.47,16.29l.27-.58h.03l.07.1-.03.14-.14.31-.24.48-.27.54-.1-.1c.03-.14.17-.44.41-.88M21.09,15.61c.1,0,.17.03.2.1,0,.07-.03.2-.1.44l-1.09,3.23-1.39,3.2-.61,1.16c-.24.41-.41.61-.48.61s-.14-.07-.2-.17l.31-.37.14-.14.24-.54.55-.95.51-1.33.48-1.05.14-.34c.1-.24.2-.48.24-.61.07-.2.14-.34.17-.44l.92-2.79ZM19.96,15.48l.99.14-1.43,4.05-1.57,3.43-.14.24c-.1.24-.27.48-.44.65l-.24-.31-.2-.48-.2-.44c-.1-.24-.17-.44-.2-.58-.24-.44-.34-.75-.34-.88,0-.1.1-.31.27-.61.58-.68.88-1.02.92-1.02.07,0,.14.1.17.27.14.44.34.68.58.68h.07l.07-.07s.07-.14.1-.27.1-.34.17-.61l.03-.07.03-.14c.03-.17.1-.41.24-.72l.37-1.19c.1-.44.24-.82.34-1.16.1-.27.2-.54.31-.71l.1-.2ZM21.46,14.69l.03-.1.1-.07c.07,0,.1.03.1.14l-.07.07c-.1,0-.14,0-.17-.03M15.41,14.22l1.16,3.13.37.82.03.07-.03.03v.07l-.65.75c-.1.1-.24.38-.41.78-.03.1-.07.2-.17.34l-.07-.2-.2-.37-.85-2.21c-.1-.44-.2-.75-.31-.99l.07-.17.07-.14.31-.58.27-.58.31-.61.1-.14ZM15.68,13.67l.88,2.65c.03.07.07.17.17.31l.27.51c.2.31.31.58.31.82v.07l-.24.17-.24-.51-.2-.58c-.14-.34-.24-.58-.27-.72-.03-.14-.07-.24-.1-.27l-.31-.78-.24-.71c-.1,0-.17-.24-.17-.68,0-.1.03-.17.14-.27M8.57,3.4c.51.03.88.14,1.06.37-.17-.03-.38-.1-.51-.17-.2-.03-.37-.1-.54-.2M25.71,3.06c.17.03.24.07.24.17,0,.27-.17.44-.54.54-.65.17-1.02.61-1.19,1.33l-.72,3.33-.68,2.62c-.37,1.22-.65,2.14-.82,2.75-.03.17-.1.24-.2.24l-.14-.03,1.02-3.44.68-2.89.37-1.56.07-.37.17-.92c.07-.37.17-.65.31-.75.1-.14.41-.31.92-.48.03,0,.14-.03.27-.14.14-.07.2-.2.24-.41M13.67,3.06c.2,0,.31.07.31.2,0,.24-.14.41-.37.51l-.37.17c-.2.1-.27.27-.24.44v.03c0,.14.07.44.17.95.03.03.03.1.03.2s0,.14.03.17l.37,1.39,1.56,4.97.14.31-.17.31-.65-2.01-.71-2.35c-.2-.68-.31-1.02-.34-1.06-.03-.17-.1-.31-.1-.44l-.1-.2-.27-.99-.27-.95v-.48l.31-.54.51-.2c.1-.1.17-.24.17-.34v-.1ZM22.41,4.22c-.17-.1-.34-.2-.51-.27l-.58-.27c-.24-.1-.34-.2-.34-.31,0-.24.14-.34.38-.34h.14c.44.14,1.12.2,2.04.2h.31c.44,0,.72,0,.78-.03l.71-.14h.03c.1,0,.14.03.14.14,0,.14-.07.2-.2.24l-.78.27c-.37.14-.68.95-.99,2.48-.03.14-.07.31-.1.51-.03.2-.1.44-.17.68l-.92,3.88-.85,2.79-1.09.03c.1-.31.17-.61.24-.89l.2-.71,1.46-5.31.34-1.22s.03-.24.03-.58c0-.44-.1-.85-.27-1.16M5.24,5.61c-.2-.68-.31-1.09-.31-1.26,0-.44.17-.75.48-.85l.82-.31.17-.31.17.24v.03c0,.1-.03.17-.1.2l-.92.34c-.17,0-.27.24-.27.75,0,.24.07.61.24,1.06l3.74,12.04h-.03c-.24,0-.37-.31-.48-.92l-.14-.38-.14-.44-.1-.24-.27-.85-.24-.82-.14-.38-.27-.85-.34-1.05-.38-1.23-.07-.27-.31-.92-.03-.14-.07-.2-.07-.17-.14-.51-.24-.75-.07-.27-.03-.14-.34-.92-.14-.51ZM9.73,3.57c-.34-.2-.68-.31-1.02-.31-.2,0-.31-.07-.31-.2,0-.17.2-.24.58-.2l2.59.27.41-.03,1.19-.07.2.03c.1.03.14.1.14.2s-.03.14-.14.17c-.58.17-.85.48-.85.99,0,.27.07.65.24,1.09l1.67,5.58.2.68.44,1.26-.88,2.01-.1.2-.17.37-.2-.07-.27.44-.1.27-.31.61-.1.24-.48-.17-.24.07-.31-.17.2-.41c.17-.37.34-.71.48-.92.1-.27.2-.44.24-.54.31-.51.44-.88.44-1.16v-.07l-.07-.24-1.84-6.12-.75-2.35-.24-.54-.41-.68-.24-.24ZM2.45,3.74c-.34-.31-.58-.44-.68-.48-.27-.07-.41-.14-.41-.24,0-.17.1-.27.31-.27.07,0,.2,0,.37.03.17.03.37.07.58.07.2.07.41.07.65.1.2.03.37.03.54.03.41,0,.85-.03,1.29-.1.44-.07.75-.1.85-.1.17,0,.27.07.27.17,0,.03-.03.1-.14.17l-.31.14-.41.14c-.37.1-.54.41-.54.92v.31c.03.07.03.2.07.31l2.79,9.12,1.09,3.13.03.14c0,.1-.03.14-.1.14-.1,0-.37-.07-.82-.24-.03-.03-.14-.03-.27-.03s-.24,0-.31-.03l-.65-.03-2.55-8.57-.34-1.09-.31-.95-.2-.58-.07-.27-.2-.65-.27-.75-.14-.24-.14-.27Z" fill="#a91e22"/>
    </g>
  </g>
</svg>