<?xml version="1.0" encoding="UTF-8"?>
<svg id="Layer_1" xmlns="http://www.w3.org/2000/svg" width="27.21" height="27.21" xmlns:xlink="http://www.w3.org/1999/xlink" viewBox="0 0 27.21 27.21">
  <defs>
    <clipPath id="clippath">
      <rect width="27.21" height="27.21" fill="none"/>
    </clipPath>
    <clipPath id="clippath-1">
      <rect y="0" width="27.21" height="27.21" fill="none"/>
    </clipPath>
  </defs>
  <g clip-path="url(#clippath)">
    <g clip-path="url(#clippath-1)">
      <path d="M20.2,23.84c.44-.37.71-.68.85-.88l1.06-1.63.1-.17.41-.68.07.24v.03c0,.1-.07.27-.24.51l-.68,1.06c-.92,1.36-1.67,2.04-2.21,2.04l-14.76-.1c-.17-.03-.24-.1-.24-.24l.07-.1c.1,0,.38.03.78.1h.31l1.67.03,3.47-.03,3.57.07,1.84-.03h.07c.14,0,.27,0,.41.03.17,0,.31,0,.48.03l.03-.07.88.03h.65c.65,0,1.12-.07,1.43-.24M12.11,16.97l.03.2c0,.1-.1.31-.31.58l-1.29,1.63-1.05,1.46c-.1.1-.17.2-.2.31l-.14.17c-.27.31-.48.58-.61.75-.14.17-.2.27-.24.31l-.1.24-.03-.2-.03-.07s.07-.17.17-.34l3.81-5.03ZM12.45,12.93l.37-.44c.1,0,.14.1.14.31v.03l-.03.2-.03.85-.2,1.33c-.03.31-.1.58-.17.78-.07.17-.14.34-.17.44l-4.32,5.61c-.1.1-.14.24-.14.41,0,.34.14.48.41.44h.71l3.23.03c1.6.03,2.93,0,3.98-.03,1.05-.03,1.87-.14,2.38-.24.92-.24,1.84-.78,2.82-1.7.51-.51.82-.75.95-.75.07,0,.1.03.1.14v.14l-.17.24-.31.54-.41.58-.68,1.05c-.44.71-1.12,1.09-2.04,1.09l-14.05-.14c-.17,0-.27-.07-.27-.24l.03-.1,7.86-10.58ZM6.43,5.99l.1-.34.2-.31.03-.14c.03-.17.1-.24.2-.2.1,0,.17.07.17.17l-.41.68-.24.88-.07.14c-.03.14-.1.17-.2.17l-.1.03s-.14-.1-.24-.27c.24-.03.37-.14.44-.31,0-.17.07-.34.1-.51M6.87,4.86c-.1.1-.17.2-.2.27-.17.24-.27.44-.31.58-.1.44-.17.75-.2.88l-.14.03c-.2,0-.31-.1-.31-.34l.1-.82.03-.61c.03-.1.14-.17.27-.17.03,0,.31.07.75.17M8.44,4.05l9.9.07c.2,0,.31.07.31.24l-.03.14-1.46-.14-5.14-.03h-3.71l-.24.1-.1-.1.07-.07.14-.03.14-.1.24-.07h-.1ZM13.37,15.31l7.96-10.61.17-.2.44-.72s.03.14.03.24c0,.07-.03.14-.1.24l-8.5,11.53-.07-.07v-.07l.07-.34ZM6.16,2.86l15.54.14c.1.03.17.14.17.24,0,.31-.2.71-.58,1.22l-4.35,5.85-3.4,4.42.07-.37.07-.44c.1-.37.14-.75.1-1.09v-.41c0-.24,0-.48-.03-.68l-.03-.31.07-.17,4.52-6.05c.34-.34.51-.61.51-.78s-.03-.31-.17-.38c-.07-.07-.27-.1-.58-.1l-9.59-.07c-.1,0-.24.03-.44.14-.14.1-.24.14-.27.14-.03-.03-.07-.07-.17-.07-.1-.07-.2-.1-.37-.2-.17-.1-.41-.14-.71-.1h-.37l.03-.92Z" fill="#a91e22"/>
    </g>
  </g>
</svg>