<?xml version="1.0" encoding="UTF-8"?>
<svg id="Layer_1" xmlns="http://www.w3.org/2000/svg" width="27.21" height="27.21" xmlns:xlink="http://www.w3.org/1999/xlink" viewBox="0 0 27.21 27.21">
  <defs>
    <clipPath id="clippath">
      <rect width="27.21" height="27.21" fill="none"/>
    </clipPath>
    <clipPath id="clippath-1">
      <rect y="0" width="27.21" height="27.21" fill="none"/>
    </clipPath>
  </defs>
  <g clip-path="url(#clippath)">
    <g clip-path="url(#clippath-1)">
      <path d="M11.09,5.68c-.17.17-.27.34-.27.44s.03.24.14.41l.14-.85ZM7.69,8.23c.2.1.41.17.54.24l.44.17c-.03-.31-.34-.44-.85-.41h-.14ZM5.68,4.18c.44.54,1.16,1.05,2.08,1.5.54.27.92.41,1.12.41-.07,0-.1-.03-.1-.14s-.31-.27-.88-.51c-.61-.27-1.36-.68-2.21-1.26M4.35,2.58c-.17.03-.24.14-.27.2,0,.14,0,.24-.03.37l.31-.58ZM2.52,3.71c.1-.1.17-.24.27-.34.07-.1.14-.24.24-.34-.03.03-.1.14-.2.24-.17.2-.27.34-.31.44M4.18,1.6c.14.1.24.2.31.27l.1.1-.1-.17c0-.07-.1-.14-.31-.2M14.18,7.07l-.99-.82c-.27-.2-.51-.34-.68-.44.38.31.68.58.95.78.31.2.54.37.71.48M18.84,5.48c.1-.07.2-.17.27-.27.1,0,.14,0,.14-.03-.24-.07-.37.03-.41.31M20.31,5.54c-.24-.1-.41-.2-.58-.24-.17-.07-.31-.1-.41-.14.24.1.41.2.58.27.17.03.31.07.41.1M19.35,7.55c-.03-.24-.1-.41-.24-.54l-.44-.48c.24.44.44.78.68,1.02M16.8,7.11c.24-.58.37-1.02.37-1.36v-.17c-.1.27-.2.54-.24.78-.07.24-.1.51-.14.75M15.31,12.45c.37.03.65.03.85,0-.07-.03-.27-.03-.61,0h-.24ZM14.35,12.18l.41.03h.71l.75-.03c-.2-.07-.61-.1-1.19-.1-.17,0-.37.03-.68.1M13.1,11.73l.65-.2c.65-.24,1.12-.48,1.43-.65-.71.17-1.39.44-2.07.85M9.97,14.39l-.14.14.44-.51c.14-.14.27-.27.41-.37l.71-.48c-.68.65-1.16,1.06-1.43,1.23M19.05,18.6c-.17.1-.27.17-.41.17-.07.07-.17.07-.27.1.03.03.14.03.24.03.17,0,.34-.1.44-.31M19.42,16.84c.07.24.17.48.31.71l.1-.03c0-.14-.14-.38-.41-.68M18.6,17.35c-.1.17-.17.31-.17.37l.07.14.1.17s.07-.17.07-.37c0,.03-.03-.07-.07-.31M25.17,2.86c-.1.1-.24.24-.48.34l.37-.1h.1c-.03-.07-.03-.14,0-.24M9.15,15.2c-.2.51-.41.85-.58,1.05.24-.2.37-.37.37-.54,0-.03.03-.1.1-.2.07-.14.1-.24.1-.31M9.11,25.24c.17-.1.27-.2.27-.24,0-.1-.03-.2-.14-.31-.03.1-.03.17-.07.27,0,.1-.03.17-.07.27M8.16,6.87c-.2-.07-.37-.14-.54-.17-.17-.03-.31-.07-.41-.1l-.07-.03-.07-.03-.1.1.03.14-.03.2h.48l.71-.1ZM8.1,19.01c.17-.31.34-.58.48-.85.2-.31.37-.58.61-.88l.41-.55s-.24.31-.61.82c-.24.31-.41.61-.54.82-.17.27-.27.48-.34.65M24.93,25.37c-.03-.17-.07-.34-.1-.54l-.07-.48c-.03.1-.03.2-.07.27v.2c0,.14.07.31.24.54M24.39,22.96c.1.17.27.27.51.34-.07-.24-.24-.34-.51-.34M22.65,24.56c.34-.07.54-.27.61-.58-.1.1-.2.2-.27.31-.14.1-.24.17-.34.27M14.15,21.84c.1-.17.17-.27.17-.31,0-.1,0-.2-.03-.24-.07.1-.1.27-.1.44l-.03.1ZM17.65,21.63l-.1.03c.1-.03.2-.03.34-.03l.2-.03h.17c.1,0,.2,0,.27.03-.17.1-.34.14-.51.14-.1,0-.2-.03-.37-.14M16.05,20.99c.61-.07,1.02-.1,1.19-.1h.31c.07.03.2.03.34.07-.31-.17-.58-.24-.82-.24-.2,0-.54.1-1.02.27M13.4,17.62c.24-.1.51-.24.85-.41-.24-.1-.51.03-.85.41M12.45,18.43c.1-.17.2-.34.34-.44.07-.1.17-.2.24-.27-.44.24-.61.41-.58.58v.14ZM13.57,19.59c.17.1.31.14.48.14.07,0,.2-.03.37-.1-.1-.03-.2-.03-.27-.03l-.17-.03c-.2,0-.34,0-.41.03M14.73,18.3c.37.03.68.07.85.14.2,0,.34.03.38.03l.54-.1c-.17-.1-.58-.14-1.23-.14h-.24c-.07.03-.2.03-.31.07M5.03,25.2c.27-.07.51-.24.68-.48-.1.07-.24.14-.34.24-.1.07-.24.14-.34.24M7.04,21.63l.07.58.17.68v-.65l-.24-.61ZM7.24,19.83c0-.61-.03-1.02-.1-1.22-.14.37-.2.68-.2.85l.14.14c.14.07.17.14.17.24M5.54,22.55l.2.82c.03-.07.03-.17.03-.34s-.07-.31-.24-.48M5,24.05c.1-.17.17-.34.17-.44v-.14c-.03-.07-.03-.14-.07-.24-.07.24-.1.44-.1.54v.27ZM3.06,1.73c-.41.1-.71.17-.92.17-.48,0-.71-.1-.71-.31,0-.03.04-.14.14-.31.31.24.58.34.82.34h.24c.07-.03.14-.03.24-.07l1.29-.37c.51,0,.75.2.75.65,0,.31-.17.68-.51,1.09-.61.68-.99,1.12-1.09,1.29s-.14.37-.14.65c0,.78.27,1.16.82,1.16.27,0,.41-.14.41-.37,0-.07-.14-.2-.44-.44-.31-.24-.44-.44-.44-.61,0-.44.17-.68.54-.68.1,0,.27.14.44.41-.17-.1-.31-.17-.41-.17-.2,0-.31.1-.31.34,0,.07.1.17.31.34.38.27.55.54.55.78v.07c-.1.37-.38.54-.85.54-.75,0-1.12-.27-1.09-.85l.03-.44c0-.1-.03-.14-.1-.14s-.14.03-.24.14c-.1-.44-.17-.78-.17-.95,0-.58.27-1.02.78-1.26l.82-.41c.17-.1.27-.24.27-.37,0-.07-.03-.1-.14-.1s-.24.07-.41.17l-.71.58-1.16-.07c.24-.17.48-.31.71-.41l.68-.37ZM13.06,16.26c.31-.41.58-.71.78-.88l.88-.61c.37-.24.58-.51.58-.75s-.1-.34-.31-.34c-.17,0-.27.07-.27.24l.1.24.03.03c0,.1-.03.14-.14.14-.17,0-.24-.1-.24-.34v-.1c.1-.34.31-.51.61-.51.44,0,.68.24.68.68,0,.24-.17.48-.48.68-.14.1-.41.24-.82.48-.37.24-.85.58-1.43,1.05M25.14,20.24c.1,0,.17.07.17.17,0,.14-.07.2-.2.2-.1,0-.14-.07-.14-.17s.07-.17.17-.2M24.76,20.27c0,.17-.07.27-.2.27-.17,0-.27-.1-.27-.27s.07-.24.24-.24.24.07.24.24M24.52,19.83c-.14,0-.2-.07-.2-.2,0-.1.07-.17.2-.17s.2.07.2.17c0,.14-.07.2-.2.2M23.03,1.87l-.24.03c-.31-.03-.58-.07-.75-.1-.17-.03-.31-.03-.41-.03-.78,0-1.16.24-1.16.71,0,.17.1.24.31.24.1,0,.24-.07.37-.2-.17.44-.37.68-.61.68-.27,0-.41-.14-.41-.44,0-.34.14-.61.41-.85.27-.24.61-.34,1.02-.34.31,0,.82.1,1.46.31M5.03,1.67l-.17-.37v-.03l.1-.1c.37,0,.54.2.54.61,0,.24-.07.37-.2.41l-.03.03c-.1,0-.17-.07-.2-.17l-.03-.37ZM11.97,2.31c.03-.78.27-1.16.75-1.16.24,0,.41.17.55.54-.17-.17-.31-.24-.48-.24-.37,0-.54.2-.51.61v.17l-.31.07ZM11.53,1.12c.14-.03.2,0,.2.1,0,.14-.07.2-.17.2-.17,0-.24-.03-.24-.14s.07-.17.2-.17M10.82,1.12h.03c.14-.03.2,0,.2.1s-.07.17-.2.17-.2-.03-.2-.14.07-.14.17-.14M10.54,1.53l.07-.03c.1,0,.17.07.17.17l-.1.1c-.1,0-.17-.07-.17-.17l.03-.07ZM11.63,2.35l-.54-.61-.03-.07c0-.1.03-.14.1-.14.1,0,.17.03.2.1l.37.68-.1.03ZM5.65,1.29c.24-.03.51-.03.78-.07h.78c.99,0,1.7.07,2.18.24.24.07.51.17.85.34l1.19.61-.41.1c-1.19-.65-2.21-.95-3.1-.95-.37,0-.71,0-1.06.03l-1.09.1v-.07c0-.14-.03-.24-.14-.34M24.35,1.8l.27.1c.24-.51.51-.78.78-.78.37,0,.58.24.58.68l-.14.24s-.03.07-.03.17.07.2.24.27c-.1.1-.17.14-.24.17-.17,0-.27-.14-.27-.37,0-.1.03-.2.1-.34.1-.14.14-.24.14-.31,0-.17-.1-.27-.34-.27s-.37.14-.37.41l.37.99c0,.44-.27.65-.78.65-.31,0-.75-.17-1.33-.51-.41-.17-.71-.27-.88-.27-.24,0-.37.2-.41.65-.24-.17-.37-.31-.37-.37,0-.44.31-.65.92-.65l.82.1.07-.2.71.07.51.58.1.03.1-.07s-.03-.03-.07-.17l-.37-.41-.1-.37ZM24.05,1.43l.07.2c-.24-.1-.37-.17-.37-.2,0-.1.1-.17.34-.27l-.03.27ZM20.2,1.87c.61-.54,1.12-.82,1.53-.82.51,0,1.29.27,2.35.85-.1-.03-.2-.03-.27-.07h-.17c-.14,0-.24,0-.31.03-.75-.31-1.29-.48-1.63-.48-.41,0-.92.17-1.5.48M18.91,2.55l-.17.14-.14-.07c.31-.51.58-.88.82-1.09.24-.2.65-.31,1.16-.34-.54.37-1.02.88-1.46,1.6l-.14-.03-.07-.2ZM19.01,1.73c-.1.14-.2.27-.31.44l-.27.44-.17-.07-.07-.14-.17.1-.14-.07c.31-.31.68-.54,1.12-.71M19.42,1.33c-1.67.61-2.55.92-2.58.92-.41,0-.61-.2-.61-.58,0-.14.17-.27.48-.37-.03.07-.03.17-.03.31,0,.17.17.24.54.24.24,0,.54-.07.95-.2.14-.03.31-.1.51-.14l.75-.17ZM13.88,2.14c.31-.58.71-.88,1.19-.88.41,0,.61.14.61.41v.1c-.17-.14-.31-.2-.37-.2-.2,0-.48.2-.78.58h-.65ZM23.67,4.05l.2.17.17,1.05.72,3.4.03.1c0,.34-.14.51-.37.51l-.03-.07.03-.1c.07-.2.1-.34.1-.44,0-.24-.14-.85-.41-1.87-.1-.51-.2-1.02-.31-1.46-.07-.44-.1-.88-.14-1.29M9.93,4.66c1.94-.71,3.57-1.05,4.9-1.05,2.69,0,4.97.71,6.8,2.14-2.48-1.33-4.63-1.97-6.46-1.97-1.39,0-3.09.37-5.13,1.12l-.1-.24ZM9.05,3.57c2.65-.75,4.69-1.12,6.16-1.12,1.9,0,4.05.51,6.43,1.53.44.2.75.31.95.31.14,0,.31-.07.51-.14l.31-.17c.07,0,.1.1.1.27.03.24.03.44.03.54l.03.17.82,3.33s.03.1.03.24c0,.41-.1.61-.27.61-.07-.03-.1-.14-.14-.24-1.29-3.64-4.25-5.48-8.91-5.48-1.67,0-3.4.34-5.24,1.05-.2-.41-.48-.71-.82-.92M25.2,3.54c.17-.14.27-.2.37-.2s.14.03.14.07c0,.31-.17.48-.51.48-.24,0-.34-.03-.34-.14l.34-.2ZM24.93,7.55l-.07-.1.24-.51.14.14-.31.48ZM25.31,7.41c.07.1.14.17.17.27-.03.14-.1.27-.17.41-.1.1-.17.24-.27.34l-.07-.37c.03-.1.1-.24.14-.31l.2-.34ZM24.49,6.02c.65.41,1.05.78,1.19,1.09.17.31.24.92.24,1.84v.41c0,.17,0,.34-.03.44l-.1-.07.03-.48c.03-.48.03-.89-.03-1.16,0-.34-.07-.54-.1-.71-.17-.37-.58-.78-1.26-1.22l.07-.14ZM24.59,4.66c.37.17.61.34.71.51.07.17.1.48.1.92v.14l-.17-.07c0-.44-.03-.75-.14-.92-.1-.14-.34-.27-.72-.41l.2-.17ZM25.27,4.18l.34-.2c.24.61.34,1.12.34,1.53,0,.17-.03.34-.03.55l-.14.75-.2-.41c.03-.17.03-.34.07-.48v-.38c0-.27-.14-.71-.37-1.36M9.56,14.18c1.33-1.39,2.48-2.31,3.44-2.69l2.58-1.05c.34-.14.51-.31.51-.54l-.03-.1-.1-.34.07-.07c.31,0,.48.2.48.61,0,.37-.2.68-.65.88-.1.03-.17.1-.2.17l.14.07.14.07c-.24.27-.78.55-1.63.78l-.95.27-.92.24c-.37.14-.68.31-.99.54l-.1.1.03.03c.1,0,.31-.1.58-.31.1-.07.34-.17.71-.31,1.19-.44,2.07-.65,2.62-.65.61,0,1.23.31,1.84.92-.27.1-.44.17-.48.2l.14.2c.1.14.14.27.14.44,0,.27-.24.44-.75.51.03-.03.03-.14.03-.27,0-.71-.61-1.09-1.84-1.09-1.39,0-2.92.82-4.66,2.48-.03-.17-.03-.37-.03-.54-.03-.2-.07-.41-.1-.58M8.33,20.71c1.39,1.02,2.55,1.7,3.54,2.04.92.34,2.04.51,3.37.51,1.53,0,3.64-.75,6.26-2.21v-4.93c0-.58-.2-1.02-.61-1.26-.37-.24-1.12-.44-2.21-.58-.34-.03-.51-.14-.51-.34,0-.14.24-.2.75-.17l2.52.1,2.92-.17h.1c.51-.03.75.07.75.24,0,.1-.07.17-.24.2l-.48.14c-.68.2-1.02.68-1.02,1.43v5.95c-3.88,1.8-6.7,2.69-8.47,2.69-2.07,0-4.28-.58-6.67-1.7-.03-.24-.03-.41-.03-.54-.03-.17-.03-.31-.03-.41s0-.24.03-.41c0-.17,0-.34.03-.58M11.29,24.05c1.26.31,2.38.44,3.33.44,2.18,0,5.17-.92,8.98-2.75v-5.85c0-.85.34-1.36,1.06-1.53.24-.03.44-.14.65-.27.1.1.14.17.14.2,0,.14-.07.2-.24.24l-.58.14c-.51.1-.75.41-.75.99v6.26c-3.81,1.87-6.67,2.82-8.57,2.82-.92,0-2.28-.24-4.01-.68M6.16,8.64l.17.27c-.24.44-.41.82-.51,1.12-.1.31-.2.58-.27.85-.07.27-.1.58-.17.95,0,.37-.07.85-.1,1.43l-.24-.14c.03-.58.1-1.09.14-1.5.03-.41.1-.75.14-.99.14-.51.41-1.16.85-2.01M2.86,12.62c.1-.71.2-1.33.31-1.84.1-.51.24-.95.34-1.26.24-.61.78-1.6,1.7-2.96.27.71.68,1.16,1.22,1.33-.58.99-.95,1.77-1.12,2.42-.1.31-.17.65-.27,1.12-.07.41-.14.95-.17,1.6-.61-.31-1.09-.44-1.39-.41h-.61ZM5,14.05l.31.31c.17,1.33.61,2.69,1.33,4.11l-.03.17c-.31-.51-.58-.95-.75-1.29-.17-.31-.34-.61-.41-.92-.14-.31-.2-.61-.27-.99-.03-.34-.1-.82-.17-1.4M4.93,19.79c-.85-1.33-1.4-2.38-1.63-3.13-.1-.37-.2-.85-.31-1.36-.07-.54-.14-1.16-.17-1.84h.37c.51-.03,1.05.1,1.67.48.03.58.1,1.09.17,1.5.1.44.17.78.27,1.05.2.48.65,1.29,1.29,2.41l-.14,1.09c-.51-.14-1.02-.2-1.53-.2M6.5,21.5c-.17-.17-.34-.31-.51-.48-.14-.14-.27-.27-.37-.44.31.03.61.14.88.27v.65ZM8.2,10.2c.03-.1.03-.17.03-.24.03-.07.03-.14.03-.24,0-.71-.24-1.05-.75-1.05-.17,0-.41.2-.65.58-.27-.27-.41-.51-.41-.71,0-.34.14-.54.44-.61l.44-.1.07-.14c0-.07-.07-.1-.2-.1l-.92-.03c-.37-.03-.61-.34-.78-.99v-.1c0-.1.1-.17.27-.17.1,0,.2.03.31.1.17.14.27.2.31.2l.1-.1c0-.1-.24-.34-.71-.65-.48-.31-.71-.85-.71-1.67,0-.31.03-.65.1-.99.31.34.82.54,1.5.58l.14.03c.1,0,.14,0,.17.03l.14.03.03-.07c0-.14-.03-.24-.14-.34.24-.1.51-.14.75-.14.27,0,.61.14,1.02.41.41.24.65.51.68.75l.27,1.22.24.68c.03-.1.03-.24.03-.37s0-.24.04-.27c.03-.55.17-.82.48-.82.03,0,.1.1.24.27.03-.03.07-.07.1-.17.1-.31.44-.44.99-.48-.24.24-.37.51-.44.82-.03.03-.07.34-.14.95-.03.17-.07.41-.1.65-.03.24-.14.54-.24.85v-.07c0-.17-.03-.27-.14-.27-.03,0-.07.03-.07.14l.03.44c0,.07-.07.2-.17.37.03-.07.03-.2.03-.41,0-.37-.07-.58-.17-.58l-.07.17.03.71-.24.61.03-.44-.07-.1s-.03.03-.07.14c-.07.31-.24.61-.48.92.17-.68.27-1.19.27-1.57v-.2c-.03-.1-.03-.2-.07-.31l-.17-.48c-.17-.34-.34-.51-.48-.51l-.1.1c0,.07.17.34.51.85.07.1.1.27.1.48,0,.51-.2,1.16-.61,2.01l.14-.58.07-.17c0-.1-.03-.17-.07-.17-.03.03-.07.07-.1.17-.1.37-.31.71-.54,1.02.1-.1.14-.2.14-.37l-.03-.1-.44.58ZM7.52,2.89c-.2.24-.41.34-.58.34-.34,0-.54-.14-.65-.44v-.1c0-.61.51-.92,1.57-.92.54,0,1.33.2,2.35.58l-1.29-.31c-.1-.03-.24-.03-.34-.07h-.34c-.95,0-1.43.2-1.43.65,0,.2.14.31.44.31.14,0,.24,0,.27-.03M14.18,10.75c-.31-1.19-.75-1.8-1.26-1.8-.24,0-.37.07-.37.2,0,.1.03.2.14.31l-.14.03c-.37,0-.58-.17-.58-.54s.17-.55.48-.55c.24-.03.37-.1.37-.14v-.03l-.17-.34-.03-.1c0-.1.07-.14.17-.14.27,0,.51.1.68.31.17.2.27.31.31.31l.07-.1c0-.24-.17-.41-.51-.51l-.65-.24c-.27-.1-.44-.27-.51-.51v-.03l.03-.07.2-.07.07-.07-.41-.44s-.07-.24-.1-.54l-.07-.17c0-.1-.03-.17-.07-.27l.82.17.31.34.07.03.1-.1.03-.14.03-.03c.31.03.51.24.61.58.1.44.2.65.34.65.03,0,.07-.07.07-.2,0-.27-.1-.51-.27-.68l-.44-.55c-.2-.2-.31-.44-.31-.71,0-.07.03-.17.1-.27.31.1.48.2.58.31l.07-.03.07-.41h.48l.14.54-.17.07v.03l.1.1.17.24c.07.1.1.31.14.58-.1-.27-.24-.41-.34-.41l-.03.03.03.1.37.58.07.48c-.31-.31-.48-.51-.51-.68-.31-.51-.48-.75-.54-.75v.07c.17.37.37.68.54.92.48.65.71,1.29.71,1.94-.17-.51-.27-.75-.37-.75l-.03.14v.07l.34.95v.78c-.1-.24-.17-.44-.2-.65-.07-.14-.14-.31-.17-.41-.17-.58-.37-.85-.61-.85l-.03.03c0,.14.17.48.51,1.05.1.17.17.38.24.65.1.27.17.61.2,1.02-.03-.1-.1-.2-.14-.31-.03-.1-.07-.17-.1-.27-.1-.24-.2-.37-.31-.37l-.1.07s.07.17.24.48c.17.27.24.54.27.82l-.48-1.16c-.14-.2-.24-.34-.34-.34l-.03.03.03.14.27.44.31.99-.48.17ZM12.21,4.52l.07-.17c.1-.03.17-.03.24-.07h.2c.17,0,.27.17.34.54-.2-.2-.41-.31-.65-.31h-.2ZM6.73,20.95c.17.03.31.07.44.17v.14c-.03.17,0,.27.14.27.1,0,.24-.65.34-1.94.1-.82.51-1.67,1.22-2.52.44-.58.85-.85,1.23-.85.27,0,.61.07.99.24l-.17.34-.27.17-.07.07s.03.03.14.07c.54.03.82.34.82.89,0,.07,0,.14-.03.24,0,.07,0,.17-.03.27-.17-.03-.27-.07-.31-.07-.03.58-.24.85-.65.85l-.95.03c-.17,0-.24.1-.24.31,0,.1.03.2.1.31h-.14c-.2,0-.31-.1-.31-.34,0-.31.14-.48.44-.58l.85-.2c.17-.03.24-.17.24-.44,0-.31-.17-.44-.55-.44-.51,0-.95.37-1.36,1.16-.41.78-.61,1.63-.61,2.55s.17,1.63.48,2.14c.17.31.27.51.27.58l-.03.1-.14.07v.1l.07.31-.07.03c-.1,0-.2-.07-.37-.24-.07-.07-.2-.1-.37-.14-.68-1.16-1.05-2.38-1.09-3.64M6.73,20.14c.03-.68.1-1.29.2-1.84.07-.58.17-1.05.27-1.5l.61-2.07c.07-.27.1-.54.1-.82,0-.88-.27-1.33-.78-1.33h-.14l-.2.07-.03-.24c0-.2.17-.31.55-.31.17,0,.31.03.44.14l.17.14.07-.14v-.07c.71.41,1.05.82,1.05,1.26,0,.1,0,.14-.03.17l-.41,1.12v.07l.07.07.14-.07.27-.2.27-.14c.03.1.03.27.03.44v.37c0,.44-.07.75-.24.99l-.99,1.33c-.34.48-.61,1.43-.82,2.89-.1-.03-.2-.1-.31-.17-.1-.07-.2-.14-.31-.17M12.04,20.95l-.03-.34c.27-.58.58-.92.92-1.05.2-.1.31-.17.31-.27l-.1-.03c-.2,0-.34.07-.44.2-.27.31-.44.48-.48.51-.03.03-.1.03-.2.07.31-.78.75-1.26,1.33-1.43.68-.17,1.02-.27,1.02-.34h-.1c-.78.03-1.36.27-1.67.68-.24.31-.41.44-.54.44l-.07-.03s.03-.03.07-.17l.27-.41.03-.14h-.14c-.07,0-.1-.1-.1-.27,0-.37.17-.82.51-1.29.85-1.16,1.73-1.73,2.69-1.73.41,0,.82.03,1.19.14l-.24.03c.48.2.71.34.71.41v.03l-.14-.03c-.34-.14-.68-.2-1.06-.2-.31,0-.65.07-.99.17l-1.36.78c-.31.17-.48.44-.58.75v.07l.03.07.1-.07c.37-.27.71-.41.95-.44l.82-.1.71-.17-.07.31-.17.1v.1l.1.1.24.07.65.54.71.27c-.51.65-.99.95-1.46.95h-.27c-.17-.03-.24-.03-.27.07l.17.1c.14.07.2.14.2.17,0,.2-.51.34-1.5.37-.82,0-1.4.34-1.77,1.02M25.37,19.08l.07.27c0,.17-.1.34-.34.58h-.2c.1-.31.27-.61.48-.85M25.27,16.46l.1.68c.07.2.07.41.07.58,0,.85-.27,1.33-.78,1.43h-.03l-.07-.03-.27-.03s-.03-.1-.03-.2v-.14c.07.03.17.03.27.03h.03c.44-.03.65-.44.65-1.22,0-.17,0-.34-.03-.48,0-.2,0-.38-.03-.55l.14-.07ZM24.66,15c.1-.07.17-.1.2-.1.1,0,.27.2.44.61l-.24.2c-.1-.24-.24-.48-.41-.71M24.69,15.41l.27.37h-.1l-.07-.14c-.03-.07-.07-.14-.1-.24M26.02,13.06c.03.27.07.54.1.75.03.27.03.48.03.68,0,.48-.14.92-.44,1.36-.24.31-.51.48-.75.48-.17,0-.44-.17-.78-.51.38.2.61.31.78.31.27,0,.54-.27.78-.82.17-.51.27-.88.27-1.19,0-.1,0-.24-.03-.44,0-.14,0-.34-.03-.54l.07-.07ZM26.02,11.97c-.17.85-.51,1.26-1.02,1.26-.37,0-.58-.2-.58-.58,0-.34.27-.61.78-.82-.34.24-.51.48-.51.71,0,.27.14.41.44.41.34,0,.65-.34.88-.99M25.31,11.16c.17.17.31.41.41.68l-.03.24c-.1-.1-.17-.24-.24-.37-.1-.14-.17-.27-.27-.37l.14-.17ZM25.44,10.48l.14.2c-.44.48-.99.82-1.6.99v-.14c.58-.17,1.09-.55,1.46-1.05M24.08,10.61l.1.1c-.37.72-.54,1.46-.54,2.31l-.17.03v-.37c-.03-.68.17-1.36.61-2.07M21.73,12.07c.1.03.2.03.31.03.1.03.17.03.27.03.17,0,.31-.03.34-.1l.14-.07c.1,0,.14.03.14.14,0,.17-.14.27-.41.27-.17,0-.41-.1-.78-.31M22.11,10.65c.24-.17.48-.24.71-.24.37,0,.58.14.58.37,0,.1-.1.2-.34.37l.07-.14v-.07c0-.24-.31-.34-.92-.34l-.1.03ZM23.98,9.9c.24.17.51.44.85.82l-.17.14c-.1-.1-.2-.2-.27-.31l-.17-.17c-.1-.1-.2-.2-.24-.27l-.07-.1.07-.1ZM24.56,10c.34-.1.58-.17.68-.17.58,0,.88.44.92,1.36h-.17v-.07c.03-.75-.24-1.12-.75-1.12-.17,0-.37.03-.58.1l-.1-.1ZM22.86,7.24l.07.07c-.03.14-.03.24-.07.37v.2c0,.31.17.75.51,1.29l-.14.14c-.31-.44-.48-.85-.48-1.16,0-.24.03-.54.1-.92M16.53,11.97c.99.03,1.46.31,1.46.88,0,.41-.17.61-.54.61-.07,0-.17-.1-.31-.31l.17.03c.2,0,.31-.14.31-.41,0-.44-.34-.68-.99-.71l-.1-.1ZM15.71,11.63c.78-.14,1.39-.2,1.84-.2,2.01,0,4.05.68,6.05,2.04l-.37.07c-1.94-1.19-3.64-1.77-5.14-1.77h-.95c-.27.03-.61.03-.92.07l-.51-.2ZM16.26,10.78c.78-.17,1.6-.27,2.45-.31.65-.03,1.16-.07,1.5-.1.41-.03.65-.03.82-.07.31-.03.72-.17,1.23-.34.48-.17,1.05-.41,1.7-.71l.17.17c-1.33.78-2.55,1.19-3.67,1.26l-2.79.1-1.39.2-.14-.03.14-.17ZM16.19,11.26l.14-.17c1.09-.14,1.87-.2,2.31-.2h.48c.14.03.27.03.41.07l2.28.48,1.5.24.03.1-.92-.07-2.58-.55c-.24-.03-.51-.07-.71-.14-.27,0-.51-.03-.75-.03s-.54.03-.88.07c-.37.03-.78.1-1.29.2M20.41,8.91l-.07.07-.07.03c-.27,0-.41-.2-.41-.65,0-.68.34-1.02,1.02-1.02l.2.03c.14.03.2.03.24.03.1,0,.14-.1.17-.27.03-.17.07-.31.14-.34.44.58.65,1.05.65,1.43,0,.85-.48,1.4-1.43,1.7-.51.14-1.33.24-2.45.31l.27-.14,1.09-.17c1.12-.17,1.7-.61,1.7-1.29,0-.44-.24-.68-.68-.68-.41,0-.61.17-.61.48,0,.17.07.31.24.48M16.5,10.51c1.19-.34,1.77-.78,1.77-1.36,0-.51-.27-.78-.78-.78-.41,0-.61.17-.61.55,0,.17.14.27.41.37l-.27.17c-.31,0-.48-.2-.48-.65,0-.65.34-.95,1.02-.95.75,0,1.12.37,1.12,1.09,0,.85-.75,1.43-2.21,1.67l.03-.1ZM25.68,16.19c.31,1.12.48,2.01.48,2.59,0,.78-.24,2.01-.71,3.71l-.03.1s.03.07.17.14c.07.1.14.17.14.27s-.03.2-.1.37c-.31.58-.48.99-.48,1.16,0,.65.2.95.58.95.1,0,.17-.07.17-.2,0-.1-.03-.24-.1-.34-.17-.41-.27-.71-.27-.88,0-.24.1-.37.31-.44l.1-.03c.14,0,.24.14.27.41l-.14-.03-.07-.03c-.17,0-.27.14-.27.37,0,.1,0,.17.03.2l.34.65.03.1c0,.48-.27.68-.82.65h-.14c-.1-.03-.27-.1-.41-.27-.2-.17-.34-.24-.44-.24-.03,0-.1.03-.24.14-.17.07-.27.1-.31.1-.03-.1-.03-.24-.03-.34-.03-.1-.03-.2-.03-.31,0-.37.17-.68.48-.88.24-.17.34-.31.34-.41,0-.14-.07-.2-.17-.2-.17,0-.37.24-.65.75-.34.61-.88.92-1.63.88h-.14s0-.1.03-.2.03-.2.03-.24l-.03-.03h-.17s-.17.03-.34.03c-.58,0-.88-.2-.88-.58,0-.1.03-.14.1-.14l.14.03.44.24s.07.03.17.03c.58,0,1.4-.61,2.48-1.8.24-.24.44-.37.58-.37h.03l.1.14h.03c.31,0,.54-.44.75-1.33l.31-1.26c.07-.27.1-.61.1-.99,0-.65-.07-1.26-.2-1.8l-.14-.41v-.1s.07-.1.2-.14M1.7,23.98c.51.41.92.61,1.22.61.75,0,1.12-.34,1.12-.99,0-.17-.07-.41-.24-.71.1-.14.17-.21.27-.21.03,0,.1,0,.2.03.1.03.14.03.17.03l.1-.17c.03-.14.1-.24.14-.37l.1-.2c.27-.41.48-.61.65-.61l.03.34c0,.17.1.37.31.71.17.27.27.58.27.82,0,.14-.03.27-.07.41-.03.1-.07.17-.07.2s.03.07.14.07l.27-.03c.1,0,.2.03.31.1.1.14.17.24.24.34-.24.03-.51.2-.82.44-.44.44-.95.68-1.56.78.1-.03.14-.1.14-.2l-.03-.03h-.07l-.27.2-.51.03c.82-.41,1.23-.78,1.23-1.09l-.07-.1-.14.1-.2.34c-.07.14-.24.27-.48.41-.24.14-.44.2-.61.2-.2,0-.44-.07-.75-.2.17-.03.31-.03.41-.07l.34-.07.07-.1h-.24c-.61,0-.95-.03-1.05-.14-.03-.03-.14-.14-.2-.31-.14-.14-.24-.34-.34-.58M11.5,21.33c-.31-.92-.61-1.36-.95-1.36-.41,0-.61.2-.61.61,0,.31.17.48.48.48h.17l.07.03-.24.14-.1.03c-.48,0-.72-.27-.72-.82,0-.51.31-.78.89-.78s.92.55,1.02,1.67M12.82,22.75l-.03-.31c0-.31.07-.51.17-.61l.17-.14.14.24.1.07s.03-.07.1-.17c0-.1.03-.17.07-.2l.37-.37.34-.44c.41.41.61.71.58.95l-.03.34.07.1h.31c-.03.31-.14.54-.34.78l-.37.03c-.14,0-.31-.03-.54-.1.17-.48.24-.68.24-.65,0-.1-.03-.14-.1-.14l-.03.07-.03.03-.07.34-.14.34c-.17-.03-.34-.03-.51-.07-.14-.03-.27-.07-.44-.1M15.88,6.43c.34-.54.54-.99.61-1.29.14-.58.31-.88.51-.88l.27.07c-.03.31-.07.51-.1.65-.03.1-.03.14-.03.1,0,.17.03.27.14.27s.14-.07.1-.24v-.34c-.03-.24.03-.34.17-.34h.14l.1.03.14.03v.51l.24.68c.17.41.27.61.37.61l.07-.1c0-.07-.07-.2-.17-.37-.24-.38-.34-.75-.34-1.16l.03-.1h.14c.1-.03.17,0,.2.07l.38.37.2.1.07-.03c0-.1-.07-.2-.24-.34l.51.14.27.17.58.14-.03.14v.07l.14.07c.1.07.2.14.27.17.14.03.2.1.34.17l.14.07-.37.34h-.27l-.1.1v.03c-.51-.24-.85-.48-.95-.68-.07-.1-.14-.14-.17-.14l-.1.07.07.1.58.71c.1.1.14.24.14.41,0,.24-.03.37-.14.37l-.1-.1-.14-.07-.03.03c0,.07.03.17.03.31.07.14.07.24.07.34,0,.17-.14.48-.37.92l-.14-.31-.51-.41-.14-.34-.14-.1c-.1,0-.2.07-.34.24-.14-.24-.2-.44-.2-.61,0-.14.03-.34.1-.58v-.2c0-.24-.03-.34-.1-.34l-.1.1.03.51-.14.44-.17-.17-.03.1c-.03.07-.07.14-.14.24-.03.1-.14.17-.27.31-.14.07-.34.17-.61.24.07-.24.1-.37.07-.41v-.75l-.07-.1-.1.03c-.1,0-.14,0-.14.03-.03,0-.1-.03-.2-.1M15.37,10.31l.07-1.5-.34-3.06v-.17c-.03-.72.2-1.06.68-1.06.27,0,.41.1.41.34,0,.03-.07.17-.17.34-.1-.1-.17-.14-.27-.14-.24,0-.34.34-.34,1.02,0,.17,0,.37.03.58,0,.27,0,.54.03.85.07.61.1,1.09.1,1.4,0,.71-.07,1.19-.2,1.39M11.97,16.73v-.07c0-.34-.14-.51-.37-.51-.1,0-.14.1-.17.34-.17-.1-.24-.2-.24-.34,0-.27.14-.41.41-.41s.41.2.41.61c0,.17,0,.31-.03.37M9.56,15.95c1.02-1.22,1.87-1.84,2.55-1.84.41,0,.68.2.78.61v.07c0,.24-.07.37-.24.41l-.03.03-.14-.07c-.03-.14-.1-.27-.17-.41-.03-.1-.2-.17-.48-.17-.54,0-1.29.44-2.28,1.36M18.06,14.15l.48.24,1.67.34c.24.03.58.31,1.02.75-.51-.41-1.05-.65-1.6-.71-.37-.03-.68-.07-.88-.14-.2,0-.34-.03-.38-.03-.2-.03-.31-.14-.31-.34v-.1ZM11.97,22.55c-.34-1.19-.51-2.11-.51-2.79,0-.99.2-1.9.61-2.69l1.36-2.62.65-1.4s.07-.03.17-.03l.03.03.17.03-.65,1.19c-.44.75-.75,1.33-.95,1.77l-.41.75c-.48,1.02-.71,1.94-.71,2.76s.17,1.84.54,3.03l-.31-.03ZM20.88,19.08l.03.37-.31.37-.71.41-.07.1.07.03.51-.31c.14-.07.27-.14.37-.24-.03.1-.03.2-.03.24l-.03.07c-.07.14-.31.34-.75.65-.31.17-.65.27-.95.27h-.2c-.17-.03-.31-.03-.38-.03v-.03l-.17.07c0,.1.17.17.51.17.61,0,1.16-.2,1.67-.65l-.61.68-.54.2-.07.03.17.07c.17,0,.31-.03.41-.14-.65.44-1.16.68-1.53.68-.17,0-.34,0-.54-.07l-.75-.1.1-.31-.48-.1-.65-.2-.38.07c.38-.78.75-1.16,1.19-1.12h.24c.14.03.2,0,.2-.14,0-.03-.03-.14-.1-.24.27-.14.48-.21.61-.21.17,0,.44.07.82.17.38.1.65.17.89.17.54,0,1.02-.31,1.46-.95M14.52,15.34c.51-.31.85-.48,1.02-.48l1.22.37.07.03.03-.03c0-.1-.1-.2-.34-.2-.24-.07-.34-.1-.34-.2,0-.03.03-.07.14-.07s.2.03.31.1l.41.24.34.31.07.03.03-.07c0-.07-.24-.27-.68-.58h.03c.24,0,.41.03.58.14.71.85,1.09,1.43,1.09,1.7,0,.31.03.48.1.48s.1-.07.1-.24c0-.58-.38-1.26-1.16-2.01,2.28.65,3.4,1.7,3.4,3.23,0,.88-.41,1.46-1.26,1.73.44-.78.68-1.39.68-1.84,0-.65-.24-1.29-.71-1.87-.17-.2-.37-.31-.54-.31l-.07.1.07.2.65.78c.14.17.2.41.2.72,0,.17-.03.44-.1.82-.1-.1-.17-.14-.27-.14-.03,0-.07.07-.1.2-.17.58-.85.88-2.01.88l.07-.51-.14-.54v-.48l-.03-.1-.14-.03-.14.03-.07-.03.17-.27c.1-.17.17-.37.17-.61,0-1.05-.58-1.6-1.7-1.6-.34,0-.71.03-1.16.1M20.07,12.24c.58.17.85.41.85.75,0,.24-.1.37-.27.37-.03,0-.17-.03-.41-.07.2-.07.31-.17.31-.27,0-.2-.17-.48-.48-.78M18.33,12.79c.14,0,.2.07.2.2,0,.1-.07.17-.17.17-.14,0-.2-.07-.2-.2,0-.1.07-.17.17-.17M18.91,13.3c-.14,0-.2-.07-.2-.17,0-.14.07-.2.2-.2.1,0,.17.07.17.2,0,.1-.07.17-.17.17M19.25,12.45c.1,0,.17.07.17.24,0,.1-.07.17-.17.17-.14,0-.2-.07-.2-.24,0-.1.07-.17.2-.17M17.99,12.11c.54.14.82.31.82.51,0,.1-.03.17-.1.17l-.17-.1-.2-.24-.34-.34ZM3.37,22.31c.14.24.2.44.2.54,0,.38-.17.55-.48.55-.44,0-.65-.31-.65-.88,0-1.26.92-1.94,2.76-2.04-1.7.37-2.55,1.02-2.55,1.9,0,.44.17.65.48.65.17,0,.27-.14.27-.44,0-.14,0-.24-.03-.27M5.24,20.65c-.44.1-.68.31-.68.54,0,.1.14.2.37.24-.14.14-.24.2-.34.2-.17,0-.27-.14-.27-.41,0-.34.31-.54.92-.58M2.21,24.22c-.41-.58-.61-1.05-.61-1.43,0-.71.44-1.36,1.33-1.97.71-.51,1.46-.78,2.25-.78.61,0,1.29.2,2.07.65l-.03.24c-.72-.44-1.36-.65-1.97-.65-.85,0-1.63.27-2.35.85-.68.58-1.02,1.22-1.02,1.9,0,.34.1.75.34,1.19M1.46,22.45c-.07.41-.1.72-.1.95,0,.31.03.54.14.71.03.07.2.34.51.82.14.17.2.34.2.51,0,.27-.14.41-.41.41-.07,0-.17-.03-.31-.1.2-.1.31-.24.31-.44,0-.1-.1-.34-.27-.71-.17-.37-.27-.82-.27-1.33,0-.24.07-.51.21-.82M6.46,25.1c.44-.24.75-.34.99-.34.17,0,.41.07.68.2.27.17.44.24.51.24s.14-.14.17-.41c.07-.31.17-.48.24-.58.14-.07.31-.1.61-.1-.1.17-.17.31-.17.34,0,.1.07.27.24.58.17.27.2.41.1.44l-.68.14-.48.14c-.2.03-.44-.03-.75-.24-.41-.27-.85-.41-1.33-.41h-.14ZM9.08,25.88c.17-.1.31-.14.44-.14.1,0,.24.03.41.1-.17.1-.31.14-.44.14-.1,0-.24-.03-.41-.1M16.16,25.88c-1.29-.07-2.38-.31-3.23-.75-.41-.2-.78-.31-1.09-.31-.51,0-.78.17-.78.54,0,.03.1.2.27.44-.58-.07-.85-.31-.85-.71,0-.44.34-.68,1.02-.68.44,0,1.05.17,1.87.54,1.05.41,2.01.71,2.79.92M14.62,24.83c.24.17.51.34.78.48.27.17.55.31.85.41-.92-.17-1.7-.51-2.38-.95l.75.07ZM15.51,24.83c.31.17.61.37.95.54s.71.38,1.09.54c-.51-.1-.99-.2-1.43-.41-.44-.14-.88-.37-1.26-.68h.65ZM18.26,25.51c-.95-.03-1.43-.2-1.43-.58,0-.17.1-.24.34-.24.1,0,.17,0,.2.03l-.03.17-.03.03c0,.17.14.31.37.34l.48.14.1.1ZM21.63,24.96l-.03.14c-1.33.27-2.07.41-2.24.41-.82,0-1.23-.24-1.23-.68,0-.03.07-.1.17-.17.1.1.17.14.24.14l.03-.03.03-.14c.07-.31.41-.48,1.02-.48.37,0,.54.1.54.34s-.14.34-.44.34l-.03-.07.03-.1.03-.07c0-.17-.1-.24-.34-.24h-.07c-.17.07-.27.2-.27.41,0,.31.34.48,1.02.48.1,0,.61-.1,1.53-.27M22.38,25.34c-1.12.44-2.11.65-2.89.65-.65,0-1.5-.17-2.59-.51l1.12.1c.34.07.61.07.85.07.65,0,1.56-.14,2.72-.41.1.1.24.17.34.17.07,0,.2-.03.44-.07M23.26,25.88l-.27.07c-.2,0-.31-.1-.31-.27,0-.03.14-.2.37-.51.07-.07.17-.14.27-.17h.03l.07.07-.03.14-.31.44.17.24ZM1.29,3.2c.07-.03.2-.07.34-.1.2-.03.31-.07.41-.07l.1.07c0,.2-.14.31-.37.31-.1,0-.27-.07-.48-.2M1.9,3.88l.1.37c-.37.92-.54,1.7-.54,2.35,0,1.12.58,2.14,1.73,3.06l-.1.31c-1.26-.92-1.9-1.97-1.9-3.16,0-.75.24-1.74.71-2.93M1.46,8.5l.37.71.71,1.19c.17.31.24.61.24.95,0,.31-.07.61-.27.88-.14.24-.34.37-.54.37-.44,0-.65-.24-.65-.75,0-.14.03-.27.1-.41l.17-.51c0-.1-.07-.2-.17-.31l.17-.07c.17.14.24.27.24.37l-.03.07-.17.61v.14c0,.31.1.48.27.48.44,0,.68-.31.68-.95,0-.38-.17-.85-.51-1.36-.17-.27-.27-.48-.37-.68-.1-.14-.14-.27-.17-.34l-.03-.1-.03-.31ZM1.63,17.07c0,.1-.07.14-.17.14-.14,0-.21-.03-.21-.14s.07-.17.17-.17c.14,0,.21.07.21.17M2.28,17.01c0,.1-.07.17-.2.17-.1,0-.17-.07-.17-.17s.07-.17.2-.17c.1,0,.17.07.17.17M2.28,16.5c0,.1-.07.14-.17.14s-.14-.03-.14-.14.07-.14.17-.14.14.03.14.14M6.56,12.28c-.03.1-.03.17-.03.24l-.03.14c0,.17.1.34.34.58.51.51.75.92.75,1.23,0,.71-.27,1.05-.85,1.05-.34,0-.58-.14-.75-.44l-.51-.92c-.41-.68-1.12-1.02-2.18-1.02-.51,0-.95.1-1.33.34-.37.2-.55.48-.55.78,0,.44.14.68.41.78l.71.27c.17.07.24.2.24.44s-.17.37-.48.37l-.14-.03-.17-.03-.14-.03c-.2,0-.31.14-.31.37l.2.2.03.1-.07.07c-.24,0-.38-.14-.38-.44s.17-.44.51-.41h.31c.24.03.37-.03.37-.27,0-.14-.07-.24-.17-.27l-.65-.24c-.31-.1-.44-.37-.44-.88,0-.85.65-1.29,1.9-1.29,1.19,0,2.01.34,2.38.99.41.65.71.99.92.99.24,0,.37-.1.37-.31,0-.07-.03-.14-.14-.27-.07-.07-.14-.2-.27-.31-.07-.1-.17-.24-.27-.37-.07-.17-.1-.31-.1-.44l.03-.27c.1.34.2.51.31.51l.03-.03-.03-.1c-.03-.14-.07-.24-.1-.34l-.07-.17c0-.1.1-.31.31-.54M4.59,19.76l.07.07c-.17.03-.31.1-.44.1l-.2.1c-.71.24-1.09.37-1.19.37-.44,0-.78-.14-1.09-.41-.31-.31-.44-.65-.44-1.06,0-.37.1-.65.34-.92.24-.2.51-.34.82-.34.75,0,1.12.34,1.12,1.05,0,.34-.24.65-.71.95-.03-.14-.14-.24-.31-.27-.27-.03-.37-.1-.34-.24l.03-.2.41.2c.37,0,.58-.17.58-.51,0-.44-.27-.68-.78-.68-.61,0-.92.34-.92.99,0,.34.14.65.37.88.27.24.58.38.92.38.07,0,.2-.03.37-.07l.92-.31.48-.1ZM1.87,21.12c.1,0,.17.03.17.14,0,.14-.07.2-.2.2-.1,0-.17-.07-.17-.17s.07-.17.2-.17M1.43,21.02c-.07,0-.1-.03-.1-.14s.03-.14.1-.14c.14,0,.21.03.21.14s-.07.14-.21.14M1.97,20.48c0,.1-.07.17-.17.17-.14,0-.2-.07-.2-.17s.07-.14.17-.14c.14,0,.2.03.2.14M2.82,20.61c-.24.17-.44.27-.54.27-.17,0-.27,0-.34-.03.1-.03.24-.1.37-.14l.51-.1ZM5.88,11.02h.54c.44.03,1.02-.07,1.74-.31.82-.24,1.36-.37,1.67-.37.65,0,1.05.34,1.19.99l-.34.07.03.34c.03.58-.24.88-.82.88s-.88-.17-.88-.51l.03-.07.14.07.2.07c.17,0,.31-.07.48-.2.17-.17.24-.31.24-.44,0-.48-.34-.71-1.06-.71-.31,0-.75.07-1.33.2l-.78.14c-.2,0-.37.03-.54,0h-.54l.03-.14ZM7.99,9.83c-.31.71-.78,1.05-1.46,1.05h-.31c-.14,0-.24,0-.31-.03l.07-.31c.75,0,1.43-.24,2.01-.71M10.41,10c.14,0,.2.03.2.1,0,.1-.07.14-.2.14-.1,0-.17-.03-.17-.1,0-.1.07-.14.17-.14M10.92,9.46c.14,0,.2.07.2.17,0,.14-.07.2-.2.24h-.07c-.17,0-.27-.07-.27-.17,0-.17.1-.24.34-.24M10.61,9.08c.1.03.14.07.14.17s-.07.17-.24.17c-.1,0-.17-.03-.2-.07,0-.17.1-.27.31-.27M9.35,10.14c.24-.34.51-.51.82-.51.1,0,.17.03.2.07,0,.2-.34.34-1.02.44M9.28,14.11c.27-.37.54-.68.82-.95.27-.27.54-.51.78-.71l1.12-.85c.37-.31.54-.61.54-.99,0-.48-.2-.71-.58-.71-.17,0-.41.2-.71.65l-.07-.34c0-.44.24-.65.71-.65.68,0,1.02.31,1.02.92,0,.37-.17.71-.54,1.02l-.44.34-.78.61c-.24.17-.51.41-.82.71-.27.31-.58.65-.89,1.02l-.17-.07ZM1.7,6.02l.14.03c.1,1.12.44,1.67,1.02,1.67.37,0,.58-.2.58-.58,0-.31-.14-.48-.37-.48-.1,0-.24.03-.41.14l-.1.03-.03-.07c0-.24.2-.37.58-.37.44,0,.68.27.68.82,0,.61-.27.92-.85.92-.37,0-.68-.17-.88-.48-.27-.31-.37-.71-.34-1.16v-.48ZM19.01,19.42c.17,0,.24.03.24.14s-.07.17-.2.17c-.1,0-.17-.03-.17-.14s.03-.17.14-.17M19.56,18.98c.14,0,.2.07.2.17s-.07.14-.17.14-.17-.03-.17-.14.03-.14.14-.17M14.11,16.6c.65-.37,1.16-.54,1.56-.54.61,0,.92.24.92.71,0,.27-.14.41-.41.41-.1,0-.17-.07-.17-.17l.03-.07.14-.27c0-.2-.17-.31-.48-.31-.17,0-.44.03-.82.1-.37.07-.61.1-.78.14M15.75,20.24c.1,0,.14.03.14.14s-.07.17-.17.17c-.1.03-.17,0-.17-.1,0-.14.07-.2.2-.2M15.37,19.86c.17-.03.24.04.24.17,0,.1-.07.14-.24.17h-.07c-.17,0-.24-.03-.24-.1,0-.17.1-.24.31-.24M16.6,19.11s-.03.07-.14.07l-.14-.07.14-.07.14.07ZM15.95,19.35h.03c.17,0,.24.03.24.14,0,.17-.14.27-.41.27-.1,0-.17-.03-.17-.1,0-.17.1-.27.31-.31M16.36,19.79l.03-.03c.1,0,.14.03.14.14,0,.07-.07.14-.17.17l-.31.03.31-.31ZM16.84,19.22c.17,0,.24.07.24.17,0,.17-.07.24-.24.27h-.07c-.1,0-.17-.03-.2-.14v-.03c0-.17.1-.27.27-.27M17.31,18.81c0,.14-.07.2-.24.2s-.24-.07-.24-.2c0-.17.1-.24.27-.24.14,0,.2.07.2.24M.82,26.39h25.54V.85H.82v25.54ZM.41.41h26.39v26.39H.41V.41ZM0,27.21h27.21V0H0v27.21Z" fill="#231f20"/>
    </g>
  </g>
</svg>