<?xml version="1.0" encoding="UTF-8"?>
<svg id="Layer_1" xmlns="http://www.w3.org/2000/svg" width="27.21" height="27.21" xmlns:xlink="http://www.w3.org/1999/xlink" viewBox="0 0 27.21 27.21">
  <defs>
    <clipPath id="clippath">
      <rect width="27.21" height="27.21" fill="none"/>
    </clipPath>
    <clipPath id="clippath-1">
      <rect y="0" width="27.21" height="27.21" fill="none"/>
    </clipPath>
  </defs>
  <g clip-path="url(#clippath)">
    <g clip-path="url(#clippath-1)">
      <path d="M11.33,23.98l.07.17c0,.24-.2.38-.61.38l-4.52-.14-1.16.03-.54.1s-.2.03-.44.03c-.48,0-.78-.14-.95-.41l.54.2.61-.07.37-.07.82-.03c.24-.04.48-.04.65-.04h.95l.41.04h.61l.38.03.78.03h-.17.27l.68.03h.1c.51.03.92-.07,1.16-.31M25.07,23.91c.1.07.14.14.14.17,0,.41-.51.61-1.53.61-.44,0-.85-.1-1.23-.31l.44.07.34.03h.71c.41,0,.75-.14.99-.41l.14-.17ZM7.79,20.13l.17.07.14,1.9-.2-.24c-.1-.27-.14-.61-.14-1.05v-.34l.03-.34ZM7.52,19.96l.1.17c0,.07,0,.2-.03.37-.03.17-.03.31-.03.41,0,.85.31,1.53.92,2.04l.44.34.17.07.2.07.1.07.51.1.24.03.78.03c.17.03.27.1.27.17,0,.2-.37.31-1.09.31h-.41c-.17,0-.31,0-.41-.03l-1.63-.17-4.08.14-.24-.14-.03-.1-.03-.07c0-.1.14-.14.37-.14.54,0,.99-.14,1.36-.44.37-.31.58-.58.65-.85.1-.03.2-.07.34-.1.07-.03.2-.1.31-.14l.34-.17.17-.2.44-.48c.2-.24.31-.54.31-.92,0-.17,0-.31-.03-.37M17.82,18.16l.41-.54h.03c.1,0,.14.03.17.14l2.41,3.13.31.37,1.19,1.22.03.07.1.07.14.1.61.51.65.31.44.14.24.07c.24.03.37.1.37.17l-.03.1-.51.27c-.24.1-.61.14-1.05.07l-.48-.03c-.92-.1-1.73-.48-2.41-1.12l-.89-.88-.58-.65-.1-.1-.03-.07-.2-.31c-.1-.14-.17-.24-.27-.31l-.1-.17.03-.14h.1l.14-.37-.07.2.03-.14-.03-.03-.24-.1c-.17-.03-.27-.2-.34-.48-.1-.07-.17-.14-.17-.17l.03-.1c.41-.03.68-.41.85-1.09-.17-.1-.41-.14-.78-.14M18.47,17.38c.37.37.71.78,1.05,1.26l.75,1.02.2.24.2.27.17.17.48.58,1.09,1.23.17.14.17.2.2.17-.03.14-.1-.1-.24-.2-.2-.17-.75-.82-.2-.17-.1-.17-.71-.82-.1-.1-.54-.75-1.06-1.33-.34-.37c-.1-.1-.14-.17-.14-.24,0-.1,0-.14.03-.17M12.52,13.81l.17.1-4.73.14v5.27l-.17-.17c-.03-.1-.03-.2-.03-.34v-4.63c0-.24.07-.37.24-.37.03,0,.14.03.38.07l.44-.03h1.6l2.11-.03ZM18.5,10.03l.14-.07h.03c.1,0,.14.03.14.14l-.03.07-.58.82-.17.31c-.17.24-.48.54-.92.85l-.27.2-1.26.68-.1.1-.07.03s.07.17.17.34l.2.37.34.37.27.44.31.37v.03c0,.07-.03.1-.14.14l-.2-.24-.75-.99c-.07-.14-.14-.24-.17-.27-.2-.24-.31-.41-.31-.51,0-.14.14-.31.41-.48l.24-.17.1-.07.2-.1.54-.31.41-.24.17-.1c.71-.65,1.16-1.22,1.29-1.73M7.82,7.79l.07.07-.03.14v.07l.03.65-.03,1.16.03.71v1.94l-.03.17-.07.03-.03-4.9.07-.03ZM5.65,7.55l.2.07.17.07c.31.14.61.2.92.2h.2c.24-.03.34-.07.31-.07.07,0,.1.1.1.31l.03,4.42v.2l.2.14,3.47.07c1.22.03,2.28-.17,3.16-.65.92-.41,1.53-1.02,1.9-1.77l.31-.68h1.09c.1,0,.24,0,.34.03h.14c.1,0,.17.03.17.1s-.03.14-.1.24l-.88,1.12-.78.65-1.33.72c-.2.1-.31.27-.31.48,0,.17.24.54.75,1.12.17.24.27.41.27.48l-.61.2-.37.44-.2-.27-.2-.68.03.07-.17-.03-.31.27-.31.44-.1-.07-.17-.27-.24-.41-.54-.78-5.17.03s-.03.1-.03.2v4.52l-.03.34-.41-.41-.14-.03c-.41-.38-.85-.58-1.33-.61l-.03-6.73v-1.74l-.03-1.39.03-.34ZM18.67,5.68l.41.88c.03.17.07.31.1.38,0,.14,0,.2.03.27l.03.41s.03.14.03.31-.03.37-.1.68c-.17-.03-.24-.07-.24-.14,0-.1.03-.24.03-.41.07-.17.07-.31.07-.41,0-.75-.17-1.46-.51-2.14l.14.17ZM9.42,3.64c-.07.03-.2.07-.37.1-.37.1-.61.17-.65.2l-.27.17c-.17.1-.24.17-.24.27v.82l-.03,1.16.03.41c.03.07.03.17.03.27,0,.14-.03.2-.07.2l-.14-.07.03-.38c.03-.1.03-.2.03-.27v-.37l-.03-1.56c0-.51.44-.85,1.33-.95l.2-.07.14.07ZM4.69,4.12c-.17-.1-.31-.2-.41-.24l-.2-.1-.58-.17-.41-.14c-.17-.07-.27-.14-.27-.17v-.14l.51.2.31.07.24.07.61.34.2.14v.14ZM15,4.32c.31-.78.61-1.19.88-1.19.1,0,.31.1.61.31l.55.41c1.12.85,1.77,2.14,1.87,3.88l-.07.71-1.87-.14c-.07-1.73-.72-3.06-1.97-3.98M9.8,2.65l3.13-.07.95.07.51.07.54.07c.2.03.34.1.37.14,0,.03-.03.1-.1.2l-.37.51-.24.41-.37-.1c-1.05-.41-2.18-.61-3.33-.61-.31,0-.61,0-.88.07-.34,0-.65.07-.99.1-.68.1-1.16.34-1.39.75l-.07,2.72v.17c0,.14-.07.2-.2.2l-.78-.07c-.14-.03-.27-.07-.37-.1l-.34-.14c-.07-.03-.14-.1-.24-.2l.03-1.05c0-.2-.03-.44-.14-.68-.03-.17-.07-.24-.1-.27l-.14-.34-.41-.51-.61-.51-1.19-.34-.31-.17s-.03-.1-.03-.2l.1-.03c.17,0,.31,0,.37.03l2.35.1,4.25-.2Z" fill="#a91e22"/>
    </g>
  </g>
</svg>