<?xml version="1.0" encoding="UTF-8"?>
<svg id="Layer_1" xmlns="http://www.w3.org/2000/svg" width="27.21" height="27.21" xmlns:xlink="http://www.w3.org/1999/xlink" viewBox="0 0 27.21 27.21">
  <defs>
    <clipPath id="clippath">
      <rect width="27.21" height="27.21" fill="none"/>
    </clipPath>
    <clipPath id="clippath-1">
      <rect y="0" width="27.21" height="27.21" fill="none"/>
    </clipPath>
  </defs>
  <g clip-path="url(#clippath)">
    <g clip-path="url(#clippath-1)">
      <path d="M11.5,24.86l.03.1c.24.24.41.34.54.34-.03,0,.03-.03.17-.07l-.75-.37ZM11.9,24.79c.03.1.1.17.14.17.1,0,.2,0,.24-.03l-.37-.14ZM13.33,24.49l-.2.27h.07l.03.03.1-.31ZM13.2,24.15v.14l-.03-.14-.41.44.48-.2-.31.17c.17-.1.27-.24.27-.41M15.14,23.81l-.14.14-.14.07h.07c.1-.03.17-.1.2-.14v-.07ZM13.77,22.86v.1h-.1l.03.2c.1.24.17.44.2.61.07.65.14,1.02.24,1.12l.03-.07-.1.1.14-.03-.1-.41-.1-.92-.24-.72ZM11.6,22.92l.07-.03-.07.07h.07v-.03l-.44-.27.37.27ZM15.41,22.55l-.1.24.07.03.2-.17-.17-.1ZM12.18,22.69l.07.07.07.1.14.14.1-.03.03.1v-.14l-.31-.24-.24-.27.14.27ZM14.28,21.8l.03.2h.07v-.17l-.1-.03ZM14.39,21.56l.07.07c.03.17.07.27.1.34v.14l.1.14.03.07-.17-.78-.14.03ZM7.18,18.5l-.2.17.2-.17ZM17.58,15.82l-.1.44.17-.31-.07-.14ZM24.25,10.2c.1-.03.2-.17.31-.41.14-.1.2-.2.2-.31l-.51.71ZM17.01,9.32v-.1l-.03.1h-.03.07ZM12.58,9.05l-.03-.17-.44.27-.14.2-.17.2.07.07h-.07c.24-.17.37-.31.41-.44l.24-.14.17-.2-.03.2ZM12.24,8.81l-.03-.1h-.07l-.14.27c.1-.03.2-.14.24-.31v.14ZM18.3,8.81c.1-.1.14-.17.14-.24l-.07-.1h-.03l-.07.1-.07.14.1.1ZM23.88,8.47l.37.03.07-.03-.2-.07-.2.03-.03.03ZM19.25,8.37h-.07l.1.03-.03-.03ZM18.09,8.3l-.14.1.1.17.17-.38-.14.1ZM19.11,8.09l-.07-.14-.07.07.1.1.03-.03.03-.03-.03.03ZM18.98,7.69l-.07-.03-.07.24.14-.1.07-.07-.07-.03ZM16.73,7.18l.31.27.27.07-.03-.14c-.17,0-.31-.07-.37-.2h-.17ZM17.52,6.05l.24.44.17.31.1.2c.03.1.1.24.17.41l.03.14s.07.1.1.2l.38.61.2.27.51.65-.07.14-.17-.1-.44-.14-.1-.14v-.03l.07-.17-.03-.17c-.1.03-.17.14-.17.31v.03h-.85c-.14,0-.2.03-.2.1l.03.07c.14,0,.24,0,.27-.03.17-.03.34-.03.58.03l.78.27h.03l.2.1.34.2c.1.07.2.1.31.1h.03l.07.1-.41-.37v-.2l-.31-.27-.24-.37-.1-.14-.07-.1-.2-.34-.14-.2-.2-.41-.31-.68-.1-.14-.17-.41-.17-.27-.03-.03-.14.03ZM18.3,5.95l.03.27.07.03.1-.03-.03-.1-.17-.17ZM18.57,5.82l.07.78c.1,0,.14,0,.14-.03v-.37c-.03-.14-.03-.27-.07-.37h-.14ZM17.38,5.75l-.17-.1-.03.03.14.07h.07ZM16.97,5.58h.14l-.07-.07-.07.07ZM15.61,3.2l-.03.03.03.1h.17v.1l-.17-.24ZM14.28,2.65v.1l-.24-.27.24.17ZM12.48,2.69l-.1-.17c0,.1.03.17.14.17h.03l.07-.03.1-.07-.24.1ZM8.37,2.35l-.41.1v.07l.24.17.24-.31-.07-.03ZM6.22,25.82l.1-.03v-.03c.14,0,.2.1.2.27l-.03.07-.1-.03-.17-.24ZM7.72,25.68l.24.1v.03l.03.03c0,.1-.07.14-.2.14s-.2-.07-.2-.21c0-.03.03-.07.14-.1M9.76,25.54c-.24.27-.54.41-.92.41-.41,0-.61-.07-.61-.21l.07-.1.85.14h.03l.14-.03.37-.27.07.03v.03ZM20.92,26.02c.14-.03.24-.07.27-.1l.58-.41c.17-.14.37-.2.61-.2.37,0,.58.14.58.44,0,.24-.07.34-.17.34h-.17l.07-.31-.17-.17-.17-.07c-.14,0-.24.03-.34.1l-.75.38-.34.14v-.14ZM8.3,25.1l.03-.03c.14,0,.2.07.2.2,0,.1-.07.14-.17.14s-.17-.07-.17-.17.03-.14.1-.14M7.69,25.07c.1.03.14.07.17.17l.03.03c0,.14-.07.2-.17.2-.14,0-.2-.07-.2-.2s.07-.2.17-.2M17.11,24.83l.03.14v.07c0,.07-.07.1-.17.1s-.14-.07-.14-.24v-.03l.1-.03h.17ZM5.88,25.58c-.34.1-.65.14-.88.14-.37,0-.72-.07-1.06-.2l-.27-.1c-.31-.14-.48-.24-.54-.31l-.58-.54.37.03.14.1.27.24.37.24.1.03.14.03.75.14c.07.03.14.03.24.03h.14l.95-.1.37-.17.34-.17.54-.41.31.03c-.1.17-.24.34-.41.44l-.34.27c-.24.1-.41.14-.58.2-.17,0-.27.03-.37.07M5.41,24.76l.07-.27.24.1.07.07.03.07c0,.31-.34.44-1.02.44-.27,0-.55-.07-.85-.2.17.03.34.03.48.07h.27c.24,0,.48-.1.71-.27M1.7,24.08c.48.37.71.82.71,1.29,0,.37-.17.54-.48.54-.17,0-.27-.07-.31-.2.31-.07.44-.24.48-.54l-.41-1.09ZM8.74,23.88l.1.07.03.1c0,.31-.2.41-.61.37l-3.1-.31c-.17-.03-.48,0-.92.07-.37.03-.68.07-.92.1-.2.03-.34.03-.41.03-.48,0-.75-.14-.85-.44.24.14.44.2.61.17l1.39-.14h1.74c.1.03.2.03.31.03h.24c.17,0,.31,0,.34.03.41,0,.75.03,1.02.1l.44.03c.31,0,.48-.07.58-.24M24.52,23.64v.17c-.24.31-.34.58-.34.88,0,.51.24.95.68,1.33-.65-.07-.99-.38-.99-.88v-.2c0-.1,0-.2.03-.27.14-.31.34-.65.61-1.02M11.5,23.77l.41-.14h.44c.2.03.31.1.31.2v.03c-.17-.07-.31-.1-.34-.1-.61,0-1.05.17-1.36.51l-.31.34c-.03.1-.1.17-.14.2l-.1.14v.1l.14.14v.24l-.07.2-.1.34c-.1-.03-.17-.1-.27-.21l-.07-.2v-.37h-.51c-.14,0-.31-.1-.48-.27l.27-.03.51-.24.48.17c.31-.44.58-.75.82-.85l.37-.2ZM19.69,23.74c.24-.07.44-.14.61-.2h.41v-.03h.24v.14c-.99.1-1.46.51-1.46,1.22,0,.58.27.85.78.85.44,0,.68-.24.68-.68,0-.24-.1-.37-.31-.37l-.27.07c.1-.17.24-.27.34-.27.31,0,.44.2.44.58,0,.71-.34,1.06-1.05,1.06-.31,0-.58-.1-.82-.34l-.17-.27c-.07.03-.17.03-.34.03s-.27-.07-.27-.2c0-.1.07-.34.17-.71l.27-.37.34-.31c.1-.1.24-.14.41-.17M19.22,23.5l.1.1c-.2.03-.37.03-.54.07-.14.03-.24.07-.34.1l-.31.14c-.24,0-.34.14-.37.41.1.03.17.1.17.2s-.03.2-.14.34c-.1.14-.14.24-.14.27l.03.17c-.24-.07-.37-.27-.37-.65v-.17c-.17.1-.31.14-.44.14-.1,0-.24-.07-.41-.17l.37-.24.24-.24.48-.03.71-.31c.17-.1.48-.14.95-.14M22.55,22.55l.03.14s-.03.07-.14.1l.07-.2.03-.03ZM10.68,22.21l.71.31.17.14c.44.17.65.41.65.72l-.03.03s-.2.07-.58.1c-.1.03-.2.07-.37.17-.14.1-.31.2-.54.37l-.07-.17-.2-.31-.14-.14c-.24-.2-.48-.31-.68-.31h-.17c-.07.03-.17.03-.27.07.1-.48.27-.72.58-.72l.68.17-.03-.37h.14l.17-.07ZM22.45,22.35l.03-.07.07-.07.07.1c0,.1-.03.14-.1.14l-.03-.03-.03-.07ZM2.28,21.94c.17,0,.24.07.24.2s-.07.2-.2.2c-.1,0-.17-.07-.17-.2l.03-.07.07-.07.03-.07ZM3.03,22.18l-.03.1h-.03l-.03.03h-.03c-.14,0-.2-.1-.2-.34l.03-.07c.03-.1.07-.14.17-.14.17,0,.27.1.27.31l-.03.03-.1.07ZM25.14,23.94l-.17-.24-.41-.31c-.1-.07-.17-.2-.17-.37,0-.31.1-.65.34-1.02.24-.37.48-.54.78-.54.27,0,.41.14.41.44,0,.44-.2.82-.58,1.16.31-.44.44-.75.44-.99,0-.07-.03-.2-.1-.37-.03-.03-.14-.03-.27-.03-.48,0-.71.41-.71,1.26,0,.17.07.34.17.44l.65.54s.07.1.07.2l-.07.37-.27.44c-.1.14-.31.24-.68.34l-.03-.07.41-.27.14-.24.14-.17-.07-.58ZM9.66,22.21l-.17-.27-.03-.07c0-.31.17-.44.54-.44.27,0,.44.03.51.1l.24.2-.48-.14h-.1c-.17,0-.27.07-.31.17l-.2.44ZM6.6,22.28c-.1-.17-.17-.34-.17-.44,0-.44.2-.65.61-.65.58,0,.92.27.95.82l.07.48.03.2-.07.07v-.27l-.07-.1-.14-.31c-.17-.27-.41-.41-.65-.41-.34,0-.51.2-.55.65l-.03-.03ZM2.72,21.12c.2,0,.31.1.31.27,0,.1-.03.14-.14.14-.17,0-.27-.07-.27-.24,0-.1.03-.17.1-.17M22.48,21.02c0-.07.03-.17.1-.31.07-.14.14-.2.2-.24h.24l.14.1h-.1c-.17-.03-.27.07-.27.31,0,.1.1.27.27.44,0,.1-.03.14-.14.14s-.2-.07-.37-.2c-.03-.17-.07-.27-.07-.24M17.31,21.63c-.14-.14-.2-.27-.2-.44,0-.54.27-.82.78-.82.17,0,.31.07.37.24-.41.03-.61.24-.61.61,0,.24.14.48.44.78l.2.17.24.17c.38.24.82.37,1.29.37l.14-.03.17-.03.07.1v.07l-1.33-.17c-.41-.03-.85-.27-1.36-.71l-.2-.31ZM3.67,21.6c-.03-.1-.03-.2-.07-.27v-.17c0-.17.07-.41.27-.71.14-.31.31-.44.48-.44.07,0,.1.03.1.14v.07l-.27.37c-.07.1-.1.24-.1.41,0,.24.1.44.31.68-.03.31-.1.48-.2.51h-.03c-.1,0-.27-.2-.48-.58M8.67,21.7l-.07-.34-.1-.41s-.03-.1-.03-.24c0-.51.24-.75.71-.75.51,0,.78.24.82.75-.03.17-.14.34-.24.44l.03-.2c-.07-.31-.2-.48-.44-.48-.37,0-.54.17-.54.54l.03,1.09-.07.48-.1-.88ZM12.75,19.86c.41.27.65.55.78.82.07.24.17.37.2.37h.07l.2-.24.14-.03.27.31c.1.14.2.27.24.44.14.24.2.44.2.61,0,.14-.03.34-.1.58-.03.27-.07.48-.07.58,0,.24.07.34.24.34l.17-.1v-.78l.34-.41c.17-.1.37-.14.61-.14h.17l-.1.58.2.07.1-.07.27-.03h.2l.27.14c.1.1.17.24.24.41-.1-.03-.2-.03-.27-.03l-.14-.03c-.37,0-.61.2-.75.58l-.27.75c-.14.37-.41.58-.85.58-.07,0-.24-.03-.51-.1l-.03.14.07.17.54.51c-.17.1-.31.14-.41.14-.51,0-.92-.21-1.26-.58l.03-.1s-.07-.03-.17-.03l-.14.07c-.27.2-.51.31-.75.31-.58,0-1.09-.37-1.46-1.09.2-.2.41-.34.61-.44.37-.07.54-.1.58-.1l.07.03.24.14h.27l-.07-.03h.1v.03l.07-.34s-.03-.14-.1-.31l-.34-.31-.07-.1c-.14-.03-.2-.1-.24-.2l-.2-.17-.07-.14-.1-.2-.1-.14.03-.24v-.34l.1-.2h.34l.03-.31.2-.48.17-.37.17-.48ZM7.72,20.75c-.34-.37-.61-.58-.78-.61-.44-.14-.68-.27-.68-.38l.1-.1.1.03.65.24c.99.31,1.46,1.26,1.46,2.86,0,.38-.1.54-.27.54-.1,0-.14-.1-.14-.27l.07-1.02c.03-.24-.07-.54-.31-.99l-.14-.2-.07-.1ZM2.01,20.14l.34-.68.03.17-.27.89-.03.34v.03l.03.1c.2.34.31.54.31.58v.07l-.17.1c-.24,0-.34-.27-.37-.85l.14-.75ZM17.07,18.16h.03c.2,0,.37.07.54.24.1.1.17.2.17.27,0,.24-.14.41-.37.51l-.2-.17-.03-.1-.1-.03-.31-.41-.1-.03.07-.1c.1-.1.2-.17.31-.17M3.43,18.5c.17-.1.34-.2.51-.27.14-.07.27-.14.38-.17v.07c-.89.37-1.33.88-1.33,1.46,0,.27.14.51.37.68h.37c-.1.17-.24.27-.41.27-.31,0-.54-.14-.68-.44-.03-.1-.03-.17-.07-.24v-.14c0-.37.27-.78.85-1.22M5.88,17.96h.27v4.22l.31.65-.1.03c-.07,0-.14-.1-.17-.27-.17-.24-.27-.58-.31-.99v-3.64ZM4.69,18.06c.31-.1.54-.14.75-.14h.14l.07.03.1-.03.03,4.08.17.54c.2.58.95.92,2.24,1.02.31.03.44.1.44.24s-.1.2-.27.2l-3.16-.31-.44.03-1.09.07-.82.1h-.24c-.34.03-.51,0-.51-.17,0-.03.03-.14.1-.24l.41-.07.34-.03c1.12-.1,1.7-.82,1.73-2.18v-3.16ZM23.26,17.69v-.03h.03l.1.1c0,.17-.07.24-.24.24l-.1-.07c0-.1.07-.17.2-.24M1.02,18.2l.1-.07-.03-.17.1-.1.14-.27c.03-.07.1-.1.24-.1h.07l.03.03c-.17.14-.24.24-.24.34l.07.34c.14.03.2.07.24.07h.27l.31-.14.58-.31c.1-.03.2-.1.34-.14.14-.03.31-.1.48-.14l-.27.2-.68.31-.51.44c-.14.14-.34.2-.58.2s-.41-.17-.51-.51h-.14ZM5.14,17.45h.48c.44-.03.78.07.99.31h-1.36c-.99-.03-1.87.31-2.65,1.09-.75.78-1.12,1.7-1.12,2.72,0,.48.17,1.12.48,1.94l-.03.1-.14.1c-.31-.61-.51-1.12-.58-1.56v-1.33l.34-.99s.07-.1.14-.24l.31-.48.07-.1.14-.14c.92-.85,1.9-1.29,3.03-1.39l-.07-.03ZM19.97,17.35h.03c.17,0,.27.07.27.24,0,.14-.07.2-.2.2-.17,0-.27-.07-.27-.24,0-.14.07-.2.17-.2M18.71,17.18l.41.41.41.48.14.17.1.1.1.07.1.17.07.07c.24.2.37.37.48.54.14.07.2.14.2.2l-.1.1c-.07,0-.14-.03-.24-.14l-.17-.17-.1-.14-.17-.17-.58-.65-.1-.07-.17-.14-.31-.34-.1-.1-.07-.14-.03-.07v-.03l.03-.03.03-.07.07-.07ZM23.09,17.07h.03c.1,0,.17.07.17.17s-.07.17-.17.17-.17-.03-.17-.1l.03-.07c.03-.1.07-.14.1-.17M19.32,16.87h.03c.2,0,.31.07.31.24,0,.14-.07.2-.24.2s-.24-.1-.24-.27c0-.1.03-.17.14-.17M23.54,16.84l.07-.07h.03l.1.1.03.07c0,.1-.03.14-.14.14s-.14-.03-.14-.1l.03-.14ZM20.34,16.73c.17,0,.24.03.24.14,0,.17-.03.27-.14.27-.17,0-.27-.07-.27-.24l.03-.1.07-.07h.07ZM24.8,16.36v.14l-.27.37-.38.24c-.17.14-.27.2-.34.24-.03.03-.14.03-.31.07l.03-.07.03-.1.44-.24.14-.14.1-.03.07-.1.07-.03.07-.14.17-.1.17-.1ZM17.92,16.33l.71-.1h.1c.75,0,1.19.27,1.29.82l-.17-.03c-.17-.44-.54-.65-1.12-.65-.07,0-.17,0-.31.03-.17.03-.27.03-.34.03-.1,0-.14-.03-.17-.1M19.9,16.19c.17,0,.27.03.27.14s-.07.17-.17.17c-.17,0-.24-.07-.24-.24l.1-.07h.03ZM13.2,16.16l.1-.07.14-.03c.24,0,.44.07.65.27.17.14.27.34.27.54,0,.31-.14.55-.44.72.03-.1.03-.17.03-.24l.03-.14-.07-.34c-.17-.17-.34-.27-.48-.27-.41,0-.72.34-.95,1.06l-.2.54.1,2.04-.1.14-.17-.95-.03-.27v-.24c-.07-1.05.1-1.84.51-2.35.17-.24.37-.37.61-.41M10.61,17.75v-.65c0-.71.17-1.09.54-1.09.1,0,.2.03.24.1l.14.2-.31.1c-.1.03-.14.07-.17.14l-.14.27-.07.17c-.03.17-.07.31-.07.41v.34l.1.75c.03.17.07.31.1.34l.03.17-.07.07s-.07-.03-.07-.14v-.03c-.1-.2-.14-.41-.2-.61,0-.17-.03-.37-.07-.54M24.97,15.92v-.17l.14.24v.03l-.07.1v.03l-.07-.24ZM4.46,16.9h-.2c-.61.03-.92-.17-.92-.65,0-.37.2-.58.58-.58.24,0,.37.1.44.34-.17-.1-.34-.17-.44-.17-.17,0-.24.14-.24.37,0,.27.27.51.78.68M9.73,15.88v-.34l-.03-.14c0-.1.14-.17.38-.17.2,0,.27.1.24.27v.54l.07.61v.54c.03.44.14,1.02.31,1.67.1.48.24.88.34,1.23.1.34.24.61.34.82.14.24.2.41.2.48v.03c0,.17-.03.24-.14.24-.07-.03-.1-.17-.14-.34l-.14-.27-.03-.1-.17-.34-.2-.41-.07-.34-.2-.51-.14-.48-.14-.48-.48-2.52ZM6.53,16.46c-.03-.07-.03-.17-.03-.27v-.17c0-.24.1-.48.27-.71.1-.1.17-.14.2-.14h.03l.1.07-.2.37.03.31.1.37.34.41.17.24.44.44.34.31.27.17.24.24.41.34.41.48.17.2.27.34.31.51c.1.17.17.34.27.51.17.31.27.54.34.71l.1.24c.17.31.27.48.31.54.03.07.03.17.07.27-.17-.03-.27-.1-.37-.2l-.51-1.02-.17-.41-.24-.31-.07-.1-.38-.44-.27-.27c-.58-.58-1.19-.88-1.84-.88-.17,0-.31.03-.44.1-.14.07-.2.14-.2.2l-.03.44-.34-.17-.03-.17-.07-.03-.07-.27c0-.31.07-.48.24-.51l.24-.1.2-.14h.24l.14.03c.1,0,.17,0,.24.03l.27.17.2.1.03-.14c-.14-.14-.34-.24-.58-.27-.51-.07-.85-.24-1.09-.54l-.1-.27.14-.03.14-.1.03.07.03-.1-.24-.2v-.1l-.07-.14ZM1.77,15.1l.14.1c-.03.07-.03.24-.03.48,0,.31.07.51.2.68.37.51.78.75,1.22.71h.17l.14.03.1.1.03-.1h.51c.14,0,.2.03.2.07,0,.07-.03.1-.14.1h-.21l-.27-.03v-.1c-.14.07-.24.1-.34.1-.44,0-.85-.17-1.26-.51-.37-.31-.58-.68-.58-1.09,0-.1.03-.31.1-.54M7.82,15.07l.2.1.65.14.58.51.37.71.34,1.46.27.92-.07.07-.2-.37-.03-.14-.1-.24-.48-1.67-.24-.41-.07-.07c-.24-.17-.44-.27-.61-.27-.31,0-.48.1-.48.31l.07.41-.07.17-.37-.24-.03-.1-.07-.27v-.03l.07-.17.03-.17.24-.24-.03-.24.03-.17ZM10.31,14.86l.1.03.07.03v.07l-.1.1-.1-.07-.03-.07.03-.03.03-.07ZM9.56,14.83l.14.03.03.07.03.03c0,.1-.07.14-.17.14s-.14-.03-.14-.1l.1-.17ZM9.86,14.76h.27l-.1.27-.17-.1v-.17ZM12.82,14.42l.1.1c.1.1.17.2.17.24,0,.07-.1.27-.34.65-.51.92-.78,2.14-.78,3.67v.51c.03.14.03.24.07.34.1.27.14.48.14.58,0,.07-.03.17-.1.34h-.07l-.17-.85-.1-.68v-.99l.07-.75.2-1.16.1-.34.17-.41.1-.31.1-.34.24-.44.1-.17ZM10.44,14.76c-.17-.1-.31-.14-.37-.1l-.65.1c-.1.03-.14-.03-.14-.14,0-.27.24-.41.75-.41s.75.14.75.41c0,.14-.07.2-.17.2.03,0-.03-.03-.17-.07M11.19,14.56c.03-.24.2-.38.48-.38.41,0,.61.27.61.82,0,.07-.03.2-.07.37l-.37,1.22c-.14.51-.2,1.06-.2,1.6v.48l-.03.37v.17c0,.1,0,.17.03.24l.14.85.14.51.07.34h-.1l-.07-.2-.07-.2-.07-.24-.07-.41-.07-.31c-.07-.41-.1-.75-.1-1.02v-.27c.03-.1.03-.2.07-.31l.24-1.57v-.34c.03-.14.07-.34.14-.65.07-.27.1-.48.1-.61,0-.37-.14-.54-.41-.54-.03,0-.14.03-.37.07M18.91,14.83c.03-.44.27-.65.75-.65.58,0,.88.31.88.95,0,.17-.03.31-.1.41-.17.27-.37.41-.61.41l-1.12.1c-.14,0-.24,0-.31.03l-.34.07v-.14l.34-.1.89-.07c.65-.07.99-.34.99-.78,0-.37-.24-.58-.75-.58-.17,0-.37.1-.61.34M2.24,14.63v-.17c0-.38.44-.51,1.33-.44l.17.03.48.07h.1c.1,0,.14.03.14.1l-.07.07c-.1,0-.27-.03-.48-.07-.2-.03-.37-.07-.48-.07-.41,0-.82.17-1.19.48M9.66,13.6h.14l.24.14.07-.1.14-.03c.07,0,.14.07.17.17l.27-.03-.2.27-.92.03-.07-.14-.31-.17c.17-.03.27-.07.24-.07.1,0,.2,0,.24.03v-.1ZM16.46,13.98c.14-.31.34-.44.65-.44.51,0,.75.24.75.75,0,.14-.07.34-.17.65l-.1.31.27-.03h.14l.1.07c0,.24-.1.51-.27.78-.2.31-.41.48-.65.58l-.75.31-.34.27-.17.17s.03.03.07.17h.1-.1c.17,0,.24,0,.27-.03.1-.1.2-.2.34-.31.07-.1.17-.17.24-.27.51-.2.85-.31,1.02-.31.51,0,.78.1.75.34-.14.17-.27.31-.41.41.31.2.48.48.48.85,0,.51-.24.85-.75,1.02l-.07-.1c.14-.17.2-.27.2-.37l-.03-.24-.07-.17-.1-.07v-.1l-.14-.07-.37-.17-.14-.03c-.85,0-1.26.54-1.26,1.63,0,.48.17.99.51,1.53l.31.51.44.44.07.03.1.1.14.1.31.2.17.1.24.14.75.2.68.1h.71c.1-.03.2.07.34.31-.1.03-.2.03-.37.03h-.34c-1.05,0-2.21-.34-3.4-.99l.03-.07c-.24-.17-.44-.34-.61-.51l-.1-.17-.14-.14-.34-.65-.17-.31-.1-.17-.07-.17-.1-.14v-.03l-.2-.41-.17-.27-.17-.14-.1-.14c-.24-.17-.41-.24-.54-.24-.37,0-.54.17-.54.51,0,.14.03.31.14.48l.17.14-.24.03-.17-.14-.14-.07-.1-.24-.03-.14v-.17c0-.37.14-.65.41-.82l-.17-.2c.27-.1.44-.17.48-.17.07,0,.31.07.71.17.24.17.41.34.51.58l.1.27h.17l-.07-.24v-.14c0-.78.2-1.43.58-1.87.1-.2.24-.44.44-.65.14-.27.37-.51.61-.75.37-.37.58-.71.58-.99-.03-.1-.07-.24-.1-.31-.03-.14-.14-.17-.24-.17l-.17.03c-.07,0-.17,0-.27.03v-.07ZM10.24,13.5h-.24c-.31-.03-.58,0-.82.1-.17.03-.27.07-.24.07-.1,0-.17-.03-.17-.14,0-.07.14-.14.41-.17l.71-.03h.1c.17,0,.48.03.85.1.17.03.31.07.34.1l-.95-.03ZM2.31,13.3l.03.07.03.07-.2.37c-.1.2-.17.44-.17.65,0,.24.1.48.27.68.17.2.41.31.65.31.51,0,.85-.24,1.02-.71.03-.17.1-.24.24-.24-.27.71-.71,1.09-1.29,1.09-.27,0-.51-.1-.71-.34-.24-.24-.34-.48-.34-.78l.03-.1.1-.37.03-.31.31-.37ZM9.18,12.75l.17-.07h1.09l.27.1c.54.07.82.24.82.48,0,.17-.07.24-.17.24l-.1-.07.07-.14-.34.07-.03-.17-.31.07-.03-.14-.2.07h-1.16l-.2.1h-.2l-.17.14h-.1c-.1-.03-.14-.07-.14-.17,0-.24.2-.41.61-.51h.14ZM23.2,12.58l-.03-.14.27.17.17.14c.1.24.17.44.2.68l.07.2.1-.17-.07-.41c.31.24.44.58.44,1.09v.27c-.03.1-.03.27-.07.44h.1c.1-.17.14-.31.14-.44-.03-.03-.03-.14-.03-.27l-.03-.54c.24.24.34.51.34.88l.14.03v-.2l.2.24.03.37.17.1c.03.1.07.17.1.27l.07.17.07.31-.07.54h.17v.24c0,.2-.1.54-.27,1.02l-.24.54-.14.1.07.07.07.03c.07-.07.14-.17.17-.27l.27-.58.14-.44h.07l-.07,1.84h-.07l-.03.07c-.17.58-.31.99-.41,1.23l-.2.37c-.07.14-.14.2-.17.24l-.34.31-.03.24-.51.95c-.1.2-.17.31-.2.34-.27.48-.41.95-.41,1.43,0,.31,0,.44.03.48l.24.51.03.1-.1.1s-.1-.07-.2-.17l-.2-.27s-.03-.14-.03-.24c-.03-.1-.07-.2-.17-.27l-.24.17-.03-.07c-.03-.07-.03-.17-.03-.27v-.24c0-.2,0-.31.03-.34l.2-.2.14-.27.07-.07v-.03c0-.1-.03-.14-.1-.14l-.07.03-.14.03-.03-.2v-.17c0-.41.14-.75.37-.99l.1-.1c.07-.03.14-.1.24-.24l.85-.51.17-.24.24-.2.24-.38.14-.27.07-.24h-.14c-.14.37-.34.61-.65.71l.07-.37-.1.1v-.14c-.37.24-.75.37-1.19.41.03-.17.1-.34.14-.48l.1-.31.14-.27.07-.27-.41-.03c.17-.48.41-.85.71-1.09.1-.1.17-.14.2-.17l.17-.1.31-.24.17-.07.2-.27.1-.2c.03-.14.1-.24.1-.31l.07-.1c0-.07-.07-.24-.17-.54-.14.03-.24.1-.27.14-.03.03-.03.07-.03.17l-.03.14c-.07.17-.17.24-.27.24-.03,0-.07-.03-.1-.14h-.1c-.03.1-.1.2-.14.24l-.1.14c-.24.1-.44.17-.65.2-.1-.17-.14-.31-.14-.41,0-.17.07-.37.2-.61v-.1l-.31-.07c-.07-.2-.1-.41-.1-.58s0-.27.03-.31l.27-.78.07-.48h-.07c.03-.07.03-.17.03-.31,0-.07-.07-.24-.17-.51M22.58,12.45c.41.24.61.48.61.71l-.07-.03-.58-.58.03-.1ZM2.82,12.92l.95-.75h.03l.1.1c0,.1-.1.24-.34.37-.24.14-.37.24-.44.27l-.2.1-.1-.1ZM2.38,12.11c.17.92.48,1.39.85,1.39l.14-.07.17-.51.14.03v.14l.03.03c0,.34-.17.51-.54.51-.44,0-.75-.37-.88-1.16l-.03-.14c0-.07.03-.14.14-.24M6.6,14.05v-.03l.03-.1.17-.17c.14-.1.24-.27.31-.51l.21-.54c.1-.37.34-.58.65-.58.17,0,.34.17.48.48,0,.41-.14.61-.37.61h-.03c-.1-.03-.14-.07-.17-.1,0-.03.03-.07.17-.17l.14-.17c0-.17-.1-.24-.31-.24-.17,0-.34.17-.48.54-.17.48-.44.82-.78.99M23.03,12.48l-.14-.1-.1-.03c-.17-.07-.24-.14-.24-.2l.07-.07c.1,0,.24.14.41.41M22.92,12.01c.27.07.44.14.48.2l.41.34.27.2.41.41c.2.17.34.27.48.34l.14.1c.1,0,.27-.07.48-.2l.03-.1.07.03.1-.03.03.17c-.1.24-.27.37-.48.37-.24,0-.51-.14-.82-.37l-.27-.27-.07-.1-.31-.27-.34-.27c-.07-.03-.14-.1-.27-.2-.07-.1-.2-.2-.34-.34M18.74,11.77c1.33.03,1.97.48,1.97,1.33,0,.58-.31.88-.88.88-.2,0-.31-.1-.31-.27.07.03.17.03.34.03.1,0,.27-.1.51-.27.07-.14.1-.24.1-.34v-.17c-.03-.07-.03-.17-.07-.27-.31-.48-.92-.75-1.77-.78v-.1l.1-.03ZM6.43,11.84l.07-.03.27.1.07.34-.2-.1-.27.03.07-.34ZM2.14,11.7c.2,0,.44.07.71.17.31.2.48.34.48.44l-.1.07s-.2-.14-.51-.37c-.1-.1-.2-.14-.34-.14-.34,0-.51.2-.51.58,0,.1.07.27.17.44l-.14.1c-.27,0-.41-.2-.41-.61,0-.37.2-.61.65-.68M20.71,11.73h-.24l-1.02-.14-1.43.07-.61-.1.37-.14c.1-.03.41-.07.99-.1h.58c.1,0,.24,0,.37.03.17,0,.34,0,.54.04l.44.03v.31ZM3.03,11.19l.03-.1.14.07.82.58c.31.2.44.65.44,1.33,0,.1,0,.24-.03.34,0,.1,0,.24-.03.34l-.03.1-.03.03c-.07,0-.1-.07-.1-.17l.07-.27c.07-.17.07-.44-.03-.82-.14-.41-.27-.68-.44-.82-.14-.14-.41-.34-.78-.61M16.26,10.88c.17.1.27.2.27.31l-.07.34.24.07c-.17.31-.58.54-1.23.78-.17.03-.24.1-.24.2l.03.07s.14-.03.24-.1l-.03-.07,1.02-.41.24-.14.58-.07-.1.2c.07-.03.2-.03.41-.03.1,0,.31.07.54.2h.17v-.07c-.1-.03-.2-.1-.31-.14-.1-.03-.17-.07-.24-.1l.07-.07c.1,0,.14,0,.17.03l.17.07c.2.03.37.14.55.27.17.17.24.27.24.37,0,.03-.1.1-.34.17.2.17.31.34.31.51,0,.41-.2.61-.65.61-.1,0-.2-.03-.31-.14.17-.17.24-.27.24-.37s-.03-.2-.14-.37l-.14-.17-.03-.03-.14-.07c-.31-.17-.58-.27-.78-.27-.17,0-.41.03-.68.1-.31.07-.55.14-.75.2-.2.07-.31.1-.34.1-.07,0-.1-.03-.14-.14-.14-.1-.24-.24-.27-.37.1-.1.2-.14.27-.2l.14-.07c.17-.1.34-.24.48-.34.14-.1.24-.2.34-.31l.03-.03c.1-.17.17-.38.17-.55M21.05,10.71l.92-.03-.1,13.54-4.12-4.73c.2,0,.34-.03.44-.14l.1-.03.03-.1c.31-.17.48-.51.48-.95,0-.17,0-.31-.03-.37h.07l.14.17.07.07c.17.17.37.37.54.58l.65.75.24.24h.17c.17,0,.27-.17.27-.54l-.03-.2v-1.94l.17-6.29ZM22.24,10.65l.07.07-.07,13.57-.03.1-.14.07-.1-.1c0-.1,0-.14.03-.17l.07-7.45.03-4.18.03-1.87.1-.03ZM17.89,10.71l-.03-.14.27.1.03.07.03.03c0,.27-.1.41-.34.44l-.54.14-.2.14h-.17c.07-.07.27-.17.58-.34.24-.1.34-.27.37-.44M4.28,11.67c-.1-.03-.14-.07-.14-.1l.03-.31c0-.41-.17-.61-.51-.61-.48,0-.78.14-.92.44-.1.27-.2.41-.27.41l-.1-.07v-.07l.07-.14c.31-.48.68-.71,1.16-.71.54,0,.78.24.75.68v.17c-.03.1-.03.2-.07.31M5.78,10.51l-.1,4.8.03,1.9-1.02.07v-2.86l.03-.99v-1.7c-.03-.07-.03-.17-.03-.34v-.34c0-.17.03-.34.1-.51l.99-.03ZM6.16,10.48l-.03,6.77-.24-.03.03-4.73-.03-.41.03-.72.03-.85.2-.03ZM11.94,10.17l4.42,4.97c.03.17.07.27.07.24v.03l-.27.31-.65.82-.2.27-4.15-4.62.1-.37c.07-.24.14-.44.2-.58l.17-.44.14-.24.17-.37ZM12.14,9.83c.17.1.34.27.48.51l3.37,3.74.24.2.07.14.31.34.07.14.07.1c-.07.07-.14.1-.24.14l-.41-.44-.03-.07-.14-.14-.14-.2-.07-.07-.31-.27-.31-.41-.07-.07-.17-.17-.03-.07-.37-.37-.48-.58-.07-.1-.41-.44-.03-.07-.14-.1-.44-.51-.34-.37-.24-.31c-.2-.1-.31-.2-.31-.31l.03-.1.1-.14ZM8.74,10.41c-.31-.24-.48-.34-.58-.31l-.95.07v-.07c.03-.07.17-.14.44-.2.1-.03.2-.03.31-.03l.2-.03c.31,0,.61.1.85.31.24.2.37.44.37.71,0,.58-.27.85-.78.82-.1,0-.2-.03-.37-.1.44-.03.68-.24.68-.61,0-.03-.03-.14-.07-.31l-.1-.24ZM6.39,9.29c.58.71.85,1.56.85,2.62s-.27,1.63-.85,1.87l.1-.24.14-.1s.1-.14.14-.24c.24-.48.34-.95.34-1.46,0-.34-.1-.85-.31-1.5l-.17-.31-.14-.27-.07-.14-.03-.24ZM2.96,9.15c.14.1.24.17.31.2.65.44,1.39.68,2.25.68.2,0,.34,0,.37-.03l.44-.14h.03c.1,0,.14.03.14.14,0,.24-.24.34-.71.31l-1.09-.03c-.44-.03-1.09-.34-1.87-.85l.14-.27ZM7.24,9.49l.51-.48.17-.1c.14,0,.2.07.2.17l-.03.1-.48.41c-.24.17-.41.27-.44.27-.14,0-.2-.07-.2-.17l.27-.2ZM3.67,9.32s.14.03.31.03.27-.03.27-.1l.03-.37.24.2v.07c0,.27-.14.41-.38.41-.17,0-.31-.07-.48-.24M2.24,8.64l.03-.14h.2l.07.17-.2.24v-.1l-.1-.17ZM2.55,10.75c-.17-.31-.24-.58-.24-.85,0-.37.14-.71.41-1.05.27-.34.58-.55.88-.61l.44-.07h.41v.14l-.1.03h-.14c-.1-.03-.27,0-.51.1-.71.1-1.12.58-1.22,1.4v.44c.03.1.07.17.1.2l.07.14-.1.14ZM6.94,8.09c.41.1.61.31.61.55v.03l-.03.14-.03.1c-.2.34-.41.51-.61.51l-.03-.03v-.07l.38-.31c.07-.03.1-.1.1-.27,0-.1-.14-.34-.38-.65M4.08,7.24c.1,0,.17.03.17.1,0,.1-.03.14-.14.14s-.17-.03-.17-.14v-.07l.03-.03h.1ZM1.46,7.45c.03-.17.17-.27.41-.27.1,0,.2.03.31.14l.51.54s.14.07.24.07c.17,0,.31,0,.37-.03-.24.31-.48.44-.75.44-.17,0-.34-.07-.51-.24l-.14-.24c-.07-.1-.14-.17-.17-.17l-.1.1v.03l.03.03.41.58c.1.17.17.34.17.44s-.03.24-.14.44c-.1.14-.17.24-.27.24s-.14,0-.17-.03c.1-.31.17-.48.17-.51,0-.14-.03-.27-.14-.44-.24-.44-.34-.75-.34-.85s0-.17.03-.2l.07-.07ZM1.26,7.04l.14-.17.1-.07h.2s.1,0,.2.1c-.24.07-.48.2-.65.41v-.27ZM5.95,7.79c-.03-.07-.03-.17-.03-.31v-.34c0-.31.03-.44.1-.44.14,0,.2.03.2.1l-.07,1.39v1.36c-.07.1-.14.14-.2.14h-.03l.03-1.9ZM9.59,6.29c.51.14.89.48,1.06.99l.1.31c.14,0,.24-.03.31-.1l.2-.1c.14,0,.2.2.2.58,0,.17,0,.24-.03.27l-.1.27c-.1.24-.17.41-.2.51l.07-.55-.03-.14c-.03.1-.07.2-.07.31l-.07.17c-.07.2-.14.37-.2.48v.03l.07.1.24-.34-.1.24c-.44.78-.68,1.36-.75,1.73l-.1.55-.03.14.1.07c.1,0,.17-.14.17-.41v-.07c-.03-.1.03-.27.14-.51l.41-.92c.14-.24.2-.37.24-.48l.34-.95c.03-.1.17-.27.44-.54l1.19-.51-.03.34.1.07.31-.03c.14,0,.31.1.54.27.2.17.34.27.44.31.31.03.44.07.44.14,0,.2-.14.34-.44.44.07.2.1.37.1.51,0,.17-.07.34-.2.51-.1.17-.24.27-.41.27l-.61-.14c-.17,0-.27.07-.27.2,0,.07.03.14.1.24l.31.14.71-.17h.1c.44,0,.65.17.65.54,0,.1-.07.2-.17.31v-.1c0-.37-.14-.54-.44-.54l-.82.14h-.03c-.1,0-.2-.07-.37-.24s-.24-.31-.24-.41c0-.24.1-.34.31-.34l.54.03h.1l.1-.1.07-.14-.03-.37c-.17-.27-.41-.41-.68-.41-.58,0-1.06.34-1.46,1.02-.61.99-.92,1.74-.92,2.24,0,.27-.03.41-.14.41l-.07-.03-.14-.03h-.34l-.07-.07-.27.07h-.51v-.31l.31-1.84.31-1.33c.03-.1.03-.24.03-.44.03-.14.03-.38.03-.61,0-.31-.07-.65-.2-.95l-.31-.71ZM20.34,5.41h.03c.31-.03.44.03.44.2,0,.1-.03.2-.14.27l-.1-.14c-.17-.07-.31-.1-.34-.1-.17,0-.31.07-.48.24.1-.24.27-.38.58-.48M13.71,5.48l.54-.14s.1-.03.24-.03c.27,0,.54.07.82.2.37.2.55.41.55.61,0,.07-.07.14-.2.2.03.07.03.17.03.34,0,.54-.27.82-.82.82-.58,0-.85-.24-.85-.71l.1-.14.03.03.2.24c.03.07.14.1.34.1.34,0,.51-.17.51-.48,0-.1-.07-.27-.2-.51-.31-.17-.54-.27-.65-.27-.54,0-.99.24-1.33.71l-.61.92-.31.14.2-.34.37-.58.27-.34.1-.14.17-.2.44-.38.03-.07ZM20.2,4.8l.17-.1h.03l.03-.03c.14,0,.2.07.2.17-.03.1-.17.24-.41.34-.24.14-.37.27-.41.37-.1.17-.24.31-.34.44l-.31.41c-.03-.07-.03-.17-.03-.27s0-.14-.03-.17v-.1c0-.07.03-.1.14-.1h.03c.03-.1.1-.2.17-.27.03-.07.2-.24.51-.48l.1-.1.14-.1ZM3.5,4.93l.14-.24.14.07.17.1.03.07.03.1-.07.89.14.34.17.24c.17.07.24.14.24.24,0,.17-.1.27-.27.27-.1,0-.24-.07-.37-.24l-.1-.14-.03-.03-.1-.07v.17l.14.24-.07.37c-.44-.2-.61-.48-.58-.78v-.85l.1-.2.03-.2.27-.34ZM15.54,4.9c.24-.17.48-.24.78-.27h.37l.34.03.34.14.2.07c.03.1.1.17.14.2.03,0,.1-.03.17-.14.07-.1.14-.14.17-.14s.1.03.2.14l.14.14c.38.31.55.82.55,1.53v.1l-.14.54v.03l.1.1.1-.03.2-.48.17-.2c.17-.2.41-.31.75-.31l.07.41c.37.07.54.2.54.44l-.07.27c-.17-.1-.27-.14-.34-.14-.37,0-.58.24-.58.75s.2.89.58,1.16l.27.27.27.14.14.1c.14.03.27.1.37.1.1.07.2.1.31.14h.85c.17,0,.58-.1,1.22-.27-.07.31-.24.48-.48.54l-.61.1-.48.1c-.07.03-.2.03-.37.03h-.03c-.31,0-.72-.03-1.19-.07-.44-.03-.99-.1-1.63-.2-.1-.03-.2-.03-.38-.03h-.58l-.85.17.14-.31.07-.14h-.27l-.1.07-.17.17c-.27.17-.54.27-.85.24h-.51v-.71l.1-.2.1-.27.17-.1.2-.07h.2l.03-.07-.03-.1-.03-.03-.07-.07c-.24-.03-.38-.1-.41-.2v-.03l.03-.03c.14-.27.44-.41.95-.41.07,0,.31.03.68.1l.1.03.31.07-.07-.27-1.05-.58c-.17-.14-.31-.31-.37-.48l-.07-.37h.27c.1,0,.2-.03.24-.07l-.07-.14c-.03-.14-.14-.27-.24-.44l-.03-.1-.07-.14-.24-.34-.14-.1-.44-.37ZM7.86,4.73l.37-.14c.27,0,.48.2.61.61l.07.27.14.2.03.27-.1-.1-.31-.31-.34-.48-.03-.07-.44-.27ZM22.99,5c-.24-.1-.34-.2-.34-.31s.03-.14.1-.14c.03,0,.2.1.51.27.2.1.37.2.51.31l.1.07c.37.31.55.75.55,1.33,0,.61-.2.92-.65.95l-.03-.2c-.27.1-.44.17-.54.17-.24,0-.41-.1-.54-.31l.41-.07.03-.03.27-.31c.1-.34.17-.54.17-.61,0-.1-.03-.31-.1-.55l-.17-.31-.14-.14-.14-.14ZM9.28,5.99c-.14-.34-.2-.58-.2-.75,0-.51.24-.75.75-.75.41,0,.61.17.61.48l-.07.27c-.17-.27-.34-.41-.48-.41-.41,0-.61.37-.61,1.16M18.6,4.42c.1-.31.27-.48.51-.48.44,0,.68.24.68.68,0,.17-.17.44-.51.78l-.24.24.24-.48v-.07c.14-.17.2-.31.2-.41,0-.07-.07-.2-.17-.37-.17-.07-.31-.1-.37-.1-.1,0-.2.07-.34.2M1.97,5c-.03-.07-.03-.17-.03-.27v-.27c0-.37.07-.58.2-.58l.14.03-.07.92.03.2c.03.17.17.24.41.24.1,0,.2-.03.31-.14l.03-.17s-.07-.1-.17-.2l.07-.07.07-.03c.1,0,.17.1.17.27,0,.37-.17.58-.54.58-.34,0-.54-.17-.61-.51M24.59,3.74c.24.2.37.44.37.75,0,.48-.2.71-.58.71-.17,0-.37-.1-.58-.31l-.03-.1-.03-.14c0-.1.03-.24.14-.41l.2.44.17.1s.14-.03.24-.1c.14-.17.2-.27.2-.37,0-.03-.07-.2-.17-.48l.07-.1ZM14.62,3.71l.27.41c-.24.14-.37.24-.44.34-1.16.99-1.9,1.87-2.28,2.72l-.44.58-.03-.07c-.03-.17-.07-.27-.07-.24,0-.03.07-.1.14-.31.14-.14.17-.27.2-.34.1-.24.2-.41.37-.51.1-.24.24-.48.41-.65l.17-.2.34-.34.88-.92.27-.2.2-.27ZM1.43,4.42l.1-.44c.03-.17.1-.24.2-.24s.14.03.14.14v.07l-.14.24-.17.88c-.07.31-.1.51-.07.61l.07.71v.03c0,.14-.07.2-.21.2-.1,0-.14-.2-.14-.58v-.85l.07-.44.14-.34ZM10.27,4.22c-.24-.17-.44-.24-.61-.24s-.27.03-.31.07l-.17.31h-.03c-.2,0-.31-.1-.31-.31,0-.31.17-.44.54-.44.24,0,.54.2.89.61M25.14,3.5l.17.14c.1.1.24.31.41.68.24.65.37,1.19.37,1.63,0,.85-.17,1.67-.51,2.52l-1.09,2.52c-.07.24-.1.44-.1.61,0,.65.24.99.68.99.2,0,.34-.17.37-.48l-.31-.48c-.1-.17-.17-.27-.2-.34l-.1-.14v-.2s.03-.07.07-.31l.1-.17c.14-.24.31-.34.48-.34.1,0,.2.03.37.1.17.07.24.17.24.34,0,.34-.17.54-.48.58-.07,0-.1-.03-.1-.14l.14-.2.17-.14.03-.1-.03-.2c-.17-.07-.31-.1-.41-.1-.24,0-.37.2-.37.58,0,.1.03.24.14.37l.2.34c.1.14.17.24.27.34.07.1.1.14.1.17l-.03.03v.34l-.03.1c0,.24-.2.37-.65.37-.37,0-.72-.31-1.02-.92-.07-.2-.1-.37-.1-.48s0-.17.03-.31c0-.07,0-.2.03-.34l-.37.1c.03-.37.14-.71.31-.95,0-.1.07-.2.17-.31l.27-.27.61-.71c.1-.17.17-.31.17-.41l-.07-.1-.1.07-.24.51c-.1.31-.34.44-.78.44-.1,0-.24-.03-.48-.1l.14-.31c-.17-.07-.31-.2-.37-.41-.03-.17-.07-.27-.07-.31,0-.1.03-.2.14-.31l.14.1c.24.17.44.24.61.24s.34-.03.51-.14l.41-.27.48-.78-.1-.2c.17-.24.24-.48.24-.78v-.07c-.03-.48-.07-.78-.1-.92l-.14-.31-.07-.27-.14-.37-.2-.31.2-.24ZM12.89,3.37c.1.03.17.1.17.14,0,.1,0,.14-.03.17-.03.14-.1.24-.14.34-.03.1-.17.14-.41.14h-.1v-.24c0-.17.14-.31.37-.41l.14-.14ZM13.6,3.33c.14.17.2.31.2.37s-.1.2-.27.37c-.03-.07-.03-.17-.03-.27s.03-.27.1-.48M17.99,3.2l.37.14.92.14.58.14c.2.03.44.2.68.44.14.14.2.24.2.34l-.03.03v.03l-.24-.27-.1-.03c-.37-.24-.85-.41-1.43-.48-.61-.1-.92-.24-.95-.48M14.86,3.67c-.07-.1-.1-.17-.1-.27s.07-.17.17-.17c.07,0,.14.1.24.34l.2.17c.07.14.14.17.14.2l-.03.03-.17.1c-.1-.03-.2-.1-.37-.24l-.07-.17ZM1.46,3.2l.82.14c.71.1,1.26.48,1.56,1.09-.58-.44-1.09-.71-1.53-.82-.44-.1-.75-.24-.85-.41M25.68,3.61c-.07,0-.17-.03-.27-.14-.1-.1-.17-.17-.17-.27v-.03l.34.14.41-.03-.03.24c0,.07-.1.1-.27.1M24.73,3.1l.1-.1c.1,0,.14.07.14.2,0,.2-.1.31-.31.34l-1.43.34c-.51.14-.78.51-.82,1.12l-.03,4.35-.07.48-.2-.07.03-4.39c0-.27,0-.48.03-.65,0-.17.03-.31.07-.41.07-.1.14-.24.27-.31.07-.14.24-.24.41-.37h.07l.51-.2.71-.14.51-.2ZM13.67,3.2l-.03-.1c0-.1.07-.14.17-.14.48,0,.71.17.71.51,0,.17-.1.27-.31.27-.17,0-.34-.17-.54-.54M11.67,3.4l.31-.51.61.07v.03c0,.1-.07.17-.24.24v.07h.2l.1-.1.1-.24.1.07c-.1.37-.34.54-.71.54-.03,0-.17-.07-.48-.17M5.75,2.93v-.07l.1-.03c.1,0,.31.14.54.41l.61.75,2.41,2.75.17.2.14.07.03.44-.07-.07-.17-.17-.17-.14-.07-.07-.34-.44-.17-.17-1.33-1.5-.07-.1-.2-.2-.1-.1-.24-.34-.17-.14-.82-.95-.1-.14ZM20.37,3.64c-.44-.24-.78-.34-1.02-.34l-.95-.1c-.34-.03-.51-.1-.51-.24s.2-.2.61-.2c.17,0,.38,0,.65.03s.61.07,1.05.1c.1.03.27.03.51.03h.82c.24,0,.41,0,.51-.03.17-.03.31-.03.41-.03h.37c.24,0,.41,0,.48-.03.1-.03.24-.03.41-.03h.27l.2-.03s.2.07.55.17l-.34.24-1.43.34c-.58.14-.92.75-.95,1.84l-.03,1.09v3.3c-.68-.03-1.02-.2-1.02-.54l.03-2.04-.03-.27v-.1c0-.1,0-.17.03-.24.03-.14.03-.27.03-.41.03-.14.03-.27.03-.44,0-.58-.1-1.09-.27-1.6l-.1-.1-.07-.1-.24-.24ZM12.89,4.39l.1-.17.03-.14c.1-.31.17-.51.17-.61l-.03-.1v-.07l-.2-.31v-.07c0-.14.07-.2.2-.2.24,0,.34.14.31.44l-.03.24c0,.34-.07.61-.2.85l-.31.61-.1.24-.37.54-.48.82-.24.31v-.14c0-.2.24-.68.75-1.46.17-.24.31-.51.41-.78M1.53,2.75l.85-.1,1.16.03.85.1,1.05.03,4.18,4.73c.17.17.24.31.24.48s0,.27-.03.31l-.17,1.09c-.03.31-.1.58-.2.82l-3.2-3.64s-.14-.07-.24-.07c-.17,0-.27.2-.27.65v2.55c-.37.07-.61.1-.71.1s-.17-.03-.27-.14v-.24l.03-.82v-.34l-.03-.48-.03-1.36c0-.89-.27-1.63-.85-2.28-.58-.68-1.19-1.02-1.9-1.05-.37,0-.58-.03-.58-.14,0-.07.03-.14.14-.24M17.48,2.48l.92-.27s.07-.03.17-.03c.27,0,.41.1.41.31,0,.07-.07.1-.17.1h-.03l-.51-.17-.07-.03c.17,0-.07.03-.71.1M13.67,2.79l.03-.24.14-.03.27-.27c.03-.07.1-.1.27-.1.1,0,.17,0,.2.03l.07.2.1.07c-.1.31-.27.44-.51.44-.1,0-.27-.03-.58-.1M3.61,2.45l.68-.41.07.03-.27.17-.34.2h-.14ZM11.77,2.01l.17-.03c.48,0,.78.24.95.75l-.24.07h-.14c-.41,0-.71-.17-.92-.48l.17-.31ZM6.12,2.55c-.24-.03-.34-.1-.34-.24,0-.34.31-.51.88-.51.24,0,.55.07.92.2-.14.03-.2.07-.17.07-.03,0-.14,0-.27-.03-.14-.03-.24-.03-.34-.03-.44,0-.65.17-.68.54M17.18,2.21c.85-.41,2.01-.61,3.47-.61,1.12,0,2.04.2,2.82.65l.27.14.34.14-.17.1h-.44c-.37-.24-.78-.41-1.19-.48l1.02.48h-.2c-.07,0-.31-.1-.71-.27l-.07-.1c-.31-.34-.92-.48-1.77-.41l-1.84.17c-.24.03-.44.1-.61.14-.17.03-.34.1-.44.14-.03,0-.14.03-.27.1-.14.03-.2.07-.24.07l-.07-.1.1-.14ZM21.97,1.56l.07-.03c.2-.03.48,0,.78.17.03.03.1.03.24.07.07.03.2.07.37.1.1.03.14.14.17.27l-1.63-.58ZM23.81,1.5c.03.37.14.54.37.54.1,0,.24-.1.48-.34.1-.14.24-.2.48-.2.44,0,.65.24.65.68,0,.34-.27.51-.85.54l.03-.07-.14.03s-.07-.03-.24-.07l-.34-.14v-.1c.17.1.34.14.51.14.48,0,.71-.17.71-.48,0-.24-.14-.37-.44-.37h-.14l-.14.17c-.1.07-.2.17-.31.34l-.1.07c-.51,0-.75-.17-.75-.48,0-.1.07-.2.2-.27M3.67,1.5c-.71.58-1.29.88-1.7.88-.44,0-.68-.2-.68-.61l.31-.48-.07.51.31.17c.07.03.2.03.41.03.1,0,.48-.14,1.09-.37l.14-.07s.1-.03.2-.07M13.3,2.52v-.48c0-.41.17-.61.54-.61.17,0,.27.14.27.41,0,.2-.07.37-.24.51l-.41.27-.03-.07-.14-.03ZM17.35,1.5l.07-.1c.17,0,.24.1.24.27s-.2.27-.61.37c.2-.17.31-.34.31-.54M15.51,1.8c.1-.31.24-.44.48-.44.31,0,.48.24.51.71h.14l-.1.03c.17,0,.31.03.37.1l.03.03v.03l-.1.2-.17.2c-.24.1-.44.2-.54.27l-.2.1c0,.1.07.14.24.14h.07c.31-.27.54-.41.78-.41.27,0,.51.14.71.41l-.17.14c.17.17.27.31.27.41s-.03.2-.1.37h-.07l-.07-.24c-.2-.2-.37-.31-.54-.31l-.88.2c-.17.03-.31.07-.34.07-.17,0-.34-.1-.51-.34l-.07-.1-.1-.17.03-.17.07-.27.58-.41.17-.2v-.17c0-.17-.1-.24-.31-.24l-.17.03ZM12.21,1.53l.34-.17c.1,0,.24.07.41.2.1.1.14.17.14.24l.07.44v.07c0,.1-.03.14-.14.14s-.17-.07-.24-.2c-.41-.31-.61-.48-.61-.58l.03-.14ZM10,2.18c.1-.54.38-.82.85-.82.17,0,.37.1.54.27l-.03.07c-.17-.1-.27-.14-.37-.14-.14,0-.27.1-.37.27-.1.2-.17.37-.17.51s.03.27.1.41l.68,1.5c.24.44.34,1.02.34,1.8,0,.71-.07,1.09-.2,1.09s-.2,0-.24-.03l.03-.51.03-.2v-.17c0-.31-.14-.78-.37-1.5l-.24-.41-.1-.14-.17-.24-.03-.07-.14-.17c-.1-.07-.17-.14-.27-.2l-.2-.17-.68-.24s-.17-.03-.37-.03c-.68,0-1.02.24-1.02.71,0,.34.17.51.51.51.14,0,.24-.07.27-.17l.14-.31.03.17c0,.07-.07.17-.17.27-.1.1-.17.17-.2.17l-.17-.03-.27.03-.41-.34-.03-.14-.07-.07c0-.31.1-.58.27-.82l-.03-.07c-.17-.03-.24-.07-.24-.14,0-.17.1-.31.31-.48.2-.14.37-.2.54-.2s.44.07.78.17c.34.1.58.24.71.41.24.31.37.44.44.44.1,0,.17-.03.17-.14,0-.03-.17-.17-.55-.44l-.1-.1v-.1l-.03-.14c.03-.17.1-.27.14-.31.07,0,.17.07.27.2h.1ZM2.82,2.38l.34-.24.61-.31.24-.14c.44-.24,1.02-.34,1.74-.34s1.33.07,1.77.2l.58.2.27.1.03.07.03.03h-.61l-1.39-.37s-.2-.03-.44-.03c-1.19,0-1.97.2-2.41.61-.14.14-.24.2-.24.24l-.14.03s-.14-.03-.37-.07M9.18,2.18c-.27-.1-.41-.27-.41-.54,0-.24.07-.34.24-.34l.07.07.07.03-.07.37.1.24v.17ZM.82,26.39h25.54V.85H.82v25.54ZM.41.41h26.39v26.39H.41V.41ZM0,27.21h27.21V0H0v27.21Z" fill="#231f20"/>
    </g>
  </g>
</svg>