<?xml version="1.0" encoding="UTF-8"?>
<svg id="Layer_1" xmlns="http://www.w3.org/2000/svg" width="27.21" height="27.21" xmlns:xlink="http://www.w3.org/1999/xlink" viewBox="0 0 27.21 27.21">
  <defs>
    <clipPath id="clippath">
      <rect width="27.21" height="27.21" fill="none"/>
    </clipPath>
    <clipPath id="clippath-1">
      <rect y="0" width="27.21" height="27.21" fill="none"/>
    </clipPath>
  </defs>
  <g clip-path="url(#clippath)">
    <g clip-path="url(#clippath-1)">
      <path d="M7.59,25.24l-.14.34.27-.24-.14-.1ZM7.14,25.41h.17l.03-.1c.07,0,.1-.07.1-.2l-.07-.07h-.1l-.14.03-.03.17.03.17ZM20.34,24.66l-.14.07-.03.1s.1.1.27.14v-.03l-.07-.07-.03-.2ZM20.71,24.49v.03l-.03.03h-.1l-.03.03.03.2.17.03.03-.07-.07-.27ZM9.76,24.08l.03.14c.03.1.07.17.1.17.1,0,.17-.03.17-.1,0-.1-.1-.17-.31-.2M2.35,23.88h-.1.1l.03-.07c0-.1-.1-.17-.34-.17-.17,0-.24.07-.27.2l.58.03ZM3.67,23.54l-.03.1s.07.1.17.17l-.07.07-.03.07c0,.1.14.2.37.31l.24.24-.07-.41.14.1.07.03.2-.1c-.34-.31-.68-.48-.99-.58M17.96,23.3l-.14-.03c-.07,0-.1.07-.1.2l.03.14.2.03.03.03-.07-.17.03-.2ZM18.6,23.23h-.1c-.1,0-.14.03-.14.1l.03.03v.07l.24.1-.03.07.07-.14-.07-.24ZM9.25,23.16v.31l.1.03h-.1l.1.03v-.1l.03-.31-.14.03ZM17.58,23.16h-.03c-.1,0-.14.07-.14.17l.07.34.17.07-.1-.03.17.03-.03-.14-.07-.07-.03-.37ZM9.52,23.16l.03.44v-.07l.1-.14.07-.1-.1-.14h-.1ZM8.71,23.13h-.03s-.07.07-.07.17v.1c-.03.1-.03.17,0,.17.03.03.1-.07.24-.24l-.14-.2ZM4.39,21.8h-.1s-.03.03-.03.14c0,.03.03.03.14.07v.14l-.1-.1h-.03l-.1.07.24.17.14.2.03-.03.03-.1-.17-.24.24.27.27.03-.17-.17-.14-.1-.14-.17h-.03l-.07-.17ZM23.26,21.43l-.14-.07-.17.37-.03.17-.1.14-.03.1c.17,0,.31-.2.48-.65v-.07ZM2.55,20.48v.07c-.03.41.1.75.41,1.05l-.14-.58v-.17l-.1-.1-.07-.14-.03-.14h-.07ZM23.47,20.58l-.07-.85-.07.68-.17.34-.14.34c-.1.24-.37.61-.88,1.16l.17.03.34-.48.2-.2.27-.37.34-.65ZM3.47,20.17l-.2.07h-.14l-.24-.07-.1.07.17.2.03.03h.24l.14-.07.14-.14-.03-.1ZM2.82,19.66h-.1l-.03.07c0,.17.1.27.31.27.27,0,.41-.1.41-.34l-.03-.07-.14-.03v.1l-.1.14h-.14l-.14-.07-.03-.07ZM24.76,19.39l-.14-.03c-.1,0-.2.07-.34.2l.1.03.03.03s.14-.07.24-.17l.1-.07ZM24.76,18.98l-.55.1.14.17.27-.07c.1-.1.14-.17.14-.2M24.66,18.33l-.1.03c-.17.24-.31.34-.41.34l-.24-.03.1.14c.1.07.17.1.24.1.14,0,.2,0,.24-.03.24-.41.27-.58.17-.54M5.07,17.96c-.44.34-.68.48-.68.41l-.17.31-.17.31-.31.07.24-.34h.03c.1-.1.17-.2.27-.31.1-.1.17-.2.24-.24.24-.2.48-.31.71-.31.31,0,.48,0,.44.03l-.61.07ZM23.03,17.99c-.07.03-.24-.14-.48-.44.03.03.03.14.03.37l.07.07.27.2.17.03-.54-.2-.17-.03-.07.07.24.17.17.14.07.07c.1.14.17.2.24.2l.1-.1-.14-.17-.1-.14.2.03.03-.1-.1-.17ZM4.28,16.8l-.31.68s-.03.1-.07.34v.37l.17-.37.07-.17c.1-.55.17-.82.14-.85M8.77,17.48l-.07.07c.03.17.1.27.2.27.03,0,.03-.07.03-.24,0-.07-.03-.1-.14-.1h-.03ZM2.96,17.35l-.31-.17c0,.14.03.2.07.2l.14.17h.07c.07-.03.1-.03.2-.07.07,0,.14-.1.17-.27l-.34.14ZM20.07,17.35l.31-.03.14-.27-.24.07-.2.24ZM9.22,17.11l-.14-.03-.1.1c0,.17.07.24.2.24v-.07c0-.1,0-.17.03-.24M9.45,16.84l-.24.07.17.24.07-.31ZM2.62,16.8l.1.17c.2.1.31.17.34.14.24-.1.31-.17.27-.24,0-.03-.07-.03-.2-.03l-.17.03-.34-.07ZM9.62,16.26l-.07.24v.17l.2-.24-.14-.17ZM23.81,15.78l.07.34.14.34c.1.17.17.27.2.34.07.1.1.14.14.17v.1l.07.1.14.14.03.03.1.17c0,.31,0,.44.03.48.03,0,.07-.17.14-.48l-.34-.61-.31-.37-.03-.1-.17-.41-.2-.24ZM24.01,15.31c0,.24.07.48.2.61.14.2.31.37.55.54l-.51-.68c-.03-.14-.07-.2-.07-.24l-.03-.2-.14-.03ZM3.4,14.59c.17,0,.24-.1.24-.27l.03-.34v-.1c0-.17-.03-.27-.1-.27-.03,0-.07.14-.07.41v.24c0,.07-.03.17-.1.34M12.04,13.37l-.58-.17c-.34,0-.51.03-.51.1l.41.03h.17s.1.03.2.1l.17-.03.14-.03ZM16.8,12.75l-.27-.1c.2-.1.41-.03.61.17-.1-.1-.17.03-.17.44,0-.24,0-.37-.03-.41l-.14-.1ZM10.61,12.58h-.1c-.1,0-.17.1-.17.31,0,.17.1.27.27.27-.03,0-.03-.1-.03-.34l.03-.14v-.1ZM2.72,8.13l-.54-.2-.1.07c-.14.14-.2.24-.2.31s.03.1.14.14h-.1l.1-.1.17-.27h.17l.37.07ZM14.39,7.96h-.17l-.17.07-.48-.07.1.1c.03.2.17.24.34.14.37-.1.51-.2.37-.24M13.74,7.82h.2c.31.03.48-.07.48-.31v-.14l-.41.24-.44-.07-.03.1.1.14.1.03ZM20.34,7.21c-.07-.03-.1,0-.1.1v.1l.1.07.07.03h.07l.1-.07.03-.14h-.03l-.03-.03c-.07,0-.1-.03-.2-.07M12.41,6.43h-.1c-.07,0-.1.1-.1.27,0,.24.07.54.2.88l.75.65-.61-.95-.1-.27-.03-.58ZM20.24,6.7h-.14l-.07.2c.17.07.27.07.34.03.03-.03.07-.1.03-.2l-.17-.03ZM15.14,6.22l-.14.14c.03.24,0,.48-.1.65-.07.2-.1.31-.1.34l.03.14c.2-.07.31-.27.31-.58l.07-.03-.03.27c-.03.1-.07.2-.17.37-.1.17-.14.24-.14.27l.1.14c.31-.51.44-.92.44-1.22,0-.17,0-.27-.03-.34l-.1.03v.34h-.1l-.03-.51ZM19.86,6.56l.2-.03v-.24l-.1-.07-.07.03-.14.17.1.14ZM14.45,2.96c-.31.24-.48.51-.48.82l.03.65-.03.34.17.31h.14l-.03-.14-.03-.1v-.95c.03.2.07.41.1.54.03.2.1.34.14.44l.2.58-.14-.88-.07-.27.03-.34v-.37l-.14-.03-.17.31.1-.44.17-.44ZM13.06,3.3l.24.85.1.48v.41h.07l.1.07v-.07l-.07-.78-.2-.75-.1-.17-.03-.14-.1-.2-.17-.03.17.34ZM2.01,2.18c.37-.03.54-.1.54-.24l-.03-.03-.07.03-.1.03c-.1.03-.17.07-.2.07l-.14.07v.07ZM17.24,1.63h-.24l-.1-.03h-.03c-.24,0-.41.1-.51.31l.41-.07c.24-.03.41-.1.48-.2M21.5,1.46l-.03.17h.2v-.17h-.17ZM21.16,1.46l-.03.14.1.03.07-.1-.1-.07h-.03ZM22.38,1.43l-.1-.03c-.07,0-.1.03-.1.14l.1.1c.1,0,.17-.03.17-.07l-.07-.1v-.03ZM5.31,1.56l-.2-.17-.1.1-.07.14.14.14.24-.2ZM5.44,1.36l.1.1c.17.07.2.1.14.1l.1-.1c0-.1-.03-.14-.14-.14s-.17,0-.2.03M6.73,1.43c-.03-.1-.1-.14-.2-.14l-.1.07.17.17.14-.1ZM6.26,1.36l-.24-.07v.1c0,.1.07.17.2.17v-.03l.03-.17ZM20.95,25.61c.1,0,.14,0,.17-.03l.17.1.2.1c.07,0,.2-.07.44-.17.24-.1.41-.17.54-.17.37,0,.58.14.58.38,0,.14-.03.2-.14.2h-.07v-.2l-.27-.14c-.07-.03-.31.07-.68.31-.1.1-.27.14-.51.14-.31,0-.58-.1-.82-.34v-.07l.37-.1ZM13.64,25.2c.03-.07.07-.1.17-.1l.07.03.1.1s-.03.1-.1.2l-.17.38-.03.03-.1.03-.37.2h-.1c-.24,0-.34-.07-.34-.2l.07-.14.58-.17c.1-.03.17-.07.2-.17l.03-.2ZM25.17,21.46l.27-.1.14-.03c.14,0,.27.14.37.37v.17c.03.51-.17.82-.65.99v-.1c.17-.17.27-.34.27-.48,0-.03-.03-.1-.14-.2-.07-.1-.14-.14-.2-.14-.1,0-.24.1-.41.27l-.51.58-.41.34,1.16-1.6.1-.07ZM16.09,20.68l.1.03.03.14-.03.03-.03.17-1.16,1.94-.48.85-.2.27c-.34.54-.54.82-.61.82-.03,0-.1-.03-.2-.1l.37-.44,1.8-2.99.41-.71ZM10.58,21.73c-.07.44-.27.65-.61.65-.51,0-.75-.27-.75-.78,0-.31.17-.54.48-.71.31-.17.61-.24.89-.27h.2l-.03.1c-.75.14-1.12.41-1.12.85,0,.27.17.41.48.41.17,0,.31-.07.48-.24M19.76,20.51c.37-.31.68-.44.95-.44.34,0,.51.14.51.44,0,.24-.14.34-.44.37.03-.17.07-.24.07-.17,0-.1,0-.17-.03-.2l-.03-.07c-.17-.03-.27-.07-.24-.07-.1,0-.2.03-.41.07-.14.03-.27.07-.37.07M1.94,19.39l.07.41.14.55.14.54.03.14.03.2-.14-.1-.07-.24-.14-.44-.07-.37v-.68ZM1.6,19.11c.07.07.1.17.1.31v.58l-.03.07s.07.27.17.65c.1.37.24.71.41.99.14.31.27.54.44.78l.2.27c-.27-.14-.51-.37-.68-.68l-.31-.58-.14-.41c-.1-.17-.24-.27-.34-.31l-.07.03-.07.1s.03.07.07.17c.03.1.1.2.17.27.07.14.14.2.17.34l.07.2.03.31c.03.07.03.14.03.24v.1c0,.24-.14.34-.41.34-.24,0-.34-.07-.34-.24l.03-.07c.17.03.27.07.31.07.17,0,.27-.14.27-.37v-.17l-.54-.92-.14-.31v-.24c0-.07.07-.2.17-.37l.34-.2c-.03-.1-.03-.2-.03-.27l-.03-.17c0-.17.03-.34.14-.51M25.78,18.88l.24.07.03.07c0,.24-.07.34-.2.34h-.07c-.1-.07-.14-.17-.14-.27,0-.07.03-.14.14-.2M18.67,18.47l.2-.03c.1,0,.24.07.34.2.1.17.17.27.17.37,0,.61-.41.92-1.22.92-.27,0-.65-.03-1.09-.14l.03-.17c.58.1.88.17.92.17.17,0,.41-.1.72-.27.14-.17.2-.27.2-.37,0-.17-.14-.27-.41-.27-.03,0-.1.03-.24.07l-.2.14-.31.03c-.1-.03-.17-.1-.24-.24v-.07c0-.1.07-.24.17-.34.07.2.17.31.27.31l.1-.03.07-.03.24-.1.27-.14ZM14.66,18.4l.99,1.36.03.07.38.27.41.2.54.31.65.54c.17.24.24.44.24.65v.14c-.03.07-.03.17-.07.27l-.07-.07-.17-.07c-.17.44-.41.68-.68.68-.14,0-.27-.1-.44-.31-.17-.17-.24-.31-.24-.41l.03-.14.03-.2.24-.14-.03.2c0,.24.17.41.48.44l.27-.27v-.24c.03-.24-.07-.44-.31-.68l-.24-.2-.51-.37-.51-.34-.31-.34-.44-.61-.1-.17-.17-.58ZM25.82,17.96c.07,0,.1.03.14.14l.03.07c0,.1-.07.14-.17.14s-.14-.03-.14-.14c0-.14.03-.2.14-.2M25.68,17.31l.07-.14h.03l.1.07-.03.1-.17-.03ZM20.51,16.7l.1.1c.31.24.44.51.41.82l-.03.34c-.44.17-.65.41-.65.71,0,.1.07.27.24.51l.44.31c.17,0,.34-.07.51-.17l.14-.2c.17-.1.27-.17.31-.17l.14.03c.07,0,.14,0,.24.03l.2.17c.1.27.17.44.17.48v.07c-.03.38-.17.61-.41.78l-.95.65c-.17.1-.27.27-.27.48s.17.34.48.41c-.17.1-.31.14-.41.14-.2,0-.31-.14-.31-.41s.1-.51.34-.75l.27-.27c.1-.1.2-.17.31-.27l.27-.2.2-.2.07-.14.03-.17c0-.07-.03-.14-.14-.24l-.37-.07-.75.41-.48-.2-.14-.03s-.07.07-.07.2l-.37-.2-.27-.31c-.1-.17-.14-.34-.14-.54,0-.27.1-.51.34-.75.1-.07.14-.14.14-.17l-.03-.1.03.1-.07-.1-.41.07c.1-.51.41-.89.95-1.12l-.17.07.1-.07ZM13.88,16.7l.27.03.03,3.88-.03.24-.31-.44.03-3.71ZM14.59,16.67h.14l.03.34.07.48c.03.37.17.71.41,1.02l.17.2c.1.1.17.2.24.34l.17.24.17.14.1.07.31.27.1.03c.61.27,1.16.41,1.6.41s.95-.1,1.46-.34l.2-.14h.1c.07,0,.17.1.27.27l-.58.34c-.58.14-1.05.2-1.43.2-.99,0-1.77-.27-2.41-.85l-.14-.17-.31-.37v-.03l-.17-.24v-.03c-.37-.61-.58-1.05-.61-1.33-.03-.17-.03-.34-.07-.44v-.31l.1-.1h.07ZM13.2,16.67h.17c.1-.03.14.07.14.31,0,.41-.1.85-.27,1.36l-.17.31-.07-.03-.07-.07-.03-.2.03-.17c.07-.07.1-.24.2-.44l.07-1.05ZM15.14,17.62c-.03-.1-.1-.2-.14-.34-.03-.1-.07-.27-.07-.44s.03-.27.1-.27c.03,0,.1.2.14.61.03.27.17.41.44.41.1,0,.2-.07.34-.2.03.03.03.14.03.24,0,.2-.14.31-.38.31-.1,0-.24-.07-.41-.24l-.07-.07ZM12.79,16.53l.1.1v.31c0,.38-.1.55-.31.55-.17,0-.31-.14-.44-.38v-.37l.07.07.2.27.14.03s.1,0,.14-.1l.2-.24-.1-.24ZM19.76,15.34l.07.03.37.07.48.27.44.31c.41.37.61.88.61,1.53,0,.27-.14.68-.38,1.26-.14.27-.27.41-.44.41-.1,0-.14-.07-.14-.2v-.03l.17-.31c.2-.41.31-.71.31-.88,0-.31-.1-.65-.31-.95l-.17-.2c-.24-.14-.48-.2-.65-.2-.65,0-.99.31-.99.95,0,.17.07.44.24.75-.07.03-.17.03-.31.03s-.24-.03-.34-.14l-.2-.24c-.1-.17-.14-.34-.14-.51,0-.38.14-.61.44-.78.07-.03.17-.1.31-.2l-.07.03.1-.07-.07-.17c-.03-.17-.07-.27-.07-.24,0-.14.07-.27.24-.44l.48-.07ZM16.53,15.31c.24.07.34.17.34.31,0,.1-.03.24-.14.44-.1.2-.24.31-.41.31l-.14-.03c-.07,0-.14,0-.24-.03l.51-.24c.1-.17.14-.31.14-.41l-.07-.34ZM9.83,15.1c.38.44.54.88.54,1.36,0,.51-.14.89-.41,1.09-.14.1-.2.17-.2.2v.1h.17-.1l.44-.1h.03c.34.24.51.48.51.68,0,.1-.07.17-.2.2-.17-.07-.34-.1-.44-.1-.31,0-.48.14-.48.44,0,.03.03.14.07.37l.24.24.34.1.1.31c-.44-.07-.72-.14-.82-.24-.2-.14-.31-.2-.34-.24h-.14l.14.2.44.31.2.07c.2.1.34.14.41.1h.2c.07,0,.1.03.14.14l-.27.1-.14-.03-.61-.14c-.17-.03-.34-.1-.48-.2-.1-.14-.2-.27-.34-.48-.07-.14-.17-.34-.2-.48-.07-.2-.1-.34-.14-.48l.14-.58-.1-.14c-.14.2-.2.41-.2.65,0,.31.14.78.44,1.36l-.31-.24-.03-.14c-.1-.1-.17-.2-.2-.37l-.1-.31-.2.03.1.37-.1-.07c-.1-.17-.17-.34-.17-.44v-.24l-.2.07c-.1-.1-.17-.27-.17-.48l-.03-.65-.07-.38-.17-.48c-.17-.07-.24-.14-.24-.2,0-.17.14-.24.41-.24h.2c.07.03.17.03.27.07l.44.1-.03.03.1-.24c.24-.24.51-.37.78-.37.34-.1.61-.34.78-.68M15.31,15c.37.17.58.37.58.61,0,.58-.68.88-2.04.88-.78,0-1.33-.24-1.63-.71,0-.24.07-.44.2-.61l.14-.03.1.1-.07.14c0,.1-.03.17-.03.2.03.1.07.17.1.2l.1.07.17.17.2.07.54.1s.2.03.48.03c.37,0,.71-.07.95-.2.17-.1.24-.17.24-.27,0-.07-.03-.14-.07-.24-.03-.1-.07-.17-.07-.2,0-.07.03-.17.1-.31M13.33,14.76h.03c.1,0,.14.03.14.1l-.1.1c-.1,0-.14-.03-.14-.1l.07-.1ZM14.45,14.69l.1.07-.17.14.07-.2ZM12.62,14.32c.48.48.75,1.02.78,1.6-.17-.03-.31-.1-.34-.2-.07-.14-.14-.27-.17-.41l-.14-.27-.14-.24v-.48ZM1.36,13.98l.14.07c-.14.34-.2.65-.2.92,0,.2.03.41.1.61l.34,1.29s.03.14.03.31c0,.51-.14.78-.41.78-.14,0-.24-.1-.31-.34l-.03-.27v-.24l.03.1v-.27l.07-.27.03-.17.1-.03-.1.58-.03.14.03.24.07.07.03.07.07-.03c.21-.03.31-.14.31-.31,0-.14,0-.24-.03-.31-.03-.17-.1-.41-.17-.71-.07-.31-.17-.71-.27-1.19,0-.31.07-.65.2-1.02M6.26,14.15l.51-.2.1-.03.34.14c.41.14.61.41.61.85,0,.54-.24.82-.75.85l-.92.07c-.34.03-.51.2-.48.51l.03.2c-.17-.07-.27-.14-.31-.24v-.27c-.03-.27.07-.41.34-.41l.99-.03c.34-.03.51-.2.51-.51,0-.14-.07-.31-.24-.54-.17-.1-.34-.14-.51-.14-.27,0-.51.1-.75.34-.48.41-.78.78-.95,1.12l-.07.2h-.03l-.17.07.24-.51.41-.61.27-.34c.27-.24.54-.41.82-.51M15.58,13.71v.37l-.44.68-.2.48c-.1.17-.14.34-.14.44v.1c0,.1-.03.14-.14.14h-.2l.27-1.05c.03-.17.17-.34.34-.58.07-.1.1-.14.17-.2l.03-.03.31-.34ZM19.76,14.25c.07-.2.2-.38.44-.48.2-.1.41-.17.65-.17.2,0,.44.07.75.17.58.2,1.12.75,1.63,1.67.14.14.2.31.2.48l-.2-.2-.14-.24-.2-.27-.14-.17-.07-.1-.2-.24c-.51-.37-.99-.58-1.36-.58-.51,0-.75.17-.75.48,0,.34.14.51.44.51.1,0,.27-.03.54-.14.2-.07.38-.1.48-.1.51,0,.75.24.75.71,0,.37-.2.58-.65.58-.1,0-.2-.07-.27-.17h.14c.27,0,.41-.2.41-.61-.1-.14-.27-.2-.44-.2-.1,0-.27.03-.51.07-.27.14-.44.2-.48.2-.27,0-.51-.14-.71-.41l-.1-.2.07-.37-.31-.07.03-.14ZM17.75,13.54l-.07.27c-.17.44-.37.68-.58.68h-.07c.14-.41.31-.68.51-.78l.2-.17ZM14.35,13.67l.07-.34.03-.03s.07.07.1.2c0,.14.03.2.1.2l.51-.03-.14.2c-.17.07-.31.1-.41.1s-.2-.1-.27-.31M4.73,13.2l.03.03-.2.2-.17.14.34-.37ZM13.16,12.92c.14.14.2.27.2.37,0,.31-.14.44-.41.44-.1,0-.17,0-.2-.03-.14-.1-.24-.27-.31-.48.17.1.31.14.41.14.2,0,.31-.14.31-.41v-.03ZM4.93,14.29c.37-.51.82-.85,1.33-1.09l.44-.17c.14-.07.24-.1.27-.1.14,0,.24.17.31.48-.31.07-.58.14-.82.2-.2.07-.41.17-.54.27-.2.14-.34.31-.51.48s-.34.41-.51.68l-.37.54c-.14.24-.2.44-.2.54l.03.14-.2.14-.17.1-.07-.1c0-.1.03-.27.14-.44l.41-.99c.1-.31.27-.54.48-.68M21.67,13.5c-.24-.17-.41-.27-.58-.31-.51-.17-.75-.27-.75-.37,0-.17.07-.24.2-.24.07,0,.17.03.31.1l.2.14.27.1.48.27.51.31.44.37.68.89.03.17c0,.14-.03.24-.07.27l-.1-.07-.14-.1v-.07l-.51-.68-.27-.31-.51-.37-.2-.1ZM25.44,13.06c-.1-.07-.2-.1-.27-.1-.37,0-.58.41-.58,1.19,0,.27.03.51.1.75l.37,1.36c.24.78.34,1.56.34,2.38v.2l-.07.31-.07.65-.03.24c-.14.78-.44,1.46-.92,2.11l-.34.48-.37.41h-.17l.27-.38-.14-.03-.24.1c-.14.1-.2.2-.31.27l-.24.31c-.1.1-.17.14-.2.17-1.12.58-1.7.92-1.7,1.02s.07.17.2.17c.24,0,.61-.2,1.12-.58.03-.03.1-.14.27-.31l.31.1.2-.1-.1-.03.34-.1.03-.1-.2-.07c0-.14.07-.2.14-.24.14-.03.2-.03.27-.03-.03,0,.07.03.24.07.03.03.03.1.03.2v.17l.1.03.24-.17.34-.1c.17-.03.27-.07.24-.07h.27l.51.27c.17.1.24.17.24.2s-.07.1-.17.2l-.2.1-.03.14v.03c.2.14.37.31.48.51.1.2.17.37.17.48,0,.14,0,.24-.03.31h-.1l-.34-.27c-.14.1-.2.24-.24.41-.31.2-.58.31-.75.31-.27,0-.65-.2-1.16-.65l-.24-.37c.24-.03.34-.07.31-.07.14,0,.31.14.48.37l.1.07.17.1c.14.07.24.1.34.1.31,0,.48-.1.48-.27,0-.1-.07-.24-.2-.41-.38-.17-.75-.24-1.05-.24-.44,0-.88.07-1.26.24l-1.06.41-.41.1c-.14.03-.37.1-.68.14l-.14.03-.24.03-1.67.1-.07.31c-.75-.38-1.53-.58-2.35-.54l-1.02.03c.27-.41.61-.61,1.06-.65l.34.14c-.17.03-.38.1-.55.24l.38-.03c.44-.03.65-.03.65-.07l.31.07.71.03h.17l-.03-.1c-.07-.03-.17-.03-.27-.03h-.17c-1.46-.1-2.21-.61-2.21-1.53,0-.58.27-.89.82-.89.48,0,.71.27.71.85,0,.1-.07.17-.2.27l-.07-.37c-.17-.1-.34-.17-.44-.17-.2,0-.31.14-.31.37,0,.1.07.27.24.51l.14.2.27.2.58.17h.37l.1-.58c-.17.03-.27.1-.27.17,0,.14,0,.24.03.27l-.07-.03v-.24c-.03-.2,0-.31.14-.31h.07l.14.07.07.1.31.1v.2l.07.2.34.07h.24l.03-.31.41-.07.48-.27v-.07l-.44.03-.27.07c-.24.03-.37.07-.41.07-.44,0-.75-.17-.92-.51v-.31c-.03-.1.03-.24.17-.37.14-.14.27-.24.44-.34.17-.03.31-.07.44-.1.17-.03.31-.1.41-.14l.14-.07.14-.07h.07c.24-.24.41-.51.44-.78l-.1-.34c-.27-.1-.44-.17-.48-.17-.34,0-.51.17-.51.54.03.03.1.14.2.37-.37-.03-.54-.17-.54-.48,0-.14.07-.31.24-.54.24-.17.41-.24.55-.24.2,0,.37.03.54.14l.48.27c.1-.17.17-.24.24-.24.1.1.14.17.17.2l.03.37c-.07.31-.24.61-.48.92v.1l.31-.07.14-.07-.14.37c-.07.17-.41.34-.99.44l-.17.07c-.1,0-.17.03-.27.07,0,.17.07.27.17.27s.27-.03.51-.1l.68-.17c.1-.03.2-.07.31-.14l.44-.2.37-.17.89-.68.65-.92c.24-.37.37-.78.37-1.16,0-.24-.1-.58-.27-1.02l-.14-.17-.44-.41c-.14-.1-.24-.2-.34-.31v-.54c0-.24-.03-.48-.14-.78l-.1-.24.24.03.07.03.2.07.17.1.1-.1-.03-.24c0-.1.03-.2.1-.34l.1-.07.27.41c.17.17.34.34.51.44.14.1.24.27.34.44l.17.34-.03.68.1.1c.17,0,.31-.14.41-.44,0-.31-.07-.54-.24-.71v-.14l-.1-.17-.2-.41-.1-.2c-.14-.37-.2-.68-.2-.99s.1-.61.27-.85l.1.07.17-.03-.1-.41c-.03-.1-.03-.2-.03-.31-.03-.1-.03-.17-.03-.27,0-.27.07-.51.2-.68l.03-.07.07.03.2.07.17-.2c.07-.07.14-.14.17-.24l.68-.03c.24.17.37.37.37.58l-.03.14-.51,1.33c-.03.1-.03.2-.03.34-.03.07-.03.2-.03.31,0,.44.17.68.48.71l.07-.03.1-.14c0-.07-.03-.17-.1-.27l-.03-.17.07-.31.14.37.1.2s.03.1.03.24c0,.37-.14.54-.37.54-.1,0-.2-.07-.34-.2l-.2-.34c-.07-.24-.1-.41-.1-.58,0-.37.07-.82.24-1.26.1-.2.14-.37.14-.51,0-.17,0-.27-.03-.34M25.44,20.34c.03-.44.14-.65.37-.65.1,0,.17.03.17.14,0,.03-.03.1-.1.2l-.37.68-.2.27-.03-.1-.03-.1c0-.1.07-.24.2-.44M4.05,12.38c.27,0,.41.03.41.14,0,.2-.07.31-.2.31-.17,0-.27-.14-.27-.37l.03-.07h.03ZM20.61,12.28l.31.14.24.14.1.03.48.37h-.07l-1.12-.51.07-.17ZM13.57,12.31l.24.07.24-.1.1.03v3.67s-.07.03-.17.03c-.17,0-.27-.03-.27-.14l-.14-3.57ZM2.52,12.11l.31.37.24.82s.03.07.14.1h.03c.1,0,.2-.14.27-.44.2.34.31.65.31.92,0,.2-.03.41-.1.65l-.1.37-.65,1.12c-.03.17-.07.27-.07.31,0,.14,0,.24.03.31.03.03.07.03.17.03.07,0,.1-.07.14-.27.03-.14.1-.31.24-.41h.07v.07s.03.14.07.24l.03.17c0,.61-.07,1.09-.24,1.4l-.54,1.29v.34l.2.07c.1,0,.24-.2.34-.58l.1-.48c.2-.99.48-1.63.82-1.94l.41-.24c.14.03.2.24.2.54v.2c0,.14,0,.24-.03.31l.03.03c.17-.1.34-.2.48-.34.03-.03.14-.03.34-.03h.03l.1.03.37.14.51.03v.03c0,.2-.1.37-.31.51v.14l.31.24c.24.24.37.48.34.71l-.03.48c-.03.17-.1.27-.2.31v-.2l-.27.07c-.07.38-.24.54-.48.54h-.54c-.37-.03-.54.24-.54.78,0,.31.14.51.44.61.1,0,.2-.03.24-.1l.07-.17c0-.1,0-.17-.03-.2.17.1.24.2.24.34,0,.17-.14.34-.44.51-.41-.03-.71-.27-.88-.71l-.03-.14c-.03-.07-.03-.14-.03-.24v-.24c0-.07.07-.24.17-.51l.24-.31.2-.2.58-.17.2-.31c.1-.17.17-.31.17-.34,0-.14-.1-.31-.31-.48-.07-.03-.17-.03-.34-.03-.41,0-.75.17-1.05.54-.31.34-.44.78-.44,1.29,0,.58.27,1.29.78,2.14l.61.54.27.21.75.37.37.14.34.03.31.1h.24c.1,0,.24,0,.41-.03.2-.03.31-.1.31-.24,0-.1-.07-.17-.2-.14h-.17l-.58.1h-.03c-.31.03-.65-.17-.95-.55l-.03-.1-.1-.14-.03-.14.07-.03c.14,0,.24,0,.31.03l.03-.1-.1-.1-.17-.34-.1-.31v-.61l.51.24.17-.07-.03-.27c0-.1.14-.34.38-.65.31-.1.48-.17.54-.17.24,0,.48.07.68.27.27.14.37.34.37.54,0,.44-.24.75-.75.95v-.1c.17-.1.24-.24.27-.41,0-.1-.07-.27-.2-.48-.1-.03-.2-.03-.27-.03l-.14-.03c-.34,0-.51.2-.51.61,0,.27.1.54.31.85l.24.2.44.2.34.14.1.07.58.2c.34.1.51.27.51.44,0,.37-.37.61-1.09.75l-.34.07-.68.03.07.14h1.05l-.1.14-.03.07s.07.07.17.1c.31-.03.48-.24.54-.65l.14-.03h.24c.24-.03.34.03.34.2s-.07.27-.24.34c-.24.1-.34.17-.34.2,0,.07.03.1.14.1s.14,0,.17-.03l.34-.14.14-.03c.31-.14.65-.41.99-.78.1-.17.14-.27.14-.37,0-.31-.2-.48-.58-.48-.17,0-.31.1-.41.34-.03-.03-.03-.07-.03-.17,0-.44.31-.65.88-.65.31,0,.51.2.61.65v.31c.03.82-.71,1.36-2.18,1.67l-.03.1c.38-.07.65-.1.89-.1h.31c.17,0,.31,0,.41.03l.61-.03-.03-.1-.92-.07.03-.03c.17-.1.31-.17.41-.17.41,0,.75.2,1.02.65h-.34c.1,0,.07,0-.07-.03-.14,0-.37,0-.75-.03h-.27c-.2,0-.44.03-.75.1-.51.1-.78.17-.85.2l-.27.17-.37.14.03-.17-.1-.07-1.56.1h-.1c-.51,0-.88-.03-1.19-.14l-1.05-.34-.92-.41-.37-.14-.44-.2h-.07s-.14.03-.31.07l-.41.1c-.1.03-.17.1-.27.14l-.17.2v.17c-.03.14,0,.24.17.34h.48l.14-.07c.31-.1.48-.2.58-.24.1-.03.17-.07.24-.07.27,0,.61.07,1.02.2.31.14.48.27.48.44,0,.1-.07.17-.2.2h-.41l-.41-.17-.37-.03.27-.14.58.1.14-.17v-.07c-.31-.14-.61-.2-.88-.2-.17,0-.27.03-.37.1l-.71.44c-.1.1-.24.14-.41.1h-.34c-.37-.24-.54-.34-.54-.38v-.03l.07-.17v-.07c0-.07-.07-.14-.2-.17v-.2l.07-.24c.03-.17.14-.31.31-.41-.1-.2-.21-.37-.31-.48v-.03c.14-.24.41-.34.82-.34.14,0,.41.07.82.2l.24.1c-.03-.17-.1-.37-.24-.54.17-.03.27-.07.24-.07.1,0,.24.03.37.03.2.07.31.07.37.07l.41.2.1.14.48.44.17.24.37.37.41.24.34.17.17.07c.24.03.34.07.31.07.1,0,.2-.03.31-.1l-.03.03c-.03-.17-.17-.24-.34-.27-.54-.03-.95-.24-1.26-.58l-.27-.31c-.65-.54-.99-.82-1.02-.82-.24,0-.44-.1-.58-.24-.1-.2-.27-.38-.44-.55l-.41-.58-.17-.37-.03-.14h.03l.2-.03-.1-.27c-.2-.44-.31-.99-.31-1.63v-.34l-.27.24v-.78l.2-1.8.17-.85.07-.34.2-.92.07-1.12-.17-.58-.03-.07-.03-.1.14-.65ZM3.47,11.97l.03-.03c.1,0,.17.07.17.24s-.07.27-.2.27c-.17,0-.24-.07-.24-.24,0-.14.07-.2.24-.24M1.05,12.69c.07-.14.1-.2.14-.24.14-.37.31-.54.51-.54h.1l.03.41-.44.31-.03.34c.1.24.27.44.51.58.24.17.34.37.34.61v.31c0,.1,0,.2-.03.31,0,.1,0,.17-.03.27l-.17.48c-.07.2-.17.34-.27.37v-.24l.2-.54v-.24l.07-.2v-.07c0-.1-.03-.24-.1-.41l-.17-.27-.48-.44c-.14-.14-.2-.31-.17-.51v-.27ZM8.98,11.77l1.12,2.62.92,1.87.48.99,1.56,3.06.54.95.2.41.14.07.1.07s.1-.07.2-.17c.1-.17.31-.54.61-1.16.03-.07.1-.14.14-.27.03-.07.1-.2.14-.31l.44.41.27.17.07.14-2.04,3.5c-.24.37-.41.58-.51.58s-.17-.1-.27-.34l-2.93-5.48.07-.14.2.07c.07.14.14.2.17.2l.14-.03c.2-.24.31-.41.31-.58,0-.07-.07-.24-.17-.54-.1-.07-.2-.14-.27-.17l-.24-.17s.03-.17.1-.38c.1-.24.14-.41.14-.54,0-.44-.07-.82-.24-1.12l-.17-.31-.14-.17c-.14-.17-.24-.24-.31-.24s-.14.1-.2.27c-.03.14-.1.24-.1.31l-.07.1s-.14.03-.34.07c-.24.07-.34.1-.37.1-.1,0-.17-.1-.27-.31l-.44-.99-.17-.44c-.1-.27-.2-.51-.31-.68-.1-.17-.17-.34-.27-.44l.92-.48c.31-.17.58-.34.85-.51M9.25,11.56l2.89,6.09,1.9,3.64.07.03-.1.24-.17-.2-.51-.95-.07-.07-.24-.48c-.1-.17-.17-.34-.24-.48-.03-.1-.1-.2-.14-.27l-.27-.48-.17-.37-.14-.2-.34-.71-.2-.38-.37-.75-.65-1.36-.03-.14-.1-.2-.17-.34-.31-.65-.1-.31-.14-.27-.37-.88-.07-.17c-.03-.14-.07-.2-.07-.17l.1-.17ZM2.82,11.56l.2.2.03.07c0,.1-.07.17-.17.17-.14,0-.2-.1-.2-.27,0-.1.03-.14.14-.17M20.95,11.43l.44.31.51.44.14.1.51.48.24.24c.24.24.48.51.65.82.03.17.07.24.07.17l.1.17.07.1v.07c0,.07-.03.1-.14.1-.07,0-.14-.1-.17-.27l-.07-.03-.1-.17-.41-.51-.34-.34-.24-.24-.24-.2-.24-.24-.34-.27c-.37-.31-.54-.44-.54-.41,0-.07.03-.17.1-.31M3.4,11.12c.2,0,.31.1.31.34,0,.17-.1.24-.27.24-.2,0-.31-.1-.31-.27,0-.2.1-.31.27-.31M12.11,11.05c.31.14.48.34.48.58,0,.17-.1.37-.31.58v.1c.31,0,.44.03.44.1,0,.1-.07.17-.27.27-.14.1-.31.14-.41.14h-.14l-.78-.17c-.27-.03-.41.07-.41.31,0,.14.07.2.17.2l.03-.03c.24-.03.37-.07.44-.1h.14c.44-.03.71.2.88.68h-.34l.03.07.27.31.03.31.03.17-.07.1-.31-.03v.61l-.03.07c-.07.1-.2.14-.41.14-.24,0-.34-.1-.37-.31l-.03-.34.03-.27-.07-.27.07.07c.07.44.2.68.44.68.2,0,.27-.14.24-.37v-.17l-.17-.27-.31-.41-.1-.03c-.24-.14-.41-.24-.51-.27-.24-.03-.41-.1-.51-.2l-.38-.92.41-.03h.31c.41,0,.78-.07,1.09-.24l.2-.2c.07-.07.14-.14.17-.24.03-.03.03-.14.03-.27s0-.24-.03-.31M5.48,11.39c.07-.24.2-.34.37-.34.31,0,.48.17.48.48,0,.44-.37.88-1.16,1.39-.1.03-.2.07-.31.17l.24-.24c.1-.07.17-.14.27-.2.41-.34.61-.68.61-1.02l-.03-.1c-.1-.1-.2-.17-.27-.17-.1,0-.17,0-.2.03M3.91,11.12l.03-.07c.2,0,.31.1.31.27,0,.1-.03.17-.14.17s-.17-.14-.2-.37M10.17,11.33c.03-.17.1-.27.2-.27h.03l.24.38s.14.07.27.07c.24,0,.37-.03.44-.14l.27-.24c.03-.07.1-.1.24-.1l.1.07-.27.14-.31.34-.34.27-.07.07-.1.03-.1-.03c-.37-.17-.58-.34-.61-.58M15.78,10.85c.24.14.34.27.34.37,0,.31-.1.48-.27.51l-.48.1c-.2.07-.31.2-.31.44,0,.31.17.44.48.44.14,0,.34-.1.65-.34.24-.17.44-.27.61-.27.24,0,.37.07.37.24,0,.07-.03.14-.1.24l.48-.07.88-.1-.1.27-.92.24v.31c0,.1-.03.17-.1.2l-.51.37c-.31.17-.44.38-.44.68,0,.1.07.27.2.51-.41-.03-.61-.2-.61-.54,0-.07.03-.24.1-.48l-.2-.03c.07-.24.2-.41.41-.51.34-.1.51-.2.51-.37s-.07-.24-.24-.24c-.1,0-.17.03-.24.1l-.41.37c-.1.07-.24.1-.34.1l-.34-.07-.14-.03.14-.34c-.17-.03-.31-.1-.41-.24l-.1-.2.03-.1c.03-.24.14-.44.27-.58.17-.1.37-.2.51-.34.2-.1.27-.31.27-.54v-.1ZM1.12,11.02c.17-.17.31-.24.41-.24.51,0,.78.37.78,1.09l-.03.17-.2.78c-.03.24-.14.34-.31.34l.07-.24c.17-.31.24-.61.24-.99v-.2l-.14-.34c-.07-.21-.17-.31-.34-.31s-.24.03-.27.1l-.1.34-.14-.03h.1-.07c-.07,0-.1-.03-.1-.14s.03-.21.1-.34M3.1,10.85c-.14.24-.24.37-.34.37-.14,0-.2-.1-.2-.31,0-.17.07-.27.24-.27h.07l.03.03.2.17ZM24.59,10.58l.14-.03c.1,0,.14.1.14.31,0,.1-.07.27-.17.55-.27.44-.61.68-1.02.68s-.71-.17-.95-.54c-.1-.17-.14-.31-.1-.48v-.27l.31.51c.27.34.54.51.85.51.17,0,.37-.14.61-.41.14-.24.2-.41.2-.58v-.24ZM3.4,10.37h.03c.2,0,.31.1.31.31,0,.1-.07.17-.2.17-.17,0-.27-.1-.27-.27l.03-.07.03-.07.07-.07ZM9.69,10.31l.38.07c-.55.92-1.53,1.63-2.96,2.18l-.99.34c-.1.03-.27.17-.54.41l-.44.34c-.37.31-.78.92-1.19,1.8l-.17.34-.27-.07c.1-.37.31-.78.58-1.19.03-.03.1-.1.14-.24.03-.07.1-.2.2-.38l.27-.24c.58-.54,1.29-1.02,2.14-1.43l.78-.34c.14-.1.24-.14.34-.17.24-.1.44-.24.68-.41.2-.17.41-.34.61-.54l.27-.27.17-.2ZM17.31,10.34l.17-.17.24-.03c.61-.03.92.2.92.68,0,.14-.1.27-.27.41l.03-.2c0-.1-.03-.2-.14-.37-.31-.1-.44-.17-.48-.17-.37,0-.58.17-.58.54,0,.2.1.41.27.61.2.17.41.27.61.27.31.03.48.1.48.17s-.07.1-.17.1c-.92,0-1.5-.27-1.73-.85l-.03-.2.27-.07-.03-.07v-.31l.31-.17.14-.17ZM24.05,10.24h.07c.17,0,.31-.03.44-.1.1-.1.2-.14.24-.17h.07c.1,0,.14.07.14.17,0,.24-.34.34-1.02.37l.07-.27ZM23.54,10.07c.2-.24.37-.34.54-.34.07,0,.2.07.38.17l-.17.1c-.37.1-.58.31-.58.58v.34l.24.58-.2.1-.14-.1-.07-.17-.07-.14-.03-.03s-.03-.14-.03-.34c0-.31.03-.58.14-.75M18.81,9.66l.07.1.17.17.1.07c.17.1.24.17.24.27,0,.03-.03.1-.1.27h-.03s-.1-.03-.2-.1c-.34-.24-.51-.41-.51-.51,0-.03.1-.14.27-.27M3.37,9.56c.17.03.27.07.34.1.31.1.51.17.71.27l.34.17c.24.2.37.54.37.99,0,.68-.27,1.02-.82,1.02-.04,0-.17-.07-.44-.17l.1-.1.24.03c.48.03.72-.24.72-.82,0-.44-.14-.75-.44-.88l-.92-.44-.2-.17ZM22.21,11.87l-.54-.82-.1-.58v-.07c0-.58.27-.85.82-.85.2,0,.48.1.78.27.17.1.24.17.24.2,0,.07-.03.14-.14.24-.27-.27-.54-.41-.82-.41-.37,0-.58.17-.58.48,0,.51.17.92.51,1.29.1.1.17.17.2.27l.51.65.1.14.1.1c.24.31.41.61.48.92l-.03.31-.1-.24-.07-.14-.24-.37-.31-.37-.82-1.02ZM18.94,9.39c.1.1.2.2.31.27l.27.27v.03l-.07.1-.07-.1-.41-.34-.03-.24ZM3.23,9.18l.03-.03c.1.03.17.03.27.07l.17.07h.34c.14,0,.34.03.58.14.2.03.41.03.58,0h.41l.07.31c-.07.03-.14.03-.24.03h-.14c-.78,0-1.5-.2-2.08-.58M20.34,11.73l1.05-2.65.07-.07.07-.03.03.03.07.03v.07s-.03.03-.07.17l-.61,1.6-.58,1.43c-.17.31-.31.61-.37.82-.14.27-.2.44-.31.61l-1.29,2.72-.44.82-.17.44-.51,1.02c-.14.31-.27.54-.37.75-.03.1-.1.17-.14.17-.1,0-.14,0-.17-.03l3.74-7.89ZM24.35,9.05c.03-.1.1-.17.17-.17.03,0,.17.14.44.44l.2.24c.41.44.61.92.61,1.43,0,.31-.07.58-.27.85-.14.2-.34.34-.58.34h-.2c-.17,0-.27-.03-.27-.14l.07-.14.03-.03.37-.03.17-.03c.31-.17.44-.44.44-.82,0-.24-.1-.54-.31-.88l-.1-.17-.31-.31-.14-.17-.34-.41ZM15.78,18.88s-.03-.14-.03-.27c0-.1.07-.27.2-.51,1.09-1.74,2.52-4.83,4.32-9.35.17.03.31.03.41.07.14.03.27.07.37.1l.2.07-.95,2.41-.54,1.26-.99,2.01-.68,1.43-1.39,2.93-.2.44-.03.03c-.1,0-.24-.1-.41-.34l-.27-.27ZM14.73,8.95l-.1-.17.1-.1s.1.07.2.17c.24.31.37.71.41,1.26v.03c0,.1-.03.24-.1.41l-.17-.14-.1-.1-.2-.17.07.44s.03.1.03.2c0,.71-.37,1.16-1.09,1.33l-.07-.31-.07-.17-.07-.03-.2-.24-.48-.27-.14-.14-.1-.41c.03-.17.07-.27.07-.24l-.1-.07-.17.1-.14.07-.14-.1-.1-.31c0-.78.2-1.16.61-1.16.1,0,.14,0,.17.03l.27.03.34.03-.24.03c.17.17.31.37.34.61l.1.03v-.34c0-.17,0-.27-.03-.34l.17.14c.14.31.2.61.17.88v.51l.07.03.1.03.03-.03c.03-.1.03-.2.03-.31v-.54l-.14-.34c0-.14-.03-.2-.07-.24v-.17l.1.07h.03c.07.07.14.2.24.44h.03l-.03-.24v-.1l-.03-.24.07-.03c.07.17.17.31.27.37l.03-.17v-.07ZM10.41,8.43c.31-.17.54-.24.78-.24.37,0,.75.07,1.05.2l.1.14-.41.1-.27.14-.2.1-.31.24.14.1c.44-.31.78-.48.99-.51l.1.07c-.31.24-.51.44-.54.58l-.31.75c-.14.34-.34.51-.58.51h-.07l-.27-.07.14-.27v-.17h-.48c-.27,0-.55-.07-.82-.24-.27-.14-.48-.27-.58-.44l-.03-.14c.07.03.2.03.44.03.03,0,.17-.03.34-.07l.31-.07.34-.03.1-.17-.07-.07-.14-.03-.17-.14c.1-.14.24-.24.41-.31M17.75,8.23l.03-.1.14.1.2.38.1.31.1.17c-.24-.03-.41-.14-.51-.24l-.07-.14-.17-.44.17-.03ZM23.54,8.88c.44-.17.78-.34.99-.51l.34-.24v.1s-.07.1-.17.2l-.27.17-.75.44-.1.17.1.2c.1.07.14.14.14.17,0,.07-.1.1-.27.1-.31,0-.48-.1-.48-.34,0-.2.17-.37.48-.48M16.09,7.92l.51.1h.14l.34.17c.1.03.17.1.2.14,0,.03-.07.1-.17.17l-.03.1.14.17.2.14c.44.27.85.41,1.26.41-.1.37-.44.58-.95.58-.03,0-.1,0-.24-.03-.07,0-.24,0-.41-.03.03.17.07.27.07.31,0,.24-.24.37-.68.37-.37,0-.58-.07-.65-.17l-.14-.24-.1-.07-.17-.75s-.03-.1-.1-.24c0-.07-.07-.2-.17-.37l.1.03c.1,0,.14-.03.14-.07,0-.14-.1-.17-.27-.14h-.03v-.1h.34l.17.03.51.1-.03-.14-.72-.17.03-.14.41.03v-.17l.31-.03ZM18.37,8.64c-.1-.17-.14-.34-.14-.51,0-.31.17-.48.51-.48l.2.07-.03.1c-.31.03-.48.17-.48.37,0,.14.1.41.31.85h-.07c-.1,0-.17-.07-.2-.24l-.1-.17ZM21.5,7.21c.34.31.82.51,1.43.61h.37l.31-.07c.2-.03.51-.14.89-.24.14-.14.27-.2.41-.2l.03.03c.1.03.17.17.17.37-.03.03-.1.07-.2.1-.82.24-1.26.37-1.36.37-.58,0-1.12-.17-1.7-.54-.14-.1-.24-.24-.27-.34l-.07-.1ZM8.71,6.87l.58.27.85.2h.37c.2,0,.48.07.78.14.31.14.48.2.48.24l-.03.1-.54-.1.44.2h.1l.17.1-.78-.03c-.24,0-.34,0-.37.03l-.89.41c-.1.07-.24.1-.41.1-.44,0-.65-.07-.65-.24,0-.07.07-.14.2-.2l.41-.2-.07-.07c-.2-.07-.41-.27-.61-.61l-.03-.34ZM24.45,6.73l.48.07.37.24.14.14c.27.31.41.71.41,1.22,0,.38-.1.75-.34,1.19l-.2-.17.03-.14c.17-.24.24-.48.27-.78l-.2-.85-.03-.1c-.2-.34-.48-.51-.82-.51-.31,0-.55.17-.65.48h-.24c.07-.41.34-.68.78-.78M7.28,6.43l.2.48.14.44,1.36,3.33-.2.14-.58-1.22-1.12-2.89.14-.2.07-.07ZM15.99,6.43c.03-.31.14-.44.31-.44.1,0,.2.03.24.07.24.14.37.34.37.61l-.1.14-.1-.17c-.1-.17-.24-.27-.37-.27l-.34.07ZM18.54,5.88c.03.1.03.2.03.27l.03.17c0,.2-.14.44-.44.75v.1l.17-.03.17.07c0,.07-.07.17-.24.34-.31.34-.58.51-.78.51-.14,0-.2,0-.24-.03l-.37-.17c-.1-.03-.24-.07-.41-.1l-.41-.07.44-.27.03-.07-.85.27c.24-.24.58-.44.95-.54l.24-.07c.27-.14.48-.24.61-.27.17-.03.31-.14.44-.27l.24-.14.37-.44ZM7.18,6.05h-.03c-.1-.03-.17-.1-.17-.14v-.1l.2.24ZM6.97,5c.92.03,1.46.58,1.7,1.6-.17.03-.27.1-.27.17,0,.1.03.2.1.37.03.17.07.31.07.41,0,.17-.07.44-.24.75h-.07l-.14-.31v-.2l.17-.88-.1-.58-.07-.24-.2-.24c-.24-.24-.44-.34-.68-.34-.34,0-.51.14-.51.38,0-.03.03.03.07.17l.07.14.17.07c-.1.17-.17.24-.24.24-.1,0-.24-.1-.41-.27h-.17l-.17.17h-.07c-.17,0-.27-.14-.27-.37s.14-.51.41-.75l.65-.24.2-.03ZM17.45,4.83l-.03.41-.03.38v.71c.03.17-.07.27-.27.34-.1-.34-.14-.68-.14-1.05,0-.2.07-.44.17-.75l.17-.03h-.1.24ZM9.42,4.9c-.03-.14-.07-.2-.07-.17,0-.07.07-.1.24-.1.82,0,1.23.68,1.23,2.04,0,.1-.03.27-.1.48-.03-.31-.07-.61-.1-.88-.07-.27-.14-.51-.24-.72-.24-.24-.41-.34-.54-.34-.31,0-.48.14-.48.44s.17.48.51.58c-.14.07-.27.1-.37.1s-.24-.17-.41-.48v-.2c.1-.41.24-.61.37-.65l-.03-.1ZM18.81,4.69l.27-.1s.07-.03.17-.03c.17,0,.34.07.54.2.17.14.31.37.37.71l.03.1.03.14.1-.14v.1h.07l-.03-.2-.03-.14v-.14c0-.14.07-.27.24-.44.17-.1.31-.14.44-.14.17,0,.24.03.24.1,0,.03-.1.24-.27.54-.07.1-.1.27-.1.51,0,.65.17,1.16.51,1.6l.03.07.48.41.51.24c.51.17.92.24,1.29.24.1,0,.24-.03.41-.07l.27-.1.24-.03c-.31.31-.72.44-1.29.44-.85,0-1.43-.14-1.8-.44l-.71-.58-.14.03.1.2.58.48.31.14.44.17c.1.03.24.07.41.1.14.03.31.03.48.07-.03.1-.1.14-.27.14-.41,0-.82-.14-1.26-.44l-.03.24.24.1v.07l-.51-.07-.68-.24h-.14c-.44,0-.75.17-.99.54l-.1-.03-.1-.24c-.03-.07-.03-.17-.03-.34,0-.34.07-.55.24-.65l.17-.1-.14-.27-.24-.37v-.51c.03-.1.03-.2.03-.31.03-.1.03-.17.03-.2,0-.07-.03-.2-.1-.37l-.17-.31-.65-.2.24-.31.27-.17ZM2.11,4.05l.1.1-.07.37s-.03.14-.03.24c0,.41.17.78.51,1.12l.34.2h.2c.31.03.48-.1.48-.44,0-.17-.17-.34-.51-.44.14-.07.27-.1.37-.1.14,0,.27.1.37.27.14.17.2.34.2.48l-.03.1v.1l-.27.37v.27c-.24.07-.44.1-.54.1-.34,0-.65-.17-.92-.54-.24-.34-.37-.75-.41-1.26l.03-.27.17-.68ZM24.76,5.82c.27-.34.41-.72.41-1.09v-.14l-.14-.44.07-.1.17.34c.03.17.07.31.07.37,0,1.06-.27,1.63-.85,1.74l-.78.14-.14.03s-.1.07-.2.1l-.34.17v-.24c-.03-.14.07-.31.24-.48,0-.24.03-.44.1-.65.2-.24.44-.41.71-.51l.27-.2.24-.41.07.41c0,.1-.07.2-.24.27l-.44.2c-.14.03-.27.17-.37.41l-.03.14c0,.1.07.17.2.27.37,0,.68-.1.99-.34M1.19,4.93c-.03-.37.07-.75.38-1.05l.07-.07c.1,0,.17.07.17.17,0,.03-.07.24-.2.51-.14.34-.2.75-.2,1.33,0,.65.2,1.22.58,1.73l.07.03h.1c.07,0,.14-.1.2-.27l.37.07.2.17.24.31.48.34c.1.03.2.03.31.03l.17.03c.1,0,.24-.07.41-.2l.03-.17c0-.24-.14-.48-.38-.65h.1c.51,0,.75.27.75.78,0,.34-.1.55-.34.65l-.27.1-.1.24h-.34c-.34.03-.61-.07-.85-.31l-.17-.14-.27-.24c-.14-.07-.27-.1-.37-.1s-.17.03-.17.14c0,.17.1.31.31.48l.1.07c.24.2.34.44.34.71,0,.2-.03.31-.14.31-.07,0-.1-.03-.14-.14l-.03-.07-.17-.07-.2.54c-.07.14-.24.2-.48.2s-.44-.1-.68-.34v-.44l.24.27.51.03.17-.2.07-.1c0-.24-.14-.51-.44-.82-.17-.24-.27-.44-.27-.61,0-.1.07-.17.17-.24l.07-.1c0-.07-.03-.14-.14-.24l-.14-.44-.07-.27-.1-.71.03.14c-.03-.1-.03-.24-.03-.41v-.24l.03-.24c0-.14,0-.24.03-.34v-.17ZM25.41,3.91l.17-.1.1-.03c.07,0,.1.07.1.17v.03c0,.07.03.24.1.54.03.17.07.41.07.68,0,.14,0,.27-.03.38,0,.14,0,.27-.03.37-.1.68-.24,1.02-.37,1.02-.03,0-.14-.1-.27-.27.03-.07.07-.2.1-.37.14-.58.2-.92.2-1.09,0-.14,0-.24-.03-.31-.03-.17-.03-.31-.07-.44v-.17l-.03-.41ZM10.37,3.95c-.17-.17-.24-.31-.24-.44,0-.1.07-.17.2-.17.1,0,.2.1.31.31.51,1.05.78,2.07.75,3.06l-.03.54h-.1c-.17,0-.24-.03-.24-.07v-.03l.07-.17c-.03-.37-.07-.71-.07-1.02-.07-.31-.1-.61-.2-.92l-.07-.17-.14-.37-.07-.17-.17-.37ZM1.57,3.3l.44.2.48.17c.31.1.54.27.75.51l-.17-.07-.14-.07c-.48-.17-.82-.27-.95-.34-.2-.07-.31-.2-.41-.41M19.39,3.2l1.46.54c.24.14.34.24.34.31v.03l-.48-.17-.71-.17c-.27-.07-.48-.24-.61-.54M18.67,3.06c.17.24.24.41.24.58s-.07.37-.2.61c-.1.24-.24.34-.41.34l-1.09-.03c-.51,0-.75.2-.75.58l.07.34c-.2-.03-.31-.14-.31-.37,0-.41.1-.65.31-.71l.37-.14.2-.07.71.07c.24.03.41-.03.51-.14l.1-.2.03-.14-.03-.34.14-.24.1-.14ZM25.54,2.99c.1.17.14.27.14.37,0,.14-.07.2-.2.24l-1.26.48c-.1.03-.17.1-.24.17l-.37.44c-.1.07-.17.17-.2.2l-.1.2-.27.48-.14.37-.48,1.19-.1.34-.2-.17.37-1.05.27-.78.17-.31.41-.65.03-.07c.17-.31.51-.54,1.02-.71.17-.03.31-.1.38-.14.14-.03.2-.1.31-.14l.34-.17.03-.1.1-.2ZM13.64,3.27l-.03-.14c0-.1.03-.14.07-.14.1,0,.14.07.1.24v.1l-.14-.07ZM7.89,2.96c.1.07.14.14.14.2,0,.17-.1.31-.27.41l-.54.27-.07.03-.07.1c-.24.24-.34.44-.31.61v.24h-.27c.07-.58.34-1.05.78-1.36.2-.03.37-.14.54-.34l.07-.17ZM21.19,3.74c-.14-.1-.27-.14-.37-.2-.1,0-.2-.03-.31-.07-.68-.14-1.02-.27-1.02-.44s.2-.2.58-.17l1.74.14,3.54-.07.07.07v.07l-.07.14-1.23.48c-.44.17-.78.48-1.02.88-.24.37-.58,1.16-1.02,2.35l-.03.14s-.07.1-.1.2c-.17-.03-.31-.17-.41-.34l-.2-.37c-.03-.17-.07-.27-.07-.24,0-.14.07-.37.2-.71.14-.34.2-.61.2-.78s-.07-.44-.2-.75l-.27-.31ZM3.23,2.86h3.03c.34-.03.58-.03.75-.07.07-.03.17-.03.31-.03.27,0,.41.07.41.24,0,.1-.2.24-.65.48-.44.24-.65.54-.68.92l-.03.51-.51.27c-.27.14-.41.37-.41.68,0,.1.07.31.17.61l.2.17.58-.03.24.14.31-.03,1.53,3.84c.14.17.2.31.2.37l-.07.14-.88.55-.34.14-.24.1-.14.07c-.1,0-.14-.07-.17-.2l-.95-2.31-1.43-3.77-.54-1.06-.24-.24-.75-.65-1.05-.37c-.24-.1-.34-.2-.34-.37.03-.1.17-.14.41-.14l.24.03,1.05.03ZM24.69,2.45c.17,0,.24.03.24.1l-.03.07-.14.07c-.14,0-.2-.07-.2-.17,0-.03.03-.07.14-.07M19.05,2.69l.27-.1.27-.1c.14-.07.27-.1.41-.1.17,0,.27.03.24.14l-.03.1-.44-.03s-.17,0-.34.07c-.17,0-.31.03-.37.03M13.77,2.14c.2.03.31.14.31.27,0,.24-.14.34-.37.34s-.34-.1-.34-.34.1-.34.31-.31h.1v.03ZM7.31,2.01c.1.03.17.07.24.1.82.31,1.36.58,1.63.85-.85-.44-1.43-.68-1.73-.68l-.17.07-.1.14-.03.07h-.07c-.17,0-.24-.07-.24-.24l.03-.07.44-.24ZM14.59,1.73c.2,0,.31.07.31.17,0,.2-.14.31-.37.31s-.34-.07-.34-.17v-.07c.1-.17.24-.24.41-.24M13.03,1.63h.07c.2-.03.31.03.31.2,0,.2-.1.31-.34.31-.2,0-.31-.1-.31-.34,0-.1.1-.17.27-.17M15.1,2.11v-.41c-.03-.17-.07-.27-.07-.24,0-.07.07-.1.17-.1.2,0,.31.1.31.27,0,.14-.03.27-.14.44l-.27.03ZM17.69,1.22c.1.03.17.1.17.2,0,.03-.03.17-.1.34-.07.17-.1.27-.07.31l.37.2-.1.31-.2.27h-.65c-.14,0-.27.07-.44.17-.17.1-.31.24-.41.44-.14.14-.24.34-.34.54-.1.17-.14.34-.14.48l-.07,1.53c-.03.82-.24,1.5-.65,2.01-.41.51-.92.78-1.5.78-.34,0-.72-.2-1.12-.65l-.17-.27-.1-.14-.07-.27-.03-.82v-.34c.03-.1.03-.2.03-.31v-.58c0-.2-.03-.51-.1-.88l-.07-.34-.07-.14-.07-.31-.17-.31-.17-.2c-.24-.17-.51-.27-.75-.27-.44,0-.78.17-.99.48l-.61,1.05c-.17.31-.37.44-.68.44-.37,0-.58-.17-.58-.48,0-.27.07-.41.24-.41l.03.03.07.03-.07.2c0,.14.1.2.27.2.37,0,.61-.2.75-.58l.24-.65.14-.31c.31-.44.75-.68,1.29-.68-.03-.14-.07-.27-.14-.37-.07-.14-.1-.24-.1-.31,0-.14.03-.24.14-.34l.44.31c.37.17.58.31.68.37l.17.27c.1.17.17.27.17.31l-.03.03h.17l.17-.48c.2.17.37.27.44.37.14.1.2.17.2.2l.07.2s.07.1.1.2l.2.48.17,1.05v.92l.03.31v.07l-.07.17.03.61c.03.41.1.61.2.61.17,0,.27-.24.27-.75v-.41c-.03-.1-.03-.24-.07-.34l-.17-1.06-.03-.65c.03-.07.03-.17.03-.31.03-.44.17-.78.34-1.02l.1-.2c.07-.07.17-.14.27-.17h.03c.07,0,.1.03.14.14l.1.31.17.31c.14-.03.2-.14.2-.31,0-.38.24-.72.72-1.05.37-.31.68-.44.92-.44h.51l.27-.17ZM12.01,1.63c.03-.27.1-.41.27-.41.2,0,.31.1.31.31,0,.24-.14.37-.37.37-.1,0-.17-.1-.2-.27M20.82,1.29l1.12-.1c.41-.03.92,0,1.5.14.65.14,1.09.2,1.4.2.2,0,.51-.07.92-.2l.03.07c-.17.31-.48.48-.85.51l.07.14c0,.1-.2.17-.65.17-.2,0-.51-.17-.88-.48l-.1-.03c-.48-.14-.68-.2-.58-.2l-.07.03c0,.07.14.14.41.2.03,0,.14.03.24.14s.2.24.27.48l-.31-.07c-.03.31-.24.48-.54.48-.17,0-.27-.03-.37-.1l-.71-.31s-.07-.03-.17-.03c-.14,0-.31.07-.54.2v-.03c0-.27.14-.41.44-.41.1,0,.24.03.38.1.51.24.75.37.78.37.2,0,.31-.1.31-.27,0-.2-.34-.34-1.05-.44.17-.07.27-.14.27-.24,0-.14-.07-.2-.2-.2s-.2.07-.2.17,0,.17.03.2h-.2c-1.87-.03-3.09.71-3.74,2.28l-.37-.07c.07-.17.14-.34.2-.44.03-.1.14-.24.24-.41l.41-.48.24-.24.61-.48c.17-.14.37-.24.54-.27l.31-.1.44-.17.41-.1ZM13.74,1.16c.24,0,.37.1.37.27,0,.2-.1.31-.27.31-.2,0-.31-.14-.31-.37,0-.14.07-.2.2-.2M11.29,1.26c.03-.07.07-.1.17-.1.17,0,.27.03.27.14,0,.14-.07.2-.2.2-.17,0-.24-.07-.24-.24M14.32,1.22c0-.1.1-.14.31-.14.1,0,.17.03.17.1,0,.17-.1.24-.27.24-.14,0-.2-.07-.2-.2M15.78,1.5c-.07-.1-.1-.17-.1-.24,0-.1.07-.14.17-.14.17,0,.24.07.24.17s-.1.17-.31.2M18.16,1.43c.03-.24.17-.34.44-.34s.41.14.41.41c0,.1-.03.2-.14.31-.1.1-.2.17-.31.24-.1.03-.17.1-.2.14l.24-.44v-.24c-.17-.07-.34-.1-.44-.07M2.14,1.56l.41.03c.17,0,.37-.03.58-.1l1.23-.34s.14-.03.31-.03h.31c.1,0,.24,0,.41-.03h.27c.71,0,1.57.17,2.55.54l.51.27.65.41s.1.07.2.17c0,.03-.07.14-.17.24l-.31-.17-.51-.31c-.65-.37-1.43-.58-2.35-.58s-1.39.17-1.39.48c0,.1.07.17.24.2.03,0,.14-.03.31-.1.14-.03.24-.07.31-.07s.2.07.37.17h-.37l-.65.2s-.07.03-.17.03l-.17.03h-.1c-.31,0-.48-.07-.48-.2l.03-.14-.03-.03.03-.1.03-.03c0-.07-.1-.1-.31-.1v-.07l.41-.17.24-.07h.17v-.1l-.24-.03h-.1l-.41.2c-.58.27-.88.44-.92.48-.24.24-.41.34-.51.34s-.14-.03-.14-.07l.07-.14.2-.1.27-.24.34-.17v-.1l-.14-.03-.27.17c-.31.31-.65.44-1.05.44-.14,0-.2-.03-.2-.07l.17-.31-.44-.17-.2-.37,1.02.14ZM12.96,1.05l.27.03.07.07v.07c0,.07-.1.1-.27.1-.24,0-.34-.03-.34-.14s.07-.14.24-.14h.03ZM9.18,1.63l-.03-.17c-.03-.31.1-.48.44-.48.31,0,.44.1.44.34v.03c-.24-.03-.34-.07-.31-.07-.2,0-.31.1-.31.31,0,.14.07.27.2.37.14.1.2.17.24.2v.14c-.17-.1-.27-.17-.41-.27-.07-.1-.17-.17-.24-.27l-.03-.14ZM.82,26.39h25.54V.85H.82v25.54ZM.41.41h26.39v26.39H.41V.41ZM0,27.21h27.21V0H0v27.21Z" fill="#231f20"/>
    </g>
  </g>
</svg>