<?xml version="1.0" encoding="UTF-8"?>
<svg id="Layer_1" xmlns="http://www.w3.org/2000/svg" width="27.21" height="27.21" xmlns:xlink="http://www.w3.org/1999/xlink" viewBox="0 0 27.21 27.21">
  <defs>
    <clipPath id="clippath">
      <rect width="27.21" height="27.21" fill="none"/>
    </clipPath>
    <clipPath id="clippath-1">
      <rect y="0" width="27.21" height="27.21" fill="none"/>
    </clipPath>
  </defs>
  <g clip-path="url(#clippath)">
    <g clip-path="url(#clippath-1)">
      <path d="M23.67,4.05l.2.17.17,1.05.71,3.4.03.1c0,.34-.14.51-.37.51l-.03-.07.03-.1c.07-.2.1-.34.1-.44,0-.24-.14-.85-.41-1.87-.1-.51-.2-1.02-.31-1.46-.07-.44-.1-.88-.14-1.29M9.93,4.66c1.94-.71,3.57-1.06,4.9-1.06,2.69,0,4.97.72,6.8,2.14-2.48-1.33-4.62-1.97-6.46-1.97-1.4,0-3.1.38-5.14,1.12l-.1-.24ZM9.05,3.57c2.65-.75,4.69-1.12,6.16-1.12,1.9,0,4.05.51,6.43,1.53.44.2.75.31.95.31.14,0,.31-.07.51-.14l.31-.17c.07,0,.1.1.1.27.03.24.03.44.03.54l.03.17.82,3.33s.03.1.03.24c0,.41-.1.61-.27.61-.07-.03-.1-.14-.14-.24-1.29-3.64-4.25-5.48-8.91-5.48-1.67,0-3.4.34-5.24,1.06-.2-.41-.48-.72-.82-.92M8.33,20.71c1.39,1.02,2.55,1.7,3.54,2.04.92.34,2.04.51,3.37.51,1.53,0,3.64-.75,6.26-2.21v-4.93c0-.58-.2-1.02-.61-1.26-.37-.24-1.12-.44-2.21-.58-.34-.03-.51-.14-.51-.34,0-.14.24-.2.75-.17l2.52.1,2.93-.17h.1c.51-.03.75.07.75.24,0,.1-.07.17-.24.2l-.48.14c-.68.2-1.02.68-1.02,1.43v5.95c-3.88,1.8-6.7,2.69-8.47,2.69-2.07,0-4.29-.58-6.67-1.7-.03-.24-.03-.41-.03-.54-.03-.17-.03-.31-.03-.41s0-.24.03-.41c0-.17,0-.34.03-.58M11.29,24.05c1.26.31,2.38.44,3.33.44,2.18,0,5.17-.92,8.98-2.76v-5.85c0-.85.34-1.36,1.05-1.53.24-.03.44-.14.65-.27.1.1.14.17.14.2,0,.14-.07.2-.24.24l-.58.14c-.51.1-.75.41-.75.99v6.26c-3.81,1.87-6.67,2.82-8.57,2.82-.92,0-2.28-.24-4.01-.68M6.16,8.64l.17.27c-.24.44-.41.82-.51,1.12-.1.31-.2.58-.27.85s-.1.58-.17.95c0,.37-.07.85-.1,1.43l-.24-.14c.03-.58.1-1.09.14-1.5.03-.41.1-.75.14-.99.14-.51.41-1.16.85-2.01M2.86,12.62c.1-.71.2-1.33.31-1.84s.24-.95.34-1.26c.24-.61.78-1.6,1.7-2.96.27.72.68,1.16,1.22,1.33-.58.99-.95,1.77-1.12,2.42-.1.31-.17.65-.27,1.12-.07.41-.14.95-.17,1.6-.61-.31-1.09-.44-1.39-.41h-.61ZM5,14.05l.31.31c.17,1.33.61,2.69,1.33,4.12l-.03.17c-.31-.51-.58-.95-.75-1.29-.17-.31-.34-.61-.41-.92-.14-.31-.2-.61-.27-.99-.03-.34-.1-.82-.17-1.39M4.93,19.8c-.85-1.33-1.39-2.38-1.63-3.13-.1-.37-.2-.85-.31-1.36-.07-.54-.14-1.16-.17-1.84h.37c.51-.03,1.05.1,1.67.48.03.58.1,1.09.17,1.5.1.44.17.78.27,1.06.2.48.65,1.29,1.29,2.41l-.14,1.09c-.51-.14-1.02-.2-1.53-.2M6.5,21.5c-.17-.17-.34-.31-.51-.48-.14-.14-.27-.27-.37-.44.31.03.61.14.88.27v.65ZM18.06,14.15l.48.24,1.67.34c.24.03.58.31,1.02.75-.51-.41-1.05-.65-1.6-.71-.38-.03-.68-.07-.89-.14-.2,0-.34-.03-.37-.03-.2-.03-.31-.14-.31-.34v-.1Z" fill="#a91e22"/>
    </g>
  </g>
</svg>