<?xml version="1.0" encoding="UTF-8"?>
<svg id="Layer_1" xmlns="http://www.w3.org/2000/svg" width="27.21" height="27.21" xmlns:xlink="http://www.w3.org/1999/xlink" viewBox="0 0 27.21 27.21">
  <defs>
    <clipPath id="clippath">
      <rect width="27.21" height="27.21" fill="none"/>
    </clipPath>
    <clipPath id="clippath-1">
      <rect y="0" width="27.21" height="27.21" fill="none"/>
    </clipPath>
  </defs>
  <g clip-path="url(#clippath)">
    <g clip-path="url(#clippath-1)">
      <path d="M16.09,25.1l.24.24c0-.14-.07-.2-.24-.24M24.66,23.94l-.03.03h-.03l-.03.03-.03.14v.03s.03.14.1.27l.17-.07-.07-.31-.07-.14ZM24.42,23.71c-.1.41-.17.65-.17.75v.27l.24-.03-.14-.24.1-.51-.03-.24ZM23.94,23.2c.37-.2.55-.34.55-.38l.17-.17-.41.24-.34.24.03.07ZM20.88,22.31h-.1v.17h.41l-.31-.17ZM20.92,21.77l-.41.07.14.1.07-.07c.1-.1.17-.14.2-.1M8.3,21.8l-.34.03.17.1h.44l-.27-.14ZM25.34,21.84l.2-.14c0-.1-.17-.14-.51-.14l-.2.1c.24,0,.41.07.51.17M8.57,21.7l-.17-.24-.2.07-.17-.03.03.14.51.07ZM25.65,21.43l-.34-.1-.27-.07.03.03h-.03v.03h-.03v.03l.34.1.31-.03ZM20.75,21.19c-.2.1-.31.14-.31.07l.07.1.1-.1-.1-.1.24.03ZM7.96,21.26l.27.07.07-.03.14-.03-.03-.14-.03.03-.1.03h-.31v.07ZM25.17,20.95l-.1.1.27.1h.27l-.2-.14-.24-.07ZM19.11,22.14c-.34-.54-.51-.85-.51-.92l.03-.1.07-.34-.03-.07-.1.14c-.03.14-.07.24-.03.34.03.61.1.92.24.92l.34.03ZM25.14,20.68c.1.1.17.14.27.14.17,0,.27-.03.27-.1s-.14-.1-.41-.1l-.14.07ZM20.48,20.58h-.07l-.03.14.14.03.27.03-.31-.2ZM20.37,20.14l-.1-.07-.07.07c.17.1.34.17.51.2l-.34-.2ZM9.42,20.03l-.27.03-.24.34-.14.17-.03.1.03.14.65-.78ZM17.58,19.79l-.27-.07-.03.1.07.07.07-.1h.17ZM20.17,19.56h-.14l-.07.07c0,.07.03.1.14.1h.03l.27.07s.14.03.24.03c-.1-.03-.17-.1-.24-.14-.07-.03-.14-.1-.24-.14M17.28,19.25h-.03l-.07.07.27.03s-.03.07-.14.07l.03-.03-.07-.14ZM18.77,19.08c-.07-.07-.2-.1-.41-.1-.24,0-.34.14-.34.41h.1c.03-.17.27-.27.65-.31M7.86,19.39l.07.07c.1-.1.14-.24.14-.41l-.2.34ZM8.33,18.77h-.07l-.14.78-.14.31v.04l.1.03s.07-.1.1-.27l.1-.48.03-.41ZM17.79,18.98l.14.03.14-.17.44-.07-.37-.1c-.14,0-.24.1-.34.31M14.39,18.67l-.34.2c-.37.51-.58,1.12-.68,1.87h-.1c.03-.31.14-.61.2-.92.14-.31.24-.58.34-.82-.27.17-.41.31-.44.41l-.2.72-.07.48.03.34-.14.1c-.03-.07-.03-.17-.03-.31s.03-.37.14-.71c.03-.03.03-.14.03-.34-.24.38-.34.68-.34.92l.07.92c.03.07.03.17.03.27s0,.14.03.17l.1.44c.1.41.24.61.41.61.07,0,.2-.03.37-.1-.17-.41-.27-.85-.31-1.33v-.75c0-.34.1-.75.34-1.19.17-.31.34-.58.58-.88l-.03-.1ZM18.23,18.47h-.31l-.24.27.34-.2.2-.07ZM21.77,18.81s.03-.07,0-.24c0,.1-.03.1-.1,0l-.03-.14s.07.03.14.14c-.03-.1-.1-.2-.14-.27-.03-.14-.1-.17-.17-.17l-.03.07s.07.1.14.24c.14.14.17.27.2.37M21.6,17.79s0,.1.1.24c.14.2.24.34.27.37.07.27.14.41.2.41-.03-.1-.03-.17-.07-.24-.03-.1-.03-.17-.07-.24-.17-.37-.31-.54-.44-.54M19.05,16.56h-.03l-.1.17-.03.1.03.03.17.07-.03-.37ZM19.18,16.8v.07l.07.07.07.03v-.03l.03-.41-.07-.03-.1.31ZM19.66,16.43c-.1.17-.17.31-.17.34l.1.2.34.17-.31-.37c0-.1.03-.2.14-.31l-.1-.03ZM19.93,15.88h-.03l.1.1-.07-.1ZM19.69,15.41l.51.03c.17-.1.27-.17.34-.2.1-.07.14-.1.17-.14l-1.02.31ZM15.68,13.91l-.27-.14-.44-.1-.41-.03h-.03c-.07-.03-.1,0-.1.1,0,.07.07.1.17.1l.37-.03c.17,0,.44.1.89.27l-.17-.17ZM15.2,13.43h-.17l-.03.07.24.03.17.07-.07-.1-.14-.07ZM12.55,13.26l-.14-.07.03.14.1-.07ZM15.51,11.73l-.07-.03c0,.07-.1.17-.27.27-.2.14-.34.2-.41.2v.07c.44-.31.71-.48.75-.51M14.8,11.77l.03.14.41-.34-.44.2ZM2.38,11.16h-.03l-.03.07.07.2.17.24v-.07l.03-.03-.2-.41ZM2.59,11.09l.14.44.1-.1c-.03-.1-.1-.17-.14-.2l-.1-.14ZM10.48,9.63l-.07.14.31.07-.1-.1-.14-.1ZM10.65,9.32l.07.1.07.03h.03l.07-.07-.24-.07ZM10.78,8.95c.03.1.03.14,0,.14l.2.03-.03-.1-.17-.07ZM2.18,8.88l.37.92.03-.1c-.03-.37-.17-.65-.41-.82M10.68,8.5l.27.17.07-.07-.07-.07-.14-.07-.14.03ZM10.65,7.86v.1l.03.14s.07-.03.2-.03l.03-.07-.03-.03-.1-.03-.14-.07ZM9.66,6.94l-.03.14.07.03h.2c-.03-.1-.1-.17-.2-.17h-.03ZM1.87,7.07l-.03-.1v-.03c-.2,0-.31.03-.34.14l.03.07h.14l.1.07h.03v-.1l.07-.03ZM1.84,6.67h-.2l-.1.14.27.07.03-.2ZM12.28,6.53l-.24-.17.03.07.2.1ZM1.8,6.39l-.17-.07-.1.07.1.1.1.07.07-.17ZM9.28,6.16l-.03.07-.03.03s.07.07.24.07v-.03c0-.1-.03-.14-.14-.14h-.03ZM1.67,5.95l-.14.1c.03.07.07.1.17.14h.1v-.1l-.14-.14ZM9.28,6.05l-.17-.27c-.1,0-.14.03-.14.14l.1.07c.14,0,.2.03.2.07M10.14,5.37l.14.75.14-.07-.03-.31c-.03-.2-.14-.34-.24-.38M8.77,5.37h-.03l.68.48-.65-.48ZM12.55,5.03s-.03.14-.03.24v.24c0,.1,0,.17.03.24l.14-.2-.14-.51ZM10.41,4.93l.2,1.26.14-.07-.03-.2c0-.1,0-.14-.03-.17-.03-.31-.14-.58-.27-.82M7.45,4.76l.31.92.75.44c-.17-.17-.31-.34-.41-.51-.14-.17-.27-.31-.37-.41-.03-.24-.14-.41-.27-.44M22.45,4.49l.07-.03-.07.03ZM22.62,4.52l-.44-.37.03.14.24.2.17.03ZM21.94,3.84h-.07l-.03.07.1.1v-.17ZM25.31,3.3l-.1.17v.14l.24-.03-.14-.27ZM24.11,2.65l-.14-.03-.03.03.31.27.2.27c.1.1.2.17.31.2l.17.14c0-.14-.17-.34-.51-.58-.1-.07-.2-.17-.31-.31M7.82,25.95c-.17.03-.27.07-.31.07-.17,0-.27-.14-.27-.41,0-.2.14-.31.41-.31.2,0,.37.07.54.24-.03-.03-.14-.03-.31-.03s-.27.07-.27.17.07.17.2.27M16.63,25.58l.1-.37.14-.1c.17,0,.24.07.24.24,0,.48-.17.72-.54.72-.1,0-.14-.07-.14-.17v-.07l.2-.24ZM14.15,25.03l-.34.17-1.26-.03c-.51,0-.78.2-.78.58,0,.1.03.17.14.2l.37.1-.48.17h-.03l-.14-.03c-.24-.14-.37-.27-.37-.41,0-.55.54-.82,1.63-.82h.48l.34.07h.44ZM8.71,24.96l.37.03.24.34.2.17.2.31c-.44-.03-.78-.34-1.02-.85M3.74,26.05c-.37-.07-.58-.24-.58-.54,0-.44.24-.65.71-.65.44,0,.71.07.85.2l.58.68c.17.17.34.24.54.24.37,0,.54-.1.54-.34l-.03-.1-.2-.17-.03-.07c0-.31.24-.44.71-.44.51,0,.92.1,1.22.27l1.19.75.34.14c-.1.1-.17.14-.24.14l-.07-.03-.07-.03-1.36-.85c-.1-.1-.37-.14-.85-.14h-.07l-.34.1.2.37.03.07c0,.38-.27.58-.85.58-.27,0-.48-.07-.65-.24l-.71-.65c-.2-.2-.44-.31-.75-.31-.34,0-.51.17-.51.54,0,.17.14.27.44.38l-.07.1ZM23.4,26.09c-.41-.03-.61-.17-.61-.41,0-.14.07-.27.17-.37l.31-.31.44-.34h.1l-.03.27c-.44.37-.65.65-.65.82,0,.1.1.2.27.34M15.34,24.69l.44.37-.95-.27.51-.1ZM16.19,24.45l.24.03-.03.2.17.31.03.14c0,.44-.24.65-.71.65h-.14c-.31-.03-.54-.07-.71-.07-.17-.03-.34-.03-.44-.07-.41-.03-.68,0-.78.17l-.17.27-.1-.27.37-.24v-.03c-.03-.24.1-.31.44-.27h.37l-.07-.2c.31.03.58.07.82.1l.51.27h.03l.07-.1-.14-.17c-.1-.14-.14-.24-.14-.31,0-.17.14-.31.38-.41M23.88,23.74l-.03.37-.03.2-.92.71-.85.48-1.43.51c-.34.14-.82.2-1.46.2-.24,0-.41,0-.48-.03l-.95-.1c-.44-.07-.65-.14-.65-.17,0-.1.07-.2.24-.38.44.21,1.05.31,1.87.31s1.7-.21,2.58-.61c.85-.37,1.56-.88,2.11-1.5M21.5,25.24c-.85.31-1.56.48-2.14.48-1.19,0-1.77-.38-1.77-1.12,0-.27.1-.51.37-.71.2-.24.48-.34.78-.34.44,0,.68.2.65.61v.07-.1l-.1.1c-.07-.31-.24-.48-.48-.48-.58,0-.89.31-.89.88,0,.61.54.92,1.63.92.1,0,.2,0,.31-.03.1,0,.2,0,.31-.03l.92-.2.41-.03ZM22.35,23.23c-.17.14-.24.27-.24.37,0,.27.17.41.48.41h.17l.51-.27.34-.03-.44.41c-.1.1-.37.17-.78.2h-.03c-.44.03-.68-.17-.68-.65,0-.31.17-.48.54-.48l.14.03ZM2.14,25.78c.14.07.24.1.34.1.14,0,.2-.07.2-.17l-.07-.17-1.02-.44c-.44-.2-.65-.54-.65-.99,0-.17.07-.37.2-.61.1-.24.24-.37.41-.37h.14c-.31.24-.48.51-.48.82v.31c0,.17,0,.27.03.34l.38.31.99.41c.17.1.27.27.27.44,0,.24-.14.34-.41.34-.1,0-.27-.07-.48-.2l.14-.1ZM12.96,24.52c1.12-.03,2.04-.17,2.82-.41l.78-.24.44-.14.37-.2,1.05-.51.34-.2.07.03.07.14c0,.1-.1.17-.31.24-.03.03-.14.07-.24.14-.1.07-.27.17-.51.27-1.46.85-3.47,1.26-6.05,1.22l-5.44-.2-3.5-.03h-.75c-.07-.03-.17-.14-.27-.34.31.07.51.1.65.1l1.67-.07,8.6.24.2-.03ZM2.45,22.72l.14.03c-.14.17-.24.24-.34.24l-.1-.07v-.1l.31-.1ZM1.57,22.69l.14-.03.1.03.1.07v.14l-.07.03c-.1,0-.14,0-.17-.03l.07-.1-.17-.1ZM3.27,22.38c-.1.24-.24.37-.34.37-.17,0-.27-.07-.27-.2,0-.17.1-.24.34-.24l.27.07ZM2.35,22.24c.1.07.14.1.14.14v.03c-.07.14-.2.2-.37.2s-.24-.07-.24-.24c0-.24.1-.34.27-.34h.03l.17.2ZM1.5,22.01c.17,0,.24.1.24.31,0,.14-.1.2-.27.2-.14,0-.21-.07-.21-.24s.07-.27.24-.27M3.2,22.14c.03-.34.1-.51.24-.51h.03l.03.03.03.03h.03l.03.1v.03l-.03.07-.14.17c-.03.1-.07.1-.17.07h-.07ZM2.72,21.53c.17.1.27.24.27.34,0,.17-.1.27-.27.27s-.27-.1-.27-.27c0-.1.1-.24.27-.34M1.94,21.94c-.17-.1-.24-.2-.24-.31,0-.2.1-.31.34-.31.07,0,.17.03.34.14-.1.24-.24.37-.44.48M1.53,21.73c-.1.1-.21.14-.31.14l-.1-.1v-.03l.03-.1.03-.1.03-.07.2-.17h.17l-.07.34v.1ZM24.01,20.95h.1c.2,0,.31.07.31.24s-.1.24-.27.24c-.14,0-.2-.1-.2-.27,0-.1.03-.17.07-.2M2.82,21.02v.03c.03.2-.03.31-.17.31-.17,0-.27-.07-.27-.24s.1-.24.27-.24c.1,0,.14.03.17.14M23.43,20.68h.1c.17,0,.27.07.27.17,0,.17-.1.24-.27.24s-.24-.07-.24-.2c0-.1.03-.17.14-.2M13.98,22.89c-.1-.34-.17-.61-.17-.78,0-.92.31-1.43.95-1.53l.41-.07h.14l-.07.24c.75.07,1.12.37,1.12.95,0,.44-.2.65-.61.65-.17,0-.31,0-.37-.03.37-.17.55-.34.55-.58,0-.44-.27-.65-.78-.65-.71,0-1.05.37-1.05,1.12,0,.07.03.17.07.31.07.14.1.24.1.27s-.1.07-.27.1M23.57,20.1c.24.03.37.1.37.2l-.07.1-.17.03c-.17,0-.27-.07-.27-.17s.03-.14.14-.17M2.01,20.1l.31.1c.1.03.17.03.24.07.65.1.99.31.99.61l-.03.17c-.07.37-.2.54-.37.54-.14,0-.2-.07-.2-.17l.03-.07.27-.27.03-.03.03-.1c0-.24-.14-.37-.37-.44l-.71-.2-.2-.2ZM24.56,20.1l.27-.27-.07.27c-.03.14-.1.27-.27.44-.17.17-.31.24-.44.24-.1,0-.17-.03-.17-.14l.1-.14.58-.41ZM1.87,17.82c-.07.2-.1.37-.1.51,0,.2.14.41.44.65-.37,0-.58-.2-.58-.65,0-.17.07-.34.24-.51M11.29,19.18c-.1.17-.24.27-.37.27-.41,0-.61-.24-.61-.75,0-.65.37-.95,1.12-.95.31,0,.58.1.82.34l.24-.31c.24.37.37.61.34.68l-.2,2.01v.14c-.03.71.07,1.39.31,1.97l.07.14.07.2c-.55-.51-.85-1.26-.89-2.31l-.03-1.46-.03-.31-.03-.03-.03-.07-.2-.2-.2-.2-.07-.03-.14-.03-.34-.03s-.14.07-.27.2c-.17.14-.24.27-.24.37,0,.17.07.27.24.37l.2.03c.1,0,.2-.1.31-.31l-.03.27ZM24.73,17.14c.14,0,.2.07.24.24l.1.88v.24c.03.99-.31,1.5-1.06,1.5-.54,0-.82-.27-.85-.85.1-.58.34-.88.65-.88.03,0,.14.03.37.07l.17.17-.03.07c-.17-.07-.31-.1-.41-.1-.27,0-.41.17-.41.54s.17.54.51.54c.55,0,.82-.41.82-1.22,0-.34-.03-.75-.1-1.19M9.45,18.84c.03-.58.24-1.09.61-1.56.34-.41.71-.65,1.12-.65.37,0,.58.17.58.48,0,.2-.17.34-.51.44l.07-.27c0-.2-.14-.31-.44-.31-.24,0-.48.2-.78.61-.31.37-.44.68-.44.92-.03.2-.1.31-.2.34M13.33,16.56l.14.17v.03c0,.17-.14.24-.44.24-.1,0-.17-.03-.17-.1,0-.17.17-.27.48-.34M7.14,16.36l.07-.03.1-.03c.2,0,.37.1.58.34.14.24.24.48.24.78,0,.2-.03.41-.14.65s-.14.34-.14.37c0,.1.03.14.1.14.03,0,.14-.07.27-.24.1-.17.17-.24.2-.27.1.34.17.54.17.61,0,.37-.07.75-.24,1.16-.03.17-.1.31-.14.44-.03.14-.1.27-.14.37v.07c-.03.17.03.24.17.24.07,0,.1-.31.14-.95.03-.55.44-.85,1.22-.95l-.17.58c.14-.03.27-.03.34-.03.14-.03.2-.03.24-.03.65,0,.99.34.99,1.02,0,.31-.2.65-.58.95h-.1c-.07,0-.1-.03-.14-.14h-.07l-.1.03s-.1.1-.14.2l-.17.2.03.58c.2.24.41.34.58.34.44,0,.68-.14.68-.37,0,.03-.03-.17-.1-.58v-.1c0-.41.17-.61.54-.61.1,0,.17.03.2.07l.14.27-.31-.07c-.17,0-.27.17-.27.51,0,.17,0,.31.03.37-.1.51-.41.78-.88.78-.58,0-.85-.31-.85-.92,0-.37.14-.65.37-.85.34-.2.55-.37.58-.48v-.1c0-.37-.17-.58-.55-.58-.58,0-.88.48-.92,1.43-.03.17-.07.34-.1.44,0,.14,0,.27-.03.37l-.44.17.14.51h-.48l-.14-.68-.41-.14c-.24-.07-.37-.68-.37-1.8,0-.07,0-.2.03-.34,0-.2,0-.41.03-.65.03-.07.03-.27.03-.58.17-.58.24-1.09.24-1.56,0-.31-.14-.61-.38-.92M14.18,16.19l.03.07c0,.2-.14.31-.44.31-.2,0-.31-.07-.31-.24,0-.24.17-.37.48-.37l.07.03.17.2ZM12.24,16.87c-.1-.1-.14-.24-.14-.48,0-.34.1-.51.27-.51.24,0,.34.31.34.92,0,.31-.03.44-.1.44-.03,0-.1-.07-.2-.17l-.17-.2ZM9.05,18.94v-.27c0-.24.14-.61.37-1.16.68-1.29,1.5-1.94,2.48-1.94.24,0,.34.07.34.2,0,.1-.07.17-.17.17l-.71.03s-.03.03-.17.07c-.54.31-.99.71-1.36,1.26-.1.1-.2.27-.31.58l-.07.17c0,.1-.07.27-.1.51-.03.24-.14.34-.31.37M14.45,16.09c-.17,0-.27-.1-.27-.31,0-.17.1-.27.31-.27.17,0,.27.07.27.24,0,.27-.1.37-.31.34M4.01,15.54c-.03.51-.48.99-1.36,1.5l-.78.41-.07.03-.1.1c-.27.34-.41.68-.41,1.02s.14.61.34.85c.27.24.54.34.88.34.31,0,.68-.2,1.12-.65l.03-.27c-.03-.2-.14-.37-.31-.48l-.27-.27-.14-.07c-.24-.17-.34-.34-.34-.51,0-.37.17-.54.54-.54.17,0,.27.07.37.24-.14-.07-.24-.1-.31-.1-.24,0-.37.14-.37.44,0,.14.03.24.14.34l.68.51s.07.14.07.31l.03.34.07-.03c-.44.68-.88,1.02-1.26,1.02-.41,0-.75-.14-1.05-.48-.31-.27-.44-.65-.44-1.05,0-.68.41-1.22,1.19-1.6l.75-.34c.24-.2.41-.41.58-.54.17-.2.31-.34.41-.51M24.93,15.37c.78,1.05,1.16,2.42,1.16,4.12,0,.24-.03.51-.03.85-.07.37-.1.78-.2,1.22l-.31,1.22c-.1.34-.17.61-.24.85,0,.07-.03.27-.1.65,0,.14,0,.24-.03.31v.14c-.03.58.1.88.44.88.1,0,.2-.1.24-.31l.07.07.07.07c0,.44-.2.65-.61.65-.37,0-.58-.27-.61-.78l-.1-.03c-.03.14-.14.27-.34.44-.17-.44-.27-.82-.27-1.19,0-.51.07-.82.24-.99l.55-.54.31-.55.03-.14.03-.07c0-.07-.03-.17-.14-.34l-.1.07-.03.07v.31c0,.31-.17.58-.51.85-.31.2-.72.34-1.19.34l.24-.51-.31.03c-.51.03-.75-.17-.75-.54l.07-.34c.1.24.27.34.54.34.58,0,1.09-.41,1.53-1.26.48-.85.71-1.8.71-2.86,0-.1,0-.24-.03-.34,0-.1,0-.24-.03-.34l-.37-1.43.1-.92ZM12.92,16.53c-.1-.31-.14-.51-.2-.65l-.03-.2c0-.17.1-.24.27-.24.31,0,.44.17.44.54,0,.24-.17.44-.48.54M13.74,15.34c.2,0,.31.07.31.24,0,.24-.1.34-.31.34-.17,0-.27-.1-.27-.27,0-.2.07-.31.24-.31h.03ZM15,15.1l.1.14-.07.1-.03.14-.07.03h-.07l-.1-.1-.1-.17-.03-.03c0-.14.07-.2.17-.2.03,0,.1.03.2.1M13.71,15.2l-.03-.24c0-.1.1-.14.31-.14.34,0,.51.14.51.37,0,.03-.03.1-.14.17l-.65-.17ZM13.13,14.73c.27.03.41.17.41.37s-.07.31-.2.31c-.1,0-.24-.07-.41-.17l.03-.2h-.03c.03-.14.1-.24.2-.31M24.76,16.97c-.27-.1-.38-.27-.34-.44l.07-1.29c.03-.51.14-.78.24-.78s.17.07.17.17c0,.14-.07.34-.17.68-.1.27-.17.51-.17.65,0,.1,0,.17.03.2l.14.44.03.37ZM10.92,14.83c.17-.17.34-.27.44-.27.24,0,.37.14.37.41,0,.14-.14.24-.37.27l.03-.14c0-.24-.03-.34-.14-.34l-.34.07ZM12.75,14.32l.1.07c-.03.24-.07.37-.1.48-.03.51-.1.75-.27.75l-.14-.1-.17-.07-.03-.03-.03-.07c0-.44.2-.78.65-1.02M7.99,15.51v.03c.03.1,0,.17-.14.17-.41,0-.61-.24-.61-.75,0-.48.27-.71.82-.71.65,0,.95.41.95,1.19l-.37,1.12-.17.51c-.03.17-.07.31-.1.41l-.03-.38.34-1.33c.03-.24.07-.37.07-.41,0-.58-.24-.85-.68-.85-.37,0-.54.17-.54.54,0,.31.1.44.31.44h.07l.14-.07.03.03-.07.03ZM21.46,14.01c.1.38.17.61.17.68,0,.41-.2.75-.58.99-.07.03-.17.1-.27.2l.2.07c.1,0,.2-.07.34-.24h.14c-.14.78-.37,1.19-.75,1.19-.07,0-.2-.03-.41-.17-.2-.07-.34-.14-.37-.14l-.1.1c0,.17.17.31.48.34l.85.17c.82.17,1.36,1.16,1.6,3.03,0,.17,0,.31.03.37-.24-.03-.48-.14-.65-.31l-.1.03.14.44c-.03.51-.14.95-.31,1.39-.24.68-.38,1.09-.38,1.26v.27c0,.14,0,.24.03.31-.2-.03-.44-.14-.71-.34l-.27-.24-.24-.31c-.17-.17-.24-.27-.24-.38-.07-.2-.14-.31-.17-.31l-.07.07-.1.51c-.03.17-.1.27-.2.27h-.03l-.2-.24-.72-.78-.1-.17-.1-.44c-.03-.24-.07-.34-.07-.37l.03-.1.27-.95s.03-.17.03-.34c0-.38-.07-.58-.24-.58-.07,0-.1.03-.14.14.1.24.14.48.14.72,0,.48-.1.71-.31.71-.03-.03-.1-.14-.14-.27h-.14c-.03.24-.17.41-.37.51-.27.1-.48.27-.65.51-.31-.2-.48-.51-.48-.92,0-.2.07-.37.24-.54v-.1c0-.14-.03-.2-.07-.2-.07,0-.17,0-.31.07-.14,0-.24.03-.27.03v-.24c.03-.24-.07-.48-.27-.75-.2-.2-.37-.34-.51-.34l-.07.03c-.17.03-.27.07-.24.07l-.27-.1-.17.03-.34.07c-.44.1-.85.54-1.19,1.33,0-.48.07-.78.14-.95.14-.14.34-.34.68-.58.07-.03.17-.1.31-.2-.34.1-.65.31-.88.54.07-.34.31-.65.78-.92.41-.27.88-.41,1.39-.41.27,0,.58.07.92.2.37.17.58.34.65.54.03.14.1.24.14.34l.1.17h.14l-.14-.37-.2-.31c-.44-.48-.99-.71-1.57-.71-.71,0-1.39.31-2.04.92.44-.99,1.43-1.5,2.89-1.5.92,0,1.7.24,2.35.71.2.14.44.34.75.65.24.24.37.41.41.51.07.27.14.41.2.41l.1-.07s-.07-.17-.17-.34l-.17-.31c-.03-.1-.17-.27-.37-.44-.99-.82-2.01-1.22-3.06-1.22-.58,0-1.29.17-2.14.48.31-.48.82-.75,1.53-.78l.55-.03-.07-.07-.03-.03-.58.1-.34.07c-.1.03-.24.07-.37.1.58-.37,1.33-.58,2.18-.58.17,0,.41,0,.65.07l.85.1v-.1l-.78-.14c-.2,0-.41-.03-.58-.03-.31,0-.68.03-1.19.1l.17-.07.14-.07c.24-.1.41-.14.58-.2l.34-.07.78-.07-.31-.03.44-.07.34-.07,1.19-.14c.65-.07,1.29-.48,1.94-1.19M25.61,16.19l-.14-.24.07-.82-.1-1.26.07-.2.07-.1h.03c.07,0,.1.07.1.17l.07.82v.75c-.03.1-.03.2-.07.31-.03.31-.07.48-.1.58M20.75,13.5c.2,0,.31.07.31.24s-.1.27-.27.27-.27-.1-.27-.31c0-.14.07-.2.24-.2M19.97,13.43c.24.07.37.14.37.24,0,.17-.07.24-.2.24s-.2-.07-.2-.24c0-.1,0-.2.03-.24M25,13.88v-.07c0-.14,0-.2.03-.24.17-.31.34-.44.58-.44.31,0,.48.17.48.54,0,.1-.07.31-.2.58l.03-.34c.03-.34-.07-.51-.27-.51-.24,0-.37.2-.48.61l-.17-.14ZM24.56,13.77c.03-.44.17-.65.44-.65h.14l-.27.37-.07.17c0,.1.03.2.14.37l.1.1.27.03.07.14c0,.1-.07.14-.2.14-.31,0-.51-.24-.61-.68M20.78,12.92l.27.1.03.07.03.07c0,.14-.07.2-.24.2s-.27-.1-.27-.27c0-.07.07-.14.17-.17M24.18,12.69h.17l.03.68-.03,1.12c-.1,1.33-.31,2.31-.61,2.96l-.31.58c-.27.58-.41.88-.44.92l-.07.07-.14.2c-.03-.24-.07-.34-.07-.31,0-.14.07-.27.24-.44.24-.34.54-1.12.85-2.35.17-.68.27-1.29.31-1.84l.07-1.6ZM21.26,17.07c.1-.31.2-.55.24-.72.07-.17.1-.34.14-.44l.17-.65c.07-.31.1-.54.1-.78v-1.94l1.19.17h.92l.03.99c-.03.07-.03.14-.03.24v.14c-.17,1.87-.61,3.4-1.33,4.63l-.03-.07c-.17-.71-.65-1.26-1.4-1.56M19.25,12.48c.85.17,1.26.41,1.26.75,0,.1-.07.14-.17.14l-.17-.1-.51-.41-.41-.37ZM15.51,12.58l.38-.1.44-.1c.17-.07.54-.1,1.16-.1,1.5,0,2.28.54,2.31,1.63,0,.17-.1.41-.31.68l-.03.14c-.37.1-.65.17-.75.17-.41,0-.65-.14-.75-.44l-.1-.31.2-.48-.07-.34.1-.24-.07.07c.24.07.34.2.34.41,0,.1,0,.14-.03.17l-.31.37v.07l-.03.07c0,.24.17.37.48.37.51,0,.78-.27.78-.85,0-.34-.2-.65-.61-.92-.37-.24-.82-.37-1.33-.34l-.27.03c-.31,0-.54,0-.78.03l-.34.03h-.14c-.1,0-.2,0-.27-.03M8.4,13.64c.14.17.31.27.48.27.48,0,.71-.17.71-.54,0-.24-.14-.48-.41-.65-.31-.2-.61-.31-.99-.27l-1.02.07c-.1,0-.14-.07-.14-.17l.03-.1.78-.03.58-.03h.07c.44-.03.85.07,1.22.34.38.24.55.54.55.85,0,.24-.1.48-.31.68-.2.2-.44.31-.68.31-.31,0-.54-.07-.78-.24-.14-.1-.2-.17-.2-.27,0-.03.03-.1.1-.2M16.67,11.8l.65-.03c.1-.03.24-.03.37-.03h.51c.17,0,.27,0,.34.03.38.03.65.07.85.14.24,0,.41.03.51.07l.48.14c.1.03.24.07.37.14l.51.1c.38.14.51.34.48.58v.14c-1.05-.65-2.41-.99-4.08-.99h-.2c-.1,0-.17,0-.24.03l-1.46.2-.37.07.24-.14.27-.27c.17-.03.31-.07.44-.1l.34-.07ZM18.37,11.67l.72-.07.41-.03.24.07.51.07.58.14.44.07.72.2.95.14.58.03.34.03h.1c.24-.03.37-.07.48-.1l.41-.17c.1,0,.14.03.14.14,0,.17-.31.27-.89.31l-.48.03-.78-.03-1.74-.41-1.16-.17-1.16-.2-.41-.03ZM3.27,11.56c.58.65.92,1.5.95,2.52-.1,1.05-.54,1.87-1.33,2.38-.07.03-.17.03-.27.03h-.37c-.24,0-.41,0-.48-.03l-.44-.03v-.07h.07l-.03-.07-.07-.07.1-.1.07-.03c-.24-.37-.34-.71-.34-1.02,0-.65.31-.99.88-.99.17,0,.37.07.54.2.17.1.27.27.27.44l-.03.27.07.2-.24-.07-.27-.44c-.03-.1-.14-.17-.31-.17-.37,0-.54.2-.54.58,0,.54.31.82.92.82.44,0,.78-.17,1.05-.51.31-.34.44-.78.44-1.29,0-.65-.1-1.12-.27-1.43l-.31-.54-.07-.58ZM10.03,11.63l.95-.51.27.17.27-.14.17.38v.1c0,.44-.34.99-1.02,1.7l-.27.27.07-.27.54-.75c.1-.1.14-.24.14-.44,0-.37-.17-.54-.48-.54-.2,0-.31.1-.31.27,0,.14,0,.24.03.27-.24-.03-.37-.2-.37-.51M3.23,11.05l.17.14.1.1c.44.37.68.54.68.48v.14c-.1-.03-.17-.1-.24-.14-.1-.03-.17-.1-.24-.14-.2-.1-.37-.31-.48-.58M8.37,17.92c.03-.1.03-.17.07-.24v-.14c.1-.44.2-.82.31-1.12.1-.31.17-.51.27-.61l.54-.78.24-.37.14-.1.03-.03.2-.44,1.67-1.7.34-.54.27-.34.24-.51c.1,0,.24.03.41.14-.17.31-.31.51-.41.71-.1.14-.2.27-.31.37l-1.53,1.5-.1.17c-.1.1-.24.27-.41.51l-.78,1.05c-.51.65-.82,1.39-.92,2.18-.03.2-.1.31-.14.31h-.14ZM21.36,10.75l.1.34-1.36.31-3.84.27c.03-.1.1-.2.14-.24.07-.07.34-.14.82-.17l1.22-.07,1.23-.07.82-.1c.31-.07.58-.17.88-.27M12.65,10.48v-.03c0-.17.03-.24.14-.24l.03.03.31.14.41.1v.14c0,.1-.07.2-.24.31h-.07c-.31,0-.48-.14-.58-.44M2.96,10.1l.37.37c.07.1.14.14.17.17l.65.37v.41c-.85-.48-1.26-.85-1.26-1.09,0,.03.03-.07.07-.24M16.26,9.66c.1.1.14.2.14.37,0,.34-.1.61-.34.85l-.31.31.38-.17.2.07c-.34.95-1.33,1.53-2.99,1.77l.03.1.17-.03c.1,0,.14,0,.17-.03l.41-.03c.1-.03.14-.03.17-.03.14-.03.27-.03.41-.03.14-.03.27-.03.41-.03.71,0,1.4.2,1.97.58-.24.17-.51.27-.82.31.48.27.71.61.71,1.06,0,.65-.31.95-.95.95-.41,0-.58-.14-.55-.41v-.17h.1c.1.17.2.27.31.27.31,0,.44-.14.44-.44,0-.24-.17-.48-.48-.65-.34-.17-.65-.27-.92-.27h-.95c-.44-.03-.65-.17-.65-.44l.03-.24c-.55.03-1.05.2-1.53.51-.51.27-.95.68-1.36,1.16-.37.54-.72,1.12-1.02,1.84-.31.68-.51,1.43-.65,2.24l-.14-.88.03-.24s.07-.31.2-.75l.34-.95c.2-.65.71-1.36,1.53-2.07.82-.75,1.63-1.26,2.45-1.56v-.1h-.03c-.17.03-.24-.03-.24-.17,0-.24.2-.48.58-.68l1.9-.99.31-.34.14-.1.2-.41.17-.14ZM24.39,9.63l.14.27.03.14,1.09,2.79v.03c0,.1-.07.14-.17.14l-.1-.07-.37-1.12-.31-.72-.31-.75c-.1,0-.14-.17-.14-.51,0-.03.03-.1.14-.2M2.96,9.73c.31.2.54.31.78.31.17,0,.27-.07.31-.24.03.17.07.27.07.24,0,.17-.07.27-.24.27l-.27-.07c-.44-.14-.65-.31-.65-.51M7.48,10l.71-.68.14.1.03.03s.03.1.03.2c0,.2-.07.48-.17.82l.14.03-.1.24-.41.44-.14.17c-.1.14-.31.27-.68.44v-.14l.03-.1.14-.14.17-.17-.31.14v-.21l.31-.24.17-.2h-.14l-.34.27-.03-.37.03-.37-.03-.2.03-.14c.03-.07.07-.1.17-.1.03,0,.14.07.24.17M7.65,8.74h.03c.17,0,.27.07.27.24s-.07.24-.24.24-.24-.07-.24-.24l.03-.07.07-.1.07-.07ZM19.49,8.5l.27-.1c.51,0,.78.24.75.72v.44s.14-.03.27-.03l.07.03-.03.07-.03.2-.1.27c-.17.44-.71.75-1.7.85l-1.5.14-.54.03.48-.14.44-.14c.92-.17,1.53-.34,1.87-.54.31-.2.48-.51.48-.88,0-.44-.17-.65-.54-.65-.1,0-.2.1-.31.34-.1-.03-.14-.07-.14-.17s.1-.2.27-.34v-.1ZM7.14,8.43c.17.1.27.2.27.31,0,.17-.07.24-.24.24-.14,0-.2-.07-.2-.24,0-.03.07-.14.17-.31M14.93,8.78l-.27.2c-.1.03-.17.1-.17.14l-.1.1-.31.68-.03.03-.1.1c-.17.14-.31.2-.41.2-.17,0-.27,0-.31-.03-.24-.1-.34-.2-.31-.31v-1.53l.2.17.07.24.17-.03.17.27-.1.44.03.2c.27-.71.68-1.05,1.22-1.05.03,0,.14.07.24.17M7.65,8.3l.1-.03c.61,0,.92.41.92,1.23v.2c0,.1,0,.17-.03.24l-.07.34h-.14c.1-.17.14-.37.14-.58,0-.78-.31-1.12-.88-1.09h-.14l-.03-.17c0-.07.03-.1.14-.14M15.75,8.3l-.07-.27h.17l.17.31c-.03.17-.14.24-.31.24l.03-.27ZM16.73,8.33c-.1.1-.17.14-.24.14-.14,0-.2-.07-.2-.24s.07-.24.24-.24.24.07.24.2l-.03.14ZM25.03,7.82c.17.1.27.2.27.27v.07l-.07.14c-.07.03-.1.1-.17.2l-.24.37-.24.2-.2.34-.2.1-.17.2-.03.03c-.1.03-.14-.03-.14-.14l-.03-.24.17-.14.07-.1.34-.27.34-.55.31-.51ZM22.48,7.79c.78,1.43,1.26,2.86,1.5,4.29h-.27c-.17,0-.44-.03-.75-.03-.31-.07-.54-.07-.65-.07-.2,0-.34-.03-.44-.1l-.14-.44c-.03-.17-.07-.31-.1-.44-.03-.17-.07-.31-.14-.44l-.07-.2c-.03-.17-.07-.27-.1-.41l-.07-.2-.31-.58-.24-.48-.17-.34h.2c.58,0,1.16-.17,1.74-.54M23.98,11.6c-.14-.92-.51-1.97-1.09-3.2l-.31-.68.1.07.2.34.17.38c.31.54.54,1.05.68,1.53.2.48.31.92.41,1.29.1.37.14.58.14.61,0,.07-.07.1-.24.14l-.03-.24-.03-.24ZM7.14,7.79h.03c.24,0,.37.1.37.27s-.1.27-.27.27-.27-.1-.27-.31c0-.14.03-.2.14-.24M24.08,8.88c-.03-.07-.03-.17-.03-.34l.03-.1c0-.24.1-.48.27-.75.17-.2.38-.34.55-.34.78,0,1.19.75,1.19,2.25,0,.85-.2,1.6-.65,2.24-.03-.24-.07-.34-.07-.31l.07-.14c0-.1.07-.17.1-.31.03-.07.1-.17.14-.27.03-.1.07-.14.07-.17l.03-.31c.03-.17.03-.31.07-.41v-.24c0-1.43-.31-2.14-.88-2.14-.31,0-.48.17-.54.54l-.1.55-.24.24ZM15.75,7.52l.27-.24.17.03.03.1c0,.17-.1.24-.34.24-.07,0-.1-.03-.14-.14M17.45,5.58c.24.17.41.31.44.34.03.03.14.17.24.41.17.37.51.71.99.99.48.27.95.41,1.39.41.51,0,1.02-.17,1.5-.51-.31.61-.72.92-1.19.92-1.67,0-2.79-.85-3.37-2.55M24.08,6.5h-.07c-.14.03-.2-.03-.2-.2,0-.58.24-.85.68-.85.58,0,.85.34.85,1.02,0,.2-.07.44-.2.71l-.1-.03c.03-.07.03-.17.03-.27v-.27c0-.51-.17-.75-.54-.75-.27,0-.41.2-.44.65M17.28,7.75c.07.1.1.2.1.27v.17l-.41.95-.03.07c0,.31.2.48.61.48.54,0,.82-.31.82-.95,0-.31-.1-.65-.31-1.02l-.78-1.39c-.1-.17-.2-.44-.24-.75-.03-.03-.03-.1-.03-.2l.03-.03c.07,0,.1.03.14.14l.37.92.99,1.6c.24.37.34.78.34,1.29,0,.71-.48,1.09-1.46,1.12l-.34.03.07-.34-.44-.48c-.07-.07-.1-.17-.1-.31,0-.17.07-.34.2-.51.1-.17.2-.27.24-.38l.1-.2v-.14c.03-.27-.14-.41-.44-.41-.1,0-.17.03-.2.07l-.24.34h-.1c-.07-.03-.1-.07-.1-.17,0-.2.2-.34.65-.44l.03.1c.17,0,.37.07.54.17M14.32,7.62l.03-.41c.07-1.12.27-1.8.65-2.04l.54-.17h.07l.1.03v.2h.1c.51-.03.78.1.78.48,0,.1-.03.24-.1.41h-.14c-.1-.37-.34-.58-.72-.58-.58,0-.92.58-1.05,1.74l-.07.75-.07.37-.2.07.07-.85ZM25.44,4.8l.27-.1.07-.03c.1,0,.14.03.14.14l-.03.14.03.27c.03.07.03.14.03.24v.24c-.03.31-.03.58-.07.78-.03.2-.03.34-.07.44l-.07.2-.1.34c-.2-.1-.31-.17-.31-.24l.03-.14c.07-.14.1-.27.14-.48l.03-.61-.03-.82-.07-.37ZM12.92,4.66c.51.71.75,1.63.75,2.79,0,.44-.03.82-.14,1.12-.1-.1-.14-.17-.14-.24,0-.03,0-.14.07-.31,0-.14.03-.34.03-.65v-.27c-.03-.31-.1-.58-.14-.82-.03-.24-.1-.41-.14-.54l-.27-.75-.03-.34ZM13.71,4.15l.37.1.07.31.14.34.03.27v.31s0,.17-.07.41l-.54-1.73ZM7.21,4.25l.75-.07h.37c.07-.03.2,0,.37.03l.44.14c.17.03.27.1.31.14.1.03.17.1.2.14l.14.1s.07-.03.1-.14l.03-.24c0-.1.07-.14.17-.14.24,0,.48.27.65.75.17.54.27,1.16.27,1.9v.34c-.03.1-.03.24-.07.34l-.03.07c0,.07.03.1.14.1s.17-.24.17-.75c0-.27-.03-.54-.1-.82v-.14s.07-.27.24-.65c.1.14.17.2.24.2h.1c.1-.51.37-.92.88-1.16l.03-.1.1.03.17,1.46s-.03.14-.07.37c-.03.24-.03.41-.07.48l.1.03s.1-.07.17-.17c.03.07.03.2.03.37,0,.2-.03.41-.14.61-.34,1.09-.71,1.87-1.09,2.31l.2-.44-.1-.03c-.31.71-.75,1.26-1.36,1.7l-.24.17.54-.71c.71-1.05,1.12-2.11,1.26-3.16l-.14.07c-.51,2.48-1.33,3.84-2.45,4.15.34-.38.58-.75.72-1.12h-.07c-.03.1-.1.24-.17.31-.07.14-.14.2-.17.31l-.17.2c-.17.24-.27.38-.37.44-.07.03-.27.1-.61.2.99-.99,1.5-1.9,1.46-2.79v-.17l-.07-.72v-.24l-.1-.14-.07.1.1.65v.14l.03.1c0,.07,0,.17-.03.34-.04.14-.07.31-.1.54-.2.92-.65,1.6-1.33,2.11-.17.1-.27.14-.34.14h-.44l.24-.07.37-.34.27-.27.31-.41-.07-.17c-.58.92-1.16,1.4-1.73,1.4-.1,0-.17-.03-.17-.14,0-.07.14-.17.38-.27.1-.03.17-.07.24-.14l.41-.34.27-.24c.34-.27.51-.75.51-1.46,0-.51-.17-1.02-.51-1.46l-.48-.68c-.1-.14-.17-.41-.2-.78l.41.1.03-.07.03-.07s-.07-.1-.17-.24c-.14-.07-.2-.17-.2-.2l-.34-.78c-.1-.17-.14-.31-.14-.44l-.03-.27-.03-.37ZM13.71,8.88l-.1-.14c0-.17.03-.38.07-.72.07-.27.1-.54.1-.71,0-.71-.03-1.22-.14-1.5l-.14-.48-.24-.61-.34-.65h.2l.31.1.17.37.27.65c.1.41.17.75.2,1.06l.07.44v.37l.03.51v.14c0,.34-.03.58-.07.65-.03.14-.17.27-.41.51M11.43,4.93c-.17-.14-.24-.24-.24-.34,0-.37.24-.54.71-.54.17,0,.34.07.54.2l-.31.2h-.41c-.17,0-.27.17-.31.48M25.44,4.08l.34-.2h.03c.1,0,.17.07.17.2,0,.34-.24.51-.68.51-.31,0-.48-.1-.48-.34l.03-.03.58-.14ZM2.92,3.81l.1.07v.2c-.03.24.07.44.34.54l-.24.03c-.24.03-.34-.1-.34-.41,0-.14.03-.27.14-.44M2.18,12.04c-.07-.51-.14-.85-.2-1.06l-.75-2.21v-.14c0-.1,0-.2-.03-.27-.03-.17-.03-.27-.03-.37v-.68c0-.24.03-.65.1-1.26.03-.17.07-.31.1-.41.03-.1.03-.2.07-.27l.44-1.12.37-.61.2.03h.17l.1.1c0,.07-.14.34-.37.78-.14.24-.2.65-.2,1.19v.34c0,.14,0,.24.03.31.03.41.17.78.41,1.09.2.31.44.48.68.48h.14c.07-.03.14-.03.24-.07.07-.1.1-.17.1-.27,0-.17-.1-.31-.27-.41l-.82-.51c-.17-.14-.27-.44-.27-.92,0-.58.27-.89.85-.89.17,0,.31.07.48.24-.03-.03-.17-.03-.34-.03-.41,0-.61.2-.61.65,0,.17.07.31.17.37l.78.44c.34.17.51.44.51.78,0,.65-.27,1.05-.85,1.26.37.24.58.48.58.68,0,.17,0,.27-.03.34l-.34-.17-.44-.1-.24-.1-.31-.65-.58-.72-.03-.07-.03-.14c-.03-.27-.14-.41-.24-.41-.03,0-.07.03-.07.14,0,.17.03.31.14.41l.65.88c.17.17.27.48.34.95v.48l-.34.03-.03.14.44.44s.1.14.14.31c.14.41.2.75.2,1.02v.37l-.41-.03-.03.44-.27.37-.03.07-.44.24-.14.03c-.51,0-.75-.24-.75-.71l.31-.75v-.1c0-.14-.07-.2-.17-.2s-.14,0-.17.03c.17-.14.31-.2.48-.2s.27.14.27.44c0,.1,0,.17-.03.2l-.41.61-.03.07v.03c-.03.17.1.24.34.24.17,0,.31-.1.41-.27.1-.17.17-.34.17-.51v-.14c-.03-.07-.03-.17-.07-.27M8.4,3.61l2.38-.1h.61c1.94-.03,3.54.24,4.8.85,1.26.58,2.48,1.6,3.64,3.06-.14-.07-.2-.1-.24-.14-.1-.03-.34-.31-.78-.82-.72-.78-1.67-1.43-2.93-1.94-1.46-.51-2.76-.78-3.88-.75l-5.2.24.14,18.77.14.27c-.31-.07-.51-.38-.54-.88l.03-12.28-.03-.61v-2.18l-.03-.48.03-1.33-.03-.99c.07-.37.17-.58.34-.58l.89-.07.68-.07ZM20.99,2.79c.17.1.31.2.37.27l.14.1.65.1c.31.07.54.24.71.48.03.1.1.14.2.14h.03c.07-.27.27-.41.65-.41l.03.54.1.54v.27c-.03.1-.03.2-.07.37l-.07.31-.07.34-.07-.38v-.07l-.03-.2-.1-.03.07.68v.03c.03.37-.17.75-.58,1.12.17-.34.24-.68.24-1.05,0-.75-.14-1.12-.41-1.12l-.03.03s.1.24.27.54c.03.17.07.34.07.51,0,.58-.2,1.12-.58,1.56h-.07c.24-.58.37-.99.34-1.19v-.31h-.1c-.03,1.19-.41,1.84-1.12,1.97.48-.44.71-.95.71-1.53,0-.31-.1-.54-.27-.65l-.68-.41c-.1-.03-.27-.2-.44-.48.24-.14.44-.2.61-.2.1,0,.2,0,.27.03l.07-.14c-.65-.24-.92-.68-.89-1.26v-.24l.03-.31ZM1.5,2.82l.41.14c.14.03.27.1.44.14.78.2,1.36.61,1.7,1.26l-.2-.14-.07-.07c-.24-.17-.41-.31-.51-.41-.14-.07-.24-.1-.27-.14l-1.12-.34c-.17-.03-.27-.2-.37-.44M22.24,2.72s-.1.03-.24.03c-.17,0-.24-.07-.24-.2,0-.17.1-.27.27-.27s.24.1.2.31v.14ZM21.53,2.82c-.24-.07-.34-.17-.34-.31s.07-.2.2-.2.2.07.2.2c0,.03-.03.14-.07.31M4.42,20.88l-.03-15.37c0-1.46-.82-2.35-2.45-2.65-.31-.03-.44-.1-.44-.2,0-.17.2-.27.61-.31h.44l3.5.17,3.5-.14h3.84c.99.1,1.8.2,2.45.34.65.17,1.16.34,1.53.51l.58.34.58.31.95.58.51.44.31.2.95,1.02.65.82.03.03c0,.07-.07.14-.24.2-.58.24-.99.37-1.29.37s-.54-.17-.78-.54c-.07-.1-.14-.17-.24-.27-.07-.1-.14-.17-.24-.27l-.44-.41c-1.8-1.67-3.81-2.52-6.02-2.62l-1.16-.03-4.05.17c-.51.03-.82.1-.88.17-.14.14-.17.37-.17.78l.03,15.78v1.43c0,.14,0,.24-.03.31,0,.82.31,1.19.92,1.16l.54-.03,2.24.14.85-.03h1.19c2.08.03,4.01-.61,5.88-1.97.1.58.34,1.09.65,1.5-.65.31-1.26.61-1.84.82-.54.27-1.06.44-1.53.54-.92.24-2.11.34-3.64.31l-5.95-.2-3.3.03c-.24,0-.41-.03-.54-.1-.14-.07-.2-.14-.2-.2,0-.03.1-.1.27-.14l.75-.1c.51-.07.95-.37,1.22-.88.34-.51.48-1.19.48-1.97M20.99,2.24l.14-.34.07-.03c.17,0,.24.07.24.17,0,.17-.1.24-.27.24l-.17-.03ZM21.67,2.21l-.1-.1c0-.24.27-.34.78-.34h.17c.07.03.17.03.27.07l-1.12.37ZM8.64,1.97l.03.14.1.1-.31.07c-.17,0-.24-.1-.24-.27,0-.24.14-.34.44-.34h.1c.1,0,.2,0,.27.03l.31.07.41.1h-.48l-.27-.03c-.1,0-.2.03-.37.14M20.58,2.93l.03.17c.03.48-.24.71-.82.71-.51,0-.78-.27-.78-.82,0-.17.03-.34.1-.48.27-.54.68-.85,1.19-.92l.68-.07.1-.03.1.03c-1.16.27-1.73.71-1.73,1.29,0,.37.17.58.48.58.17,0,.41-.17.65-.48M7.38,2.18c-.17.1-.31.14-.44.14-.48,0-.71-.14-.71-.37,0-.31.41-.44,1.19-.44h.48l-.2.07h-.14c-.51.07-.75.2-.75.37,0,.1.2.17.58.24M24.59,1.56c.24-.37.51-.54.85-.54.31,0,.48.14.48.41v.1c-.1-.17-.24-.27-.37-.27-.17,0-.27.14-.34.44l.1.41.2.27c.14.2.2.48.24.85-.03.51-.27.75-.78.75h-.1l-.03-.03c-.1-.03-.34-.34-.78-.95-.17-.24-.37-.34-.68-.34-.24,0-.34.07-.34.2,0,.1.03.2.1.34h-.2c-.31,0-.44-.17-.44-.55,0-.31.2-.44.65-.44h.1c.17,0,.27-.03.27-.07l-.03-.14c.34.03.68.2,1.06.44l.1.14.1.1c.1.38.17.55.27.55.07,0,.1-.07.1-.17,0-.17-.2-.44-.65-.82-.2-.2-.31-.37-.31-.51,0-.2,0-.34.03-.37l.41.2ZM23.84,1.53c-.27-.17-.41-.27-.41-.34,0-.1.03-.14.14-.14-.1,0,0,.14.31.37v.07l-.03.03ZM23.91,1.87l-.48-.03-.95-.34h-.27l-.48-.14s-.14-.03-.34-.03c-.85,0-1.6.14-2.18.44-.65.27-1.02.58-1.16.95-.1.34-.2.51-.27.51l-.03-.03-.1-.03-.17-.14.07-.14c.03-.1.14-.24.24-.41.17-.31.51-.58,1.02-.85.82-.41,1.5-.61,2.07-.61h.31c.38.07.58.1.65.1h.1c.17-.03.27-.07.24-.07l.1.1,1.16.37.48.27v.07ZM12.04,2.07l-.14.03c-.34.03-.51-.17-.51-.65,0-.31.17-.44.51-.44.2,0,.37.14.51.37l-.03.2c-.14-.24-.27-.37-.37-.37-.17,0-.27.1-.27.34,0,.17.1.34.31.51M19.32,1.16l-.31.17-.24.1-.61.44-.14.03-.65.34c-.41.2-.78.31-1.16.31-.24,0-.44-.1-.58-.24-.2-.2-.27-.37-.27-.58,0-.51.24-.75.68-.75.27,0,.44.1.51.27l.1.24.17.14-.2.14c-.24-.24-.41-.34-.51-.34-.17,0-.24.1-.24.31,0,.34.2.51.61.51.27,0,.68-.14,1.26-.37.37-.17.65-.31.82-.44.17-.07.31-.14.34-.17l.41-.1ZM13.3,1.02h.2v.27c.27-.2.51-.31.71-.31.54,0,.82.24.82.75,0,.34-.17.51-.51.51-.1,0-.17-.07-.27-.2h.1c.27.03.41-.07.37-.31v-.07c0-.1,0-.14-.03-.17l-.14-.1-.07-.07s-.1-.07-.2-.07c-.51,0-.78.31-.85.88-.03.03-.14.03-.31.03s-.24-.07-.24-.24l.03-.51.38-.41ZM6.87.95l.34.03c.99.03,1.67.1,2.07.2.17.03.41.14.71.24.31.1.72.27,1.16.51l.34.14-.61.07-1.16-.51c-.61-.31-1.39-.41-2.35-.37l-.2.03-1.12.14c-.24.03-.41.07-.54.1-.1.03-.2.03-.24.07-.17.1-.34.17-.44.2-.1.03-.2.07-.24.1-.2.03-.31.07-.34.1l-.03.1c-.03.1-.1.14-.2.14h-.2c-.07-.03-.17-.03-.27-.07.92-.65,1.67-1.02,2.25-1.05l.82-.07.27-.1ZM5.17,1.12l-.54.17-1.63.71-.71.14h-.17c-.24,0-.48-.07-.71-.17-.24-.14-.37-.31-.37-.51,0-.34.31-.51.88-.51.51,0,.75.1.75.31v.07l-.07.07h-.03l-.17-.17c-.1-.07-.17-.1-.27-.1s-.24.03-.41.14c-.1.03-.17.1-.17.17,0,.31.27.44.78.44.37,0,.65-.03.82-.1l1.4-.54.65-.1ZM.82,26.39h25.54V.85H.82v25.54ZM.41.41h26.39v26.39H.41V.41ZM0,27.21h27.21V0H0v27.21Z" fill="#231f20"/>
    </g>
  </g>
</svg>