<?xml version="1.0" encoding="UTF-8"?>
<svg id="Layer_1" xmlns="http://www.w3.org/2000/svg" width="27.21" height="27.21" xmlns:xlink="http://www.w3.org/1999/xlink" viewBox="0 0 27.21 27.21">
  <defs>
    <clipPath id="clippath">
      <rect width="27.21" height="27.21" fill="none"/>
    </clipPath>
    <clipPath id="clippath-1">
      <rect y="0" width="27.21" height="27.21" fill="none"/>
    </clipPath>
  </defs>
  <g clip-path="url(#clippath)">
    <g clip-path="url(#clippath-1)">
      <path d="M25.68,25.78l-.44.03.17.1.27-.07v-.07ZM10.27,24.83l-.07.07-.03.07s.03.1.14.17l.1.17h.07l-.03.03.07-.03.1-.17-.1.07-.07-.07-.17-.31ZM16.46,25.34c.17-.24.24-.37.24-.48l-.07-.1s-.07.07-.07.17v.07c0,.1-.03.17-.1.27l.07-.03-.07.1ZM15.37,24.22v.03l-.1.03-.51.54c0,.07.03.1.14.1s.24-.1.37-.27c.1-.1.14-.17.14-.27l-.03-.17ZM16.02,24.01l-.03.14-.07-.1-.17.31c-.1.17-.27.37-.58.65l-.2.14-.14.1.14.07c.1-.03.17-.1.24-.14l.2-.14.24-.27c.2-.17.34-.44.38-.75M10.85,23.81c0,.24.07.41.2.58l.17.17c.1.1.2.24.37.41l.37.07-.14-.14-.2-.14-.07-.03-.14-.14-.14-.34v.07l-.14-.17-.31-.34ZM12.28,22.31l-.2-.07-.03.07.27.2.17.31.17-.1.03.03-.27-.34-.14-.1ZM15.1,21.9l-.03-.1-.31.1-.24.14-.17.17-.17.34-.03.07-.03.07.1.07.1-.1.41-.54-.03.07.24-.1h-.17l.34-.17ZM23.98,21.73l-.41.2h.2l-.03-.03c.14-.03.2-.07.24-.17M12.45,21.87l-.54-.14.03.14-.03-.03.27.14.14.07.17.14.2.2.1.14.07.17h.2l-.1-.2-.1-.1-.03-.1-.27-.24-.1-.17ZM2.28,21.53l.24.61.14-.24-.37-.37ZM13.4,21.29l-.14.07-.07.1.1.1c.1,0,.14-.03.14-.07,0-.1,0-.17-.03-.2M24.73,21.16h-.14l.14.17.03-.07h.1l-.14-.1ZM3.98,20.95l-.03.07.54.17h.1l-.61-.24ZM13.33,20.92h-.1v.1l.07.1h.17l.07-.17-.2-.03ZM2.86,20.2l-.31.1c-.17,0-.27.24-.27.71h.14l.03-.31c0-.1.03-.14.1-.14l.14-.1.03-.07.24-.1.03-.07-.14-.03ZM4.46,18.4l-.27.1.17.14.2-.07.03-.07c-.03-.17-.07-.24-.07-.17l-.07.07ZM6.63,18.13l-.2-.07.14.27.44-.14-.41-.03.03-.03ZM4.76,17.92l-.14-.03c-.07.1-.1.2-.1.24s.07.07.2.1c.1-.07.17-.1.17-.14l-.03-.07-.1-.1ZM5.71,17.86c-.1,0-.14.1-.14.27s-.07.34-.2.44c-.17.1-.24.17-.24.2l.03-.03-.07.2c.41-.17.61-.51.61-1.09M5,17.45l-.14.17s-.03.1.07.14l.24-.03-.03-.2.03.14c-.03-.14-.1-.2-.17-.2M4.15,16.73h-.07l-.07.41v.1l.03.03.17.24-.07-.38.03-.17-.03-.24ZM3.94,16.67l-.14-.03-.14.27-.03.1c0,.1,0,.2.03.24l.14.37.03.2.07.34.07-.61-.1-.2s-.03-.14-.03-.31c0-.07.03-.2.1-.38M3.78,15.31c.03.24.2.41.44.48v-.07l.03-.07-.31-.17v-.1s-.03-.07-.14-.07h-.03ZM23.13,14.18l.14.2-.14-.34-.17-.07.17.2ZM17.41,13.03l-.07.2.07.27-.1.03-.03-.07-.03-.14-.07.03-.03-.03c.03.24.14.37.31.41l.03-.07h.44l-.03-.1v.1-.24l-.27.03v-.07l-.07-.03-.14-.34ZM10.68,13.33l.17-.1v-.1c0-.1-.03-.14-.14-.14-.07,0-.1.1-.1.27l.07.07ZM7.65,13.03h.07l.1-.07v-.2l-.24.17-.37.07c-.38.07-.65.24-.85.54l.07.07.48-.34c.1-.03.2-.1.31-.14.1-.03.27-.07.44-.1M7.01,12.65l-.75.58.24-.03.48-.27.1-.07-.07-.2ZM19.25,12.72l-.37.2.17-.2.34-.03-.14.03ZM10.34,12.72l-.03.37.07-.03c.1,0,.14-.07.14-.24l-.14-.1h-.03ZM9.9,12.55c.03.14.07.2.07.17,0,.07-.07.14-.2.24l.03.07v-.03c.24,0,.38-.07.38-.2,0,.03-.03-.07-.07-.24l-.17-.07-.03.07ZM17.28,12.62l.17-.03.17-.2-.03-.03-.31.27ZM9.35,12.11l.03.1c.1.17.14.27.14.34l-.07.03-.2.17.07.17c.24-.03.37-.14.37-.31,0,.03-.03-.07-.07-.31l-.27-.2ZM17.92,11.94c.07-.07.17-.14.27-.17.03-.03,0-.07-.1-.14l-.14.07-.17.1-.31.17c-.1.1-.17.14-.24.17l-.1.2-.14.31h.1l.07-.2.31-.31.1-.07.24-.1.1-.03ZM7.01,11.33v.07l.41.14v-.1l-.07.03-.34-.14ZM14.28,8.81l-.07.03-.07.1-.24.1.27.03c.17-.03.24-.14.24-.31,0-.1,0-.14-.03-.17l-.1.2ZM14.08,8.33l-.1.07c-.07.17-.2.27-.37.34l.2.07c.17-.07.27-.2.27-.38v-.1ZM15.48,7.35l-.07.17-.07.14-.2.03-.27.07.2.1h.14l.2-.03c.1-.1.17-.2.17-.24l-.1-.24ZM14.11,7.45l-.34-.51.14.44.17.31.27.34.2.2.1.03.24.07-.14-.27-.41-.2-.24-.41ZM15.88,7.69l.07-.27c0-.1-.03-.14-.07-.14l-.07-.07c0,.17.03.34.07.48M5.2,7.24l-.1-.03c-.14,0-.2.07-.2.2l.1.1h.14l.1-.17-.03-.1ZM6.33,7.21l-.75-.07-.03.1s.07.07.17.07h.07s.14.03.27.03c.17,0,.24-.03.27-.14M16.09,7.35l-.1.61.17-.1s.03-.1.03-.2-.03-.34-.1-.65h-.07l.07.34ZM3.78,6.94l.03.14.2.07c.14.07.2.07.24.07l.1-.1-.14-.03c-.14-.07-.27-.1-.44-.14M1.5,6.87v.2l.14.03h.07s-.1-.14-.2-.24M1.5,6.5l-.07.1.07.1h.14l.03-.07-.07-.14h-.1ZM22.86,6.19l-.07-.03-.07.07v.03l.03.07.03-.07.07-.07ZM5.41,6.6c.24,0,.37-.1.37-.27l-.03-.07c.14,0,.03.1-.34.34M22.92,5.58l-.1.24.17.03-.07-.27ZM10.82,4.35h.17l-.1-.27-.1-.1h-.1.03l-.03.07.17.37h.1l-.14-.07ZM11.16,3.98l-.14-.07-.03.1.07.07.1.31.14-.03.03-.03s-.07-.17-.17-.34M16.05,3.57l.03-.27-.37.27s-.17.03-.54.14l.07.14c.31-.03.58-.14.82-.27M24.52,2.45c0,.24.07.48.24.72l.17.07-.1-.2-.31-.58ZM10.82,2.62c-.03-.1-.07-.14-.14-.14-.24,0-.41.24-.54.68h.24c.07-.24.2-.41.41-.51v-.1l.03.07ZM12.82,2.41h-.14s-.03.07-.07.17l-.14.07-.17.07c.27,0,.44-.1.51-.31M9.93,2.82c.24-.17.38-.31.38-.34l-.1-.14c-.1,0-.21.14-.31.41l.14.07h-.1ZM17.55,2.28h-.1l-.03.07-.07.14.2.2c.1-.1.17-.2.17-.31l-.17-.1ZM17.86,2.11l.14.07c.1,0,.14-.03.14-.1,0-.1-.07-.17-.17-.17-.03,0-.07.07-.1.2M11.02,2.07l-.41-.2c-.1,0-.14.03-.14.1.31.14.48.24.51.27l.07-.1.03.03-.07-.1ZM18.6,1.8l-.17-.1c-.1,0-.14.03-.17.1.03.14.07.2.14.2l.2-.2ZM18.91,1.6l-.2.03.07.17.14-.2ZM1.8,25.92l.41.03h-.24l-.07.03c-.03.1-.1.17-.2.17l.1-.24ZM1.39,25.27l.1-.03.07-.03c.17,0,.24.1.24.34,0,.17-.1.27-.27.27-.21,0-.31-.1-.31-.27,0-.07.07-.17.17-.27M2.55,25.2l.24.14.03.03c0,.24-.1.34-.34.34-.14,0-.2-.07-.2-.2,0-.1.1-.2.27-.31M25.71,24.69c.17.03.24.1.27.24.14.17.2.31.2.41,0,.48-.27.72-.85.72-.2,0-.44-.1-.68-.27l-.17.27-.07.03-.17-.1-.03-.1-.07-.03-.07-.07-.14-.51-.2.14-.1.24-.14-.1-.07-.1-.07-.1c-.14-.2-.2-.37-.2-.48s.07-.14.2-.14c.17,0,.31,0,.34.03l.65.1.17.34c.17.2.41.31.75.31.07-.03.17-.1.31-.2s.2-.2.2-.31c0-.03-.03-.14-.07-.31M1.97,25.13l.03-.14c0-.17.24-.27.75-.24h.07c.17,0,.37.03.61.1.1.03.14.03.14.07l-.24.14-.61-.14-.24.03-.51.17ZM4.42,24.73c0,.24.1.37.31.48l.07.03.07.07c-.03.1-.07.17-.17.2l.14.17h.2c.37.03.58-.1.58-.48,0-.1-.03-.24-.14-.41.03-.03.07-.03.17-.03.14,0,.2.1.2.34,0,.58-.24.88-.71.88h-.1l-.54-.17-.27.24s-.17,0-.41-.03c-.24-.03-.37-.07-.41-.07.24-.24.51-.41.88-.51h-.03c-.07-.24-.1-.37-.1-.41,0-.07.1-.17.27-.31M1.57,24.18c.17.03.24.1.24.2,0,.31-.14.44-.38.44-.17,0-.24-.07-.24-.2,0-.31.1-.44.34-.44h.03ZM25.1,23.98c.1.03.17.1.17.17,0,.34-.37.48-1.09.44l-1.67-.17-2.55.07h-.03c-.71,0-1.12-.14-1.16-.37h.1c.34.1.61.14.82.14l1.67-.07,2.48.1.72-.03h.27l.07-.03.14-.1.07-.14ZM2.24,24.11c.34.1.58.14.68.14l2.28-.1,1.77.07.24-.17v-.03c.1,0,.14.07.14.17,0,.24-.24.34-.72.34-.17,0-.27,0-.31-.03l-.51-.07h-.24l-2.96.03c-.27,0-.41-.07-.41-.2l.03-.14ZM25.82,23.81l.07-.03c.17,0,.24.07.24.2s-.07.2-.24.2c-.1,0-.17-.07-.17-.2l.1-.17ZM18.37,24.49l.17.17c0,.1-.14.14-.41.14-.24,0-.34-.14-.34-.41,0-.34.1-.58.27-.68l.34-.24v-.03l.07.03c-.24.44-.37.68-.37.71,0,.17.1.27.34.31h-.07ZM25.54,23.4l.03-.1c0-.07.07-.1.17-.1s.17.07.17.17c0,.14-.1.2-.27.2-.07,0-.1-.07-.1-.17M24.93,23.13l.31.14.1.1c0,.1-.03.14-.14.14s-.2-.03-.31-.14l.03-.24ZM9.25,23.16l.27.14.14.14.07.07.17.17c.17.2.34.44.44.75l.14.51c.03.1.2.34.44.65l.31.24.1.1-.03.07c-.07.03-.17.03-.31.03-.17,0-.48-.14-.85-.38l-.14-.03-.34.31c-.24.17-.51.27-.85.27-.31,0-.54-.07-.78-.24l-.85-.72s-.07-.03-.17-.03c-.27,0-.44.2-.48.58-.1-.1-.17-.21-.2-.34.03-.37.27-.58.65-.58.1,0,.17.03.24.1l.68.61c.17.17.41.24.71.24.1,0,.27-.07.44-.17l.1-.03.2-.2.1-.2c.03-.1.03-.24.07-.34v-.34c0-.2-.03-.34-.14-.44l-.17-.31c-.1-.03-.14-.07-.14-.17,0-.03.07-.17.17-.44M16.33,25.03l.14-.37.17-.58c.17-.58.61-.95,1.26-1.12l.34-.07.37-.07h.27l.78-.07h.1c.17-.03.27,0,.27.14,0,.1-.1.14-.31.14l-.51-.03h-.07c-.37,0-.75.14-1.09.48-.34.27-.58.68-.71,1.12l.1.41.31.31.07.03.17.1h.2c.27,0,.55-.07.85-.24.17-.14.27-.2.31-.24l.41-.14h.34c.07-.03.17-.03.27-.03.51,0,.78.14.78.37,0,.17-.2.34-.58.48l.1.24h.27l.2-.07.65-.51.27-.17c.17-.1.31-.14.44-.14.17,0,.37.14.54.37l.07.27c0,.31-.17.48-.54.48-.1,0-.14-.03-.17-.14l.1-.07c.1-.1.17-.17.17-.2l-.03-.2-.14-.07-.14-.07c-.24,0-.41.07-.58.2l-.75.51c-.1.07-.27.1-.44.1-.44,0-.65-.1-.65-.34,0-.1.07-.21.17-.31.24-.07.34-.17.34-.27,0-.17-.1-.27-.34-.27-.2,0-.37.07-.48.17l-.48.58c-.24.27-.61.41-1.06.41-.27,0-.54-.1-.78-.27l-.2-.27-.14-.31-.14.03c-.17.38-.51.58-1.02.68l-.03-.14.07-.03.27-.34.17-.48ZM6.33,23.03l.03-.1h.37l.75-.07.24-.03.34.03c.24,0,.37.07.34.24v.17c-.2-.03-.34-.07-.37-.1-.44-.1-.71-.14-.85-.1h-.24c-.1.03-.24.03-.34.03h-.07l-.07-.03-.14-.03ZM25.99,22.65h.1c.07.03.1.1.1.2,0,.17-.07.24-.17.24l-.07-.17c0-.14,0-.24.03-.27M25.24,22.52h.17c.07,0,.14.03.17.14.07.1.1.17.1.27,0,.14-.1.2-.27.2-.2,0-.31-.1-.31-.34,0-.17.07-.24.2-.24l-.07-.03ZM24.62,22.92c0-.27.07-.41.24-.41.03.03.03.14.03.31,0,.14-.07.2-.17.2l-.1-.1ZM4.05,22.58c-.1-.03-.2-.07-.27-.14l.03-.14.2.1h.03v.17ZM25.71,22.01h.37s.03.1.03.2c0,.17-.1.27-.27.27s-.24-.07-.24-.24c0-.1.07-.17.2-.2l-.1-.03ZM25,21.87h.24c.1.03.14.1.14.27s-.07.27-.24.27c-.14-.03-.2-.14-.2-.37,0-.1.14-.17.41-.17h-.34ZM7.45,21.97l.03.14-.61.07.34-.1.24-.1ZM3.57,21.36l.2.1c.27.24.44.37.58.44l.17.1c0,.17-.1.27-.34.27.03,0-.07-.07-.34-.2l-.1-.14-.1-.14-.07-.44ZM15.99,21.05v.51l-.07.27-.03.34.44-.17c.31-.1.48-.17.51-.17.1,0,.24.03.41.07.17.03.34.14.51.24l.2.17c-.61.2-1.02.48-1.22.85l-.85,1.56c-.17.37-.51.65-1.02.85-.1.07-.24.1-.34.1-.2,0-.34-.14-.37-.37l-.2.1-.24.51s-.07.03-.1.14c-.07.1-.24.14-.48.14-.17,0-.27-.07-.27-.17,0-.03.03-.1.14-.17.14-.24.24-.44.27-.65l-.14-.1c-.31.31-.58.44-.88.44-.51,0-.92-.34-1.29-1.05l-.07-.2-.1-.27-.03-.17-.03-.07-.03-.1-.07-.2-.03-.03-.14-.17-.24-.31-.07-.03c-.31-.14-.51-.2-.55-.2-.41,0-.65.24-.68.68l-.03.92c-.03.27-.2.41-.48.41-.1,0-.17,0-.2-.03-.17-.07-.27-.14-.31-.24l-.03-.2h.34l.27-.2.14-.27v-.82c0-.51.31-.92.92-1.26.17-.07.31-.1.44-.1l.14.03c.07,0,.17,0,.27.03l.24.17c.17.07.27.2.34.37l.2.34.14.07-.1-.27c-.14-.27-.2-.44-.2-.54,0-.03.03-.2.1-.48.03-.1.07-.17.1-.2.07,0,.14.03.24.14l.78.34.03.03h.1l.44.34.17.17.27.44c.1.38.14.71.14.99,0,.1.03.17.07.17l.14-.03c.03-.07.03-.14.03-.24v-.24c.03-.31.17-.61.41-.95l.14-.2.2-.24c.2-.2.48-.37.78-.48v-.03l.58-.27h.27ZM17.52,20.1l.03-.03.03-.03c.27,0,.51.17.68.51l.41.51h-.14s-.14-.07-.24-.17l-.17-.2c-.1-.1-.17-.14-.24-.14l-.07.1c0,.17.1.37.34.61l.2.2.27.2.24.14.24.07.31.14-.1.07c-.1,0-.24-.03-.41-.14-.31-.1-.58-.27-.82-.51l-.34-.37-.17-.27-.17-.61.1-.07ZM25.14,19.96v-.03h.17l.27.2.03.2c-.1.17-.17.31-.2.41-.17.24-.27.44-.37.61-.1.17-.14.27-.17.31l-.14.34-.14.2s-.1.1-.1.24l-.14.34-.1.34-.1-.07-.2-.17-.07-.07.1-.51.55-.61.07-.14-.07-.07-.1.03-.58.48c-.07.07-.14.1-.24.1s-.2-.03-.37-.1l.1-.24c-.2-.03-.44-.17-.68-.34-.03-.1-.03-.2-.07-.27v-.14c0-.1.03-.17.1-.17-.07,0,.07.1.37.31l.2.07h.14c-.1,0,.1-.03.54-.1l.51-.31.41-.41.27-.44ZM8.91,20h.1c.17-.03.27.03.27.27,0,.75-.58,1.33-1.73,1.77v-.1s.1-.1.27-.2c.1-.03.31-.14.54-.31l.31-.31.14-.17c.07-.1.1-.17.1-.24l-.07-.17c-.03-.1-.1-.14-.14-.14-.17,0-.31.17-.41.51-.07.17-.14.24-.24.24h-.03l.27-.61c.07-.17.2-.34.44-.44l.17-.1ZM15.24,19.25l.14-.03c.1,0,.2.03.31.14l.27.2.1.07.03.07.61,1.12.37.51.2.34-.44-.27-.27-.31-.03-.14-.1-.1-.31-.48c-.38-.37-.65-.55-.88-.55-.34,0-.51.14-.51.41,0,.1.07.2.24.37l.51-.1c-.14.27-.27.41-.44.41-.44,0-.68-.24-.71-.71v-.07c.1-.44.27-.68.51-.78l.41-.1ZM10.58,19.66c.31-.31.58-.48.82-.48.2,0,.37.1.58.27.14.17.24.37.24.58,0,.17-.07.31-.24.48-.17.17-.34.24-.51.24-.1,0-.2-.03-.31-.14.24-.07.37-.2.44-.37l.1-.14v-.03l-.07-.17c-.17-.1-.31-.17-.37-.17-.24,0-.41.1-.54.31l-.41.65-.24.27c-.07.1-.14.17-.17.2l.68-1.5ZM22.04,19.42v-.34l.2-.27.1-.1.07-.1.1.1-.17.31.1.31c.2.03.31.1.31.14,0,.17-.1.27-.34.27-.14,0-.24-.07-.34-.2l-.03-.1ZM21.94,18.43l.14.07c-.1.24-.2.44-.24.54-.07.1-.1.24-.1.34,0,.17.03.34.14.51.24.27.44.41.68.41.14,0,.24,0,.27-.03l.17-.07-.2-.1v-.07c0-.17.1-.31.31-.38.24-.1.37-.2.37-.34.07-.17.1-.24.14-.24.1,0,.14.07.14.17s-.1.41-.27.92l.14-.03.1-.1.14-.03.24-.07h.24l.14.03c.1,0,.17,0,.24.03l.03.1h-.1l.07.03c-.31.03-.55.14-.65.31l-.14.17c-.07.1-.2.17-.44.17-.2,0-.31-.07-.27-.24v-.07l-.14-.03-.34.1s-.14,0-.31-.03l-.27-.07c-.17-.03-.34-.14-.44-.31l-.14-.2c-.07-.24-.1-.37-.1-.48,0-.17.03-.31.14-.48l.34-.54ZM16.43,18.3l.31.31.1,1.09c.03.31.27.75.68,1.26v.03l.68.71.14.14,1.36.44.07.07.17.17-.03.17-.44-.1c-.71-.14-1.23-.34-1.53-.61l-.14-.1-.14-.17-.27-.34-.14-.17-.07-.14-.07-.07v-.03l-.17-.31-.24-.31-.17-.58-.14-.58.03-.88ZM9.59,18.3c.03.07.03.17.03.27s-.1.27-.27.44c-.88.82-1.97,2.04-3.26,3.67v.38l-.1.03c-.03-.07-.03-.17-.03-.31,0-.1.07-.24.17-.41l1.02-1.19.41-.51,2.04-2.38ZM20.34,18.26c.1-.17.2-.24.37-.24s.44.1.75.31l-.2.1c-.14-.07-.24-.1-.34-.1-.17,0-.27.1-.27.27,0,.1.1.17.34.24-.1.1-.17.14-.24.14-.1,0-.24-.1-.41-.34v-.37ZM21.22,17.38l.34.37.14.1.1.14.78.2.65-.03h.07c.17,0,.34-.07.54-.2.14-.03.24-.17.27-.37l.03.2c.03.44-.37.65-1.22.65-.34,0-.78-.14-1.36-.37l-.24-.41-.1-.27ZM8.88,17.41l.31.24c.24.17.34.31.34.48l-.03.03-1.8,2.14-.14.17s-.1.14-.2.24l-.75.82-.17.24-.14.14c-.34.37-.51.65-.51.82v.14c.03.07.03.17.07.27l.07.14.2.1.54.24c.37.07.55.14.55.24,0,.17-.17.27-.55.27-.14,0-.37-.03-.68-.07-.34-.03-.61-.07-.78-.07l-2.31.14-.24-.03c-.27,0-.41-.07-.41-.17,0-.07.03-.1.14-.14l.37-.24.68-.14.27-.2c.44-.38.99-.95,1.63-1.74l3.54-4.05ZM11.63,16.87l.27-.03c.31,0,.51.2.61.65l.17.03.07-.24c.38.37.55.88.55,1.56,0,.41-.03.95-.1,1.67l.1.07c.1-.07.14-.17.14-.27.03-.41.03-.82.1-1.19,0-.41.14-.78.37-1.16l.2-.27c.37-.24.65-.37.82-.37.1,0,.17.03.17.1s-.07.2-.17.37l.03.1.07.03.51-.14c.34.14.51.37.51.71,0,.17-.03.24-.07.24s-.1-.03-.27-.1c-.17-.1-.31-.14-.41-.14-.41,0-.71.2-.95.61-.37.65-.54,1.12-.51,1.5l.07,1.33-.2.31c-.1.14-.2.2-.24.2-.1,0-.14-.07-.17-.2l-.1-.24-.27-.27c-.2-.1-.31-.24-.31-.41v-.07c0-.1-.03-.37-.1-.82-.03-.2-.07-.61-.1-1.22l-.03-.71-.14-.41c-.1-.24-.27-.34-.58-.34-.24,0-.34.1-.34.27,0,.24.17.41.51.51-.07.1-.14.17-.2.17-.1,0-.2-.03-.31-.1-.27-.17-.41-.34-.41-.58,0-.71.24-1.09.71-1.16M8.13,16.9l.17-.1.37.03.34.03.34.17.03.03.31.17.34.44c.24.31.38.65.38.99,0,1.46-.55,2.55-1.63,3.23l-.75.44-.34.2c-.1.03-.17.07-.2.1l-.78.14h-.2l-.07-.1.03-.07.07-.07.1-.14.75-.14.03-.07s.17-.03.41-.1c.1-.1.24-.17.34-.24.1-.07.2-.14.31-.17l.31-.31.31-.31c.1-.1.17-.2.27-.31.1-.1.2-.31.31-.54.2-.38.31-.78.31-1.22,0-.34-.07-.65-.24-.95v-.1l-.34-.48-.17-.14-.17-.14-.24-.14-.68-.17ZM22.11,16.36h.07c.1,0,.17.03.2.07l.03.17.07.24-.2.24v.07c0,.1.1.2.27.34.1.03.17.03.24.07h.14c.17,0,.27,0,.34-.03l-.1-.03.2-.07c.1-.03.14-.07.14-.17l-.03-.07-.03-.07-.17-.27c-.07-.07-.1-.14-.1-.24s.03-.14.1-.14c.1,0,.24.07.41.17.31.17.48.41.48.72,0,.51-.41.75-1.26.75-.65,0-1.12-.24-1.5-.71-.07-.1-.1-.17-.1-.27v-.07l.07-.2c.24-.27.48-.41.75-.44v-.03ZM14.52,16.19l.1-.03.24.24-.14.48-.07.27-.48.17.07-.27.1-.34.1-.31.07-.2ZM24.93,15.48c.24.34.41.71.48,1.09l.03.34c.03.1.03.2.07.27v.17c0,.95-.31,1.43-.88,1.43-.07,0-.17-.07-.27-.17l-.07-.37.31-.51c.03-.17.07-.31.07-.34,0-.27-.17-.58-.48-.88l.27-.07c.34,0,.48.2.44.58l-.14,1.02v.1s.1.07.2.07c.24,0,.37-.34.37-.99,0-.07-.07-.41-.2-.99l-.07-.27-.14-.48ZM18.81,15.78c.58-.2.99-.31,1.19-.27h.27l-.1.03c.17.03.34.07.44.1.1.03.2.1.31.14.2.24.31.41.31.44v.1l-.48-.03.14.78c-.1,0-.17.1-.2.27-.07.17-.14.27-.2.31-.17.1-.34.14-.51.14-.1,0-.31-.1-.54-.27-.2-.27-.31-.48-.31-.65,0-.1.07-.17.17-.17.1.24.31.41.54.51.37,0,.58-.17.58-.55,0-.03-.07-.17-.17-.34v-.07c-.31-.2-.61-.31-.92-.27h-.31l-.51.27h-.17l-.03-.14.14-.03c.17-.17.31-.27.38-.31M2.38,15.48l.07.1c-.1.24-.14.44-.2.54,0,.1-.03.24-.03.37,0,.88.14,1.33.44,1.33l.07-.03.14-.17.07-.07.07-.14c0-.14-.03-.34-.14-.61-.1-.24-.14-.44-.14-.58,0-.17.14-.34.37-.51-.1.2-.14.41-.14.61,0,.1.03.31.1.61l.07.38h.07c.03.07.03.2.03.41,0,.51-.2.78-.65.78-.1,0-.24-.1-.37-.27s-.2-.37-.2-.54l.03-.61.07-.82.2-.61.07-.17ZM12.38,15.92l.44-.58c.07,0,.17.17.27.51.17.61.24,1.05.24,1.36v.54l-.48-.65-.1-.31c-.03-.27-.1-.51-.27-.68l-.1-.2ZM18.81,15.2c.44-.24.95-.34,1.53-.34s1.19.2,1.84.61c.61.48.92.95.92,1.46l-.03.14-.03.2h-.27l-.1-.48c-.03-.17-.1-.31-.17-.41-.07-.14-.14-.24-.17-.34l-.27-.24c-.51-.37-1.09-.54-1.77-.54-.51,0-.82.03-.99.14l-.95.48-.2.1c-.1-.07-.17-.17-.17-.34l.85-.44ZM13.2,15.1l.2-.17.03-.03h.07c.24,0,.37.17.37.54,0,.58-.1,1.16-.34,1.67v-.48l.14-.75c.03-.37-.03-.54-.2-.54s-.27,0-.31.03l.03-.27ZM18.16,14.52h.07l.07-.03c.17,0,.27.1.27.31,0,.24-.07.37-.2.44l-.31.17-.27.14-.14-.03c.07-.17.24-.34.48-.48l.07-.24-.03-.27ZM11.36,16.26l.24-.24.82-.88c.1-.14.2-.27.31-.37l.27-.37c.03-.1.1-.14.2-.17l.14.1-.07.17-.07.14-2.62,2.99-.03-.24-.03-.14.1-.1.75-.88ZM3.78,14.46l.37-.41h.03l.03.03s.07.2.14.55c.03.1.14.24.34.44l.41.24.17.07.14.03c.17.1.41.14.68.14.07,0,.41-.03.99-.1h.1c.61,0,1.16.1,1.6.34h.14l.14.07c.68.37,1.06.78,1.12,1.26l-.2-.27-.07-.07-.17-.17c-.54-.58-1.26-.88-2.18-.88-.51,0-.99.14-1.43.41-.44.31-.71.65-.82,1.06l.17-.03-.14.07c.14-.03.24-.14.31-.31.03-.1.07-.17.1-.2l.31-.27.07-.1.31-.17.24-.07.24-.14c.14-.03.27-.07.38-.07h.24-.14l.34-.03c.24,0,.48.03.78.14l.17.07.1.03.24.1c-.03.1-.07.17-.1.17-.1,0-.2,0-.24-.03l-.14.1c.65.1,1.12.37,1.39.78l-.31-.17c-.37-.24-.75-.38-1.12-.38-.31,0-.54.1-.78.27-.24.17-.34.41-.34.65,0,.07.07.14.24.24.14.1.2.17.2.24,0,.03-.07.14-.2.31-.14.17-.31.27-.48.27-.65,0-.99-.24-.99-.68l.03-.1c.07-.07.1-.17.14-.31l-.07-.14c-.17.1-.27.2-.27.27-.07.03-.1.24-.2.61-.07.34-.27.65-.68.92-.34.27-.71.41-1.06.41-.31,0-.58-.07-.88-.2-.17-.1-.24-.2-.24-.31v-.03l.37-.31.17-.27c.1-.27.17-.51.17-.75l-.03-.17v-.34l-.07-.58v-.03c0-.07.03-.17.14-.34l.27-.37c-.07-.1-.17-.2-.31-.31l-.03-.1c-.03-.07-.03-.14-.03-.24v-.2c0-.2.07-.41.2-.61M10.07,13.98l.03-.03.27.03.37.17c.24.1.34.24.34.41v.03l-.14-.03-.17-.17c-.17-.07-.34-.1-.44-.1s-.17.14-.2.41h-.17c-.1-.17-.14-.31-.14-.41s.07-.2.24-.31M24.22,14.18l-.03-.48.17.03.2.2.14.14.07.1.17.2.14.17.14.17c.65.85.95,1.8.95,2.86,0,.44-.1,1.09-.27,1.94l.1.31.14.34.1.61-.03.24c-.03.24-.14.44-.31.68-.1.1-.2.17-.24.17h-.03l-.07-.1s.03-.1.14-.2l.1-.1c.1-.17.14-.37.14-.54,0-.1-.03-.27-.07-.51l-.03-.14v-.07l-.24-.2-.24-.27-.07.03c-.24-.17-.44-.24-.65-.24-.1,0-.2.03-.34.07-.14.07-.24.1-.27.1l-.1-.1.03-.07.1-.1c.24-.1.48-.14.68-.14l.17.03c.1,0,.2,0,.31.03h.31l-.03-.27.2-1.12.03-.2c.03-.68-.07-1.29-.31-1.87l-.07-.17-.14-.31-.1-.14-.44-.61-.44-.48ZM15.44,13.71l7.18,8.61.27.37.1.1.14.17.17.1.27.24.31.17.34.07.38.07.27.1.07.03.1.2c0,.17-.41.24-1.26.24-.31,0-.58-.03-.82-.1l-.34-.07-2.89.07h-.17c-.1,0-.2,0-.27-.03l-.48-.07c.03-.2.31-.37.78-.51.51-.14.75-.34.75-.58,0-.1-.07-.27-.2-.44l-.51-.68-.99-1.16-.44-.51-.14-.17-1.26-1.56-1.33-1.6-.24-.27-.48-.54-.1-.1.78-2.14ZM8.57,13.33l.48.03c.41.03.61.27.61.65l-.03.07-.2.68-.03.14c0,.1.03.17.07.2l.1.07.14.14h.27l-.03.07c-.1.1-.2.14-.31.14-.31,0-.44-.1-.48-.31l-.07-.03-.03-.14v-.2c-.03-.1.03-.2.17-.31l.07-.14s.03-.14.03-.31c0-.24-.2-.37-.58-.37-.34,0-.51.17-.51.55,0,.44.27.88.85,1.29l.51.37.17.14.14.17.1.17.07.07-.03.14-.07-.17-.24-.24c-.1-.07-.17-.14-.2-.17l-.95-.48c-.2-.1-.48-.34-.85-.75l-.07-.27s-.03-.14-.03-.24l.07-.34c.31-.37.58-.58.88-.61M15.58,13.23l3.64,4.39.34.37.1.14.07.1.2.27.1.1.17.17.27.41,1.9,2.25,1.26,1.46.2.24.14.07-.2.03c-.1,0-.2-.07-.34-.24l-.24-.17-.14-.14-.54-.71-.34-.44-.41-.48-.17-.17-.24-.31-.03-.03-.1-.07-.17-.24-.17-.2-.17-.2-.2-.24-.1-.1-.37-.48-.44-.54-.1-.14-.34-.34-1.09-1.36-.48-.58-.17-.17-.37-.44c-.1-.1-.2-.24-.31-.34l-.27-.34-.27-.34-.61-.78-.07-.1v-.03l.07-.27ZM25.71,13.2l.03-.07h.07s.07.17.17.54c.03.07.03.17.03.31v.2c0,.31-.07.68-.2,1.19l-.2-.37.03-.17.03-.14c.03-.17.03-.27.03-.34l.03-.14c0-.1-.03-.27-.03-.44-.07-.17-.07-.31-.1-.41v-.03l.1-.14ZM21.19,13.09l1.09.2.07.03c.1.03.17.07.24.14.1,0,.17.07.27.1l.14.14.2.34c.07.1.1.17.14.2l.1,1.05c.03.17.14.27.37.37-.17.1-.34.14-.48.14s-.27-.1-.44-.31l-.07-.65c-.17.1-.31.14-.48.14-.41,0-.71-.2-.95-.65-.03-.07-.03-.17-.03-.34v-.07l.03-.14.14-.07.1.37.2.24c.17.1.31.17.34.17.31,0,.44-.14.44-.38,0-.1-.07-.24-.17-.41-.44-.31-.78-.48-1.06-.44l-.2.03h-.14c-.14,0-.24-.07-.31-.2l.44-.03ZM2.04,13.88c.31-.37.54-.58.78-.68l.44-.2.03-.03.03.07c-.54.34-1.12.95-1.7,1.84-.1.17-.24.27-.41.34l-.1.1.14-.31-.03-.27c-.1-.17-.14-.44-.14-.78,0-.58.2-.88.58-.88.03,0,.14.07.24.17-.44,0-.65.17-.65.51,0,.1.07.24.24.37l.2.03c.1,0,.2-.1.34-.27M23.71,12.79l.07-.07h.03c.1,0,.17.07.17.2v.2l-.03.27-.03.03.03.1.03.27c.1.82.24,1.29.37,1.4l.38.31.1.37c-.51-.41-.82-.71-.92-.88l-.03-.24-.17-.89v-1.09ZM20.78,12.65l.03-.03h.78l.61.14c.31.07.68.2,1.12.37.1.07.17.14.17.24v.31l-.27-.17-.17-.07-.17-.07c-.54-.27-1.09-.41-1.63-.41h-.68l-.34-.03.03-.27h.51ZM5.48,12.45c-.24.31-.44.48-.54.51l-.99.41c-.61.24-1.05.58-1.29,1.09l-.68,1.36-.17.51-.03.07-.07.61-.07.75v.1c0,.1,0,.2.03.31.03.07.07.17.1.31l.24.95c.03.14.17.37.41.72l.1.03c.1-.38.2-.55.37-.55.14,0,.34.1.65.34l.27.17.17.1h.44l.37.03c.17,0,.37-.03.54-.14.37-.17.61-.41.71-.68l.1-.07c.03.1.03.2.03.27.03.1.03.17.03.2,0,.51-.41.82-1.26.92l-.03.17h.17l.14.03.1.07c-.17.24-.44.37-.78.37-.38,0-.75-.2-1.12-.58-.17-.17-.31-.24-.48-.24-.2,0-.31.1-.31.31,0,.1.07.2.2.31l.44.34c.1.1.17.27.2.58v.37c-.2,0-.44-.1-.68-.27v.17c.03.58-.27.85-.85.85-.51,0-.75-.34-.78-1.06l.1-.44v-.34l-.07-.2v-.14l.07-.07c.2,0,.31.14.31.41,0,.1-.03.27-.1.48-.03.17-.07.31-.07.41,0,.2.17.37.48.48h.17c.17-.1.27-.24.27-.34,0-.24-.07-.51-.24-.82l-.2-.31-.1-.2c-.07-.03-.14-.14-.17-.27.03-.24.17-.41.37-.44l-.14-.27-.1-.24c-.31-.72-.44-1.26-.44-1.57v-.34c-.03-.41.03-1.02.17-1.8l.2-.68c.1-.17.17-.31.2-.41.31-.68.61-1.16.92-1.4l.17-.1c.88-.65,1.7-1.02,2.48-1.16M2.18,12.79v-.1c0-.17.14-.24.37-.24.17,0,.24.07.24.24s-.1.27-.31.27c-.1,0-.2-.07-.31-.17M15.51,12.14l.03.27c0,.17-.03.41-.14.65l-.31,1.05-.88,2.18-.34,1.36-.27.34v-.24l.17-1.16,1.33-3.74.14-.41.2-.14.07-.17ZM1.94,12.48c-.03.24-.1.34-.24.34-.27,0-.41-.14-.41-.37,0-.17.07-.24.17-.24.14,0,.31.1.48.27M24.62,12.04l.24-.14.03-.03c.1,0,.14.03.14.14s-.03.17-.14.2l-.17.07-.14.14-.07.03-.03.03-.58.1h-.34l-1.26-.27h-.51l-.38-.07-1.12.24v-.14l-.17-.07.1-.14h.1-.07l.51-.1.85-.17c.2,0,.54.07.99.17.54.17.92.24,1.16.24.27,0,.54-.07.85-.24M6.05,12.14l-.17.07-.2-.03-.44.03h-.44l-1.19.17-.27.03c-.44.03-.65-.07-.65-.24l.1-.07h.2c.1.03.2.03.34.07.03,0,.14,0,.27-.03.1-.03.24-.03.41-.07.17-.03.31-.03.44-.07.14-.03.24-.03.31-.03.17,0,.37,0,.61.07.2,0,.44.07.68.1M2.28,11.7h.1c.03.14.07.2.07.17,0,.27-.1.41-.34.41-.1,0-.14,0-.17-.03l-.03-.07v-.14s.03-.14.1-.24l.17-.07.1-.03ZM10.44,12.07c-.1-.17-.17-.31-.17-.41,0-.17.1-.27.27-.27s.34.17.44.48c-.1-.07-.2-.1-.24-.1-.07,0-.1.03-.1.14,0,.17.17.37.48.61l.14.14c.51.44.75.68.75.78l-.03.14-.27-.27-.1-.14-.51-.44-.2-.17-.1-.1-.34-.37ZM22.69,11.6c.03-.2.14-.31.37-.31.48,0,.71.1.71.34l-.1.17-.1-.07c-.17-.1-.31-.14-.48-.14-.1,0-.24.03-.41.1v-.1ZM1.33,11.43l.1.07h.31v.41c0,.07-.07.1-.2.1-.1,0-.21-.07-.38-.2-.03-.17-.07-.27-.07-.24,0-.07.07-.1.24-.14M15.58,12.69h.14s.07-.03.07-.14l-.03-.17v-.1c0-.14.1-.37.31-.71.1-.17.27-.27.44-.27.34,0,.51.14.51.44,0,.17-.1.31-.31.41l-.03-.2-.17-.24h.07c-.31.03-.51.31-.61.85-.03.24-.1.34-.2.34l-.07-.03v-.07l-.1-.1ZM25.95,11.16h.07c.03.24.07.34.07.31,0,1.16-.31,1.73-.95,1.73-.07,0-.17-.03-.31-.07l-.17-.1c-.17,0-.27-.07-.31-.24v-.03c0-.1.03-.14.14-.14.03,0,.14.03.27.1.14.1.24.14.31.14.1,0,.24-.03.41-.14.17-.17.24-.41.27-.75.03-.27.1-.58.2-.82M3.2,11.36l.14.07.03.1c0,.14-.17.2-.48.2-.24,0-.34-.1-.34-.27s.17-.24.51-.24l.14.14ZM24.9,10.85l.03-.07.03-.03.07.03.03.17.14.24.27.65.1.2.03.14c0,.17-.07.24-.2.24-.07,0-.1-.07-.14-.24l-.17-.41v-.07l-.14-.31-.07-.24-.1-.14.1-.17ZM1.8,11.19l-.03-.17c0-.17.14-.27.37-.27.2,0,.31.1.31.27,0,.27-.1.41-.31.41-.1,0-.2-.07-.34-.24M1.53,11.16h-.31c-.14,0-.2-.07-.2-.17s0-.14.03-.17l.1-.27.38.14-.03.24.03.24ZM25.03,10.2l.37.14.1.03-.07.2-.41-.07c-.37,0-.68.51-.92,1.53h-.27l.03-.24.1-.24v-.2l.14-.1v-.14l.07-.07v-.1l.1-.14.2-.37.24-.14.31-.1ZM23.81,9.9l.24-.2s.1.1.14.31l.03.14c0,.07-.03.14-.14.24-.75.54-1.46.92-2.18,1.12l-1.36.41-.82.27-.37.03v-.1l.1-.2,2.18-.75c.34-.1.54-.17.65-.2l.1-.07c.1-.07.24-.17.41-.27l.14-.07.17-.07.41-.31.31-.27ZM12.96,9.63l-.03-.14.68.1.2-.03v.1c.31.14.54.34.75.65l-.07.24-.03-.07-.07-.1c-.17-.17-.31-.24-.48-.24l-.14.07-.1.27h-.07c-.1-.07-.17-.24-.17-.48v-.1c-.2-.03-.37-.14-.48-.27M7.07,9.46h.14c.24-.03.37.03.37.2l-.34.37.1.61.48.44.31.17.44.24c.31.1.58.2.82.27.24.14.48.24.72.41l.65.44.1.07c.17.1.31.24.37.31.14.14.2.2.27.24.2.2.31.34.31.41,0,.1-.17.31-.54.68l-1.09-.78c-.65-.31-1.23-.44-1.7-.44-.65,0-1.16.1-1.57.34-.41.24-.61.51-.61.85,0,.14.07.27.2.44.2.07.34.1.44.1.07,0,.17-.07.27-.2l.07-.17.07.1c-.1.44-.41.68-.89.68-.51,0-.92-.2-1.16-.58l-.03-.2s-.03-.14-.03-.27c0-.07.03-.2.1-.38l-.03-.14-.41-.1v-.14l.17-.14.31-.37c.17-.17.48-.34.92-.48.44-.1.71-.17.82-.17.24,0,.48.03.75.1l.37.1.27.14.51.07-.03-.03c.1-.03.14-.07.14-.14l-.03-.14-.44-.2-.78-.1-.65-.1c-.1-.03-.17-.07-.2-.1l-.03-.07v-.07c.17.1.34.14.51.14l.17-.03-1.02-.34.2.14v.1c-.27-.07-.48-.2-.61-.41-.07-.14-.1-.24-.1-.34,0-.24.24-.34.75-.34-.03-.1-.1-.17-.2-.24l-.07-.1-.03-.27c-.03-.31.17-.48.61-.54l-.1-.03ZM4.42,10.31l-.03-.24c-.03-.44.24-.65.75-.65.44,0,.71.24.82.71-.31-.24-.54-.37-.68-.37-.27,0-.41.1-.41.34,0,.31.27.54.78.71.14.03.2.14.24.27h-.1c-.24,0-.44-.03-.61-.14h-.03l-.1-.1-.54-.37-.07-.17ZM8.81,9.42l.17-.07.07.1-.37.34c-.17.14-.24.31-.24.48s.07.31.24.48l.14.14h.27c.24.03.34-.07.34-.27,0,.03-.03-.07-.07-.24l-.41-.17c.1-.17.2-.24.31-.24s.27.07.44.17c.14.2.2.34.2.44,0,.51-.27.78-.82.78-.27,0-.54-.17-.78-.48l-.1-.37-.03-.24c0-.1.1-.34.27-.65l.37-.2ZM19.08,9.25l.27.92c-.03.31-.17.65-.37.99h.17l.17-.1.14.07c-.14.85-.48,1.36-1.02,1.53l-.58.17c-.14.03-.17.1-.14.27v.14l.07.07h.31l.27-.44.14-.03.31-.17c.24-.14.48-.2.71-.2l.31.03.1.03.1.03-.1.31c-.03.07-.1.14-.14.24l.03.07.48.07h.37l-.07.14c.1.17.14.31.14.41,0,.44-.2.72-.65.82l-.07-.48-.03-.07c-.24-.17-.44-.24-.61-.24h-.1l-1.23.55c-.14.07-.27.1-.41.1-.1,0-.24-.07-.41-.17l-.14-.44c-.14.03-.27.14-.37.31h-.14l-.03-.07-.2-.24-.03-.17.48-.34c-.03-.1-.03-.17-.07-.2v-.17c0-.17.07-.44.24-.75.1-.1.17-.17.2-.17l.1-.1.14-.1.65-.41c.24-.17.41-.48.51-.95l-.1-.27-.14-.1c-.1-.07-.2-.1-.27-.1-.24,0-.34.1-.34.27l.03.27v.03c.03.37-.14.54-.44.54-.14,0-.24-.14-.31-.37v-.07c.1.07.2.1.31.1s.17-.07.17-.24l-.03-.34.03-.27c.03-.14.2-.31.48-.48.03-.03.14-.03.27-.03.03,0,.14.03.31.07l.1.07.14.03s.07-.07.1-.17l.2-.17ZM20.14,10.48l.34-.14.1-.61c.03-.37.31-.58.82-.58.58,0,.89.24.89.68,0,.54-.27.92-.78,1.12l-1.5.54-.27.1-.1.03-.03-.07s.07-.1.17-.14c.17-.03.34-.1.44-.14.1-.03.2-.07.24-.1.41-.17.71-.34.92-.54l.2-.24.17-.41v-.14c0-.07-.07-.2-.17-.37-.24-.07-.38-.1-.41-.1-.24,0-.37.1-.37.31l.07.68s-.03.07-.03.17c-.03.17-.24.27-.54.27-.37,0-.54-.17-.54-.51,0-.14.07-.2.24-.24v.03c0,.14.07.27.17.37M5.34,8.78l.61.37c-.1.1-.2.14-.34.14-.07,0-.14-.1-.2-.27l-.07-.24ZM1.16,8.81c.2.03.34.1.41.17.1.03.27.27.54.68.27.37.68.78,1.19,1.19v.1c-.75-.34-1.22-.78-1.43-1.36-.17-.17-.27-.24-.37-.24s-.14.03-.14.14l.07.17.24.27.03.27-.61-.54-.03-.1-.07-.41.03-.24.14-.1ZM18.09,8.4c.17.03.27.1.27.17,0,.03-.07.14-.17.24l-3.47,3.88-.14-.2,1.84-2.21.58-.61,1.09-1.26ZM25.75,8.3c.2.34.31.75.31,1.26,0,.75-.17,1.39-.48,1.91-.1-.17-.14-.27-.14-.34,0-.03.07-.17.14-.41.14-.24.17-.51.17-.85l-.03-.24v-.37l-.1-.51v-.03c0-.1.03-.24.14-.41M23.3,8.13l.37.1c.17.17.24.31.24.41,0,.07-.03.1-.14.1h-.17c.14.24.2.44.2.54,0,.54-.27.82-.78.82-.17,0-.27-.07-.34-.24h.27c.17-.07.27-.17.34-.34v-.14c.03-.07-.03-.17-.14-.34-.31-.24-.51-.34-.65-.34-.17,0-.37.03-.61.1-.65.17-1.05.27-1.16.27-.24,0-.51-.03-.78-.14v-.07l.54.07c.31.03.71-.07,1.22-.27l1.02-.38.44-.14.1-.03ZM4.9,8.3c.03.07.03.2.03.38,0,.03-.03.14-.07.31-.24.34-.54.51-.88.51h-.07l-.31-.2-.17-.1v-.14l.65-.24.1-.07.14-.1.17-.34c.07-.07.14-.17.17-.27l.07.07-.07.34.07.2c.1-.07.17-.17.17-.34M24.76,7.58l.07.14-.1.31c-.17.34-.24.68-.24.99,0,.14.03.31.14.51.07.24.1.37.1.44,0,.17-.07.24-.2.24-.1,0-.17-.2-.24-.61l-.03-.24-.03-.31v-.31c-.03-.44.17-.85.55-1.16M7.38,7.65c.27.07.41.17.44.34h-.07c-.2-.03-.31.03-.31.17,0,.27.17.41.54.41.2,0,.34,0,.41-.03v.17c-.1.03-.24.03-.31.07h-.31c-.27,0-.51-.14-.72-.41l-.03-.17c0-.24.1-.41.34-.54M4.46,7.38l.2.1-.58.27.24.07.03-.07.2-.03c-.24.51-.65.78-1.23.78-.1,0-.27-.1-.44-.27l-.07-.27-.07-.1-.07-.07-.07-.1c0-.07.03-.1.14-.1l.54.03h.03c.17,0,.44-.03.82-.14l.31-.07v-.03ZM10.14,5.95c.17.1.34.17.44.17s.17-.03.17-.1l-.03-.2.1-.03.03.1c0,.41-.1.61-.34.61-.07,0-.2-.07-.37-.17l-.07-.1v-.27h.07ZM11.29,5.31h.07c.03.07.03.17.03.31v.2c0,.58-.1,1.12-.34,1.56-.1,0-.2-.07-.27-.24l.27-1.7h.17l.07-.14ZM17.18,5.03c.03.1.07.17.1.2l.03.14c.1.38.27.55.54.55.14,0,.24-.07.34-.24.1.07.14.17.14.27,0,.34-.17.48-.48.44h-.27c-.31-.24-.48-.54-.48-.85,0-.03,0-.1.03-.2,0-.1,0-.2.03-.31M3.43,5.37c-.1-.03-.14-.1-.14-.2v-.07l.03-.03.07-.03.31.07.31-.17.24.1.1.99.44.85-.14.14-.14.24c-.03.07-.17.1-.34.1-.95,0-1.46-.2-1.53-.58l.1-.65.03-.17.07-.17.17.03c.14.1.31.27.48.54l.34.34c.1.03.17.1.31.14.07.03.2.07.31.1v-.2h.14v-.14l-.2-.2.03-.14-.31-.07.31.61-.27-.2-.24-.27-.2-.2c-.03-.1-.1-.2-.2-.31v-.1l-.07-.34ZM14.39,5.48c.1-.48.34-.75.68-.78l.03.48c.14-.03.27-.1.37-.2.17-.1.31-.14.48-.14.24,0,.34.03.34.14s-.03.24-.07.41c-.03.2-.07.34-.07.44l.03.68.14.88.03.2c.03.24-.03.48-.17.68-.17.2-.34.31-.55.31-.03,0-.14-.07-.24-.17l-.34-.07c.2.48.31.82.31,1.06,0,.17-.1.31-.27.44l-.07-.24-.1-.17-.1-.17-.1-.1-.27-.17-.14.27c-.07.14-.2.2-.41.2-.37,0-.71-.2-1.02-.58l-.17-.17-.1-.1-.07-.14-.44-.44-.1-.1c-.17-.14-.34-.24-.44-.27-.14-.03-.2-.1-.24-.14,0-.03.03-.1.1-.24.1-.1.24-.17.41-.2l.24-.07-.03-.27.31-.03c.1,0,.27.07.44.2l-.03.24-.51-.1-.2.27h-.34l-.03.07c0,.07.03.1.14.07h.14l.34.03.07-.24c.2.03.37.1.48.2l.24.31.24.44.24.27c.17,0,.27-.03.27-.1s-.07-.2-.2-.41l-.2-.14-.24-.24-.27-.34.03-.24.14.07h.17l-.07-.2c-.1-.1-.17-.24-.14-.41l.03-.71.24.07.68.41h-.1.1l.03-.2c.44.61.71,1.09.82,1.46l.03.07.2-.03-.14.03c.14-.03.2-.07.2-.1,0-.07-.03-.17-.1-.31l-.1-.17c-.07-.2-.1-.37-.1-.51,0-.2.07-.37.24-.54l.41.2.03-.07-.03-.17c0-.1.03-.24.1-.38.1-.2.24-.31.44-.34l.03-.14c-.38.1-.61.27-.65.41-.03.2-.1.27-.14.31l-.27-.07c-.1,0-.2.14-.34.44l-.03-.37c-.1.03-.17.07-.17.1s.03.14.07.31l-.1-.03-.07-.03.03-.61ZM4.56,5.68c.07-.65.17-.99.27-.99l.37.27.27.2.03.1c0,.1,0,.14-.03.17l-.2.55c-.03.17-.07.34-.07.51l.1.1c.07,0,.1-.07.1-.2v-.03l.1-.34.17-.2.03-.07.07-.07h.17l.27.27.1.1c0,.31-.1.48-.34.54l-.48.17-.07.07-.03.07c0,.1.1.17.34.17s.51-.17.78-.48h.17l.17.31.2.14s.03.03.07.17c0,.17-.27.27-.85.27-.1,0-.37-.03-.82-.1v.1c0,.1.1.17.31.2l.07.1.88-.03h.14l-.1.34-.03.24-.1.1c-.14,0-.31-.03-.48-.14-.41-.17-.61-.27-.61-.34l.07-.03h.17v-.07l-.65-.2c.1.17.2.31.24.37.07.1.17.2.31.31l.27.17.41.2c.65.17,1.09.27,1.29.27.17,0,.27,0,.34-.03.31-.07.48-.1.54-.1.17,0,.27.1.27.31,0,.07-.14.1-.44.14l-.71.03h-.14c-.65.03-1.23-.14-1.7-.51l-.48-.41-.14-.1-.2-.24-.07-.17-.1-.27-.03-.14c0-.2.17-.34.51-.37l-.1-.37-.07-.07-.03-.1c0-.17-.03-.24-.07-.24.03,0-.03.03-.17.07l.2.44-.14-.03v-.07l-.24-.37-.07-.2-.07-.27v-.2ZM16.73,4.46l.2.34-.07.65v.03c-.03.78.27,1.43.92,2.01l.2.14.37.24.2.1c.17.1.38.14.55.14.61,0,1.05-.2,1.29-.61-.03-.17-.14-.24-.34-.24l.03-.17c.14-.14.24-.2.34-.2.24,0,.34.17.34.48,0,.1-.03.2-.03.2l-.31.31-.27.2c-.17.03-.31.1-.44.14-.14.03-.27.07-.44.1.07.03.2.03.41.03.31,0,.51-.03.61-.14l.34-.24.44-.27.31-.34.03-.17.1.17c0,.17-.07.27-.24.34-.17.1-.24.14-.27.17v.17l.27-.14-.03.17c-.03.1-.14.2-.34.31-.44.24-.88.34-1.33.34-.61,0-1.29-.31-2.01-.88l-.48-.54-.1-.2-.07-.1c-.24-.58-.37-1.05-.37-1.5v-.07c0-.07.03-.27.1-.58l.03-.14c0-.1,0-.17.03-.24M22.55,4.22l.37.2.17.14c.24.24.37.48.37.68v.2l.03.24s.03.03.14.03v.03l.14-.17c.1-.17.17-.24.24-.24h.07c.07-.14.17-.2.34-.17h.17l-.2.55c-.07.14-.14.34-.17.51-.17.71-.58,1.26-1.16,1.63l.03-.27.17-.31v-.07l-.07-.07c-.07,0-.14.14-.24.44-.03.07-.1.2-.31.44-.14.2-.27.31-.34.31l-.1-.03.07-.1.14-.14.07-.2.2-.24.03-.07.03-.14.17-.54.03-.1c0-.07-.03-.1-.14-.1h-.03c-.17,1.02-.61,1.67-1.4,1.94l.14-.1.07-.07.27-.31c.17-.51.27-.68.27-.51l-.1-.1s-.1.1-.17.34c-.1.44-.61.75-1.46.92v-.07c.24-.03.54-.2.88-.48l.17-.2v-.17l.17-.37-.1-.44c-.03-.14-.14-.24-.27-.24-.14-.07-.27-.1-.44-.14v-.07c0-.17.07-.31.24-.48l.37-.1.31.07h.17c-.1-.1-.17-.2-.17-.27,0-.1.03-.2.07-.31.03-.14.17-.31.41-.51.17-.17.27-.41.34-.78M11.87,4.08c.24.07.34.2.34.37,0,.37-.1.54-.34.54-.2,0-.31-.03-.31-.14l.03-.14c.31-.07.44-.14.44-.2,0-.1-.07-.27-.17-.44M16.43,3.91l.03-.1.07-.03.1.07c0-.07-.03,0-.07.17l-.1.24c-.1.27-.34.41-.72.41-.17,0-.27-.07-.37-.24l.31.03c.34.03.58-.14.75-.54M12.52,4.8l.2-.44c.03-.1.1-.2.14-.31l.07-.37c.03-.17.07-.24.1-.24.24,0,.44.37.65,1.12h.1l-.1.03.1.03.07-.34c.24.03.37.24.37.58l-.07.51v.48l-.1.03-.03-.07c0-.14-.03-.2-.14-.2l-.07.1c0,.1,0,.17.03.2l-.17-.34-.14-.2-.03.07.03.31h-.07l-.07-.1c0-.17-.03-.31-.1-.38l-.14.03v.24l-.2.03-.03.34-.14.03.07.31-.1.07.2.48c-.17-.07-.31-.2-.34-.37v-.24c-.03-.34.07-.68.27-.99.17-.17.24-.27.24-.37,0-.07-.07-.1-.17-.1.1-.1.14-.17.14-.27s0-.2-.03-.24l-.14.03-.07.31-.17.24.07.07.14.03-.27.61c-.07.14-.1.24-.14.27-.03.03-.03.31-.03.75l-.1-.2c-.1-.2-.14-.37-.14-.54s.03-.38.14-.55l.1-.31.07-.14ZM18.74,3.2l.2.03.34.17.17.07.31.2c.17.14.24.27.24.41l-.03.24-.1-.17-.07-.1c-.1-.03-.17-.1-.24-.14l-.2-.14c-.27-.14-.48-.34-.61-.58M3.16,3.2l.37.14.24.07.2.07c.38.07.55.17.55.31v.1l-.85-.2c-.24-.07-.41-.24-.51-.48M2.72,3.13l.03.27-.44.31.07-.14.17-.31-.1.07.27-.2ZM23.26,2.86c.17.07.27.14.27.24,0,.2-.14.37-.41.51l-.54.27-.48.44-2.82,3.33c-.1.14-.24.2-.37.2-.1,0-.14-.03-.17-.1l.1-.1c.07-.07.17-.17.27-.34l.92-1.02.2-.27,1.63-1.8.14-.17.58-.51v-.03l.44-.2c.17-.07.27-.17.24-.34v-.1ZM8.91,2.89c.1.03.17.07.2.17l-.2.41-.51.24c-.1.07-.17.2-.17.41,0,.14.17.41.48.78l.1.14s.1.1.17.2l1.63,2.01.75.95,1.6,1.77.37.44.17.24.27.34.07.14.1.2c0,.1-.03.17-.14.17l-.68-.85-1.12-1.26-.68-.85-.41-.51c-.1-.14-.2-.24-.27-.31l-.82-.99-.14-.17-.24-.24-.24-.37-.31-.37-.1-.07-.14-.17-.54-.75c-.1-.31-.17-.48-.17-.54,0-.31.17-.54.48-.68.24-.07.41-.17.51-.34l-.03-.14ZM22.21,2.76c.1-.03.24-.03.34-.03h.2c.24,0,.37.07.37.24s-.2.34-.61.51c-.14.03-.34.2-.58.48l-.48.48-2.89,3.33-.82-.48.48-.61.89-.92.71-.95c.24-.31.34-.54.34-.71,0-.14-.07-.27-.2-.41l-.41-.27-.68-.27-.1-.1v-.03l-.03-.03c0-.1.1-.17.34-.17l.17.03h.71l2.24-.03h-.17l.17-.03ZM4.63,3.67l-.38-.24-.78-.24c-.17-.03-.27-.14-.27-.24.03-.1.24-.17.58-.17h.1c.1.03.17.03.24.03h.65l.88.03,2.38-.07c.1-.03.2-.03.31-.03h.17c.2,0,.31.07.31.2l-.07.1-.61.31c-.24.1-.34.34-.34.78,0,.14.14.41.41.82l5.58,6.67.07-.07.1-.07c.07-.03.41-.41.99-1.12l.44-.44,1.39-1.67.48-.51.44.37.17.1.1.14s-.07.14-.2.31l-2.11,2.38-1.19,1.5.17.2c.1.1.17.17.2.27v.1l-.17.34-.48,1.29-.1.31-.1-.07-.1-.1-.17-.2-.27-.41-.1-.14.07.1-.17-.2c-.24.17-.44.38-.58.58l-.27.37-1.97,2.14c0-.48-.1-.82-.31-1.02l.03-.14.07-.14.07-.03,1.97-2.28.14-.14.1-.1v-.07c-.1-.24-.27-.44-.51-.68l-.44-.54-.68-.85-.65-.85-.31-.31-.51-.58-.58-.71-.07-.1-.44-.55-.17-.24-1.33-1.56-.82-.99-.17-.24-.17-.17-.31-.37-.71-.82ZM5.07,2.52c.14-.17.34-.24.58-.24.31,0,.61.03.85.14l-.48-.03h-.17c-.17.03-.34.03-.48.07-.1.03-.2.03-.31.07M20.48,1.67h.58c.24-.03.61.07,1.19.27.41.17.75.34,1.02.51.31.17.54.31.71.48.1.03.14.07.14.14l-.03.1-.31-.17-.61-.44c-.1,0-.27-.07-.51-.24-.37-.24-.88-.37-1.5-.37-.37,0-.54.07-.54.24s.07.24.24.2l1.09-.1.2.03.07.14-.07.07s-.1,0-.24-.07l-.2-.03c-.1,0-.17,0-.2.03l-.78.17h-.14c-.54,0-.82-.14-.82-.41,0-.1.24-.31.71-.54M5.48,1.84l1.22-.14h.1c.14-.03.44.07.88.24l.1.03c.14.14.2.24.2.31,0,.24-.24.37-.71.37-.03,0-.14-.03-.27-.07l-.24-.14h.31l.2-.14c-.1-.31-.44-.44-1.09-.44-.17,0-.41.03-.78.1l.07-.14ZM25.41,1.29v-.03h.27l.1.07.17.17s.07.17.07.41c0,.1-.03.17-.1.17-.03,0-.07-.07-.1-.17l-.17-.07h-.03c-.17,0-.27.07-.27.17,0,.03,0,.07.03.17,0,.07,0,.17.03.31l.24,1.22.27,1.19.07,1.6c.03.2,0,.44-.07.75-.03.31-.14.58-.27.85-.1.31-.24.58-.41.85s-.31.48-.48.65v-.14c-.03-.1-.03-.2-.07-.27v-.14c0-.2,0-.31.03-.34l.34-.99c.1-.37.17-.71.17-1.02,0-.65-.1-1.22-.27-1.7l-.17-.27c-.27-.37-.55-.54-.82-.54-.1,0-.24.07-.44.2h-.07l-.03-.51.1-.1.2-.07.03-.03h.07v-.34l.27.03c.31.03.51.14.65.27.24.2.41.41.48.65.03.2.1.34.2.41v-.2c0-.07-.03-.2-.1-.37-.17-.27-.34-.44-.58-.54l-.14-.2-.24-.48c-.03-.07-.03-.2-.03-.41,0-.27.07-.41.17-.41l.41.2v-.58l.1-.24c.07-.1.2-.17.37-.17M23.98,1.12l.1-.07.07-.03c.31,0,.44.14.48.44-.17-.07-.34-.1-.44-.1-.17,0-.24.1-.24.27,0,.07.1.24.27.48l-.1.07-.17-.27c-.14-.14-.2-.24-.2-.34,0-.14.07-.27.24-.44M13.54,2.35c-.03-.24-.07-.37-.07-.41,0-.58.37-.85,1.09-.85.44,0,.65.17.65.48l-.07.41v.03c0,.14.1.2.31.2.41,0,.68-.31.78-.88.1.07.14.17.14.27-.03.58-.34.85-.95.85-.48,0-.71-.14-.71-.37v-.37s-.14-.03-.24-.03c-.2,0-.31.17-.31.51,0,.2.14.37.41.51.24.14.44.2.61.2.27,0,.61-.1,1.06-.34l1.36-.68c1.05-.54,1.97-.78,2.76-.75h.65c.78.03,1.39.17,1.8.41l.88.51.27.2.1.1c.03.1.03.2.07.31.03.1.03.2.07.31l-.95-.72c-.85-.48-1.63-.71-2.35-.71-.78,0-1.5.2-2.07.58-.58.41-.89.89-.89,1.43,0,.27.14.51.41.75l.14.03.34-.07.14-.1.14.2v.03c-.03.44-.24.65-.68.65-.1,0-.17-.03-.27-.1l-.31-.24-.17.41-.27-.1-.17-.24-.2-.31c-.1-.24-.14-.51-.14-.75,0-.03.03-.14.07-.31l.14-.31.14-.31-.34.2-.51.58c-.24.24-.51.37-.82.37h-.03c-.17.1-.34.14-.58.14-.51,0-.85-.17-1.09-.51l.54-.27c.1,0,.2-.07.24-.17-.27-.03-.58-.2-.92-.48l-.1-.1-.07-.2ZM6.43,1.16l.07-.03,1.23.07v.03l.2.03.14.03.85.27c.2.07.34.14.37.17l.27.2.34.1.07-.27c.17-.1.31-.17.38-.17s.2.03.37.1l.54.41.1.07c.17.1.34.14.48.14l.27-.03h-.14l.27-.07c.1-.03.17-.14.17-.31,0-.31-.27-.48-.85-.51.24-.17.44-.27.54-.27.65,0,.99.34.99.99,0,.44-.31.78-.89,1.02.1.17.17.31.17.34v.2h-.14c-.44,0-.78-.14-.95-.37l-.17-.24c-.17-.1-.27-.14-.34-.14-.14,0-.2.07-.2.2,0,.07.03.14.14.2.1.07.17.14.31.27.07.07.17.2.27.34.1.1.14.27.14.44,0,.24-.1.48-.31.71-.1-.03-.14-.1-.14-.24l-.1-.03c-.17.48-.48.71-.92.71-.34,0-.61-.17-.82-.54l-.03-.07c-.03-.1-.03-.2-.07-.27v-.14c0-.1.1-.24.27-.41,0,.48.17.71.51.71.24,0,.34-.1.34-.31s-.03-.37-.14-.54l-.17-.27-.14-.17-.17-.17-.07-.1-.14-.27.07-.44-.1-.14c-.85-.58-1.73-.85-2.69-.85h-.41c-.14.03-.27.03-.41.07-.58.17-1.02.31-1.26.41l-.82.54-.54.03c.71-.78,1.57-1.22,2.55-1.36l.68-.1ZM2.69,1.29l.2-.14.03-.03h.03c.31,0,.44.14.44.44,0,.07-.03.17-.07.31l-.41.51v-.17l.17-.31.03-.2c-.07-.24-.2-.34-.44-.34v-.07ZM1.16,2.48c0-.1,0-.2-.07-.37,0-.17-.03-.31-.03-.41,0-.41.2-.61.65-.61.41,0,.58.27.54.78v.37s.03.17.07.34c.17-.17.24-.27.27-.34l.07.03c.07.17.1.34.1.48,0,.1,0,.14-.03.17l-.24.2-.24.41c-.07.14-.14.27-.17.37l-.2.34-.37,1.19-.03.34v.1c-.04.17.03.27.24.27l-.1.03c.1,0,.14-.03.14-.07l-.03-.14-.03-.24.14-.65.31-.51.07-.03.27-.27c.34-.24.58-.41.71-.44v.37l.51-.1c.37,0,.61.14.75.41-1.53.1-2.28.85-2.28,2.31,0,1.09.37,2.07,1.16,2.99l1.19.95.27.17c.24.1.41.2.54.27.14.03.24.07.27.1.24.03.37.1.44.1.07.07.17.17.34.37-.07.03-.17.03-.27.03-.75,0-1.73-.48-2.92-1.39l-.58-.58-.51-.61-.2-.34-.14-.24-.27-.58-.1-.27-.14-.48-.07-.34-.03-.27-.03-.2.1-2.31c.1-.27.17-.51.2-.68.03-.17.1-.31.14-.41l.17-.51c.07-.17.1-.34.1-.54v-.24c.03-.24-.07-.37-.31-.37-.17,0-.27.07-.27.24,0,.1.03.2.07.37.07.17.1.27.1.34,0,.1-.03.2-.1.38l-.17.03.03-.34ZM.82,26.39h25.54V.85H.82v25.54ZM.41.41h26.39v26.39H.41V.41ZM0,27.21h27.21V0H0v27.21Z" fill="#231f20"/>
    </g>
  </g>
</svg>