<?xml version="1.0" encoding="UTF-8"?>
<svg id="Layer_1" xmlns="http://www.w3.org/2000/svg" width="27.21" height="27.21" xmlns:xlink="http://www.w3.org/1999/xlink" viewBox="0 0 27.21 27.21">
  <defs>
    <clipPath id="clippath">
      <rect width="27.21" height="27.21" fill="none"/>
    </clipPath>
    <clipPath id="clippath-1">
      <rect y="0" width="27.21" height="27.21" fill="none"/>
    </clipPath>
  </defs>
  <g clip-path="url(#clippath)">
    <g clip-path="url(#clippath-1)">
      <path d="M13.2,24.39l.27-.2c.07,0,.1.07.1.17s-.17.2-.51.37c-1.53.71-2.72,1.09-3.64,1.09-.31,0-.58-.03-.75-.14l.37-.07h.41s.1,0,.27-.03c.14,0,.31,0,.51-.07.2,0,.41-.07.65-.14.2-.03.37-.1.55-.17l.34-.1.37-.17.27-.1s.07-.07.17-.07c.07-.07.17-.1.31-.2.1-.03.2-.07.31-.17M13.3,23.37c.07.2.1.37.1.48,0,.27-.31.54-.92.82-.24.1-.44.17-.58.24l-.48.24-.31.03-.48.17c-.07.03-.2.03-.37.07-.2.03-.48.03-.78.07-.1.03-.17.03-.27.03h-.48c-.31,0-.61-.38-.85-1.09l-.07-.14-.07-.17-.2-.48c-.1-.2-.2-.37-.27-.51-.03-.17-.07-.27-.1-.37l-.1-.24-.07-.27.07-.03s.17.07.34.17l.34.31.07.07.14.07.72.61c.44.31.95.51,1.46.58.07.03.17.03.31.03h.27c.1,0,.27-.03.54-.1l.17-.03.14-.03.58-.41c.17-.1.31-.24.41-.34l.07-.07.2-.48.41.68.07.1ZM7.58,22.07c.1.1.17.17.24.2.1.03.17.1.2.14.48.31.75.51.85.61.1.03.17.1.2.14l.14.1.14.07c.14.1.31.2.51.31l.2.14.07.03-.03.07c-.65-.07-1.22-.34-1.67-.82l-.17-.17-.27-.17-.58-.44-.2-.2.07-.07.31.07ZM10.68,3.44l1.29.17.17.03.34.14c.1.03.2.14.34.27-1.22-.03-1.94-.24-2.14-.61M17.35,3.16v-.31l.24.07.07.2c-.07.31-.2.48-.44.58-.78.34-1.19.88-1.19,1.67v14.49l-.17,1.05-.48,1.39-.17.27c-.24.48-.41.72-.48.72h-.1s-.07-.03-.07-.14c0-.07.03-.17.1-.27.31-.44.51-.89.68-1.36.27-.92.41-1.56.41-1.97l-.07-14.46c0-.24.1-.51.31-.82.24-.34.44-.58.65-.68l.41-.2.31-.24ZM12.86,3.88c-.37-.2-.61-.31-.65-.31l-1.39-.27c-.1-.03-.17-.1-.17-.17,0-.17.2-.27.61-.24l.2.03c.41.03.88.03,1.39.07h2.62c.2,0,.34,0,.41-.03.44-.1.82-.14,1.12-.14.17,0,.27.07.27.2,0,.03-.27.24-.85.61-.65.41-.95,1.26-.92,2.55l.1,9.76v3.74l-.14.82c-.1.82-.44,1.63-1.02,2.48l-.07-.03-.07-.07-.2-.17-.31-.14-.2-.1c-.14-.24-.24-.44-.31-.61l.24-1.56.03-8.2-.03-1.22v-1.7c-.03-.07-.03-.17-.03-.27v-1.53c0-.17,0-.27.03-.34v-1.22l.03-.41c.03-.14.03-.27-.03-.41,0-.14-.07-.27-.1-.44l-.31-.41-.07-.03-.1-.14-.1-.1Z" fill="#a91e22"/>
    </g>
  </g>
</svg>