<?xml version="1.0" encoding="UTF-8"?>
<svg id="Layer_1" xmlns="http://www.w3.org/2000/svg" width="27.21" height="27.21" viewBox="0 0 27.21 27.21">
  <path d="M25.7,22.89c.03.07.03.2.03.37,0,.31-.27.75-.78,1.26l-.68.68c-.58.54-1.56.82-2.93.82-.82,0-1.7-.1-2.62-.34l-6.12-1.46-1.05-.27.14-.1c.14,0,.2,0,.24.03l2.69.48.58.17.51.1.34.1.37.1.2.03c.1.03.24.07.44.1.2.07.41.14.65.2.24.03.44.1.58.14.2.07.27.1.31.1l.17.03c.24.03.37.07.44.1l.75.1.71.1c.2.03.31.03.34.03h.27c.48.03.99-.03,1.56-.17.71-.2,1.39-.65,1.97-1.29.27-.24.51-.58.75-1.05l.14-.37ZM23.9,15.75l.1.1-.1.34c-.92,3.64-2.55,5.85-4.86,6.63l-.14.03s-.1.07-.2.1v.24c1.12.65,2.38.99,3.74.99.95,0,1.87-.37,2.72-1.12l.14-.34c.03-.24.07-.34.17-.34s.14.07.14.24c0,.78-.44,1.5-1.36,2.14s-1.9.92-2.99.85l-1.16-.1-.41-.07-3.78-.95-3.95-.78.48-.2.34-.17.24-.17s.1-.03.2-.03h.51c.17,0,.34,0,.58.03l.17.03c1.39.03,2.69-.31,3.88-1.09,1.26-.78,2.14-1.73,2.62-2.79l.1-.27.34-.68c.1-.2.17-.44.27-.68.07-.27.14-.58.2-.88.17-.65.24-.99.2-.99.1,0,.24.03.41.07s.31.07.41.07c.17,0,.51-.07.99-.2ZM21.69,21.16c.34-.34.54-.54.58-.61l.82-1.43c.17-.24.41-.92.75-1.97.03-.17.07-.31.1-.44s.07-.27.1-.44c.1-.44.24-.68.34-.68h.03l.03.03c-.65,3.54-2.14,5.92-4.46,7.18-.51.31-.78.44-.88.44s-.14-.07-.14-.17c0,.03.2-.07.58-.31l.54-.31.31-.17.17-.14,1.12-.99ZM24.1,11.87l.1.07.07.07v1.12l-.03.82c-.03.37-.07.61-.17.65-.07.03-.17.07-.31.1l-.37.07h-.58c-.17-.03-.31-.1-.44-.2l-.1-.03.1-1.29v-.03c0,.1-.03-.2-.1-.85v-.14l1.09-.1c.1-.03.24-.07.37-.14.14,0,.27-.07.37-.1ZM24.54,11.67c.07.34.1.51.14.54v1.67c0,.31-.1.51-.34.58l.03-.58c.07-.34.1-.61.1-.82,0-.17,0-.34-.03-.54-.03-.24-.07-.48-.1-.75l.2-.1ZM21.86,6.02c.99.78,1.7,1.9,2.14,3.33l.37,1.12.07.31v.03c0,.1-.03.17-.14.17s-.14-.1-.17-.34l-.03-.07v-.07c-.1-.44-.24-.82-.37-1.19-.1-.34-.24-.65-.41-.92l-.03-.17-.48-.85-.07-.07-.27-.41-.14-.2-.1-.14-.37-.54ZM15.09,2.52c1.6.17,3.27.88,5.03,2.18,1.56,1.19,2.58,2.41,3.1,3.71l.65,1.77c.17.37.24.65.24.82,0,.07-.03.1-.14.14-.48.24-.99.37-1.5.41h-.07c-.2,0-.31-.1-.37-.24,0-.2-.03-.34-.07-.51l-.37-1.16c-.51-1.56-1.29-2.89-2.35-4.05-1.05-1.09-2.28-1.84-3.64-2.21-.37-.1-.54-.31-.51-.65v-.2ZM6.11,18.64c-.51-.78-.95-2.07-1.33-3.91l-.03-.71c-.1-.34-.14-.82-.14-1.43,0-2.21.41-4.05,1.26-5.51.1-.24.24-.48.34-.61.1-.2.2-.34.31-.44.07-.1.31-.34.68-.71l.75-.58.48-.31.44-.27c1.19-.65,2.38-.95,3.64-.95.48,0,.71.07.71.17,0,.07-.07.1-.17.1l-.37-.03-.27-.03c-1.94-.1-3.64.61-5.1,2.07s-2.28,3.3-2.38,5.48l-.03.48c-.03.1-.03.24-.03.34v.78c0,1.67.17,2.96.48,3.91l.68,1.8.1.37ZM10.84,22.41l-.27.2-.41.2c-.44.17-.65.27-.68.27-.17,0-.41-.1-.71-.27l-1.29-.65c-1.56-.78-2.75-2.04-3.61-3.74-.85-1.67-1.26-3.67-1.26-6.02,0-2.55.85-4.83,2.58-6.9s3.64-3.1,5.78-3.1c.44,0,.82.07,1.09.2l.41.24c.14.03.2.1.2.14,0,.07-.03.1-.14.1l-.24-.03c-2.28-.17-4.18.68-5.68,2.55-1.46,1.87-2.21,4.22-2.21,7.04,0,2.04.44,3.91,1.33,5.61s2.01,2.86,3.4,3.47l.61.31,1.09.37ZM13.42,2.38c.14,0,.2.03.2.1,0,.1,0,.14-.03.17l-.17-.2-.07-.07h.07Z" fill="#a91e22"/>
</svg>