<?xml version="1.0" encoding="UTF-8"?>
<svg id="Layer_1" xmlns="http://www.w3.org/2000/svg" width="27.21" height="27.21" xmlns:xlink="http://www.w3.org/1999/xlink" viewBox="0 0 27.21 27.21">
  <defs>
    <clipPath id="clippath">
      <rect width="27.21" height="27.21" fill="none"/>
    </clipPath>
    <clipPath id="clippath-1">
      <rect y="0" width="27.21" height="27.21" fill="none"/>
    </clipPath>
  </defs>
  <g clip-path="url(#clippath)">
    <g clip-path="url(#clippath-1)">
      <path d="M18.71,25.61h-.03c-.07,0-.1.03-.1.14l.03.1.1-.24ZM18.16,25.75l.14.03.03-.2-.17.17ZM17.89,25.47l-.1.31c.17-.03.24-.1.24-.2,0-.03-.03-.07-.14-.1M17.48,25.34l-.14.41.2-.03.1-.2-.17-.17ZM16.97,25.17l.07.17-.2.24.24-.1-.24.1c.24-.03.37-.1.37-.17,0-.1,0-.2-.03-.24l-.24-.07.03.07ZM13.77,24.22v.1l.31.07.17.1.44.2.41.48c0-.14-.14-.31-.44-.54l-.14-.1-.14-.1c-.2-.14-.41-.2-.61-.2M11.09,23.81l-.44.03-.14.17-.17.07.14.1.2-.07h-.07l.14-.1.34-.2ZM11.09,23.5l-.44-.03-.24.17-.27-.03c.03.14.1.2.2.2l.24-.03h-.24c.37,0,.65-.1.75-.27M15.37,22.45c-.03.17-.07.41-.07.65,0-.03.03.03.07.17.1-.58.2-.99.31-1.23l-.31.41ZM25.1,21.12l.14-.03.24.27.1.03-.17.03s.14-.03.24-.03l-.24-.27-.1-.1-.14-.03-.07.14ZM25.58,20.75l-.2-.14-.07.07-.07.03.14.07v.1h.14l.07-.14ZM25.44,20.24l.03.17.1.14.07.07c.1,0,.14-.03.14-.07s-.03-.14-.1-.27l-.24-.03ZM10.58,20.14l-.1.03-.07.03-.14.14v.2h.14l.17-.41ZM10.14,19.39l-.07.37-.07.2v.82h.1v-.2l.03-.37c.03-.17.03-.27.07-.41l.07-.24.24-.88-.07.17c-.03.14-.1.24-.17.34-.07.14-.1.2-.14.2M18.84,19.25l-.61-.03h-.24l-.41.14h.07c.1-.17.27-.24.48-.27l.72.17ZM18.94,19.08l-.78-.41-.17.03-.31.07c-.2.03-.31.17-.31.37h.14c.17-.17.34-.24.51-.24.1,0,.27.03.48.07.2.07.34.1.44.1M20.75,18.6l-.14-.17c0,.17.03.27.1.27.1,0,.14,0,.14-.03l-.03-.07h-.07ZM20.41,18.16l-.14-.1c-.1,0-.14,0-.17.03.03.07.1.14.2.2v.07s-.07.2-.17.48l.14.03c.17-.17.24-.31.24-.41,0-.07-.03-.17-.1-.31M18.6,17.35c.51.17.89.24,1.12.2l.75-.17-1.87-.03ZM10.37,17.11l-.14-.27h-.07c.03.07.03.2.03.37v.2c-.03.07-.03.17-.07.27h.1c.07-.17.1-.31.1-.41,0-.17,0-.2.03-.17M17.82,12.31l-.14-.1h-.31c-.24,0-.37.07-.48.24l.48-.1.44-.03ZM15.41,12.52l-.14-.37-.03.24-.03.14.07.14.03.03h.17l.14-.03-.2-.14ZM21.84,10.48l-.07.07.07.14.14.03-.14-.24ZM22.01,10.27l.14.31h.1l.07-.14c-.1-.1-.2-.17-.31-.17M19.86,8.33c.1.07.2.1.37.1l.03-.03.03-.07h-.07v.1l.41-.07-.48-.03-.31-.17v.17ZM20.61,8.03h-.41l.03.1.27-.03.1-.07ZM8.23,7.31l-.17.27-.03.37.17-.41.03-.24ZM21.12,7.35l.03-.07s.03.03-.03.14c-.07.1-.14.14-.2.14-.03,0-.07-.07-.07-.17v-.07l.14-.17s.07.03.17.14l-.03.07ZM23.09,6.5l-1.16.71-.31.48.34-.65.41-.34.71-.2ZM19.83,5.85l-.2.03.1.07h-.1l1.33.34-1.12-.44ZM20.07,5.61c-.1-.07-.2-.1-.27-.1-.1,0-.14.03-.14.07l.1.07.2.03.07-.1.03.03ZM12.72,5.41l-.17.03s-.03-.07-.03-.17l.2.14ZM8.54,5.58l-.27-.17.31.03.27.1c-.24.03-.48-.03-.78-.2l-.37-.17c-.07-.03.24.03.88.27h.14c.17.1.17.14.03.14l.1-.03-.31.03ZM12.79,3.91c.14.27.2.44.2.54,0,.2.04.31.1.31v-.07c0-.17,0-.27.03-.24-.03-.1-.07-.2-.1-.34v-.1l-.24-.1ZM2.48,4.15c-.1.1-.17.2-.17.27l-.07.07-.03-.1.1-.17.07-.1.1.03ZM10.2,3.61l-.31.14-.1.1c0,.07.03.1.14.1l.27-.07v.1c-.17.03-.34.17-.51.34l.1.07.31-.2.17-.07,1.22.14-1.12-.37.03-.14.31-.03.07-.03-.03-.07-.07.03-.48-.03ZM23.71,3.06l.1.07h-.07c.14.03.24.1.31.27l.17.1c-.1-.31-.27-.44-.51-.44M12.38,2.65v.41-.41ZM3.2,2.35v.17l.17-.07-.17-.1ZM12.24,2.35c-.14,0-.2.31-.2.92,0,.2.1.41.27.58l-.14-.65v-.27c.03-.07.03-.17.07-.27l.07-.31h-.07ZM3.54,2.18l-.03.07h.17l-.03-.1-.1.03ZM4.08,2.14l-.2-.03.14-.17.07.2ZM4.32,1.8v.14l.14-.03-.14-.1ZM4.69,1.7h.24l-.1.17-.14-.17ZM23.5,24.93l.07.03c-.17.31-.27.51-.27.61,0,.14.1.27.31.44-.17.03-.27.07-.31.07-.17,0-.27-.14-.37-.41.03-.17.1-.34.2-.44l.14-.1.24-.2ZM4.25,24.52h.14l.51.07c.17.03.24.2.24.51,0,.07-.07.1-.24.14l-.03-.2-.17-.2-.17-.03h-.03c-.24,0-.38.14-.38.41,0,.1.03.2.14.37.24.17.41.24.55.24-.03,0,.2-.07.65-.17.2-.07.34-.17.44-.31.1-.14.17-.2.2-.2.1,0,.14,0,.17.03-.37.65-.85.95-1.5.95-.68,0-1.02-.27-1.02-.85,0-.31.17-.58.51-.75M7.21,24.49l.07-.03h.24l.34.03.65.2,1.53.92.58.27-.07.07-.07.03c-.07,0-.2-.07-.37-.17-1.19-.71-1.97-1.05-2.42-1.05-.51,0-.75.17-.75.48,0,.37.24.54.68.54.1,0,.27-.1.51-.27-.03.38-.31.58-.78.58-.58,0-.89-.27-.89-.78h.03l.1-.27v-.17h-.24v-.07c0-.17.27-.27.85-.31M22.41,24.45c-.51.44-1.19.68-2.01.68-.37,0-.54-.14-.54-.37,0-.1.03-.2.1-.24l.2-.1v-.03l.07.03v.07c0,.27.14.41.37.41.51,0,.92-.1,1.26-.31l.14-.07.17-.07h.24ZM18.43,24.73c0-.24.1-.34.34-.34.17,0,.24.1.24.27,0,.2-.1.31-.31.31-.17,0-.27-.07-.27-.24M9.62,23.71l.03.07s.03.1.03.2c0,.24-.2.34-.58.34-.07,0-.41-.03-1.02-.1-.17-.03-.31-.03-.41-.07-.14,0-.27,0-.37.03l-3.5.1-.2-.17v-.1c1.8-.07,3.06-.1,3.78-.1.31,0,.54,0,.78.03.2,0,.41,0,.58.03l.24.03.17.03c.24,0,.37-.1.48-.34M24.49,23.5l.1.03c.07.17.1.31.1.34,0,.31-.2.44-.58.41l-1.19-.1-2.18.1h-.03c-.58-.03-.88-.14-.88-.31l3.33-.07h-.27l.58.03c.24.03.41.03.51.07q.1,0,0,0c.2,0,.34-.03.44-.14l.07-.37ZM18.54,23.47h.03c.2,0,.31.07.31.2,0,.24-.1.34-.27.34s-.24-.1-.24-.27c0-.14.07-.24.17-.27M17.65,23.4h.03c.2,0,.31.1.31.34,0,.2-.07.31-.24.31s-.27-.14-.27-.44c0-.1.07-.17.17-.2M1.33,22.07l.24.24,1.39,1.22.24.37.17.27.03.27.07.37v.03c.03.14-.03.34-.17.58-.24.44-.54.65-.92.61h-.07l-.27-.03c-.31-.03-.48-.07-.54-.14l-.14-.21-.2-.27s-.03-.07-.03-.17c0-.51.14-.75.41-.75l.27-.03.24-.2c.03-.24.07-.34.07-.37,0-.1-.07-.17-.17-.24-.1-.07-.2-.1-.24-.1-.1,0-.27.07-.44.17.1-.27.24-.41.44-.41.51,0,.75.27.75.82,0,.17-.03.31-.14.37l-.58.51-.07.14c0,.31.17.44.54.44.54,0,.82-.31.82-.95,0-.44-.07-.75-.24-.92l-1.19-1.12-.27-.51ZM15.24,21.77c.37-.37.68-.54.92-.54.1,0,.37.07.75.17.1.03.17.1.17.17v.07l.03.07c.24.07.37.2.41.44-.07.31-.14.48-.24.58l-.48.48c-.07,0-.1.14-.1.37,0,.65.27.99.78.99h.07l.31-.17c.07-.03.17-.07.34-.1-.03.24-.24.37-.54.37-.85,0-1.26-.37-1.26-1.12,0-.24.17-.54.51-.92.17-.14.24-.24.24-.34,0,.03-.03-.07-.07-.31-.27-.1-.41-.17-.44-.17-.27,0-.51.14-.71.44-.24.27-.34.58-.34.92,0,.17.03.37.1.58l.65.75.17.17.71.37.14.03.1-.03.24.14.27.07.31.07c.17.07.41.1.75.1.31,0,.61-.03.99-.03.37-.07.75-.1,1.19-.2l.44-.17.41-.14.75-.41h.75l.03.07c0,.07-.1.17-.31.31l-.71.51c-.71.51-1.87.75-3.43.72h-.24c-1.26,0-2.21-.1-2.86-.27-1.06-.37-1.7-.54-1.91-.54-.75,0-1.16.24-1.22.75-.37-.14-.58-.38-.58-.72,0-.27.14-.48.44-.61l.31-.17-.1-.1c-.14-.17-.2-.27-.2-.31,0-.1.2-.14.58-.14.24,0,.61.1,1.05.31.1.1.24.17.34.24.1.1.24.2.34.31l.1.07.24.17.27.1.27.1.2.07.2.03h.14c.1,0,.14-.07.14-.2v-.1c-.14-.03-.24-.07-.34-.1-.51-.2-.95-.51-1.29-.92l-.34-.58c-.03-.1-.07-.24-.1-.31-.03-.14-.03-.2-.07-.27v-.2c-.03-.34.07-.75.27-1.19l.24.14.03.1.2.07ZM2.28,20.54c.2,0,.31.14.31.37s-.1.34-.27.34c-.2,0-.31-.14-.31-.37s.07-.34.17-.34h.1ZM14.08,21.7c-.07-.24-.1-.41-.1-.54v-.03c0-.51.17-.75.51-.75.37,0,.58.14.58.41l-.07.1-.37-.14-.1-.07c-.24.24-.34.48-.34.71,0,.03,0,.14.03.24,0,.14,0,.31.03.48l-.17-.41ZM11.33,20.51l.44-.31.07-.03.07-.03c.44,0,.82.41,1.05,1.19.17.41.27.71.38.99.07.2.14.37.17.44l.27.48.14.31c-.44-.31-.78-.85-1.06-1.7l-.14-.31c-.2-.61-.51-.92-.88-.92-.31,0-.48.2-.48.61,0,.1.07.24.24.41l.61-.07c.31.2.44.34.44.44v.03l-.03.17.03.54c0,.24-.14.38-.41.38h-.27c.31-.31.48-.51.48-.61,0-.17,0-.27-.03-.31-.1-.14-.2-.2-.24-.2s-.14.03-.24.1c-.1.03-.2.07-.24.07-.37,0-.58-.31-.58-.92,0-.24.07-.48.2-.75M18.81,20.14l.1-.07.07-.03h.1l.17.1.24.27.17.17.31.34.37.41.65.75.68.61.34.2c-.14,0-.24,0-.34-.03-.1-.03-.27-.14-.58-.34l-.41-.34-.44-.54-.03-.07-.27-.24-.07-.14-.24-.2-.14-.17-.14-.1-.41-.48-.14-.1ZM15.44,20.07c.2.07.31.17.31.31,0,.17-.1.24-.27.24-.24,0-.34-.1-.34-.34,0-.17.07-.24.24-.24l.07.03ZM14.52,19.59h.07c.17,0,.24.14.24.41-.07.03-.17.07-.31.1l-.07-.04c-.1-.03-.14-.1-.14-.2,0-.14.07-.24.2-.27M7.31,21.19c0-.24,0-.41.03-.48v-.27c0-.27,0-.44-.03-.51-.03-.17-.03-.27.03-.34l.2-.14h.07c-.03.24-.03.48-.07.68v.75c0,.78.07,1.39.24,1.84l.07.07.07.03v.07l-.14-.1c-.1-.07-.2-.17-.31-.34-.14-.37-.2-.68-.17-.85v-.41ZM15.51,19.79v-.14c-.03-.17.03-.24.2-.24s.27.1.27.27-.07.27-.24.27h-.03l-.2-.17ZM15.71,19.05l.51-.34.31-.07c.17-.07.27-.1.34-.1h.1l.27.03c-.24.37-.34.65-.34.82,0,.1.03.24.1.41l.07.03c-.1.31-.14.55-.14.72,0,.37.17.65.51.82.17.1.31.14.48.14.07,0,.2-.03.37-.1l-.27-.27s-.03-.17-.03-.34c0-.24.1-.37.34-.48.17-.1.31-.17.34-.17l.14.1c.07.07.14.14.2.24.07.1.14.17.2.27l.1.1.14.14.1.07,1.05,1.26.51.41.14.07.38.2.78.17,1.29.17.37.03h.07c.17-.03.24.07.24.24s-.07.27-.24.24l-.99-.07-3.54-.03c-.31-.17-.51-.31-.61-.48l-.2-.14-.41-.48-.14-.17-.1-.03-.37-.44-.78-.88-.24-.2-.2-.24-.34-.34-.2-.2c.14-.2.2-.34.2-.44,0-.24-.17-.41-.55-.51l.03-.14ZM7.11,18.3l.03.68-.2-.17-.03-.1v-.07c0-.1.07-.24.2-.34M7.28,18.3l.1-.03.2.07v.27l.03.27c0,.14-.07.2-.17.2s-.17-.07-.17-.17v-.61ZM15.31,18.81l.34-.34c.1-.07.14-.1.17-.14l.58-.17s.1-.03.27-.03c.34,0,.75.07,1.19.2l-.37.07-.95.03c-.65,0-1.09.48-1.36,1.43-.1-.17-.17-.31-.17-.41,0-.14.07-.31.24-.54l.07-.1ZM13.6,17.75c.24.27.34.41.37.37l-.1.2-.03.17-.2.99s-.03.17-.03.34c0,.89.1,1.57.31,2.04l.34.82.14.72c.03.1.1.2.14.34.03.07.1.17.14.27-.17-.07-.27-.2-.34-.37l-.17-.14-.17-.31-.2-.44-.1-.27c-.1-.17-.14-.34-.2-.48l-.24-1.02c-.07-.37-.1-.65-.1-.88,0-.72.1-1.36.31-1.94l.17-.41ZM6.6,17.89l.48-.17.14-.03c.17.03.34.07.54.14.14.03.31.1.48.2l.44.27c.31.17.48.37.58.54l.1.07c.1.14.2.24.27.31l.1.1v.1l-.14-.07-.1-.1c-.71-.78-1.43-1.19-2.07-1.19-.48,0-.72.17-.72.48,0,.37.14.61.41.68l.27.07-.17.1s-.07.03-.17.03c-.03,0-.2-.07-.51-.17-.14-.17-.24-.37-.31-.58v-.14c.03-.24.17-.44.37-.65M4.08,17.72l-.27.2-.2.1-.27.17-.2.14c-.07.03-.1.14-.1.31,0,.14.1.27.27.37-.1.1-.2.17-.31.17-.24,0-.37-.14-.37-.41,0-.44.41-.78,1.26-1.02l.2-.03ZM5.75,17.48l.88.1c-.41.34-.61.65-.61.95,0,.41.24.78.68,1.09h.51l-.03,2.14.1.48c.07.41.34.71.85.92l.65.17c.48.1.71.24.71.37,0,.1-.1.17-.31.17l-1.6-.07-2.14.07h-.88l-.58.03h-.07c-.24.03-.34-.07-.34-.24,0-.07.07-.14.17-.17l.82-.31c.48-.17.71-.55.71-1.16l.03-2.01-.07-.31v-1.12l-.03-.85.03-.17c.03-.1.14-.1.27-.07h.07l.17-.03ZM11.22,17.96l.17-.24.24-.1s.07-.07.14-.17c.1-.1.31-.14.65-.14.17,0,.31.03.48.14l-.07.2-.17.27.24.1c.14.07.2.2.2.44,0,.34-.14.54-.38.58l-.61.14c-.07.03-.14.1-.2.2-.03.1-.07.2-.07.27l.07.34c-.2-.03-.34-.14-.41-.37v-.2c0-.1.03-.2.1-.31.1-.17.24-.27.37-.31l.54-.1c.07,0,.1-.07.1-.17,0-.24-.14-.34-.41-.34-.34,0-.65.24-.95.71-.31.51-.44,1.05-.44,1.67,0,.58,0,.88.03.92l.68,2.04v.07c0,.51-.17.85-.51,1.09.1.44.31.75.68.99l.07.14c-.03.1-.14.17-.24.17-.44,0-.82-.31-1.12-.95l-.14-.2.03-.07c-.44,0-.65-.1-.65-.31.03-.03.1-.07.2-.1.1-.17.17-.31.17-.34,0,.03-.03-.07-.07-.31l-.24-.2c-.27-.17-.48-.27-.65-.31l-.03-.03-.03-.07-.07-.21c-.17-.71-.27-1.26-.27-1.56v-.37h-.03v-.54l.07-.27.07-.99c0-.17.03-.24.14-.24-.03,0,.14.17.51.54.17.14.24.31.24.48v1.67s.07.27.17.92c.1.51.27.78.48.78.1,0,.17-.07.17-.24,0-.1,0-.14-.03-.17l-.14-.31-.17-.41-.03-.1-.1-.37-.1-.41v-.95l-.03-.27c-.03-.44.14-.99.48-1.63l.1-.2.27-.44.2-.17c.03.24.1.34.2.34h.1ZM4.15,17.18h.17v.14c0,.1-.03.2-.07.24-.1.03-.24.07-.34.1-.1.03-.24.07-.34.1l-.41.17-.58.34-.58.58-.1.27-.31.54c-.07.17-.1.44-.1.78,0,.58.17,1.09.48,1.46.31.41.71.61,1.22.61.92,0,1.36-.37,1.36-1.09,0-.03-.07-.17-.17-.44-.27-.1-.44-.17-.51-.17-.24,0-.37.17-.37.48,0,.24.14.44.41.65-.17.1-.31.17-.37.17-.51,0-.78-.27-.78-.85,0-.14.03-.27.17-.44.07-.17.24-.24.41-.27l.07-.14v.07l-.03-.07s-.14.03-.31.03c-.2,0-.31-.07-.31-.17s.2-.24.61-.44h.48c.78.14,1.16.55,1.16,1.26,0,.51-.17.95-.48,1.29-.31.31-.72.48-1.23.48-.61,0-1.12-.2-1.53-.65-.41-.44-.61-.99-.61-1.63,0-1.33.58-2.28,1.7-2.82.17-.17.41-.31.68-.34l.14-.1.48-.14ZM5.92,16.94c.88.03,1.6.24,2.18.55.1.03.2.07.31.17l.1.07c.31.17.48.31.51.34l.65.58.17.1v.41l-.14-.07-.1-.1-.17-.2-.07-.07c-.99-.99-2.07-1.46-3.3-1.46-.37,0-.71.03-1.02.14v-.03c0-.17.03-.27.07-.34.03,0,.17-.03.34-.03h.2c.1,0,.2,0,.27-.03M4.56,16.9l.07-.03c.14,0,.2.07.2.24,0,.72-.2,1.36-.58,1.87-.37.51-.85.78-1.39.78-.58,0-.85-.1-.85-.34,0-.1.03-.14.1-.14l.27.17.14-.03h.44c.88,0,1.43-.85,1.6-2.52M2.18,16.84l.17.34c.17.1.31.14.44.14.03,0,.14-.03.31-.07.34-.17.58-.24.75-.24l.27.03-.34.14-.27.1-.68.27-.48.03-.07.03-.07.03c-.14,0-.2-.1-.2-.34v-.27l.17-.2ZM7.76,16.73c.92.27,1.6.85,2.07,1.7l-.31-.27-.48-.41-.37-.27c-.2-.14-.37-.24-.54-.27-.24-.1-.37-.24-.37-.41v-.07ZM11.22,17.18c.17-.65.44-.95.82-.95.2.03.31.1.34.2l.07.41-.27-.2-.07-.03-.14-.03c-.24,0-.48.2-.75.61M2.28,16.09c.44.24.85.37,1.22.37.17,0,.37-.03.65-.07.31-.03.51-.07.61-.07s.17.03.2.07v.24h-.37l-.17.1-.03-.03c-.31.07-.58.1-.75.1-.51,0-1.02-.14-1.5-.41l.14-.31ZM4.8,16.16h-.34l.31-.27.03.27ZM11.53,15.51l.17.24-.44.61-.31.92-.2.1.03-.51c.03-.27.2-.61.51-1.02l.24-.34ZM2.14,15.44c.1.1.14.17.14.27,0,.03-.03.14-.1.24-.1.1-.17.24-.27.44-.07.14-.14.34-.2.54-.1.2-.14.41-.14.61v.95c0,.1-.03.17-.14.17-.14,0-.2-.14-.17-.44l.1-1.12c.03-.37.27-.95.78-1.67M8.3,15.92c0-.1.07-.24.24-.41.17-.14.34-.2.51-.2.54,0,.82.24.85.75v.48l.17.03.14-.17c.2.27.31.51.31.71s-.2.65-.58,1.29l-.07-.14-.14-.27-.07-.07-.1-.14-.17-.17-.17-.14.03-.31.1-.24v-.65l-.07-.31-.1-.2c-.14-.03-.24-.07-.31-.14l-.1-.03c-.17,0-.27.07-.27.2l.07.14.37.37.07.1c0,.14-.1.27-.34.41v-.1c.03-.17-.03-.31-.17-.41-.14-.14-.2-.27-.2-.41M19.05,15.71c-.31-.2-.72-.31-1.19-.31-.17,0-.37.03-.61.14l-.34.1-.51.31c-.14.1-.24.17-.34.24l-.1-.1c0-.1.07-.17.2-.24l.54-.31,1.26-.37.31-.03.14-.03c.2,0,.55.1.99.31.44.2.68.44.68.68,0,.1-.14.14-.37.14,0,.24-.03.41-.1.51-.07.1-.2.14-.44.14-.14,0-.2-.03-.2-.14v-.03l.24-.27v-.14l.03-.31-.1-.14-.07-.14ZM10.92,14.86c.17.17.27.34.27.44,0,.03-.07.14-.2.27l-.2.41-.17.37s-.03-.03-.17-.07l-.14-.14c.17-.54.37-.99.61-1.29M3.37,14.93l.2-.17.14.2.07.1s.03.14.03.37-.14.48-.41.71c.07-.24.1-.37.1-.48,0-.24-.03-.51-.14-.75M10.17,15.31l.41-.78.14.07.03.14-.41.58-.07.27-.17.31-.07-.27c0-.1.03-.2.14-.31M16.46,14.9l.24-.1.92-.31,1.02-.1.27.03.61.1c.34.1.58.14.71.14.1.03.24.1.31.14.14.03.2.1.27.14l.54.37c.65.54.95,1.16.95,1.8,0,.75-.2,1.19-.65,1.36l-.65.27.07.48-.03.17c0,.24-.24.37-.68.41l-1.46.07c-.07,0-.17.03-.34.14l-.48.2c-.2.07-.31.24-.31.51,0,.1.03.27.1.58-.24,0-.41-.07-.58-.2-.1-.31-.17-.51-.17-.61,0-.37.07-.61.2-.75.17-.14.24-.2.24-.24v-.1l-.51.03.07-.41c.31-.34.65-.51,1.02-.51.27,0,.58.07.89.24.1.03.2.03.31.03.1.03.17.03.2.03.31,0,.44-.1.44-.34s-.1-.31-.27-.27l-1.05.1h-.03c-.31,0-.58-.1-.88-.34l-.27-.17-.2-.44h.44l-.17-.24c-.1-.37-.17-.58-.17-.61,0-.31.2-.51.58-.65l-.03.31c0,.17.03.31.1.37l.41.48.17.03.48.17,1.16-.07.24.03.2.07.14.07c.1.17.17.31.17.37s-.07.17-.2.34c.03.03.14.03.31.03.1,0,.24-.07.37-.2.24-.24.34-.48.34-.75,0-.2-.07-.48-.2-.78l-.27-.44-.34-.31c-.71-.44-1.5-.68-2.35-.68-.92,0-1.6.17-2.11.54l-.75.48-.03.03-.07-.58.27-.17.2-.17.31-.14ZM2.76,15v-.17c0-.07.07-.17.24-.34.14-.14.24-.2.31-.2.17,0,.24.07.24.17,0,.03-.24.24-.68.65l-.1-.1ZM23.6,14.29c.78.85,1.19,1.7,1.16,2.58v.48c-.1.92-.34,1.46-.72,1.67l-.34.17v-.54l-.27.14c-.1,0-.14,0-.17.03-.48,0-.71-.14-.75-.41-.03-.1-.07-.24-.1-.41l-.03-.07s.07-.24.2-.65c.17-.24.37-.41.61-.55-.17.24-.24.44-.24.61,0,.14.03.34.14.58l.2.17h.14c.31.03.54-.1.71-.34.24-.37.34-.72.34-1.09,0-.61-.17-1.19-.55-1.77l-.14-.14-.2-.48ZM3.27,15.95c-.68-.14-1.02-.51-1.02-1.12,0-.51.2-.75.61-.75.1,0,.17,0,.2.03l-.17.2-.24.14-.1.2c.03.51.27.82.71.95v.34ZM4.63,14.52l-.44-.34-.07-.2.48.1.24.24c.1.31.17.48.17.55,0,.58-.37.95-1.09,1.12.03-.17.03-.24.07-.27.03-.03.14-.1.38-.2.24-.14.37-.34.37-.58,0-.14,0-.24-.03-.27l-.03-.1-.03-.03ZM22.45,13.98l.24-.1h.14c.14,0,.24.03.34.14.2.17.31.38.31.58,0,.65-.31.95-.95.95-.24,0-.41-.03-.58-.14l-1.63-.88-.82-.24-.48-.03-.38-.03c.17-.1.34-.14.51-.14s.51.07,1.02.17c.14.03.24.07.34.1l.37.14.99.48c.17.03.31.07.41.07.48,0,.71-.14.71-.44,0-.07-.03-.17-.1-.27l.1-.03c-.17-.1-.37-.17-.61-.2l.07-.1ZM9.86,13.64l.17.07-.2.31-1.97,1.8-.27.24v.85c.03.07,0,.1-.1.1-.14,0-.2-.07-.2-.24l.03-.24.03-.58,2.14-2.04.27-.24.1-.03ZM13.88,13.77c.44-.24.85-.34,1.19-.34.85,0,1.29.31,1.29.95,0,.17-.1.34-.24.48-.2.14-.38.2-.55.2s-.34-.03-.58-.1c.48-.03.71-.2.71-.58,0-.1-.03-.24-.14-.41-.31-.17-.58-.27-.78-.27-.14,0-.31.03-.48.1s-.31.1-.34.1-.07-.03-.1-.14M4.01,14.8c-.31-.44-.54-.72-.71-.82-.37-.24-.54-.37-.54-.44,0-.1.07-.14.2-.14.07,0,.27.14.58.37l.17.17.34.41.27.34.1.14.03.14c0,.1-.03.2-.14.31l-.14-.17-.17-.31ZM18.54,12.21l.1-.07s.24-.03.58.03l.27.03c.24.03.41.07.58.1.14.03.27.03.37.07l.31.14.34.14c.58.2.85.54.85.99s-.27.68-.78.68c-.48,0-.82-.24-1.05-.75.31.17.58.27.75.27.31,0,.48-.1.48-.31,0-.1-.03-.24-.1-.41l-.14-.14c-.65-.44-1.12-.65-1.43-.65l-.75-.03-.38-.1ZM20.99,11.63c.58.1,1.02.2,1.29.37l.71.44.41.17.68.41c.41.17.72.27.92.27.31,0,.48-.14.48-.37,0-.17-.17-.31-.51-.41.1-.1.2-.14.31-.14.44,0,.65.24.65.71,0,.51-.27.78-.78.78-.17,0-.34-.03-.51-.14-.17-.1-.27-.2-.41-.34-.07-.07-.17-.17-.27-.2l-.82-.51-.31-.2c-.1-.07-.2-.14-.37-.2l-.48-.24-.99-.41ZM23.98,11.6h.1c.27,0,.41.14.41.37,0,.17-.1.24-.31.24-.24,0-.37-.1-.37-.31,0-.17.07-.27.17-.31M24.86,11.94c-.1-.1-.14-.17-.14-.24,0-.1.07-.14.2-.14s.2.07.2.17c0,.14-.07.2-.2.2h-.07ZM17.92,11.77l.2-.2,1.06.03.37.07.41.03c.34.03.78.14,1.29.31l.34.1.82.37c1.39.88,2.35,1.8,2.82,2.72.48.92.75,2.28.78,4.08v.71c.03.41,0,.72-.07.95l-.75,2.75c-.07.2-.1.41-.1.65,0,.37.1.65.31.88l.27.2h.17v.17c.03.31-.17.44-.61.44-.17,0-.34-.07-.51-.24l-.1-.14-.2-.48c-.1.03-.2.14-.31.31l-.03-.1c-.07-.17-.1-.31-.1-.44l.03-.17c0-.07,0-.17.03-.27l.44-.1c.31-.1.44-.31.44-.61,0-.17-.1-.34-.27-.48-.14-.03-.2-.1-.24-.17.1-.17.17-.31.2-.44l.1-.2c.31-.58.48-.92.48-.99v-.14s-.14-.03-.24-.03h-.03l-.31.65c-.24.48-.65.75-1.29.85l.1-.48-.24.14-.14.17s-.2.07-.51.07c-.24,0-.51-.1-.82-.27l-.14-.07-.07-.1-.07-.1.1-.31c-.24-.03-.44-.1-.61-.27l-.14-.1-.1-.14h-.03l-.07-.14-.1-.37v-.27l.27.1c.03-.31.14-.58.31-.89l.34-.37c.2-.14.41-.2.58-.2.68,0,1.02.24,1.02.68v.14s-.03.07-.03.17l.03.1c.17.1.27.17.31.17l.27-.17c-.1.44-.34.68-.65.68-.41,0-.61-.17-.61-.51,0-.24.1-.44.34-.58l-.03-.1c-.17-.14-.34-.2-.44-.2-.61,0-.92.31-.92.92,0,.24.1.48.34.78l.1.07c.37.2.65.31.82.31.88,0,1.5-.37,1.8-1.09.1-.1.17-.2.2-.27.1-.17.17-.34.2-.48.07-.1.14-.2.17-.31v-.03c.14-.44.2-.95.2-1.53v-.37l-.03-.2-.03-.14c-.1-.44-.17-.78-.24-1.06-.1-.27-.17-.48-.24-.65l-.07-.17-.38-.65-.03-.03-.07-.1-.14-.17-.27-.34-.51-.48-.14-.1-.2-.17-.27-.2c-.34-.24-.58-.37-.68-.41l-1.36-.54-.82-.1-.48-.1h-.89c-.27,0-.41-.03-.41-.14l.03-.1ZM1.57,15.07l.1.41.03.14c0,.17-.07.24-.17.24-.17,0-.24-.31-.24-.95,0-.85.38-1.43,1.09-1.77l1.26-.58.2-.1c.1-.1.17-.2.2-.34.1-.37.24-.54.41-.54.1,0,.14,0,.17.03-.27.78-.68,1.29-1.22,1.46l-.68.24c-.75.27-1.12.85-1.16,1.77M9.01,10.95l.51-.1c.14-.03.37-.03.75.03h.2l.07.07.07.03-.03.07-.07.07-.78.03-.1.03-.27.14-.34.2-.07.17-.14.17v.1l.07.17.17.27c0,.1-.1.17-.27.17-.24,0-.34-.17-.34-.51l-.41.03c.03-.24.17-.48.41-.71.24-.24.41-.41.58-.44M25.03,11.16l.37-.34.03-.03h.07c.17,0,.24.1.24.34s-.14.37-.44.41l-.07-.1c-.1-.03-.17-.14-.2-.27M24.42,10.78l.2.07c.14.14.2.27.2.37,0,.14-.14.2-.41.2-.24,0-.34-.1-.34-.31,0-.14.1-.24.31-.31l.03-.03ZM14.73,11.05c-.17-.03-.27-.1-.27-.2,0-.17.07-.27.24-.27s.24.1.24.27c0,.1-.03.14-.07.14h-.1l-.03.07ZM13.13,10.71l-.14.37-.24.2-.17.2-.48.41c-.1.1-.14.17-.14.24,0,.14.07.24.24.34l5.07,5.48-.27.03c-.1,0-.17-.03-.27-.14l-.17-.2-.1-.03-.1-.14-1.19-1.33-.34-.37-.41-.41-.54-.65-.07-.07-.17-.14-.27-.38-.07-.1-.31-.27-.37-.44-.68-.71-.14-.14-.2-.27c.03-.2.14-.37.31-.54.2-.17.37-.34.54-.51l.27-.31c.1-.03.17-.1.2-.14l.24-.14-.03.14ZM15.95,10.82l.61-.34c.1,0,.14.1.14.31,0,.44-.17.85-.51,1.22-.44,0-.68.1-.68.31,0,.17.07.24.24.24.1,0,.24-.03.41-.1.03-.03.14-.07.31-.1.17-.14.34-.24.54-.24.24-.07.37-.07.44-.1h.1c.07,0,.27.07.58.2l.24.14.14.1.07.1.07.07s-.1.1-.2.14l.07.14c.1.17.17.34.17.44,0,.58-.31.88-.88.88-.17,0-.34-.07-.58-.24.58-.07.88-.27.88-.58,0-.17-.07-.24-.24-.27l-.44-.1-1.12.27c-.07.03-.2.03-.44.03-.58,0-.85-.1-.85-.34,0-.03.03-.14.07-.31l-.07-.03-.03-.03c-.07,0-.17.03-.31.1l-.27.07c-.17.03-.48.2-.92.51l-.24-.03c-.1-.07-.17-.14-.17-.2,0-.1.14-.24.37-.37.34-.31.78-.51,1.36-.61l.03-.14c-.1-.1-.17-.2-.17-.31,0-.24.14-.41.44-.51l.85-.31ZM23.54,10.34l.07.07s.1-.03.24-.03c.1,0,.17.1.17.27,0,.27-.1.41-.31.41s-.31-.1-.31-.27c0-.14.03-.27.14-.44M2.14,10.44l-.03-.2.34.27.17.17c.14.1.24.17.31.2.44.31.68.61.68.92,0,.44-.2.65-.65.65-.24,0-.34-.07-.34-.17s.1-.2.34-.34c.03-.1.03-.2.03-.27l.03-.14c0-.24-.2-.51-.58-.82-.14-.14-.24-.24-.31-.27M24.15,10.14l.03-.03c.14,0,.2.07.2.2,0,.1-.07.14-.17.14l-.1-.1c0-.1,0-.17.03-.2M15.14,10.48v-.07c0-.2.14-.31.37-.31.17,0,.27.07.27.24,0,.24-.1.37-.34.37-.1,0-.2-.07-.31-.24M24.97,10c.2.14.31.31.31.51v.1l-.1.1-.03.1-.2-.07c-.2-.07-.31-.14-.31-.24v-.1l.03-.2.03-.1.27-.1ZM14.56,10c.1.03.17.1.17.14,0,.24-.07.34-.24.34-.14,0-.2-.1-.2-.27s.07-.24.24-.24l.03.03ZM25.48,10.41c-.1-.1-.14-.2-.14-.37s.07-.24.24-.24.24.1.24.27c0,.14-.07.31-.2.51l-.14-.17ZM24.8,9.63c0-.17.1-.27.27-.27.14,0,.2.07.2.17,0,.17-.1.27-.31.27-.1,0-.17-.07-.17-.17M14.93,9.97c.17-.44.44-.65.85-.65.38,0,.68.14.92.41.24.31.37.65.37,1.09,0,.54-.2.95-.61,1.26l.1-.24.2-.48c.03-.24.07-.37.07-.41v-.27c0-.1,0-.2-.03-.27l-.03-.1c-.24-.48-.58-.71-1.02-.71-.2,0-.41.14-.65.41l-.17-.03ZM20,9.35c.1-.14.2-.2.31-.2.37,0,.58.17.58.51,0,.51-.34.78-1.02.85l-1.36.17.03-.14.03-.03.89-.07c.24-.03.51-.2.88-.51l.07-.34-.41-.24ZM1.94,9.12l.34.41.58.51.71.44.51.2.89.2.07.34c0,.14-.03.2-.1.2-.72,0-1.57-.41-2.55-1.26-.41-.41-.61-.65-.61-.68l.03-.1.14-.27ZM2.18,8.84c.31.51.58.75.88.75.24,0,.37-.17.44-.48.17.17.24.34.24.51,0,.2-.14.31-.41.31-.24,0-.54-.2-.95-.61-.1-.1-.17-.24-.2-.48M8.13,8.91c.1-.27.24-.41.44-.41.34,0,.51.2.51.58,0,.44-.34.78-.99,1.02l-.34.14.03-.17c.54-.17.82-.37.82-.68,0-.14,0-.24-.03-.27l.03-.03-.48-.17ZM3.5,8.64l-.34-.07-.2-.1-.27-.07h-.1c-.31,0-.54.17-.82.51-.2.37-.34.78-.34,1.22v.27c.03.1.03.2.07.31.17.78.41,1.36.68,1.67.17.24.27.41.27.44,0,.1-.03.14-.14.14s-.17-.07-.27-.2c-.58-.85-.88-1.8-.88-2.82,0-.48.14-.88.44-1.26.31-.38.61-.55.99-.55.51,0,.95.24,1.36.68.41.44.68,1.05.78,1.77l-.31-.03c-.03-.1-.03-.2-.07-.24v-.07c-.04-.31-.17-.61-.34-.85l-.51-.75ZM16.56,8.33c.24-.31.51-.44.82-.44.61,0,.92.37.95,1.16h.14c.03.07.03.17.03.34v.1c0,.1-.03.24-.14.37-.07.14-.14.27-.24.37-.1.1-.17.2-.24.27l-.14.1v.1l.27-.07.2-.1-.03.44c-.03.51-.41.78-1.16.85v-.07s.03-.1.14-.27c.1-.14.14-.41.14-.78,0-.03-.03-.14-.07-.24-.03-.14-.07-.24-.07-.31s.07-.14.24-.24c.17-.31.27-.54.27-.71,0-.1-.03-.24-.14-.41l-.17-.2c-.24-.17-.51-.24-.82-.27M10.48,8.57c.37-.48.78-.72,1.29-.72l.1.03.31.07-.17.48.2.07c.2.03.31.2.31.51,0,.24-.14.41-.41.58-.17.14-.31.2-.41.17h-.27c.31-.17.48-.34.48-.51,0-.03-.03-.14-.07-.31l-.07-.14-.07-.07c-.1-.07-.2-.1-.27-.1-.37,0-.65.14-.88.41l-.68.75-.31.24-.68.65-.71.44-.41.14v-.24h.1l.85-.41.75-.68.34-.41.1-.1.31-.54.27-.31ZM3.84,7.82c.2.1.31.2.31.31,0,.17-.07.27-.24.27s-.24-.1-.24-.27c0-.1.07-.2.17-.31M23.26,7.58c.14.17.24.27.27.37l.07.51c-.07.68-.41,1.19-.99,1.5-.17.1-.24.17-.2.24v.07c.24-.07.44-.17.61-.31l.71-.78.37-.61.27-.24.07-.14c.1-.1.2-.17.31-.24.07-.03.14-.1.24-.14l.2.03.03.24c.24-.03.34-.07.37-.07.2,0,.31.1.31.31l-.07.34c-.17-.07-.31-.1-.41-.1-.17,0-.27.03-.37.14l-1.19,1.19-.82.54-.65.37-.27.03-.44.17-.55.03-.31.1h-1.63l-.44.03.03.07.34-.03.41.03,1.02-.03.75.1.95.1.58-.03.41-.04.14-.03.27-.03.1-.03c.1,0,.14.03.14.14s-.1.17-.27.2l-.37.1c-.07.03-.2.03-.44.03-.2,0-.34,0-.41-.03l-1.6-.31-.41-.04-1.12.04h-.31c-.14,0-.24,0-.31-.04l-.37-.03.14-.44h.89c.1-.03.2-.03.31-.07l1.05-.27c.71-.17,1.09-.34,1.19-.48l.07-.07.07-.07.2-.14.2-.27c.17-.17.27-.41.27-.65v-.1c0-.1-.07-.17-.17-.2-.1-.07-.2-.1-.31-.1-.17,0-.27.07-.37.2l-.14.27-.03-.37v-.1c0-.07.1-.24.31-.48.17-.14.34-.2.54-.2.07,0,.31.07.68.17l.07-.37ZM13.98,7.45c.07.37.1.68.1.88v.03s0,.2-.03.55l-.07.58c0,.17,0,.27-.03.31-.03.24-.07.54-.17.82-.1.34-.2.68-.37,1.05l-.27.71c-.1.24-.2.37-.27.37l-.07-.03c-.17-.1-.24-.17-.24-.2,0-.1.03-.17.14-.27l.14-.24.07-.1.34-.82c.31-1.05.44-1.9.41-2.48v-.2l-.03-.24s-.03-.07-.03-.17,0-.17-.03-.24l.17.03c.1,0,.17-.1.27-.34M7.11,7.38l.07,5.41c0,.99.03,1.46.1,1.5h.2l.92-.92,3.1-2.89.31-.27.24-.17,1.4-1.36.03.24-.07.44-.07.41-.07.44c0,.07-.58.61-1.7,1.63-.1.07-.14.17-.14.27v.07l.17.27.31.31.17.24,1.05,1.09.27.31.14.2.17.14.17.2.27.31.17.2.14.1.1.14.1.1.41.41.14.14.1.1.41.48.95,1.02c-.75.1-1.33.44-1.7.99l-2.18-2.38-.95-.95-.1-.17-.24-.2-.14-.2-.24-.27-.1-.1-.2-.24-.17-.17-.17-.2-.34-.31c-.03-.17-.1-.24-.24-.24l-.14.07-2.58,2.38v.95c-.58-.1-.88-.17-.92-.17.03,0-.31.03-.99.1l-.07-7.79v-.24c0-.07.1-.14.31-.17l.24-.1.1-.1.27-.17.2-.2.31-.27.48-.37ZM4.8,7.24c.14,0,.2.07.2.2,0,.2-.1.31-.27.31s-.27-.07-.27-.24.1-.27.34-.27M7.45,7.14l.1,4.11v2.72c0,.1-.07.17-.17.17l-.07-.07-.03-4.8v-2.01l.17-.14ZM3.78,7.11v-.14l.14-.1h.14c.2,0,.31.1.31.31,0,.24-.1.37-.31.37s-.31-.07-.31-.24l.03-.2ZM23.54,6.94l.27-.1.1-.03c.31,0,.44.2.44.61,0,.31-.17.71-.48,1.23l.07-.34.14-.37s.03-.14.03-.31c0-.37-.2-.51-.58-.48h-.17l.17-.2ZM11.6,6.39l.44.03-.14.31.54-.1c-.1.37-.24.54-.44.51l-.71-.07-.58.03c.1-.31.31-.51.61-.65l.1.03.17-.1ZM7.21,6.8c.44-.24.85-.37,1.26-.41l.03.03c-.1.1-.2.17-.24.2-.03.03-.24.1-.61.2-.24.07-.71.41-1.36.99-.58.44-1.05.68-1.39.68-.37,0-.54-.1-.54-.34l.03-.14h.17l.17.1c.07.07.17.1.27.1h.03c.14,0,.2,0,.24-.03l.54-.27.14-.07.07-.1c.24-.17.41-.31.48-.41l.14-.14c.17-.17.37-.31.58-.41M12.55,5.95c.1.03.17.1.2.2v.03c0,.1-.1.14-.27.14s-.24-.07-.24-.2c0-.1.07-.17.24-.17h.07ZM11.56,5.88l.44.2v.03c0,.07-.07.1-.17.1h-.07c-.14,0-.2-.1-.2-.27v-.07ZM7.24,5.78c.17.1.27.24.24.37v.17l-.27.14.03-.68ZM13.47,5.99l-.03-.1c0-.07.07-.1.24-.1.44,0,.65.24.65.75,0,.03-.03.14-.07.27l-.24.24-.44.48-.34-.07-.44-.03c-.17-.03-.24-.14-.24-.34,0-.1.03-.27.1-.44l.03-.1.14-.03.1.03.07-.17.2.14.1.34.1.14s.03-.14.03-.27c0,.03-.03-.07-.07-.31l-.07-.07-.07-.2.31.03-.07-.17ZM1.77,5.54l.03.03.07.03v.07l-.03.24-.03.24-.03.1c-.03.24.03.44.2.61.17.2.34.31.51.31.2,0,.37-.14.48-.37.17.17.24.31.24.48,0,.37-.2.54-.58.54-.68,0-1.02-.48-1.02-1.43,0-.17.07-.44.17-.85M13.06,5.58l.14-.17.14.24c-.03.07-.07.14-.1.27-.03.07-.1.14-.2.14l-.14-.14-.07-.1c0-.07.07-.14.24-.24M13.4,5.03c.07,0,.1.07.1.2l-.1.1s-.07-.03-.07-.14l.07-.17ZM23.03,5.65c-.31-.14-.44-.31-.44-.48,0-.41.31-.61.88-.61.95,0,1.43.61,1.43,1.84,0,.14,0,.24-.03.27l-.1.58-.1.41-.07-.2v-.48l.1-.24.03-.1c0-.44-.14-.85-.38-1.19-.24-.37-.54-.54-.85-.54-.34,0-.51.14-.51.44,0,.17,0,.27.03.31M13.4,4.49h.07c.1,0,.14.1.14.27l-.07.07c-.1,0-.14-.1-.14-.31v-.03ZM1.19,5.65c.1-.41.17-.61.2-.65.1-.37.2-.58.24-.58l.1.07c0,.1,0,.14-.03.17v.34l-.03.2-.03.14c-.03.17-.07.31-.14.44l-.07.2c-.03.07-.03.24-.03.54,0,.44.07.88.2,1.33.03.07.07.17.1.34l-.41.55-.31-1.29v-.71l.2-1.09ZM7.14,5.24l-.2-.41.07-.51.44.51c.07.1.2.14.41.14.85.03,1.26.31,1.22.82l-.03.14c0,.07,0,.14-.03.24h.27c.31-.03.54.1.78.37.2.27.31.58.31.92,0,1.05-.41,1.94-1.22,2.69-.51.44-.99.71-1.39.78v-.48l.82-.34.58-.48.07-.07.31-.51c.24-.58.37-.99.37-1.29,0-.27-.03-.51-.14-.68-.17-.24-.37-.34-.68-.34.07.17.1.31.1.37v.1l-.07.14-.92.68-.27.55-.14-.24s-.03-.1-.03-.2c0-.07.07-.31.17-.68.07-.1.14-.17.2-.24.07-.1.14-.2.17-.31l.2-.17c.24-.1.37-.24.37-.37l-.07-.14-.88-.27c-.31-.1-.58-.34-.78-.72M19.52,5.27c.17.1.37.14.54.14s.31-.03.41-.1c.37-.17.54-.41.58-.68v-.34l.34.14c.17.07.27.31.27.71,0,.17-.03.31-.14.41l-.37.38v.03l.07.07.14-.03c.07-.03.14-.03.24-.07.1-.03.2-.03.31-.07v.1l-.34.2h.2c.27-.1.44-.17.48-.17l.34.03v-.14l-.2-.1c.82.1,1.22.34,1.22.71,0,.07-.03.1-.14.14-.58.31-.88.44-.95.44l-1.09,1.05c-.31.31-.65.44-1.09.44l-.61-.17.03.58c-.03.24-.07.34-.1.37l-.34.27-.14.14-.37.03c.14-.34.2-.61.2-.82,0-.24-.07-.58-.24-1.02l-.2-.37-.03-.1-.27-.44c-.1-.1-.14-.2-.14-.31l.03-.07.03-.14.48-.41.34.48.37.27.27.14.54.07v-.14c-.41-.07-.75-.24-1.05-.54l-.17-.17-.14-.17.2-.31.24-.2.24-.27ZM14.62,4.25v.34l-.17.95c-.03.1-.14.17-.24.17s-.27-.07-.58-.17l.27-.34-.27.17.07-.31.1-.14c.31-.34.51-.54.65-.58l-.03-.07.2-.03ZM16.19,4.73c.17-.44.41-.65.75-.65.31,0,.48.1.48.34,0,.07-.07.2-.17.37-.07-.31-.24-.48-.51-.48-.17,0-.31.14-.44.37l-.1.03ZM1.33,4.01l.31-.24h.03l.1.07-.03.07-.03.07c-.2.31-.38.44-.54.44-.03,0-.14-.07-.24-.17v-.27l.41.03ZM15.88,3.54c.14.17.2.41.2.65,0,.17,0,.24-.03.27l-.17.27v.24l.31-.1.07-.03c.24,0,.34.14.34.37l-.07.27-.41-.1-.27.2-.27.07c-.17,0-.24-.03-.24-.14,0-.07.03-.14.14-.24-.07.03-.2.03-.41.03-.17,0-.24-.03-.24-.1v-.24l.41.03.37-.07-.07-.07-.17.03-.07-.07-.1-.1s.14-.2.44-.58l.24-.61ZM4.9,4.08l-.1.03-.37-.2-.75-.27c-.2-.07-.31-.17-.31-.31l.51.1.65.24c.1.03.24.17.37.41M16.46,3.3l.95.17c.31.24.44.34.44.37v.34l-.07-.03c-.1-.1-.2-.2-.31-.24l-.14-.1-.51-.17-.37-.34ZM21.97,2.89c.2.14.31.27.31.37,0,.17-.34.37-1.02.58-.44.1-1.12.61-2.07,1.5l-4.86,4.49-.17.07c.03-.2.14-.41.34-.61l.54-.51.85-.82,1.94-1.77,1.46-1.4c.17-.1.31-.2.41-.31.1-.07.14-.1.17-.14l.34-.27c.48-.41.95-.61,1.46-.65h-.17c.31-.07.44-.24.48-.54M8.94,2.86c.1.1.14.17.14.2,0,.24-.31.48-.95.71-.17.03-.27.1-.31.2-.1.17-.17.27-.2.37-.03.1-.1.17-.14.2-.1,0-.14-.07-.14-.24,0-.2.14-.41.34-.65.27-.2.51-.34.82-.37.17-.1.31-.24.41-.41l.03-.03ZM18.03,4.15c0-.1-.03-.24-.07-.41s-.17-.27-.37-.31l-.88-.2c-.17-.03-.27-.14-.27-.27s.2-.2.65-.2h.14c.85.03,1.33.07,1.43.1.17.07.44.07.82-.03.1-.03.34-.03.61-.03.34-.03.71-.03,1.22-.03h.14c.31,0,.48.07.48.2s-.07.24-.17.27l-.95.34c-.37.14-.88.51-1.53,1.12l-5.03,4.69.07-.78v-.68l.95-.92c.27-.24.48-.44.61-.61l1.39-1.23c.51-.48.78-.82.78-1.02M4.83,3.74l-.2-.2-1.05-.27c-.2-.03-.31-.1-.31-.27s.17-.24.54-.24h2.89c.85-.1,1.36-.14,1.53-.07l.2.03.14.03c.17,0,.27.03.27.14v.07l-.03.03-.82.34c-.31.14-.54.41-.71.82l-.1-.17v-.03c-.31,0-.44.27-.44.78,0,.17.14.48.37.85v.51c.03.07.03.17.03.27v.1l-.03.07-1.43,1.22-.48.17v-2.21c.03-.34,0-.82-.1-1.43l-.1-.24-.03-.1-.14-.2ZM22.55,3.03c-.24-.1-.34-.2-.34-.38,0-.31.2-.44.61-.44.17,0,.34.07.51.17l.27.24h-.14l-.37-.17h-.1c-.34,0-.48.14-.44.41v.17ZM10.99,3.1l-.03.17-.34-.24c-.58-.44-1.06-.68-1.4-.68-.1,0-.2.03-.24.07l-.1.2h-.07c-.17,0-.27-.07-.27-.24,0-.2.14-.31.37-.31.58,0,1.29.34,2.07,1.02M19.69,2.04c-.31.37-.51.58-.58.58h-.14l.17-.24.54-.34ZM20.37,1.77c.58-.24,1.05-.37,1.43-.37.24,0,.71.1,1.36.27l.14.1.17.07.14.07c.31.17.48.34.48.44l-.07.34-.2-.17c-.61-.48-1.29-.71-2.01-.71-.75,0-1.29.17-1.67.51-.24.24-.41.34-.58.34-.1,0-.17-.03-.17-.1.03-.1.1-.2.27-.31l.44-.37.27-.1ZM24.8,1.53c.17-.17.37-.27.58-.27.17,0,.31.1.37.27-.41.1-.61.34-.61.68,0,.14,0,.2.03.24l.27.95s.03.1.03.2c0,.17-.07.34-.24.51.31.51.44,1.05.44,1.67,0,1.16-.27,1.8-.82,1.97l.03-.31.17-.37c.1-.31.17-.65.17-1.09,0-.31-.07-.72-.24-1.23l-.14-.31-.03-.1-.48.1-.27-.17-.03-.07-.41-.51c-.17-.1-.27-.14-.37-.14-.34,0-.51.24-.51.68-.17-.1-.24-.24-.24-.41,0-.41.17-.61.48-.61l.44-.03-.1-.27c.17-.1.31-.14.41-.14.14,0,.27.07.44.24.14.58.31.85.51.85.17,0,.27-.1.27-.34l-.03-.14s-.1-.14-.24-.27l-.24-.24-.07-.1c-.1-.1-.17-.24-.17-.34l.03-.2h.34c.03-.17.07-.27.1-.41l.07-.2.03-.1ZM24.15,1.97l-.1.03c-.14,0-.2-.14-.2-.41l.07-.2c.07-.17.17-.24.31-.24l.17.03-.27.34.03.44ZM10.85,2.04c-.14-.17-.2-.31-.2-.44,0-.34.17-.51.48-.51.1,0,.2.07.31.17-.27.1-.41.27-.41.48,0,.1.03.2.1.27.1.1.2.24.24.31.07.14.14.2.17.24l-.37-.2-.2-.2-.1-.1ZM5.44,1.22l.95-.1h.78c.1.03.24.03.41.03.14,0,.24,0,.31.03l.61.14c.37.1.68.17.88.24.27.07.44.14.54.24l.27.2.75.37.24.27.44.24s.07.17.07.41v.14c.03.07.03.17.07.27l-.61-.61v-.07l-.54-.38c-.85-.58-1.97-.88-3.33-.88-.71,0-1.33.1-1.87.27l-1.22.51-.85.1c-.24.03-.34.2-.34.51,0,.07.03.24.1.51-.24.31-.34.58-.34.88,0,.24.07.48.24.71l.2.2.1.1.34.1.2.03c.07,0,.2-.07.37-.17l.03-.17c.07-.1.1-.17.1-.2s-.04-.14-.1-.24l-.24-.2-.54-.17c-.24-.07-.37-.2-.37-.37,0-.1.03-.14.14-.17l.24.24.92.31.14.14.2.24.03.03c.1.17.14.34.1.58l-.1.48c-.07.31-.31.48-.72.48-.14,0-.31-.03-.51-.1l.03.14c0,.14-.03.2-.1.2l-.07-.03-.24-.1c-.41-.17-.68-.54-.78-1.19-.14.03-.24.1-.27.24l-.14-.34-.07-.24-.07-.24.07-.2v-.17c.1-.51.27-.88.54-1.16l.48-.44c0-.1-.03-.14-.07-.14l-.14.03-.41.38-.27.2c-.24.1-.41.17-.54.14h-.1l.14-.41.07-.07.03-.07c-.44-.07-.68-.27-.72-.58l-.03-.17v-.2c0-.17.03-.31.14-.48.2-.24.37-.34.48-.34.17,0,.31.03.48.14.17.1.31.17.37.17l.17-.03h.14l.17-.14.07-.03c.07,0,.1.07.1.2,0,.31-.17.48-.54.48-.14,0-.24-.03-.31-.1l-.37-.34-.17-.1c-.24,0-.34.1-.34.34,0,.17.1.34.31.51h-.07l.41.1c.31,0,.61-.07.92-.2.34-.17.61-.31.78-.41l.37-.17c.1-.03.24-.1.41-.14.17-.03.34-.1.58-.14l.48-.07ZM14.28,1.12l.34.07c.58.24.85.54.85.95,0,.44-.07.68-.17.75l-.95.61c-.07.03-.1.1-.1.2l-.1.54v.03l-.07.03-.03.03c-.1-.03-.17-.17-.17-.34,0-.31.07-.51.2-.65l.61-.55.24-.27-.07-.54c-.17-.2-.37-.31-.58-.31-.85,0-1.29.51-1.29,1.57l.04.14.14.75.07.24v.07c0,.88-.38,1.33-1.16,1.33-.17,0-.48-.24-.88-.68l-.17-.2c-.24-.17-.48-.27-.65-.27-.03,0-.1.03-.24.07-.2.14-.31.27-.31.44l.07.51-.24-.07c-.37-.07-.54-.37-.54-.95,0-.82.44-1.22,1.36-1.22.78,0,1.36.44,1.73,1.36.03.14.14.24.27.27l.07-.1s-.03-.03-.07-.17l-.2-.37-.31-.75c-.07-.2-.1-.41-.1-.61,0-.38.2-.82.58-1.26s.78-.68,1.19-.65h.17l.07-.03.41.03ZM20.2,1.53c-.14.1-.24.17-.27.24-.03,0-.2.1-.44.2l-.78.41c-.31.17-.68.27-1.09.27-.85,0-1.29-.31-1.29-.92,0-.48.24-.71.71-.71h.03l.2.03.24-.03.03.03c.34.07.58.24.71.54-.31-.14-.54-.2-.71-.2-.37,0-.54.17-.54.51,0,.31.24.48.68.48.24,0,.48-.07.78-.17l1.26-.58.48-.1ZM.82,26.39h25.54V.85H.82v25.54ZM.41.41h26.39v26.39H.41V.41ZM0,27.21h27.21V0H0v27.21Z" fill="#231f20"/>
    </g>
  </g>
</svg>