<?xml version="1.0" encoding="UTF-8"?>
<svg id="Layer_1" xmlns="http://www.w3.org/2000/svg" width="27.21" height="27.21" xmlns:xlink="http://www.w3.org/1999/xlink" viewBox="0 0 27.21 27.21">
  <defs>
    <clipPath id="clippath">
      <rect width="27.21" height="27.21" fill="none"/>
    </clipPath>
    <clipPath id="clippath-1">
      <rect y="0" width="27.21" height="27.21" fill="none"/>
    </clipPath>
  </defs>
  <g clip-path="url(#clippath)">
    <g clip-path="url(#clippath-1)">
      <path d="M14.05,24.86l-.17-.03-.14.07-.07.07-.14-.07-.07.14.14.03.07.03h.1l.24-.14.17-.03-.14-.07ZM13.98,24.56l.07-.1-.07.17.14.1h.31l-.24-.17-.31-.24.1.24ZM11.46,23.94l.14.37.2.2-.07-.17-.1-.17-.17-.24ZM14.15,24.05c.14.27.27.41.41.41.03,0,.14-.03.37-.07l-.03-.1v.1l-.03-.1h-.37l-.07-.07-.27-.17ZM11.33,24.11c-.03-.14-.1-.2-.17-.2l-.07.1v.07l.17.27c.1.17.2.31.31.34l-.1-.27-.07-.14-.07-.17ZM11.97,24.01l-.17-.1-.17-.1c-.14-.24-.2-.34-.24-.34,0,.17.07.34.2.54l.17.1.1.07c-.1,0-.03-.03.17-.1l-.07-.07ZM10.58,23.5c.03.14.1.27.17.41.03.14.1.27.2.41l.17.24.17.34.24.24.1.03.07-.07-.27-.27-.24-.34-.14-.2-.31-.71-.17-.07ZM11.7,23.43l.03.2.14.1.1.07s.07.03.14.14c.03.1.07.17.1.17s.07-.07.07-.24l-.1-.1-.48-.34.61.54-.27-.31c.17-.03.14-.07-.17-.07.07,0,0-.07-.17-.17M13.71,23.5v-.07h-.07l-.07.03.03.07s.03-.03.17-.07l-.03.1h.07l-.1-.07ZM13.77,23.06l-.07.07.1.07.07-.03-.1.07.14-.14-.17-.03.07.03-.03-.03ZM14.01,22.31l.07.17-.03.03.03-.03c.14,0,.2-.03.2-.1,0-.14-.07-.2-.17-.2l-.17.07s-.03.07.07.07M16.29,22.52h.17-.1l.27-.24-.34.24ZM14.32,21.97c-.1,0-.14.03-.14.07l.03.07.17.03h-.07l.07-.07-.07-.1ZM11.46,21.63l.2,1.05h.14l-.2-.34s.14.1.27.31c0-.1,0-.14-.03-.17l-.1-.34-.1-.2.07.03-.24-.34ZM16.7,21.84l-.07-.03-.14.07-.2.17-.2.31-.07.03.1.07.31-.34.03-.1.24-.17ZM14.49,21.87v-.1s-.07-.07-.17-.07l-.07.03.03.1.1.03h.1ZM14.49,20.78l-.14.24c-.31.24-.48.44-.54.61h.17l-.27.07.78-.92ZM14.8,20.41h-.17c-.2,0-.37.1-.51.34-.03.03-.1.1-.17.2-.14.14-.27.34-.48.61l.1.03.61-.71-.14.14.17-.2c0-.1.2-.24.58-.41M11.73,19.35c0,.1.03.14.14.14.03,0,.07-.03.1-.14l-.31-.41.07.41ZM10.85,19.45l.27-.03.51.03.03-.14-.82.14ZM7.99,18.81l-.14.68.03.1c.14-.1.2-.17.2-.24-.03-.1-.03-.2-.07-.31,0-.07,0-.14-.03-.24M8.3,18.74l-.14.88.07.14c.14-.14.2-.24.2-.34,0-.24-.03-.48-.14-.68M9.52,19.28h.1l-.07-.27-.03.27ZM9.93,19.28v-.14c0-.1-.03-.17-.1-.17l-.07.1.07.1.1.1ZM10.51,18.81h-.31l-.1.07v.2l.03.1.37-.37ZM1.29,18.4l-.03.31-.03.1h.17l-.1-.41ZM1.12,18.09l.03.54.17-.03-.2-.51ZM10.95,17.82l-.48.34.03.17.1-.07.34-.44ZM8.5,18.09c.03.17.1.27.27.34h.17l-.07-.1-.37-.24ZM8.77,17.96c.1.24.27.37.48.37h.07c.24-.1.44-.2.68-.34l-.82.24-.41-.27ZM1.12,17.07l.1.24-.1-.1c-.07,0-.1.03-.1.14,0,.03.07.2.17.48l.03.14c.07.14.1.27.2.44l.07.14.07.17h.14l.03-.07c0-.07-.03-.14-.14-.2l-.1-.2c-.07-.24-.14-.48-.2-.61-.03-.2-.1-.37-.17-.54M9.35,16.19l-.54.48-.27.34-.1.14-.03.1c0,.1.03.14.1.14.03,0,.07-.1.2-.27.07-.17.17-.31.2-.34l.44-.58ZM1.33,16.84h.1l.1-.24.24.1.03-.17c-.03-.1-.03-.17-.07-.24l-.07-.17-.07.31c-.17,0-.27.14-.27.41M1.5,16.16l-.17.2.38-.07-.1-.44-.1.31ZM9.76,16.84c.58-.17.89-.37.89-.61l-.03-.1s-.1.07-.17.17c-.14.1-.27.2-.41.27-.14.07-.27.14-.38.17l.1.1ZM7.18,16.12c0,.31.1.44.31.48l.41-.65-.61.17h-.1ZM9.86,16.36c.34-.14.51-.27.51-.37,0-.14.03-.17.07-.07-.27.17-.44.31-.51.34l-.1.1h.03ZM1.36,15.92h.27c.1,0,.1-.03.03-.1l-.07-.03h-.14l-.1.14ZM23.84,10.44l.17.07.99-1.56-1.16,1.5ZM23.88,9.66c.1-.07.17-.1.17-.14-.1.1-.17.24-.24.34-.1.1-.17.24-.27.34l.75-.82-.82.61c-.1,0-.14.07-.14.24l.1.07s.07-.07.1-.2l.27-.27.07-.17ZM14.73,9.01l.58,1.09c0,.17.03.24.1.27v-.14c-.03-.24-.1-.44-.2-.68l-.48-.54ZM8.3,9.25c.03.1.07.17.14.27l.31-.44c-.17.03-.31.07-.44.17M9.22,9.15l.24-.14c0,.1-.03.1-.07.07l.07-.07-.24.14-.07.03-.03.03.1.03.1-.03v-.03l-.1-.03ZM16.43,8.88l-.1.03.07,1.63.07-.71-.03-.88v-.07ZM10.07,9.01l-.07.03-.78.1.17-.07.68-.07ZM7.65,8.4l-.03.34.07-.07.37-.2v-.14l-.41.07ZM8.1,8.03l.03.14s.14.03.27.03v-.1s-.14-.07-.31-.07M24.32,7.86l.03.03.07.03c.37-.17.65-.34.82-.51l-.92.44ZM8.37,7.65l-.1.1.07.14.1-.03h.14l.03-.07s-.07-.07-.24-.14M10.88,7.52l-.14.17-.14.1-.17.2c-.07.1-.17.14-.34.17-.17.03-.24.07-.24.17v.03l.41-.14.34-.24.1-.03.1-.2.07-.03.07-.2h-.07ZM11.22,6.97l-1.26.95.03.1.21-.07.24-.2.1-.14.1-.1c.17-.17.31-.31.44-.41l.14-.14ZM7.79,6.67l-.14.92v.34c-.07.17-.1.31-.07.37.07-.03.14-.07.24-.17v-.65l-.03-.82ZM9.05,7.45l-.54.03-.1-.1c0,.2.27.27.85.2-.03-.03-.17-.03-.48-.03l.44.07-.07-.14-.03-.1-.07.07ZM25.37,7.21l.07.07.14.1c.1,0,.17.03.2.07l.03-.1.07-.03c-.07-.1-.2-.14-.41-.1h-.1ZM10.54,6.84l-.71.24h-.07l-.2.44-.37.44-.27.27-.68.51-.31.2s-.14.07-.37.17c-.2.1-.31.17-.31.2l.07.07.07-.03.07-.07.2-.07.24-.07.34-.24.44-.27.27-.24c.44-.31.82-.61,1.05-.88.27-.27.44-.51.55-.68M25.61,6.9l-.03.07h.31l-.03-.07h-.24ZM10.48,6.36l-.55.48.1-.03-.07.07-.1-.14.17-.07v.14-.1l.44-.34ZM10.82,6.12l-.61.2-.14.1.07.03.68-.34ZM10.41,5.99l-.17.07s.1,0,.31-.07c.24-.1.34-.14.37-.14-.1.03-.17.03-.24.07-.1.03-.17.03-.27.07M7.99,5.71l-.03.07c.1.41.17.68.17.78s-.03.2-.03.34c-.07.14-.07.24-.07.27,0,.1.07.17.17.2l.07-.27.03-.31v-.41l-.31-.68ZM11.26,5.41l-.75.31-.03-.03-.1.07c0,.07.03.1.14.1l.75-.44ZM22.21,25.85l.2.1.03.1c0,.1-.07.17-.24.17-.1,0-.17-.07-.17-.17,0-.03.07-.1.17-.2M12.07,25.85l.58.14c-.17.24-.41.34-.71.34-.14,0-.24-.03-.27-.07l-.07-.07.34-.17.14-.17ZM21.77,25.61h.03c.1,0,.17.07.17.17,0,.14-.07.2-.2.2-.1,0-.14-.07-.14-.17,0-.03.03-.1.14-.2M13.71,25.58l.1-.03s.17-.03.34-.03c.58,0,.99.14,1.29.44l-.34.03-.61.14c-.07.03-.17.03-.27.03h-.31c-.24,0-.58-.07-.99-.17.1-.1.2-.14.31-.14.17,0,.27,0,.31.03-.1-.14-.24-.21-.41-.21l.75-.1h-.17ZM22.69,25.51v-.03h.07c.1,0,.14.07.14.17,0,.17-.07.24-.24.24-.1,0-.14-.07-.14-.17v-.07l.03-.03v-.03l.14-.07ZM12.86,25.47l.03.14c0,.1-.1.17-.34.17-.17,0-.27-.03-.27-.14v-.03c.07-.1.2-.17.37-.17h.03l.07.03h.1ZM1.7,25.51l.34.07c.17,0,.27-.07.34-.2.07-.1.1-.17.14-.17.1,0,.14.03.14.14,0,.38-.24.55-.68.55-.17,0-.27-.14-.27-.38M1.46,25.17l.14.1c-.1.17-.14.31-.14.48s.03.27.1.27h.03l.1-.03.07.03h.14l.1.07c-.17.1-.27.14-.37.14-.03,0-.17-.07-.34-.17v-.24c-.03-.17,0-.41.17-.65M11.8,25.61c-.2.24-.58.38-1.12.38-.34,0-.65-.07-.95-.2-.17-.1-.27-.21-.31-.27l.51-.27c.24-.14.44-.17.61-.14l.44.07c.2.03.31.1.31.14,0,.07-.07.1-.24.14l-.2.1.95.07ZM7.89,25.13c.07-.03.2-.03.37-.03.27,0,.41.14.41.41,0,.51-.27.75-.78.75-.24,0-.48-.1-.68-.31l-.17-.41.03-.31-.07-.03h.1c.17.44.44.68.78.68s.51-.1.51-.31c0-.1-.1-.24-.27-.34-.17.03-.27.07-.24.07-.07,0-.1-.07-.1-.17l.03-.1.07.1ZM23.43,24.9h.58l.24.68.27.21.51.03h-.2l.2-.03.17-.14.03-.17.07-.07-.07-.27c0-.07.03-.1.14-.1h.07c.17.1.24.24.24.48,0,.51-.27.78-.82.78-.31,0-.61-.17-.95-.51l-.1.44c-.1,0-.2-.07-.24-.17-.2-.14-.31-.34-.31-.61,0-.17.07-.37.17-.54M3.91,25.41s-.03-.14-.03-.24c0-.24.17-.37.54-.37.65,0,.99.1.99.27l-.03.1-.1.17v.07l-.03.03v.03c0,.07.07.14.2.2h.58c.34-.1.48-.31.44-.54v-.14l.41-.1c.03.07.03.2.03.41,0,.65-.37.95-1.16.95h-.24c-.14-.03-.24-.03-.37-.07v-.07l.17-.2-.37-.1c-.14-.03-.2-.14-.2-.31,0-.1.07-.2.17-.31-.07-.14-.14-.2-.2-.2-.34,0-.51.07-.51.2l.03.44v.07c-.14.27-.41.41-.78.41s-.54-.07-.54-.17v-.61c0-.24-.2-.34-.65-.37v-.07h.14c.24,0,.48.07.71.2.03.17.07.34.1.54.03.17.14.27.31.27.1,0,.24-.07.41-.17v-.34ZM1.12,24.86c.03-.17.17-.27.34-.27.34,0,.54.24.65.75l-.27-.03-.07-.07c-.1-.2-.24-.31-.34-.31s-.2.14-.31.37l-.07-.1.07-.34ZM17.58,24.25l.44.2,3.27-.1,1.5.03,1.02.03h.68c.1,0,.31-.03.54-.1-.07.24-.34.37-.82.37h-.37c-.17-.03-.37-.03-.61-.07-.31-.03-.58-.03-.78-.07h-.41l-.72.03-1.09.07-1.63.03h-.07c-.61,0-.92-.14-.95-.44M5.85,24.32l2.08.14h.27c.37,0,.65-.03.75-.1.1-.07.17-.14.17-.17v-.07c.07,0,.1.07.1.24,0,.27-.27.41-.82.41h-.44c-.2-.03-.37-.03-.54-.07-.88-.07-1.39-.1-1.53-.1l-2.79.1c-.44.03-.85-.14-1.26-.44.31.03.54.1.68.1.2.07.31.07.37.07h.44c.17-.03.44-.03.75-.07.17-.03.34-.03.48-.07.14,0,.24,0,.34.03l.58.03.37-.03ZM7.11,22.45l.44-.03.27-.1.54-.07.24-.1-.1.24-.14.31-1.12.17-.03-.1-.1-.2v-.1ZM25.68,21.84c0,.24,0,.37-.03.41-.03.1-.07.24-.17.41l-.37.72c-.1.17-.2.27-.31.27s-.2-.03-.34-.1l.2-.17.2-.2.24-.2.31-.48.27-.65ZM2.89,21.84l.88.58-.14.2-.34-.2c-.31,0-.44-.14-.44-.41l.03-.17ZM2.72,20.99l.58.37c.1.1.2.14.24.2l.14.07c.24.1.37.2.37.24,0,.17-.1.27-.27.27-.1,0-.27-.1-.51-.31l-.14-.14-.24-.17-.17-.54ZM15.85,21.63v-.27l.1-.14.2-.24.17-.24c.14-.17.27-.24.44-.24.2,0,.34.17.41.51-.14-.14-.24-.2-.31-.2-.31,0-.65.27-1.02.82M7.65,20.34l.31.1c.14.07.24.17.31.31l.1-.31c.31.2.44.48.44.82,0,.24-.03.34-.1.37h-.14v.17l-.24.2-.58.27-.48.03h-.14c-.1.03-.17-.03-.17-.2.82,0,1.22-.24,1.22-.75,0-.1-.07-.24-.2-.41-.24-.03-.34-.07-.31-.07-.24,0-.37.1-.37.34,0,.14.1.24.34.31l-.07.1-.24.03c-.24,0-.38-.17-.38-.51,0-.17.07-.34.2-.51l.48-.31ZM12.41,20.31l-.07.2c.17,0,.24.03.24.14,0,.17-.07.31-.24.48l-.07-.41h-.14c-.17-.03-.34.07-.51.24-.14.2-.24.31-.31.31-.1,0-.17-.03-.17-.1l.14-.2.14-.17c.17-.17.41-.34.65-.44l.34-.03ZM13.67,20.85l.24-.27.37-.24c.31-.17.51-.27.54-.27.27,0,.41.41.41,1.26,0,.14-.07.44-.17.88l.14-.03-.07.03h.07c.1-.24.24-.37.34-.37h.1c-.03.17-.03.31-.07.34,0,.07-.07.27-.2.58l-.14.27-.17.31-.34.31-.2.31.17.07h.03c.1,0,.2-.1.37-.34l.24-.27.58-1.29.24-.31v-.07l.1-.07c.24-.17.41-.24.54-.24.2,0,.34,0,.41.03v.24l-.2.34.2.03c.34-.14.51-.2.54-.2.17,0,.34.03.51.14l.24.31.03.14.03.44-.24.31-.2.27-.95.54c-.24.14-.37.44-.37.88,0,.17.1.41.31.68l.27.14c.24.07.41.1.58.1s.31-.03.48-.14l1.12-.61.61-.03.31.17v.58l.03.07c.03.07.07.1.17.1s.17-.03.24-.14l.51-.58c.07-.1.2-.14.41-.14.1,0,.24.03.41.14h.03l.07.34v.03l-.07.07h-.07l-.17-.27-.07-.03c-.24,0-.48.17-.72.51l-.2.31-.07-.03c-.17.07-.34.1-.44.1s-.24-.07-.37-.24v-.34l.07-.14h.03c0-.2-.14-.31-.41-.31-.17,0-.37.07-.54.17l-1.09.71c-.1.07-.24.1-.37.1-.17,0-.34-.03-.51-.1l-.34-.14v.1l.1.17-.51-.1-.17-.1c-.31-.2-.44-.44-.44-.68,0-.27.1-.61.27-1.05.31-.37.78-.68,1.36-.88l.14-.07s.1-.03.2-.07l.03-.24c0-.24-.1-.38-.34-.38-.37,0-.68.14-.92.44l-1.12,1.22-.17.1-.58.51c-.24.24-.58.37-1.02.37l-.31-.03h.2l-.03-.1-.44-.14v.14l.24.1-.27.07c-.17,0-.27-.03-.27-.14,0-.07.07-.17.2-.31.24-.37.37-.61.41-.78.03-.17.07-.27.1-.37l-.07-.1c-.07,0-.17.14-.27.37-.1.31-.17.48-.2.51l-.27.34-.17.24c-.1.14-.37.2-.78.2-.17,0-.34-.1-.58-.31l-.2-.17-.1-.14c-.2-.34-.34-.61-.37-.78l-.14-.27c-.1-.1-.17-.2-.2-.27-.27-.41-.61-.61-1.02-.61-.2,0-.41.17-.58.48l-.14-.1c-.03-.1-.03-.2-.07-.27v-.14c0-.44.2-.65.61-.65l.24.03h.2l.14.03.07-.1-.31-.17-.03-.07-.07-.14v-.14l.2-.03.27-.14.51.03.24.03.14.17.24.17.1.14.1-.1v-.07c-.1-.1-.14-.17-.14-.2l.03-.17.24.03c.24,0,.37.07.44.2.24.24.34.51.34.85v.17l-.03.34-.03.27.17.03-.07.07c.1-.07.17-.17.17-.31.07-1.05.27-1.73.61-2.04l.27-.14.1.58.1.03s.07-.1.14-.27.14-.31.17-.37M6.43,20l.27.03c-.03.24-.03.48-.03.71-.03.2-.03.41-.03.58,0,.92.17,1.5.55,1.77.14.1.2.2.2.24v.07l-.27-.2-.14-.14-.17-.24-.14-.2-.2-.61-.03-2.01ZM11.22,19.83s.14-.03.31-.03c.1,0,.14.03.14.07,0,.17-.1.41-.31.68l-.41.51c-.1.17-.2.27-.31.27s-.24-.03-.41-.14l.37-.37.51-.68.1-.31ZM3.67,20.41l.07-.2-.07-.44h.1c.17,0,.27.17.27.51,0,.41-.14.65-.37.68l-.17-.03-.37.03-.31-.2c-.17-.1-.24-.17-.24-.27l.03-.03h.14c.37.1.58.17.54.17.1,0,.24-.07.37-.2M21.84,19.69c.07.1.1.21.1.24l-.03.1h-.1l-.17-.2.2-.14ZM24.93,19.66c.24.31.34.65.34,1.09,0,.48-.14.88-.37,1.22-.27.34-.58.51-.95.51-.58,0-.88-.27-.88-.82,0-.17.03-.31.1-.41.17-.17.37-.27.54-.27h.1c-.27.24-.41.44-.41.54,0,.31.2.48.61.48.17,0,.34-.03.44-.1.37-.24.58-.54.58-.92v-.2c0-.07,0-.14-.03-.24l-.07-.89ZM4.28,19.45c.17.17.38.27.61.34l.44.17.61.03h.31v.88c0,.14,0,.24-.03.31v.34c-.03.31.14.78.44,1.39l.14.17.34.37c.17.03.34.07.44.14.1,0,.2.03.24.07l1.05.24s.07.03.07.14c0,.2-.14.31-.41.34l-.58-.03-1.22-.07-1.53-.14-2.38.14h-.24c-.1-.03-.2-.03-.31-.07-.37-.07-.54-.17-.54-.31,0-.1.07-.14.24-.17l.44-.07c1.05-.17,1.7-.85,1.91-2.04v-.31l-.04-1.87ZM8.91,19.35l.17.17.27.44.07.03.07-.1c-.1-.17-.17-.31-.2-.41.24.1.37.2.41.24.03.03.17.2.41.48.17.17.24.31.24.48.03.1-.07.17-.31.17-.1,0-.27-.03-.48-.1l-.27-.2-.03.31c-.24-.1-.44-.24-.54-.37-.03-.1-.03-.17-.07-.24v-.2c0-.31.07-.44.17-.44l.07.14.1.2.14-.07-.07-.14-.14-.37ZM18.77,22.11c-.07-.17-.1-.31-.1-.44,0-.68.2-1.26.65-1.73.44-.51.95-.75,1.56-.75.1,0,.27.03.51.14.24.07.38.14.38.2,0,.03-.14.1-.38.2l.03.1c.27.24.41.48.41.72,0,.17-.03.34-.1.48-.17.24-.38.37-.58.37l-.1-.1.1-.03c.17-.17.24-.31.24-.44,0-.54-.27-.82-.82-.82-.41,0-.78.14-1.05.48-.34.27-.48.65-.48,1.05,0,.27.07.51.2.71.1.24.2.37.27.48l.03.03c0,.1-.1.2-.27.24-.24-.31-.41-.58-.51-.89M18.03,19.05c.58.1.89.44.89.99,0,.17,0,.31-.03.34l-.17.48-.1.34v-.51c0-.31-.1-.61-.31-.85-.17-.1-.34-.17-.44-.17-.41,0-.61.17-.61.55,0,.1.03.2.1.37-.24-.1-.41-.31-.44-.58.1-.51.31-.75.65-.75h.17c.07.03.17.03.27.07l.03-.27ZM25.2,19.05c.41.48.61,1.02.61,1.6,0,.51-.03.82-.1.92l-.34.75-.03.17-.1.1c-.07.07-.17.14-.27.24l-.1.1-.14.17c-.17.24-.34.34-.55.34h-.07l-.24-.14c-.1-.03-.17-.1-.17-.14l.07-.1.44-.17.31-.27.2-.14.07-.14.17-.14.07-.14.24-.44c.1-.27.17-.58.17-.88,0-.27-.07-.58-.24-.92l-.27-1.09.27.31ZM24.49,18.09c.1.1.24.17.34.27.1.07.2.14.31.24l.17.1.31.1.41-.07v.14c-.03.14-.17.2-.41.2-.1,0-.34-.14-.65-.37l-.48-.61ZM25.37,18.23c.03-.17.14-.27.24-.27.14,0,.2.1.2.27,0,.14-.07.2-.17.2s-.17-.07-.27-.2M18.54,17.92l.31-.03c.58-.03.88.2.88.75,0,.48-.2.71-.61.71-.27,0-.41-.03-.41-.14v-.07h.2c.31.03.48-.1.48-.48s-.24-.54-.68-.54c.03,0-.2.03-.78.1l.61-.31ZM11.94,17.75c.03.07.03.17.03.27s0,.14.03.17v.14c0,.1-.1.17-.27.17.1-.17.17-.27.17-.31,0-.1-.03-.17-.14-.27l.17-.17ZM24.18,17.72l.75-.1.31-.03c.14,0,.2.03.2.14,0,.17-.1.24-.34.24l-.2-.07c-.17,0-.37-.07-.68-.1l-.03-.07ZM13.2,17.55c.85.2,1.26.71,1.26,1.56,0,.61-.1.95-.34,1.02v-.1c.1-.2.14-.41.14-.58s-.03-.34-.14-.51c-.17-.31-.34-.44-.54-.44-.31,0-.44.1-.44.34l.07.14c0,.1.07.17.1.2l-.1.07-.17-.1c-.21-.14-.31-.27-.31-.44,0-.44.24-.71.72-.75v-.03c-.14-.1-.2-.2-.24-.37M23.03,17.52l.48.14.31.07-.07.07c.61.17.92.48.95.92l.03.65v.17l-.03.2s-.14.07-.27.07h-.03l-.07.44c-.17.31-.37.44-.61.44-.44,0-.65-.17-.61-.54v-.2c.2-.24.31-.41.31-.54,0-.1-.07-.2-.2-.31.17-.03.27-.07.31-.07.24,0,.34.14.34.41,0,.1,0,.14-.03.17l-.44.44c0,.1.07.17.2.17-.03,0,.07-.03.31-.07.24-.24.34-.48.34-.78,0-.2-.1-.44-.31-.68-.41-.37-.71-.61-.92-.71l.03-.44ZM25.88,17.45h.2l.07.14.03.03-.03.07-.07.14-.17.07c-.14,0-.2-.07-.2-.17,0-.07.07-.17.17-.27M6.63,17.89l-.07-.2.17-.14.1-.14.14-.1.1-.07.27-.07.2-.03v.03l.17.07.2.27-.27.07v.07c.27.03.41.14.41.31,0,.34-.14.54-.44.61-.17.03-.27.1-.27.2v.03l.14-.03-.07.03.51-.17h.1c.24,0,.44.14.54.37v.07c0,.61-.34.99-1.02,1.16l-.51-.1c.17-.17.31-.38.38-.61h-.14c-.31.17-.58.27-.82.27-.27,0-.48-.07-.65-.24l-.14-.1.54-.51.03-.14c.07-.1.1-.24.2-.41.1-.17.31-.27.58-.27l-.03-.1h-.07c-.14,0-.24-.03-.31-.14M25.58,17.04c.14.03.2.1.2.2,0,.14-.07.2-.2.2s-.2-.07-.2-.24c0-.07.07-.14.2-.17M13.5,16.84h.03c.2,0,.31.07.31.17,0,.17-.1.24-.34.24-.14,0-.2-.07-.2-.2v-.07l.2-.14ZM18.06,17.58l.2-.2.24-.07.24-.17.85-.31.37-.1h.07v.37c.03.17-.2.27-.65.31-.31,0-.58.1-.82.27l-.41.27-.41.27-.58.61-.71.88-.44.68-.34.75-.2.34v-.78l.1-.1.07-.2.27-.48.24-.34.34-.54.58-.65.48-.51.17-.14.34-.17ZM16.26,18.16l.03-.31.1-.24v-.17l.1-.14.24-.34c.1-.17.2-.24.37-.24.24,0,.34.1.34.27l-.1.2c-.07-.1-.14-.14-.17-.14-.34,0-.65.37-.92,1.09M12.92,16.6l.03-.03c.17,0,.24.07.24.17,0,.17-.1.27-.27.27-.2,0-.31-.07-.31-.17,0-.17.1-.24.31-.24M15.71,16.53l.34-.07.1-.03c.1,0,.17.03.17.14s0,.14-.03.17l-.07.34-.31,1.53-.24.71-.2.65-.1.27-.17-.14c-.07-.17-.1-.27-.1-.34s.03-.24.14-.51c.07-.27.1-.44.14-.48l.31-1.77.03-.48ZM13.91,16.7v-.1c0-.17.07-.27.17-.27s.17.07.17.24-.03.24-.14.24c-.03,0-.1-.03-.2-.1M24.18,16.19c.31.1.44.24.44.41l-.03.1-.03.07-.38.2.1.2.03.03c0,.24-.17.34-.51.34h-.07l-.44-.14h-.27v-.61l.24.03c.17,0,.34-.07.54-.17.24-.1.34-.27.37-.48M11.56,16.56c.37-.31.75-.44,1.19-.44.17,0,.31.1.34.31h-.48c-.24,0-.44.03-.58.07-.14.03-.34.17-.61.37l-.14-.07.27-.24ZM13.44,16.09h.03c.2,0,.31.1.31.31,0,.17-.07.24-.24.24s-.24-.1-.24-.31c0-.14.03-.2.14-.24M15.95,15.92l.03-.03h.07c.37,0,.54.1.54.31v.07l-.07.14c-.17-.1-.31-.14-.48-.14-.1,0-.24.03-.44.1v-.14c0-.17.1-.27.34-.31M13.6,15.95l.03-.27.24.03c.1,0,.17.1.17.27,0,.1-.03.17-.14.17s-.2-.07-.31-.2M11.22,15.68c.24.24.37.48.37.71,0,.1-.1.17-.34.24l-.17-.34.14-.37v-.24ZM12.89,15.61h.07c.24,0,.34.07.34.2,0,.17-.1.24-.27.24-.21,0-.31-.07-.31-.24,0-.1.07-.17.17-.2M2.45,15.41c.03.31.14.44.37.44.14,0,.34-.1.58-.27-.14.44-.34.65-.61.65-.17,0-.31-.1-.41-.31l-.07-.1v-.03c0-.17.03-.27.14-.37M15.31,15.92c.03-.37.17-.54.41-.54l.34-.03v-.03h.03v.03h.1l-.03.03.2.03c.34.07.51.24.51.51,0,.17-.03.24-.14.24l-.27-.27c-.1-.07-.24-.1-.37-.1-.27,0-.48.1-.61.31l-.07-.03-.1-.14ZM3.13,17.04l.03-.24.14-.34.03-.2.17-.31.2-.37.31-.51.03.31.03.27-.34.71c-.07.17-.1.37-.1.61,0,.68.24,1.26.68,1.7l.27.2c.17.1.31.17.44.24l.51.1-.2.17c.2.24.31.34.31.27v.03l-.27-.03-.54-.14c-.61-.17-1.09-.65-1.46-1.39l-.14-.41-.03-.24-.03-.14c0-.14,0-.24.03-.27l-.07-.03ZM8.33,14.63c.17.31.27.61.27.88,0,.17-.03.34-.07.51-.1.24-.24.48-.41.65l-.03-.2c.03-.07.03-.17.03-.31l-.07-.07c-.1,0-.14.1-.14.27v.17s0,.14-.03.34v-.07c0-.17-.03-.27-.1-.27-.1,0-.14.03-.14.14s.03.24.14.41c-.27-.1-.48-.24-.65-.41-.14-.17-.2-.34-.2-.44v-.14c.03-.07.03-.17.07-.27l.2-.51.24.17.1-.51.03.61.17-.31.2-.24.17-.27.2-.14ZM16.05,14.63v.24h.17c0-.17.03-.24.07-.24l.14.07.1.07c0,.07-.03.14-.1.24h.1s.1-.1.14-.27l.24.14-.14.17-.24.34-.54-.14-.48.07-.03-.17-.1-.07-.1-.2-.07-.14c.17-.03.27-.07.24-.07.03,0,.14.1.24.27l.07-.03-.07-.2.38-.07ZM12.96,15.41l-.14.03c-.31,0-.44-.17-.44-.51s.2-.51.61-.51c.24,0,.48.2.68.58-.24-.17-.41-.24-.58-.24-.24,0-.34.1-.34.34,0,.1.07.2.2.31M14.73,14.63c0-.14.14-.24.37-.27.27-.07.54-.1.85-.1s.48,0,.51.03c.51.1.75.2.75.37,0-.03-.03.03-.07.17-.37-.24-.75-.34-1.16-.34-.24,0-.38,0-.41.03-.17.07-.34.14-.48.17-.14.03-.24.07-.27.1-.03,0-.07-.07-.1-.17M7.48,14.22l.17-.03h.17c.17-.03.61.1,1.26.34-.31-.07-.54-.1-.65-.1-.61,0-.92.17-.88.54v.07h-.03c-.31.03-.44-.1-.44-.34,0-.2.14-.37.41-.48M19.25,13.91l.1.03-.03.41.48.88s.03.1.03.27c0,.61-.2,1.02-.61,1.26l-1.67.95-.24.2-.71.82-.27.27.37-.61.34-.44.24-.2.37-.41.14-.03.17-.17.71-.51.41-.34.1-.17c.1-.27.17-.44.17-.48,0-.1-.03-.27-.1-.48-.2-.27-.44-.41-.72-.41-.48,0-.71.17-.71.54,0,.17.07.31.17.41.1.1.17.17.17.2l.1.14v.1c0,.1-.03.17-.1.17h-.03l-.07-.1-.54-.24c-.17-.07-.27-.24-.27-.54,0-.44.14-.68.41-.68h.07c.2-.27.44-.41.68-.41h.17c.1,0,.2,0,.27.03v-.24c.03-.14.17-.2.41-.24M10.58,13.81c.37.27.54.55.54.78s-.17.54-.48.92l.14.1c.07-.1.17-.17.34-.17-.07.48-.17.82-.27.99-.1.17-.34.34-.71.48-.68.27-1.02.51-1.02.72l.07.27s.07.03.17.03.17-.07.24-.17l.24-.44.34-.31.31-.03-.17.44c.17,0,.31-.1.37-.34h.68c.24-.03.44-.17.61-.34.03.07.03.17.03.27v.17c0,.31-.2.61-.58.88h.1c.14,0,.2.03.2.14,0,.14-.1.27-.24.37-.2.14-.34.2-.51.2l-.37.03c-.14,0-.2.03-.2.1,0,.1.07.17.2.17.1,0,.14,0,.17-.03l.65-.27.27-.07h-.07l.44-.14c.37.03.58.17.58.34,0,.07-.03.14-.1.24l.31.2.1.34c0,.21-.03.38-.1.44-.1.14-.14.17-.17.2h-.17c-.03-.31-.17-.48-.41-.58-.27-.1-.51-.14-.68-.14l-.92.03c-.72,0-1.29-.27-1.8-.82l.1-.03c.07,0,.17.03.27.1h.31l.48-.17.17-.03c.17-.03.27-.1.27-.2l-.07-.1-.31.1-.31.17c-.17.03-.34.07-.44.07-.44,0-.75-.24-.88-.68l-.03-.2c-.03-.1-.03-.2-.03-.31l-.03-.17c0-.58.24-1.05.68-1.36l.65-.41.24-.24c.58-.37.85-.78.82-1.22v-.34ZM24.15,13.84l.68.07c.82.24,1.22.75,1.22,1.5,0,.99-.48,1.6-1.46,1.84-.07-.1-.1-.17-.1-.24,0-.1.1-.14.34-.17l.27-.14c.41-.48.61-.88.61-1.26,0-.1-.07-.31-.17-.61l-.14-.17-.17-.17c-.31-.1-.48-.17-.58-.17-.38,0-.55.14-.55.41,0,.1.1.24.27.41.07-.03.2-.03.41-.03.17,0,.34.07.51.2-.17.1-.31.2-.34.24-.31.24-.48.34-.54.34-.2,0-.38-.1-.55-.31l-.14-.34h-.1l-.17.17-.17.2-.24-.14-.03-.34v-.41c.03-.2.17-.37.37-.54l.14-.07.61-.27ZM11.39,14.08l.37-.24.03-.03h.07l.41.1.07.03.14.44c-.1-.03-.2-.03-.27-.03l-.14-.03c-.31,0-.48.17-.48.54,0,.1.03.31.14.58.1.27.14.48.14.58s-.03.14-.1.14c-.03,0-.07-.07-.14-.17,0-.14-.07-.24-.1-.31-.17-.44-.27-.85-.27-1.22,0-.1.03-.2.14-.38M16.05,13.77l.71.1c.65.1.99.34.99.68,0,.1-.03.14-.07.14-.07,0-.37-.14-.95-.44-.14-.07-.37-.1-.68-.1-.27,0-.51.03-.75.07-.24.07-.41.14-.54.14-.14.07-.24.07-.27.1-.1,0-.14-.07-.14-.17,0-.31.58-.48,1.7-.51M13.4,13.67c1.12,1.12,1.7,2.65,1.67,4.63l-.03.88c-.03.44-.2.68-.54.75.1-.65.17-1.16.17-1.53v-.75l-.03-.37c-.03-.17-.07-.41-.14-.65-.03-.24-.14-.54-.24-.85l-.1-.2-.2-.44-.1-.24-.58-.85-.31-.34.44-.03ZM7.01,13.67l1.43.03c.31.07.44.1.48.14l.85.38c.34.14.51.27.51.37s-.07.2-.24.31v.07c-.92-.68-1.87-1.02-2.86-1.02h-.31l.14-.27ZM6.39,14.05c.03-.1.03-.17.07-.24v-.24c0-.17.03-.27.1-.31.07-.03.34-.07.85-.07h7.86l.1.1c0,.1-.07.17-.24.17H6.8l-.1.17-.03,3.64-.03.1-.1.07-.14-.03.03-.58v-.65l-.03-.37.03-1.05-.03-.44v-.27ZM19.11,13.16l1.09.07v.31l-3.13-.03.1-.34.48.03,1.46-.03ZM3.78,12.48l.03.1s-.07.14-.17.24c-.37.31-.54.71-.54,1.29,0,.31.14.44.37.44.2,0,.31-.14.31-.37-.1-.03-.14-.07-.14-.14s.03-.1.14-.1c.24,0,.34.14.34.44,0,.41-.17.61-.54.61-.03,0-.14-.03-.37-.07v.27c-.2-.1-.37-.27-.54-.48-.03-.07-.03-.2-.03-.41,0-.61.37-1.22,1.16-1.84M6.05,11.39h.2c0,.24.07.41.24.54l.51.1,8.06-.03c.17.31.24.61.24.92v.14H6.6c-.17,0-.31.17-.37.54v4.8c0,.41-.2.61-.58.61-.31,0-.65-.14-1.02-.37l-.17-.1-.17-.24.04-3.5-.04-2.08v-.17c0-.27.14-.48.41-.58l.2-.07,1.16-.51ZM6.43,11.67l.07-.34.07-.03.1.14-.03.14v.31l-.1-.03-.1-.17ZM6.36,10.78l.65-.1.31.03.78.03c.92.03,1.73.24,2.38.58l.75.41h-.75l-.58-.24c-.68-.24-1.33-.37-1.97-.37-1.16,0-1.94.07-2.31.24l-.41.14c-.31.1-.51.2-.58.27l-.85.61c-.37.27-.58.44-.65.51-.03.07-.1.17-.2.31-.65.71-.95,1.53-.95,2.52,0,.75.24,1.12.75,1.09h.27l-.07.31-.17.2h-.27l.03.27c-.07.1-.14.14-.2.14-.1,0-.2-.07-.27-.17l-.07-.1-.17-.14-.1-.41-.17.03c.03.38.17.65.44.85.1.1.2.17.27.2.31.24.48.48.51.71h-.27l-.03.14.34.31.17.51.17.48c0,.07-.1.1-.27.1-.24,0-.44-.14-.68-.41l-.07.1v.41l-.27-.34-.1-.2-.2-.48v-.03c0-.17-.03-.27-.14-.27l-.1.1s.03.1.1.24l.2.48c.03.1.1.17.14.24.03.1.1.17.14.24.31.27.44.44.48.44.03.07.07.14.14.31l.14.27c.03.17.07.31.03.37v.17l-.07.34-.1-.03-.2-.17c.07.17.1.31.1.41,0,.17-.1.37-.31.68-.24.17-.41.24-.58.24-.1-.03-.24-.1-.38-.2.58-.2.85-.55.85-1.06,0-.2,0-.34-.03-.41l-.1-.24-.24-.82c-.1-.2-.17-.37-.24-.54-.03-.14-.07-.24-.1-.34l-.07-.34c-.1-.37-.17-.78-.2-1.22v-.27l.07-1.43-.03-.41v.41l.2-1.33.1-.34.1-.41s.07-.1.14-.27l.37-.68c.1-.17.2-.34.31-.44l.44-.41.34-.31.58-.41.95-.58c.34-.2.95-.38,1.8-.51M8.88,9.93l.1.07.1.31.95.48.24.2-.34-.1-.34-.1-.78-.2c-.24-.03-.37-.17-.37-.34,0-.14.14-.24.44-.31M1.8,9.8c.31.03.54.17.65.37h-.1c-.51-.03-.75.2-.75.71,0,.14.1.34.27.58.31.17.54.24.68.2l.31-.03.44-.2.37-.1c.58-.31,1.16-.51,1.7-.61h.41l-.78.24c-.65.2-1.16.44-1.53.71l-.75.54-.37.14-.48.03h-.17c-.1,0-.27-.07-.51-.24l-.1-.14.1-.1.58-.07v-.1l-.44-.1-.24-.34c-.03-.17-.07-.27-.07-.24v-.03c.03-.07.03-.27.07-.58.31-.41.54-.61.71-.65M10.82,11.16s-.1-.14-.2-.31c-.1-.17-.14-.27-.14-.37s.07-.31.17-.58c.17-.31.41-.48.68-.48.41,0,.61.17.61.48,0,.1-.1.24-.34.37v-.44c-.14-.07-.24-.1-.31-.1-.27,0-.41.2-.41.58,0,.24.07.44.27.71l.48.68c-.17-.1-.34-.2-.48-.34-.14-.07-.24-.17-.34-.21M17.52,9.39c.27-.1.44-.17.54-.17h.14c.14,0,.24,0,.34.03l.27.03.68.31.37.17c.1.03.17.1.17.2v.14l-.14.07c-.07,0-.14-.03-.24-.14-.2-.14-.51-.2-.95-.2-.72,0-1.06.24-1.06.68,0,.37.2.54.58.54.1,0,.27-.1.48-.31.14-.34.34-.51.65-.51l.1.03c.2.1.31.24.31.34l-.17.34v-.37c-.1-.07-.2-.1-.24-.1l-.17.07-.58.71c-.1.17-.31.24-.65.24-.31,0-.58-.14-.85-.44l-.1-.51.14-.31c.17-.14.24-.24.24-.31,0-.03-.14-.1-.37-.14l.03-.14.17-.07.1-.1h.17l.03-.1ZM3.27,8.95l.75.34v.24l-.75-.44v-.14ZM17.58,9.25s-.07.03-.17.03c-.17,0-.24-.07-.24-.24s.1-.24.27-.24.24.03.24.14c0,.07-.03.17-.1.31M23.54,9.08l.92-.41-.1.17-.14.1c-.1.03-.17.1-.27.2-.2.2-.48.37-.85.51-.03-.17-.07-.27-.07-.31,0-.14.17-.24.51-.27M17.82,8.5c.44.07.82.31,1.09.68l-.14-.07-.2-.07c-.51-.1-.78-.24-.78-.34s0-.17.03-.2M23.23,8.74l.34.14-.41.17c-.17,0-.2-.1-.17-.31v-.27l.24.27ZM17.11,8.26l.17-.1.07-.03c.14,0,.2.1.2.27s-.1.24-.27.24c-.1,0-.17-.1-.17-.27v-.1ZM1.6,7.92c.27.41.41.72.41.92s-.1.37-.31.51c-.17.03-.27.07-.24.07-.1,0-.21-.07-.31-.24.31-.1.48-.31.48-.54l-.03-.44v-.27ZM18.13,7.99c-.03.24-.1.34-.24.34-.17,0-.27-.07-.27-.24s.1-.24.27-.24c.1,0,.17.03.24.14M2.89,7.86c-.17,0-.27-.14-.27-.41,0-.14.1-.2.31-.2.17,0,.27.1.27.27,0,.24-.1.34-.31.34M16.29,8.4c-.03-.14-.03-.24-.03-.34-.03-.1-.03-.17-.03-.2,0-.48.27-.71.78-.71.17,0,.34.1.51.34-.61.27-.92.95-.92,2.04,0,.54.07,1.22.2,2.08.07.44.1.78.1.95l-.03.41-.03.51c0,.17-.07.24-.2.24l-.54-.1-.54.03v-.68c-.03-.17-.07-.34-.1-.44s-.03-.2-.07-.31l-.34-1.09-.27-.41-.27-.44c-.44-.31-.78-.48-.99-.48-.51,0-.78.17-.78.54,0,.17.07.27.2.31h.75s.14.1.31.2l-.03.07h-.34l-.44.17-.1.03c-.51,0-.82-.27-.85-.78v-.14c-.03-.31.2-.65.71-.99-.14-.17-.2-.34-.24-.58.07-.03.2-.03.41-.03.17,0,.27,0,.31.03l.37.1c.1.1.24.2.37.24l-.07-.14.07-.51c1.09.48,1.7,1.6,1.87,3.4h.14l-.07.07.1-.07c-.07-.51-.1-.78-.14-.82l-.34-1.05c-.1-.17-.14-.41-.14-.71,0-.58.1-.85.31-.85.07,0,.17.03.31.1h.1ZM19.11,7.35l.34-.27.14-.07c.17,0,.31.17.37.48-.03-.03-.14-.03-.24-.03-.27,0-.41.2-.41.58s.24.75.71,1.12l-.31-.14c-.48-.31-.71-.65-.71-1.06,0,.03.03-.17.1-.61M3.67,7.45l-.07.07-.03.03c-.17,0-.24-.1-.24-.34,0-.2.1-.31.27-.31s.27.14.27.41c0,.1-.03.14-.07.14h-.14ZM3.1,6.19c.27.03.41.14.41.27,0,.24-.1.37-.31.37-.24,0-.34-.1-.34-.31,0-.1.07-.2.24-.34M12.55,5.88h.24c.38-.03.78.14,1.16.51.41.34.68.75.85,1.22l.34,1.06-.27-.24-.1-.34-.24-.44-.14-.27-.48-.48c-.31-.17-.61-.27-.85-.27-.44,0-.68.2-.68.58,0,.1.1.31.27.54.27.1.44.17.48.17.17,0,.27,0,.34-.03l.03.07c-.2.2-.41.31-.65.31-.37,0-.68-.17-.95-.51-.07-.2-.1-.37-.1-.48s.03-.31.1-.54c.1-.17.2-.27.37-.34l-.31-.31.58-.2ZM1.33,5.88l.1.37.07.41c.1.58.34,1.05.68,1.46l1.05,1.29.27.48c.1.17.14.31.14.48,0,.58-.27.88-.82.88-.44,0-.65-.17-.65-.48,0-.1.07-.17.17-.2.07.2.2.31.41.27h.07c.24-.2.34-.37.34-.51,0-.24-.14-.54-.37-.92l-.31-.48-.17-.27-.24-.34-.17-.37c-.41-.58-.61-1.19-.58-1.8v-.27ZM23.84,5.75c.24.07.34.17.34.27,0,.14-.07.2-.2.2-.07,0-.14-.03-.24-.1l.1-.37ZM2.21,6.12l-.07-.48.17.1.07.2v.07l-.03.03v.03c0,.1.17.41.54.92l-.1.03c-.2,0-.37-.2-.54-.61l-.03-.31ZM17.01,5.2c.65,0,.95.24.95.75l-.03.14-.24.41-.1.07-.17-.03.17-.31.03-.1c0-.24-.2-.37-.61-.37-.14,0-.31.1-.48.31-.2.17-.31.41-.27.68v.24l.03.07-.07.17c-.1,0-.17-.1-.17-.31l.03-.17.07-.48v-.2l.1-.14.17-.34.27-.24c.03-.1.14-.14.31-.14M15.71,5c.17.03.24.07.27.1l-.07.44v.44l-.03.44.17.88.03.71h-.1l-.14-.34-.07-.37-.2-.88v-.68c0-.14,0-.31.03-.48l.1-.27ZM12.69,4.86c.17.1.34.17.51.27.14.1.24.2.34.31l.24.34.2.27h-.1l-.1-.1c-.37-.51-.68-.75-.99-.75-.24,0-.34.14-.37.44-.14-.03-.2-.1-.2-.24,0-.17.17-.37.48-.54M22.96,7.07c.14-.27.2-.51.2-.68v-.07l-.14-.48v-.68l.1-.54.1.1.37.2.2.24c.07.1.1.2.1.27,0,.1-.1.24-.34.41l-.07.14c0,.1.1.24.27.37l.03.14c0,.37-.27.54-.85.58M19.66,4.73l.2-.1.1.07.07.58.03.2s-.27.14-.71.31c-.44.14-.68.58-.68,1.29,0,.61.1,1.02.31,1.26l.31.38c.31.34.51.51.61.54.1.03.14.07.14.17,0,.17,0,.27-.03.31-.24-.1-.41-.17-.51-.27l-.34-.34-.31-.2-.44-.58-.24-.71-.03-.82c.03-.07.03-.17.03-.31.03-.24.14-.44.2-.58l.34-.48c.17-.14.27-.27.41-.34.07-.14.17-.2.27-.24l.03-.07.24-.07ZM7.24,4.56l.03-.14.58.24c.17.07.24.17.27.34.1.31.2.44.31.48l.03-.65c.2.2.31.34.34.44l-.03.65-.07.65-.17.41-.03.1c0,.1.03.17.14.17.14,0,.24-.24.27-.71.03-.78.14-1.33.31-1.56.07-.17.14-.27.17-.27.17,0,.24.14.2.44v.27l.1.03.17-.17.07-.1c.31-.37.68-.54,1.12-.54.14,0,.34.03.58.1-.1.14-.14.24-.2.37l-.07.2v.44c-.03.31-.17.61-.44.88l.1.1.48-.14v.24c0,.14-.03.31-.1.48s-.17.34-.27.51c-.1.17-.24.31-.37.41s-.27.17-.41.2l-1.06.2-.03.03-.1.14c0,.07.03.1.14.1.07,0,.14-.03.24-.14.37-.1.58-.17.61-.17.1,0,.24.07.41.17s.27.24.27.34-.07.24-.2.44c-.24-.17-.44-.24-.65-.24-.17,0-.44.07-.82.17-.54.17-.85.27-.88.31-.17.03-.37.07-.58.1-.24.03-.48.03-.78.07l.03-1.46c.1-.03.2-.1.27-.2.17-.31.27-.54.27-.68l-.03-.31c-.03-.17-.1-.34-.14-.44-.03-.14-.1-.24-.14-.34v-.1c0-.17,0-.31.03-.37l.44.14-.41-.54c-.03-.07-.03-.17-.03-.31v-.44c0-.17,0-.27.03-.34M13.06,4.49l.34-.14c.1-.03.34.27.68.92.24.44.48.82.61,1.12l.44.85.34,1.05.03.1c0,.14-.07.31-.2.51l-.07-.27-.17-.58-.14-.34-.07-.27-.92-1.67-.58-.89-.27-.34-.03-.07ZM1.77,3.98l-.03.51.14.68-.03.68c-.1,0-.03.24.14.71l.27.78c.24.71.82,1.23,1.73,1.53v.27c-.34-.1-.61-.27-.82-.48l-.24-.17-.1-.17-.24-.17.07.17-.07-.1v-.03s.14.07.27.24c.14.14.17.2.14.2l-.1-.03.07.07-.1.1s-.07-.07-.14-.2c-.1-.07-.14-.14-.17-.14l-.24-.31-.14-.24c-.31-.54-.44-.88-.48-1.05l-.07-.41-.1-.1c0-.1,0-.14.03-.17-.07-.27-.1-.48-.1-.65l-.04-.14c0-.24.1-.71.34-1.39M25.51,3.98l.1-.07c.1,0,.14.03.17.14.27.58.41,1.26.41,1.97,0,1.09-.14,1.84-.37,2.21l-1.22,1.7c-.51.78-.78,1.5-.78,2.11,0,.44.17.75.54.99l.03.1h.58c.31-.24.48-.51.48-.82,0-.17-.2-.51-.58-.95h-.1l-.03-.1c-.1-.17-.17-.34-.17-.44v-.17c.03-.07.03-.17.07-.27l.34-.24.71-.24c.17-.07.24-.2.2-.44v-.17.07h.03c.1.17.14.37.14.54,0,.2-.1.34-.31.41-.37.1-.54.17-.58.2l-.03.07c0,.1.03.2.1.37.37.37.54.82.54,1.36v.14l-.14.41-.07.17-.2.17-.14.2c-.14.14-.44.2-.89.2-.31,0-.54-.24-.71-.68l-.1-.03c-.03.17-.1.27-.2.34l-.03-.51-.17-.82-.03-.1c0-.17.07-.37.24-.68l.17-.31.1.07.07-.34-.2.07-.27.17h-.17l.03-.24.24-.71.34-.31.24-.07.48-.48.41-.24h-.14l.27-.24.51-.61.1-.2c0-.1-.07-.14-.17-.14l-.14.03-.17.37c-.03.07-.27.27-.75.58-.1.1-.2.14-.37.14s-.31-.03-.48-.14l.03-.03-.1-.07.1-.03.14-.03.1-.14h-.1l-.24-.14-.03.03c-.03-.24-.07-.34-.07-.31v-.14c.03-.07.03-.17.07-.27l.1-.07c.1.1.2.14.31.14.2,0,.41-.07.65-.24l.34-.1c.24-.17.41-.34.51-.44l.17-.24.1-.31-.03-.37c-.03-.1-.03-.17-.03-.2v-1.02l-.03-.58h.1ZM18.26,4.05l.27-.2.1-.03.1.03.2.17c.03.14.07.24.07.27,0,.44-.24.92-.72,1.5.03-.07.07-.2.1-.38.17-.48.27-.75.27-.85,0-.17-.14-.27-.37-.34l-.03-.17ZM1.97,5.07l-.1-.24.03-.34-.03-.2.1-.2.03-.27c0-.14.07-.2.17-.2l.61.17.24.03c-.1.31-.14.61-.14.92,0,.34.17.61.54.85h.51c-.1.31-.31.44-.65.44-.27,0-.51-.14-.75-.41l-.17-.2-.03-.31h-.14l-.07.2-.07.03-.07-.14-.03-.14ZM14.11,3.54l.14.31.07.24,1.09,2.18.03.17c.07.1.1.27.14.51l.2.82v.03c0,.1-.03.2-.14.31l-.51-1.73-.27-.58-.48-.89-.14-.24-.1-.17c-.24-.75-.37-1.02-.37-.78,0-.1.1-.14.34-.17M10.24,3.33c.41.58,1.05.88,1.9.88.44,0,.92-.14,1.5-.44.03.14.07.2.07.17l-.03.03-.03.1c-.17.03-.31.07-.37.1-.51.2-.95.31-1.33.31-.44,0-.85-.07-1.16-.24-.51-.27-.78-.48-.78-.65,0-.1.07-.17.24-.27M16.97,3.57l-.07-.1c0-.1.07-.14.2-.14.24,0,.44.1.68.31.24.2.34.41.34.65,0,.51-.48.78-1.39.78-.31,0-.61-.07-.88-.2-.14-.07-.31-.24-.48-.48-.2-.24-.31-.44-.31-.58l.1-.1c.07,0,.24.2.48.58.24.37.65.54,1.29.54.51,0,.78-.17.78-.54,0-.2-.07-.34-.24-.44l-.51-.27ZM1.12,3.16l.1.31h.17c.1,0,.24-.03.41-.14l.03.17c-.24.24-.37.34-.44.34-.1,0-.2-.07-.34-.2-.03-.03-.03-.07-.03-.17,0-.07.03-.17.1-.31M14.42,3.74s-.03-.07-.03-.17l.07-.03.2-.1.37-.2.68-.07.1.03h.03l-.14.24c-.17.03-.31.07-.44.1-.14.03-.27.1-.44.14l-.37.1-.03-.03ZM17.82,3.1l.34.14.27.03.2.1.68.2.37.31c-.17-.07-.31-.1-.41-.1l-1.06-.24c-.2-.07-.37-.2-.41-.44M1.8,3.03l1.05.2c.14.03.27.1.41.17.14.03.27.1.44.2l.24.34-.07.03c-.37-.24-.65-.37-.82-.41l-.78-.17c-.14-.03-.31-.17-.48-.37M24.56,2.89c.07.1.1.17.1.2l-.07.1-1.23.51c-.41.17-.61.92-.61,2.25v15.78l.54,1.36h-.07l-.14-.17-.14-.17-.14-.24c-.1-.17-.17-.34-.24-.48-.03-.14-.07-.24-.1-.34l.03-12.58v-2.11l-.03-.82c-.03-1.33.17-2.14.54-2.45.17-.14.27-.24.37-.27.07-.07.31-.17.68-.27l.31-.1.17-.2ZM8.57,2.93c.07.1.1.17.1.2,0,.07-.07.14-.17.17l-1.33.37c-.38.1-.55.71-.55,1.9l.07,4.83c-.03.1-.07.14-.14.14-.1,0-.14-.07-.14-.17v-4.73l-.03-.41-.03-.51c.1-.71.31-1.12.58-1.22.68-.24,1.16-.37,1.39-.41l.24-.17ZM25.34,2.82l.27.1.31-.07.07-.1.07-.03v.44c-.03.1-.14.17-.24.17l-.2-.07-.17-.1-.1-.07-.24-.44.24.17ZM8.91,3.71c-.03-.27.1-.51.37-.78.27-.2.54-.34.85-.34.1,0,.17,0,.2.03l.14.03c.71.24,1.36.68,1.9,1.29l-.14.03s-.14-.07-.24-.17c-.37-.48-.88-.71-1.46-.71s-.85.24-.85.68c0,.17.1.34.31.54l-.34.07c-.24,0-.37-.14-.37-.41,0-.14,0-.24.03-.27l-.41.24v-.24ZM23.09,2.62l.27-.03.2-.03c.24,0,.51.03.75.14.1.03.17.1.17.14v.07l-.07.07c-.07,0-.48.14-1.19.44-.31.14-.54.34-.65.58-.1.24-.17.75-.2,1.46v.27c-.03.14-.03.24-.07.41l.03,15.64c0,.37.17.75.51,1.09.31.41.68.65,1.12.75l.75.2.17.07.27.14c-.07.17-.2.27-.37.27l-.89.03-.37-.03h-.31l-1.22-.1-3.4.17h-.07c-.37,0-.71-.1-1.02-.27.03-.14.31-.24.75-.34,1.33-.27,2.01-.99,2.04-2.18v-.85l.03-.48.41.03.14-.03c.17,0,.27.17.27.54,0,.2-.2.37-.58.51.07.17.17.24.34.27l.65-.07.24-.2c.17-.24.24-.44.24-.61v-.2c-.03-.14-.03-.24-.07-.34.1-.1.14-.17.14-.2,0-.07-.03-.17-.1-.27l.1-.1-.07-.1c-.37-.31-.75-.48-1.06-.48l-.31.03h-.37l.03-5.92-3.2-.03v-.41l-.03-.65,2.31.03.68-.03c.17-.1.27-.27.27-.44l.03-4.49v-1.84l-.03-.34-.03-.27c0-.14-.07-.31-.24-.54l-.34-.41c-.17-.1-.34-.2-.48-.27-.14-.03-.24-.07-.27-.1l-1.06-.24c-.14-.03-.2-.1-.2-.2,0-.17.24-.27.75-.27h.14c.14,0,.27,0,.38.03.71.07,1.29.1,1.77.1l2.31-.1ZM3.74,3.47c-.37-.24-.85-.37-1.46-.44-.37-.03-.54-.14-.54-.34,0-.14.14-.2.44-.2h.14l1.9.1c.44.03.65.03.68.03h.88l.44-.03c.51-.03.88-.07,1.19-.1h.1c.65,0,.99.1.99.34,0,.1-.07.17-.24.2l-1.29.31c-.51.14-.78.85-.75,2.14l.07,5c-.41.03-.78.1-1.12.14-.31.07-.61.14-.85.24l.03-5.14.03-.61-.2-.92-.07-.2-.17-.31-.2-.2ZM12.99,2.93l.14-.1.17-.07.24.17c.17.14.34.2.54.2.34,0,.51-.14.51-.37l-.03-.14-.14-.17-.03-.03v-.1c0-.1.03-.14.14-.14.2.03.31.27.31.65,0,.41-.24.61-.75.61-.1,0-.37-.1-.82-.27-.17-.07-.27-.14-.27-.24M10.51,2.28l.24-.27.95.61.99.92.24.24v.1l-.17.07-.14.03-.17-.14-.48-.44-.78-.65-.68-.41v-.07ZM12.14,1.87c-.03.14-.07.2-.07.17,0,.24.17.37.51.37.1,0,.17,0,.2-.03.2-.1.31-.17.34-.24l.14-.34.27.14s-.03.1-.07.27c-.03.37-.34.55-.95.55-.44,0-.65-.2-.65-.58,0-.24.03-.34.14-.34l.14.03ZM18.4,2.18c.65-.41,1.29-.61,1.94-.61.17,0,.31,0,.37.03v.03c.34.1.51.27.51.44,0,.27-.14.41-.41.41-.1,0-.2,0-.24-.03.03-.03.03-.14.03-.24,0-.24-.24-.37-.75-.37-.37,0-.88.1-1.46.34M23.09,1.6l.2-.2.24.1-.17.27-.24.44-.07.03c-.14,0-.2-.07-.2-.2s.07-.27.24-.44M12.82,1.43l.14-.1.24.07.51.14.37.17c-.03.1-.1.17-.14.17.1,0,.07-.03-.07-.07-.1-.03-.34-.1-.71-.2l-.34-.07v-.1ZM9.73,2.38c.17-.78.89-1.16,2.21-1.16.1,0,.17.03.17.1,0,.1-.07.14-.17.14h-.17l-.1-.03c-.1,0-.2.03-.34.1-.1.03-.24.1-.34.1-.1.07-.2.1-.31.14l-.51.54-.44.07ZM13.77,2.86c.2-1.12.85-1.7,1.94-1.7.14,0,.34.07.61.17.1.1.17.24.17.41l-.03.14-.03.24-.71.54-.31.38-.37.07.27-.58.72-.54s.03-.07.03-.17c0-.24-.17-.37-.55-.37-.34,0-.68.14-1.02.41-.24.41-.41.78-.48,1.12l-.24-.1ZM25.78,1.12c.17.03.24.07.24.17,0,.24-.03.37-.14.41l-.37.2.24.27v.07l-.03.07-.14.03-.17.1h-.17l-.54-.31h-.1c-.14,0-.2.03-.2.14,0-.03.03,0,.14.03.1.07.2.17.31.31.1.14.24.31.37.51.14.17.24.37.34.61l-.41-.03c.14.37.2.61.2.71,0,.78-.27,1.16-.78,1.16-.2,0-.38-.1-.51-.34l-.03-.31.07-.24.03-.34-.07.03s.03-.14.03-.24l-.07-.07c-.1,0-.2.03-.37.1.17-.24.37-.37.54-.37.1,0,.2.03.31.14l.1.17c.03.17,0,.34-.1.51-.07.17-.1.24-.1.27,0,.1.03.14.14.14h.03s.14-.07.24-.17l.03-.51c.03-.1.03-.17.03-.2,0-.17-.1-.34-.34-.54v-.1l.07-.03c.17-.1.24-.2.24-.34l-.07-.34c-.2-.17-.34-.27-.44-.31-.37-.07-.68-.1-.88-.1l-.03-.1c0-.24.17-.48.51-.71.17-.03.27-.07.24-.07.07,0,.2,0,.34.07.2,0,.31.03.41.03s.31-.07.65-.17l-.24.07.48-.37ZM16.19,2.89c.24-.38.37-.58.44-.65.17-.2.31-.37.41-.48.1-.1.14-.17.17-.2l.03-.03-.07-.41s.07-.07.17-.07c.24,0,.34.1.34.27,0,.2-.17.44-.51.75-.44.37-.68.61-.71.68l-.24.34-.24.31.2-.51ZM21.63,1.12h.27c.17-.03.41.03.78.2.2.03.31.1.31.14l-.1.14-.17.24c-.07.07-.2,0-.44-.17-.1-.1-.41-.14-.92-.17l-.68-.07h-.24c-.07.03-.17.03-.27.07-1.05.24-1.63.41-1.7.48l-1.02.65-.37.31-.14.2-.48.54c-.1.1-.2.34-.37.71-.17-.1-.24-.17-.24-.27v-.07c.31-.58.48-.85.51-.85l.14-.1.34-.48.1-.07.07-.1h.07l.03-.1.1-.07c.85-.65,1.67-1.02,2.45-1.12l.65-.1h.07l1.26.07ZM12.52,2.18c-.17,0-.27-.2-.27-.65,0-.37.2-.54.65-.54.17,0,.34.1.51.31-.17-.07-.31-.1-.41-.1-.24,0-.38.14-.38.44,0,.17.03.34.14.51-.03.03-.14.03-.24.03M5.95.95l1.09.03.24.07h.41l.68.1.24.03.2.1.88.24.2.17c-.14.17-.24.27-.34.27-.34-.1-.61-.2-.82-.27-.2-.03-.34-.07-.41-.1l-.82-.1c-.1-.03-.2-.03-.38-.03h-.34c-.44,0-.88.07-1.39.24l-.34.1-1.02.58s-.27-.07-.95-.1l.2-.17c.1-.03.17-.07.17-.1v-.1l-.92.27c-.24,0-.51-.2-.75-.58.03-.31.14-.48.37-.58l.17-.07h.17l-.07.03.68.07-.27.34-.48.03.03.17-.17.07h.75c.41-.17.82-.31,1.22-.41.41-.1.82-.2,1.19-.24l.54-.07ZM.82,26.39h25.54V.85H.82v25.54ZM.41.41h26.39v26.39H.41V.41ZM0,27.21h27.21V0H0v27.21Z" fill="#231f20"/>
    </g>
  </g>
</svg>