<?xml version="1.0" encoding="UTF-8"?>
<svg id="Layer_1" xmlns="http://www.w3.org/2000/svg" width="27.21" height="27.21" xmlns:xlink="http://www.w3.org/1999/xlink" viewBox="0 0 27.21 27.21">
  <defs>
    <clipPath id="clippath">
      <rect width="27.21" height="27.21" fill="none"/>
    </clipPath>
    <clipPath id="clippath-1">
      <rect y="0" width="27.21" height="27.21" fill="none"/>
    </clipPath>
  </defs>
  <g clip-path="url(#clippath)">
    <g clip-path="url(#clippath-1)">
      <path d="M17.58,24.25l.44.2,3.26-.1,1.5.03,1.02.03h.68c.1,0,.31-.03.54-.1-.07.24-.34.37-.82.37h-.37c-.17-.03-.37-.03-.61-.07-.31-.03-.58-.03-.78-.07h-.41l-.71.03-1.09.07-1.63.03h-.07c-.61,0-.92-.14-.95-.44M5.85,24.32l2.07.14h.27c.37,0,.65-.03.75-.1.1-.07.17-.14.17-.17v-.07c.07,0,.1.07.1.24,0,.27-.27.41-.82.41h-.44c-.2-.03-.37-.03-.54-.07-.88-.07-1.39-.1-1.53-.1l-2.79.1c-.44.03-.85-.14-1.26-.44.31.03.54.1.68.1.2.07.31.07.37.07h.44c.17-.03.44-.03.75-.07.17-.03.34-.03.48-.07.14,0,.24,0,.34.03l.58.03.37-.03ZM6.43,20l.27.03c-.03.24-.03.48-.03.71-.03.2-.03.41-.03.58,0,.92.17,1.5.54,1.77.14.1.2.2.2.24v.07l-.27-.2-.14-.14-.17-.24-.14-.2-.2-.61-.03-2.01ZM4.29,19.46c.17.17.37.27.61.34l.44.17.61.03h.31v.88c0,.14,0,.24-.03.31v.34c-.03.31.14.78.44,1.39l.14.17.34.37c.17.03.34.07.44.14.1,0,.2.03.24.07l1.06.24s.07.03.07.14c0,.2-.14.31-.41.34l-.58-.03-1.22-.07-1.53-.14-2.38.14h-.24c-.1-.03-.2-.03-.31-.07-.38-.07-.54-.17-.54-.31,0-.1.07-.14.24-.17l.44-.07c1.05-.17,1.7-.85,1.9-2.04v-.31l-.03-1.87ZM6.39,14.05c.03-.1.03-.17.07-.24v-.24c0-.17.03-.27.1-.31s.34-.07.85-.07h7.86l.1.1c0,.1-.07.17-.24.17H6.8l-.1.17-.03,3.64-.03.1-.1.07-.14-.03.03-.58v-.65l-.03-.37.03-1.05-.03-.44v-.27ZM19.11,13.16l1.09.07v.31l-3.13-.03.1-.34.48.03,1.46-.03ZM6.05,11.39h.2c0,.24.07.41.24.54l.51.1,8.06-.03c.17.31.24.61.24.92v.14H6.6c-.17,0-.31.17-.37.54v4.8c0,.41-.2.61-.58.61-.31,0-.65-.14-1.02-.37l-.17-.1-.17-.24.03-3.5-.03-2.07v-.17c0-.27.14-.48.41-.58l.2-.07,1.16-.51ZM6.43,11.67l.07-.34.07-.03.1.14-.03.14v.31l-.1-.03-.1-.17ZM17.82,3.1l.34.14.27.03.2.1.68.2.38.31c-.17-.07-.31-.1-.41-.1l-1.05-.24c-.2-.07-.37-.2-.41-.44M1.8,3.03l1.06.2c.14.03.27.1.41.17.14.03.27.1.44.2l.24.34-.07.03c-.37-.24-.65-.37-.82-.41l-.78-.17c-.14-.03-.31-.17-.48-.37M24.56,2.89c.07.1.1.17.1.2l-.07.1-1.22.51c-.41.17-.61.92-.61,2.24v15.78l.54,1.36h-.07l-.14-.17-.14-.17-.14-.24c-.1-.17-.17-.34-.24-.48-.03-.14-.07-.24-.1-.34l.03-12.58v-2.11l-.03-.82c-.03-1.33.17-2.14.54-2.45.17-.14.27-.24.37-.27.07-.07.31-.17.68-.27l.31-.1.17-.2ZM8.57,2.93c.07.1.1.17.1.2,0,.07-.07.14-.17.17l-1.33.37c-.37.1-.54.71-.54,1.9l.07,4.83c-.03.1-.07.14-.14.14-.1,0-.14-.07-.14-.17v-4.73l-.03-.41-.03-.51c.1-.71.31-1.12.58-1.22.68-.24,1.16-.37,1.39-.41l.24-.17ZM23.09,2.62l.27-.03.2-.03c.24,0,.51.03.75.14.1.03.17.1.17.14v.07l-.07.07c-.07,0-.48.14-1.19.44-.31.14-.54.34-.65.58-.1.24-.17.75-.2,1.46v.27c-.03.14-.03.24-.07.41l.03,15.64c0,.37.17.75.51,1.09.31.41.68.65,1.12.75l.75.2.17.07.27.14c-.07.17-.2.27-.37.27l-.88.03-.37-.03h-.31l-1.23-.1-3.4.17h-.07c-.37,0-.71-.1-1.02-.27.03-.14.31-.24.75-.34,1.33-.27,2.01-.99,2.04-2.18v-.85l.03-.48.41.03.14-.03c.17,0,.27.17.27.54,0,.2-.2.37-.58.51.07.17.17.24.34.27l.65-.07.24-.2c.17-.24.24-.44.24-.61v-.2c-.03-.14-.03-.24-.07-.34.1-.1.14-.17.14-.2,0-.07-.03-.17-.1-.27l.1-.1-.07-.1c-.37-.31-.75-.48-1.05-.48l-.31.03h-.37l.03-5.92-3.2-.03v-.41l-.03-.65,2.31.03.68-.03c.17-.1.27-.27.27-.44l.03-4.49v-1.84l-.03-.34-.03-.27c0-.14-.07-.31-.24-.54l-.34-.41c-.17-.1-.34-.2-.48-.27-.14-.03-.24-.07-.27-.1l-1.05-.24c-.14-.03-.2-.1-.2-.2,0-.17.24-.27.75-.27h.14c.14,0,.27,0,.37.03.72.07,1.29.1,1.77.1l2.31-.1ZM3.74,3.47c-.37-.24-.85-.37-1.46-.44-.38-.03-.54-.14-.54-.34,0-.14.14-.2.44-.2h.14l1.9.1c.44.03.65.03.68.03h.89l.44-.03c.51-.03.88-.07,1.19-.1h.1c.65,0,.99.1.99.34,0,.1-.07.17-.24.2l-1.29.31c-.51.14-.78.85-.75,2.14l.07,5c-.41.03-.78.1-1.12.14-.31.07-.61.14-.85.24l.03-5.14.03-.61-.2-.92-.07-.2-.17-.31-.2-.2Z" fill="#a91e22"/>
    </g>
  </g>
</svg>