<?xml version="1.0" encoding="UTF-8"?>
<svg id="Layer_1" xmlns="http://www.w3.org/2000/svg" width="27.21" height="27.21" xmlns:xlink="http://www.w3.org/1999/xlink" viewBox="0 0 27.21 27.21">
  <defs>
    <clipPath id="clippath">
      <rect width="27.21" height="27.21" fill="none"/>
    </clipPath>
    <clipPath id="clippath-1">
      <rect y="0" width="27.21" height="27.21" fill="none"/>
    </clipPath>
  </defs>
  <g clip-path="url(#clippath)">
    <g clip-path="url(#clippath-1)">
      <path d="M11.56,2.62l12.92-.07c-.03.1-.03.24-.03.41v.2c0,.17,0,.31.03.34l.34.82c.1.24.17.68.2,1.33l.03.17c.03.37-.03.54-.2.54-.07,0-.17-.2-.27-.58l-.1-.55c-.2-.92-1.12-1.46-2.75-1.63-.14-.03-.51-.03-1.09-.07h-2.45l-2.89.03-.48.03c-.2.58-.31,1.26-.31,2.04v1.9c.03.31.03.65.03.99v2.79l.03,5.31c-.17.03-.31.03-.37.03-.14.03-.2.03-.27.03-.1,0-.2,0-.34-.03-.1,0-.27,0-.44-.03l-.51-.03V5.48c0-.71-.1-1.36-.31-1.87l-.34-.03c-.14-.17-.24-.37-.31-.61l-.14-.34ZM14.63,20.58c0,1.67.54,2.62,1.6,2.86l1.12.2c.17.03.27.1.27.17,0,.14-.27.2-.82.2h-.54c-.2-.03-.48-.03-.75-.07-.27-.03-.54-.03-.75-.07h-.54l-3.78.17h-.1c-.37.03-.58-.03-.58-.2,0-.1.17-.2.51-.24,1.67-.1,2.52-1.12,2.48-3.03v-.48l.37.37c.17.24.34.48.44.68l.31.54c.1-.17.24-.37.38-.54.14-.2.27-.41.37-.58M14.76,16.56l-.03-10.51-.03-.65c0-.37.1-.92.27-1.63l2.52-.07,3.2.07c.99,0,1.77.1,2.38.31-.51-.03-1.09-.07-1.7-.1-.68-.03-1.39-.03-2.18-.03h-2.79c-.37,0-.78,0-1.22.03-.17.51-.24.88-.24,1.19l.07,10.71v.65l-.24.03ZM15,20.14v.61c-.03.31,0,.61.07.88.07.34.17.65.27,1.02-.37-.31-.54-.92-.54-1.87v-.31l.2-.34ZM24.69,2.62l.17.14v.44l.34.92c.17.44.24,1.05.24,1.77,0,.54-.14.82-.37.82-.1,0-.17-.07-.2-.17.27-.07.37-.31.34-.68l-.07-1.09-.14-.54-.31-.88v-.72ZM2.52,2.58l6.97.03h.03c.27-.03.71.31,1.29.95h-4.8c-2.08-.03-3.27.65-3.57,2.01-.1.24-.14.44-.14.54-.03.1-.1.17-.14.2-.14,0-.2-.24-.2-.71v-.2c.03-.1.03-.2.07-.31.24-.92.41-1.53.44-1.8.03-.03.03-.27.03-.72M12.04,3.78c.17.03.24.07.24.17h-.17l-.07-.17ZM2.14,6.53c.1-.03.17-.1.24-.24.07-.14.14-.31.2-.48.03-.17.1-.38.17-.55.07-.17.14-.34.24-.48.17-.24.41-.44.75-.61.61-.31,1.6-.44,2.92-.44h4.01c.17,0,.27.07.37.24l-5-.03c-1.05,0-1.8.14-2.28.44-.48.31-.82.85-1.02,1.63-.14.51-.31.75-.51.75-.03,0-.07-.07-.1-.24M9.9,24.18l1.09.03,2.69-.14h1.29l1.46.1h.24c.72.03,1.06-.1,1.06-.41l.2.31c0,.24-.41.34-1.26.34-.24,0-.51,0-.82-.03-.31-.03-.61-.07-.99-.1h-1.4l-2.18.17-.31.03c-.37,0-.75-.1-1.09-.31" fill="#a91e22"/>
    </g>
  </g>
</svg>