<?xml version="1.0" encoding="UTF-8"?>
<svg id="Layer_1" xmlns="http://www.w3.org/2000/svg" width="27.21" height="27.21" xmlns:xlink="http://www.w3.org/1999/xlink" viewBox="0 0 27.21 27.21">
  <defs>
    <clipPath id="clippath">
      <rect width="27.21" height="27.21" fill="none"/>
    </clipPath>
    <clipPath id="clippath-1">
      <rect y="0" width="27.21" height="27.21" fill="none"/>
    </clipPath>
  </defs>
  <g clip-path="url(#clippath)">
    <g clip-path="url(#clippath-1)">
      <path d="M21.56,23.43l.17.31.17.17c.07.1.14.14.2.14l.07-.1-.1-.1-.51-.41ZM2.76,23.06h-.14l-.27.1c.03.1.07.14.14.14.1,0,.17-.07.27-.24M2.62,22.38h-.14l-.14.27-.34.03.07.1.14.03c.2,0,.34-.14.41-.44M17.86,22.04l-.1.07v.37l.14-.2-.03-.24ZM17.65,22.07l-.07-.03-.17.34-.03.14v.03c0,.07.07.14.17.17v-.24c-.03-.07,0-.2.1-.41M20.71,19.76c-.03-.1-.17-.17-.37-.17l-.07.03.03.14h.41ZM25.34,19.01h.24l-.24-.1v.1ZM2.38,18.67l-.03.68h.1l.1-.61-.17-.07ZM21.16,18.5c.03.24.1.34.24.37l-.07.03c.1,0,.14-.03.14-.07,0-.1,0-.17-.03-.2l-.27-.14ZM2.21,18.91l.07-.75-.1.1c-.1.1-.14.34-.14.75v.34l.03.65h.07l.07-1.09ZM20.54,18.23l-.31-.31c0,.14.1.24.31.31M6.97,17.75c-.17.07-.27.17-.27.27s.03.14.1.14l.1-.03.07-.37ZM6.39,17.72c-.07.1-.1.2-.1.24,0,.1.03.17.14.17.07,0,.1-.03.1-.14,0-.14,0-.24-.03-.27v.14l-.1-.14ZM8.77,17.45l.03.07-.14-.03-.03.14h.14l-.03.03.14-.07-.1-.14ZM25.68,17.28c-.14.03-.2.1-.24.17,0,.03.03.07.14.07.03,0,.1-.07.14-.2l-.03-.03ZM8.37,17.28h-.14l-.03.03-.07.1c0,.1.03.14.14.14.07,0,.1-.03.14-.14l-.03-.14ZM17.41,17.28c.14.24.31.41.54.51v-.17s-.1-.1-.31-.24c-.03-.1-.07-.14-.14-.14l-.1.03ZM17.21,17.62l.51.44.07-.07v.1h-.17l.24-.1-.14-.03-.14-.2c-.24-.17-.37-.37-.41-.58l.03.44ZM23.71,16.97l-.41.72.07.07c.24-.24.34-.44.34-.61v-.17ZM5.27,16.94l.03.24h.17l-.07.03.1-.07-.1-.14.07.07-.2-.14ZM5.58,16.7l-.03.14s.03.03.07.17l.1.07h.14l-.17-.34-.1-.03ZM6.02,16.53l-.1.07c.03.24.14.37.24.37l.1-.07c0-.07-.03-.1-.14-.14l-.1-.24ZM8.91,16.46l.1.17c.17.03.34.1.44.14.1.03.2.07.24.1l.14.07.07-.07.03.1.07-.03-.24-.2-.85-.27ZM22.79,15.27l-.27.31.17-.07-.14.1.44-.31-.2-.03ZM23.13,14.93h-.2c-.17-.03-.37.14-.61.44l.14.03.03-.1.41-.24.24-.03v-.1ZM19.15,11.33v-.17l-.07-.14-.07.1.03.14.1.07ZM21.5,10.24v.37l.31-.31-.31-.07ZM19.39,10.65l-.17.07s.17.27.54.92c.1.1.2.2.31.27l.2.17.2.1c.1.03.2.07.34.17l.27.03-.44-.2-.2-.27-.2-.27-.1.07h-.03c-.07,0-.17-.1-.31-.27l-.14-.24-.27-.54ZM23.6,8.81h-.14l-.24.17.17-.03.1-.07.1-.07ZM20.85,8.74l.14.14c.17.1.27.14.37.14h.48l-.99-.27ZM19.93,8.91l-.17-.41-.07.1.03.14.03.2.1.2h-.03.14l-.03-.24ZM9.56,8.03l-.03.07-.07.07.1.07.1.07-.1-.27ZM17.24,7.86h.2l-.31-.1.1.1ZM23.03,7.58l.17.03-.27.27-.1.03h.07l.14-.34ZM9.69,7.55l.03.24c.03.17.07.27.07.31v.1c0,.1.03.17.07.17s.07-.14.07-.37c0-.07-.07-.2-.24-.44M17.07,7.58s.03.07.14.07c.2,0,.31-.03.31-.07l-.44-.07v.07ZM2.14,7.65l-.2.03.14-.1.07.07ZM23.33,7.35l-.24-.07-.27.17-.17.14-.2.24.1.03.24-.27.07-.03.37-.2-.03.03.03-.03h.1ZM2.79,7.24l-.41-.2-.27.1-.31.2-.1.14,1.09-.24ZM4.93,7.52c.1,0,.17,0,.2-.03l-.07-.07.1.1,1.29-.27s-.14.03-.34.03c-.24.07-.44.1-.68.14l-.61.14c-.17,0-.24.03-.2.03l.2-.03c.14-.03.24-.07.34-.1.71-.24,1.09-.34,1.19-.34.03,0,.07.03.1.14l-1.39.17-.14.1ZM19.69,6.56l-.51.71.07-.07-.1.1v-.03s.03-.07.03-.2c.07-.07.1-.17.14-.27l.14-.2.07.03.17-.07ZM3.84,6.5h.2l-.58-.17-.61-.51c.03.1.1.17.14.24.03.07.1.14.14.24,0-.03.07,0,.2.1.1.1.24.14.34.14l.17-.03ZM4.63,6.05l.1.17.34.27.1.1.1.07,1.16.14h-.1c.1-.03.2-.07.24-.1.17,0,.31,0,.44-.03.14-.03.24-.07.31-.17-.17,0-.34-.03-.58-.07-.41.1-.65.17-.75.17-.41,0-.85-.17-1.36-.54M4.35,5.82l-.07-.07-.1-.03c0-.17.1-.24.27-.24l.1.1c0,.14-.03.2-.1.2l-.1.03ZM7.48,5.92c.1-.27.17-.48.17-.58,0-.41-.03-.61-.1-.61-.03,0-.03.07-.07.24-.03.24-.07.44-.14.54l-.03.17c-.03.07-.03.17-.03.34v.31l.2-.41ZM6.63,5.54l.1-.03.07-.03c0-.2,0-.31-.03-.31l-.03.03-.07.14-.17.1.07.03.07.07ZM4.25,5.24l-.17-.07c-.07,0-.1.07-.1.24,0,.03.07.03.17.03l.07-.1-.03-.14.07.03ZM9.97,4.63l-.51.65-.07-.03c-.17.03-.27.03-.34,0,.07.03.27-.1.58-.37l.17-.1.17-.14ZM3.61,4.63l-.03-.07-.03-.03c.1.03.17.1.27.17.07.07.17.14.27.17-.14,0-.31-.07-.54-.2l.1-.03-.1.07h.1l-.1-.17.07.1ZM17.52,4.46v.24l.31-.2-.31-.03ZM5.27,4.63l-.07-.14.37.51.17.27-.17-.14-.17-.14c-.14-.24-.2-.41-.24-.44v-.03s.14.14.34.41l.24.34-.54-.78.34.41-.14-.07.34.44-.48-.65ZM18.09,4.32l-.34-.1-.03.1.14.03.24-.03ZM7.55,3.95v.1c.03.1.07.17.1.24l.1.31h.1l.03-.1s-.03-.07-.07-.24l-.14-.17-.14-.14ZM18.33,3.98l-.24-.1c-.14-.07-.17-.1-.2-.1l-.03.1s.07.1.17.2l.31-.1ZM5.78,3.78l.2.1c.1.17.17.24.2.24l.2.44-.17-.14-.41-.31-.2-.44.17.1ZM8.67,3.54l-.1.03-.03.03-.03.07.03.07.1.07c.31,0,.44,0,.44-.03s-.07-.07-.17-.14c-.1-.07-.17-.1-.2-.1h-.03ZM5.78,3.33c.1.1.17.17.2.17l-.07-.24-.14.07ZM8.71,3.2l-.03.14s.07.07.2.07l-.17-.2ZM23.16,1.94l-.27-.07h-.1l-.03.03.2.1-.07-.03-.1-.1.07.17.31-.1ZM22.52,1.8l-.1.03c0,.1.03.17.1.24.1,0,.14-.03.14-.1l-.14-.17ZM22.14,1.97l-.1-.14c-.1,0-.14.03-.14.14v.07l.03.03.07.03c.1,0,.14-.03.14-.14M21.94,24.86c.27-.14.48-.2.58-.2h.1l.24.07h.1c-.24.24-.51.41-.82.48-.07.03-.17.03-.31.03l-.89.27-.41.03v-.03c.1-.1.2-.17.24-.17h-.1c.44-.07.65-.14.68-.24l.27-.14.31-.1ZM1.12,24.73c.2-.27.41-.41.58-.41l.14.03.27.17h.14s.1.1.2.31c.03.07.2.24.51.51l.44.38.37.27-.31-.1-1.33-.95c-.17-.1-.31-.14-.41-.14-.24,0-.38.14-.38.37,0,.03.07.17.17.34l-.1.07c-.24-.1-.37-.2-.41-.37v-.03l.03-.31.07-.14ZM13.2,24.39l.27-.2c.07,0,.1.07.1.17s-.17.2-.51.37c-1.53.71-2.72,1.09-3.64,1.09-.31,0-.58-.03-.75-.14l.37-.07h.41s.1,0,.27-.03c.14,0,.31,0,.51-.07.2,0,.41-.07.65-.14.2-.03.37-.1.54-.17l.34-.1.37-.17.27-.1s.07-.07.17-.07c.07-.07.17-.1.31-.2.1-.03.2-.07.31-.17M13.6,23.74l.27.34.48.48c.2.24.31.44.31.61,0,.61-.27.92-.85.92-.14,0-.24,0-.27-.03l-.92-.41h-.07c-.17,0-.24.14-.27.44-.14-.1-.2-.17-.2-.24,0-.31.17-.44.54-.44.1,0,.17,0,.2.03l.72.24.1.03c.41,0,.61-.24.61-.68,0-.03-.03-.17-.1-.34l-.34-.41-.07-.1-.14-.44ZM3.81,23.84l.17.31v.51l.17.27-.2-.03-.17-.24-.07-.17v-.2c0-.1.03-.27.1-.44M25,23.84l.14-.07.2-.07c.1,0,.24.03.41.14.27.1.41.24.41.34l-.03.07-.17.07.31.54s.03.1.03.2c0,.2-.1.37-.31.51-.17.17-.37.24-.58.24l-.27-.07-.51-.17-.14-.03c-.24,0-.34.17-.38.51l-.14-.17v-.21c-.03-.31.14-.44.48-.44.14,0,.2,0,.24.03l.68.14h.03s.1-.03.24-.17l.14-.24s-.03-.07-.07-.24c-.1-.24-.34-.34-.78-.34-.17,0-.24,0-.27.03l-.95.44-.37.14c-.17.07-.31.1-.34.1l-.03-.07s.07-.1.2-.14c.1-.1.24-.17.34-.24.1-.07.2-.14.31-.17.27-.27.68-.51,1.19-.68M19.15,23.37l.1-.03.24-.03c.24,0,.41.07.58.24.07.24.1.44.1.54,0,.78-.75,1.19-2.28,1.19l-.14-.03-.24-.07-.75-.17-.41-.17.34.03c.65.14.92.2.88.2,1.33,0,1.97-.31,1.97-.88,0-.2-.1-.31-.31-.31-.17,0-.27.03-.34.1l-.44.51-.27.2h-.17c-.2.03-.34-.07-.37-.31l.27.03c.27.03.51-.1.68-.48.24-.37.44-.58.61-.58h-.07ZM4.9,23.33c.03-.1.07-.14.17-.14.51,0,.78.03.88.14l.37.27.14.07.03.07.1.14c.03.1.07.17.14.2l.03.07-.07.41-.65.78-.03.07c0,.31.2.44.61.44.44,0,.65-.24.61-.68v-.14c.14.14.2.24.24.34,0,.1-.03.2-.1.31-.2.31-.48.48-.85.48-.58,0-.85-.27-.85-.78,0-.17.1-.34.34-.51l.27-.17c.03-.24.07-.34.07-.37,0-.1-.07-.2-.2-.31l-.17-.2-.17-.07-.07-.1c-.1-.07-.2-.1-.24-.1l-.17.03h-.14c-.14.03-.24-.07-.31-.24M6.8,23.54h-.14c-.14,0-.2-.07-.2-.2v-.03c.03-.07.1-.14.27-.17h.03c.24,0,.37.1.37.34l-.07.14-.27-.07ZM25.44,22.52l.27-.24.03-.03.07-.03c.14,0,.2.07.2.2,0,.2-.2.48-.65.82l-.41.31.03-.17.41-.78.03-.07ZM13.3,23.37c.07.2.1.37.1.48,0,.27-.31.54-.92.82-.24.1-.44.17-.58.24l-.48.24-.31.03-.48.17c-.07.03-.2.03-.37.07-.2.03-.48.03-.78.07-.1.03-.17.03-.27.03h-.48c-.31,0-.61-.37-.85-1.09l-.07-.14-.07-.17-.2-.48c-.1-.2-.2-.37-.27-.51-.03-.17-.07-.27-.1-.38l-.1-.24-.07-.27.07-.03s.17.07.34.17l.34.31.07.07.14.07.71.61c.44.31.95.51,1.46.58.07.03.17.03.31.03h.27c.1,0,.27-.03.54-.1l.17-.03.14-.03.58-.41c.17-.1.31-.24.41-.34l.07-.07.2-.48.41.68.07.1ZM16.39,22.48c.17-.27.31-.41.41-.41h.07v.34l.24.72c.03.17.07.31.07.34,0,.78-.34,1.19-1.05,1.19-.48,0-.92-.24-1.36-.75l-.31-.31c-.14-.1-.24-.2-.27-.37l-.14-.1-.14-.27.2.1c.1.14.24.24.31.37.14.07.2.17.27.27l.07.14c.51.31.88.44,1.16.44.2,0,.37-.07.54-.24l.07-.2v-.14s-.03-.17-.1-.34l-.14-.1c-.17-.07-.31-.1-.41-.1-.17,0-.34.14-.58.41v-.51l.14-.27.1-.07c.1-.1.17-.14.24-.14l.2.03c.14.07.2.07.24.07l.17-.1ZM7.59,22.07c.1.1.17.17.24.2.1.03.17.1.2.14.48.31.75.51.85.61.1.03.17.1.2.14l.14.1.14.07c.14.1.31.2.51.31l.2.14.07.03-.03.07c-.65-.07-1.23-.34-1.67-.82l-.17-.17-.27-.17-.58-.44-.2-.2.07-.07.31.07ZM21.94,20.99l.24.65.24.07-.2-.51.24.1v.14l.1.1.1.17.24.14-.2-.51.41.03.1.07.31.14.17.24c.17.24.27.54.31.88h-.2c-.14,0-.27-.03-.44-.1l.1.48-.27.82v.65l-.41.03h-.07c-.2,0-.48-.14-.85-.41-.24-.17-.41-.41-.51-.71h.03l-.07-.17-.1.03-.2.41-.24-.2-.03-.14c-.17-.24-.24-.41-.24-.58v-.14l.1-.51c.03-.31.1-.44.2-.44l.1.03-.03.03c.14.07.2.2.2.44l.1-.03-.03.1.07-.07s-.03-.1-.03-.2c0-.17.03-.27.14-.27s.14.14.14.44h.1v-.58l.03-.03.03-.1.07-.24.2.92.24.61.1-.07v.07l-.1.03h.1c-.17-.58-.27-.99-.27-1.19v-.61ZM21.67,20.99c-.2.48-.41.71-.61.71-.1,0-.17-.07-.17-.17v-.1c.1,0,.14,0,.17-.03l.44-.31.17-.1ZM17.21,20.88l.1.03.24.17.41.27c.17.1.31.2.41.27l.1.07c0,.14,0,.24-.03.27v.03h.03l.17-.27.17-.03c.07,0,.1.03.1.14l-.03.17.1.03c.03-.17.14-.27.27-.27l.07.03.17.2.14-.2.34-.1v.34l.14.03c.03-.27.17-.41.41-.41h.03c-.03.31-.2.61-.48.92-.27.27-.51.41-.71.38h-.07l-.03-.44-.17.07-.2.34-.75.51-.34.44c-.1,0-.17-.1-.24-.27l-.17-.24c-.1-.44-.17-.75-.17-.89,0-.17.03-.37.14-.54l.14-.37-.31-.07c-.17-.07-.24-.14-.24-.17s.1-.2.27-.44M7.07,21.16v-.14c-.03-.31.14-.44.51-.44.1,0,.14.03.14.1l-.24.31.14.31.24.17.61.07.34.07c-.17.14-.34.2-.48.2-.03,0-.14-.03-.31-.07l-.31-.1c-.31-.1-.55-.27-.65-.48M5.34,20.51l1.09.85.75.37-.48.31.07.48c-.37-.14-.71-.2-.99-.2-.71,0-1.05.24-1.05.75,0,.03,0,.1.03.2,0,.07,0,.17.03.27l.14.2.24.17.1.1.37.03.17-.03c.14,0,.2.07.2.17,0,.2-.17.31-.54.31-.34,0-.65-.17-.92-.48l-.1.27h-.1l-.2-.31-.14-.44s-.03-.17-.03-.37c0-.14.07-.31.17-.48v-.07l.07-.07c.14-.24.34-.37.61-.51.31-.07.54-.14.71-.14.14,0,.31.03.51.14.24.07.37.1.44.1l.1-.07-.1-.14-.95-.48-.14-.14-.34-.27-.24-.48.51-.07ZM19.9,20.95c.1-.31.27-.44.54-.44.1,0,.17.03.17.1,0,.14-.24.24-.71.34M16.7,20.24l.1.34c-.1.68-.31,1.02-.61,1.02-.14,0-.2-.1-.2-.31h.03c.37.03.61-.31.68-1.05M12.07,20.2c-.07.34-.17.58-.31.75l-.82.85c-.31.31-.44.58-.44.88,0,.21.1.34.34.44l.54-.1.14-.17.17-.14c-.1.61-.41.92-.92.92-.31,0-.54-.14-.78-.41l-.07-.31v-.14c0-.24.14-.51.38-.75l1.26-1.26.07.03v-.07l.17-.14.07-.2.2-.2ZM22.07,20.31l.07-.27.17.03c.17.03.37.37.54,1.05-.31,0-.54-.07-.71-.24-.14-.1-.2-.17-.2-.24,0,.03.03-.07.07-.24l.07.07h.2l-.2-.17ZM25.78,20.03l.03-.03s.03.1.03.2l.03.14.03.17-.17.41c-.07.24-.1.44-.1.58-.1.34-.31.75-.61,1.19l-.61.99-.51.44-.2.24-.34.2v-.2c-.03-.1.03-.24.2-.41l.61-.61.07-.1c.1-.17.17-.34.27-.44l.27-.37.17-.31.2-.65.14-.24.07-.31.34-.85-.03-.03h.1ZM17.86,20.24c.37-.17.61-.27.71-.31h.27l.1-.03.07.07-.38.31.07.03c.1,0,.24-.1.37-.27.14-.07.24-.1.27-.1-.03,0,.07.03.31.07l-.44.37h.14l.1-.07.31-.24.17.07-.51.58h.07c.07,0,.14-.07.17-.17l.41-.17.17-.1v.14c-.07,0-.17.1-.37.27-.14.2-.31.34-.44.37-.51,0-1.02-.2-1.46-.58l-.07-.07-.07-.07.03-.1ZM8.6,19.79c.1-.1.2-.17.27-.17l.27-.07.1-.03c.27,0,.44.14.48.41h-.27c-.31-.03-.44.1-.44.38,0,.1.1.2.34.37.24.14.41.2.51.2.38,0,.68-.14.92-.44l.51-.61.24-.07c-.54.99-1.26,1.5-2.14,1.5-.24,0-.48-.1-.71-.24-.24-.2-.34-.41-.34-.65l.07-.34.2-.24ZM5,19.15c.03.07.03.14.03.24s0,.14.03.17v.1c0,.1-.03.17-.14.17s-.14-.03-.14-.14c0-.07.03-.17.14-.34l.07-.2ZM5.44,19.35s-.03-.14-.03-.24c0-.17.07-.24.17-.24h.07c.17.1.24.31.24.61,0,.2-.07.41-.2.58-.14.17-.31.27-.48.27l-.88-.07h-.04c-.37,0-.54.14-.54.44,0,.2.03.31.1.34l.1.07.17.14.03.03h.07s.1-.07.38-.17c-.14.31-.31.44-.48.44-.1,0-.24-.07-.44-.2-.17-.14-.27-.34-.27-.65,0-.14,0-.2.03-.24.14-.37.34-.51.58-.48l.88.07.2-.03c.24-.07.37-.24.37-.48l-.03-.2ZM17.45,19.42l.48.14.03.17c0,.1-.07.17-.2.17-.24,0-.44-.21-.61-.61l.31.14ZM12.21,18.74c.1.03.17.1.17.17,0,.17-.1.48-.27.99l-.78.99-.51.48-.2.2-.24.2-.71.44h-.31c-.27.03-.51.03-.65.03-.2.03-.31.03-.41.03-.07,0-.17-.07-.34-.24l-.14-.14h.75l.31-.1.88-.17.51-.24.24-.17.51-.44.34-.34.14-.24.27-.34v-.1c.1-.1.17-.24.27-.44.07-.14.14-.34.17-.58M23.2,18.37c-.24.85-.61,1.29-1.05,1.29-.03-.03-.03-.1-.03-.2v-.14h.14c.1-.03.24-.17.34-.37-.58.24-.78.37-.65.37-.03,0-.1-.07-.17-.17.07-.2.2-.34.41-.44.17-.07.34-.14.48-.14.1-.07.2-.07.24-.1l.31-.1ZM25.58,18.33l.34-.14.07.03c.07.03.1.1.1.2,0,.17-.1.27-.34.27-.1,0-.17-.1-.17-.27v-.1ZM24.11,18.06h.72l-.07.34v.24l.31-.03.51.17.27.07c.17,0,.27,0,.34-.03l-.03.58c-.17.1-.34.27-.48.51l-.17.17-.07.07-.07.03-.07.1c-.31.14-.44.2-.48.24v.07l.17.03h.03c.1,0,.14.03.14.07v.1l-.14.2s-.07.1-.17.2l-.34.14-.27.1c-.14.03-.24.07-.27.07-.37,0-.65-.14-.88-.44l-.2-.2.03-.14h.24l.03-.1-.03.1h-.24l.24-.03-.07-.07-.2.03c-.1,0-.1-.07-.07-.2v-.1h.24l-.27-.03h.24l-.03-.07h-.17c-.1,0-.17-.07-.24-.2h.2c.2,0,.48-.07.78-.2h-1.05v-.1l.95-.17-.2.03.24-.07v-.14.1l-.07-.03-.54.1.14-.2c.03-.07.1-.1.27-.1l.07-.17h-.2l.1-.17-.07-.03.31-.1.17-.07-.31-.03c.1-.31.2-.51.31-.54l.41-.07h.03ZM26.05,17.55l-.1.41-.2.1c-.14.07-.24.1-.31.1-.14,0-.2-.03-.2-.14,0-.03.07-.07.27-.14.14-.07.27-.1.31-.14l.17-.14.07-.07ZM16.6,17.21c.17.31.24.48.24.54l.03.41v.34c0,.44.1.85.27,1.16l.27.44.14.2.24.27.24.17.1.07.1.07.31.2.2.03c.24.03.34.07.31.07h.34c1.22-.03,1.84-.34,1.84-.95l-.03-.07-.1.03-.2.31-.14.07.1-.58-.34.03h-.24s-.27-.1-.75-.27l.27-.1c.31-.17.51-.27.58-.27h.58l.07-.07.03-.07v-.03s-.03-.14-.1-.24c-.03-.1-.07-.2-.07-.24,0-.1,0-.27.03-.48.03-.2.03-.34.07-.41h.07c.31.24.48.65.58,1.22-.31.14-.44.27-.44.44v.14l.1.03.2-.34.24.07c.17.17.24.31.24.44,0,.24-.07.44-.2.68-.17.2-.34.37-.61.54-.2.17-.48.27-.82.41-.27.07-.61.14-.95.14-.71,0-1.33-.24-1.84-.75l-.07-.03c-.1-.17-.2-.24-.37-.24h-.07l-.24-.75-.17-.41v-.1c-.1-.51-.17-.82-.17-.99,0-.37.03-.78.14-1.16M12.72,16.6c.1.03.17.1.2.14.03.07.07.31.1.72l.03.82-.24,2.24.17,1.02.07.31.58,1.02.14.17.03.03.07.1.03.1.58.61.17.2.14.14.24.17.41.24.17.1.65.31c.17.1.34.14.48.2.1,0,.24.03.34.07.07.03.2.03.41.07s.48.07.85.1h.75c.44,0,.71-.17.75-.51l.51-.24c.37,0,.71-.14.95-.41.1.1.14.2.14.37,0,.1-.03.2-.07.24l-.24.24-.61.14-.1.14c0,.1,0,.14.03.17l.07.03c.24-.03.48-.03.68-.07.2,0,.38-.03.51-.07.2-.07.34-.1.44-.07l.24.03c.51.1.75.27.78.51-.41-.07-.71-.1-.88-.1h-.24c-.1,0-.17,0-.24.03l-.92.2c-.07.03-.17.03-.27.03h-.37c-.14,0-.24,0-.31-.03-.1-.17-.24-.27-.37-.27h-.24c-.1.03-.27.03-.51.07h-.17c-.92.07-1.97-.2-3.1-.78-1.09-.61-1.84-1.29-2.21-2.01l-.14-.24-.31-.51-.34-.82-.1-1.09-.03-.24c0-.1.03-.34.1-.75l.03-.17c0-.1,0-.14.03-.17.03-.41.07-.71.17-.92l.07-.37v-.75l-.1-.51ZM19.42,16.09l.07.03c.14.03.24.07.37.1.07.03.17.1.27.14.41.31.61.65.61.95,0,.03-.07.07-.2.07l.14.17.1.31h-.07c-.07,0-.14-.07-.24-.2h-.07l.03.07c.17.1.27.27.27.51l-.14-.03c.07.1.1.2.1.27v.17l-.54-.34-.03.1.2.14.17.1c.17.1.24.2.24.31s-.07.14-.17.14c-.03-.03-.1-.07-.27-.14l-.48-.24-.37-.34v.07l-.14-.14-.1.03.58.54.54.24c-.1.1-.2.14-.31.14h-.07l-.2-.07-.34-.17.27.24h.07l.1.03c0,.1-.07.14-.2.14l-.31-.07.07.2c-.1.03-.17.07-.2.1l-.17.07h-.03l-.58-.17c-.61-.24-.92-.48-.92-.75,0-.03.07-.1.2-.14.17-.03.24-.07.24-.1-.1-.07-.17-.14-.27-.17-.27-.27-.48-.51-.58-.71l-.07-.14-.07-.14c-.1-.17-.14-.31-.14-.48,0-.2,0-.34.03-.41.2.07.34.1.44.1l.14-.03.34-.14.41-.07h.24c.17,0,.34.07.51.2l.2.17h-.03l.27-.07s-.03-.14-.03-.31c0-.1.03-.2.1-.31M12.69,16.09l.31.1c.1.03.2.1.31.14-.07.14-.14.2-.2.2-.24,0-.38-.14-.41-.44M17.01,16.36c.03-.2.07-.31.17-.31.17,0,.24.1.24.27l-.1.07c-.17,0-.27,0-.31-.03M12.75,15.58c.17-.1.31-.17.38-.17.1,0,.14.03.14.14,0,.27-.14.41-.41.41-.1,0-.24-.07-.41-.17v-.14l.2-.07h.1ZM4.01,15.51c.17-.17.41-.27.72-.27s.48.17.48.48c0,.37-.24.65-.75.82.27-.24.41-.44.41-.61l-.07-.27c-.14-.07-.24-.1-.34-.1-.24,0-.54.17-.88.51-.1.1-.17.2-.2.31-.03.1-.1.17-.14.2l-.2.07.2-.24.2-.34.37-.31.2-.24ZM24.08,15.48c-.2-.07-.31-.17-.31-.31,0-.1.03-.17.1-.17h.1l.03-.03.17.1.1.1.27.2.07.31.1.31-.07.07s-.07-.03-.1-.14l-.48-.44ZM22.04,14.76c-.1.03-.2.03-.31.07h-.24c-.71.07-1.05.27-1.05.61,0,.14.1.24.34.31-.14.2-.24.31-.34.31s-.2-.07-.34-.2c-.14-.1-.2-.2-.2-.31,0-.07.07-.2.17-.37l.14-.17.41-.24,1.02-.1.41.1ZM23.88,14.56l.03.14-.14.24c-.1.17-.14.31-.14.41l-.1.85-.2.34.17-.07.58-.24.1.17-.03.14-.03.2-.24.68c-.17.51-.71.85-1.67,1.02l.1-.31-.14.03-.17.41-.07-.03c.03-.24.07-.51.1-.78.07-.27.17-.54.27-.82l-.03.1v-.1h-.1l-.17.41-.2.71-.07.27-.1-.03-.07-.34c0-.14,0-.24.03-.31v.07l-.1-.03-.07.24-.1-.14h-.1l.03-.37-.1-.03-.03.17-.14-.07-.14-.34c-.03-.07-.03-.17-.03-.31v-.27c0-.24.1-.51.34-.82l.44-.37.2.27c.24-.48.78-.82,1.56-.99l.31-.03.2-.07ZM6.05,14.56l.31.17.27.51.07.07.27-.14-.07.54c-.03.1-.1.2-.2.27-.2.2-.31.34-.31.37,0,.07.03.1.14.1.03,0,.1-.07.17-.17l.41-.41c.24-.17.44-.27.55-.31l.61-.14c.1-.03.24-.07.31-.14.14,0,.2-.07.27-.1v.07c0,.24-.1.51-.27.82l.24.14c.17.03.31.07.44.1l.44.14.31.17.38.2h.14l.71-.07-.07.44c-.03.17-.1.31-.2.41l-.27.17c-.17.1-.31.2-.41.24l-.1.1h-.07c-.38.03-.55.07-.55.17v.03l.24.27-.17.1s-.1.03-.2.03c-.51,0-.95-.17-1.36-.51-.03-.1-.07-.14-.14-.14l-.1.1c0,.07.07.14.2.2l.07.07c.17.1.27.31.27.54,0,.17-.03.37-.14.58l-.2-.03-.03-.2h-.2v.27c.03.58-.27.89-.99.89-.1,0-.24-.07-.37-.2.24-.17.41-.34.51-.51l.03-.31-.07-.2-.1-.37c-.37-.24-.65-.37-.82-.37-.78,0-1.22.44-1.29,1.29-.17-.03-.27-.14-.27-.27.03-.1.03-.17.07-.27,0-.1.03-.2.07-.31l.07-.27c.34-.58.75-.99,1.26-1.22l.03-.07.14-.03.41-.07c.24-.03.37-.03.48-.03.1-.03.14-.03.1-.03h.1l.27.03.1.03.1-.07c0-.07-.07-.1-.2-.1l-.61-.03h-.03c-.85-.03-1.6.41-2.24,1.33l-.2.27c.03-.65.14-1.05.24-1.22l.17-.34c.1-.17.17-.31.24-.41l.24-.31c.2-.2.37-.41.48-.58.24-.31.34-.75.37-1.29M22.89,14.49c-.17.1-.31.17-.37.17l-.61-.07s-.17-.03-.34-.03-.31,0-.38.03l-1.33.17-.41.17-.68.27c-.1,0-.27.1-.44.24-.17.2-.31.27-.41.27-.17,0-.24-.07-.24-.2l.07-.1.27-.17.37-.27.68-.31.44-.2.48-.1.17-.1.51-.1.27.03.31-.03.1.07.48-.03.24.03h.27l.17.14h.2l.17.14ZM17.58,14.11c.2.24.41.38.58.38.03,0,.17-.03.37-.07.2-.07.34-.1.44-.1-.14.1-.24.17-.31.2-.31.17-.58.27-.75.27-.31,0-.44-.1-.44-.31,0-.07.03-.2.1-.38M7.11,14.18l.65-.14.1-.03h.17c.1.03.2.03.31.07,1.46.31,2.18.78,2.18,1.5,0,.14-.03.27-.1.41-.1.14-.17.2-.27.2l-.14-.03-.27-.03-.14-.17c.37-.07.55-.2.55-.44,0-.1-.1-.31-.27-.54-.48-.44-1.02-.68-1.63-.71l-.85-.03-.27-.03ZM25.24,14.01c.2-.31.37-.44.54-.44.1,0,.17,0,.2.03l-.27.95v.31c0,.24.03.48.1.71.17.61.24,1.02.24,1.26,0,.65-.2.95-.65.95-.1,0-.2-.03-.37-.1l-.31-.31c-.1-.2-.2-.37-.34-.51v-.14c.1-.1.17-.14.24-.14.1,0,.2,0,.24.03l.03-.24.24.17.17.44.14.17c.1,0,.17-.03.17-.14s0-.17-.03-.2l-.24-.31-.07-.24-.2-.17-.03-.14-.2-.27-.1-.44s-.03-.14-.03-.24c0-.14.1-.2.27-.2h.17c-.03-.07-.03-.17-.03-.34s.03-.31.14-.48M12.48,13.6h.03c.24,0,.34.1.34.27,0,.14-.1.2-.27.2s-.24-.1-.24-.27c0-.14.03-.2.14-.2M11.77,13.54l.2.03.07.17.03.1c0,.17-.07.24-.2.24-.17,0-.27-.07-.27-.24,0,.03.03-.03.07-.17l.1-.14ZM16.67,14.52l.03-.51.14-.31.1-.24.14.03.03.17-.14.55s-.03.1-.03.2l.03.14.03.31.07.27.1.07v.07l.1.17c.27.37.61.58,1.05.58.38,0,.72-.27,1.05-.82.03-.1.14-.17.24-.17h.1c-.1.31-.2.54-.34.71-.27.31-.48.44-.61.44l-.34-.03-.58.03h-.07s-.1-.03-.2-.1l-.31-.17-.34-.44c-.17-.24-.27-.58-.27-.95M19.8,13.47l.51-.07.44-.03h.07l.44.03h.38c.71,0,1.43.24,2.14.71l.14.07-.07.03-.41-.07-.85-.24-1.12-.2h-.71c-.34.07-.58.1-.71.1s-.2-.1-.24-.34M19.49,14.11l-.03-.17c-.03-.17-.03-.27-.07-.34v-.14c0-.1.03-.17.14-.17.07,0,.14.14.17.37l.07.34c0,.1-.03.14-.14.14l-.14-.03ZM6.05,13.57c.17-.03.31-.07.41-.1.14-.03.24-.03.34-.07l1.12-.14h.17c.14.03.41.03.78.07.31.03.54.1.71.14.2.03.37.1.48.14.17.03.31.07.37.1l.14.1.34.14c.2.1.37.2.48.31l.17.17c.14.1.24.17.31.2.24.17.37.31.37.37,0,.14-.14.2-.44.24v.2l.24.27.14.17c.31.58.48,1.16.48,1.7v.24c-.03.1-.03.2-.07.31l-.03.14-.14.24-.27-.2-.03-.03-.1.1.03.34v.07s-.03.07-.07.17l-.07.1-.1.1-.34.34c-.17.17-.31.24-.48.24-.03,0-.07-.07-.1-.2h-.1c-.17.17-.31.24-.48.24-.44,0-.65-.17-.61-.54v-.1h.41l.2.03c.37.03.75-.2,1.05-.75l.07-.07c.2-.44.31-.85.31-1.23,0-.17,0-.27-.03-.31l-.1-.37-.1-.31-.14-.34-.1-.14-.31-.44-.1-.1-.1-.1c-.99-.78-2.07-1.16-3.33-1.16-1.39,0-2.48.41-3.33,1.26l-.54.51-.41.44-.54.92c-.1.17-.31.38-.61.61.03-.24.14-.51.24-.72.1-.27.24-.51.41-.75l.17-.24.41-.51.37-.41.88-.61.58-.34c.17-.1.41-.2.65-.31v-.03l.37-.1ZM12.92,13.47c-.14-.07-.24-.1-.27-.1l-.14.03-.14.03-.07-.1c0-.17.1-.24.34-.24.44,0,.68.27.68.78s-.2.95-.61,1.29l-.24.2-.17.1s-.07,0-.17-.03l.07-.14.31-.2c.37-.44.58-.78.58-1.02,0-.17,0-.31-.03-.37l-.14-.24ZM10.14,12.96l.24-.03.27.07.31-.03.17.03c.17.03.27.17.27.41-.03.1-.1.2-.17.27h-.27l.07-.44c0-.07-.17-.14-.48-.17-.1-.03-.24-.07-.41-.1M11.97,12.72h.03c.14,0,.2.03.2.14,0,.2-.1.31-.34.31-.17,0-.24-.07-.24-.17,0-.17.1-.24.34-.27M17.96,12.65c.31.17.58.24.85.24.1,0,.27-.03.48-.1.2-.03.34-.07.41-.07l.1.1c0,.27-.34.41-1.05.41-.24,0-.55-.14-.92-.37l.14-.2ZM12.89,12.07v-.03l.2.03c.14,0,.2.1.2.34l-.03.07-.14-.07-.1-.07h-.17l-.24.07-.14.03c.1-.17.24-.27.41-.37M18.16,11.77l.1.07-.03.31-.37.37-.31.34-.07.03-.07.03s-.07-.03-.1-.14l.31-.41.31-.37.24-.24ZM1.22,11.12c.24.1.38.2.48.27.51.44.78.95.75,1.46v.07l-.07.41.07.07.07.1c.07-.1.14-.17.2-.24.07-.1.14-.17.24-.2.03.1.03.2.03.27.03.1.03.17.03.24,0,.03-.03.14-.07.31l-.92,2.59c-.27.75-.41,1.84-.41,3.23,0,1.12.14,1.94.44,2.52h.2l.1-.03c0-.07-.03-.17-.1-.27l-.34-1.16-.07-.95v.41-.41l.03.07-.03-.24.1-.88v-.27c0-.14.03-.27.14-.44l.07-.1.1-.2.27-.27.07-.14c.07-.14.24-.24.48-.27.03.24.07.34.07.31,0,.17-.03.34-.1.48l-.14.2.07.1.27-.27c.17-.1.37-.14.54-.14s.27.07.27.2v.1c-.03.07-.03.2-.07.37-.71.07-1.09.61-1.09,1.6v.27c.03.14.03.24.07.34l.61,1.87v.2c0,.44-.2.75-.61.95v.14c0,.31.07.54.24.71l.2.24.2.24.34.24c.17.1.31.17.41.2.34.14.51.27.51.41,0,.17-.07.24-.24.24s-.51-.17-1.09-.54c-.37-.24-.65-.51-.82-.75l-.14-.2-.07-.07-.07-.14-.14-.37-.07-.24-.31-.17c-.27-.17-.51-.68-.75-1.57-.2-.88-.31-1.8-.31-2.76,0-.1,0-.24.03-.34,0-.14,0-.27.03-.37v-.03h.03v-.88c0-.17.03-.44.14-.78.03-.17.1-.48.17-.92.07-.44.14-.92.24-1.36.03-.31.07-.58.14-.75,0-.2.03-.37,0-.48l-.17-1.12s-.03-.14-.03-.24l-.07-.34c-.07-.17-.1-.34-.2-.51M17.07,11.5c.1-.27.24-.41.44-.41s.37.03.51.07l.51.31.2.14.17.24.17.2.14.24.1.2.03.1c0,.1-.07.14-.17.14-.07,0-.1-.03-.1-.14l-.68-.85c-.31-.24-.54-.34-.71-.34-.1,0-.14,0-.17.03l-.1.2-.07.07.14.41-.14.34c-.2-.14-.31-.34-.31-.65l.03-.31ZM22.65,12.45c-.41-.24-.61-.48-.61-.78,0-.48.24-.71.71-.71h.07c.14.07.2.14.2.24-.03.07-.14.1-.34.14h-.03c-.1.1-.17.27-.17.44,0,.07.07.17.2.34.14.14.24.27.34.44l-.27-.03-.1-.07ZM3.23,12.58l-.03-.37-.41-.37c-.03-.14-.07-.24-.07-.27,0-.58.37-.89,1.12-.89s1.09.31,1.09.95c0,.51-.41.95-1.23,1.33.58-.51.85-.95.85-1.33,0-.44-.27-.65-.85-.65-.44,0-.65.2-.65.61,0,.14.14.27.37.41.1.03.14.1.14.27s-.1.27-.34.31M9.93,12.31c.1-.1.2-.14.38-.14h.1c.37.03.75-.07,1.02-.27.34-.17.48-.37.48-.61,0-.2-.1-.31-.27-.31l-.03.03-.31.14v-.1c0-.31.14-.48.44-.48.37,0,.54.2.54.58,0,.78-.61,1.16-1.87,1.16h-.48ZM18.57,10.1c.1.17.14.37.14.54,0,.2-.03.41-.14.61l-.2-.14v-.2l.2-.82ZM6.39,10.14l-.03-.14c0-.24.2-.34.58-.34.34,0,.51.17.51.54s-.14.61-.44.78l-.37.27-.31.27c-.1.07-.24.14-.34.17-.1.03-.2.1-.31.14.24-.31.54-.61.92-.85.27-.17.41-.34.41-.51,0-.03-.03-.14-.07-.37-.17-.03-.27-.07-.31-.07-.07,0-.14.03-.24.1M17.07,9.49c.1.1.14.17.14.27-.27.41-.41.65-.41.68l-.14.58c-.03.2-.07.34-.1.38l.07.31c.17,1.29.85,1.94,2.08,1.94h.1l.24-.03.1-.03c.1,0,.14.03.14.14,0,.17-.1.24-.34.2l-.34-.03c-.41,0-.65-.03-.78-.07-.07-.03-.24-.14-.41-.27l-.27-.2c-.54-.37-.82-.95-.82-1.8,0-.38.14-.85.37-1.43.03-.1.1-.2.17-.31.03-.1.1-.2.2-.31M8.57,9.25h.2c-.17.85-.54,1.5-1.16,1.94l-3.2,2.04-.88.82s-.1.07-.2.17c-.07.1-.14.17-.2.17h-.1c.03-.31.17-.55.37-.68.44-.37.88-.71,1.29-.99.41-.31.78-.54,1.16-.71.41-.17.65-.31.71-.37l.34-.24.27-.21.07-.07c.1-.03.17-.1.17-.14l.1-.1.31-.34c.07-.14.14-.2.17-.27l.17-.27.07-.2.1-.24.03-.27.2-.03ZM8.84,10.27c.65-.71,1.16-1.05,1.56-1.05.65,0,.95.31.95.95,0,.68-.27,1.02-.85,1.02-.17,0-.34-.14-.51-.44l.34.03c.1,0,.27-.07.44-.2.1-.17.17-.27.17-.31v-.07l-.07-.14-.03-.14-.07-.07c-.17-.1-.34-.17-.44-.17-.38,0-.89.34-1.6,1.02-.78.75-1.39,1.19-1.91,1.36l.92-.82c.31-.14.54-.31.71-.54l.37-.44ZM12.45,10.03l-.34-.34-.31-.2c-.37-.31-.58-.65-.58-.99,0-.1.03-.17.14-.17v.07s.03.14.07.24c.03.1.1.2.2.31l.85.75.34.51c.1.17.17.37.17.54,0,.51-.2.99-.61,1.39-.44.41-.92.61-1.46.61h-1.12c-.24-.07-.41-.1-.44-.1-.1,0-.14.03-.14.1,0,.03.03.07.14.1.17.1.24.2.27.37-.65-.03-.95-.14-.95-.34l.1-.17-.17-.1h-.24c-.85,0-1.7.2-2.58.58-.92.37-1.63.85-2.18,1.43l-.78.88-.2.2v-.1c.03-.14.1-.27.17-.37.03-.14.1-.27.2-.37l.31-.27c.37-.24.58-.44.65-.51.07-.14.17-.2.31-.31l.31-.17c.14-.17.31-.27.54-.31.17-.1.31-.17.44-.24l.37-.14.78-.31.51-.14.27-.03h.14l.48-.07h.27c.07-.03.2-.03.31-.07l-.1-.2-.03-.24.03-.07s.2-.1.58-.24c.1-.03.24-.14.41-.31l.03.24.03.14c0,.14-.1.31-.31.51l-.24.24.07.1c.24-.03.34-.07.31-.07.07,0,.2.03.34.03.2.07.34.07.44.07.71,0,1.19-.1,1.46-.31.65-.51.99-1.02.99-1.53,0-.03-.03-.14-.07-.31l-.17-.34ZM10.48,8.2l.1-.07h.17l.2.14.03.2v.03l-.07.14-.1.03c-.24,0-.37-.1-.37-.31,0-.1,0-.14.03-.17M6.19,8.09l.1.14v.07l-.07.14-.24.34-.14.24.1.03h-.07c.14-.03.27-.2.37-.44.03.27.07.48.1.61v.1c0,.48-.31.85-.88,1.09.31-.27.48-.54.58-.78h.1l-.17.03-.14.17c-.03.07-.1.14-.2.24-.1.07-.24.14-.44.24l-.03.14.24.03c-.24.17-.44.24-.61.24-.1,0-.17-.07-.17-.24,0-.07.03-.2.07-.37l-.07-.2-.17.07c-.1.31-.34.44-.78.44.03,0-.07-.03-.24-.07.31-.75.75-1.33,1.39-1.7l-.27.37.14.03c.14-.14.24-.27.34-.41.07-.17.2-.24.37-.27l-.34.51.1.07c.1-.17.2-.37.31-.51.1-.2.27-.27.48-.31l-.34.68.1-.03.07-.03.2-.31c.03-.07.1-.14.14-.24l.07-.1ZM11.87,8.03h.03c.17,0,.27.07.27.24,0,.24-.14.34-.37.34-.1,0-.14-.07-.14-.24s.07-.31.2-.34M19.49,8.13l.07-.14.31.24c.14.1.2.34.2.72,0,.17-.03.37-.1.65l.14.03.34-.34c.1.17.17.31.17.41v.14l-.2.95v.17c-.03.31.2.71.68,1.22l.1-.03-.1-.14c-.2-.24-.31-.37-.31-.48l.41.34c.27.1.44.2.55.27l.2.14.17.07.37.24.17.1.14.07.37.24.48.24.2.17.54.41-.03-.1-.37-.34-.1-.14-.07-.07c-.37-.37-.54-.71-.54-1.09,0-.41.2-.85.58-1.29l.37-.37.1.24.58-.24h.1c.78,0,1.16.24,1.16.71,0,.07-.07.1-.24.14l.17.31c.03.1.03.2.03.27l.03.14c0,.58-.24.88-.68.88l-.07-.03-.48-.24-.1-.03c-.17,0-.27.1-.27.34,0,.17,0,.27.03.31-.2-.17-.31-.31-.31-.41,0-.03.03-.17.07-.34h-.14l.14-.07c.07-.17.2-.24.44-.27.31.1.48.17.54.17.24,0,.34-.17.34-.54,0-.44-.31-.65-.88-.65-.72,0-1.09.38-1.09,1.16,0,.51.37,1.09,1.12,1.73l.1.07-.03.51-.24-.03-.14.07-.38-.37-.68-.51-3.6-1.63-.48-.31c-.31-.1-.51-.27-.61-.51l.07-.14c0-.14.07-.24.17-.27.03-.03.03-.1.03-.2l-.24-.58-.17-.41-.03-.34-.03-.2.07-.07h.14l.27-.51.44-.41ZM12.52,9.15c-.14-.24-.2-.41-.2-.54,0-.44.17-.68.54-.68.34,0,.51.2.51.58,0,.07-.07.14-.17.17l-.07-.1c0-.1-.03-.17-.14-.17-.24,0-.34.1-.34.27,0,.1.03.2.1.37l.38.78.07.27-.1.14-.14-.34-.2-.31-.24-.44ZM11.22,7.45c.2,0,.31.1.31.27,0,.24-.1.34-.31.34-.17,0-.27-.1-.27-.27,0-.24.07-.34.2-.34h.07ZM10.78,7.55l-.03.24-.03.07-.17.07c-.17,0-.24-.1-.24-.34s.1-.34.31-.34c.14,0,.2.07.2.2l-.03.1ZM11.97,7.18l.07-.03c.24,0,.37.1.37.27,0,.24-.1.34-.31.34-.24,0-.34-.1-.34-.31,0-.17.07-.27.2-.27M11.02,6.8l.34.1.07.14c0,.17-.1.24-.31.24-.17,0-.27-.14-.27-.37,0-.03.07-.07.17-.1M1.6,6.22c.2,0,.31.1.31.31,0,.17-.07.27-.17.27-.24,0-.34-.1-.34-.34v-.07l.1-.1.1-.07ZM8.37,5.99l.44-.07h.03c.65-.07,1.05.24,1.22.95v.1c0,.14-.03.2-.1.2l-.2-.03c.24.44.34.82.34,1.12,0,.51-.14.78-.38.78l-.48-.1-.88.1c-.1,0-.17-.03-.27-.14l-.24-.1-.1.03-.03.54c-.44-.1-.75-.2-.89-.31l-.1-.1-.1-.2c-.07-.24-.1-.38-.1-.48,0-.2.03-.31.1-.31l.2.2.14-.03-.1-.14-.14-.17-.03-.07.1-.14.17.27.1-.1v-.1c-.1-.1-.17-.2-.17-.24l.07-.1.24.2.03-.17-.07-.07c.2-.14.38-.2.48-.2s.17,0,.2.03c.1.1.24.17.37.24.1.07.24.14.34.24-.03-.1-.1-.24-.24-.37l-.07-.03.07-.1-.51-.37-.07-.17.41-.1-.27-.07v-.1c.17-.03.27-.07.24-.07h.2l.03-.07s-.03-.07-.14-.1l.14-.1ZM1.46,5.51c0-.17.07-.24.2-.24.1,0,.17.07.24.24l.07.17c0,.14-.07.2-.24.2s-.27-.14-.27-.38M21.87,4.56l.07.61c.17.1.34.17.48.27.14.07.24.14.34.17.03.03.1.03.27.03h.2c-.1.44-.24.68-.44.75l-.51.24-.2.37c-.1.17-.31.27-.61.31l.1-.2.03-.2c0-.14-.07-.27-.17-.37l-.1-.07s-.14-.03-.31-.03c-.34,0-.51.2-.51.65,0,.24.14.58.37.95h-.07c-.24,0-.37-.1-.41-.34l-.03-.14h-.14l-.03.1-.2-.41s-.03-.14-.03-.31c0-.14.1-.37.27-.68l.24-.2c.1-.1.24-.17.48-.2v-.07l.41-.2-.31.03c-.1.03-.17.07-.2.1l-.14.03-.07-.1s.1-.07.24-.2c.2-.07.31-.17.34-.24l.65-.65ZM1.43,4.49c.24,0,.34.1.34.34,0,.1-.03.17-.14.17-.24,0-.38-.1-.38-.27s.07-.24.17-.24M2.18,4.39c.17.1.27.2.27.31,0,.17-.07.24-.2.24-.17,0-.27-.1-.27-.31,0-.1.07-.17.2-.24M11.6,5.78l-.17-.31-.58-.24c-.1-.03-.17-.17-.17-.37,0-.31.03-.48.1-.54.14-.17.44-.24.92-.24.92,0,1.4.44,1.4,1.36s-.44,1.36-1.36,1.36c-.03,0-.1-.03-.17-.14l.07-.07c.61,0,1.02-.34,1.19-1.02v-.07c0-.78-.34-1.16-1.05-1.16-.51,0-.78.17-.78.48,0,.1.03.17.1.2.27.1.48.17.58.2.1.03.17.17.17.41,0,.54-.24.82-.71.82-.1,0-.2-.03-.24-.07l-.58-.58-.2-.14-.07-.1.38.07.34.41c.03.07.14.1.37.1.2,0,.37-.14.48-.37M2.18,3.78c.24,0,.34.1.34.27,0,.14-.03.2-.14.2-.24,0-.37-.1-.37-.34,0-.14.07-.17.17-.14M1.46,3.67c.24,0,.34.1.34.31,0,.17-.03.27-.14.27-.24,0-.34-.1-.34-.31l.03-.07c.03-.1.07-.17.1-.2M24.69,5.82c.51-.31.75-.72.75-1.29,0-.17,0-.27-.03-.34l-.1-.61.14.1c.17.14.27.31.27.54v.24c-.03.17-.07.41-.1.71l.1.03.03-.1.14-.61c.07.27.1.51.1.71,0,.99-.37,1.87-1.12,2.65l-.37.34-.41.34.17.07.1-.07-.07.03.61-.48.34-.44.14-.03.51-.92c.14-.37.2-.65.2-.82l.03-.51c.1.1.14.2.14.38,0,.31-.07.61-.2.88l-.1.27-.17.48.2-.1.24-.54s.03.1.03.2c-.03.24-.14.51-.31.82l-.2.27-.1.27h.1l.17-.34h.17l-.31.72-.78.99v.41c-.03.1-.07.14-.17.14s-.2-.03-.34-.14c-.1-.1-.17-.24-.17-.41l.03-.07-.44.34c-.1.07-.27.17-.54.27l-.41.1h-.27c-.51.07-.92.37-1.16.92-.24-.17-.37-.37-.37-.61,0-.31.1-.54.34-.78l-.31-.2-.31-.27-.1-.17-.2-.31-.1-.31-.07-.1v-.34c.2.07.34.1.44.07h.54l.2-.14.41-.17.2-.24.14-.1.2-.17.41-.2.14-.1.2-.07h.14l.27.03.34-.03c-.2-.1-.37-.27-.48-.48-.03-.03-.03-.17-.03-.37,0-.1.07-.24.17-.41l.48.27.27-.07.24-.14ZM10.68,3.44l1.29.17.17.03.34.14c.1.03.2.14.34.27-1.22-.03-1.94-.24-2.14-.61M1.97,3.13c.14,0,.2.07.2.2l-.1.1c-.1,0-.17-.07-.17-.17l.07-.14ZM2.72,3.33c0,.14-.07.2-.17.2-.14,0-.2-.07-.2-.2,0-.17.03-.24.1-.24.17,0,.27.07.27.24M17.35,3.16v-.31l.24.07.07.2c-.07.31-.2.48-.44.58-.78.34-1.19.88-1.19,1.67v14.49l-.17,1.06-.48,1.39-.17.27c-.24.48-.41.71-.48.71h-.1s-.07-.03-.07-.14c0-.07.03-.17.1-.27.31-.44.51-.89.68-1.36.27-.92.41-1.57.41-1.97l-.07-14.45c0-.24.1-.51.31-.82.24-.34.44-.58.65-.68l.41-.2.31-.24ZM12.86,3.88c-.37-.2-.61-.31-.65-.31l-1.39-.27c-.1-.03-.17-.1-.17-.17,0-.17.2-.27.61-.24l.2.03c.41.03.88.03,1.39.07h2.62c.2,0,.34,0,.41-.03.44-.1.82-.14,1.12-.14.17,0,.27.07.27.2,0,.03-.27.24-.85.61-.65.41-.95,1.26-.92,2.55l.1,9.76v3.74l-.14.82c-.1.82-.44,1.63-1.02,2.48l-.07-.03-.07-.07-.2-.17-.31-.14-.2-.1c-.14-.24-.24-.44-.31-.61l.24-1.56.03-8.2-.03-1.23v-1.7c-.03-.07-.03-.17-.03-.27v-1.53c0-.17,0-.27.03-.34v-1.22l.03-.41c.03-.14.03-.27-.03-.41,0-.14-.07-.27-.1-.44l-.31-.41-.07-.03-.1-.14-.1-.1ZM3.94,2.72c.24,0,.38.1.38.31,0,.14-.07.2-.21.2-.17,0-.24-.07-.24-.24,0-.14.03-.24.07-.27M24.32,2.69l.17.07.17.1c.44.27.65.65.65,1.16v.27c-.03.14-.03.24-.07.34l-.17-.41-.03-.07-.03-.1-.07-.17-.07-.1c-.17-.17-.31-.41-.41-.68l-.07-.17-.07-.24ZM1.67,3.33c-.17-.31-.27-.44-.38-.44l-.34.03.07-.24.07-.03.1-.03c.27,0,.44.24.48.72M3.13,2.58c.24,0,.34.1.34.31l-.07.07-.14-.03c-.17-.03-.24-.1-.24-.24l.1-.1ZM4.66,2.38h.03c.24,0,.34.17.34.48,0,.14-.03.2-.14.2-.27,0-.41-.14-.41-.41,0-.14.07-.24.17-.27M15.51,2.11c.24,0,.34.1.34.27s-.07.24-.2.24c-.24,0-.34-.1-.34-.31,0-.14.07-.2.2-.2M3.54,2.01c.24,0,.37.14.37.37,0,.1-.03.17-.14.17-.24,0-.37-.1-.37-.34,0-.14.03-.2.14-.2M4.25,1.7h.03c.17,0,.24.07.24.24,0,.1-.07.14-.17.14-.17,0-.27-.07-.27-.24l.07-.07.1-.07ZM9.76,1.67v.37l-.03.37.14.51.07.27v.31l-.17.48-.07.24.44-.27.14-.03s.03.17.03.41v.03s-.07.17-.14.41-.27.48-.58.68c-.31.17-.61.27-.85.27-.1,0-.17-.03-.17-.1v-.1c-.1.03-.17.07-.2.17l-.1.03c.03-.17.1-.34.2-.48l-.07-.1.24-.51.07-.1.17-.24v-.17c-.1.03-.17.07-.2.1l-.17.27c-.07.07-.14.14-.17.24h-.07c.03-.24.1-.44.2-.68l-.14-.03.14-.82c.17-.41.31-.68.41-.82.17-.17.31-.31.44-.41.14-.1.27-.2.44-.31M5.03,1.63c.27,0,.41.17.41.48,0,.1-.03.17-.14.17-.31,0-.44-.14-.44-.41v-.03l.03-.07.14-.14ZM5.68,1.97l-.03-.14c0-.14.07-.2.2-.2.24,0,.34.1.34.34,0,.17-.07.24-.24.24-.1,0-.2-.07-.27-.24M16.43,1.46c.17,0,.24.1.24.27s-.07.24-.2.24c-.17,0-.27-.1-.27-.27l.03-.07c.03-.1.1-.17.2-.17M2.65,2.82c-.37-.17-.54-.44-.54-.82,0-.44.2-.65.61-.65.27,0,.41.17.41.54-.17-.1-.27-.14-.34-.14-.2,0-.31.1-.31.27v.1l.1.34.07.34ZM15.61,1.29c.24,0,.34.14.34.41,0,.14-.07.2-.17.2-.24,0-.37-.1-.37-.34l.03-.1c.03-.1.1-.14.17-.17M16.16,2.14c.24.17.41.24.54.24.24,0,.37-.1.41-.31l.03-.48.03-.07c.14-.17.34-.24.61-.24.31,0,.58.2.82.58h.1-.1l.14-.07c.17.24.27.44.27.58,0,.2-.03.34-.14.44l-.58.65v.1h.07s.14-.03.24-.1c.72-.58,1.36-.89,1.94-.89.07,0,.17,0,.27.03l.34.07.31.1c.1.03.14.07.14.1,0,.07-.03.1-.14.14l-.2.1-.17.1.03.07c.41.24.61.51.61.78s-.1.51-.31.71c-.24.2-.48.31-.75.31-.24,0-.41-.07-.51-.2l-.24-.31c-.1-.1-.2-.14-.37-.14-.31,0-.44.1-.44.34,0,.1.03.2.1.37-.31-.1-.48-.27-.48-.48,0-.37.2-.58.61-.58.27,0,.48.07.61.2l.51.44s.14.07.24.07c.34,0,.51-.17.51-.48,0-.1-.07-.27-.24-.51-.31-.24-.61-.34-.95-.34-.92,0-1.6.48-2.01,1.43l-.31.72-.54.71c-.1.1-.14.31-.14.68,0,.14.03.2.14.2s.17-.07.2-.17l.07-.75c0-.1.14-.27.44-.51h.07l.31-.24.03-.07.03.27c.03.17.07.27.07.24l-.03.1.07.07h.07s.07-.1.1-.2c.27-.1.55-.17.78-.2.17-.17.31-.27.34-.27.07,0,.1.17.1.48,0,.54-.14.95-.41,1.26l-.24.31-.2.27.27.03-.14.24-.72.75-.07.2-.14.31v.1c0,.17,0,.27.03.31l.1.37-.14-.03-.14-.24c-.14-.17-.2-.34-.2-.51s0-.31.03-.37l-.17.17c-.1,0-.14-.1-.14-.34v-.34l.17-.82.37-.44-.03.03-.07-.14c-.41.41-.61.88-.61,1.46,0,.31.07.58.17.85l.65,1.02-.03.31c-.34-.44-.58-.78-.71-1.02l-.17-.27-.31-.75-.1-.34-.14-.78c-.03-.07-.03-.17-.03-.34v-.92c.03-.2.03-.34.07-.44l.17-.61.07-.34s.14-.24.31-.58l.17-.31.27-.58.17-.24.14-.37c.03-.14.07-.31.07-.48s-.07-.37-.24-.61h-.24c-.17,0-.27.03-.31.14l-.1.41s-.07.07-.17.14l-.2.14-.1.03c-.17,0-.37-.1-.54-.27-.07-.03-.1-.07-.1-.17v-.03ZM6.5,1.87c.37-.41.72-.61,1.06-.61.68,0,1.02.31,1.02.95,0,.17-.1.31-.34.41l-.03-.37-.07-.14c-.17-.17-.31-.24-.44-.24-.37,0-.54.2-.54.58,0,.03.03.14.07.31l.65,1.22c.1.17.14.41.14.68,0,.78-.24,1.5-.78,2.14-.48.65-1.16,1.05-1.94,1.26l.03-.17c-.31.07-.54.1-.65.1h-.48v.14l-.41-.03-.34-.14h-.17c-.1,0-.27.07-.54.17-.44.24-.68.51-.68.82,0,.14.07.31.2.54l.27.14.48.03-.17.27c-.1.17-.31.24-.61.24h-.03l-.07-.03-.31-.14-.27-.14-.07-.2-.17-.27-.03-.14c0-.44.17-.75.54-.99l.03-.1.03-.07-.17-.07c-.1,0-.27-.07-.51-.17.24-.65.68-.99,1.33-.99.1,0,.41.07.85.2l.07.03c.51.1.82.17.99.17.24,0,.34-.07.34-.24,0-.1-.1-.17-.31-.17l-.88.03c-.1,0-.17-.03-.17-.1l.1-.14-.14-.14c-.2,0-.34-.07-.44-.2l-.27-.07-.03.07c.07.1.2.2.37.27h-.14c-.44-.2-.65-.48-.61-.85v-.31h.1c.14,0,.31.07.48.2l.14-.14v-.1l-.03-.03-.07-.17-.03-.1c-.03-.07-.03-.17-.03-.34,0-.24,0-.37.03-.44v-.1c.1-.17.14-.31.14-.48l-.03-.2c0-.14,0-.24-.03-.34.31.03.58.14.82.31.07.03.14.1.24.27s.17.24.24.24l.17-.07v-.48l.1-.1.27.07.2.2.24.2.51.95.2.14.07.1.14.14.37.03c.03-.17.07-.27.07-.24,0-.1-.07-.17-.2-.27l-.44-.27-.31-.37-.03-.03-.14-.27-.03-.44-.03-.24c0-.1.03-.24.14-.41l.1-.17.07-.03.07-.07c-.07,0,.14.1.58.34l-.07.03.07-.03.07-.44.14-.41ZM1.39,1.29l.1-.03c.1,0,.17.03.17.1,0,.03-.03.14-.07.27-.03.1-.07.17-.07.2,0,.24.07.44.24.61.17.17.24.27.24.31l-.03.07c-.07,0-.14-.03-.24-.14-.1-.1-.17-.2-.24-.31-.1-.14-.17-.27-.2-.41-.07-.14-.1-.24-.1-.31,0-.17.07-.31.2-.37M11.53,2.45c-.17.17-.31.24-.44.24-.41,0-.61-.24-.61-.75,0-.58.37-.85,1.09-.85l.07.03.44.17.17.07.44.54.17.14c.17.03.31.07.41.07.17,0,.31-.03.34-.1l.17-.58c.07-.17.17-.24.31-.2l.78.1c.14,0,.24.17.31.54l-.85-.37c-.1,0-.2.03-.24.07-.03.1-.07.24-.07.34-.03.1-.03.2-.07.31-.34.2-.61.31-.82.31s-.38-.1-.55-.31l-.51-.58c-.17-.17-.41-.27-.65-.27-.41,0-.61.2-.61.58,0,.31.24.48.71.51M19.45,1.33h-.2l-.1-.03c0-.17.1-.24.34-.24.31,0,.48.17.48.48,0,.14-.1.27-.31.44l-.41.31c.07-.2.17-.37.34-.54v-.1c0-.1-.03-.2-.14-.31M24.97,1.12l.24-.14.03-.03h.07l.27.07c.24.07.37.27.41.61-.03.24-.17.48-.37.68.2.17.31.31.31.34-.07.07-.27.1-.58.14h-.1c-.17,0-.31-.03-.44-.1l-.72-.34-.71-.2c-.07,0-.14.07-.17.17.88.31,1.33.92,1.33,1.8,0,.31-.03.44-.1.44l-.34-.17-.2.37c-.1.24-.31.34-.68.34-.31,0-.58-.2-.82-.58-.03-.07-.03-.2-.03-.37,0-.1.1-.31.31-.54v.31c-.03.34.1.51.44.54.34-.14.51-.37.51-.68s-.07-.51-.24-.68c-.37-.51-.78-.75-1.26-.75l-1.16.03-.68.03-.99.31-.03-.1s.2-.2.65-.48c.58-.37,1.26-.54,2.08-.54.48,0,.88.03,1.19.1l1.29.37.48-.03c.31-.14.48-.31.48-.48,0-.07-.03-.17-.1-.31l-.34-.14ZM.82,26.39h25.54V.85H.82v25.54ZM.41.41h26.39v26.39H.41V.41ZM0,27.21h27.21V0H0v27.21Z" fill="#231f20"/>
    </g>
  </g>
</svg>