<?xml version="1.0" encoding="UTF-8"?>
<svg id="Layer_1" xmlns="http://www.w3.org/2000/svg" width="27.21" height="27.21" xmlns:xlink="http://www.w3.org/1999/xlink" viewBox="0 0 27.21 27.21">
  <defs>
    <clipPath id="clippath">
      <rect width="27.21" height="27.21" fill="none"/>
    </clipPath>
    <clipPath id="clippath-1">
      <rect y="0" width="27.21" height="27.21" fill="none"/>
    </clipPath>
  </defs>
  <g clip-path="url(#clippath)">
    <g clip-path="url(#clippath-1)">
      <path d="M13.84,24.11c.14.1.2.17.2.2,0,.34-.41.48-1.19.44l-.24-.03-.85-.1-3.47-.07-1.5.14-.68-.03c-.44,0-.68-.14-.75-.41.37.1.71.17.95.17l3.1-.1,1.09.03c.1,0,.31,0,.65.03.27.03.68.07,1.19.1h.51c.48,0,.82-.14.99-.37M10.58,21.63v-8.16c0-.2.2-.31.65-.27h.2l-.07.24c-.34.03-.51.2-.51.48v8.3l.1.65-.17-.27c-.14-.27-.2-.58-.2-.95M12.89,13.23h4.86c.31,0,.61.1.85.27l-5.75-.03.03-.24ZM20.2,9.73c.17.1.27.24.27.41v.27l.03,1.12-.03.34-.07,1.02.03,1.02-.03.27.07,1.77c0,.17-.07.27-.24.27l-.17-.03.03-.03.1-.37-.07-3.5.07-1.12v-1.43ZM19.32,11.33c.1-.14.14-.27.2-.37,0-.1.03-.2.07-.31.1-.68.2-1.02.34-1.02.17.03.2.2.17.48l-.03.71v1.06l-.1,1.22.1,2.82-.17.24c-.2-.2-.34-.48-.37-.85-.1-1.46-.61-2.18-1.6-2.18l-5-.07c.31-.75.61-1.09.85-1.05l2.82.07,1.02-.03.31.03c.1,0,.31-.03.51-.1.27-.03.44-.14.61-.24l.27-.41ZM9.05,10.58c.38-.37.85-.78,1.4-1.16v2.31c-.03.1.03.2.2.27l1.46.03c-.1.1-.17.2-.2.31-.2.44-.34.65-.41.65l-.71.07c-.2.03-.34.2-.37.58v.72l-.03,4.15v.92l-.03,1.36v.24c0,.85.2,1.57.65,2.14l.14.1c.34.24.65.41.88.44l1.53.24.03.03.07.03v.1c0,.17-.24.24-.75.24l-3.5-.2s-.27,0-.75.03l-2.11.1h-.31c-.58.03-.88-.03-.88-.2,0-.24.24-.34.68-.34.58,0,1.12-.14,1.6-.44.51-.31.75-.65.75-1.02l.14-9.39-.03-.95c0-.14,0-.2-.03-.24v-.14c0-.17.03-.27.07-.31l.17-.2.17-.2.2-.27ZM10.82,9.15l.03,2.72-.24-.07v-.92l-.03-.51.03-.37-.03-.65c0-.1.07-.17.24-.2M15.68,4.08c.03-.17.1-.24.2-.24l.85.03h.37l.44-.03h.24c.65,0,1.26.1,1.84.27l-3.94-.03ZM10.65,8.37l-.03-.38.07-1.94c.03-.31.03-.58.03-.82v-1.09c.07-.24.24-.37.51-.37l3.33.03c0,.2-.07.27-.2.24h-.44c-.14-.03-.27-.03-.44-.03h-1.9c-.31,0-.51.03-.61.14-.07.07-.1.27-.1.58l.03.58v1.09c-.03.17-.03.34-.03.51v.82l.1.38c0,.1-.1.17-.31.27M21.29,2.76l.24.07.03.54.61,1.56c.17.38.24.85.24,1.36,0,.34-.17.61-.48.78l-.14-.27c.2-.14.31-.31.31-.51v-.44c-.03-.1-.03-.2-.07-.34-.03-.07-.03-.17-.07-.27l-.14-.51-.1-.27-.1-.2-.17-.51c-.14-.31-.2-.51-.2-.65l.03-.34ZM16.77,2.69l4.15.07h.24v.65l.58,1.46c.03.1.1.24.14.44.03.17.1.41.14.71v.27c0,.27-.1.41-.27.41-.1,0-.2-.2-.34-.58-.14-.41-.2-.61-.24-.65l-.44-.68c-.75-.68-1.5-1.02-2.24-1.02l-2.35-.03-.24-.03.34-.48.54-.54ZM7.92,3.71l-.58-.24-1.67-.44c-.24-.07-.37-.17-.37-.31,0-.1.1-.17.27-.17l1.36.03.34.03.27-.07,2.28.07,3.67.03h1.56l-.44,1.02-3.47-.03c-.44,0-.68.41-.68,1.26v2.89c0,.1,0,.24.03.34l.03.17-.07.17-.92.61-.99.92-.03.03-.07-.07-.03-.07.07-.48v-.37l.03-1.33v-2.14c.03-.27,0-.55-.03-.75-.03-.27-.1-.48-.2-.71l-.37-.41Z" fill="#a91e22"/>
    </g>
  </g>
</svg>