<?xml version="1.0" encoding="UTF-8"?>
<svg id="Layer_1" xmlns="http://www.w3.org/2000/svg" width="27.21" height="27.21" xmlns:xlink="http://www.w3.org/1999/xlink" viewBox="0 0 27.21 27.21">
  <defs>
    <clipPath id="clippath">
      <rect width="27.21" height="27.21" fill="none"/>
    </clipPath>
    <clipPath id="clippath-1">
      <rect y="0" width="27.21" height="27.21" fill="none"/>
    </clipPath>
  </defs>
  <g clip-path="url(#clippath)">
    <g clip-path="url(#clippath-1)">
      <path d="M25.41,23.64l-.1.17-.44.68-.03.14-.03.07.1.1.07-.07.1-.24.17-.31.17-.54ZM24.76,23.57v-.14c-.24.24-.41.37-.51.37l.03.07.07.07c.07,0,.2-.14.41-.37M24.93,23.03l-.1-.03-.34.34c-.07.07-.2.14-.41.17l.07.1c.31-.1.58-.27.82-.51l-.03-.07ZM13.2,22.96l-.31-.17.48-.07-.17.24ZM4.93,22.86l.17.07h.03c.07,0,.1-.1.1-.31,0,.03-.1.07-.27.07s-.27.07-.27.21l.07.07h.1l.07-.1ZM13.4,22.41l-.31.07-.48-.03-.07.07c0,.07.14.1.41.1.2,0,.38-.03.48-.1l-.03-.1ZM4.83,22.65c.24-.03.34-.17.34-.41,0,.1-.07.14-.17.14s-.17.03-.24.1l.07.17ZM25.51,22.28l.07.2.14-.37-.2.17ZM11.84,22.28l-.2-.1.07.17.34.41-.03-.27-.17-.2ZM4.69,22.14l-.1-.03-.14.44-.14.51-.07.07c.03.17.07.24.1.27.1-.03.14-.14.14-.31v-.03c0-.14.03-.34.14-.65v-.07l.07-.2ZM11.73,22.75s-.03-.03-.17-.24-.24-.37-.27-.48h-.14l.14.34c.03.14.17.31.41.55.03.07.14.14.27.17.03,0,0-.03-.1-.17-.1-.07-.14-.14-.14-.17M4.11,22.07l-.17-.1-.03-.03.07.2.07.14h.17l-.1-.2ZM4.28,22.01l-.2-.27h.1l.2.1-.1.17ZM14.28,20.88l-.03-.1-.1.07-.03.03c-.03.17-.07.27-.07.24v.37l.17.03-.07-.37.14-.27ZM20.03,19.18l-.1-.03-.24.1-.65.44.2-.03.41-.24c.14-.07.27-.14.37-.24M11.39,18.33c.17-.03.24-.07.24-.1l.03.27-.27-.17ZM11.43,17.92l.14.03c0,.14-.1.2-.27.2l-.07-.07v-.03l.03-.03v-.03s.03-.03.17-.07M11.22,17.69l.1-.03v.14l-.2.17h-.03l-.03-.14s.1-.03.17-.14M7.65,17.86h.07l.24-.14.27-.1.07-.07h.27l.03-.07-.07-.1c-.41,0-.61,0-.58-.03l-.31.51ZM10.95,17.38l-.03-.07-.1.03-.03.17-.17.17.07.07v.03c.24-.24.31-.37.27-.41M18.2,17.18l-.82.2.07.1.68-.17.31.03.03-.07s.07-.14.1-.24l-.37.14ZM15.68,17.38l-.34-.34.07.31.27.03ZM15.78,16.8h-.14l.03.38.41.1-.17-.07c-.1-.07-.17-.14-.17-.2l.03-.2ZM17.07,15.51l-.48.03c-.14-.03-.34.07-.65.31-.1.1-.24.2-.44.31l.1.07.27-.24,1.19-.48ZM7.35,15.58l.03.1c.44.17.88.27,1.29.31l-1.33-.41ZM19.28,15.51l.17-.27-.58.34-.82.17s-.14.07-.24.1l.1.1.17-.03.37-.1.31-.03.51-.27ZM7.69,15.37l.03.1.75.17-.03-.31-.75.03ZM18.81,15.2l-.65.31h.31c.07,0,.24-.07.48-.2l.17-.58-.31.48ZM15.27,14.86l-.54.99.41-.41.14-.58ZM17.31,14.52l-.17.07-.34.07-.34-.07.03.2.07.03s.2,0,.44-.07l.31-.1v-.14ZM16.5,14.25l.07.14.34-.03.1.03s.07-.03.1-.14l-.14-.03-.48.03ZM12.01,14.05l-.1-.14-.17.31v.27h.1l-.07.03.1-.03.14-.44ZM11.77,13.71h-.14l-.07.17-.17.27-.03.48v.17s.14-.41.41-1.09M8.16,13.5l.1-.1.03.03.07.1c-.07.1-.1.14-.1.1l-.1-.1v-.03ZM8.03,13.23l.2-.03-.2-.14v.17ZM10.2,13.3c-.07,0-.21-.03-.34-.1-.2-.07-.31-.14-.34-.17l-.07.07v.03c0,.1.24.2.72.27l.03-.1ZM14.69,12.96c.07.17.14.24.17.24l.54-.1-.71-.14ZM9.86,12.82l.03.14c.17.03.27.07.31.07h.61s-.1-.07-.31-.1c-.2-.03-.31-.07-.34-.1h-.31ZM14.73,12.48l.17.31c.17.1.41.1.75.03l-.2-.07c-.07-.03-.14-.03-.24-.07l-.48-.2ZM12.69,12.28c-.1.03.03.1.34.2l.37-.17-.72-.03ZM12.62,11.9c.1.17.24.24.38.27l.44-.07-.31-.03-.31-.07-.2-.1ZM16.73,11.53l-.41.71-.34.34-.14.17.17-.03.44-.44.17-.37.41-.58-.31.2ZM16.39,12.69l.1-.03c.17-.17.27-.31.37-.41.07-.14.14-.31.17-.51l-.65.95ZM14.42,11.73l-.51.95c-.1.03-.14.07-.14.1l.1.1.27-.27.17-.34.14-.24c.07-.1.1-.17.1-.24l-.03-.03-.1-.03ZM14.73,11.22l-.2.2.03.1.17-.03v-.27ZM15.92,11.12v-.48l-.2.54-.54.48v.03l.1.07.03-.07.2-.14c.1-.07.17-.14.27-.2.07-.1.1-.17.14-.24M14.97,10.88h-.14l-.1.07.1.07h.1l.03-.14ZM11.16,10.71l-.24-.14-.03.1c-.07.31-.1.54-.1.72,0,.27.07.41.2.41.24,0,.37-.17.37-.51,0-.17-.1-.34-.31-.44.07.03.14.1.24.24,0-.17-.03-.27-.14-.37M14.86,10.61l.1.1.1-.1-.03-.14-.17.14ZM15.14,10l-.07.17-.07.1.1.03c.1-.03.2-.07.24-.17l-.2-.14ZM12.65,9.25l-.2.48-.2.68-.1.48-.03.14.24-.37s.1-.24.17-.54l.14-.85ZM2.48,9.22l-.31-.03c.03.17.07.24.17.24s.2-.17.31-.51l-.17.31ZM1.57,8.4l.24-.24c-.14,0-.2.03-.2.1l-.34-.07.31.2ZM1.63,8.03h-.41l-.07.03c.24-.1.34-.14.34-.1.07-.1.14-.17.14-.2l.1-.17-.1.44ZM17.89,7.96l.1.1.61-.1h-.71ZM9.08,7.65h.24c.17-.03.31-.03.41,0,0,.03-.1.03-.27.1-.17,0-.27.03-.24.07l-.48-.07.34-.1ZM9.49,7.38h-.27l-.1-.03-.14.14h.34c-.14,0-.03-.03.27-.1h-.1ZM7.62,7.31l.31-.07-.31-.07-.17-.17.17.31ZM8.57,7.72l.17-.44c.03-.1.07-.2.1-.27l.03-.27-.17.2-.03.2c-.03.1-.14.27-.31.44l.2.14ZM8.98,5.92l-.2-.03.1-.14.14-.1-.03.27ZM8.88,6.43h.24v.17l-.17.03-.07-.2ZM18.88,5.82l-.14.07.17.1.07-.03-.1-.14ZM9.08,6.29l-.24-.1.17-.14.07.24ZM19.22,5.71l-.03.14h.1l.07-.03-.1-.1h-.03ZM19.56,5.65v.14l.17.03v-.27l-.17.1ZM11.46,5.58l-.24.03-.2.17-.34.31-.1.34c.07-.1.14-.17.2-.24.07-.1.14-.17.24-.2l.44-.41ZM20.31,5.44l-.31.17c.03.07.07.1.17.1.14-.1.2-.17.2-.2l-.07-.07ZM7.41,5.31l-.1,1.09c.1-.03.17-.27.27-.71l-.03.1c.03-.17-.03-.31-.14-.48M20.95,4.32l-.03.31-.14.27c.1-.03.14-.03.14,0s.03-.07.1-.31c.03-.14,0-.24-.07-.27M21.36,4.39l-.1.31c-.07.03-.1.14-.1.24,0-.03.1-.1.27-.2,0-.1-.03-.2-.07-.34M1.77,4.56h-.1l-.07.07.1.07h.07l.07-.14h-.07ZM1.87,4.05l-.17.1-.07.1.07.1h.2l-.03-.31ZM2.92,4.12l-.07.14h.03c.1,0,.17-.03.2-.1.03-.1.03-.17.03-.2l-.2.17ZM24.97,4.08l-.14.24-.17.03.07.1.1.03c.2-.14.34-.24.37-.27v-.07h-.1l-.14-.07ZM23.09,2.82v.1c.24.03.44.17.61.37l.1-.07-.1-.17-.14-.1-.48-.14ZM13.57,25.27l.51-.03h.03c.1,0,.2.03.24.14.03.07.24.24.54.51l.07.1.14.14c-.07.03-.2.03-.41.03-.24,0-.48-.14-.71-.44l-.17-.17-.24-.27ZM4.83,25.17c.1,0,.14.07.14.17v.03l-.03.03h-.07c-.1,0-.14-.03-.14-.14l.1-.1ZM24.42,26.09l-.34.07c-.2,0-.31-.14-.31-.41,0-.1.03-.21.1-.31l.2-.27-.07.65c0,.1.14.17.41.27M12.21,26.09c-.2-.1-.31-.24-.31-.44,0-.34.17-.51.51-.51.31,0,.61.1.92.31l.65.41.24.2v.14c-.1-.03-.17-.1-.2-.14l-.17-.1c-.58-.38-.99-.58-1.23-.58-.31,0-.44.14-.44.38,0,.17,0,.31.03.34M5.27,25.1l.03-.03c.1,0,.14.03.14.1,0,.1-.03.14-.14.14-.07,0-.1-.03-.1-.14l.07-.07ZM16.12,26.09c-.27-.1-.41-.24-.41-.44,0-.48.27-.71.85-.71.27,0,.54.07.82.2l1.12.58.99.2.44.14c-.17.07-.31.1-.37.1-.51,0-.99-.1-1.43-.31-.85-.41-1.39-.61-1.63-.61-.31,0-.48.14-.48.41,0,.14.03.27.1.44M4.93,24.9v-.07l.14-.1c.1,0,.14.03.14.14s-.07.17-.17.17c-.07,0-.1-.03-.1-.14M8.4,25.37l.65-.48c.17-.17.41-.24.78-.24.68,0,1.02.24,1.02.71,0,.2-.03.34-.14.41l-.24.2.07-.51v-.03l-.03-.1c-.17-.2-.37-.31-.61-.31-.31,0-.65.07-.99.2-.48.24-.75.41-.82.48-.1.07-.17.1-.24.1-.1,0-.14-.03-.14-.1l.68-.34ZM18.06,24.49c.85.92,1.91,1.39,3.16,1.39.38,0,.72-.07,1.02-.17l.82-.38.71-.44.68-.58-.1.41-.24.2-.37.27c-.78.58-1.63.88-2.52.88-1.39,0-2.55-.51-3.43-1.53l.27-.07ZM7.28,25.58c.58-.31.95-.54,1.09-.71l.37-.51.07-.07h.07c.1,0,.17.03.17.14s-.03.14-.1.17l-.17.17-.34.37-.54.37c-.1.1-.17.14-.27.14l-.34-.07ZM2.38,24.15c.37.31.61.44.78.44l.17-.03s.1,0,.2-.03c-.14.2-.27.31-.37.31-.2,0-.48-.24-.78-.68M14.28,25.03h-.37l-.85-.07h-.41l-.24-.07c-.07,0-.37-.03-.95-.1-.1-.03-.24-.03-.37-.07-.14-.03-.27-.07-.44-.1l-.61-.2c-.27-.1-.41-.14-.41-.17l-.03-.1.92.2,1.33.27,1.02.14h1.36l.07.27ZM3.1,23.98h.03c.1,0,.17.07.17.17,0,.07-.07.1-.17.1h-.03l-.03-.07-.07-.07.07-.07.03-.07ZM23.26,25.03c-.31.2-.58.31-.78.31-.54,0-.82-.24-.82-.75,0-.58.27-.85.78-.85.2,0,.31.07.34.24-.44.03-.65.2-.65.51,0,.17.07.34.24.41.14.14.24.17.34.17.17,0,.34-.03.51-.14l.03.1ZM7.59,24.35c-.07-.14-.1-.27-.1-.37,0-.17.14-.24.37-.24.37,0,.54.17.54.51,0,.44-.34.82-1.05,1.09.58-.27.85-.61.85-.99,0-.24-.07-.34-.24-.34s-.27.1-.37.34M18.71,24.56c0-.44.17-.68.51-.68.31,0,.51.14.61.37l.34.78c.03.07.14.1.34.1.34,0,.51-.07.51-.24,0-.07-.24-.14-.75-.24-.17-.03-.24-.17-.24-.48,0-.44.17-.68.48-.68.1,0,.14,0,.17.03h.2l-.48.2c-.14.17-.2.31-.2.41,0,.24.1.34.34.37l.44.07c.14.03.2.14.2.24,0,.31-.2.48-.61.48-.37,0-.61-.1-.68-.34l-.24-.61c-.07-.2-.2-.31-.44-.31-.2,0-.37.17-.51.51M3.2,23.54l.03.07c0,.1-.07.17-.24.17-.1,0-.17-.07-.17-.17s.07-.17.17-.17l.2.1ZM21.84,23.3l.2.07.03.03c0,.14-.07.2-.2.2-.1,0-.17-.07-.17-.17,0-.07.03-.1.14-.14M1.33,23.26l.1.24.1.31.48,1.12c.07.2.1.37.1.54,0,.44-.2.65-.58.65-.14,0-.27-.1-.41-.27.48,0,.72-.14.72-.44v-.17s-.03-.1-.07-.2l-.24-.78-.21-.99ZM21.19,23.5c-.17-.07-.24-.14-.24-.24s.07-.17.2-.17l.07.03.03.03.07.03c0,.1-.03.2-.14.31M22.28,23.13l.1-.1.03-.03c.17,0,.24.07.24.17,0,.17-.07.24-.24.24-.1,0-.14-.07-.14-.24v-.03ZM15.58,26.09l-.2.03-.14-.14-.31-.27c-.44-.38-.65-.85-.65-1.43,0-.85.37-1.29,1.09-1.29.2,0,.34.07.37.2l.03.31-.51-.14-.07-.03c-.07,0-.14.03-.24.1-.31.17-.48.44-.48.82,0,.54.37,1.16,1.09,1.84M21.6,22.69c.17,0,.27.07.27.21s-.07.2-.24.2-.24-.07-.24-.2v-.07c.03-.1.1-.14.2-.14M21.22,22.31c.1,0,.17.07.17.17s-.07.17-.17.17c-.07,0-.1-.07-.1-.17v-.07l.1-.1ZM21.7,21.97h.03c.17,0,.27.07.27.24,0,.14-.07.2-.2.2-.17,0-.24-.07-.24-.24,0-.1.03-.17.14-.2M15.85,22.72c-.14-.1-.2-.17-.2-.27,0-.48.17-.71.51-.71.54,0,.82.41.82,1.19v.14l-.24-.48-.1-.2c-.07-.14-.24-.2-.48-.2s-.34.17-.31.51v.03ZM17.58,22.86l.03-.44c.1-.78.37-1.16.85-1.16.31,0,.44.1.44.31,0,.14-.07.31-.17.48l-.07-.1c-.14-.17-.27-.27-.41-.27-.37,0-.54.37-.58,1.12l-.1.07ZM21.73,20.88c.1.1.17.17.17.2,0,.07-.03.14-.14.24l-1.53,1.53c-.1.1-.2.2-.31.27-.14.1-.27.17-.44.27l-1.23.65c-.17,0-.51.14-1.09.44-.03.03-.2.07-.51.14-.31.03-.71.14-1.23.24-.1.03-.2.03-.27.03-.1.03-.17.03-.24.03l-.1-.03-.07-.14.41-.07.34-.03,1.02-.27c2.14-.51,3.81-1.57,4.93-3.13l.27-.37ZM1.63,20.92c.03.34.2.51.51.54-.03.17-.1.24-.2.24-.24,0-.34-.17-.34-.48,0-.17,0-.27.03-.31M6.7,20.61c1.94,2.28,4.32,3.43,7.11,3.4h.31l.03.65h-.75c-.68.03-1.4-.03-2.11-.17-.75-.17-1.53-.37-2.31-.68-1.53-.61-2.72-1.36-3.54-2.24l.17-.41c.1-.1.17-.2.24-.24.07-.03.24-.14.51-.31h.34ZM6.9,20.68v-.1l.2.07.03.03c.2.24.38.48.51.71-.1-.03-.2-.1-.27-.2l-.31-.31-.14-.17-.03-.03ZM14.66,23.91h.24c2.04.03,3.95-1.19,5.68-3.6.48.07.85.24,1.09.51-1.94,2.38-4.25,3.64-6.97,3.74l-.03-.37v-.27ZM14.73,20.24c.2.17.31.31.31.41,0,.17,0,.27-.03.31l.1.1.1-.03c.24-.37.54-.54.95-.54.54,0,.82.24.82.68,0,.1-.03.17-.14.17l-.51-.2h-.07c-.31,0-.58.2-.78.61l-.48.99-.07.07-.1.14c-.24.24-.44.37-.61.34-.17,0-.37-.03-.61-.1l.1.58-.24-.03-.58-.03-.14-.37h-.2l-.31.14-.1.03c-.51,0-.99-.54-1.36-1.6l-.1-.17c-.24-.24-.54-.37-.85-.37h-.07c.14-.44.38-.68.75-.68l.07.03.58.27.1-.34c.03-.1.1-.17.2-.17.14,0,.27.14.37.41l.37.99.34.37c.07.03.17.03.27.03h.27c.44,0,.68-.14.68-.44v-.68l.1-.37c.24-.24.48-.37.78-.41l.07-.1ZM4.69,21.36l.24-.41.68-.54c.24-.17.61-.27,1.09-.27.82,0,1.46.24,1.97.71.51.48.75,1.12.78,1.9l-.2-.1c-.37-1.5-1.22-2.24-2.48-2.24-.44,0-.85.14-1.12.44-.34.31-.48.65-.48,1.05v.07c.48.03.71.31.71.75l.07,1.19.17.41c.2.24.37.37.48.37.17,0,.24-.07.24-.2v-.17l-.1-.07c-.31-.27-.48-.51-.48-.68,0-.34.17-.51.51-.51.24,0,.41.14.44.37l-.03-.1-.24-.03c-.2,0-.31.07-.31.24v.07l.03.03.51.65.07.17c0,.37-.27.54-.78.54-.31,0-.54-.14-.68-.44l-.14-.03-.07.41c-.24-.14-.34-.24-.34-.34l.1-.1.03-.48c0-.1-.03-.24-.1-.34l.03-.31-.1-.31s-.07-.03-.17-.03c-.07,0-.1.03-.1.14v.07l.24.51.03.48v.07c0,.1-.03.14-.1.14l-.07-.03h-.03l-.07-.1-.24-.03c.03.07.03.17.03.34,0,.27-.17.51-.55.71-.17-.27-.27-.48-.31-.61-.07-.1-.1-.24-.1-.37v-.27l-.27.03-.03-.34c-.03-.1-.03-.24-.03-.34v-.1l.1-.17.07-.24.24-.24.03-.2h-.07c-.1,0-.2.07-.24.17-.14.27-.31.41-.54.44h-.34c-.14,0-.2-.03-.2-.07,0-.1.1-.24.27-.41-.44-.1-.65-.27-.65-.58,0-.14.14-.27.37-.37l.14.41c.14.07.27.1.37.1.07,0,.2-.1.41-.31.14-.17.24-.27.31-.34l.1-.1c.1-.07.2-.1.31-.1s.27.14.48.41l.1-.34ZM19.28,20.03l.37-.1s.14-.03.24-.03c.51,0,1.05.14,1.53.37.55.24.85.54.99.85l.17.44s.03.17.03.48c0,.54-.14.78-.37.75h-.1l.03-.27.14-.37s.03-.1.03-.2c0-.24-.17-.65-.48-1.16l-.51-.37c-.58-.2-.99-.31-1.29-.27h-.78v-.1ZM8.91,20.37c.1-.34.24-.51.48-.51.34,0,.51.14.51.44l-.03.03-.03.17c-.14-.2-.27-.31-.37-.31-.2,0-.31.14-.31.44,0,.17.03.41.14.65-.17-.24-.31-.54-.37-.92M10.95,20.14c0-.38.14-.58.41-.58.24,0,.48.17.68.51.17.37.27.78.24,1.22v.17l-.03-.14c-.24-.92-.54-1.39-.85-1.39-.14,0-.24.1-.34.31l-.1-.1ZM10.03,19.49h.07c.17,0,.27.1.27.27s-.1.27-.31.27c-.14,0-.2-.1-.2-.27,0-.14.07-.24.17-.27M10.92,19.56c0,.1-.07.17-.2.17-.1,0-.17-.07-.17-.17,0-.14.03-.2.1-.2.17,0,.27.07.27.2M2.11,19.32l.03.34-.07.65.14.34c.1.27.34.41.71.41.1,0,.2-.03.31-.1.31-.17.48-.34.48-.51s-.07-.24-.17-.24-.17,0-.2.03l-.1.03c-.27,0-.41-.1-.41-.34,0-.1.07-.2.2-.31v.14s.07.1.17.14h.27c.41-.04.61.17.61.54,0,.61-.34.92-1.02.92-.31,0-.61-.1-.82-.34-.27-.24-.37-.51-.37-.82,0-.2.07-.51.24-.88M13.27,19.45l.03-.2.03.03-.03.2-.07-.03h.03ZM17.24,19.32c.1-.17.2-.24.37-.24.34,0,.51.2.51.58,0,.24-.2.68-.65,1.33l-.2.31.1-.34.27-.99.03-.14c0-.24-.14-.41-.44-.51M11.26,19.15c0,.1-.07.17-.17.17s-.17-.03-.17-.14v-.03c.03-.1.1-.17.2-.17s.14.07.14.17M10.58,18.81c.14,0,.2.07.2.2,0,.1-.07.14-.17.14h-.07c-.07-.03-.1-.1-.1-.2s.03-.14.14-.14M1.57,23.5c-.27-.68-.41-1.29-.41-1.87,0-.54.07-1.02.17-1.43l.31-.92c.14-.34.27-.51.41-.51l.07.17c-.03.17-.1.31-.17.44s-.14.27-.17.41l-.24.92c-.07.2-.1.41-.1.65v.1c.04.51.07.85.1.99l.1.31.17.65c.34,1.26,1.26,1.97,2.76,2.21l.44.07h.34l.31-.34,1.09-.14.34-.17c-.03.14-.1.27-.27.41-.14.1-.24.17-.34.2-.31.03-.44.07-.44.14l.07.07c.1,0,.14,0,.17-.03l.24-.03h.78c.1.03.17.1.27.14l.17.17c-.1-.03-.2-.03-.27-.03l-.17-.03s-.14.03-.31.03c-.17.07-.37.1-.65.14-.07.03-.2.03-.37.03s-.31-.07-.48-.24c-.03-.1-.07-.1-.17-.07h-.2l-.14.03c-1.33,0-2.41-.72-3.2-2.11l-.2-.34ZM9.93,18.64h.03c.17,0,.27.07.27.2s-.07.2-.2.2c-.1,0-.17-.07-.17-.17l.03-.07.03-.17ZM15.65,18.3c.03.1.07.14.14.14h.31c.2-.03.41.07.58.31.2.24.31.44.31.68,0,.17-.07.37-.2.58-.14.17-.31.27-.48.27-.1,0-.2-.03-.37-.14.31-.2.48-.41.48-.65,0-.1-.03-.17-.1-.2l-.24-.27-.1-.1-.14-.03c-.75,0-1.22.24-1.43.71-.14.37-.24.58-.24.61-.07.07-.14.14-.27.17.03-.17.07-.31.1-.44l.14-.44.17-.34c.31-.51.75-.75,1.33-.75l.03-.1ZM20.41,18.26s.03.17.03.34l-.03.17c-.07.37-.27.65-.61.85l-.71.38-.07.07v.07c0,.1.03.14.1.17h.07c.44.1.68.31.68.54,0,.14-.03.2-.14.2l-.27-.1-.07-.03s-.14.03-.27.03c-.17.07-.27.07-.34.07h-.03c-.1-.03-.2-.07-.24-.1l.03-.27-.27.14c-.48.24-.75.95-.85,2.14l-.31.14v-.48c-.03-.58.27-1.26.85-2.04l.2-.24.48-.31-.07-.34c0-.14.17-.27.48-.41l.85-.41c.17-.1.34-.27.51-.58M23.84,18.13l.24.27.2.2c.31.37.48.78.48,1.19,0,.07-.03.2-.07.44-.1.2-.17.34-.27.37l-.68.27v-.14l.1-.2-.1-.03-.34.07c-.27,0-.41-.17-.41-.51,0-.1.1-.31.27-.54l.58-.37-.03.34-.37.24-.1.17c0,.17.1.27.31.27.51,0,.75-.27.71-.85v-.31l-.17-.37-.34-.37v-.14ZM24.08,17.62c1.29.99,1.94,2.28,1.94,3.84,0,.88-.1,1.63-.31,2.28-.1.37-.2.68-.24.95-.03.24-.07.48-.1.65v.03c0,.24.1.38.31.38l.2-.03c-.07.31-.2.48-.37.48-.37,0-.58-.34-.61-.99l-.41.37-.07-.34v-.1c-.03-.24.17-.65.61-1.22l.07-.17c.27-.31.41-.51.41-.65,0-.1-.03-.14-.14-.14l-.03.03-.51.82c-.17.31-.51.48-.95.48-.34,0-.51-.07-.51-.2l.07-.1.24-.1.03-.07s-.1-.1-.31-.2c-.1-.03-.17-.2-.17-.48,0-.41.1-.65.31-.68l.54-.14c.1-.03.17-.17.17-.34,0-.34-.17-.51-.48-.51-.17,0-.34.07-.58.24.1-.37.31-.54.68-.54.51,0,.78.24.78.75,0,.14-.1.34-.27.58l-.34.07c-.37.03-.54.14-.54.38,0,.31.17.48.48.48.51,0,.92-.44,1.22-1.33.07-.48.1-.78.1-.95v-.31c-.03-.14-.03-.31-.07-.48l-.07-.27-.27-.68-.07-.24-.17-.27-.17-.31-.07-.03c-.34-.41-.51-.61-.51-.65,0-.07.07-.17.17-.27M24.11,17.41l.24.03-.03.07c.72.54,1.16.82,1.33.82.07,0,.17-.07.27-.2l.03.2c0,.17-.07.24-.24.24-.14,0-.24-.03-.27-.07l-.88-.71-.24-.14-.2-.24ZM12.69,17.24c.14.17.24.24.34.24h.14l-.1,2.59.03,1.19c0,.07,0,.17.03.31.03.17.03.27.03.34,0,.1-.07.14-.17.14s-.14-.07-.14-.17l.03-.24v-.31c0-.1,0-.2-.03-.27-.14-.82-.2-1.6-.2-2.31v-.92l.03-.58ZM9.62,17.38c.27-.2.44-.31.48-.31.1,0,.14.03.14.1,0,.03-.1.1-.31.2l-.07.07-.14.1c-.31.31-.44.54-.44.78,0,.31.17.58.51.85-.03.14-.1.2-.17.2-.17,0-.31-.14-.41-.34-.1-.27-.17-.48-.17-.65,0-.24.14-.51.37-.75l.03-.07.17-.2ZM1.36,18.26c-.27-.1-.41-.27-.41-.54,0-.48.14-.71.37-.71h.03v.1c-.07.17-.1.31-.1.41,0,.31.17.48.51.48.07,0,.27-.1.58-.31.14-.07.31-.17.51-.31l.41.95c-.51.37-.71.75-.68,1.19v.2c-.2-.17-.31-.37-.31-.65,0-.24.07-.44.24-.68h.03l.37-.44c-.17.07-.27.14-.31.17l-.54.41c-.31.24-.54.34-.72.34s-.24-.03-.24-.14c0-.03.1-.17.27-.34l-.03-.14ZM13.44,17.21c.14-.31.27-.48.41-.48.24,0,.37.17.37.51,0,.14-.07.34-.17.61l-.34.61-.27.54-.14.24.1-.51.44-1.19v-.34c-.14-.03-.2-.07-.17-.07s-.07.03-.24.07M20.27,16.84v-.17l.61.14c.31.03.44.27.44.72,0,.24-.17.34-.51.37.17-.17.24-.31.24-.44,0-.31-.27-.51-.78-.61M2.89,16.56c.31.07.65.1,1.02.1h.44c.2-.03.37-.03.58-.07.31,1.36.75,2.48,1.33,3.4-.07.03-.17.07-.27.17l-.41.31c-.14.07-.27.17-.41.27-.1.07-.2.1-.31.1-.07,0-.17-.1-.31-.31l-.31-.51-.34-.68-.31-.71c-.1-.24-.2-.44-.27-.58l-.07-.2c-.03-.24-.1-.44-.14-.65-.07-.2-.14-.41-.24-.65M5.1,16.6l.1-.07h.07l.14.03.27.99.1.31v.1s.03.07.07.17c.03.2.1.41.2.61.07.2.17.41.27.58l.17.34.14.31-.14.03c-.07,0-.1-.03-.14-.14l-.27-.51-.14-.24-.2-.37-.44-1.36-.2-.78ZM6.6,17.38l.37-.31c.51-.44.95-.65,1.36-.65.34,0,.65.07.95.24s.44.31.44.44l-.24.2-.44.44-.71.07c-.51.03-.78.31-.78.78,0,.1.1.24.27.41.2.03.41.03.61.1.17,0,.31.14.37.31-.07-.03-.17-.03-.34-.03-.1,0-.27.03-.44.07-.2.03-.34.07-.44.07-.37,0-.61-.17-.75-.48-.1-.1-.14-.24-.14-.41,0-.37.17-.71.51-.95v-.14s-.14.03-.31.03c-.1,0-.2-.07-.31-.2M6.9,16.36h.61l-.44.27h-.27c-.31,0-.65.03-1.02.14l-.03-.31,1.16-.1ZM24.52,16.26l.03.14.03.07c0,.1-.03.2-.14.31.17.17.31.24.41.24-.03,0,.14-.07.51-.24h.03l.07.03.07.1v.03l-.31.14-.27.1-.2.03h-.03c-.31.03-.44-.1-.44-.41,0-.2.07-.37.24-.54M25.24,16.12c.54.31.82.65.82,1.02,0,.34-.1.51-.27.51-.1,0-.24-.1-.44-.34l.1-.1c.1.1.2.14.31.14s.14-.07.14-.24c0-.27-.2-.51-.65-.75v-.24ZM19.66,16.16l.27-.03.85.03c.48.03.71.17.71.34,0,.14,0,.24-.03.27-.44-.17-.78-.27-1.02-.31-.37,0-.61-.1-.78-.31M4.46,16.43l.03-.03.03-.07h.27l.78-.14.95-.07.44-.03c.1,0,.2.03.31.14l-2.82.2ZM24.93,15.92c0,.07.03.2.1.34.03.2.07.31.07.34l-.1.1c-.07,0-.14-.2-.24-.61l.17-.17ZM25.37,15.95c.07-.1.17-.17.34-.17.24,0,.34.1.34.27l-.07.34-.1-.1-.07-.31-.24.03-.2-.07ZM19.76,15.85c.07-.17.2-.24.41-.27.1-.03.2-.03.31-.03h.24c.17,0,.27,0,.31-.03l.24-.03h.41c-.03.2-.1.31-.2.31-.14,0-.24,0-.31-.03l-.17-.03c.1,0,.07,0-.14.03-.2.03-.58.07-1.09.1M5.48,15.24l.1.03c.68.24,1.02.44,1.02.54l-.07.07h-.1c-.2-.03-.41-.1-.65-.17-.2-.03-.31-.17-.31-.34v-.14ZM1.77,15.65c-.07-.17-.1-.27-.1-.34v-.03c.03-.27.14-.41.34-.41l.07.24.27.37.07.14c0,.1-.07.17-.24.24l.03.1.17.1.14.1.34.1.48.1.78.07c-.1.03-.24.03-.41.03h-.34c-.44,0-.88-.14-1.33-.37.03.03.03.1.03.2s-.07.2-.17.31c-.1-.03-.17-.03-.2-.07h-.17c-.07,0-.17.03-.34.1.03-.41.17-.61.48-.61.17,0,.31,0,.37.03l-.07-.2-.14-.07-.07-.14ZM2.08,14.49c0,.1-.07.17-.24.17-.1,0-.17-.07-.17-.17,0-.17.07-.24.24-.24.1,0,.17.07.17.24M9.97,15.24c-.07-.2-.1-.37-.1-.51,0-.24.1-.44.34-.58l.27-.07c.1,0,.2.07.31.17-.24.24-.37.44-.37.58,0,.27.1.54.27.78l.65.78c.48.61.75,1.19.85,1.73l-.14-.24v-.03l-.34-.61-.34-.38-.03-.1-.14-.24-.07-.1-.17-.1-.17-.24c-.17-.07-.34-.2-.48-.41l-.2-.27-.07-.03-.07-.14ZM1.67,15.82c-.41-.24-.61-.58-.61-1.09,0-.48.14-.71.41-.68h.1l-.07.34-.07.24c-.03.14-.07.2-.07.24,0,.2.1.51.31.95M23.88,13.88c.03.07.03.17.03.27v.14c0,.78-.2,1.8-.58,3.06-.37,1.19-.82,2.18-1.36,3.03l-.2-.1c-.31-.17-.61-.31-.99-.41.37-.85.68-1.7.85-2.52.2-.82.31-1.6.34-2.38l.71-.31,1.19-.78ZM5.37,14.73c-.03-.07-.03-.2-.03-.37,0-.31.1-.48.34-.48.14,0,.24.14.31.38-.24.03-.37.14-.37.27l.07.1.51.58.03.03-.07.1s-.03-.03-.24-.14l-.27-.1c-.07-.03-.17-.14-.27-.37M1.63,13.74c0-.14.07-.2.24-.2.1,0,.17.07.17.2,0,.17-.07.24-.17.24-.14,0-.2-.07-.24-.24M1.16,13.54h.03c.14,0,.2.07.2.17,0,.14-.07.2-.2.2-.1,0-.17-.07-.17-.2,0-.1.03-.17.14-.17M24.32,13.43c.03.1.03.24.03.31.03.14.03.2.03.27,0,1.63-.34,3.16-1.02,4.63l-.61,1.33c-.24.44-.41.68-.51.68l-.14-.1v-.14l.2-.27c.03-.07.07-.14.1-.24,1.09-2.28,1.63-4.35,1.67-6.22l.24-.24ZM19.83,13.06c.24.24.34.48.34.71,0,.37-.2.72-.65,1.09l.58.03c-.31.68-.68,1.05-1.16,1.09l-1.8.2c-.2.03-.44.14-.75.31-.2.1-.31.24-.31.37,0,.17.07.24.2.24h.14s.07-.07.17-.14l.34-.31c.44-.31,1.05-.48,1.8-.48.65,0,1.12.31,1.39.89l-.44.03c.27.38.41.65.41.82,0,.44-.2.71-.61.88l-.82.34.1-.51-.38.1-.1.03h-.03s-.14-.07-.37-.2c-.24-.17-.41-.24-.51-.24s-.24.07-.41.2l-.03-.14c0-.1.07-.17.2-.31.14-.07.24-.14.34-.14l.95.34.14.03c.31,0,.48-.14.48-.37,0-.27-.2-.41-.61-.41-.14,0-.24,0-.27.03l-2.11.61s-.07.03-.17.03c-.27,0-.38-.14-.34-.41v-.14l-.41.24c-.1.07-.2.14-.24.17-.71.61-1.09,1.19-1.12,1.73l-.03.2-.14.51c0,.17-.07.31-.1.41l-.03.82c0,.1-.07.17-.17.17-.03-.24-.03-.41-.03-.58-.03-.14-.03-.27-.03-.37,0-.78.27-1.67.78-2.65.31-.54.65-.92.99-1.09-.1-.17-.14-.31-.14-.44-.03-.31.1-.54.37-.78.27-.24.58-.41.92-.58.34-.17.65-.27.92-.34.31-.07.44-.1.44-.07l.31-.14.17-.07.44-.2c.72-.37,1.16-.92,1.4-1.57M25.71,13.03c.24.31.34.68.34,1.19,0,1.05-.48,1.56-1.46,1.56-.1,0-.14,0-.14-.03,0-.1,0-.14.03-.17.85-.14,1.29-.58,1.29-1.33,0-.24-.03-.48-.14-.68-.07-.1-.1-.17-.1-.27,0-.07.07-.17.17-.27M11.8,13.13l.54-.31c.07,0,.14.07.2.17,0,.03-.07.07-.24.2-.14.07-.2.17-.2.24l.1.1.07-.03.14-.24h.07l.14-.14.1-.03.14.07c-.03.1-.07.14-.1.17-.1.17-.2.31-.27.41l-.1.14c0,.07.03.1.14.1h.03l.14-.34.14-.1c.03-.17.1-.24.21-.24l.17.07-.48.78-.03.03v.07c0,.07.03.1.14.1l.03-.03s.1-.2.2-.51l.14-.27c.1-.07.17-.14.24-.14.03,0,.07.03.1.14v.03c0,.07-.03.14-.14.24-.17.41-.27.72-.31.95-.03.17-.07.27-.07.24,0,.03.03.07.14.1l-.07.03.17-.1c.03-.14.03-.24.07-.27,0-.07.03-.17.1-.31l.2-.51.34-.37-.37.95.27-.07.14-.48.1-.27.14-.1.07.1s-.03.14-.1.24c-.1.14-.14.24-.14.27l.1.1.1-.03.24-.68h.07l.1.1-.07.27.17.03.03-.1.03-.27c.14.03.24.07.34.17.24.31.34.55.34.78l-.03.07-.03.34c-.03.1-.03.2-.03.24l-.03.07-.24.31c-.07.1-.14.17-.17.24-.1.27-.2.41-.27.41s-.17-.17-.31-.48h-.14v.14s-.07.1-.07.2c-.07.1-.14.17-.24.27l-.31.24-.41.27c-.1.1-.2.17-.27.2l-.07.03c-.1,0-.27-.14-.51-.44-.17-.24-.27-.48-.31-.75l-.03-.27.03-.14-.07-.07-.07.03-.17.24-.31.1-.27-.68-.07-.07-.03-.1c-.03-.14-.03-.24-.03-.34-.03-.1-.03-.17-.03-.2,0-.51.24-.95.75-1.33M20.61,13.13c.1-.27.24-.41.48-.41.37,0,.58.2.58.58,0,.34-.17.65-.51.95-.31.31-.61.44-.92.44l-.1-.1s.17-.14.51-.27c.14-.03.27-.17.41-.38.14-.17.2-.34.2-.48,0-.27-.14-.41-.37-.41l-.27.07ZM17.07,12.62c.24-.17.41-.27.48-.27l.58.07c.17.03.27.1.27.14,0,.1-.07.27-.24.51l.34-.03c.14.03.27.07.34.1.14.03.2.03.24.07h.31c-.31.65-.71.95-1.29.95h-.14c-.07-.03-.14-.03-.24-.07l-.03.1.48.27-.34.17-.41.2h-.07l-.14.07c-.34.1-.58.14-.75.14-.51,0-.75-.2-.78-.65h.31l-.03-.1c-.24,0-.38-.14-.41-.38l.58.14.1-.1c0-.07-.14-.14-.37-.17-.17-.03-.31-.03-.41-.03l-.14-.03v-.07c.07-.03.17-.03.27-.03h.34l.58.17h.31l-.1-.2.2-.03.41.1h.44c.07,0,.1-.03.14-.14l-.61-.07-.24-.07c-.31-.1-.48-.2-.48-.24l.1-.07h.24l.65.17-.07-.17-.71-.14c.1-.1.2-.17.31-.17l.14.03c.07,0,.17,0,.27.03v-.14l-.41-.07ZM24.56,12.24c.14.1.2.2.2.27l-.03.1-.38.34-.48.54-.51.37-.92.58c-.37.27-1.12.54-2.25.82v-.07c.07-.24.14-.34.24-.37l.71-.31.61-.24.88-.51c.24-.17.48-.31.71-.48l.24-.17c.17-.14.34-.27.48-.41l.48-.48ZM11.77,12.21l.27.24c-.17,0-.27-.03-.27-.1v-.14ZM1.02,12.48c.03-.27.14-.41.31-.41.21,0,.34.1.44.34l.24.44.2.34.03.24c-.14-.2-.27-.41-.48-.65-.14-.2-.38-.31-.68-.31h-.07ZM6.73,14.69c-.2-.14-.34-.24-.41-.34-.07-.1-.17-.27-.27-.58-.1-.17-.14-.37-.14-.58,0-.24.1-.51.27-.78s.37-.41.58-.41c.1,0,.24.07.41.24-.44.1-.65.37-.65.85,0,.17.07.31.2.48l.31.34.1.07.17.14c.2.14.37.24.48.27l.78.54.92.51.27.2.27.17.24.17c.65.51,1.22,1.19,1.63,2.11.48.92.71,1.8.75,2.65l.03.75.07.48c-.1-.03-.17-.07-.24-.1,0-.03-.03-.24-.07-.58,0-.03-.07-.27-.17-.68l-.14-.48-.1-.31-.07-.1-.1-.2-.24-.37-.07-.14-.2-.2-.27-.27c-.37-.24-.58-.37-.61-.37h-.27l-.48-.31c0-.1,0-.14.03-.17l.1-.03.2-.2.34-.07c.07-.03.1-.07.1-.17s-.07-.2-.24-.38c-.1-.1-.2-.17-.31-.24-.1-.03-.17-.07-.24-.1l-1.6-.24c-.65-.1-1.16-.41-1.53-.88-.14-.03-.2-.1-.2-.24,0-.07.14-.14.41-.17h.34l-.41-.27ZM7.38,11.8c.2.14.34.27.37.37.1.37.17.54.24.54l.1-.1v-.03l-.07-.17-.1-.2-.17-.31c.2.14.37.34.54.65l.1-.03-.14-.41.51.82-.44.03.24.37v.82c-.24,0-.44-.14-.61-.37l-.1-.24h-.14c-.03.1-.1.14-.17.17-.17,0-.24-.14-.24-.41l.14-.88v-.03l-.03-.03-.14-.2-.14-.1s-.1-.1-.2-.14h.07c.17-.03.38.1.55.48l.14-.07-.31-.51ZM1.9,11.16l.07.07c.03.27.07.44.1.55l.2.48.03.1v.24c-.03.07-.03.2-.07.37l-.17-.27-.03-.07-.07-.14-.07-.1-.03-.27c-.03-.07-.07-.17-.1-.34.2.31.31.44.27.44l.1-.07-.03-.07c-.1-.17-.17-.34-.2-.48-.03-.14-.07-.24-.1-.27l.1-.17ZM6.09,11.16c.17,0,.27.07.27.24s-.07.24-.2.24c-.2,0-.31-.1-.31-.27l.03-.07c.03-.1.1-.14.2-.14M6.9,10.95c.24,0,.34.1.34.27,0,.2-.1.31-.31.31s-.31-.1-.31-.34c0-.17.1-.24.27-.24M25.92,10.78c.1.37.17.65.17.75,0,.2-.03.34-.1.44l-.85,1.6-.07.31-.14.38c-.03.1-.03.24-.03.31-.03.14-.03.24-.03.34l.03.17c0,.17-.03.24-.14.24s-.14-.03-.14-.14l.03-.48c0-.1,0-.2.03-.27,0-.14,0-.24.03-.34.17-.48.37-.88.51-1.22.2-.34.34-.61.48-.85l.07-.85.14-.37ZM2.18,11.29c-.03-.1-.03-.2-.07-.27v-.17c0-.37.1-.54.34-.54.1,0,.14.03.17.14-.24.1-.37.24-.41.48l-.03.38ZM6.6,10.58l-.03-.14c0-.17.07-.24.2-.24.2,0,.31.1.31.27s-.07.24-.2.24c-.1,0-.17-.03-.27-.14M24.42,11.16c.03-.65.2-.99.51-.99.07,0,.1.03.1.14v.07l-.31.51-.03.2c0,.31.1.61.27.88l.27.44c0,.1,0,.17-.03.2l-.14-.03-.14-.2-.1-.1-.17-.24-.14-.41c-.03-.17-.07-.31-.1-.48M8.84,10.58l-.1-.14-.14-.07.2-.17s.2-.07.48-.07c.31,0,.71.17,1.16.51l.03-.1-.1-.41c.48.03.78.14.95.27s.27.41.31.85c.03.03.03.07.03.17l.03.2-.51-.2v.14c.27.1.48.27.65.48l-1.43-.44.03.14.27.07.99.37c-.1.1-.17.14-.27.14s-.2-.03-.31-.07c-.1-.03-.2-.07-.24-.07s-.1.03-.2.1l.2.07c.34.07.58.1.75.14.17.03.34.1.58.24l-.31-.03c-.07,0-.17-.03-.34-.03-.14-.07-.24-.07-.34-.07-.03,0-.07.03-.07.14v.03l.71.1c-.07.1-.14.14-.17.14l-.17-.03h-.14c-.1,0-.14.03-.14.1s.07.1.17.1h.07c-.44.37-.85.54-1.22.54-.51,0-.92-.2-1.19-.58l-.1-.27-.1-.51.44.07v-.17l-.14-.14-.03-.07-.17-.34v-.75l-.14-.37ZM16.73,10.54c.1-.41.27-.61.58-.61h.17l-.03.27c.31.03.51.14.68.31l-.85.24-.03-.31-.1-.07-.41.17ZM8.2,11.16c-.07.14-.17.21-.34.21-.34,0-.51-.17-.51-.54,0-.24.1-.41.27-.51l.54-.27c.31-.1.48-.17.54-.17l.1.07c-.1.03-.17.1-.24.14-.1.03-.17.1-.27.14-.37.24-.54.44-.54.65s.14.31.41.31h.03ZM19.05,9.69l.14-.07.1-.03c1.43,0,2.14.51,2.14,1.56,0,.34-.14.65-.34.89-.27.27-.54.41-.88.41-.58,0-.85-.2-.85-.58,0-.14,0-.24.03-.27.24.27.44.41.65.41.58,0,.88-.31.88-.88,0-.24-.03-.41-.14-.58-.24-.37-.48-.58-.75-.61l-.65-.1-.34-.14ZM16.26,10.27c0-.61.1-.92.31-.92.1,0,.17.2.17.61,0,.31-.14.61-.41.95l-.07-.27.14-.2.07-.34c-.1.03-.17.07-.2.17M5.61,9.18c.37.31.58.44.58.37l-.07.1-.1.17s-.17-.07-.48-.27v-.14l.07-.24ZM6.97,9.08c-.48.48-.71.88-.71,1.22v.07l.17.44.03.07c0,.1-.03.14-.14.14-.2,0-.31-.17-.31-.54,0-.44.14-.78.41-1.02l.44-.37h.1ZM9.52,9.29l.55-.51h.03l.07.07c0,.34-.41.65-1.19.88-.65.17-1.19.27-1.6.27-.58,0-.89-.03-.89-.14l.17-.27c.51.07.82.1.99.1.44,0,1.09-.14,1.87-.41M19.01,9.05c.07.03.2.03.37.03.14,0,.34-.03.61-.1.07-.03.2-.07.41-.14.17-.1.31-.14.34-.14.14,0,.2.14.2.44,0,.2-.34.31-1.05.31-.51,0-.82-.14-.88-.41M15.78,8.47c.31.24.44.58.44,1.09,0,.31-.1.51-.27.54l.1-.37-.07-.31-.03-.27-.17-.1-.1-.14.1-.44ZM11.94,8.47c.78.07,1.16.37,1.16.88l-.03.17c0,.07,0,.17-.03.27.03.03.07.03.17.03.03,0,.1-.03.2-.1-.03.37-.07.58-.1.65l-.51,1.12-.03.1c0,.14.07.2.2.2h.07l.07-.03.07-.07.17-.92c.03-.17.2-.44.44-.78l.1-.07.14.2.14.03.31-.51c.37-.17.65-.27.78-.34.17-.1.27-.17.31-.27h.03c.17,0,.27.2.27.65,0,.24-.07.44-.24.61v.14h.07c.17-.1.31-.17.34-.17.1,0,.14.03.14.14l-.03.51-.1.34-.07.14-.17.31c-.1.1-.27.24-.54.41-.1.07-.14.14-.14.2,0,.1.07.17.2.17.1,0,.2-.07.34-.2.07-.14.14-.24.17-.31.38-.71.82-1.19,1.33-1.39l-.1.51h.17l.1-.14.2-.14c.31-.1.44-.17.48-.17.14,0,.31.07.54.24-.58.17-.95.48-1.19.85l-.65.95c-.34.48-1.02.71-2.01.71-.75,0-1.5-.27-2.21-.78-.24-.24-.44-.58-.54-1.02l-.07-.55.1-.34.07-.61.27-.71-.03-.1-.03-.31-.31-.51ZM9.25,8.54c.1-.03.2-.03.24-.03l.07-.03c.07-.03.2-.1.37-.24.2-.14.31-.2.34-.2.44,0,.65.24.65.68l-.03.14-.14.37c-.03.14-.07.2-.07.17,0,.1.1.27.27.44-.03.03-.14.03-.27.03-.31,0-.44-.14-.44-.44v-.07l.14-.44s.03-.07.03-.17c0-.14-.07-.2-.17-.2l-.07.03h-.03l-.41.27h-.07l-.03.03c-.1,0-.2-.1-.37-.34M11.8,8.43c.17-.24.37-.37.58-.37.17,0,.37.1.61.27l.27-.24c.03.2.07.34.14.48l.03.14c0,.1-.1.2-.27.31l-.2-.31-.07-.1c-.41-.2-.68-.31-.82-.31-.1,0-.17.03-.27.14M15.85,8.3c.07-.31.2-.48.37-.48.14,0,.2.03.2.1l.03.37-.27-.2-.34.2ZM7.21,8.23c-.07.03-.17.03-.34.03s-.27-.07-.27-.2c.03-.24.24-.37.58-.37.14,0,.24,0,.27.03.2.1.31.17.31.2,0,.07-.03.17-.1.34v.03l.07.07.1-.1c.07-.2.17-.31.27-.31.24,0,.41.1.44.31l.07.48.17.37-.31.03-.17-.07-.27-.37-.31.31-.51.14-.17-.44.17-.38v-.1ZM17.07,8.23c0-.14.07-.31.27-.51.14-.2.31-.31.44-.27h.03c.17,0,.44.03.75.1l.34.07c.17,0,.31,0,.37-.03-.24.44-.58.65-1.06.65h-.1c-.27-.07-.44-.1-.51-.1l-.14.1v.03c0,.14.2.24.61.34.58.17.85.44.85.82l-.1.07s-.1,0-.2-.03c-.1,0-.2,0-.31-.03l.17.17.31.07c.17.07.24.24.24.54,0,.34-.1.51-.34.51-.17,0-.24-.07-.24-.17v-.03l.31-.07c-.1-.27-.27-.51-.48-.68-.24-.17-.44-.37-.65-.58-.37-.31-.58-.65-.58-.95M18.2,8.43l.92.14h.14c.51.03.75-.2.75-.72,0-.1-.07-.2-.24-.24l-.24-.1c0-.17.1-.24.34-.24.31,0,.48.2.48.61,0,.61-.34.92-1.05.92-.03,0-.17-.03-.41-.07l-.82-.27.14-.03ZM16.97,8.37c-.17-.1-.27-.24-.27-.41,0-.44.2-.68.65-.68-.03,0,.03.03.17.07l-.24.2c-.2.24-.31.51-.31.82M1.33,7.04c.03.17.07.27.07.24,0,.1-.03.14-.1.14l-.07-.07s.03-.14.1-.31M22.52,7.01c.71.92,1.12,1.7,1.29,2.41l.37,1.36.03.65s.07.14.07.31c.07.17.07.27.07.34,0,.1-.07.2-.24.31l-.17-1.36c-.1-.61-.2-1.19-.41-1.77-.14-.58-.37-1.12-.68-1.63l-.17-.27-.17-.34ZM13.94,7.82c-.17-.1-.24-.24-.24-.41,0-.48.27-.71.82-.68h.14l.1.14.41.24c.17.1.27.34.27.68,0,.1,0,.2-.03.24-.03.1-.07.2-.1.27,0,.1,0,.17-.03.2-.07.44-.17.68-.27.75l-.58.27-.27.37h-.03l-.1-.07.03-.07.03-.07.34-.34s-.03-.07-.14-.07l-.07.03-.71.68.07-.48.1-.27-.17.03-.27.31-.03-.24c0-.1.07-.24.24-.37l.61-.27s-.03.1-.03.2.03.14.1.14c.03,0,.1-.07.14-.17.41-.03.68-.1.78-.2.1-.1.17-.31.17-.65,0-.58-.24-.85-.68-.85-.37,0-.54.2-.58.65M11.5,6.63v.34c.03.75-.2,1.12-.65,1.12-.1,0-.17-.07-.17-.2,0,.03.17-.2.48-.71l.14-.37c.03-.1.1-.17.17-.17h.03ZM1.8,6.6c.07.1.1.2.1.31v.2h.17c.17-.27.34-.41.51-.41s.31,0,.37.03l-.03.2-.03.14.03.58c-.03.1-.03.2-.07.31l-.07.17-.24.24.44.03c-.1.44-.17.72-.2.78l-.75.85c-.24.31-.37.78-.37,1.4v.24c-.03-.1-.03-.2-.03-.27l-.03-.17c0-.78.17-1.43.48-1.94l-.07-.03-.07-.03-.1.1-.07.17-.2.51-.14.48v-.68l.34-1.02.03-.1.2-.34.27-.51h-.14c-.44.54-.71,1.29-.88,2.21l-.24-1.84v-.58l.27.2c.1,0,.2-.07.24-.17.14-.65.24-1.02.27-1.05M24.35,6.43l.2.2.54.34c.17.1.27.2.31.31l.03.14.14.31c.03.14.07.2.07.24,0,.68-.17,1.53-.48,2.52.03-.1.03-.2.07-.31,0-.1,0-.17.03-.27.03-.27.1-.51.1-.65.07-.2.07-.31.07-.41s-.07-.34-.17-.72c-.24-.24-.44-.37-.61-.37-.24,0-.34.14-.34.37,0,.2.03.41.14.58-.41-.24-.61-.51-.61-.88,0-.41.2-.61.65-.65v-.1l-.1-.14-.03-.51ZM11.87,6.43c.1.65.27.95.51.95.1,0,.24-.1.37-.27.03.17.07.27.07.24,0,.27-.17.41-.54.41-.41,0-.61-.41-.61-1.19.03-.03.1-.1.2-.14M21.7,7.28l-.31-.48.14-.37c.07-.1.14-.17.2-.17h.1c.92,1.26,1.53,2.55,1.77,3.88l.24,1.39c.03.2.07.37.1.51,0,.17,0,.27.03.37,0,.1-.07.2-.24.31l-.85.65s-.1.1-.2.14c-.1.03-.2.1-.37.2l-.31.17c0-1.19-.07-2.11-.24-2.75l-.14-.68c-.1-.58-.2-.99-.31-1.26l-.17-.37-.27-.58c-.14-.37-.31-.65-.54-.88l-.1-.17s.03-.1.1-.2c.24.37.54.58.85.58.17,0,.34-.1.51-.27M3.88,6.19s.07.14.1.27c.03.17.07.27.07.31l-.07.1-.03-.14-.07-.54ZM3.4,7.52l-.27-.88-.17-.27c-.03-.1-.1-.14-.27-.14h-.07l-.31.2v-.37c0-.14.1-.2.34-.2.2,0,.37.17.51.54l.14.34.07.44.1.34.07.37-.14-.37ZM6.67,5.85s.03.14.03.27c0,.03-.07.17-.17.34-1.02,1.26-1.53,3.2-1.53,5.82,0,.54.03,1.12.03,1.77.07.65.1,1.33.2,2.04l-.14.03s-.07-.07-.1-.17l-.14-.61c-.14-.71-.2-1.36-.2-1.97,0-3.26.68-5.78,2.01-7.52M14.35,5.65c.27,0,.41.1.41.34s-.1.34-.31.34c-.24,0-.34-.14-.34-.44,0-.17.07-.24.2-.24h.03ZM25.27,10.65c.34-1.12.51-1.97.51-2.59,0-.27-.03-.51-.1-.68l-.44-1.56v-.07c0-.17.1-.27.31-.27.34,0,.51.68.51,2.04,0,1.94-.31,3.37-.92,4.32-.1-.17-.17-.31-.17-.37.1-.31.2-.58.31-.82M15.41,8.5l.03-.17c0-.1,0-.14.03-.17.1-.34.14-.61.14-.82,0-.51-.1-.92-.34-1.22l-.51-.61v-.07c0-.1.03-.14.14-.14.24,0,.48.17.68.55.2.34.31.75.31,1.19,0,1.16-.24,1.87-.68,2.14l.2-.68ZM13.84,5.2c.17.03.24.1.24.27s-.1.27-.27.27c-.2,0-.31-.1-.31-.34,0-.14.1-.2.31-.2h.03ZM2.79,15.99c-.1-.58-.17-1.09-.2-1.5-.03-.48-.07-.85-.07-1.16,0-2.96,1.05-5.68,3.2-8.16.65,0,.99.14.99.37,0,.14-.14.34-.44.65-.48.51-.92,1.43-1.29,2.69-.34,1.26-.51,2.48-.51,3.61,0,1.19.07,2.07.24,2.69l.1.61.07.34s-.14.03-.31.03c-.17.03-.34.03-.48.03-.1.03-.2.03-.31.03h-.31l-.31-.07c-.2-.03-.34-.1-.37-.17M23.5,6.16v-.14c0-.61.2-.92.61-.92.34,0,.51.14.51.37v.14c-.03.07-.03.17-.07.27-.03-.24-.2-.38-.44-.38l-.1.03c-.14.2-.24.51-.27.89l-.24.78c-.07.2-.14.37-.24.48l-.03-.1c.2-.31.31-.54.31-.78v-.24c-.03-.07-.03-.2-.03-.41M14.42,4.8c.2,0,.31.1.31.27s-.1.24-.27.24c-.2,0-.31-.1-.31-.27s.1-.24.27-.24M3.88,5.88c.1-.78.37-1.16.82-1.16.24,0,.34.1.34.27,0,.03-.03.14-.07.31-.1-.1-.2-.17-.24-.17-.41,0-.65.2-.72.58l-.07.17c0,.07-.03.14-.07.24v-.24ZM25.58,4.63c.1.1.14.2.14.31,0,.31-.2.48-.61.48-.24,0-.37-.1-.37-.31v-.03l.44-.14.27-.14.14-.17ZM15.14,4.56c.24,0,.34.1.34.31,0,.17-.1.24-.27.24s-.27-.1-.27-.31v-.07c.03-.1.1-.17.2-.17M9.01,4.52h.1l.27.07c.1.03.24.24.37.58-.44.03-.65.07-.65.17v.03l.07.17.27.38.07.31c.03.07.03.17.03.31v.07c-.03.17-.07.27-.03.27l.1.07h-.14c.17,0,.24-.07.24-.24v-.31c.03-.27-.03-.54-.27-.85l-.07-.1-.07-.07s.14-.07.37-.1h.03c.24,0,.38.07.38.24v.07l.03.54-.07.1c-.03-.17-.07-.27-.14-.37l-.03-.1-.14.03c.1.17.14.34.14.51s0,.31-.03.37l.17.03.1-.2.31-.68c.1-.24.54-.44,1.26-.55,0,.2,0,.31.03.34.07,0,.17-.03.31-.1.17-.03.27-.07.37-.07.31,0,.54.24.72.68-.1-.03-.2-.03-.27-.07h-.2c-.65,0-1.12.17-1.46.54l-.61.65c-.48.51-.99.75-1.57.75-.37,0-.78-.1-1.22-.31-.44-.17-.72-.37-.85-.61-.07-.1-.1-.2-.1-.37l.1-1.09-.17-.34c-.17-.17-.41-.27-.78-.34.24-.2.41-.31.54-.31l.14.03.31.14h.14v-.07c0-.1.03-.17.1-.17.17,0,.34.14.44.37.1.24.17.48.17.68v.14l-.37.88v.1c0,.24.1.34.27.34.24,0,.34-.14.31-.37v-.24c-.03-.24-.03-.37-.07-.48v-.07c0-.38.03-.58.14-.58l.2.2h.17l.17-.44.31-.31.07-.27ZM13.77,4.49h.03c.17,0,.27.07.27.24s-.1.24-.27.24-.24-.07-.24-.24c0-.1.07-.2.2-.24M16.87,4.35l.1.1v.27c0,.1.03.24.17.37.07.17.17.24.27.24l.41-.1-.07.2c-.03.17-.2.24-.54.24s-.51-.24-.51-.68c0-.1.07-.31.17-.65M16.36,4.18c.24.03.34.07.34.17s-.03.31-.1.54c-.07.24-.1.44-.1.58,0,.38.07.68.17.99.24.44.34.68.34.78,0,.03-.1.17-.27.34-.44-.58-.65-1.26-.65-2.08,0-.31.1-.75.27-1.33M14.45,4.08h.03c.2,0,.31.07.31.24s-.1.27-.27.27c-.2,0-.31-.1-.31-.31,0-.1.07-.17.24-.2M15.41,4.15l.34.1.34-.17.1.1v.03l-.03.03c-.14.24-.27.37-.44.37s-.27-.17-.31-.48M10.68,3.84h.07c.14,0,.2.17.2.51,0,.58-.2.85-.58.85-.27,0-.41-.1-.41-.34l.07-.27c.14.14.24.2.34.2.24,0,.37-.17.37-.51v-.2c-.03-.07-.03-.14-.07-.24M11.05,4.05c-.07-.1-.1-.17-.1-.2.03-.1.1-.14.24-.14h.1c.17.51.24.95.24,1.33l-.37.1-.1-1.09ZM11.6,4.35c-.1-.24-.14-.44-.14-.58l.1-.1.07.1c.07.41.14.68.2.85v.37l.03.34-.07-.31-.14-.03c-.03-.1-.03-.24-.03-.31-.03-.14-.03-.24-.03-.34M12.62,3.74l.31-.2.1-.03s.14.03.31.07c.24.14.34.31.34.54,0,.31-.17.48-.51.48s-.51.03-.51.14.07.14.17.14h.48l.07.1c0,.1-.14.17-.44.17-.44,0-.65-.17-.65-.51,0-.1.03-.14.1-.14l.54-.03.41-.2v-.2c.03-.24-.1-.34-.48-.31h-.24ZM7.79,4.69c1.26-1.05,2.86-1.6,4.76-1.6s3.2.27,3.91.78l-1.26-.31c-.71-.17-1.5-.27-2.31-.27-2.01,0-3.64.51-4.97,1.56l-.14-.17ZM3.47,6.87c-.03-.1-.03-.24-.07-.37v-.37c0-.44.1-.85.27-1.23.17-.41.41-.75.75-1.09.27-.27.65-.54,1.02-.68.41-.2.85-.27,1.29-.27.07,0,.2.03.37.07l.31.14.31.07.03.07.03.03c-.03.1-.14.2-.37.24-.38-.14-.68-.2-.85-.2-.37,0-.75.07-1.09.24-.34.17-.65.37-.92.65-.24.27-.44.58-.61.95-.17.34-.24.72-.24,1.09,0,.17,0,.27.03.31l.17.68c-.03.1-.1.24-.24.37l-.17-.48-.03-.2ZM3.88,2.93l.44-.24.03-.03h.1c.27,0,.41.1.41.34,0,.07-.1.17-.27.27l.03-.17c0-.17-.1-.24-.31-.24h-.17c-.07.03-.17.03-.27.07M19.66,3.23l-.03-.27c-.03-.34.14-.51.51-.51.1,0,.14,0,.17.03-.07.24-.1.41-.1.44,0,.48.31.82.88,1.02l.92.34.58.44.1.1s.1.07.14.17l-.24-.1-.34-.17c-.1-.07-.2-.1-.31-.1s-.14.03-.14.07l-.03.03s.03.03.14.03c.1.03.2.07.34.1.14.03.27.1.41.2.17.1.31.24.41.41.24.38.37.75.37,1.12,0,.31-.1.58-.31.85v-.2l.14-.27v-.17c0-.54-.14-.95-.44-1.26l-.07-.1c-.41-.31-.71-.48-.95-.44h-.31c-.24,0-.37.1-.37.27.34-.1.58-.14.68-.14.44,0,.82.24,1.09.72.17.24.24.44.24.68v.2l-.03.34-.14.1-.1-.1c.03-.07.03-.2.03-.37,0-.1-.03-.27-.1-.48l-.03-.1-.03-.1-.03-.07-.24-.27h-.03l-.1.1v.03l.24.2.14.31c.07.1.1.2.1.27,0,.1,0,.2-.03.24-.14-.1-.24-.31-.27-.58l-.1-.14c-.24-.14-.44-.2-.54-.2s-.14,0-.17.03c-.31.17-.48.41-.48.65l.14.65-.24.03c-.31,0-.44-.1-.48-.31l-.03-.41-.1-.03-.54.44-.14.03h-.27c-.1-.03-.24-.03-.41-.07l.17-.48v-.07c-.44.17-.72.27-.89.27-.1,0-.31-.03-.58-.1-.24-.31-.37-.44-.37-.41l.07-.17.03.03.24-.34c.17-.27.41-.44.71-.48l.03-.07c-.2-.1-.31-.17-.31-.24,0-.17.24-.24.68-.24.17,0,.37.03.65.14.27.1.48.14.58.14l.1-.07v-.1c-.24-.03-.48-.14-.65-.31l-.2-.31-.17-.65.54.07-.07-.24-.03-.1ZM7.82,2.76h-.14c-.14,0-.2-.07-.2-.2,0-.1.1-.17.27-.17.1,0,.17.03.17.1,0,.1-.03.17-.1.27M17.38,2.72l.27-.24.27-.07.27-.07.03.1s-.07.07-.24.17l-.17.17c-.1.14-.14.17-.17.17-.1,0-.2-.07-.27-.24M6.97,2.28c.2,0,.31.07.31.2s-.07.2-.24.2-.24-.07-.24-.24v-.03l.17-.14ZM6.7,4.35c.65-.65,1.53-1.16,2.72-1.56,1.19-.41,2.38-.61,3.64-.61.58,0,1.43.14,2.55.37,1.06.24,1.84.48,2.38.78l.51.27c.41.24.65.48.75.78-.1.03-.24.03-.34.03-.1.03-.24.03-.34.07l-.44.17c-.07.03-.2-.07-.44-.31l-.14-.1c-.07-.03-.14-.1-.24-.14l-.51-.24c-1.19-.65-2.59-.95-4.18-.95-1.97,0-3.61.54-4.93,1.67-.17-.03-.31-.17-.41-.41-.14.03-.24.1-.34.24l-.24-.07ZM20.78,2.31c.24-.24.51-.34.89-.34.24,0,.54.1.85.31-.31-.07-.54-.1-.71-.1-.48,0-.72.14-.72.44,0,.24.17.44.48.61-.17.1-.34.14-.44.14-.34,0-.51-.2-.51-.58,0-.17,0-.27.03-.34l.14-.14ZM8.84,2.18l-.14-.37.17.07.07.03c.1.14.17.27.2.41-.1.24-.2.37-.27.37-.1,0-.2-.03-.37-.14.17-.07.27-.2.34-.37M3.81,2.72c.1-.03.17-.1.2-.14l.14-.1c.27-.2.48-.34.58-.37l.48-.17c.17-.1.31-.14.48-.14.58,0,.88.17.88.54,0,.24-.2.37-.65.41l.14-.27-.1-.27.07.03c-.27-.14-.48-.2-.58-.2-.31,0-.85.24-1.63.68M7.72,1.73c.2,0,.31.07.31.24,0,.14-.07.2-.24.2s-.24-.07-.24-.24v-.07l.1-.1.07-.03ZM6.36,1.56v-.03l.65.1.03.03.07.03c.17.14.24.24.24.31,0,.1-.03.14-.14.14-.03,0-.14-.1-.31-.27-.1-.1-.27-.2-.54-.31M1.12,1.33c.07-.1.2-.17.41-.17.1,0,.24.03.37.1.31.1.48.41.58.99l.27-.1h.07c.1-.03.14.03.14.14,0,.37-.2.68-.58.92-.2.14-.31.24-.31.31l.07.14.14-.1c.17-.17.37-.27.61-.31l.03.31c.1-.03.2-.03.34-.07h.2s.2.07.48.17l.03.1c0,.1-.03.17-.14.27l-.17.34c-.1.07-.24.14-.34.2-.1.03-.24.1-.34.14.03.1.14.17.31.2-.03.24-.14.41-.31.51l-.65.27-.61.44-.24.27-.17.2c-.1.14-.17.27-.17.34l-.1.27c.03-.37.14-.71.37-1.02l.14-.2.14-.14c.14-.17.37-.34.68-.55l-.03-.1c-.31.1-.65.38-.95.75l-.1.1-.14.17c.24-.65.72-1.19,1.36-1.63.1-.03.17-.1.17-.14l-.03-.1h-.17l-.14.14-.37.31c-.17.17-.31.31-.41.44-.1.1-.21.24-.31.34l.07-.44.14-.48.1-.48c.03-.1.07-.24.14-.37l.2-.68c.03-.1.07-.2.1-.34l.03-.1v-.51l-.07-.2-.03-.07-.14-.17c-.17-.14-.31-.2-.41-.2s-.17.07-.17.24c0,.1.1.24.27.41.1.17.14.27.14.37,0,.27-.1.41-.31.41-.1,0-.2,0-.24-.03.14-.14.2-.24.2-.34l-.03-.2-.03-.14-.1-.17c-.07-.17-.1-.27-.1-.31,0-.17.03-.34.1-.44M16.9,2.01c-.58-.03-.85-.24-.85-.65,0-.24.1-.31.27-.27l.34.03-.1.1-.03.07v.03c0,.24.2.34.65.34.31,0,.82-.1,1.6-.27.41-.17.92-.24,1.56-.24,1.12,0,2.18.34,3.09,1.02l.27.37c-.17-.14-.41-.2-.68-.2-.65-.37-1.22-.54-1.8-.54-.61,0-1.16.1-1.56.31-.48.24-.68.48-.68.78,0,.1.03.24.14.41h-.07c-.41,0-.61-.17-.61-.51,0-.1.07-.27.2-.48l.27-.24-.03-.1.1.03c.1,0,.17-.03.17-.07l-.07-.1c-.1,0-.24.07-.41.14-.17.14-.27.17-.34.2-.44.14-.75.2-.92.2s-.37-.03-.61-.14v-.07l.1-.17ZM11.6,1.16l.37-.1.1-.03c.17,0,.31.07.44.24l.07.34c0,.31-.34.44-1.02.44-.34,0-.61-.07-.85-.24l-.34-.1-.44-.2-.58-.24-.31-.2.41.07,1.19.44.48.14.1.07h.24c.17,0,.34-.03.51-.14v-.1c0-.14-.14-.27-.37-.37M16.56,2.45c-.17,0-.31,0-.34-.03-1.4-.14-2.08-.44-2.08-.95,0-.31.17-.48.48-.48.17,0,.37.14.58.37h-.2c-.17,0-.27.07-.27.2,0,.44.51.68,1.53.68.17,0,.27.07.31.2M24.42,1.97c.1-.44.2-.71.27-.82.07-.1.2-.14.41-.14.54,0,.82.2.82.65,0,.34-.17.54-.51.65l.54.55-.82-.24-.03-.07v-.1l.03-.1c.34-.24.51-.48.51-.71,0-.17-.14-.27-.41-.27-.2,0-.37.17-.51.54v.17c0,.1.07.31.2.65.44.41.65.89.65,1.46,0,.17-.1.34-.27.51s-.37.24-.61.24c-.31,0-.61-.27-.99-.82l-.14-.2c-.2-.24-.41-.34-.61-.34-.31,0-.44.1-.48.31l-.03.44-.27-.17c-.14-.07-.2-.2-.2-.41,0-.1,0-.17.03-.2.1-.31.31-.51.65-.54-.17-.1-.31-.24-.37-.41l.41-.03c.07-.03.2-.03.37-.03.44,0,.75.2.95.61.31.65.48.95.58.95.17,0,.27-.1.24-.34v-.1l-.24-.31-.24-.17-.27-.31-.17-.24-.03-.82h.07c.14,0,.31.07.48.17M23.2,1.53c0-.1.03-.2.07-.34.07-.14.17-.2.31-.2l.14.03c.2.07.34.24.37.48-.17-.1-.31-.17-.37-.17-.17,0-.24.07-.24.24,0,.1.1.27.27.51l-.07.14c-.17-.14-.31-.27-.41-.44l-.03-.07s-.03-.07-.03-.17M3.1,2.62c1.26-1.09,2.48-1.63,3.71-1.63,1.05,0,2.11.31,3.1.88l.41.34-.17.07c-.07.03-.14.03-.24.07-.92-.71-1.87-1.05-2.89-1.05s-2.18.44-3.43,1.36c-.37.24-.61.38-.65.38h-.07l.24-.41ZM2.79,1.19c.03-.14.1-.2.27-.2.34,0,.51.2.51.61,0,.2-.17.44-.48.71.14-.24.2-.41.2-.51s-.03-.2-.1-.37-.2-.24-.41-.24M.82,26.39h25.54V.85H.82v25.54ZM.41.41h26.39v26.39H.41V.41ZM0,27.21h27.21V0H0v27.21Z" fill="#231f20"/>
    </g>
  </g>
</svg>