<?xml version="1.0" encoding="UTF-8"?>
<svg id="Layer_1" xmlns="http://www.w3.org/2000/svg" width="27.21" height="27.21" xmlns:xlink="http://www.w3.org/1999/xlink" viewBox="0 0 27.21 27.21">
  <defs>
    <clipPath id="clippath">
      <rect width="27.21" height="27.21" fill="none"/>
    </clipPath>
    <clipPath id="clippath-1">
      <rect y="0" width="27.21" height="27.21" fill="none"/>
    </clipPath>
  </defs>
  <g clip-path="url(#clippath)">
    <g clip-path="url(#clippath-1)">
      <path d="M11.33,24.18h1.33l.03.14s-.07.07-.24.07l-.37.03-.14.03-.03-.03-.14-.03-.14.03h-.24l-1.5-.1h-5.14c-.17,0-.34-.1-.48-.31.27.07.48.1.65.1s.27,0,.31-.03l6.09.1ZM9.35,22.21c.14.03.2.14.24.31-.14,0-.2-.1-.24-.31M6.8,22.07l.31.07.88.1.34.03h.82c.07.2.27.41.61.61l.85.34.48.1.31.03.31.03.37.03c.14.03.24.07.37.1.07.03.17.03.27.07l.03.1c.1.07.14.14.14.2,0,.14-.17.2-.54.2l-.48-.03h-.2c-.14,0-.24,0-.31.03l-.41-.03-3.13-.17-3.03.07c-.51,0-.75-.1-.75-.31v-.07l.03-.07.17-.1s.2-.1.48-.14c-.03,0,.17-.07.54-.17.07-.03.17-.07.34-.1l.85-.48.17-.17.17-.31ZM19.22,11.97l.34.07c-1.12,2.31-3.5,3.37-7.21,3.2l-2.31-.17h-.03c-.31-.03-.51.07-.58.34l-.07,1.05v5l-.2.03-.03-5.41c0-.51,0-.82.03-.89.03-.07.1-.17.2-.27l.2-.1,1.02.03c.1.03.24.03.41.03.14,0,.24,0,.31.03l.61.07h.1l1.22-.07.48.03,1.16-.17.27-.03.37-.07.27-.07.65-.2.44-.17.54-.34-.03-.03.34-.17c.17-.1.31-.2.41-.31l.61-.61.27-.24.17-.31.03-.27ZM20.07,6.16c.44.65.61,1.12.58,1.36v.24c.03.1.03.24.03.34v.82c0,.41-.07.82-.17,1.19l-.07.2-.1.44-.14.37-.27-.14.31-1.26c.17-.48.24-.99.24-1.53s-.14-1.22-.41-2.04M10.37,3.67l.24.24-.1.07-.44.03c-.48.03-.71.31-.71.82l.07,1.39-.07.92.03.99v1.67c0,.17,0,.38-.03.55l-.03,1.09c-.03.2-.03.34-.03.37v.34c0,.51.1,1.02.31,1.6l-.1.03c-.07,0-.14-.1-.24-.34s-.14-.48-.14-.68l.03-.95-.07-1.39.07-1.63v-2.65l-.03-1.02c-.03-.54.03-.88.2-1.09.17-.14.51-.27,1.05-.34M12.48,3.57l.61.07.48.03.65.1c.78.1,1.19.24,1.19.38l-1.43-.2-.99-.03-.37-.03-.14-.31ZM4.56,3.16l.55.2.31.14.37.14.51.34.03.1-.17-.03-.41-.2s-.17-.07-.41-.14c-.38-.14-.65-.31-.82-.48l.03-.07ZM4.73,2.65c1.05.14,1.87.2,2.48.2h1.46c.14,0,.27,0,.37.03.1-.03.17-.03.2-.03l.17-.03c.1,0,.37.24.88.75-.07.03-.14.03-.24.03l-.14.03c-.44.07-.71.2-.82.37-.1.2-.17.55-.17,1.02v7.93c0,.58.34.95,1.05,1.09.24.07.82.1,1.77.1,2.86,0,4.76-.82,5.68-2.41h.44c.41.03.78.1,1.09.2h.14l.03.07c-1.46,2.01-3.57,2.99-6.26,2.89l-3.47-.2c-.27-.03-.44.24-.48.82l-.03,5.27-.03.78h-.24c-.51,0-1.06-.07-1.63-.24l.14-14.76-.14-1.12v-.24c-.07-1.12-.82-1.8-2.21-2.04-.24-.03-.34-.14-.34-.37v-.03l.27-.1ZM12.24,2.69c.1-.03.2-.03.34-.03l.2-.03h.2s.17.03.34.03h.85c1.87,0,3.33.51,4.45,1.56,1.09,1.05,1.63,2.45,1.63,4.22,0,.34,0,.54-.03.61l-.31,1.36-.17.51c-.03.1-.34,0-.85-.24-.17-.03-.34-.07-.48-.07-.14-.03-.27-.03-.37-.07l.24-2.14v-.1c.03-1.33-.37-2.42-1.22-3.27-.89-.88-2.04-1.36-3.5-1.46l-.92-.07-.34-.03-.31-.14-.17-.34c-.1-.07-.17-.14-.17-.17l.03-.1.54-.03Z" fill="#a91e22"/>
    </g>
  </g>
</svg>