<?xml version="1.0" encoding="UTF-8"?>
<svg id="Layer_1" xmlns="http://www.w3.org/2000/svg" width="27.21" height="27.21" xmlns:xlink="http://www.w3.org/1999/xlink" viewBox="0 0 27.21 27.21">
  <defs>
    <clipPath id="clippath">
      <rect width="27.21" height="27.21" fill="none"/>
    </clipPath>
    <clipPath id="clippath-1">
      <rect y="0" width="27.21" height="27.21" fill="none"/>
    </clipPath>
  </defs>
  <g clip-path="url(#clippath)">
    <g clip-path="url(#clippath-1)">
      <path d="M12.58,12.58l-.37-.37c-.1-.1-.17-.2-.17-.31v-.37c-.1.17-.17.31-.17.41,0,.44.24.65.71.65M13.23,12.69s-.2-.03-.48-.03c-.1,0-.17,0-.2.03l.2.1c.2,0,.38-.03.48-.1M13.84,11.73c-.1.37-.31.71-.54.95l.14.03c.44.03.68-.24.68-.82l-.27-.17ZM12.96,6.6l-3.4,7.18c-.03.17-.07.27-.07.24v.14h-.03c-.14,0-.2-.07-.2-.2,0-.1,0-.17.03-.2l3.27-6.84c.1-.17.24-.27.41-.31M11.97,12.96c-.07.31-.34.44-.85.44h-.1c-.2-.03-.31-.14-.31-.34l.14-.1.07-.07-.1-.1-.1-.1-.03-.2-.17-.17.17-.1.37.1c.24.03.44.14.54.27-.14.03-.2.07-.24.1l.07.07h.1l.2.07-.03.1s.07.07.17.07l.1-.03ZM13.77,13.71s-.1-.03-.2-.03l-.1.03-.03.1c-.03.17-.17.27-.41.27-.1,0-.17,0-.21-.03l-.24-.1-.17-.14-.07.07h-.07c-.2,0-.31-.14-.31-.37,0-.31.1-.44.31-.44l.1.07.14.17.03.03c.07,0,.1-.03.1-.14.14,0,.2.03.24.14l.03.14.07.07.03.07.07-.07-.07-.17v-.03l.03-.07.03-.03.03-.07.14.07.1.07s.1-.07.14-.17c.24.07.34.17.34.34,0-.03-.03.07-.07.24M14.39,12.48h.82l.41-.03-.41.34-.37.31.03.1.14.07-.07.1s-.1.07-.27.1h-.2c-.24.03-.44-.1-.54-.44l.14-.07.14.03h.03l.07-.1-.1-.14h.07c.1,0,.17-.03.17-.14l-.03-.14ZM14.9,10.58c-.31.24-.48.58-.48,1.02,0,.92-.51,1.39-1.53,1.39-.37,0-.68-.14-.92-.34-.27-.27-.41-.54-.41-.85,0-.17.07-.37.14-.65.14-.27.17-.48.17-.58,0-.14-.07-.31-.24-.54h.24c.2.07.31.2.34.44.03.14.07.2.14.2l.1-.03.14-.03.14.03.14-.07h.14s.03.14.03.27c0,.03-.03.1-.07.24l-.14.24v.14l.1.07.03.07c0,.07-.03.17-.1.31-.07.17-.1.27-.1.37,0,.14.07.2.24.2s.24-.1.24-.34l-.03-.24c-.03-.1-.03-.2-.07-.27v-.17c0-.51.14-.78.44-.78.1,0,.17.03.2.14.03.1.07.17.1.2v.07c.07,0,.1-.03.14-.14.17-.31.34-.48.51-.48.07,0,.2.03.37.1M13.23,10.44c.17-.44.27-.75.27-.99,0-.34-.07-.54-.17-.58l-.2-.07-.03-.1.1-.1c.31,0,.48.31.48.92s-.14.92-.44.92M14.59,12.04l.07-.2c.03-.24.24-.37.58-.37l.03.07-.1.17c-.07.1-.1.17-.1.2l.14.14v.1s-.03.07-.14.1c-.1.03-.17.03-.2.07l-.03-.07.03-.07-.03-.07-.17.17-.14-.03.07-.2ZM13.81,10c.17-.34.31-.51.48-.51.24,0,.34.1.34.34,0,.17-.1.27-.27.31.1-.1.17-.2.17-.24,0-.14-.07-.2-.2-.2s-.31.1-.51.31M11.36,12.07l-.1-.1-.1.1c-.17-.07-.27-.17-.27-.34l.07-.14.07-.03.03-.1.03-.24.07-.07c.14.24.2.55.2.92M12.24,9.9c-.1-.1-.14-.17-.14-.27,0-.24.17-.34.48-.34.34,0,.51.2.51.61,0,.2-.07.34-.24.41.03-.03.03-.14.03-.31,0-.34-.1-.51-.31-.51s-.31.14-.34.41M12.96,8.98c.07,0,.1.03.1.14s-.03.17-.14.17c-.07,0-.1-.03-.1-.14s.03-.17.14-.17M12.58,8.98l-.1-.07.1-.1.1.1-.1.07ZM12.38,8.71l-.1.07-.07-.07.1-.1.07.1ZM12.69,8.47c.1,0,.14.03.14.14,0,.03-.03.07-.14.07l-.1-.1.1-.1ZM12.82,8.09c.07,0,.1.03.1.14l-.1.07-.07-.1.07-.1ZM13.44,8.26c0,.1-.07.14-.17.14s-.14-.03-.14-.14.03-.17.1-.17c.14,0,.2.07.2.17M13.67,7.07c-.24-.44-.51-.68-.75-.68-.2,0-.41.2-.58.58l-3.2,6.73-.07.27c0,.24.17.34.51.34l6.57.03c.37,0,.58-.14.58-.41,0-.03-.03-.14-.1-.27l-2.96-6.6ZM22.04,15.24c-.24.1-.51.17-.78.2l.58.1.2-.31ZM25.85,20.34c0,.14-.03.31-.07.48-.03.1-.03.2.03.27l.1.17c0,.1-.07.14-.17.14.17,0,.24-.1.2-.31v-.14c-.03-.24-.07-.44-.1-.61M22.48,16.67v-.17l.03-.1.03-.03s-.14-.07-.41-.07c.03,0-.07.03-.31.07.1.03.2.1.34.17.07.03.2.1.31.14M20.03,20.58l.07-.27c0-.1-.03-.17-.14-.27.03.1.03.2.03.34,0,.1,0,.17.03.2M19.56,20.44h.07c.03.14.07.14.07.03,0-.27-.07-.41-.24-.41l-.03.1s.07.17.17.34c.14.24.24.37.31.41,0-.03-.03-.14-.1-.31-.07-.14-.14-.24-.17-.27l-.03.07-.03.03ZM16.05,18.06l.31-.31c.07-.1.1-.14.14-.17.37-.31.61-.48.71-.51.24-.1.34-.17.34-.24l-.07-.03c-.14,0-.31.1-.54.31-.03.03-.1.1-.2.17-.1.03-.2.1-.31.2-.24.27-.34.48-.37.58M13.33,22.18c.2-.37.37-.65.51-.82l-.41.41-.14.1c0,.17,0,.27.03.31M12.38,22.58c-.03.24-.07.34-.07.31,0,.03.07.07.17.14.1.07.2.14.24.2-.03-.17-.1-.31-.17-.38l-.17-.27ZM14.76,22.62c.03.17.03.34.07.44.03.14.03.24.07.27.07-.1.07-.17.03-.24l-.07-.2s-.03-.14-.1-.27M12.41,24.56c.24-.1.37-.27.44-.51l-.24.24c-.07.1-.14.17-.2.27M14.32,24.49l-.2-.2-.14-.14c0,.24.1.37.34.37v-.03ZM14.97,24.66c.31.07.51.1.68.1.1-.03.2-.07.27-.1.1-.03.17-.03.27-.07-.1-.03-.2-.03-.27-.03-.1-.03-.17-.03-.2-.03-.2,0-.44.03-.75.14M10.44,22.18c-.24.17-.34.41-.34.72.1-.17.17-.31.24-.41l.1-.31ZM8.81,21.36l-.31-.51-.03.17c0-.07.1,0,.34.2v.14ZM8.47,22.48c-.17-.34-.51-.51-.95-.51h-.07l.31.14.37.2.34.17ZM8.67,23.26c-.17-.17-.31-.27-.44-.31.17.17.34.27.44.31M8.98,23.98c.24-.44.34-.71.34-.85s-.03-.2-.14-.2c.07,0,.07.03-.07.07l-.14.2.03.27v.24c0,.1,0,.2-.03.27M9.01,18.98v.24c0,.44.1.89.31,1.39.24.51.34.99.34,1.5,0,1.19-.31,2.08-.92,2.62l-.48.37-.24.24c1.19-.44,1.8-1.53,1.8-3.27,0-.37-.14-.88-.37-1.6-.1-.2-.17-.44-.24-.68-.07-.24-.14-.51-.2-.82M1.53,20.71l-.03.34c0,.1.27.51.78,1.16-.1-.17-.2-.31-.31-.37-.1-.24-.17-.48-.27-.68l-.17-.44ZM10.34,17.38l-.61-.17-.71-.14c-.1,0-.17.03-.17.14s.03.17.14.17h.31l.37.03.68-.03ZM7.55,16.12c-.17-.03-.34-.07-.41-.14-.14,0-.2-.03-.24-.03l-.1.1c0,.1.07.14.17.14h.31c.1-.03.17-.03.27-.07M5.17,17.28l.48-.2c.78-.34,1.29-.51,1.57-.51.65-.03.95-.1.95-.2,0-.07-.1-.1-.31-.1-.17,0-.31,0-.37.03l-.78.14c-.37.03-.88.34-1.53.85M4.35,8.61c0-.14-.2-.34-.58-.58.17.24.37.44.58.58M5.27,5.88c-.07.17-.1.31-.1.41v.14l.07.2c.17-.44.27-.54.27-.31v.14l-.07.14-.07-.03v-.34s-.03-.17-.1-.34M9.9,8.26c-.27.17-.48.38-.61.61.17-.07.31-.1.44-.17l.14-.03c.03-.07.03-.2.03-.41M7.52,8.16c-.17-.1-.31-.2-.38-.31-.14-.1-.2-.17-.27-.2l-.03.14c0,.2.14.34.38.37h.31ZM8.5,8.74c-.37,0-.68.03-.92.14.27.1.41.17.44.17.1,0,.27-.1.48-.31M10.61,6.87c-.14.1-.31.24-.48.44.34-.03.51-.07.51-.1,0-.17,0-.31-.03-.34M9.56,7.21c-.31,0-.54-.03-.71-.14.17.2.27.31.37.31h.31l-.03-.07.07-.1ZM2.28,4.46c-.17-.07-.37-.17-.54-.27.03.27.14.41.31.41l.07-.03s.07-.07.17-.1M18.6,5.82c-.2.07-.31.14-.31.24s0,.2.03.24c.1-.14.17-.24.17-.31.07-.1.07-.14.1-.17M21.5,4.18c0-.14-.07-.24-.2-.34-.14-.1-.27-.17-.41-.24.24.31.44.48.61.58M7.01,4.9l-.1-.14-.07-.07h-.1l-.37-.07c.1.2.2.31.34.31.17,0,.27,0,.31-.03M7.93,5.61c.17.1.31.14.44.14.17,0,.27,0,.34-.03-.17-.1-.34-.14-.51-.14-.1,0-.2,0-.27.03M10.68,3.88s-.03.1-.03.2,0,.14-.03.17l-.03.27s-.03.1-.03.2.1.14.31.14c.07,0,.1-.03.1-.14,0-.03-.03-.17-.14-.41-.1-.24-.14-.37-.14-.44M16.73,3.23c-.03.1-.1.17-.17.24l-.2.2c.37-.07.54-.1.58-.14-.14-.07-.2-.17-.2-.31M17.65,2.69c-.03-.2-.1-.31-.17-.31-.14,0-.24,0-.27.03l.41.03.14.03c-.1.1-.14.17-.1.2M17.38,3.81c-.14.17-.2.31-.2.41v.2c.31-.51.44-.82.44-.95l-.03-.07c-.1,0-.17.14-.2.41M21.63,6.09c-.24-.34-.51-.51-.75-.51s-.37.14-.48.44c.17-.07.31-.1.48-.1.2,0,.44.07.75.17M22.38,7.96c-.27-.71-.68-1.29-1.26-1.8l.2.37.31.41.34.54.41.48ZM23.13,5.37c-.1.03-.17.1-.24.14-.07.03-.14.1-.24.14h.37l.07-.03s0-.14.03-.24M25.95,6.97c0-.24-.07-.31-.17-.24-.03.03-.03.1,0,.2s.07.14.1.14l.07-.1c0,.24-.03.31-.07.17l.03.07.07.07c.07,0,.07-.1-.03-.31M7.82,23.91l.1.14c0,.14-.1.2-.34.24l-.48.07-.37.03-.75-.03-1.05-.1h-1.02c-.1.03-.24.03-.34.03h-.31c-.17,0-.31,0-.34.03l-.44.07h-.41c-.37,0-.65-.1-.75-.27.17.03.31.03.38.03.14.03.2.03.27.03h.34l1.09-.1c.07-.03.2-.03.37-.03h.44c.14,0,.34,0,.55.03h.75l.75.07h.58c.51,0,.82-.07.99-.24M25.92,24.01l.03.14-.03.03c-.03.14-.27.2-.65.2h-.48c-.1,0-.2,0-.31-.03l-1.26-.07c-.24-.03-.41-.03-.58-.03h-.82c-.38,0-1.06.03-2.08.1-.1.03-.17.03-.27.03h-.48c-.27,0-.44-.1-.55-.31.24.07.48.1.78.1.14,0,.31,0,.48-.03.17,0,.37,0,.61-.03.17-.03.34-.03.44-.03h.89l1.94.03c.51,0,.82,0,.89.03.17.03.34.03.44.07h.27c.17,0,.41-.07.71-.2M6.94,19.28l-1.05,2.28c-.1.31-.17.54-.17.78s.03.48.14.71c-.27-.31-.41-.54-.41-.78,0-.31.14-.75.41-1.33l.85-1.77.17-.2.03.1.03.2ZM23.57,22.89c-.37-.24-.71-.72-1.02-1.36L14.28,3.57c-.1-.27-.2-.44-.2-.51-.07-.07-.14-.17-.24-.34l.37.14,8.67,18.84c.1.24.24.44.34.61l.34.58ZM17.31,15.68h-8.61l-.14.07-.14-.07c.17-.14.37-.2.65-.2h7.72c.2,0,.37.07.51.2M5.99,18.03l.41.17.03-.03.17-.03.14.03c-.1.17-.14.27-.14.37v.14c.03.07.03.17.07.27-.92,1.74-1.39,2.86-1.39,3.37,0,.78.51,1.19,1.56,1.26.24.03.41.07.55.1.14.03.24.1.34.14-.31.14-.58.2-.82.2l-1.63-.14h-.71c-.2-.03-.44-.03-.72,0-.27,0-.58.03-.92.07-.51.07-.85.1-.99.1-.37,0-.54-.07-.54-.17,0-.03.07-.1.2-.14l.31-.1c.71-.2,1.22-.48,1.56-.78.37-.31.71-.85,1.06-1.6l1.46-3.23ZM7.31,15.1L13.03,3.16c.17-.37.31-.55.44-.55.1,0,.27.17.44.51l8.47,18.5c.51,1.16,1.33,1.8,2.38,1.9.68.07,1.02.17,1.02.34,0,.1-.2.17-.65.14h-.58l-1.77-.1-.75-.03h-.61c-.24.03-.54.03-.85.07-.24.03-.41.03-.58.07h-.34l-.88-.03c-.24,0-.34-.03-.34-.14,0-.07.1-.14.27-.17l.41-.07c.92-.17,1.36-.44,1.36-.88s-.1-.88-.31-1.26c.34-.41.51-.75.51-1.02s-.1-.54-.31-.78c.14-.2.2-.41.2-.65s-.07-.34-.2-.34l-.1.03-.24.03-.37.03-.41-.03-.27.07-1.33-2.93c-.17-.37-.51-.58-.95-.58h-7.79c-.24,0-.48.1-.71.27l-.88-.48ZM13.03,21.19c-.31-.99-.78-1.77-1.46-2.38-.71-.61-1.46-.92-2.28-.92-1.02,0-1.53.34-1.53.99,0,.31.17.48.51.58-.17.17-.31.24-.48.24-.41,0-.65-.34-.68-.99l-.24-.03c.07-.58.41-.95.99-1.12l.48-.14c.24-.07.34-.14.34-.24,0-.07-.07-.1-.17-.1-.17,0-.34.03-.51.14l-.89.44c-.31.17-.51.24-.61.24l-.24-.03s.03-.07.03-.17-.03-.14-.14-.14c-.03,0-.14.03-.27.07-.14.07-.24.1-.34.1-.2,0-.51-.07-.88-.24.37-.51.58-.78.61-.82l.17-.07.1-.1-.07-.1-.17-.14-.1-.14c.44-.17.68-.27.71-.27.1,0,.24.07.34.17.1.1.2.17.27.17.1,0,.17-.07.17-.2,0-.17-.17-.31-.48-.37-.68-.17-1.05-.61-1.16-1.33-.03-.1-.03-.2-.07-.27-.03-.1-.03-.17-.07-.2l.1-.1h.14l.27.07c0-.82.27-1.22.85-1.19l.65.07h.07c.1,0,.17-.03.24-.07l.14-.07c.1,0,.14.07.14.24s-.07.31-.17.37l-.17.07-.03.07.07.14.07.1c-.17.1-.31.17-.34.17-.07,0-.14-.03-.24-.14-.24-.2-.41-.31-.51-.31.03,0-.03.03-.17.07l-.03-.07s.1-.1.2-.17c.14-.07.2-.1.2-.07,0-.03-.03-.07-.14-.1l.07-.07-.03-.07c-.07,0-.17.07-.31.24-.1.17-.17.34-.17.58,0,.78,1.26,1.8,3.74,3.03.55.27,1.02.54,1.39.82.41.24.75.54,1.02.88.31.31.54.68.75,1.09.2.37.41.85.58,1.39l-.14.17c-.03.07-.1.14-.14.24M3.91,1.97c.85-.54,1.73-.82,2.72-.82,1.33,0,2.41.44,3.27,1.29s1.29,1.94,1.29,3.2c0,.31-.03.65-.14.99-.51.92-1.22,1.39-2.14,1.36h-.27c-.2,0-.31.03-.31.1,0,.1.07.14.24.14l.99-.07c.17-.03.37-.14.65-.31l.41-.31c-.82,1.6-2.04,2.42-3.67,2.42-1.22,0-1.87-.44-1.97-1.33l-.07-.14v-.07c-.07,0-.1.07-.1.2l.03.24.03.24.27.44-.34-.31c-.24-.44-.37-.89-.37-1.29,0-.17,0-.27.03-.31l.14-.44v-.14l-.03-.14c-.2,0-.31.37-.31,1.12,0,.27,0,.44.03.51l.14.48-.68-.65c-.1-.1-.24-.31-.41-.61-.27-.51-.41-.95-.41-1.33,0-.71.2-1.12.65-1.26-.1.1-.17.2-.17.31l.03.1c.07,0,.17-.1.27-.27.24-.41.44-.61.68-.61.1,0,.14,0,.17.03-.82.71-1.23,1.46-1.23,2.18,0,.54.1.82.34.82.1,0,.17-.07.17-.2,0-.1-.03-.24-.1-.41-.1-.2-.14-.37-.14-.51,0-.51.14-.78.41-.85h.17l-.03.14c0,.1.03.17.14.17.04,0,.1-.07.2-.17.24-.24.65-.41,1.22-.44-.14.48-.2.82-.2.99l.03.37c0,.07-.03.17-.1.27-.1.1-.14.2-.14.27,0,.1.07.14.2.14.03.03.03.14.03.24s-.03.27-.17.51c-.07.24-.14.44-.14.55,0,.2.17.44.51.75.1.1.24.17.34.17l.07-.03s-.03-.07-.14-.14c-.24-.1-.37-.27-.48-.48.58.37,1.16.54,1.8.54.31,0,.82-.1,1.46-.31.27-.1.41-.2.41-.31l-.14-.03-.27.07c-.27.1-.44.17-.54.17l-.34-.03h-.48c-.17,0-.27-.07-.27-.17l.03-.1.14-.2c.03-.14.07-.2.07-.17,0-.03-.03-.03-.14-.03-.31-.07-.58-.31-.82-.68-.1-.2-.24-.34-.41-.44.24-.17.48-.27.65-.27.1,0,.24.03.44.03.2.07.38.07.48.07s.17-.03.17-.1l-.03-.03-.1-.07-.03-.1.1-.1.14-.07.34-.07.48.03.44.17c.2.07.44.1.68.1.34,0,.65-.1.89-.37.27-.2.41-.51.41-.82l-.03-.1-.07.1c-.1.34-.27.61-.51.78.27-.71.41-1.16.41-1.36,0-.17-.03-.24-.14-.24-.03,0-.1.07-.14.17l-.1.27s-.1.17-.2.38c-.31.44-.61.65-.95.61h-.2c.07-.1.1-.17.1-.24,0-.1-.03-.14-.1-.14l-.1.03-.17.07-.61-.07-.24-.07h-.17c-.17,0-.31,0-.37.03l.03-.1.03-.07v-.17c.03-.27.17-.48.44-.65.17-.1.24-.14.24-.17s-.03-.1-.14-.1c-.1-.07-.14-.07-.14-.1,0-.1.1-.17.34-.31.2-.07.37-.14.48-.14l.51-.07c.41-.03.61-.34.61-.99l-.03-.14c0-.07,0-.17-.03-.27.24.24.34.44.34.61l-.03.14-.14.37-.03.1.03.07c.14,0,.24-.17.27-.51.03.07.03.2.03.37,0,.44-.2.78-.58.99-.17.1-.27.2-.27.27l.1.07c.1,0,.17,0,.2-.07.03,0,.17-.2.44-.51.17-.17.27-.44.27-.82,0-.34-.17-.71-.55-1.16l-.2-.2-.17-.07v.07s.07.1.2.41c-.99-.99-2.04-1.5-3.16-1.5-.82,0-1.67.24-2.59.75l-.1-.17ZM13.44,20.54c-.44-1.12-1.09-2.14-1.94-3.06-.51-.51-.75-.85-.75-1.05,0-.24.03-.34.14-.34l.07.03.14.07.1.07s.03-.07.14-.17c.1-.1.27-.17.44-.17.1,0,.17,0,.2.03.17.07.27.17.27.31-.03.03-.1.03-.2.03-.31.03-.44.17-.44.44,0,.2.2.58.61,1.16.85,1.19,1.26,1.97,1.23,2.42v.24ZM14.28,21.29c-.03-.24-.14-.44-.27-.58.31-1.12.71-1.97,1.19-2.52.48-.58,1.26-1.19,2.35-1.84l.44.85c-1.12.51-1.94,1.05-2.48,1.63-.58.61-.99,1.43-1.22,2.45M19.93,9.76l.07.17.07.17.07-.07.1-.1s.1-.03.2-.03c.27,0,.41.1.41.27l-.03.03h-.14c-.17-.03-.24-.07-.17-.07h-.03c-.37,0-.54.24-.54.68,0,.51.31.78.95.78.41,0,.75-.17,1.02-.51.27-.37.41-.78.41-1.29,0-.75-.51-1.6-1.5-2.55-.44-.44-.68-.82-.68-1.12,0-.54.27-.82.82-.82.34,0,.78.27,1.29.82.75.82,1.12,1.84,1.12,3.06,0,.71-.14,1.33-.41,1.9-.1.17-.14.34-.14.51,0,.14.03.24.07.27l.14.1.03.1c0,.07-.03.1-.14.1-.17,0-.24-.03-.27-.14l-.1-.2-.1-.03-.07-.1.07-.14.03-.2.27-.61c.1-.34.17-.75.17-1.22,0-.14-.03-.31-.07-.54l-.1-.51c-.03-.2-.1-.31-.2-.31-.03,0-.07.03-.07.14,0,.07.03.24.1.48.1.27.14.51.14.71,0,1.19-.24,1.94-.75,2.28l-.82.58c-.14.07-.24.1-.27.1l-.1-.07.03-.14.07-.14-.1-.03h-.31c-.44.03-.85-.31-1.16-.95h.34l.03-.03-.03-.1-.07-.17-.03-.1c0-.37.14-.71.37-.95M17.41,25.82l-.03.03c-.17,0-.24-.03-.24-.14l.07-.14c0-.1.03-.17.03-.24,0-.24-.17-.34-.54-.34h-.1c-.17.03-.34.03-.48.03h-.61c-1.19,0-1.8-.14-1.8-.44,0-.14,0-.24.03-.31l.03-.34v-.07c0-.17-.03-.24-.14-.24l-.07.1v.14c.03.82-.41,1.22-1.26,1.22-.1-.03-.17-.03-.27-.03h-.71c-.99-.03-1.5.24-1.57.75-.17-.17-.27-.34-.27-.44,0-.14.07-.27.2-.41.14-.14.2-.2.2-.24,0-.1-.03-.14-.14-.17.31-.27.55-.41.75-.41h.31c.1,0,.17-.03.17-.1l-.31-.51c.17-.07.31-.1.41-.1.34,0,.65.17.92.48.1.17.17.24.27.24.17,0,.27-.07.27-.24,0-.03-.03-.14-.1-.24l-.24-.31c-.1-.17-.17-.37-.17-.55,0-.1.1-.34.27-.78.1.1.2.17.24.2l.1.1.03.17c.03.1.07.14.14.14.03,0,.1-.14.14-.41l.03-.44c0-.07.07-.2.24-.44l.2-.37.27-.34.27.34.2.48c.17.31.24.51.2.61v.14c0,.1,0,.17-.03.2,0,.1.03.14.1.14.03,0,.1-.07.2-.17.1-.1.17-.17.24-.17.03,0,.07.07.1.2l.07.27.03.17c0,.34-.17.61-.54.85-.1.1-.17.2-.17.24,0,.17.07.24.24.24.07,0,.17-.07.27-.17.31-.31.58-.48.75-.48.07,0,.2.03.38.1-.07.14-.1.24-.1.31l.03.1.1-.03.1-.1h.37c.1,0,.2.03.31.14l.27.2c-.1.1-.14.17-.14.27l.1.07c.41.1.61.31.61.58,0,.1-.07.24-.2.41l-.07.07-.03.07.03.1ZM22.89,15.07l-.07-.17c1.33-1.26,2.01-2.35,2.01-3.26,0-.58-.24-.89-.72-.89-.34,0-.51.17-.51.48-.1-.1-.17-.2-.17-.27,0-.17.1-.34.24-.48.2-.2.37-.27.54-.24h.07l.27.03.1-.03-.07-.14v-.03l.03-.1c.1-.31.2-.48.31-.48.03,0,.03.07.1.2,0,.14.03.24.07.27l.24.34c.1.17.14.41.14.71,0,1.33-.85,2.65-2.59,4.05M23.67,25.1l-.03.24c-.99.38-1.8.58-2.52.58-1.36,0-2.41-.34-3.23-1.02-.75-.71-1.16-1.63-1.16-2.79,0-.61.1-1.12.34-1.56.24-.41.51-.61.82-.61l.2.03c.1,0,.17-.03.17-.1,0-.03-.03-.07-.14-.07s-.14,0-.17.03h-.31c.24-.2.51-.31.85-.31.17-.03.31,0,.44.14.14.14.27.24.44.27l.07-.07c0-.27-.37-.44-1.12-.51.24-.24.58-.31,1.05-.27h.92l-.03.31-.14.17-.07.17.1.14c.17.14.24.31.24.55,0,.2-.17.51-.48.88l-.1.14c-.03.07-.1.14-.14.24-.2-.07-.34-.2-.37-.41-.03-.1-.07-.17-.1-.17s-.1.03-.17.14c-.1.07-.17.1-.2.1-.1,0-.2-.17-.24-.48-.03-.41-.27-.61-.71-.61-.17,0-.37.1-.54.24-.17.2-.27.34-.27.44.03,0,.1-.07.2-.17.1-.14.17-.2.2-.24l.2-.1-.24.27-.07.17.1-.07.2-.17c.07-.03.17-.1.31-.2l.14.03c-.68.44-1.02,1.05-1.02,1.77,0,1.02.37,1.87,1.05,2.48.75.68,1.63.99,2.72.99.78,0,1.7-.2,2.79-.58M2.92,24.93c.17.03.31.1.44.14l.41.1c.58.31,1.26.48,2.01.48.34,0,.68-.07,1.02-.14.31-.14.61-.24.85-.41.24-.17.44-.34.61-.54.17-.24.24-.44.24-.68,0-.58-.27-.88-.82-.88h-.2c-.1.03-.2.03-.31.07.03-.1.03-.2.03-.27l.03-.14-.03-.07h-.17c-.1.03-.24-.07-.37-.27-.14-.17-.27-.31-.44-.41.37-.31.65-.48.78-.54.2-.03.31-.07.34-.07h.03s-.07-.14-.17-.31h.17c.31-.03.65.17.95.61l.48.58.2.44s.03.07.14.1h.1c.07,0,.1-.03.1-.14,0-.17-.17-.41-.48-.71-.44-.51-.68-.88-.68-1.05l.03-.14c0-.07,0-.17.03-.27.1.03.2.07.24.07l.1.03.03-.03s-.03-.14-.07-.31c-.07-.17-.1-.31-.1-.41,0-.34.24-.78.68-1.29l.24.51.27.44.34.51.1.14h.03l.07-.1.14-.07s.03.03.03.14l.03.24c.03.1.03.2.07.27v.14c.1.54.17.82.14.85-.03.17-.07.31-.1.37l.1.1.07-.03.14-.07h.17c-.24.37-.37.58-.41.61,0,.1-.03.24-.14.44-.31.92-.85,1.63-1.7,2.14-.85.54-1.84.82-2.99.82-.88,0-1.67-.24-2.38-.71l-.1-.03-.07.07.03.24c0,.07-.03.14-.14.24-.1-.24-.17-.38-.24-.44l.07-.34ZM4.15,2.24c.78-.44,1.53-.65,2.24-.65,1.39,0,2.11.41,2.14,1.23-.03-.03-.07-.03-.17-.03l-.1.03.07.2c.03.14.07.24.07.34,0,.17-.1.34-.31.54-.03-.1-.07-.2-.14-.24l-.03-.07-.1.03-.17.07-.1.03c-.41,0-.68-.24-.78-.68-.1-.44-.31-.68-.58-.68-.24,0-.34.07-.34.24l.03.27c-.17,0-.27-.1-.27-.27,0-.31.2-.48.58-.48.27,0,.48.1.58.31l.24.38c.1.24.24.34.41.34.24,0,.34-.1.34-.34,0-.68-.58-1.02-1.74-1.02-.37,0-.92.17-1.63.48l-.24-.03ZM23.74,7.35l-.31.44-.03-.2-.03-.07c0-.07.14-.14.37-.17M4.73,3.3c-.1-.24-.27-.37-.48-.37-.34,0-.78.44-1.29,1.29-.24.44-.51.65-.85.65-.37,0-.58-.24-.58-.68,0-.27.17-.68.48-1.19.24-.44.37-.78.37-.99,0-.44-.17-.65-.48-.65s-.44.14-.44.44c0,.14.07.27.17.44s.17.27.17.37v.1c-.03.24-.17.38-.34.38l-.1-.1c.1-.03.17-.14.17-.24s0-.17-.03-.2l-.17-.27c-.1-.1-.14-.24-.14-.44,0-.51.24-.75.71-.75.37,0,.61.17.75.51.03.1.07.14.1.17.03,0,.14-.07.24-.17.03.1.03.2.07.27v.17c0,.31-.07.58-.17.75l-.37.44-.2.34c-.07.1-.1.2-.1.24,0,.1.03.14.1.14l.14-.07c.17-.24.24-.37.24-.48.1-.1.17-.17.2-.27l.14-.17.14-.34c.03-.17.24-.27.61-.31v.14c0,.1.03.14.1.14h.03l.14-.07s.1-.03.2-.03c.48,0,.72.17.72.55,0,.1-.07.2-.24.27M15.2,2.89c.31.34.54.51.72.51.24,0,.48-.24.78-.75.24-.37.48-.54.71-.54.44,0,.68.24.68.68,0,.14-.07.31-.2.54-.31.68-.48,1.12-.48,1.33,0,.44.17.68.54.68l.2-.07c.14-.03.2-.07.24-.1v.1c-.03.2-.24.31-.58.31-.41,0-.65-.17-.68-.48l-.03-.31-.1-.1s-.1.03-.2.14c-.07-.17-.1-.31-.1-.41,0-.14.07-.31.17-.51.14-.2.24-.44.31-.75.17-.17.24-.31.24-.41s-.03-.14-.14-.14c-.17,0-.24.17-.27.51-.1.51-.37.78-.88.82l-.03-.17h-.14c-.51,0-.75-.27-.75-.78v-.1ZM18.4,2.58l-.2-.1.03-.1c0-.1-.07-.2-.27-.34l-.24-.17s.07-.07.17-.1h.03c.37-.03.54.17.54.54l-.07.27ZM24.18,2.11v.31c-1.09-.75-2.14-1.12-3.13-1.12-.88,0-1.7.2-2.48.61l-.14-.14c.65-.48,1.53-.71,2.72-.71,1.05,0,2.04.34,3.03,1.05M19.97,7.41l.07.07.07.03.03-.14v-.03l-.03-.17v-.03l.1-.17s.07.07.1.17c.17.34.2.51.17.51.1,0,.14-.07.14-.2v-.07c.14.17.24.27.34.34v.1c0,.17-.03.34-.14.51l-.41-.31-.14.07h-.17c-.17-.1-.27-.27-.27-.44,0-.07.03-.14.14-.24M19.66,5.82c-.24.1-.34.2-.34.31l.1.07c.1,0,.17-.03.27-.14l.17-.17.03.1c0,.07-.03.14-.14.24l-.37.31-.24.1-.07.14.07.07c.14,0,.31-.1.54-.34l.24-.24v.14c-.07.1-.1.2-.1.24v.03h.03l.17-.07c-.03.34-.07.54-.17.65l-.34.31-.17.2-.1.03-.03-.03c-.03-.07-.07-.1-.1-.2-.07.03-.17.03-.31.03h-.78s-.03-.14-.03-.24c0-.27.1-.44.34-.51.24-.07.34-.1.34-.14,0-.07-.07-.1-.17-.1l-.14.03-.17.03c-.1,0-.14-.07-.14-.17l.07-.34c.1-.37.34-.58.65-.58.24,0,.54.07.88.24M21.22,5.07c-.03-.17-.07-.24-.17-.24l-.07.1.03.1h-.17c0-.17-.03-.24-.14-.24l-.07.1.03.14c-.27-.07-.48-.2-.54-.41-.14-.17-.2-.27-.24-.27-.07,0-.1.03-.1.14l.03.07.14.14.17.31.2.17-.1.07c-.1-.17-.2-.24-.31-.24l-.03.03c0,.14.07.24.2.34l-.07.03c-.17-.03-.27-.07-.24-.07l-.1.03c0,.07.07.14.24.2-.17.03-.27.07-.24.07-.31,0-.61-.2-.92-.58-.24-.31-.34-.58-.34-.82l.1-.07h.1l.14.03h.03l.1-.07-.07-.1c-.17-.24-.27-.51-.27-.82,0-.24.07-.48.24-.72.2.27.48.44.78.48.34.03.54.1.61.14l.14.1.1-.1.07-.14.2-.14c.1.1.2.2.27.31.07.1.14.17.17.2l.31.24c.14.14.2.34.2.61,0,.41-.14.68-.44.85M22.41,5.78c-.03-.1-.07-.14-.1-.14l-.1.03-.03-.07c.17-.03.24-.1.24-.2l-.1-.03c-.07.03-.2.03-.37.07l-.07-.1.34-.03.31-.17.2-.1.03-.1-.07-.07s-.17.07-.37.17c-.17.1-.34.17-.48.17-.1,0-.17-.03-.27-.1l.07-.07.17.03c.27,0,.41-.07.41-.2l-.07-.03h-.03l-.17.03h-.2l.1-.1c.17,0,.27-.03.27-.1l-.17-.1-.1.03s.07-.1.17-.2l-.07-.03-.07-.07.1-.17-.07-.07c.17-.24.37-.37.58-.37.14,0,.24,0,.31.03v.17l.07.1h.03c.07-.03.14-.03.24-.03.03,0,.14.03.24.07.1.03.34.14.71.24-.1.37-.24.61-.37.65l-.27.1-.07.1.1.1.1.1c0,.1-.1.2-.34.34-.24.14-.41.2-.51.2.03,0-.07-.03-.31-.07M23.94,6.97l-.14-.34c.1-.17.14-.44.14-.78v-.34c-.03-.1-.03-.24-.07-.37l.24-.31c.1.31.14.58.14.88,0,.34-.1.75-.31,1.26M25.41,9.93c.03-.1.03-.2.03-.31.03-.1.03-.17.03-.24,0-.58-.24-.88-.71-.88-.51,0-.75.24-.75.71,0,.1.03.24.14.41-.27-.17-.41-.34-.41-.58,0-.54.27-.82.85-.82.68,0,1.02.38,1.02,1.12,0,.1-.07.34-.17.68l-.03-.1ZM25.58,23.4l-.54-.14.31-.44.37-.61c.07-.1.1-.2.1-.31,0-.14-.03-.2-.1-.2-.1,0-.17.1-.17.34-.03.44-.27.68-.71.71h-.41c-.1,0-.14-.03-.14-.07l.03-.14-.14-.03c-.1-.03-.2-.07-.31-.14-.14-.07-.27-.17-.34-.27-.14-.14-.17-.31-.17-.51,0-.27.17-.51.48-.71.17-.1.24-.2.24-.34,0-.07-.03-.14-.14-.2.14-.03.2-.07.17-.07.27,0,.38.14.34.37,0,.14-.07.24-.17.31l-.34.24c-.17.14-.24.27-.24.41v.1c.1.31.31.44.65.44.31,0,.55-.17.82-.54.2-.37.34-.78.34-1.22,0-.78-.17-1.43-.51-1.97-.07-.1-.14-.24-.24-.34l-.31-.37s-.17-.14-.38-.2c-.17-.14-.27-.24-.27-.34l-.03-.14c0-.07-.07-.17-.24-.34.78.34,1.4.88,1.91,1.7.48.75.71,1.6.71,2.52,0,.85-.2,1.67-.58,2.52M19.69,25.24c-1.43-.37-2.14-1.09-2.14-2.18,0-.38.07-.61.24-.78.24-.31.44-.48.54-.48.07,0,.1.07.1.2v.03c0,.1.03.17.07.17h.17l.27-.03c.24,0,.34.17.34.48,0,.17-.1.31-.31.48v-.1c0-.31-.14-.44-.41-.44-.44,0-.65.24-.65.75,0,.65.41,1.19,1.23,1.63.1.07.27.17.54.27M25.71,10.88c-.03-.1-.03-.17-.07-.27,0-.1-.03-.17-.07-.27.2-.68.31-1.36.31-2.04,0-1.39-.31-2.11-.88-2.11-.1,0-.2.07-.27.2-.1-.1-.17-.2-.2-.27,0-.14.07-.24.24-.31l.24-.1s-.07-.1-.24-.2c-.17-.07-.24-.17-.24-.31.03-.03.14-.07.27-.07.37,0,.65.27.85.85.07.24.14.34.2.34.03,0,.07-.03.07-.14,0,.03-.03-.07-.07-.24-.17-.44-.41-.72-.68-.89-.34-.2-.51-.44-.51-.75l.03-.07h.17l.1-.03-.1-.14-.27-.17c-.17-.1-.24-.24-.24-.41l-.03-.37-.07-.27h.1c.1,0,.2.03.27.07l.17.14.03-.07-.03-.1-.17-.14c-.14-.1-.2-.27-.2-.51,0-.37.1-.61.31-.65h.14c.07-.1.14-.17.24-.31.1-.07.24-.14.44-.14.37,0,.54.14.54.41,0,.1-.03.2-.1.31-.1.31-.17.48-.17.51,0,.17.07.34.24.58-.37-.07-.54-.24-.54-.55,0-.1.07-.24.2-.41.14-.17.2-.27.2-.34,0-.17-.1-.27-.31-.27-.44,0-.65.34-.65.99,0,.31.07.58.17.85l.27.48.17.37c-.37-.24-.54-.37-.48-.37l-.07.03s.14.2.41.41c.24.27.44.65.54,1.16l-.17-.27-.2-.2-.07-.07-.1-.07-.07.07.07.14.17.1c.37.27.54.85.54,1.77l.03,1.46c.03.58-.14,1.46-.48,2.65M21.94,12.69c-.34.07-.51.24-.51.54,0,.03.03.14.07.27l.14.2.03.14c0,.07-.07.2-.17.38l-.1-.03-.24.17c-.14.14-.31.2-.51.2-.44,0-.68-.27-.68-.82,0-.14,0-.2.03-.24l.1-.37.03-.14c0-.31-.14-.44-.44-.44-.07,0-.17.03-.31.1.17-.17.34-.27.44-.27s.24.07.37.17c.17.1.24.24.24.34,0,.07-.03.2-.1.41-.1.2-.14.37-.14.51,0,.34.14.51.44.51s.48-.14.48-.41c0-.07-.03-.17-.1-.34-.1-.17-.14-.31-.14-.41,0-.2.07-.31.2-.31l.03.07-.03.1.07.07s.03-.03.07-.14c.07-.24.2-.34.38-.34l.34.07ZM22.92,15.2c1.16-.82,2.01-1.87,2.59-3.16.1-.27.24-.41.41-.41.14,0,.24.1.27.31-.24,0-.54.31-.88.92-.65,1.26-1.46,2.04-2.38,2.35M20.2,15.31c1.4-.41,2.11-1.02,2.11-1.8,0-.24-.14-.48-.41-.65.03-.03.1-.03.2-.03h.07c.37.03.58.31.58.75l-.03.17c0,.07,0,.17-.03.27v.1l.03.03.24-.03.1.03-.03.14c-.17.34-.34.54-.51.61l-.1.07-.07.1.1.07h.1l.14.03c-.17.27-.37.44-.54.51s-.58.14-1.19.17l-.44.03-.31-.58ZM20.58,16.09c.37-.07.65-.1.85-.1.78,0,1.36.2,1.7.61l.2.27.07.07.03.07s-.2.1-.58.14l-.14.03c.44.03.71.31.85.85l.1.48.03.14c0,.1-.03.14-.14.14-.03,0-.1-.03-.2-.07-.1-.07-.14-.1-.17-.1s-.07.07-.07.2c-.03.44-.27.68-.68.68-.14,0-.24,0-.27-.03.34-.2.51-.51.51-.95,0-.41-.17-.78-.51-1.16-.37-.34-.82-.55-1.36-.65l-.24-.61ZM1.43,4.76c.1.1.21.17.31.2.27.1.41.17.41.2,0,.07-.03.1-.14.1-.41,0-.61-.1-.61-.34,0-.1,0-.14.03-.17M15.37,2.89c-.1-.1-.14-.17-.14-.24,0-.1.07-.24.2-.37.1-.14.24-.2.38-.2h.41c.14,0,.24-.1.27-.31v-.07c0-.34-.17-.48-.48-.44h-.07c-.24,0-.38.03-.41.14l-.31.37c-.1.14-.24.2-.41.2-.1,0-.17-.03-.17-.07l.03-.1.41-.2.27-.31c.1-.1.31-.17.61-.17.54,0,.82.2.82.65,0,.24-.31.44-.95.58-.31.07-.44.24-.48.55M5.41,9.83c-.78-.17-1.33-.48-1.63-.85l-.78-.92c-.31-.34-.58-.51-.82-.51-.17,0-.27.07-.27.17v.17l-.07.03c-.1,0-.14-.1-.14-.27v-.07c.03-.14.17-.2.34-.24v-.1c0-.1.07-.17.17-.17.24,0,.51.17.75.51l1.16,1.5s.17.14.38.27c.24.14.54.31.92.48M2.45,6.12l-.07-.03c-.24,0-.37.1-.48.34l-.2.75.1-.75c.03-.44.2-.68.48-.68.2,0,.31.14.31.37v.03l-.14-.03ZM2.28,10.85h-.03c-.17-.44-.24-.82-.24-1.12,0-.58.1-.85.31-.85l.07.03.03.1h.14l.34-.24.37.1-.07.2.31.27c.07.1.1.2.1.27,0,.1-.07.17-.17.2-.17-.24-.34-.34-.51-.34-.44,0-.68.34-.65,1.05v.31ZM7.07,10.17l-.31.14-1.22.44-.31.17-.27.31-.17.07-.07-.07c0-.37.78-.71,2.35-1.05M4.63,11.73c0,.17-.1.27-.31.27-.17,0-.24-.1-.24-.27,0-.2.1-.31.31-.31.17,0,.24.1.24.31M1.46,5.44l.34.1-.24,1.06.03,2.42c.31.85.48,1.46.48,1.87l-.03.14-.24.14c-.1-.07-.2-.1-.27-.1l-.21.1v-.1c-.03-.1.1-.17.41-.17v-.14c0-.27-.07-.61-.2-1.02-.24-.78-.34-1.43-.34-1.97,0-.31.03-.61.07-1.02.03-.34.1-.78.21-1.29M2.79,11.87l.03.1-.2-.58-.07.03.1.24.14.2ZM4.86,16.05l-.31.1-.17.07-.51.24c-.1.03-.2.07-.24.1h-.17c-.31,0-.48-.07-.51-.24l.07-.07.03-.2c0-.07.07-.1.17-.1h.1l-.07.17c0,.17.1.24.34.24h.1l.99-.31h.17ZM3.27,12.58h-.1c.1-.44.17-.78.17-.99,0-.34-.17-.51-.51-.51-.41,0-.75.24-1.05.68s-.44.99-.44,1.56c0,.51.17.99.51,1.43l-.14.1c-.31-.44-.48-.95-.48-1.5,0-.65.17-1.22.48-1.7.31-.48.71-.71,1.16-.71s.65.24.65.68c0,.31-.07.65-.24.95M2.38,11.53c.85,1.5,1.94,2.82,3.23,4.01l-.24.07-1.09-1.02c-.34-.31-.58-.55-.75-.78-.17-.2-.37-.48-.61-.82l-.75-1.33.2-.14ZM4.69,13.26c-.24.07-.34.17-.34.34,0,.2.17.48.51.85v.14c-.44-.41-.68-.75-.68-.99s.1-.37.34-.37l.17.03ZM9.22,9.49c-.17.14-.37.27-.51.37-.2.1-.34.2-.51.31-.71.34-1.05.68-1.05,1.05,0,.31.17.48.48.48l.14-.03.17-.24.14-.14c.1-.07.17-.1.24-.1s.1.03.14.14h-.07c-.1,0-.2.07-.27.2l-.24.51c-.03.1-.14.14-.37.14-.38,0-.61-.2-.75-.65h-.03c-.07,0-.1-.1-.1-.27,0-.44.44-.85,1.33-1.22l1.29-.54ZM2.48,13.81h.24c-.65,1.26-.95,2.28-.92,3.1v.38l-.17-.03v-.61c-.03-.54.27-1.5.85-2.82M5,15.58l-.37-.2c-.68-.61-1.16-1.09-1.43-1.43-.31-.34-.54-.51-.71-.51-.24,0-.37.14-.41.44-.14-.1-.2-.2-.2-.37,0-.27.14-.41.37-.41.2,0,.48.14.78.41.75.95,1.39,1.63,1.97,2.07M2.31,15.31l.03-.2c.44.17.88.31,1.33.41.48.1.99.24,1.5.34-.48-.03-.95-.1-1.43-.2-.48-.1-.95-.2-1.43-.34M3.37,17.55l-.48-.37.1-.07.48.34-.1.1ZM3.13,17.65c-.85.92-1.26,1.73-1.26,2.48,0,.1,0,.17.03.2l.27,1.05.27.31.17.03-.03.07.2.2s.07.14.03.27l-.14-.03-.1.1v.07l.2.17c.07.03.1.14.07.27v.17h-.14l-.34.03-.2-.07h-.03c-.07,0-.14.03-.24.14-.03-.1-.1-.2-.14-.31-.03-.1-.07-.17-.1-.27-.1-.48-.2-.71-.24-.71l-.1.03-.07-.95.17-1.23.21-.58-.14-.1-.1.07-.1-.03v-.2h.1c.27,0,.48-.17.65-.54.1-.24.37-.51.75-.82l.34.17ZM4.69,16.9l-.1.17c-.31.24-.58.41-.78.58s-.37.31-.48.51c-.1.14-.2.34-.27.51-.03.17-.07.41-.1.68-.07-.1-.1-.17-.1-.24,0-.75.61-1.5,1.84-2.21M2.79,11.84l-.2-.41.03-.03.17.44ZM2.08,16.73l.37.1-.07.07-.34-.03.03-.14ZM3.33,17.01c.48-.31,1.02-.55,1.67-.75l.2.2c-.58.24-1.09.48-1.6.75l-.27-.2ZM2.18,16.53c.1-.17.2-.24.31-.24.24,0,.34.14.34.37,0,.17-.03.38-.14.55l-.14-.07c.1-.17.14-.27.14-.37,0-.2-.07-.31-.24-.31l-.07.03-.1.03h-.1ZM1.36,16.87l.07.14-.07.27c0,.14.24.24.68.27v.07l-.27.03c-.38,0-.55-.14-.55-.44,0-.14.03-.24.14-.34M3.71,18.06l.14-.1.34.85s.03.07.03.17c0,.58-.27.85-.82.85-.31,0-.65-.17-1.02-.54l.07-.17c.34.41.65.61.88.61.44,0,.68-.24.68-.75,0-.2-.1-.51-.31-.92M4.49,17.69l.14.03c-.07.2-.1.37-.1.51,0,.31.14.48.41.48.17,0,.24-.03.24-.14l.03-.27h.03s.1.07.14.17v.07c0,.24-.07.34-.2.34l-.27.03-.03.03-.1.07c-.14,0-.27-.1-.37-.27-.1-.17-.17-.34-.17-.48s.1-.34.27-.58M3.5,20.78c.17,0,.24.14.24.41,0,.24-.1.34-.27.34s-.27-.14-.27-.37.1-.37.31-.37M2.28,17.18s.1.14.2.24l-.14.1c-.1-.1-.14-.17-.14-.24l.07-.1ZM1.8,18.16l-.07-.24h.14l.03.17-.1.07ZM16.56,4.97l.24.1c.31,2.28,1.05,3.44,2.18,3.44.34,0,.58-.17.68-.51l.03.1.03.2.03.07c0,.1-.03.17-.1.2l-.27.17-.07.03.1.14c.31.1.58.17.82.17.1,0,.61-.1,1.53-.27l.03.2c-.65.2-1.16.31-1.5.31-2.18,0-3.43-1.46-3.74-4.35M17.04,5.34c.1.72.31,1.06.61,1.06.03,0,.14-.07.24-.2l.03.14c0,.17-.1.27-.31.27-.37,0-.58-.41-.58-1.26M12.69,2.45l.07.27c0,.14-.07.27-.17.38l-.24.24v.14l.07.03c0,.17-.24.24-.68.24-.37,0-.75-.31-1.19-.95-.24-.38-.51-.65-.88-.82l-1.22-.71,1.53.75.82.68c.31.27.61.41.99.41.48,0,.78-.2.92-.65M12.86,2.79v-.03c0-.44-.14-.68-.41-.68-.14,0-.24.07-.27.17l-.07.17c-.03.07-.14.1-.27.1-.17,0-.34-.03-.51-.14.1-.1.14-.17.14-.24l-.03-.03-.03.03c-.24.03-.48,0-.65-.17l-.2-.2-.07-.07-.07-.07.1-.07h.07l.1.07.2-.07c.17,0,.41-.07.71-.1l.03-.07-.07-.1c.07-.03.2-.03.44-.03.65,0,.95.31.95.88,0,.2-.03.41-.1.65M3.33,2.07l.27-.37.03-.07.03-.14c0-.1-.07-.17-.2-.17.03,0-.03.03-.17.07.03-.17.14-.27.27-.27.24,0,.34.1.34.31,0,.17-.2.41-.58.65M7.59,5.03c-.24.14-.41.2-.44.2-.2,0-.41-.07-.61-.17-.24-.1-.34-.17-.37-.17l-.07.03-.03.07h-.07l-.31-.03s-.17-.07-.41-.2c-.24-.14-.44-.2-.68-.2-.38,0-.75.14-1.06.37-.03.1-.1.14-.2.17l-.03-.07c0-.1.1-.24.31-.34l.48-.24.1-.07-.1-.03c-.1,0-.27.03-.44.14.24-.31.61-.44,1.19-.44h.14c.31.07.48.1.54.1l.1-.1c0-.1-.27-.17-.78-.17-.2,0-.44.03-.72.1.24-.24.41-.34.58-.31h.31l.1-.07-.07-.1c.24-.03.37-.07.44-.1.31-.07.54-.07.75-.03.24.03.37.07.44.1l.07.03-.03.07-.1.03-.03.1c0,.07.1.14.27.17.1.03.17.1.2.2l.14.48.24.27c.07.1.14.17.17.2M16.94,23.77l-.03-.07c-.34-.65-.51-1.23-.51-1.73l.03-.58c.03-.78-.14-1.16-.48-1.16-.24,0-.38.17-.44.51-.17-.07-.27-.17-.27-.34,0-.14.07-.27.24-.41.17-.14.24-.24.27-.27l.1-.2h.27l.34.24.24-.1c.1.27.14.51.14.75l-.03.2-.2,1.02c-.03.07-.03.2-.03.44,0,.27.14.85.37,1.7M14.42,21.5c.24-.99.58-1.73,1.02-2.28.78-.92,1.36-1.36,1.8-1.33l.68.03h.17l.07.03c0,.1-.07.2-.14.27l-.17.1.03.07.14.14c.07.03.1.1.1.2,0,.17-.07.24-.17.24l-.2-.03-.1.07c-.17.24-.34.34-.54.34-.07,0-.17-.07-.27-.17.34,0,.51-.14.51-.37,0-.31-.14-.44-.37-.44-.85,0-1.7,1.05-2.55,3.13M14.11,19.86l.48-1.46.65-1.05c.07-.1.1-.24.1-.41,0-.41-.2-.61-.58-.61s-.54.2-.54.58c0,.1.1.27.34.51l.03.03c0,.31-.17.51-.51.61v-.1c.2-.07.31-.17.31-.31,0-.07-.07-.17-.2-.27-.2-.14-.31-.27-.31-.41,0-.31.07-.58.2-.75l.1-.1-.1-.07.1-.14h.1l.1.03.65.03.48.2.14.03.07-.07.1.1c.07.03.1.14.1.24,0,.34-.17.72-.51,1.16l-.41.51c-.14.2-.27.37-.37.54-.17.24-.34.61-.51,1.16M13.81,20.37l-.17-.07c-.37-1.22-.68-2.65-.92-4.32l.2-.03c.1.71.2,1.43.34,2.14.14.71.31,1.5.54,2.28M15.24,23.26l.03-.61-.14-.61v-.07c0-.14.07-.27.17-.48.14-.14.27-.24.44-.24.24,0,.38.14.38.44l-.03.1-.17.37.03.31.2.24.03.07-.1.1c-.31,0-.48-.17-.48-.51,0-.07.03-.17.07-.27.03-.14.07-.2.07-.24,0-.1-.03-.14-.14-.14-.17,0-.24.14-.24.37l.07.75-.2.41ZM12.86,21.56c-.31-.92-.71-1.36-1.29-1.36-.41,0-.61.17-.61.54v.14c.03.07.03.17.07.27-.24-.17-.34-.34-.34-.58,0-.03.03-.1.07-.24l.24-.38v-.1l-.14-.07-.07-.24c.78.1,1.29.31,1.6.58.31.31.44.78.48,1.43M11.19,21.19l.24.03.31-.24h.07c.17,0,.27.1.31.27l-.17-.03-.1.03c-.37.07-.51.1-.41.1-.1,0-.17-.07-.24-.17M19.08,25.78c-.24-.07-.44-.1-.55-.1s-.14,0-.17.03l-.24.14-.03.03c-.07,0-.1-.07-.1-.17,0-.17.1-.2.27-.17h.07l.31.1c.14,0,.27.07.44.14M10.75,25.82l.44-.17c.17-.1.34-.14.51-.2.14,0,.27-.03.41-.07l-.17.14-.07.14.31-.1.37-.17s.1-.03.2-.03c.2,0,.31.03.31.1l-.1.07c-.44.27-.85.41-1.22.41-.24,0-.54-.03-.99-.1M14.93,25.3c.44.07.95.24,1.57.51-.24.1-.51.14-.82.14-.34,0-.71-.1-1.16-.31-.17-.07-.31-.14-.31-.14l-.07-.1.27-.07c.17,0,.37.07.61.17.24.14.37.2.41.2v-.03c0-.17-.17-.31-.51-.37M8.13,25.64c.24-.17.48-.24.75-.24.17,0,.27.07.27.24,0,.1-.07.14-.2.17l.03-.14c0-.1-.1-.17-.27-.17-.24,0-.41.03-.58.14M4.32,25.2c.34.1.68.14,1.05.14.51,0,.75-.17.75-.54v-.03l-.07-.17c.24.1.37.24.37.34,0,.31-.34.48-1.02.48-.31,0-.68-.07-1.09-.2M2.08,24.69l.54-.03c.03.07.03.17.03.34s-.07.27-.2.34v-.03c0-.14-.03-.2-.14-.2s-.14.03-.14.1l-.03.34c-.03.24-.17.34-.41.31h-.2c.31-.38.51-.75.54-1.16M2.86,24.59c.17-.03.27-.03.41-.03l.24-.03c.17,0,.24,0,.27.03l.41.14h.38c-.1.17-.24.24-.44.24l-.1-.03s-.1-.03-.2-.03l-.1.1c-.27-.03-.54-.14-.85-.37M11.09,23.03c-.2,0-.31-.14-.31-.41,0-.31.17-.48.54-.48.24,0,.37.17.44.48.03.07.03.17.03.27,0,.14,0,.24.03.31l.27.34v.17c-.17-.1-.27-.24-.31-.41-.03-.17-.1-.27-.1-.37-.07-.1-.07-.17-.1-.2-.1-.17-.2-.24-.37-.24-.14,0-.2.07-.2.24,0,.03.03.14.07.31M21.43,25.37l-.2.07h-.14c-.51,0-.78-.2-.78-.58,0-.2.14-.31.44-.31.14,0,.31.03.48.1h-.2c-.24-.03-.37.07-.37.31s.27.37.78.41M21.9,25.24l.03-.2-.14-.14-.07-.14-.03-.03.1-.2c.31.24.58.37.78.37l.14-.03.85-.27.17-.03.07.07-.1.17c-.31.24-.68.37-1.16.41h-.27c-.14,0-.27,0-.37.03M24.18,24.59l.07.44-.14.27-.1.31c-.14-.1-.2-.2-.2-.37s.14-.41.37-.65M25.92,25.37c-.17.17-.31.24-.44.24-.17,0-.37-.14-.61-.41-.03-.1-.1-.14-.14-.1h-.1s-.07-.07-.1-.17l-.03-.27.61-.03c.07.51.34.75.82.75M13.33,25.92l-.03-.17.03-.1.2.03.24-.07-.03.27-.41.03ZM23.37,17.31l.17-.03c.75.51,1.12,1.02,1.12,1.5,0,.17-.1.31-.31.41.1-.17.14-.31.14-.44,0-.31-.38-.78-1.12-1.43M5.92,6.84l.1.17c0,.1-.07.17-.2.17-.07,0-.1-.03-.1-.14,0-.14.07-.2.2-.2M7.01,6.43c.1,0,.14.07.14.17s-.07.17-.17.17-.17-.03-.17-.14c0-.14.07-.2.2-.2M7.55,6.33c.1,0,.14.03.14.14s-.07.17-.2.17c-.1,0-.14-.03-.14-.14s.07-.17.2-.17M7.96,6.19c.17,0,.24.03.24.14,0,.07-.03.1-.14.07-.17,0-.24-.03-.24-.1s.03-.1.14-.1M8.71,6.53c-.1,0-.17-.03-.17-.14,0-.07.07-.1.17-.1.14,0,.2.03.2.1,0,.1-.07.14-.2.14M5.88,6.36c.1,0,.14.03.14.14s-.07.14-.17.14l-.1-.1c0-.1.03-.17.14-.17M6.33,6.33v-.1l.1-.07c.17,0,.24.07.24.2s-.07.2-.24.2c-.1,0-.17-.03-.17-.1l.07-.14ZM5.95,5.78c.17,0,.27.07.27.17,0,.07-.1.14-.27.17h-.03c-.14,0-.2-.03-.2-.14,0-.14.07-.2.24-.2M7.01,5.75c.17,0,.24.1.24.27,0,.1-.07.17-.24.17s-.24-.07-.24-.2c0-.17.07-.24.24-.24M4.56,5.37c0,.1-.07.17-.17.17-.07,0-.1-.07-.1-.17s.07-.17.17-.17c.07,0,.1.07.1.17M4.97,4.93c.14,0,.2.07.2.24,0,.1-.07.17-.24.17-.14,0-.2-.07-.2-.2,0-.17.07-.24.24-.2M5.65,5.24s-.03.07-.14.07l-.1-.07c0-.07.03-.1.14-.1l.1.1ZM6.12,5.27c.24,0,.34.07.34.2,0,.1-.07.17-.24.17s-.27-.07-.27-.2c0-.1.07-.17.17-.17M6.9,5.37c.1.03.14.07.14.14s-.07.1-.17.1-.17-.03-.17-.1c0-.1.07-.14.2-.14M11.16,3.88c.31.51.51.75.65.75.1,0,.17,0,.2-.03-.07.2-.17.31-.27.31-.31,0-.48-.34-.58-1.02M14.49,2.11c.17,0,.24.07.24.2,0,.1-.07.17-.24.17-.1,0-.17-.03-.17-.14s.07-.2.17-.24M13.81,2.07c.17,0,.27.07.27.24,0,.1-.07.14-.2.14-.17,0-.24-.07-.24-.2,0-.1.07-.17.17-.17M14.08,1.6c.17,0,.27.1.27.27,0,.1-.1.17-.27.17-.14,0-.2-.07-.2-.2,0-.17.07-.24.2-.24M13.44,1.43c.14,0,.2.07.2.24,0,.1-.07.17-.2.17s-.2-.07-.2-.2.07-.2.2-.2M14.05,1.12c.1.03.14.07.14.17s-.07.14-.17.14c-.17,0-.24-.07-.24-.17s.1-.14.27-.14M14.59,1.67c-.1,0-.17-.07-.17-.2s.07-.2.17-.2c.17,0,.24.07.24.2s-.07.2-.24.2M24.08,1.77c-.14-.14-.2-.27-.2-.37,0-.07.07-.17.2-.27-.03.07-.03.17-.03.31,0,.17,0,.27.03.34M18.77,1.26c-.27.07-.44.1-.51.1-.17,0-.27-.07-.27-.2l.03-.03.1.03c.17.07.34.1.58.1h.07ZM20.61,1.56c-.51.17-.78.37-.78.54,0,.14.07.2.24.2h.07c-.14.17-.27.27-.41.27-.24,0-.34-.14-.34-.37,0-.37.41-.61,1.22-.65M21.19,2.45h-.24c-.17,0-.27-.14-.27-.37,0-.37.27-.58.85-.58.27,0,.61.07,1.02.24-.17-.03-.34-.03-.51-.03-.17-.03-.31-.03-.41-.03-.41,0-.61.17-.61.48,0,.1.07.2.17.31M22.89,2.89l-.54-.27c-.1-.1-.14-.2-.14-.34,0-.17.14-.24.41-.24-.1.07-.17.14-.17.2,0,.1.14.27.41.48l.03.17ZM24.05,3.1s-.14-.07-.31-.1c-.14-.07-.24-.1-.27-.1-.1,0-.14.03-.14.14v.1c-.1-.1-.17-.2-.17-.27,0-.17.1-.27.27-.27.1,0,.31.1.54.27l.07.24ZM22.58,15.71l.2-.1h.27l.58.1h.31l.03-.1.03-.1.07-.03c.38-.03.51-.2.48-.54v-.07c.17.17.27.34.27.44,0,.31-.07.44-.24.44l-.24.03c-.1,0-.14.03-.14.14,0,.14.07.24.27.31.14.07.24.17.24.34,0,.1-.03.17-.1.27l-.17-.27-.44-.24v-.2l-.07-.14-.68-.14c-.2-.03-.44-.1-.68-.14M22.86,16.09c.65.24,1.16.44,1.46.68l.68.51c.24.17.48.27.65.27.24,0,.34-.14.34-.41v-.07c.14.14.2.27.2.37,0,.07-.07.2-.17.37l.03.24s-.1.03-.2.03c-.03,0-.17-.07-.34-.17l-.75-.61c-.24-.2-.51-.38-.82-.58-.27-.14-.58-.31-.88-.41l-.2-.24ZM24.49,19.45c.1,0,.14.03.14.14s-.07.14-.2.14h-.03l-.07-.03-.03-.03c0-.1.07-.17.2-.2M23.98,19.79l.1.1c0,.07-.03.1-.14.1l-.14-.07c0-.1.07-.14.17-.14M23.77,19.28h.44c-.07.2-.17.31-.31.31-.1,0-.14-.1-.14-.27v-.03ZM23.43,19.49c.17.1.27.2.27.27l-.17.07h-.03c-.1-.03-.17-.1-.17-.17l.1-.17ZM23.6,19.01c-.03.14-.14.2-.24.2h-.03c.03-.1.14-.17.27-.2M24.15,18.67c.1,0,.17.03.17.14,0,.24-.1.34-.27.34-.07,0-.1-.07-.1-.24s.07-.24.2-.24M13.6,25.03c.17,0,.27.07.27.2s-.1.2-.31.2c-.17,0-.27-.07-.27-.17,0-.17.1-.24.31-.24M3.64,20.1l.34.07s.07.07.07.2c0,.24-.1.34-.31.34l-.03-.03v-.27l-.07-.31ZM4.18,20.71c.1.03.14.1.14.2,0,.14-.07.2-.21.2-.1,0-.17-.03-.17-.14,0-.17.07-.27.24-.27M4.01,21.33c.07,0,.1.07.1.17l-.03.1c-.03.1-.1.17-.2.17-.03,0-.07-.03-.07-.14,0-.03.07-.14.2-.31M3.54,21.7l.1.17c0,.07-.07.1-.2.14h-.03c-.17,0-.27-.07-.27-.24,0-.03.07-.07.17-.07h.24ZM3.03,21.56c-.24-.03-.37-.17-.41-.37l.14-.03.07.1.2.31ZM3.03,20.07c.27.07.41.17.41.34,0,.1-.03.14-.07.14-.17,0-.31-.17-.34-.48M5.03,11.87c-.1,0-.17-.07-.17-.2,0-.17.07-.24.17-.24.14,0,.2.07.2.24,0,.14-.07.2-.2.2M5.17,12.07l.1.17-.17.14-.07-.14.14-.17ZM4.83,12.04l.03.14c0,.1-.03.14-.14.14-.03,0-.07-.03-.1-.14l.2-.14ZM4.66,12.52l.24-.03c-.03.1-.07.14-.1.17-.03,0-.07-.03-.14-.14M4.05,12.75h.34c-.07.1-.14.17-.2.17-.1,0-.14-.07-.14-.17M4.08,12.21c.24,0,.34.07.34.2,0,.1-.07.14-.24.14-.1,0-.17-.07-.17-.2,0-.1.03-.14.07-.14M3.91,12.01c0,.07-.03.1-.14.1l-.1-.1c0-.1.03-.17.07-.17.1,0,.17.07.17.17M3.94,11.5c0,.07-.03.1-.14.1l-.1-.1c0-.1.03-.14.14-.14.07,0,.1.03.1.14M4.32,10.85c.14,0,.2.07.2.2,0,.17-.1.24-.34.24-.14,0-.2-.03-.2-.14,0-.2.1-.31.34-.31M6.73,9.15c.14,0,.2.03.2.14l-.17.07-.1-.1.07-.1ZM6.26,8.81c.17,0,.24.07.24.24,0,.1-.07.17-.24.17-.14,0-.2-.07-.2-.2,0-.1.07-.17.2-.2M6.73,8.54c.17,0,.24.1.24.27,0,.1-.07.14-.2.14-.14-.03-.2-.1-.2-.2,0-.14.07-.2.17-.2M5.65,8.61c.14,0,.2.07.2.17,0,.14-.07.2-.17.2s-.14-.07-.14-.17l.03-.03c.03-.1.03-.14.07-.17M5.75,8.13c.1,0,.17.07.17.17s-.03.14-.14.14-.14-.07-.14-.17.03-.14.1-.14M6.33,8.06c.14,0,.2.07.2.2-.03.1-.07.14-.17.14-.14,0-.2-.07-.2-.17s.07-.17.17-.17M5.88,7.58c.17,0,.24.07.24.24,0,.1-.07.17-.17.17s-.17-.07-.17-.2c0-.1.03-.17.1-.2M6.29,6.77h.1c.17,0,.27.07.27.17l-.14.03-.1.03h-.07c-.1,0-.17-.03-.17-.07l.1-.17ZM2.79,20.44c.17,0,.24.1.24.27s-.07.24-.2.24-.2-.07-.2-.24c0-.14.07-.24.17-.27M22.96,6.12c.14-.1.24-.14.31-.2l.1-.03.27.27c-.14.07-.2.1-.24.14v.07l.03.03.1.27c.1.17.14.27.14.34s-.07.1-.2.1h-.14l-.14-.03-.51-.92h.1c.17.24.27.34.34.34v-.03c0-.1-.07-.24-.17-.34M25.95,14.93l.2.44.03.1c0,.2-.14.37-.41.51s-.51.2-.75.2c-.31,0-.44-.07-.44-.17l.07-.07c.14,0,.24,0,.27.03l.14.03c.61,0,.92-.2.92-.58l-.03-.14-.14-.24.14-.14ZM25.58,14.83c0,.17-.1.24-.27.24-.14,0-.2-.07-.2-.24,0-.2.1-.31.27-.31.14,0,.2.1.2.31M25.92,14.22c.1,0,.14.07.14.17s-.07.17-.17.17-.17-.03-.17-.14c0-.14.07-.2.2-.2M25.41,14.29c-.14,0-.2-.03-.2-.14,0-.14.07-.2.2-.2s.2.07.2.2c0,.1-.07.14-.2.14M26.09,13.88c0,.07-.07.1-.17.1s-.14-.03-.14-.1c0-.1.07-.14.17-.14s.14.03.14.14M25.65,13.54c0,.14-.07.2-.2.2-.1,0-.14-.07-.14-.2,0-.1.07-.17.17-.17s.17.07.17.17M25.95,13.23l.1.17c0,.1-.03.14-.14.14s-.14-.03-.14-.1c0-.14.07-.2.17-.2M25.71,12.86l.07.14c0,.1-.03.14-.1.14l-.1-.1c0-.1.03-.17.14-.17M22.52,12.21l-.1.2-.07.03-.07-.07.07-.1.17-.07ZM22.01,12.35l-.14.03c-.1,0-.14-.03-.14-.1h.07l.2.07ZM22.14,11.9l.07.1-.1.1-.1-.07c0-.1.03-.14.14-.14M3.67,12.38c.07,0,.14.07.17.17v.07c0,.14-.03.2-.14.2-.07,0-.14-.07-.17-.17v-.07c0-.14.03-.2.14-.2M.82,26.39h25.54V.85H.82v25.54ZM.41.41h26.39v26.39H.41V.41ZM0,27.21h27.21V0H0v27.21Z" fill="#231f20"/>
    </g>
  </g>
</svg>