<?xml version="1.0" encoding="UTF-8"?>
<svg id="Layer_1" xmlns="http://www.w3.org/2000/svg" width="27.21" height="27.21" xmlns:xlink="http://www.w3.org/1999/xlink" viewBox="0 0 27.21 27.21">
  <defs>
    <clipPath id="clippath">
      <rect width="27.21" height="27.21" fill="none"/>
    </clipPath>
    <clipPath id="clippath-1">
      <rect y="0" width="27.21" height="27.21" fill="none"/>
    </clipPath>
  </defs>
  <g clip-path="url(#clippath)">
    <g clip-path="url(#clippath-1)">
      <path d="M13.23,25.24c.03.14.07.2.14.2l.14-.03-.03.03.1-.03-.24-.1-.1-.07ZM13.77,25.07l-.44-.17-.03.07.1.14.24.03-.14.03.27-.03v-.1.03ZM3.57,24.62l.03.14c.31.07.51.1.68.1h.38l.03-.07c-.07.03-.14.03-.24,0l-.1-.03h-.03c-.24,0-.51-.03-.75-.14M13.57,24.39l-.1.03v.03l.03.14.07.14c.17.07.31.1.44.1.03,0,.1-.07.14-.2-.24.03-.31.07-.24.07-.07,0-.14-.03-.24-.1l-.07-.1-.03-.1ZM3.81,24.49l.65-.03h.41l-.27.17-.78-.14ZM13.03,23.74l-.17.07v.2c-.14.17-.2.37-.2.61h.17c.03-.31.1-.51.27-.68l-.07-.2ZM12.75,23.43c-.31.51-.48.88-.48,1.12,0,.1.07.14.2.17,0-.44.14-.78.44-1.09l-.07-.17-.1-.03ZM14.97,24.69h.07c.1.03.2-.14.34-.48.14-.37.2-.61.2-.71l-.03-.1c-.1,0-.2.24-.31.71-.03.1-.1.17-.14.24-.07.1-.14.17-.17.2l.03.1h.1l-.1.03ZM24.49,23.3l-.44.68h.07c.1,0,.2-.07.27-.2l.2-.44-.1-.03ZM25.61,22.82l-.03.07.07.07h-.07.14v-.14h-.1ZM2.21,22.69c-.03-.1-.07-.14-.1-.17h-.1l-.27.27.37-.14.1.03ZM25.48,22.35l-.14.24h.17l-.07-.1.03-.14ZM2.04,22.21l-.14-.03-.17-.03-.1.1-.14.14.07.27.2-.34h.34l-.07-.1ZM1.97,22.01l-.27-.1c-.1,0-.14.07-.17.2l.44-.1ZM14.25,22.72l.14-.34-.03-.48v.03l-.1-.03v.37l-.17.48.17-.03ZM1.67,21.67h-.07l-.07-.1s-.03.1-.07.27l.24-.1-.03-.07ZM21.8,21.63l.07.51.24-.03-.07-.17-.07-.1c0-.14-.07-.2-.17-.2M24.66,20.99l.31.78c.07.24.17.34.27.34l.17-.1c-.34-.44-.54-.78-.61-1.02h-.14ZM22.65,20.95l.03.1.1.1.1.1h.17l.17-.14-.44-.17h-.14ZM4.69,21.05l.03-.03.1-.07.07-.07c0-.1-.03-.14-.1-.14-.03,0-.07.1-.1.31M14.76,20.71l-.24-.1-.07.07c0,.1.07.17.2.17l.14-.1-.03-.03ZM22.38,20.54l-.2.03h-.07c-.17,0-.27.1-.37.34l.1.03h-.07.1c.07-.17.2-.24.41-.27h-.03l.14-.14ZM4.8,20.37l-.03.2.2.03.03-.17-.2-.07ZM21.67,20.51h.27l-.03-.1-.24.1ZM5.03,20.03h-.1s-.07.03-.07.14l.07.03.14.07.1-.1v-.03l-.14-.1ZM5.99,20.17h-.2l-.14.1.07.1s.17,0,.41.03h.17v-.17l-.31-.07ZM25.71,19.69l-.1.07.07.38.07-.03-.03-.41ZM24.66,19.59l-.27.07c-.1,0-.14.1-.17.34h.1l.34-.41ZM6.12,19.79h-.24l-.03.17.14.03h.1c.1,0,.2,0,.27.03.1-.03.03-.14-.24-.24M5.24,19.59v.03c-.1.03-.17.07-.2.17l.14.07.17.04s.07-.14.07-.24c-.14-.03-.2-.07-.17-.07M24.11,19.39l-.27.2h.24l.07-.2-.07.17.03-.17ZM6.63,19.69c0-.1-.1-.17-.31-.24l-.31.1s.17.07.51.17l.1-.03ZM15.34,18.13l-.17.31.34-.1-.17-.2ZM22.89,18.09l.03.14.14.14.2.2.34.17.17-.07-.41-.2-.48-.37ZM15.51,17.96l-.1-.03.03.17.34.03-.27-.17ZM12.55,17.79l.17.17c.07.07.14.14.24.17l.17.07c.27.27.44.51.54.68l.07.14.17.27.07.07v-.07s0-.14-.03-.24l-.07-.27v-.1l-.41-.27c-.44-.37-.75-.58-.92-.61M23.09,18.03l.07.07.14.14.17.1.17.1.03.07.14.03.37.2.55-.03c-.82-.31-1.26-.48-1.29-.51l-.14-.14-.1-.03-.34-.27.24.27ZM15.68,17.69v.17l.17.07.03-.07.07-.07-.17-.14-.1.03ZM8.2,17.69l-.17-.17-.07.07.34.37.2.2.14-.1.07-.07s-.14-.03-.27-.03l-.1-.17-.14-.1ZM23.2,17.04c-.17.1-.27.24-.27.34l.07.07s.07-.03.14-.14c0-.1.07-.17.14-.24l-.07-.03ZM17.41,17.01l-.1.07h.17c.1,0,.24.03.44.1l.17.03-.07.03.27-.07-.27-.07-.61-.1ZM22.96,16.97h-.07v-.03l-.1.31c.1-.03.17-.14.17-.27M14.25,16.67c-.1.03-.14.03-.14.07,0-.1.07.1.2.65l.14-.03-.07.07-.07-.37-.07-.38ZM13.94,16.46l-.14.07c0,.55.1.82.34.85l-.1-.24-.07-.51-.03-.17ZM12.01,14.56l-.14.31c.1-.03.2-.1.24-.2l-.1-.1ZM11.7,14.29l-.14.48c.17-.03.27-.07.31-.1v-.07l-.07-.1s-.03-.1-.1-.2M9.32,14.25l-.17-.07.03.1-.1-.07c-.44.07-.71.31-.85.71l.07.03.1-.1.07-.17.17-.14c.03-.07.14-.14.24-.17l.14-.03.03-.07.27-.03ZM11.46,14.01v.03h-.1v.31l-.14.1-.07.14.1-.03h.14c.07-.03.1-.1.1-.27,0-.14,0-.24-.03-.27M8.71,12.86c.14.14.34.24.65.34v-.1l-.03.03v-.03l-.61-.24ZM8.88,12.55l.1.1.24.17.51.14-.85-.41ZM21.5,12.52l-.07.1c.07.17.07.24.03.24l.17.07v-.27l.2-.17-.34.03ZM20.95,12.45c-.1.07-.2.1-.27.1v.14l.14.14h.2l.1.03.03-.07v-.27l-.2-.07ZM22.24,12.14h.2v-.1c-.07-.1-.1-.17-.1-.2l-.2.27.1.03ZM22.69,11.84l.1.1.27-.14-.37.03ZM20.58,11.43v.17l.2.14.2-.07-.17-.24-.03-.27-.2.27ZM19.56,11.36l.03.2.88.48.31.07.17.03h.51c.24,0,.34-.03.34-.14h.1l.03-.03s-.17-.03-.44-.03l-.41.03h-.03c-.2-.03-.41-.07-.58-.14-.17-.03-.34-.1-.51-.2l-.41-.27ZM21.29,11.19l-.1.03h-.07c0,.34-.03.41-.07.24l.1.17h.37l-.24-.2v-.24ZM21.67,11.22l-.03-.07-.1.07.03.27.2.1s.03-.07.03-.17l-.1-.14-.03-.07ZM25.68,10.34l-.1.24.2.1s.03-.07.03-.24c0-.07-.03-.1-.14-.1M25.78,10.03l-.17-.07c0,.14.03.2.07.2l.1.03v-.17ZM25.88,9.73l-.24-.17.03.27.14-.03.07-.07ZM15.82,9.56l-.07.03-.07.07c.24-.1.34-.17.34-.27l-.61.14-.31.2.72-.17ZM16.02,9.25l-.89.1.31-.17.1.03.24-.07.24.1ZM13.98,9.05h-.1c.14.2.41.31.85.34l-.65-.27-.1-.07ZM2.48,8.84l-.1-.03-.24.07.17.2.17-.24ZM13.71,8.71v-.17l.17-.03.03.1.07.1h-.27ZM2.24,8.4l-.24.14v.1c.31-.03.48-.1.51-.17,0-.03-.03-.07-.14-.07h-.14ZM2.45,7.96h-.17l-.2.14h-.17l.03.14h.1c.24-.03.37-.1.48-.2.1-.1.1-.14,0-.14l-.07.07ZM17.69,7.89c-.14.1-.24.17-.34.2-.07.03-.17.07-.34.03l-.54-.14.17.1c0,.17.14.24.37.2.34-.03.54-.1.54-.17l.14-.24ZM16.26,7.38l-.03.27.2.17h.07s.14,0,.24.03c-.31-.24-.44-.37-.48-.48M13.88,7.62l.07.1.14-.03.14-.07.03-.07.1-.03v-.03l.17-.03-.03-.07-.61.24ZM16.8,7.45l-.1-.37-.1.07-.07.17s.1.1.27.34l.34.03-.17-.2-.17-.03ZM6.16,7.14c-.14-.03-.24-.07-.27-.03-.14-.1-.2-.1-.2-.07v.1l.14.14.14.03.31-.14-.1-.03ZM7.79,6.63l-.41.17-.48.27-.34.14-.03.1.44-.1.38-.2.17-.07.27-.31ZM11.73,6.67l-.48,1.29.1.03c.1-.1.17-.27.24-.51l.24-.82h-.1ZM7.28,6.7l-.65.37.03-.17c.17,0,.34-.1.44-.31l.21-.24-.03.34ZM5.92,6.73l-.1-.07h-.03c-.17.03-.24.07-.17.07l.1.07.07.03c.1.1.2.17.27.14h.17l.14-.14-.03-.07-.24.03-.17-.07ZM4.66,6.33c.1.1.17.14.27.14l.1-.1c0-.1-.07-.17-.24-.14l-.07.07-.07.03ZM17.65,6.16h-.14s-.07.14-.1.34c-.03.1-.1.24-.2.31l-.2.17v.07c.1,0,.2-.07.34-.24l.1-.14.17-.27.03-.24ZM15.07,5.95l.07.17h.1l.1-.07-.17-.31-.1.2ZM11.63,5.68h-.2l-.14.17.31-.03.17.27h.03v-.07c.03-.14,0-.24-.17-.34M11.46,5.37l-.03.1c.1.07.17.1.2.1h.17l-.1-.17-.24-.03ZM6.05,5.37c-.1,0-.17.07-.2.17v.34c-.03.1-.07.24-.14.31,0,.14-.07.2-.1.27l.14-.03-.07.03c.17-.17.31-.44.37-.78v-.31ZM6.36,6.05l.17.03c.14-.24.24-.48.27-.78l-.44.75ZM5.95,5.1l.27-.03-.07-.1c-.2,0-.24-.03-.1-.07h-.1v.2ZM6.8,3.71l-.03.07.17.34-.14-.41ZM2.65,3.23l-.03.03-.17.31-.07.37-.07.2c-.1.03-.14.1-.14.27l-.14.54-.07.2.48-1.12.17-.48.03-.17v-.17ZM8.91,1.5v.1l.92.24.31.31.27.1-.51-.48-.68-.24-.31-.03ZM5.95,1.39l-.07.24.24.03-.17-.27ZM6.33,1.33l-.14.1-.03.1c0,.1.03.14.14.14l.07-.1-.03-.24ZM6.63,1.36l-.1-.03-.03.17.1.14.14-.1-.1-.17ZM6.97,1.7v-.2l.1-.2-.1-.03h-.03c-.1,0-.14.07-.14.2,0,.1,0,.2.03.24l.07-.03.07.03ZM19.05,25.88l-.07-.03.07.03ZM24.32,25.27l-.03.07-.24.24c-.07.07-.1.17-.1.31l.03.27c-.24-.17-.34-.31-.34-.41v-.07l.31-.41.17-.14c.14,0,.2.03.2.14M3.23,25.03c.41.1.61.31.61.61,0,.24-.17.34-.51.38.1-.17.14-.34.14-.48,0-.1-.07-.27-.24-.51M17.38,24.69l.2.07.37.17.27.1.2.14.07.03.2.1.07.03.31.1.2.1.1.03.07.03.24.07.34.1.17.03c-.1.07-.2.1-.27.1l-.17-.03-.51-.1-1.5-.55c-.17-.07-.37-.1-.58-.1-.44,0-.65.14-.65.44,0,.07.1.27.27.58-.51-.03-.75-.27-.75-.72,0-.14.07-.31.24-.54.17-.17.34-.24.58-.24.27,0,.44,0,.51.03M10.85,24.59h.07s.1.03.24.07l.2.17c.17.17.24.34.24.54,0,.51-.31.75-.88.75-.34,0-.54-.14-.65-.41.31.1.48.17.51.17.31,0,.48-.17.48-.48,0-.37-.31-.58-.88-.58-.17,0-.31,0-.34.03l-1.36.54-.27.07.34-.17.27-.14.27-.24c.24-.17.44-.31.61-.34l.41-.1.75.1ZM21.19,24.39l.17.07.03.07.03.03-.1.17-.17.1c-.14,0-.2-.07-.2-.2,0-.07.07-.14.24-.24M20.34,24.35c-.03.17-.1.27-.2.27s-.17-.07-.17-.2.07-.2.2-.2c.1,0,.14.03.17.14M9.01,24.18l.51.07-.07.24-.03-.03-.27.24-.17.17c-.1.14-.34.31-.78.48-.61.27-1.29.41-2.07.41-.51,0-1.02-.14-1.6-.41l.48-.1.51.1s.17.03.41.03c.78,0,1.5-.14,2.07-.44l.58-.31.31-.31.14-.14ZM21.77,24.15c.17,0,.24.03.24.14,0,.14-.07.2-.2.2-.1,0-.17-.07-.17-.17s.03-.17.14-.17M20.58,24.05h.07l.17.1c0,.24-.03.34-.14.34-.14,0-.2-.07-.2-.17,0-.07.03-.17.1-.27M18.43,24.83l-.2-.2c-.2-.2-.31-.34-.31-.41,0-.14.07-.2.24-.2.03,0,.27.2.65.58l.24.24.07.03.27.17v.03h.07l.2.1.37.14c.17.03.34.07.44.14.14,0,.24.03.31.07l.48.03h.24c.85,0,1.43-.1,1.73-.34l.54-.34.31-.14.03.2-.03.03-.51.37-.27.17c-.41.27-1.02.41-1.8.41-1.26,0-2.28-.38-3.06-1.09M22.38,23.88l.31.07-.17.31.17.41c.24.03.34.07.31.07.1,0,.27-.03.44-.1l.17-.24v.07l.17.1s.1-.03.2-.1l.03.03c-.51.44-.88.65-1.16.65-.37,0-.61-.14-.75-.44v-.17c0-.2.03-.37.1-.51l.17-.14ZM21.19,23.74h.03c.14,0,.2.07.2.2,0,.17-.07.24-.24.24-.1,0-.17-.07-.17-.17,0-.14.07-.24.17-.27M20.2,23.91l-.03-.1c0-.17.07-.27.17-.27s.17.07.2.24c-.1.1-.17.14-.24.14h-.1ZM20.82,23.43l.03-.03c.1,0,.17.03.17.14s-.07.17-.2.17c-.1,0-.14-.03-.14-.14,0-.07.03-.1.14-.14M6.12,23.81c.14-.31.34-.44.65-.44.51,0,.78.31.78.95,0,.34-.2.61-.58.78l-.34.14-.1.03h-.37l-.65-.07h-.2l-.03-.03-.03-.07c0-.1.03-.14.14-.14h.99c.14,0,.31-.07.51-.24.17-.17.27-.31.27-.48,0-.1-.03-.2-.1-.27-.14-.17-.31-.24-.48-.24-.1,0-.17.03-.24.14l-.2.27v-.34ZM20.37,25.24c-1.02-.2-1.53-.58-1.53-1.16,0-.54.2-.82.65-.82.31,0,.44.07.44.24,0,.03-.03.14-.07.31-.03-.03-.14-.03-.31-.03s-.27.1-.27.31c0,.17.1.37.31.61l.14.14.24.1.34.17.24.07.41.1.17.03.1.03-.14.07-.71-.17ZM25.07,23.37h.17l.07-.2h.14l-.03.03.27.17v.37l-.17.44-.1.44-.14.41.07.48.27.2.2.07c-.17.24-.31.34-.44.34-.37,0-.54-.14-.54-.44,0-.03.03-.1.07-.24l.07-.2-.07-.14h-.07c-.03.17-.14.27-.31.37-.03-.1-.07-.2-.17-.31-.07-.1-.1-.2-.1-.31,0-.17.03-.34.1-.51h.07l.24-.1c-.1.27-.14.44-.14.54,0,.03.03.1.14.2,0-.1.03-.24.07-.37.03-.2.07-.31.07-.37,0,.03-.03-.03-.07-.17l.24-.75.1.03ZM21.26,23.4l-.03-.07c0-.17.07-.27.17-.27s.17.07.17.2c0,.17-.07.24-.17.24l-.07-.03-.07-.07ZM25.88,21.63l.17.03.03.14c0,.07-.03.1-.14.1l-.1-.07.03-.1v-.1ZM22.28,21.09l.27.48c.07.31.1.54.1.71,0,.41-.07.68-.2.85l-.44.58c-.1.14-.2.2-.31.2s-.14-.03-.14-.14v-.07l.41-.37.14-.14.1-.17c.2-.38.31-.65.31-.88s-.07-.58-.24-1.05M10.95,20.75l.27-.14h.07c.24,0,.37.07.41.24l.07.24-.34-.1c-.17,0-.34.2-.44.58l-.07.41-.1.41-.17-.07.03-.31c.03-.58.14-.99.27-1.26M9.05,20.61c.03-.17.14-.27.31-.27.14,0,.27.17.37.48-.24-.1-.37-.17-.44-.2l-.2.24-.03-.24ZM16.33,20.48l.27-.14h.14c.27,0,.51.14.68.37-.65.24-1.05.78-1.26,1.63-.38,1.73-.78,2.69-1.23,2.92l-.27.14-.44.2-.54-.1-.1.14c-.03.07-.14.17-.24.27s-.2.14-.34.14h-.51l-.41-.03.41-.51c.14-.07.2-.17.2-.27v-.03c-.2-.03-.37-.14-.44-.31-.14-.2-.17-.34-.17-.44,0-.17.14-.48.37-.92l.2-.34c.14-.14.17-.41.17-.78,0-.07-.03-.17-.1-.31-.24-.17-.44-.24-.65-.24-.1,0-.24.1-.41.34l-.14-.17v-.14c0-.1.07-.24.17-.41l.24-.24.61.03.17.14.1-.1-.1-.07c-.07-.1-.1-.17-.1-.24l.03-.14.2.1.31.03.2.07.03.07c.17.1.27.27.31.51l.07.03.1-.07c.03-.2.14-.34.31-.41l-.03-.03.31-.1.07.34.1.2c.03.24.07.37.07.48,0,.44-.1.78-.34,1.09l-.41.51c-.1.1-.14.17-.14.27l.07.27h.1c.24.03.34-.1.34-.41v-.34s.1-.17.31-.37c.14-.27.24-.58.24-.95v-.27c0-.1,0-.17-.03-.27l-.03-.14c0-.31.24-.61.68-.95l.2.27.03.27h.14l.03.07.03-.17.14-.27.27-.24ZM25.17,20.07c.1,0,.17.03.17.1l-.1.1h-.03v-.17l-.03-.03ZM18.33,23.3c.65-.41,1.09-.82,1.33-1.19l.37-.58.31-.44c.07-.14.1-.24.14-.34.1-.41.17-.65.2-.68l.14-.07.1.07c-.1.37-.17.61-.24.75-.07.17-.14.27-.17.34-1.19,2.14-2.79,3.26-4.73,3.33l.14-.31.51-.1.31-.07.75-.27.54-.27.31-.17ZM20.24,20.03l.37-.1c-.75,2.14-1.9,3.44-3.43,3.81-.78.2-1.16.31-1.09.31-.07,0-.1-.03-.1-.14,0-.03.03-.1.14-.24.07-.17.1-.31.1-.41l-.03-.1c0-.17.07-.27.24-.27h.03c.75-.24,1.33-.55,1.73-.95.41-.41.78-1.05,1.16-1.9h.88ZM25.88,19.28l.17.61-.03,1.19-.14-.2c-.1-.1-.17-.2-.24-.34l-.17-.2-.03-.07c0-.1,0-.2.03-.24l-.03-.41.1-.07.17.1.1-.24.07-.14ZM20.41,19.32l.48.07.68.27c.1.1.24.17.34.27.1.07.24.14.34.24l-.03.07.2.03.03-.24.27-.17h.24-.1c.17.17.34.31.51.41l.17.24.24.27.44.07c-.1.31-.2.44-.37.44l-.1-.03-.27-.1v.48l-.65-.2-.14-.1-.14-.17-.2-.24h-.14c-.17,0-.27.07-.27.24,0,.1.03.2.1.31l.31.41.03.03c.03.14,0,.24-.1.31l-.37.48-.27-.17c-.07-.03-.1-.07-.1-.17v-.17h-.14c-.03.72-.34,1.05-.95,1.05-.03,0-.1-.03-.2-.1.37-.38.54-.72.58-1.02l.07-.78c0-.24.1-.44.34-.65l.51-.1-.17-.24c-.41-.41-.88-.61-1.43-.61-.44,0-.88.17-1.29.48-.48.31-.72.68-.82,1.05-.07.31-.14.48-.14.58-.07.07-.17.17-.37.27v-.07c0-.24.14-.65.37-1.29l.2-.27.17-.27c.31-.58,1.02-.85,2.14-.88M17.24,19.49c.14-.37.34-.58.61-.58.37,0,.58.2.58.65,0,.17-.17.48-.51.88-.03.03-.14.17-.27.37.03-.17.1-.37.2-.58.17-.31.24-.48.24-.55l-.07-.34c-.14-.07-.24-.1-.34-.1-.14,0-.27.07-.44.24M15.71,19.76v-.27c-.03-.68.17-1.02.65-1.02.34,0,.51.14.51.37,0,.14,0,.24-.03.27-.07-.17-.2-.24-.37-.24-.34,0-.54.27-.58.78l-.07,1.06-.03-.31-.07-.65ZM22.01,18.77c.1-.24.24-.37.37-.37.37,0,.58.2.58.61,0,.51-.27.75-.82.75-.03,0-.24-.17-.54-.48.1.03.2.03.27.03l.17.03c.37,0,.54-.1.54-.34v-.27h-.2c-.07-.03-.17.03-.27.2l-.1-.14v-.03ZM25.34,18.16c.1,0,.14.03.14.14l-.1.07-.07-.1.03-.1ZM7.69,18.13c.17.2.27.34.27.44.07.07.1.24.14.54.07.51.31,1.12.75,1.84l-.17-.03s-.03-.14-.07-.27l-.31-.51-.07-.2-.2-.44-.14-.37c-.03-.17-.07-.27-.1-.41-.03-.07-.03-.17-.07-.27l-.03-.31ZM12.38,23.13c-.1.24-.17.34-.2.37-.14.37-.27.54-.37.54s-.2,0-.24-.03l-.82-.1-1.67-.41-.44-.07-.61.2-.41.07-.1-.07-.03-.1-.03-.07-.03-.44-.03-1.26-.1-1.26-.1-.99c-.03-.17-.03-.31-.03-.48-.03-.14-.03-.27-.03-.37,0-.44.07-.68.21-.68.17,0,.27.31.34.88.17,1.09.65,2.01,1.5,2.76.85.71,1.9,1.22,3.23,1.5M11.84,24.22v.2c0,.1-.03.14-.1.14l-.61-.14c-.41-.14-1.02-.27-1.87-.44-.24-.03-.37-.07-.41-.07-.1,0-.24.03-.41.1-.17.07-.31.1-.37.1-.2,0-.31-.1-.31-.27l.78-.2h.14s.14,0,.27.03c.14,0,.31,0,.51.03l.95.27.31.1h.17l.95.14ZM5.41,17.92c.07,0,.24-.03.51-.17.31-.07.51-.14.65-.14l.2.03.34.1-.24.34-.07.37-.75.31-.37.24c-.17.1-.24.17-.24.2,0,.1.03.14.1.14l.1-.1-.1.14.37-.34-.1.03c.17-.1.31-.17.48-.24.17-.1.34-.17.51-.2.1.37.14.65.14.82l-.03.07-.24.48s-.03.07-.03.17c0,.17.1.34.27.51v.14c-.2.14-.37.2-.48.2-.14,0-.27-.1-.41-.27-.03-.1-.1-.17-.14-.17-.1.65-.54.99-1.33.99h-.2c-.1,0-.17,0-.24-.03l.17-.54c.04-.1.04-.2.07-.27v-.27c-.03-.07-.03-.17-.03-.31v-.2l-.07-.27v-.07c0-.41.2-.75.58-1.02v.07l-.03-.17c-.1-.1-.14-.2-.14-.31l.07-.34.07-.03c.17.1.37.14.61.14M25.27,18.03l-.07.03-.34-.27-.2-.07v-.14l.17-.03s.14.1.31.31l.14.17ZM22.79,16.87c.14-.17.31-.27.54-.27.2,0,.37.03.54.14l.31.17.17.14v.14l-.44.14-.41-.07c-.17,0-.24.07-.24.24,0,.1,0,.17.03.2l.1.07.03.03.1.07,1.02-.03.31.14.41.2-.34.2.03.07.51.07.17.03c.24.17.34.31.34.41l-.1.1c-.07.1-.17.2-.27.37-.03.03-.1.07-.2.07h-.17l-.14.07.2.2v.07c0,.1-.07.14-.2.14l-.07-.03-.17-.07s-.07-.03-.17-.03c-.07,0-.1.07-.1.17v.07c.03.1.14.14.31.17.58.24.92.58.95,1.02l.07-.03-.03.24c-.2.07-.31.14-.31.17s.07.14.2.34c.1.14.17.34.17.58,0,.14-.07.38-.17.71l-.44-.34c0-.17-.03-.27-.14-.24h-.07l-.03.51c-.17-.03-.27-.14-.37-.31l-.07-.14-.03-.34h-.03l-.03-.03c-.1,0-.14.07-.14.2v.1l.14.34.14.17c.07.17.1.27.1.31,0,.37-.34.68-.99.85v-.54c-.31.1-.51.17-.61.17-.17,0-.31-.14-.44-.37-.03-.1-.03-.2-.03-.31-.03-.1-.03-.17-.03-.2,0-.44.24-.68.68-.68.2,0,.31.1.31.27-.14-.07-.24-.1-.34-.1-.17,0-.27.1-.27.34s.1.34.31.34c.1,0,.34-.14.65-.37l.24-.41.1-.51.1-.48c.03-.17,0-.41-.1-.75l-.14-.41-.07-.14c-.03-.07-.07-.14-.1-.24l-.14-.27-.24-.24-.48-.65-.24-.24-.24-.34c-.1-.34-.17-.54-.17-.61,0-.2.07-.44.24-.75M17.75,16.5l.03.1h-.37l.03-.07c0-.07.07-.1.24-.1l.07.07ZM8.54,16.46l.03-.03h.07c.31,0,.54.17.71.48-.54.07-.82.27-.82.65,0,.17.07.34.2.51l.82.82c.68.68,1.02,1.53,1.02,2.59,0,.24-.03.48-.1.75l-.37-.24v-.51c0-.58-.2-1.05-.61-1.46l-.24-.27-.17-.14-.51-.2c-.14-.03-.2-.2-.24-.48l-.03-.24c.51.2.85.41,1.02.58h.14l-.03-.1-.14-.07-.1-.14-.14-.03v-.07l-.34-.2s-.14-.03-.27-.07c-.2-.07-.27-.14-.27-.24l-.2-.27-.1-.14-.14-.14c-.24-.07-.37-.17-.37-.27,0,.03.03-.07.07-.31l.27-.34.27.1.2-.37c.1-.07.2-.1.37-.14M11.12,16.63l.61-.24c.14-.03.24-.07.27-.07.71,0,1.36.48,1.91,1.46.03.1.1.17.17.27.03.1.1.17.17.27.2.31.31.51.31.58l-.17,1.02-.03.14c0,.17.07.31.24.44h.14c.1,0,.17-.03.2-.14l.1-.17.03-.31.1-.38.07-.24.2-.41.1.37.03.44c0,.07,0,.17.07.31,0,.1.03.2.03.31l-.07.1s-.1-.24-.2-.75l-.17.03c.07.55.1.78.1.68,0,.1-.1.2-.34.37-.1.07-.2.2-.34.44-.03-.17-.07-.24-.14-.24-.14,0-.24,0-.27.03v-.48l-.14.03s.03.14.03.31c0,.1-.07.24-.17.34l-.03-.51-.03-.31-.1-.37-.03-.34-.14-.34-.03-.1-.17-.31-.2-.27-.1-.07-.58-.41c-.2-.14-.48-.2-.78-.2-.99,0-1.46.31-1.46.95,0,.51.24.78.75.78.27,0,.48-.1.61-.31l.34-.54c.07-.1.2-.14.41-.14.17,0,.37.1.61.27.27.27.41.54.41.78,0,.44-.24.71-.75.78.24-.31.38-.51.38-.58,0-.1-.03-.2-.1-.34-.17-.24-.31-.34-.48-.34-.2,0-.37.07-.54.2l-.51.41c-.07.07-.2.1-.37.1-.44,0-.82-.34-1.12-1.02-.03-.07-.03-.17-.03-.31v-.2s.03-.14.07-.37l.2-.48.41-.41c.17-.17.31-.24.44-.24l.34.07.14-.03c-.03-.17-.17-.27-.37-.38M22.21,17.18c0-.17.07-.38.2-.61s.31-.34.51-.34c.1,0,.17.07.2.24-.41.24-.65.55-.71.99l-.07.03-.07-.1-.07-.1v-.1ZM17.21,16.29l.14-.07.14.03.03.07c0,.1-.1.17-.34.2l.03-.24ZM21.53,16.19l.1.03.75.14-.27.44c-.17-.03-.37-.07-.54-.1-.2-.03-.31-.17-.34-.34v-.1l.31-.07ZM23.43,15.85l.07-.03c.17,0,.24.07.24.2,0,.17-.07.24-.24.24-.14,0-.2-.07-.2-.2,0-.1.03-.17.14-.2M16.26,16.67c.17-.31.24-.48.24-.54,0-.1-.03-.27-.14-.44.41.17.61.41.61.65l-.07.27c-.17.37-.31.58-.51.68-.14.07-.27.1-.31.14l-.03.03.03.14.24-.1.2-.1.34-.37.24-.1.31-.1.27-.07c.31.03.54.1.71.27.17.17.24.27.24.34s-.1.1-.31.14l.14.1c.2.17.31.34.31.48,0,.17-.07.31-.24.51-.17.14-.31.24-.44.24-.1,0-.2-.03-.31-.1.27-.1.41-.24.37-.41v-.17l-.07-.14v-.03l-.14-.14c-.31-.17-.51-.24-.65-.24-.31,0-.75.17-1.33.54-.44.24-.72.58-.85,1.05l-.31.89c-.03.1-.1.17-.14.17-.07,0-.1-.14-.1-.38,0-.65.31-1.39.92-2.24l.17-.24.27-.27.31-.44ZM2.92,15.61l-.14.17-.1.14c-.44.58-.82.88-1.05.88-.14,0-.27-.07-.41-.2l-.1-.17c0-.1,0-.2-.03-.31-.03-.1-.03-.17-.03-.2l.07-.07s.1.07.14.17l.21.2c.17.07.27.1.37.1.14,0,.27-.07.44-.24l.65-.48ZM24.35,16.19c.03-.37.17-.58.38-.58.24,0,.34.1.34.27,0,.1-.1.2-.31.31l-.2-.07h-.07l-.14.07ZM20.58,15.65l.1.03.03.2c.41.54.61,1.26.61,2.18,0,.17-.03.48-.1.88l-.03.34-.24-.07.03-.34.07-.31s.03-.1.03-.2c0-.92-.17-1.84-.51-2.72M3.84,15.68l.14-.14h.03l.1.1v.03l-.51.41-.58.82c-.24.38-.37.95-.37,1.67,0,.88.34,1.33,1.02,1.33.2,0,.34,0,.41-.04,0,.38-.17.51-.51.48h-.17l.1.51c-.88-.07-1.33-.54-1.33-1.46,0-1.39.44-2.52,1.33-3.37l.24-.24.1-.1ZM25.24,15.54l.17.03.03.1.1.2v.14c0,.37-.07.61-.24.78-.54.58-.99.89-1.33.89-.14,0-.24-.03-.34-.14h-.1l.03-.1h.07c.41,0,.78-.1,1.12-.34.34-.24.51-.48.51-.78,0-.17,0-.27-.03-.34l-.03-.37.03-.07ZM23.13,15.41c.1,0,.14.07.14.17,0,.17-.07.27-.17.27-.14,0-.2-.07-.2-.24,0-.14.07-.2.2-.2h.03ZM24.76,15.51l-.14.07-.31-.03-.65.14h-.03c-.07,0-.1-.03-.1-.14.03-.17.24-.24.65-.24.2,0,.41.07.58.2M3.71,15.14c.17.1.24.2.24.31-1.36.92-2.04,2.48-2.04,4.69,0,1.29.34,2.28,1.05,2.99l.27.27c.34.34.71.51,1.16.48h.24-.07c.41-.1.71-.27.95-.58l.03-.03v-.58c-.03-.1-.1-.17-.17-.17l-.34.07.03.34c.03.54-.24.82-.75.82-.31,0-.61-.17-.92-.48l-.1-.24c0-.2.07-.44.2-.68v.1c0,.37.14.61.41.75.07.03.17.03.34.03.24,0,.34-.1.34-.31v-.1l-.14-.24-.03-.14c0-.1.07-.24.2-.34.17-.1.31-.17.41-.17.71,0,1.09.37,1.09,1.12,0,.24-.07.48-.27.75-.14.31-.34.44-.54.44h-.2v.1c.2.1.31.2.31.24s-.1.14-.31.31c-.17.14-.41.2-.68.2-.82,0-1.29-.27-1.46-.82-.03-.17-.07-.27-.1-.34l-.07-.14-.14-.14c-.07-.07-.17-.17-.27-.31-.1-.1-.14-.2-.14-.31v-.14l-.1-.03c-.1.03-.14.07-.14.1,0,.17.07.31.24.44l.2.2.1.17v.03l.24.41c.03.1.03.24.07.37v.34l-.24-.1c-.1.65-.24,1.02-.44,1.16l-.14.07c-.1.03-.2.03-.27.03l-.17.03c-.2,0-.38-.1-.54-.31l-.03-.14c0-.17,0-.27.03-.31h.03l.03-.1.14-.2.07-.27-.1-.31c.27.1.41.34.41.68l-.03.03-.2.34-.03.1c0,.1.07.14.21.14.24,0,.37-.17.37-.51,0-.14-.03-.34-.17-.68-.07-.27-.17-.51-.2-.68l-.1-.34c-.1-.2-.17-.61-.24-1.22l-.07-.44c-.03-.17-.03-.31-.07-.44v-.41c0-1.43.34-2.79,1.05-4.12.17-.2.31-.41.44-.58l.34-.51c.17-.24.44-.51.78-.75M14.62,15.37c.17-.17.34-.27.51-.27l.2.03h.17v.03l.31.2.14.41-.58.03-.07.03c-.24.17-.34.41-.31.71l.03.17.14.65s.03.07.03.17l.03.17c-.17.24-.27.44-.37.61s-.17.27-.24.27c-.03,0-.07-.03-.1-.14-.03-.1-.07-.17-.14-.24l-.31-.44-.17-.2v-.1h-.03l-.2-.41c-.03-.07-.03-.2-.03-.41v-.17l.14-.44v-.14c0-.1,0-.17.03-.24l.31.1.17.07.14-.24.2-.24ZM23.37,15.27v-.1l.1-.1c.1,0,.14.03.14.1,0,.1-.03.17-.1.17l-.14-.07ZM10.37,15.03h.2l.27.03.41.1.37.2c.31.17.44.27.48.31l.34.31c.17.14.27.24.31.31v.03l-.03.03-.54-.48-.17-.1-.1-.07c-.37-.24-.68-.34-.99-.34-.71,0-1.09.27-1.09.78,0,.41.31.61.92.61v.07c-.31.1-.48.17-.54.17-.31,0-.58-.2-.82-.58l-.07-.58c.1-.27.27-.48.54-.65l.51-.17ZM3.98,15.07l-.1-.17c0-.1.03-.14.14-.14.07,0,.17.1.34.34.34.58.51,1.12.51,1.56,0,.95-.31,1.43-.92,1.43-.17,0-.37-.07-.54-.17-.2-.1-.31-.2-.31-.24l.03-.07.03-.14c.2.24.41.37.65.37.58,0,.85-.41.85-1.26,0-.41-.17-.85-.48-1.29l-.07-.07-.14-.17ZM6.7,14.9c.31-.24.51-.34.61-.34l.14.03.1.07-.38.1c-.14.03-.2.17-.2.37,0,.14.07.27.2.41-.1.03-.17.07-.24.1-.24,0-.34-.1-.34-.34v-.14c.03-.07.03-.17.07-.27h.03ZM2.48,15.07c.37-.03.65-.14.78-.27.17-.14.27-.2.34-.24l.1-.03.07.07c-.51.51-.95.75-1.36.75l-.1-.1c0-.07.07-.14.17-.17M1.94,14.46c.1.03.14.07.14.17l-.03.2c-.03.14-.03.2-.03.27l.17.71v.03c0,.1-.03.14-.14.14-.07,0-.1-.1-.14-.31l-.07-.37c-.03-.07-.03-.2-.03-.44,0-.1.03-.24.14-.41M24.83,14.42l.14.34.27.27.03.17v.03c0,.17-.07.27-.24.27-.27,0-.41-.17-.41-.54,0-.1.03-.24.1-.41l.1-.14ZM13.74,15.31c-.07-.17-.1-.27-.1-.34,0-.44.14-.65.44-.65.2,0,.34.14.37.41-.1-.1-.17-.14-.27-.14-.2,0-.31.14-.31.44,0,.17.03.34.14.51-.1-.03-.17-.1-.17-.14v-.03l-.1-.07ZM6.53,14.39c.1-.03.2-.03.31-.07l.34-.07s.14-.03.24-.03l.1-.03c.17,0,.24.07.24.17l-.03.07-.99.2c-.1,0-.17.03-.27.14-.48.34-.71.68-.71,1.05,0,.1.07.27.2.51l.14.14.17.14.1.1.2.03.14.03c.1,0,.27-.07.44-.2l.14-.41.03-.17c.1.03.14.14.14.31,0,.24-.1.48-.31.65-.24.2-.48.31-.71.31-.44,0-.71-.2-.82-.65-.1.1-.24.14-.48.14l.03-.48-.03-.37c-.03-.1.03-.31.17-.65.31-.37.71-.68,1.22-.85M1.97,14.05l.2-.07.41.03.61.2.17.2-.07.03-.14-.03c-.31-.17-.61-.24-.92-.24-.17,0-.34.03-.54.17-.17.07-.27.2-.27.37l.04.07.07.17v.2c-.14-.07-.24-.17-.24-.27-.07-.1-.07-.2-.07-.27,0-.37.24-.55.75-.58M20.65,14.29c-.24-.03-.34-.07-.34-.1,0-.17.1-.24.31-.24.24,0,.37.14.37.41,0,.37-.17.61-.54.75v-.14l.1-.14v-.03c.1-.07.14-.14.14-.2v-.2l-.03-.1ZM5.31,14.25c.24-.07.41-.14.54-.17.14-.03.24-.07.27-.1l.68-.1.65-.03.27-.03c.14,0,.2.07.2.2l-.03.07c-.1,0-.14,0-.17-.03h-.65c-.31.03-.51.07-.58.1l-1.19.41c-.1.03-.24.1-.34.17-.1.07-.24.14-.34.17-.1,0-.14-.07-.14-.17l.03-.07.2-.14.27-.2.31-.07ZM5.07,13.84c-.2.38-.48.58-.78.58-.14,0-.27-.07-.41-.17-.17-.1-.24-.24-.24-.34l.07-.07h.03l.31.34.14.03h.07c.14,0,.24-.03.31-.1l.24-.2.17-.1h.07l.03.03ZM2.69,13.37l.07-.14.48.1.68.03.1.1c0,.1-.1.14-.27.14-.31,0-.68-.07-1.05-.24M8.37,13.4c-.1,0-.2,0-.24-.03h-.34l-1.12-.03-1.56.2-.41.07-.03-.03v-.07c0-.1.17-.2.48-.24l.61-.07.71-.03.48-.03.41.03,1.02.1.34.14h-.34ZM23.26,13.03l.34.03.07.07.17.34-.07.58h.2c.07,0,.1-.03.14-.14.2-.34.58-.51,1.12-.51.07,0,.2.03.37.07.27.17.41.37.41.58,0,.38-.17.58-.51.68v-.14l.1-.24.03-.1c0-.24-.17-.38-.51-.38-.14,0-.44.17-.95.55-.82.54-1.53.88-2.11.99l-1.02.17-.2.03s-.1-.03-.1-.14c-.07-.1-.07-.17-.1-.2,0-.03.1-.07.31-.1.24-.03.34-.07.37-.07l.24-.1s.14-.07.34-.14c.31-.07.65-.24,1.02-.48.34-.24.51-.51.51-.75,0-.07-.07-.1-.2-.1-.17,0-.27,0-.31.03l.03-.34c.1-.1.2-.17.31-.2M18.06,16.29l-2.96-1.67-.65-.34-2.01-.99-.07-.17.07-.1c.1,0,.17.03.27.14l.78.41c.24.1.44.2.61.24l.24.14.17.1.31.14.34.2.24.14.48.27.24.14.27.14.17.14.34.2c.1.07.2.14.31.17h.07l.27.2.14.07.2.17.2.17c.17.1.24.17.24.24l-.03.1-.27-.2.03-.03ZM18.67,12.89l.2.03.07.14-.1.2-.2.1s-.1-.07-.2-.17c.03-.17.1-.27.24-.31M4.01,12.99c-.1.1-.17.14-.27.14l-.1-.07c0-.07.03-.14.17-.2.07-.1.17-.14.24-.14.27,0,.41.17.41.54,0,.44-.07.65-.2.65l-.1-.07s.03-.14.1-.27l-.03-.51-.2-.07ZM19.08,12.92v-.17c0-.1.03-.17.14-.17.14,0,.2.07.2.2s-.03.2-.14.2h-.03l-.17-.07ZM18.2,12.41h.07c.1,0,.17.07.17.17,0,.17-.07.27-.24.27-.14,0-.2-.07-.2-.24,0-.1.07-.17.2-.2M5.44,12.38v.07l.34.03.78.27.54.07v.1l-.41-.1h-.37l-.82-.17-.1-.03c-.24,0-.37.03-.37.14l.03.27c0,.07-.03.1-.14.1-.14,0-.2-.07-.2-.24,0-.31.24-.48.71-.51M3.67,11.7l.03-.03c.1,0,.14.03.14.14s-.17.24-.48.44c-.03.03-.1.07-.17.17-.14.1-.27.24-.44.41l-.2.24-.17.24-.14.37-.07.03-.07.03-.1-.1c0-.1.03-.2.14-.37l.14-.31c.48-.48.85-.82,1.12-.99l.27-.27ZM18.54,11.43c.31.37.44.68.44.95,0,.24-.07.34-.24.34l-.07-.03h-.03v-.78c.03-.14,0-.31-.1-.48M7.45,12.28c-.65-.24-.95-.51-.95-.88l.03-.17.34.44c.1.17.31.34.58.51v.1ZM24.45,12.55l.24-.44c.07-.1.14-.2.17-.31.07-.41.14-.61.24-.61l.07.07c0,.07-.1.34-.27.78-.17.44-.44.85-.82,1.22l-.07-.1.27-.31.17-.31ZM6.22,11.36v.14l-.03.14h-.1c-.2,0-.31-.07-.31-.24s.07-.24.24-.24c.1,0,.17.03.17.1l.03.1ZM6.97,11.22l-.03-.17c0-.17.07-.24.17-.24l.1.03c.1.03.17.14.17.27s-.07.2-.2.2c-.03,0-.1-.03-.2-.1M7.69,11.05c.1-.37.24-.54.44-.54l.31.14-.2.34v.1c0,.34.14.61.41.82l1.6.88.44.31.65.44.78.72.1.1.27.24.41.51c.07.1.14.17.2.2.34.34.51.54.51.61l-.07.37-.07.48-.17-.1-.41-.48-.31-.31-.48-.37c-.85-.65-1.7-.95-2.55-.95-.71,0-1.05.2-1.05.65,0,.14.14.31.37.48l-.27.07c-.51,0-.75-.24-.78-.75.03-.41.17-.68.41-.85l.1-.14-.2-.1-.1-.17c.37-.17.71-.24.99-.24.1,0,.31.07.65.17h.1l.24.17.27.17.24.17c.1.1.2.14.31.14.14,0,.2-.07.2-.24-.03-.1-.2-.2-.54-.34-.03-.03-.31-.1-.85-.24-.78-.24-1.33-.54-1.7-.95-.1-.14-.17-.24-.24-.37l-.1-.2-.07-.14.14-.07h.14l-.03-.17-.03-.07-.03-.14v-.34ZM12.35,10.48l.31.17.1.03.38.2.51.27,1.12.55c.34.17.54.27.71.34l1.16.61.75.37c1.4.71,2.35,1.43,2.82,2.14.48.71.71,1.73.71,3.03,0,.37-.03.68-.14.99h-.65c.1,0-.14.03-.75.1l.03-.24c0-1.02-.31-1.87-.92-2.55-.58-.65-1.6-1.33-3.13-2.11l-3.1-1.6-.07-.1c-.03-.1-.03-.24-.03-.37v-.31c0-.58.07-1.09.17-1.53M5.75,10.48c.17,0,.27.07.27.2,0,.2-.1.31-.31.31-.14,0-.2-.1-.2-.27s.07-.24.24-.24M6.22,10.88v-.2c0-.17.07-.24.24-.24s.27.1.27.31c0,.14-.17.2-.48.2l-.03-.07ZM7.07,10.24c.17,0,.24.07.24.2s-.07.2-.21.2c-.17,0-.24-.07-.24-.24,0-.1.07-.17.2-.17M6.05,10.34s-.03-.07-.03-.17c0-.17.14-.24.37-.24.14,0,.2.07.2.2s-.17.2-.48.2h-.07ZM8.5,10.1l-.07-.2.71.88.31.34.37.31.38.31.78.54.1.07.27.14c.24.07.37.24.37.48l-.54-.34c-.31-.17-.58-.34-.85-.51-.2-.17-.44-.31-.61-.48l-.1-.07-.27-.31-.2-.2-.48-.61.03.03-.1-.2-.1-.17ZM17.52,9.83c.1.07.17.14.17.24v.07l-.14-.1-.07-.03.03-.17ZM2.96,9.73c.1.1.2.2.27.34l.17.24.1.17.85.75.54.27.58.31.58.2.31.1c.1.03.17.03.2.07l.71.2.27.07c.14.07.2.17.2.27v.03l-1.16-.14-2.24-.78c-.38-.1-.75-.41-1.16-.85l-.27-.24-.17-.24c-.17-.17-.27-.31-.27-.34s.1-.17.31-.34l.17-.1ZM12.62,10.1c.31-.37.61-.54.95-.54.1,0,.2.03.31.14h.14c.07-.03.17.03.31.2.14.17.2.34.2.51,0,.31-.1.44-.34.44l-.14-.07.07-.14c.03-.1.07-.17.07-.2,0-.34-.1-.51-.34-.51l-.1.03-.54.03-.38.31h-.27l.07-.2ZM3.23,9.83l-.03-.07-.07-.07c0-.07.03-.1.14-.1l.1.03.07.24.2.41v.07l-.03.03-.17-.24-.2-.31ZM4.8,10c.03-.44.27-.65.75-.65.07,0,.14,0,.24.03.1,0,.2,0,.31.03l.41.14.41.1,1.22.27c-.07.03-.17.03-.31.03h-.14l-.17-.03-1.16-.2c-.07-.03-.2-.03-.44-.03-.51,0-.78.24-.75.75v.17l-.27-.14-.03-.17-.03-.03-.03-.27ZM1.16,9.59c.03-.24.17-.37.38-.37.1,0,.2.07.31.2l.14.1c.07.1.1.2.1.24s-.03.07-.14.07l-.1-.03-.31-.14-.41.07.03-.14ZM2.24,9.8l.24-.24c.37-.31.71-.44,1.09-.44.68,0,1.02.31,1.02.95,0,.2-.07.44-.24.75l-.17-.24.14-.31-.04-.27-.07-.1c-.17-.37-.41-.58-.68-.58-.58,0-1.05.31-1.43.95-.24.37-.34.78-.34,1.22,0,.14.07.34.14.65.14.31.2.51.27.61v.07c0,.1-.03.14-.1.14-.31,0-.48-.51-.51-1.53.03-.68.27-1.23.68-1.63M12.65,8.98l.14.27.34-.03-.34.24-.31.34-.07.1-.17.41c-.03.1-.07.24-.1.34l-.07.34v1.06l-.03.17c0,.54.31,1.29.88,2.21l.2.34.14.2c.24.27.37.44.41.54v.07l-.07.14-.17-.17-.27-.34-.48-.68-.24-.41-.14-.24-.2-.34-.24-.71-.03-.34c-.03-.2-.03-.37-.07-.58v-.41c0-.65.1-1.22.34-1.77l.41-.58.14-.17ZM23.64,9.29c0-.1.07-.2.17-.37.1-.14.31-.2.58-.2.14,0,.27.07.44.24l.03.1c.27.37.41.78.41,1.19,0,.1,0,.2-.03.31,0,.1,0,.24-.03.34l-.14-.2v-.61l-.14-.44-.1-.14c-.17-.14-.34-.2-.44-.2-.24,0-.37.17-.41.51l-.24-.2c-.07-.14-.1-.24-.1-.31M16.7,8.67c.17.24.31.51.34.75l.14-.1-.1-.34v-.2l.37.34-.17-.37c.34.31.51.61.51.85v.31l-.54-.2-.03.1.14.34h.03l.17.07h.24l.03.2.1.1v.1c0,.07-.07.14-.2.2v.1l-.03-.07c-.14-.03-.24-.1-.27-.17l-.1-.14-.03-.24h-.14l-.17.34-.41-.2c-.24-.14-.37-.34-.37-.61l.07-.27.17-.51.07-.34c.14.17.2.41.2.68h.14l-.07.07c.1-.03.14-.07.14-.17,0,.03-.07-.17-.2-.61M18.2,8.43l-.07.72c.03.07.03.17.03.34.03.1.03.2.03.31v.2c0,.17,0,.24.03.27l.17.51v.1l-.07.55c-.1.71-.48,1.09-1.05,1.09-.51,0-.88-.2-1.05-.58l-.03-.03-.03-.1c-.03-.1-.03-.2-.03-.27l-.03-.14c0-.38.17-.55.48-.55.1,0,.27.07.44.2-.34.1-.48.27-.44.44v.27c.24.17.44.27.58.27.2,0,.37-.07.51-.2.34-.37.51-.75.48-1.12l-.1-1.29v-.03c0-.14.07-.44.17-.95M10.58,8.2l.14.27c-.03.1-.14.2-.24.24l-.07-.07-.1-.14-.03-.1c0-.07.1-.14.31-.2M3.03,8.4c.14-.44.41-.68.82-.68.1,0,.2.03.31.1.24.2.38.41.38.58,0,.07-.07.14-.17.2-.07-.03-.14-.1-.17-.24-.17-.1-.31-.17-.37-.17-.24,0-.37.07-.41.24l-.17.55-.17.07c-.1,0-.14-.03-.14-.14s.03-.2.1-.31v-.2ZM6.8,7.62c.58.03.85.2.85.58,0,.1-.1.17-.31.24v-.17l-.07.03c-.03-.2-.14-.31-.31-.31-.31,0-.44.14-.44.37,0,.2.07.34.2.44l.27.17.17.1c.1.07.24.1.48.1h.03c.14.03.24.1.27.14v.07l-.37-.03c-.24-.03-.44-.07-.61-.1-.17-.07-.34-.14-.51-.24l-.1-.07-.14-.14-.1-.2-.03-.14s-.03-.14-.03-.27c0-.17.2-.37.58-.54l.17-.03ZM18.74,7.48c.17.17.24.31.24.41-.03.1-.03.2-.07.31,0,.1,0,.17-.03.27v.17c-.07.71.17,1.33.71,1.77.44.41.85.61,1.22.61.14,0,.34-.03.61-.1l.07.03c.65-.48.99-.88.99-1.26,0-.1-.1-.2-.24-.37-.2-.14-.24-.24-.2-.34l.03-.1-.31-.1-.14-.03h-.03c-.2,0-.31.1-.31.27,0,.14.07.24.24.34l.38.07v.27c0,.17-.1.37-.27.54-.17.17-.38.27-.58.27-.17,0-.37-.1-.65-.31v-.27c.03-.48-.1-.71-.37-.71-.1,0-.2.07-.31.2l-.07-.07c.17-.24.34-.37.48-.37.37,0,.58.14.61.44l.03.51.1.24s.14.03.27.03c.31,0,.44-.14.44-.41l-.03-.17c-.2-.1-.38-.2-.51-.34l-.07-.31c0-.31.14-.51.44-.65.1-.1.17-.14.27-.14.44,0,.82.24,1.12.75l.14-.14c.1-.1.17-.14.27-.14h.07l.07.03-.03.31.1.41v.1c0,.07-.03.17-.07.31-.44.75-.85,1.16-1.26,1.26-.17.03-.27.1-.27.14v.1h.24c.1.03.37-.17.82-.61.14-.31.34-.48.65-.58l.1-.03.07.58.1.07c.27-.14.51-.2.68-.2.1,0,.17,0,.2.03l.31.27.03.2-.17.17-.51.61-.65.1c.24.17.34.27.34.37v.03l-.03.07-.07.07-.44.24c-.17.1-.34.14-.54.14h-.17l-.75-.14-.24-.03v.1h-.07l.58.17c.24.1.31.24.27.48v.2l-.34-.17-.07.07.17.24.03.14c-.03.34-.17.61-.41.78l-.07-.27c-.03-.17-.14-.31-.31-.38-.24-.1-.41-.2-.51-.31l-.1-.2.03-.03h-.14c-.03.14-.14.2-.27.24v-.1l-.14-.34c-.85-.65-1.43-1.33-1.77-2.04l-.03-.07c-.1-.2-.17-.41-.24-.65-.03-.2-.07-.41-.1-.65v-.34l-.03-.27v-.2c-.03-.58.14-1.09.44-1.6M14.69,7.11l.41.07c.17,0,.31.07.37.17l-.54.07.03.1h.51l.03.1-.65.24c.1,0,.2-.03.37-.07.14-.03.24-.07.27-.07s.07.07.1.17c-.48.17-.71.27-.75.31l-.37.2.24.03c.1-.03.24-.1.41-.2l.72-.07.07.1h.24l-.85.41.82-.2.07.07-.27.14-.1.14.17-.03.37-.1-.1.48c-.03.2-.2.37-.41.58-.27.14-.51.24-.78.2l-.44-.03.03-.1.27-.37-.07.14-.03-.1c-.24.14-.41.2-.51.2s-.2-.07-.37-.24c-.31-.24-.58-.37-.82-.37h-.07l-.2.07v-.07c0-.2.03-.37.14-.54l.27-.31c.14-.14.34-.2.61-.2l.03-.07c-.27-.03-.44-.17-.54-.37l1.33-.44ZM18.33,6.33l.1.27-.14.1-.14.1-.2.07-.14-.03c0-.07.07-.17.2-.27l.1-.07.2-.17ZM21.05,6.5c.2-.24.55-.37,1.06-.37.34,0,.65.03.92.14l.27.14.07.1.07.03-.1.07h-.07s-.07-.03-.24-.07c-.31-.1-.51-.17-.68-.17-.71,0-1.09.27-1.09.82,0,.34.17.51.48.51.1,0,.2-.1.27-.27l.07-.03c.07,0,.1.03.1.14l-.07.14-.03.07-.1.2c-.03.1-.24.17-.61.17-.24,0-.44-.14-.61-.44-.07-.17-.1-.31-.1-.41,0-.03.07-.17.17-.44l.24-.31ZM12.38,6.05l.17-.07h.07c.38,0,.58.24.58.71,0,.27-.07.54-.2.85l-.75,1.43c-.03.1-.1.24-.14.37-.03.14-.1.27-.14.44l-.07.03-.07-.2.14-.51.14-.34.37-.95.17-.44c.14-.24.2-.41.2-.54,0-.07-.07-.17-.14-.31-.14-.14-.2-.2-.24-.2h-.03l-.17.07.1-.34ZM21.16,5.71l.2-.03h.31l.85.07.54.14.41.24.07-.07c.27.1.44.27.54.51l-.34-.07c-.68-.34-1.22-.51-1.6-.51-.51,0-1.02.14-1.6.41l-.31.14-.03-.17-.03-.24c0-.07.1-.14.27-.17l.71-.24ZM17.04,5.2c.51.14.78.44.78.95,0,.41-.2.75-.65,1.05v.07l.27-.03.1-.14c.1-.1.31-.17.54-.17.17,0,.31.03.48.14v.1l-.07.17c-.1.07-.24.24-.44.51-.24.37-.61.58-1.09.58-.31,0-.61-.1-.92-.34l-.14-.2-.07-.1-.03-.1-.03-.31c0-.2.17-.44.48-.68l.17-.1.31-.27.24-.17c.1-.17.17-.31.17-.41,0-.14,0-.24-.03-.27l-.07-.27ZM10.78,5.95c.07-.51.27-.75.65-.75l.07.03.07.07c.17,0,.31.07.41.17.14.17.2.34.2.44v.07c-.03.58-.27,1.36-.75,2.35-.1.17-.14.31-.14.41,0,.07.03.17.07.31.03.1.07.2.07.27l-.07.03c-.17,0-.31-.14-.44-.41v-.14c-.03-.27.07-.48.24-.58v-.14l-.17.07-.14.07-.03-.07v-.14l.07-.2.65-1.29c.07-.1.1-.17.1-.27l-.07-.14-.1-.07c-.07,0-.17.27-.27.78-.03.37-.31.65-.78.82l-.14-.03.24-.2v-.14s-.17.03-.34.03c-.1,0-.2-.07-.31-.24v-.14s.14.03.24.03c.17,0,.31-.1.44-.31l.03-.14.2-.58ZM24.56,5.95l-.03-.17c0-.44.24-.65.68-.65.17,0,.34.07.51.24v.07c-.31.17-.48.38-.48.61,0,.2.03.37.1.54l.44.88c.17.44.27,1.05.27,1.9,0,2.04-.65,3.5-1.97,4.39l-.03-.27c0-.1.1-.24.34-.37l.27-.37c.51-.71.75-1.5.71-2.28v-.65c-.37-1.33-.92-2.01-1.56-2.01-.31,0-.48.2-.48.65-.48-.03-.71-.24-.71-.65,0-.24.1-.37.31-.37h.14l.03-.1c-.17-.03-.31-.07-.34-.1,0-.07.07-.17.24-.34.31-.17.54-.27.65-.27l.34.07.24.1c.24.1.48.31.75.54.31.54.48.95.51,1.23.03.17.1.31.17.34.03-.03.03-.14.03-.24,0-.07-.03-.2-.1-.41l-.24-.54-.03-.07c-.17-.37-.48-.71-.92-1.02-.2-.14-.31-.31-.31-.51,0-.17,0-.31.03-.37l.17.1.1.14.03.03.14-.07ZM14.42,5.1c.65.03,1.09.24,1.33.55l.31.44.1.34-.17.1-.1-.31-.17-.07.17.51-.1.17-.14-.14-.07-.17-.07-.1c0-.14-.03-.2-.07-.2l-.1.03c.03.14.07.27.17.41.07.14.1.24.1.31,0,.03-.03.1-.14.2l-.14-.27-.07-.17-.17.07.07.14v.07l-.1.07c-.1,0-.24-.03-.41-.1v-.07l-.14-.03-.03-.1-.1-.1-.1-.17-.07-.37.31.07.03-.14-.07-.03-.07-.14.03-.1c.03-.07.03-.17.03-.27v-.2l-.07-.2ZM11.16,5.07c.03-.14.1-.2.27-.2.03,0,.14.03.31.07.17.07.27.14.27.2l-.03.17c-.24-.17-.51-.24-.82-.24M23.81,5.24v-.24c-.03-.31.1-.44.41-.44.14,0,.24.03.27.07l.07.34-.24-.07h-.03c-.14,0-.2.1-.2.31,0,.17,0,.31.03.38-.14,0-.24-.1-.31-.34M12.11,4.32c.31.71.65,1.05,1.09,1.05.17,0,.34-.14.51-.37.03.17.07.27.07.31,0,.31-.2.48-.65.48-.31,0-.55-.17-.75-.48-.17-.2-.27-.37-.31-.48l.03-.51ZM2.79,4.42l.27-.2.07-.03h.03c.1,0,.2.1.34.27-.51.24-.82.44-.88.61l-.07.17-.31.38c.1-.38.27-.72.44-.99v-.07h.03l.07-.14ZM10.68,4.25l.37-.2v-.03c.07,0,.1.03.1.14s-.03.14-.1.17l-.78.58-.17.2-.31.48-.14.65-.07.48.24,1.36-.24-.24-.03-.37-.14-.48v-.17c-.1-1.12.34-1.97,1.26-2.55M22.79,5.65c-1.02-.07-1.7-.17-1.97-.27-.34-.1-.48-.34-.48-.65,0-.51.24-.78.68-.78.1,0,.17,0,.2.03-.27.17-.41.37-.41.54,0,.44.54.75,1.67.95.17.03.31.07.37.1l-.07.07ZM14.01,3.71c.68.1,1.29.24,1.8.41l-.03.07c-.71-.24-1.33-.34-1.84-.31l-1.12.1h-.44c-.07.03-.17.03-.27.07-.14.03-.24.03-.27.03-.07,0-.1-.03-.1-.14v-.07h.17l.37-.14.58-.03.24-.03s.17-.03.41-.03c.03,0,.07,0,.17.03l.34.03ZM10.44,3.2l.1-.03c.24,0,.37.24.48.75l-.34.17c-.92.51-1.4,1.39-1.4,2.59,0,.95.44,1.8,1.36,2.58l.51.41.27.24.17.1.07.07.1.07.07.07s-.03.1-.1.2c0,.1,0,.17-.03.24l-.07.27v.82c0,.17,0,.27.03.34v.34l-.07.07c-.1,0-.17-.03-.27-.14l-.48-.31c-.1-.07-.17-.1-.2-.14-.2-.1-.44-.27-.65-.48-.27-.24-.51-.48-.82-.78l-.31-.41-.34-.48c-.34-.58-.54-1.05-.58-1.43l-.07-.51c-.03-.1-.03-.2-.07-.34v-.24c0-.17.03-.24.07-.24l.34-.17.1-.17.24-.07.24-.07.17-.41-.07-.1-.17-.24-.48-.2c.31-.95,1.02-1.73,2.18-2.38M5.65,3.47c.2-.31.41-.48.61-.54l.24-.07h.14l-.17.48-.34.07.24.41c.07.1.14.2.17.24.2.17.34.37.37.65l-.14-.03-.03-.1-.17-.24c-.24-.27-.44-.41-.61-.41l-.27.03-.34.68.03-.27.03-.34-.14.07c-.03.24-.1.41-.17.58-.07.17-.14.27-.17.37l.03.55-.17.03-.03.17-.07-.17v-.2l.03-.07h.1v-.14h-.2l-.03-.1-.07-.14.03-.14-.24-.07.03-.1.03-.1-.14-.03-.1.41-.14.14-.03-.27s.07-.2.17-.48l-.03-.03v-.03l-.1-.03c-.1.34-.17.54-.17.58,0,.1.03.27.1.51l.1.03.31-.34.14.24.07.51.17.27.17.03c.17,0,.27-.1.27-.31,0-.1,0-.2-.03-.27l-.03-.2v-.24c.03-.14.1-.2.17-.24.03,0,.14.07.24.17.07-.07.1-.17.1-.27v-.14l.2-.27.14-.24.1.03c.34.2.58.48.68.85l.27-.14c.07.31.1.54.1.65,0,.2-.14.48-.44.85l.2.03-.14.07.37-.41.27-.03.03.27.17-.03v-.03l.24-.1.14.03s.07-.03.17-.03l.17.1c.14.03.24.07.27.17l-.07.14-.2.07c-.07.03-.31.2-.75.58-.44.31-.92.48-1.36.48-.31,0-.48-.03-.54-.14l-.2-.27h-.07l-.07-.03c-.17,0-.27.14-.27.37,0,.44.2.82.61,1.19.37.34.88.58,1.46.68l.34.07.2-.03c.31,0,.44.07.44.24h-.03l-.99-.03-.82-.24c-.54-.17-1.09-.58-1.6-1.23-.2-.51-.31-.78-.31-.88s.07-.31.2-.54l.07-.24-.58-.07c-.41-.07-.61-.41-.61-1.06,0-.17.03-.34.1-.54.1-.24.17-.37.2-.48l.17-.2c.14-.2.2-.44.2-.68v-.2c.24.17.38.44.38.75v.14l.24.03.03.1.03.07s-.03.1-.1.2c-.03.1-.07.17-.07.24s.03.1.14.1h.14v-.34l.1-.2-.07-.51v-.1l.44-.44c.1.1.17.24.17.41h.1l-.07.03c.1-.03.14-.07.14-.1,0,.03-.03-.03-.07-.17M6.63,3.5l-.03-.24c0-.14.03-.24.14-.34l.07-.07.07-.03.03.03.07.48.34,1.09c.03.17.07.31.07.37,0,.2,0,.34-.03.41l.71-.1.03.2c0,.1-.03.2-.1.38l.1.07h.14c.31.07.51.24.61.54-.31-.24-.58-.34-.82-.34l-.14.03c-.07,0-.17,0-.27.03l-.03-.14h.03l.24-.27v-.14l-.44.31.14-.38-.2.2-.1-.31-.03-.2-.03-.1v-.37c-.1,0-.17-.07-.17-.24l-.03-.03-.07-.1-.1-.1-.37-.37c-.03-.17-.07-.27-.07-.24l.1-.03h.17ZM19.49,5.41c-.14-1.39-.2-2.07-.24-2.01l.1-.51.85,5.1-.14.51-.27.07h-.07l-.14-.07c.24-.17.37-.38.37-.58l-.2-1.12-.03-.48c-.03-.17-.07-.27-.1-.41l-.07-.24-.07-.27ZM10.48,2.76l.07-.07.07-.03c.1,0,.24.1.41.31.44.58.71,1.19.75,1.8l-.37-.03-.07-.58-.1-.24c-.14-.37-.31-.68-.51-.92l-.24-.24ZM22.75,2.79l.31-.14h.1c.24,0,.37.17.37.55-.1-.07-.2-.1-.31-.1-.37,0-.58.27-.58.78,0,.44.27.92.85,1.39l-.07.07-.37-.34-.2-.27-.14-.17-.1-.2c-.14-.31-.2-.58-.2-.82,0-.37.1-.61.34-.75M9.28,2.55c.31,0,.44.17.44.51,0,.44-.2.65-.61.65s-.61-.17-.61-.48l.07-.14.07-.1.31.34.34-.14c.1-.07.14-.14.14-.2,0,.03-.03-.07-.07-.24l-.07-.2ZM11.22,3.03l-.03-.03c0-.1.1-.17.31-.2l.48-.14c.31-.07.78-.1,1.43-.1,1.33,0,2.59.14,3.78.38.31.07.54.1.75.1s.41-.1.61-.34c.1-.1.2-.17.27-.17.03,0,.1.03.2.1v.48l.54,3.57.2.95s.03.1.03.24c0,.31-.07.48-.2.48-.1,0-.2-.14-.31-.41-.24-.54-.41-.95-.51-1.22l-.17-.37c-.31-.78-.95-1.46-1.94-2.04-1.06-.58-2.08-.85-3.06-.75l-1.22.07h-.07c-.07,0-.17.03-.31.07-.14.03-.24.07-.27.07-.1,0-.17-.1-.27-.34l-.24-.37ZM17.82,2.14h.03c.17,0,.27.1.27.27s-.1.24-.27.24-.24-.07-.24-.2l.03-.1c.03-.1.07-.17.17-.2M20.24,2.72c.03-.41.17-.61.41-.61l.07.03-.07.31.07.48-.37.2c.03.07.03.17.03.27v.17c0,.14-.03.34-.1.58-.07.24-.1.41-.14.51,0,.14-.07.24-.17.27l-.03-.14c.1-.34.14-.54.14-.65v-.85l.03-.07v-.03l-.03-.03-.37.07-.24-.58-.14-.17c.31,0,.48.03.54.03.03.07.14.17.24.34h.14v-.14ZM17.21,2.07c.17,0,.24.07.24.24,0,.14-.07.2-.24.2-.14,0-.2-.07-.2-.2v-.07c.03-.1.1-.17.2-.17M16.7,1.53c.2,0,.31.1.31.31,0,.17-.1.27-.27.27-.2,0-.31-.1-.31-.31v-.07c.03-.14.1-.2.27-.2M20,2.41c-.44-.44-.82-.65-1.16-.65-.1,0-.27.03-.48.14-.24.07-.37.1-.44.1-.1,0-.14-.03-.17-.1v-.03c0-.24.31-.37.95-.37.78,0,1.22.34,1.39,1.05l-.1-.14ZM23.6,1.43l.34-.1h.24c.17,0,.51.1,1.02.27l.41.17h-.03c.2.03.31.1.31.14,0,.27-.14.41-.44.41-.17,0-.27,0-.31-.03l.07.1c.44.03.68.31.68.82,0,.85-.34,1.26-1.05,1.26-.1,0-.2-.03-.34-.07l-.61-.41-.1-.03-.03-.03.07-.17.1-.24c.07-.17.03-.37-.07-.65.1.03.17.07.24.14l.14.1c.03.1.07.24.14.31,0,.14.07.24.1.34.03.03.1.03.2.03.07,0,.17-.07.27-.17l.03.03.17-.34.03-.07c0-.17-.07-.37-.24-.68-.37-.37-.75-.54-1.12-.54-.41,0-.75.14-1.09.44-.27.27-.44.61-.44,1.02,0,.78.31,1.36.88,1.77.34.24.54.41.58.44.07.03.14.14.17.27l-.41-.24-.37-.27-.24-.17c-.58-.54-.88-1.16-.88-1.8,0-1.12.54-1.8,1.6-2.04M12.48,1.63c-.1-.07-.14-.14-.14-.2s.07-.1.17-.1c.24,0,.34.14.34.37,0,.58-.41.85-1.19.85-.31,0-.58-.03-.82-.14l.07-.07c.27.07.48.1.58.1.68,0,1.02-.17,1.02-.54,0-.14,0-.24-.03-.27M17.48,1.22c.14,0,.2.07.2.2,0,.24-.1.37-.27.37s-.27-.1-.27-.34v-.07c.07-.1.14-.17.24-.17h.1ZM1.53,1.19l.27.07.27.1.03.07.14.07c.2.2.31.44.31.71-.1.24-.14.41-.14.51l.07.07c.07,0,.17-.03.31-.1.03.1.03.2.07.31v.2c0,.31-.07.58-.2.88l-.54,1.19c-.03.14-.1.31-.14.51-.03.24-.07.48-.1.78l-.03.41c0,.14.03.34.1.65h.17v-.2c-.07-.14-.1-.24-.1-.31s.03-.17.03-.31c.07-.1.07-.2.07-.27l.17-.37.07-.14.54-.61v.72c.1-.1.2-.14.34-.14.31,0,.48.24.51.71h-.17c-.31-.03-.54.1-.71.31-.17.27-.27.54-.24.92l.03.17.14,1.06s-.2.17-.61.37c-.1-.07-.2-.17-.27-.27-.03-.1-.14-.37-.24-.82l-.14-.44-.14-.58c-.03-.31-.03-.61-.03-.85-.03-.24-.03-.44-.03-.61v-.51h.03l-.03-.41.14-.78.07-.34.1-.54.1-.27.03-.24-.14-.72.14-.1-.07-.2-.03-.07-.07-.17-.2-.37.14-.03ZM21.09,2.11c-.17-.17-.27-.34-.27-.44,0-.37.2-.58.61-.58.14,0,.24,0,.31.03.37.27.58.54.58.85v.14l-.37.82c-.03.1-.03.17-.03.27-.03.1-.03.2,0,.31v.48c-.1-.17-.14-.31-.14-.48,0-.03,0-.17.03-.41.03-.24.03-.41.03-.58l.03-.31c0-.17-.03-.34-.14-.51-.14-.17-.24-.24-.34-.24-.2,0-.31.2-.31.58v.07ZM3.03,1.05c.31.07.48.2.48.41,0,.24-.1.48-.27.65l-.24.24-.14.14h-.2c.1-.1.17-.2.2-.27.2-.27.31-.48.31-.58l-.03-.31-.1-.27ZM6.22,1.05l.75-.03.75.03.61.07,2.38.51h.17c.51,0,.85-.2.99-.58l.14.24c-.1.61-.34.88-.65.85l-.75-.07.07.48h-.58c-.14,0-.31-.03-.48-.07l-1.39-.75-.37-.1-.24-.17s-.07-.03-.17-.03l-.07.07c0,.14.14.2.44.24l-.1.03.03-.03.51.2c.14.2.2.48.24.78l-.31-.03-.07.44c-.03.24-.17.34-.48.34-.07,0-.14-.03-.24-.1.1-.1.14-.2.14-.31v-.07l-.07-.14-.07-.2-.2-.2.1.03c-.44-.31-.92-.48-1.43-.48-.31,0-.58.07-.85.17l-1.7.89-.17.03-.17.07v-.58c.03-.17.17-.31.41-.48.2-.14.34-.24.44-.27l.27-.2c.48-.27.89-.44,1.19-.48l.92-.1ZM14.45,1.94c-.37-.1-.54-.24-.54-.48,0-.34.2-.51.65-.51.37,0,.71.31,1.02.95.1.24.31.34.65.34h.1l.14.14-.27.07c-.1,0-.17,0-.2-.03l-.44-.17-.44-.75c-.14-.24-.31-.34-.51-.34-.14,0-.2.07-.2.24l.1.2.31.31v.03c0,.2-.07.31-.17.31-.03,0-.07-.03-.1-.14l-.07-.17ZM.82,26.39h25.54V.85H.82v25.54ZM.41.41h26.39v26.39H.41V.41ZM0,27.21h27.21V0H0v27.21Z" fill="#231f20"/>
    </g>
  </g>
</svg>