<?xml version="1.0" encoding="UTF-8"?>
<svg id="Layer_1" xmlns="http://www.w3.org/2000/svg" width="27.21" height="27.21" xmlns:xlink="http://www.w3.org/1999/xlink" viewBox="0 0 27.21 27.21">
  <defs>
    <clipPath id="clippath">
      <rect width="27.21" height="27.21" fill="none"/>
    </clipPath>
    <clipPath id="clippath-1">
      <rect y="0" width="27.21" height="27.21" fill="none"/>
    </clipPath>
  </defs>
  <g clip-path="url(#clippath)">
    <g clip-path="url(#clippath-1)">
      <path d="M18.16,23.03h-.2l.31.2.31.14-.07-.17-.34-.17ZM13.06,22.89l-.03.14c.17.03.2.07.07.07l.1-.1s-.03-.07-.14-.1M12.75,22.89l-.07.07c0,.1.03.17.1.17l.1-.1c0-.1-.03-.17-.14-.14M13.77,22.82l-.03.31.14.03v-.34h-.1ZM5.51,22.92l.17-.27v-.44l-.2.14s0,.1.03.24c.03.07,0,.17-.07.27l.07.07ZM23.5,21.84c.1.24.27.31.48.27h.1v-.1h-.31l-.27-.17ZM17.04,20.61c-.2.24-.44.41-.75.54l.07.1.14-.1c.24-.07.41-.2.51-.41l.03-.14ZM16.16,20.95c.31-.07.51-.2.61-.44l-.61.44ZM14.93,19.93l-.78.41-.27.14c-.17,0-.31-.07-.44-.2-.14-.1-.24-.17-.31-.17l-.07.07c0,.24.31.37.92.37.37,0,.61-.1.68-.31l.27-.31ZM14.25,20l-.71-.03-.03.1.14.07h-.07.51l.17-.14ZM18.03,19.93c.03.1.07.17.17.2h.1l.03-.2h-.31ZM24.49,19.35l-.07.24-.31.55-.03.03.1.1s.1-.1.17-.27c.03-.03.07-.14.14-.27.1-.14.14-.27.14-.37v-.1l-.14.1ZM23.98,19.69l.1.1.07-.07.14-.44-.31.41ZM13.47,18.43v.1l.48-.41-.48.31ZM6.97,18.33l-.03.2-.1.44.34-.27c.07,0,.07.03-.03.1-.1.03-.14,0-.14-.07v-.07l-.03-.34ZM7.14,16.8h-.14v.1l.1.03.03-.03h.07l.27-.1c.14-.03.27-.07.31-.03-.31-.03-.51-.03-.65.03M12.55,17.01c.1-.14.17-.2.27-.24.44-.1.65-.17.65-.27,0,.03-.17.03-.48.03l-.2.1-.34.24.1.14ZM13.03,15.71c-.17,0-.24-.03-.21-.07.07-.03.1,0,.1.1h.2v-.07l.07-.1.07-.14h-.03s-.17.07-.38.24c-.24.17-.34.27-.34.31.1-.03.27-.14.51-.27M14.11,14.69l-.41.2.14-.1.27-.1ZM23.81,14.86l-.1-.31c-.07,0-.1.03-.1.14s.07.2.2.34v-.17ZM25.1,14.46h-.07l-.07.1-.1.17.14.1c.17,0,.27-.07.27-.17l-.07-.17-.1-.03ZM22.18,13.5c-.24.1-.41.2-.54.27-.1.07-.17.1-.2.14h.07s.07-.03.1-.14l.17-.03.03-.07.37-.17ZM16.84,10.85l.1.27.14-.24-.24-.03ZM16.53,10.75c.1-.03-.14-.17-.75-.37l.2.1c.14.07.24.1.34.14l.14-.03-.58-.17c0-.07-.38-.2-1.09-.37.51.1,1.09.34,1.74.71-.1-.03-.17-.1-.2-.14,0-.03.03-.03.14,0s.14.03.14.07l-.07.07ZM13.33,9.39l-.44.24s-.07.03-.1.14c-.17.48-.27.65-.27.48l.1.1s.1-.1.14-.31c.1-.1.2-.24.31-.34.1-.1.17-.2.27-.31M19.52,9.05l-.44.2.61-.07-.17-.14ZM13.57,8.57l.03.24.07.03c.07,0,.1-.07.1-.17,0,.03-.07,0-.2-.1M14.22,8.4l-.27.07-.07.14.1.17.07-.14c.03-.1.1-.14.1-.2l.07-.03ZM14.56,8.2l-.2.31.07-.17.14-.14ZM12.89,8.09l-.24.03v.07c0,.07.07.07.17.03h.44l.17.03.61-.1.31-.03.27-.14-1.73.1ZM17.69,8.06c-.1.17-.17.24-.17.14l.07.07c.37,0,.58-.07.58-.17s-.1-.17-.31-.17c-.1,0-.17.03-.17.14M17.38,7.86l.2.03-.1.07-.07.07c-.17.1-.27.17-.27.14s.03-.1.1-.2c.07-.1.1-.17.07-.2l.07.1ZM16.9,7.62v.51c.24-.17.31-.34.27-.51h-.27ZM16.73,7.55l-.17-.03-.03.31-.17.31c.31-.24.41-.41.37-.58M13.88,7.14l.03.1.34.14.17.1h.17v-.1l.07-.1-.54-.07-.24-.07ZM18.5,7.58l-.48-.51h-.03l-.03.03c0,.07.17.24.51.54l.03-.07ZM23.3,7.24l-.07-.2-.07.51v.07s.14.03.37.03l-.24-.41ZM23.81,6.84l.54-.1-.37.07-.17.03ZM24.62,6.7c0,.17-.07.31-.2.44-.1.14-.17.2-.2.2.27,0,.41-.1.44-.34.1-.1.17-.2.27-.27l.27-.27-.58.24ZM24.49,6.29l-.2-.07-.17.03.38.03ZM24.28,6.05l.2-.14-.17.03.31.03-.34.07ZM23.5,5.61l.14.37-.03-.07-.1-.14v-.17ZM23.3,5.48l-.14-.07-.14.38.03.24.24-.55ZM5.61,4.83l-.31.48.54-.24-.24-.24ZM5.41,3.95l.34.61.03-.24-.37-.37ZM3.78,3.84l.1.51.34-.24-.44-.27ZM22.79,2.55l-.14-.07-.07.07v.03l.03.03.24.24.17.58c.1-.03.14-.07.14-.1.17-.14.24-.2.24-.17l-.34-.1-.1-.24-.17-.27ZM24.8,2.38l-.68-.03-.03.17.48.03.03-.17-.1.2.31-.2ZM22.62,1.73l-.41-.17-.03.24.44-.07ZM22.31,1.43h-.37l-.1.24.1.03-.07.03c.1-.03.17-.1.17-.2l.27-.1ZM21.7,1.33h-.07s-.07.07-.1.17c0,.1.03.14.14.14.24,0,.34-.07.34-.2l-.31-.1ZM4.97,22.38c-.1,0-.14.07-.14.2v.03c.03.1.07.14.17.14.17,0,.27-.1.27-.27,0-.07-.1-.1-.31-.1M12.96,18.5c-.1,0-.14.03-.14.14s.07.14.17.14c.03,0,.1-.07.24-.17.14-.1.2-.2.2-.24s-.07,0-.24.07c-.14.03-.2.07-.24.07M12.07,25.82c.1,0,.17.03.2.14v.07c0,.07-.03.1-.14.1s-.17-.07-.17-.17v-.07l.1-.07ZM12.65,25.82h.03c.1-.03.17,0,.17.1s-.07.14-.17.14-.17-.03-.17-.14c0-.07.03-.1.14-.1M11.63,25.47c.14,0,.2.03.2.14,0,.07-.03.1-.14.1s-.17-.03-.14-.14l.03-.1h.03ZM12.99,25.44h.03c.1,0,.17.03.17.1,0,.1-.07.17-.17.17s-.17-.03-.17-.14.03-.14.14-.14M13.5,25.71h.17c.14,0,.31-.1.48-.27.24-.27.44-.41.61-.41.34,0,.51.14.51.37s-.07.38-.17.38l-.1-.03c.03-.17.07-.27.07-.31,0-.17-.07-.24-.24-.24s-.27.03-.34.1l-.51.51h-.17l-.1.07-.27-.07.07-.1ZM10.68,25.2l.41-.2.17-.03c.37,0,.61.1.65.31-.31-.07-.54-.1-.65-.1-.14,0-.2,0-.24.03l-.34.14v-.14ZM12.92,25.07c-.03.17-.07.24-.14.24-.1,0-.17-.07-.17-.17s.03-.17.14-.17h.03l.14.1ZM12.14,24.93h.17l.03.07.03.03c0,.1-.07.14-.17.14-.07,0-.1-.07-.1-.17v-.03l.03-.03ZM9.11,24.93c.17.03.24.07.24.14,0,.37-.1.54-.34.54l-.27-.07c.31-.07.44-.2.44-.37,0,.03-.03-.07-.07-.24M1.33,25.71c-.03-.1-.03-.2-.03-.27l-.03-.14c0-.27.21-.41.58-.41.17,0,.31.03.44.1l.65.31.31.07.27.17-.37-.03-.82-.27c-.24-.03-.34-.07-.37-.07-.31,0-.51.17-.61.54M6.63,25.54c.1.03.14.07.14.17,0,.31-.14.48-.44.48-.34,0-.51-.17-.51-.51,0-.1.03-.2.1-.27l.2-.27.27-.24.07.07-.44.51-.03.1c0,.27.14.41.37.41.17,0,.24-.14.27-.44M10.2,24.86l.2.27-.07.37.61.2.2.1.07.07v.1h-.54l-.58.1-.2-.1c-.14-.03-.2-.07-.17-.07-.03,0-.1.03-.2.07-.1.03-.2.07-.27.07-.03,0-.14-.03-.37-.07l-.58-.14-.44-.31-.17-.1-.2-.31c-.07-.1-.1-.14-.1-.17l.1-.1c.07,0,.14.07.17.2.37.54.88.82,1.56.82.2,0,.37-.07.54-.24-.03-.1-.07-.17-.1-.24.1-.1.17-.2.27-.31.1-.07.17-.14.27-.24M17.45,24.35l.17-.07h.07c.44,0,.65.27.65.85,0,.44-.17.68-.51.68-.1,0-.17-.03-.27-.1.37-.17.58-.38.58-.58,0-.07-.03-.17-.07-.31-.03-.17-.1-.24-.17-.27l-.31-.1-.14-.1ZM17.72,24.96l-.17-.07-.14-.07c-.54-.24-.85-.37-.95-.37-.51,0-.78.24-.78.68,0,.34.14.54.38.58l.37.03.1.03.03.03.07-.03.1-.1.17-.27.03-.07.1-.37.1.03v.1l-.07.44c-.07.31-.34.48-.78.48-.2,0-.37-.1-.58-.27-.14-.17-.24-.38-.24-.61,0-.65.31-.95.89-.95.31,0,.78.2,1.43.65l-.07.14ZM13.84,24.11c.14.1.2.17.2.2,0,.34-.41.48-1.19.44l-.24-.03-.85-.1-3.47-.07-1.5.14-.68-.03c-.44,0-.68-.14-.75-.41.37.1.71.17.95.17l3.09-.1,1.09.03c.1,0,.31,0,.65.03.27.03.68.07,1.19.1h.51c.48,0,.82-.14.99-.37M22.21,24.01c.1.17.24.27.37.27l.17-.03-.27.24-1.29.68c-.1.03-.24.1-.37.14-.17.03-.34.1-.51.14l-.41.07s-.14.03-.24.03c-.14,0-.2-.07-.2-.2,0-.1.24-.2.75-.27.51-.07,1.16-.41,2.01-1.05M22.21,24.86c.14-.07.24-.14.27-.17.85-.44,1.46-.68,1.84-.68.58,0,.92.17,1.05.51l.14.34v.27l-.27.17-.27.41c-.03.07-.2.1-.44.1-.14,0-.24-.03-.34-.1l-.75-.54-.1-.03c-.24,0-.37.1-.37.34,0,.27.17.41.51.41-.03.17-.1.24-.24.24-.37,0-.54-.2-.54-.58,0-.1.03-.24.1-.34.1-.24.17-.34.27-.34h.24l.2-.03h.07s.14.07.24.17c.24.24.44.37.58.37.31,0,.44-.1.44-.34,0-.14-.07-.31-.2-.48-.17-.1-.31-.17-.41-.17l-.07.03-.24.03-.54.1-1.67.75-.68.27-.31.1h-.24l-.54.03-.14-.1,1.33-.27s.14-.03.31-.17c.17-.07.41-.2.78-.31M24.42,23.13l-.07-.03.2.07s.03.03.07.14c0,.14-.14.27-.38.41-.03.03-.1.03-.2.03-.14,0-.2-.1-.24-.31l.17-.1v-.17l.44-.03ZM2.92,24.32c-.17-.24-.27-.44-.27-.58,0-.44.17-.65.51-.65.17,0,.31.14.41.41l-.07-.03c-.31,0-.48.14-.48.37,0,.65.51.99,1.53.99h.31c.1-.03.17-.07.24-.07l.14-.07.14.07-.58.17-.17.03h-.14c-.61.03-1.12-.17-1.56-.65M22.52,23.03l.41.07.1.1v.24l.14-.17.2.07c.17.1.27.24.27.34,0,.27-.24.41-.75.37h-.37l-.03-.1-.07-.2c-.03-.1-.03-.2-.03-.27l-.03-.14c0-.1.07-.2.17-.31M25.2,22.89c.14.03.2.17.2.37,0,.17-.07.24-.17.24-.17-.03-.24-.14-.24-.34,0-.14.07-.2.24-.24l-.03-.03ZM21.09,23.2c-.17-.1-.31-.17-.41-.17-.24,0-.34.1-.34.31v.1c.07.31.1.48.14.51h-.03c-.27,0-.41-.17-.41-.51,0-.51.2-.75.65-.75.61,0,.92.31.92.89,0,.71-.65,1.16-1.9,1.36l.14-.17.92-.31c.37-.14.54-.41.54-.78,0-.14-.07-.31-.2-.48M19.42,22.31l.1.1-.27.14.17-.24ZM22.04,22.21h.03c.34-.03.51.03.51.2v.03l-.03.1-.07.03.1.1v.14l-.2.03c-.17,0-.27-.2-.34-.65M19.62,22.28l.17-.07.14-.03c.17,0,.24.07.24.2,0,.17,0,.27-.03.31-.1-.24-.24-.34-.48-.31h-.1l.07-.1ZM22.82,22.18c.24.24.54.41.85.51h.03c.2,0,.31.07.31.17s-.1.2-.31.27l.03-.17h-.1l-.03.14c-.41-.03-.58-.17-.54-.34v-.24c-.1.03-.17.14-.17.27-.1-.1-.17-.2-.17-.27,0-.1.03-.2.1-.34M2.62,22.01c-.24.44-.37.89-.37,1.26,0,.51.2.99.65,1.36.44.41.95.61,1.53.61.17,0,.27,0,.34-.03l.95-.31h.17c.1-.03.14,0,.14.1s-.17.2-.51.31c-.54.17-.88.27-1.05.27-.68,0-1.26-.24-1.73-.75-.51-.48-.75-1.05-.75-1.7,0-.38.17-.75.54-1.12l.07-.03.03.03ZM15.41,22.62v-.1l.03-.03.17-.1.34-.27c.17-.1.44-.17.78-.17.17,0,.34.1.48.27-.07-.03-.14-.03-.24-.03h-.14c-.44,0-.92.14-1.43.44M18.57,22.58c.27-.17.48-.31.68-.48l.37-.37c.07-.1.1-.14.14-.14.07,0,.1.03.1.14s-.2.24-.58.41c-.03.03-.14.1-.31.24-.17.17-.24.24-.27.24l-.14-.03ZM14.59,21.56c.17.14.24.24.24.31,0,.1-.07.24-.17.41l.07.14h.2c-.1.34-.37.51-.75.51l.07.14h.27c.48-.03.82-.14,1.05-.31l.24-.2.24-.03c.24-.17.48-.24.78-.24.2,0,.41.03.58.14-.1.17-.2.27-.31.34.03.1.07.14.14.1h.07c.17-.1.31-.14.48-.14.78,0,1.23.31,1.33.92l-.31.03c.03.24.07.34.07.31,0,.17-.1.37-.34.68l-.07-.03v-.07c0-.37-.14-.61-.44-.78-.27-.17-.75-.24-1.43-.24l-2.62.03s-.14-.03-.31-.03c-.14-.07-.34-.1-.65-.14-.31-.1-.58-.17-.82-.2s-.41-.1-.58-.14c-.27-.1-.44-.44-.54-1.02l.34.17c.1.03.17.07.24.1s.14.03.24.07l.58.14c.92-.03,1.56-.31,1.94-.75l.17-.2ZM24.08,21.39l.1-.14h.48l.44.14c.2.07.37.34.48.78l.14.07.14.24-.03.31.03.44c-.31-.1-.41-.27-.37-.48v-.1l-.2-.03c-.2.2-.37.31-.48.31-.14,0-.24-.14-.31-.41l.2.07s.07-.07.2-.2c.07-.14.24-.2.48-.2l-.1-.27c-.24-.24-.61-.41-1.19-.51M4.05,21.05h.17c.1-.03.27.03.51.14l1.16.03-.03.27-.17.34.2.51v.14c0,.27-.1.51-.27.68l-.61.65s-.07.1-.07.2v.37l-.48-.34v-.68l-.41-.03c-.24,0-.37-.1-.37-.34v-.03l.2-.1.03-.2.07-.07v-.31l-.1-.07v-.17c-.24-.24-.48-.34-.75-.34-.24,0-.51.07-.82.24.2-.54.61-.78,1.19-.75h.1c.41.03.72.14.92.31.2.2.34.31.41.34.03,0,.07-.03.07-.14,0-.14-.17-.27-.54-.44-.1-.03-.24-.1-.41-.2M1.19,21.56c-.03-.17-.07-.27-.07-.31,0-.2.14-.31.41-.31.44,0,.65.2.65.58l-.07.27c-.1.24-.17.51-.2.75-.07.24-.1.51-.14.75-.03-.07-.03-.17-.03-.31v-.27c0-.31.03-.58.14-.88l.03-.14c0-.31-.14-.48-.41-.48-.17,0-.27.1-.31.34M14.32,21.02l-.03.31-.34.1-.41.2h-.1c-.07,0-.1-.07-.1-.17,0-.07.03-.17.1-.27.14-.17.31-.27.51-.27l.17.07-.24.1.03.14.41-.2ZM17.82,20.61c.17.07.24.17.24.27s0,.14-.03.17l-.17.27-.14.37c-.2-.17-.31-.34-.31-.51s.07-.34.2-.51l.07.14h.07l.07-.2ZM11.6,20.85v-.1c0-.31.14-.44.44-.44.54,0,.82.24.82.75,0,.24-.1.48-.34.65-.2.17-.44.27-.71.27-.51,0-.75-.17-.75-.48.24.1.48.14.65.14.51,0,.78-.2.78-.58,0-.31-.14-.44-.44-.44-.14,0-.27.07-.44.24M20.61,20.82l.17-.2c.37-.41.78-.61,1.23-.61.24,0,.51.17.82.48,0,.14-.07.2-.2.24.1.17.14.31.14.41,0,.24-.1.48-.31.68-.24.2-.48.31-.75.31-.17,0-.38-.1-.61-.34.07.03.2.03.44.03.1,0,.17,0,.2-.03.34-.1.51-.27.51-.51,0-.1-.03-.2-.1-.34-.17-.2-.37-.31-.54-.31-.14,0-.24.03-.27.07l-.54.31c-.24,0-.37.1-.48.34-.07.14-.14.2-.2.2l-.07-.03-.07-.03.65-.65ZM6.22,19.93h.03l.17.24.03.51c-.14.17-.24.24-.34.24s-.17-.07-.17-.2c.24-.03.37-.14.37-.24,0-.17-.03-.34-.1-.54M6.5,19.73v-.03l.14.27c.17.31.27.75.27,1.33s-.2.88-.61.88c-.1,0-.17-.07-.2-.24.44-.03.65-.31.65-.85v-.2c-.03-.1-.03-.2-.07-.31l-.1-.44-.07-.41ZM6.67,19.49c.24.1.37.27.41.51,0,.14.07.41.2.82.14.37.2.71.2.99l-.07.82c-.03.44-.17.68-.38.68l-.07-.03c0-.1.03-.27.1-.48.1-.24.14-.41.14-.54v-.37l-.17-.99-.14-.48-.24-.92ZM16.29,19.08c.17.03.27.1.27.17,0,.14,0,.24-.03.27l.17-.31.1.07c.1.03.17.1.17.2s0,.14-.03.17l-.17.31v.03l.1.07s.14-.24.24-.71c.1.03.17.14.2.27l.14.07v-.24l.1.1c.03.1.03.17.07.24v.14c0,.65-.31,1.09-.92,1.36l-.71.31-.27.31-.14-.34h-.17c-.51,0-.78-.14-.78-.44l.03-.2.44-.44.31-.31.34-.44.2-.54.14-.07c.07,0,.1.07.1.2l.14.03-.03-.27ZM7.38,18.94l.24.27.31.48.27.24v.48h-.07c-.31-.37-.48-.65-.58-.85-.14-.14-.2-.24-.2-.34,0-.14,0-.24.03-.27M20.85,19.9c.37-.65.71-.99.99-.99.31,0,.48.14.48.37,0,.14-.03.24-.14.34h-.24s.03-.1.03-.2c0-.17-.07-.24-.2-.24-.24,0-.48.24-.68.68-.1.27-.27.51-.48.72l-.31.34c-.24.31-.37.44-.41.44-.54.41-.92.71-1.12.88-.24.2-.41.31-.51.31v-.03l-.07-.07.1-.03.07-.1c.07-.07.2-.17.48-.27.14-.07.48-.37.99-.88l.27-.27.75-.99ZM17.31,18.84h.03c.14,0,.2.03.2.14,0,.17-.07.24-.24.24-.14,0-.2-.07-.2-.2,0-.07.07-.14.2-.17M17.89,18.77c.03.14.07.2.07.17l-.1.07-.1-.07s.03-.1.14-.17M24.76,19.9l.2-.38.07-.51c.03-.17.17-.24.44-.24s.41.07.41.2c0,.17-.17.31-.48.41-.2.31-.34.78-.44,1.39l-.03.31-.58-.07v-.41l.27-.41.14-.31ZM16.26,18.88l.34-.27h.03l.03-.03c.17,0,.24.07.2.24v.14l-.61-.07ZM19.32,18.77l.51-.17c.31,0,.48.17.48.54s-.27.88-.82,1.5c-.44.51-.89.85-1.26.99l.2-.2.44-.34c.68-.58,1.05-1.19,1.16-1.87-.07-.17-.14-.24-.2-.24-.1,0-.2.1-.27.31h-.1c-.03-.17-.07-.27-.07-.24v-.07l.07-.2h-.14ZM7.52,18.54c.1.24.2.37.31.44.27.27.41.48.41.58l-.07.1-.1-.03-.58-.85.03-.24ZM18.09,18.71v-.14c-.03-.1-.03-.17.07-.17s.17.03.17.1-.07.14-.17.17l-.07.03ZM18.6,18.33l.1-.03.07-.03.07-.03c.31,0,.41.17.37.48v.17c-.07.61-.1.82-.1.65,0,.1.07.24.17.41l-.48.03-.48.51s-.07.03-.17.03c-.17,0-.31-.07-.34-.17l-.03-.07.03-.51v-.14c-.03-.07-.03-.17-.07-.27l.27.07v-.14c0-.1.03-.14.1-.14s.17.03.27.17c.1.07.2.14.24.14l.07-.07-.03-.07-.44-.24.1-.2h.24l-.1-.2.2-.14-.07-.2ZM16.77,18.4l.07-.34.24.03c.1.03.14.17.14.41v.1l-.14.03s-.1-.03-.2-.1l-.1-.14ZM19.32,18.16l.14-.1.14-.07c.1,0,.27.07.51.24-.27.1-.44.17-.54.17-.17,0-.24-.03-.24-.14v-.1ZM17.41,18.4c.14-.24.27-.37.37-.37s.17.07.17.17c0,.37-.14.54-.37.54-.07,0-.1-.07-.1-.24v-.07l-.07-.03ZM16.33,17.92c.17,0,.27.07.27.17,0,.31-.14.44-.37.44-.2,0-.31-.1-.31-.31s.14-.31.41-.31M18.26,17.72h.07c.1,0,.14.07.14.17,0,.24-.07.34-.2.34-.17,0-.24-.14-.24-.44l.24-.07ZM16.67,17.79l.03-.24.24.14v.03l.07.1c0,.1-.07.14-.17.14-.03,0-.1-.07-.17-.17M16.26,17.41l.14.14-.24.1.1-.24ZM4.56,17.41l.07.07c-.34.2-.55.31-.58.31l-1.36.17c-.27,0-.54.14-.78.37s-.37.51-.37.78c0,.65.37.99,1.09.99.54,0,.82-.2.82-.58,0-.34-.14-.51-.44-.51-.1,0-.17.07-.27.2.03-.27.14-.41.37-.41.41,0,.61.24.61.68,0,.37-.14.61-.37.72l-.71.31-.07.37-.07.03-.07.03c-.07,0-.1-.07-.14-.2l-.27-.24-.37-.27c-.24-.17-.38-.51-.38-1.02,0-.34.14-.65.38-.95.24-.31.51-.44.82-.48l1.5-.1.61-.27ZM17.24,17.92c.03-.37.14-.54.37-.54.1,0,.14.03.14.14,0,.34-.1.51-.31.51-.03,0-.1-.03-.2-.1M23.54,17.38c.37.1.68.48.92,1.05l.44.48-.14.41v.27l-.58,1.02-.27.44c-.07.14-.1.27-.1.37,0,.14,0,.24.03.27.07-.03.17-.03.27-.03s.14,0,.17-.03l.14-.03c.2,0,.31.07.31.17,0,.48-.31.71-.92.71-.1,0-.34-.1-.65-.27-.17-.17-.24-.34-.24-.54,0-.24.07-.51.17-.85l.51-1.33s.03-.1.03-.27-.07-.41-.17-.68c-.1-.27-.27-.41-.51-.41-.31,0-.44.1-.44.31l.17.51-.2-.03-.24-.17c-.07-.17-.1-.31-.1-.48,0-.37.31-.58.88-.61h.51v-.27ZM15.65,17.35c.2,0,.31.07.31.24,0,.31-.1.48-.31.48-.14,0-.2-.1-.2-.34,0-.1.07-.24.2-.37M21.33,17.31h.31l-.03.31-.2.61-.1.48c-.07.24-.41.78-.99,1.67-.51.71-1.05,1.26-1.63,1.6l-.75.48-.1.03c-.07,0-.1-.07-.1-.17l-.07-.1.17-.1.14-.07.48-.27c.1-.1.2-.17.24-.2l.24-.2.24-.17.37-.34.48-.61.1-.14.2-.27.65-1.26.37-1.26ZM2.01,17.45c-.1-.03-.17-.03-.24-.03l-.14-.03c-.21,0-.31.07-.31.2v.1l.14.2-.21-.03c-.1,0-.17-.07-.17-.24,0-.27.14-.41.41-.41s.44.07.51.24M18.26,17.07c.14,0,.2.03.2.14,0,.24-.1.34-.34.34-.03,0-.07-.07-.07-.2,0-.17.07-.27.2-.27M16.8,17.38c0-.34.1-.51.34-.51.17,0,.24.07.24.24,0,.27-.14.41-.37.41-.1,0-.17-.03-.2-.14M16.22,16.84l.07-.07.1-.03.1.03.14.14.03.14c0,.17-.1.27-.31.27-.1,0-.17-.1-.17-.27l.03-.2ZM20.99,17.18s.03.14.03.27c0,.17-.07.24-.17.24-.51-.03-.75-.2-.75-.51,0-.34.37-.51,1.16-.51h.24c.17,0,.27,0,.34.03l.24.03c.44.17.65.31.65.48s-.1.27-.27.31l-.51.17-.07-.24c.14-.03.2-.07.2-.17,0-.14-.27-.2-.78-.2-.07,0-.17.03-.31.1M15.51,16.7l.31-.1.1.03c.1,0,.14.07.14.24s-.14.27-.38.27c-.14,0-.2-.07-.2-.2s0-.2.03-.24M17.75,17.18c-.1,0-.17-.14-.17-.38,0-.17.07-.27.17-.27.17,0,.27.1.27.27,0,.24-.1.38-.27.38M7.41,16.36c.31.03.48.14.48.27l.03,1.02.27.34c0,.17-.1.24-.34.24-.1,0-.24-.1-.41-.27l-.14-.31-.07-.1-.07-.37c-.03-.1-.07-.14-.14-.14-.1,0-.14.07-.14.17l.07.27c.2.54.31.85.31.95,0,.17-.1.48-.34.92l-.2-.14-.17-.07s-.07.07-.14.17c-.07.14-.14.24-.24.31-.34.17-.51.38-.54.58-.78-.03-1.19-.38-1.19-.95,0-.31.24-.58.75-.78.17-.07.27-.17.27-.31,0-.17-.07-.24-.2-.24s-.27.07-.44.2l-.03-.07-.03-.07c0-.17.14-.24.44-.24s.44.14.44.44l-.07.14-.61.51c-.07.07-.1.17-.1.31,0,.31.17.44.51.44.58,0,.88-.54.95-1.67,0-.24,0-.41.03-.44.07-.58.41-.95,1.05-1.12M20.1,16.94c0-.37.37-.58,1.16-.58,1.06,0,1.53.2,1.5.58v.03c-.37-.27-.82-.41-1.26-.41-.54,0-1.02.14-1.39.37M18.26,16.29c.2,0,.31.1.31.34,0,.14-.07.2-.2.2s-.2-.07-.2-.24v-.1c.03-.1.07-.17.1-.2M13.81,16.22l.65.03c.1.03.17.1.24.14s.14.1.24.14l-.17.1.17.1h.03l.17-.07.03.14s-.07.07-.2.1v.07h.31l.07.1c-.03.1-.1.14-.2.14h-.03l-.03.1h.27l-.03.24-.24.03.14.17-.07.07-.07.03h-.2l-.48.1c-.31.07-.48.17-.48.31,0,.03.03.07.14.1l.07-.07.99-.27.31.1c-.03.07-.14.14-.24.17l.03.1h.1l.2-.1c.14,0,.2.1.2.27,0,.03-.07.1-.17.17.14.03.2.1.2.17,0,.17-.1.44-.27.75-.44.72-.95,1.06-1.53,1.06-.31,0-.65-.1-1.02-.34l-.31-.51c-.1-.34-.34-.51-.68-.51-.14,0-.31.03-.54.1l.1-.24.44-.37c.1-.1.14-.2.14-.34,0,.07-.03.03-.03-.14-.07-.14-.1-.41-.14-.78l.07-.51.14-.31.24-.14.07-.14.24-.07.34-.17.37.03.1-.07h.34ZM4.56,16.63c-.31.24-.58.34-.85.34-.44,0-.68-.17-.68-.48,0-.24.1-.34.27-.34h.07l-.03.37v.1c.03.1.24.17.54.17.1,0,.34-.07.68-.17M17.35,16.7l-.27.07c-.1,0-.17-.07-.17-.17,0-.37.14-.54.41-.54.1,0,.17.07.17.24,0,.1-.03.24-.14.41M16.73,16.22c0,.24-.1.37-.34.37-.1,0-.17-.07-.17-.17s0-.17.03-.2c.07-.17.14-.27.2-.27.17,0,.27.1.27.27M15.68,16.39v-.1c-.03-.31.07-.44.27-.44.1,0,.17.07.17.17,0,.27-.1.41-.27.41-.1,0-.14,0-.17-.03M11.39,15.88l.1-.03s.07-.03.17-.03c.24,0,.48.14.65.41l-.17.03.03.14-.34.07c-.24,0-.41-.2-.44-.58M7.14,16.26l-.48.27h-.1l-.1-.07c0-.14.14-.31.37-.48.17-.1.34-.17.51-.17.2,0,.31.1.31.27l-.51.17ZM23.2,17.01c-.17-.17-.24-.34-.24-.51,0-.48.24-.71.71-.71.58,0,.95.58,1.05,1.7l.03.44-.2-.37-.2-.85c-.03-.1-.2-.27-.48-.44l-.2-.07c-.31,0-.44.27-.48.82M15.41,16.5c-.17,0-.27-.03-.27-.14l.03-.34h.07l.07-.17c0-.07.03-.1.14-.1s.14.03.14.1c-.03.1-.03.2-.07.34-.03.07-.07.2-.1.31M5.95,15.68v.2c0,.14-.03.31-.14.51s-.14.41-.14.58.14.31.37.34c-.03.17-.14.27-.24.27-.27,0-.41-.14-.41-.41,0-.03.03-.17.07-.34l.24-.48.24-.68ZM18.06,15.68c.03.17.07.27.07.24,0,.31-.1.48-.27.48-.14,0-.2-.07-.2-.24,0-.2.14-.37.41-.48M25.44,18.13l.03-2.01c0-.1.03-.2.17-.34.07-.14.17-.2.27-.2l.03.03.1.07-.2.2-.03.17-.1.27v.51l-.03.27.03.44c-.03.07-.03.14-.03.24s0,.17-.03.24l-.03.24c-.03.17-.1.27-.17.27h-.03l.03-.41ZM25.1,15.48c.17.71.24,1.33.2,1.84l-.07.82-.03.37-.07.24-.07-.03-.1-.17-.1-.27v-1.09c0-.14-.03-.41-.1-.82l.2-.07v-.24c0-.2.03-.41.14-.58M17.01,15.44h.03c.1,0,.14.07.14.2,0,.24-.1.37-.27.37-.07,0-.1-.07-.1-.24s.07-.31.2-.34M17.58,15.34c.1.03.14.07.14.14l-.03.1c-.03.17-.1.24-.2.24l-.1-.1c0-.24.07-.37.17-.37h.03ZM18.3,15.27l.07-.03h.07c.24,0,.44.1.58.31l.44.68.2.17-.07.31-.1.68c-.03.14-.07.27-.17.44-.1.17-.17.24-.24.24-.1,0-.17-.03-.27-.14v-.14h.1c-.14-.17-.2-.27-.2-.37,0-.03.03-.07.14-.07h.03v-.1l-.1-.1-.03-.07s.07-.1.24-.17l-.17-.17v-.14l.2-.03.03-.07-.03-.03h-.17c-.1,0-.14,0-.17-.03l.03-.27c-.17,0-.27-.07-.27-.17v-.14c-.14-.07-.2-.14-.2-.24,0-.03.03-.17.07-.34M15.71,15.14l.24.07c.07,0,.1.07.1.17,0,.24-.03.34-.14.34-.24,0-.38-.14-.38-.37l.03-.1.14-.1ZM20.68,15.41v-.03c0-.17.07-.24.24-.24.2,0,.34.17.41.54-.14-.17-.31-.27-.51-.27h-.14ZM16.22,15.54v-.14c-.03-.24.07-.37.31-.37.17,0,.27.07.27.17-.03.34-.17.51-.34.51-.03,0-.14-.07-.24-.17M17.07,15c.1.03.17.1.17.17,0,.1-.03.14-.1.14-.1,0-.17-.07-.17-.17s.03-.14.1-.14M22.01,16.12c0-.85.2-1.26.58-1.26.41,0,.61.17.61.51,0,.31-.14.48-.37.48-.1,0-.14,0-.17-.03.14-.14.2-.27.2-.37,0-.2-.1-.31-.31-.31-.34,0-.48.24-.44.71v.31l-.1-.03ZM18.94,14.52l.03.14-.07.07-.14.2-.34.17v-.14c0-.1.1-.2.31-.31l-.07-.1.27-.03ZM21.5,16.09l-.2-1.63.27.07c.03.07.03.14.07.24.03.07.03.14.07.24.07.31.1.58.1.78v.34l-.31-.03ZM12.62,14.25l.34.03c.1.03.17.03.2.03h.24c.1,0,.27-.03.54-.1.2-.1.41-.14.51-.14h.1l.27.07.2.03c.14.07.27.14.41.24.1.07.17.2.14.44v.03l-.1-.07-.27-.1.27.31c-.1.03-.17.03-.24.07h-.14s-.17-.07-.44-.17c-.17-.03-.27-.07-.24-.07-.1,0-.14.03-.14.1,0,.03.1.1.34.14.2.03.34.07.37.1l.17.14.07.24-.27-.07-.03.1.17.17-.1.1-.2-.1-.03.17h.17l-.1.14c-.37-.07-.68-.1-.92-.1l-.78.03-.55.1h-.03c-.17,0-.24-.14-.24-.41,0-.14.1-.31.27-.48.17-.2.27-.37.27-.51,0-.17-.07-.31-.24-.48M16.26,13.98h.1c.51-.07.78-.1.85-.17l.1-.03.2.34.44.2c.17.07.27.24.27.54,0,.24-.07.34-.17.34l-.14-.03h-.2v-.24l-.07.07-.1.07c-.1,0-.14-.03-.14-.14l.07-.2-.24.14c-.07-.1-.1-.17-.1-.27v-.2h-.07c-.03.17-.14.31-.31.37v-.14h-.14c-.03.17-.07.24-.17.24l-.07-.1v-.1c-.14,0-.17.03-.14.1v.07s-.1.03-.2.03c-.07,0-.1-.03-.07-.14v-.1c-.14.03-.2.07-.17.07-.07,0-.1-.07-.1-.24,0-.31.17-.44.54-.48M15.41,14.18c-.17-.1-.27-.2-.27-.24,0-.17.07-.24.2-.24s.24.14.27.41l-.14-.03-.07.1ZM10.58,21.63v-8.16c0-.2.2-.31.65-.27h.2l-.07.24c-.34.03-.51.2-.51.48v8.3l.1.65-.17-.27c-.14-.27-.2-.58-.2-.95M12.89,13.23h4.86c.31,0,.61.1.85.27l-5.75-.03.03-.24ZM1.7,12.86c.1.03.17.14.17.24v.2l-.03.14c0,.24.14.65.37,1.19.31.58.78.88,1.39.88.27,0,.44-.03.54-.14l.54-.48.1-.03.1.07v.03l-.2.2-.17.2-.38.14-.2.14-.14.03c-.44-.03-.82-.14-1.16-.31v-.07c-.65-.44-.99-1.09-.99-1.9v-.24c0-.14,0-.24.03-.31M4.42,12.72l.1.2-.14.14-.17.27-.2.17-.51.44-.2.07-.2.24c-.1.03-.2.1-.31.14-.1.03-.2.1-.31.14l-.03-.14c0-.07.07-.1.24-.14.58-.24,1.16-.75,1.73-1.53M20.68,12.52l.27.27.1.2c.07.1.1.2.1.24,0,.07-.1.17-.27.27l-.14-.31c-.07-.17-.1-.31-.07-.37v-.31ZM6.33,12.45l-.07.31-.24.54-.27.68-.17.27-.31.17c-.24.17-.41.24-.51.24-.41,0-.61-.17-.61-.48,0-.14.1-.24.34-.34v.17c-.03.24.07.38.34.38.37,0,.68-.2.85-.61l.48-.99.17-.34ZM13.37,11.87c-.48.65-.71,1.16-.71,1.46s.07.48.24.48h.03l.31-.14.03.2c0,.14-.1.2-.34.2-.44,0-.65-.2-.65-.65,0-.1,0-.17.03-.2l.1-.2.1-.37.58-.58.27-.2ZM8.1,11.87l-.03.34-.31,1.19c-.07.34-.1.68-.1.99,0,.44.17.71.51.85-.1.1-.17.14-.27.14-.31,0-.48-.27-.48-.78,0-.72.14-1.39.37-2.04l.31-.68ZM4.15,11.9l.07-.14h.07c.1.03.24.17.41.44l.24.51c.17.31.27.68.27,1.12,0,.1-.07.17-.2.2-.03-.99-.34-1.7-.85-2.14M2.48,11.67l.07-.14.37.2c.34.2.51.54.51,1.02,0,.54-.2.82-.61.82-.1,0-.2-.03-.37-.14.51-.03.75-.27.75-.75,0-.44-.24-.78-.71-1.02M20.82,12.11c-.03-.17-.07-.27-.07-.31,0-.24.14-.34.44-.34.24,0,.34.14.34.37l-.03.2-.14-.17s-.07-.03-.17-.03-.14.07-.14.2c0,.1.03.2.1.34.07.14.1.31.1.54l-.24-.34-.14-.2-.07-.27ZM21.84,11.36h.1c.27,0,.48.07.65.24l.17.2c.1.1.2.2.27.31l.14.14v.1l-.03.1-.07.03-.24-.27c-.14-.2-.27-.31-.41-.31-.17,0-.27.07-.27.2,0,.1.03.2.14.31-.34-.1-.51-.34-.51-.71v-.14l.07-.2ZM1.8,11.33v.2c-.27.03-.41.14-.41.27,0,.54.27.78.78.75l.65-.07.1.07c0,.14-.17.2-.54.2-.24,0-.51-.1-.82-.24-.27-.2-.41-.37-.41-.61s.2-.41.65-.58M2.21,11.19l.14.17-.1.24-.24.58-.07.03-.1-.1v-.03l.07-.17.14-.31.17-.41ZM6.43,11.05h.07c.17,0,.24.07.24.2,0,.17-.07.27-.24.27s-.24-.07-.24-.24c0-.1.07-.2.17-.24M18.26,10.99c.48.2.72.34.72.41,0,.1-.07.14-.17.14s-.31-.07-.61-.24l.07-.31ZM11.63,15.51c-.14-.58-.2-.95-.2-1.19,0-.31.1-.68.27-1.16.24-.54.44-.88.61-.99l1.5-1.02.54-.17s.14,0,.24.1c-.14.1-.24.14-.34.17-.92.48-1.57.92-1.91,1.39-.34.41-.51,1.02-.51,1.77,0,.34.1.68.27.99v.07c0,.14-.03.2-.14.2-.03,0-.17-.07-.34-.17M25.75,10.75l.03.07-.07.65-.1.37.2.1c0,.65-.34,1.02-.99,1.12l.17-.54-.07-.37.14-.31-.1-.03-.2.31c.03.1.03.2.07.27v.17c0,.24-.1.44-.31.65-.2.2-.44.31-.68.31-.03,0-.14-.03-.27-.07l-.51-.31s-.1,0-.27.03l-.34.17h.31l.34-.1.31.31.34.07c.03.17.07.27.07.24l.03.14.1.03.03-.24-.03-.1c0-.07.03-.1.14-.1.07,0,.14.1.2.27l.1.34.07.37.14.03-.1.03.17-.1c-.1-.17-.14-.31-.14-.44,0-.1,0-.14.03-.17l-.03-.1-.14-.1-.07-.17c.2-.24.38-.34.51-.34.58,0,.85.41.88,1.26l-.24.07-.1.31-.44.48-.17.48-.03.24c-.24-.14-.38-.24-.41-.31l-.27-.34-.03-.03-.03-.24-.07-.03c-.1,0-.17.07-.2.24h-.07c-.1,0-.17-.1-.27-.27-.1-.17-.14-.37-.14-.54,0-.14.07-.34.2-.61l-.03-.1-.14.1c-.27.55-.65.82-1.09.82-.14,0-.2-.07-.2-.17,0,.03.03-.07.07-.24l-.41-.03h-.27c-.31,0-.44-.07-.44-.17,0-.14.1-.31.34-.54l.41-.2-.03-.14-.07-.07-.03-.07.17-.17.2-.14c.17-.03.27-.07.31-.07l.17.03c.34.03.54.07.61.1.03-.03.14-.07.24-.1l.1.07c.07.31.24.44.48.44.07,0,.24-.03.48-.1.24-.31.34-.48.34-.54l-.07-.34-.2-.14.24-.78.2-.27.1-.03.07.17.14.07.03-.1.61-.41ZM11.16,11.53v-.27c-.03-.37.1-.54.41-.54.2,0,.31.1.31.27l-.07.07c-.1,0-.17-.03-.27-.1-.07.1-.1.2-.1.27,0,.34.17.48.51.44l.07-.03.34-.03.31.03-.14.1c-.17.1-.34.14-.58.14-.31,0-.54-.1-.78-.34M5.92,10.44c.24,0,.37.1.37.34,0,.17-.1.27-.27.27-.2,0-.31-.1-.31-.31s.07-.31.2-.31M2.86,10.75h-.14l-.03-.07c0-.27.24-.41.68-.41.51,0,.78.24.78.68,0,.1-.07.34-.17.71-.14.37-.27.54-.41.54l-.1-.1.03-.03.07-.07.14-.2c.17-.31.27-.58.27-.78,0-.34-.24-.51-.68-.51-.1,0-.17.03-.2.07l-.24.17ZM6.63,10.27c-.03.14-.1.2-.2.2s-.14-.03-.14-.14.07-.17.2-.17l.14.1ZM8.27,9.9l-.03.27c-.82.71-1.36,1.57-1.63,2.55l-.95,3.27c-.14.44-.44.82-.88,1.09-.44.34-.95.48-1.46.48-.58,0-1.02-.17-1.39-.51-.37-.34-.54-.78-.54-1.29,0-.17.07-.37.17-.54l.27-.37.03.17-.31.58s-.03.14-.03.24c0,.24.07.44.2.65.37.61.92.92,1.63.92.48,0,.95-.17,1.36-.51.48-.34.75-.75.88-1.22l.88-3.13.34-.75.41-.65.14-.24c.03-.14.24-.37.58-.71l.17-.17.17-.1ZM20.2,9.73c.17.1.27.24.27.41v.27l.03,1.12-.03.34-.07,1.02.03,1.02-.03.27.07,1.77c0,.17-.07.27-.24.27l-.17-.03.03-.03.1-.37-.07-3.5.07-1.12v-1.43ZM19.32,11.33c.1-.14.14-.27.2-.37,0-.1.03-.2.07-.31.1-.68.2-1.02.34-1.02.17.03.2.2.17.48l-.03.71v1.05l-.1,1.22.1,2.82-.17.24c-.2-.2-.34-.48-.37-.85-.1-1.46-.61-2.18-1.6-2.18l-5-.07c.31-.75.61-1.09.85-1.05l2.82.07,1.02-.03.31.03c.1,0,.31-.03.51-.1.27-.03.44-.14.61-.24l.27-.41ZM7.07,10.37l.2-.07c.1-.03.24-.17.44-.41.2-.24.34-.34.44-.34l.07.1v.07l-.2.1-.68.58-.31.2c-.24.14-.37.2-.41.2l-.03-.07.48-.37ZM9.05,10.58c.37-.37.85-.78,1.4-1.16v2.31c-.03.1.03.2.2.27l1.46.03c-.1.1-.17.2-.2.31-.2.44-.34.65-.41.65l-.71.07c-.2.03-.34.2-.37.58v.72l-.03,4.15v.92l-.03,1.36v.24c0,.85.2,1.56.65,2.14l.14.1c.34.24.65.41.88.44l1.53.24.03.03.07.03v.1c0,.17-.24.24-.75.24l-3.5-.2s-.27,0-.75.03l-2.11.1h-.31c-.58.03-.88-.03-.88-.2,0-.24.24-.34.68-.34.58,0,1.12-.14,1.6-.44.51-.31.75-.65.75-1.02l.14-9.39-.03-.95c0-.14,0-.2-.03-.24v-.14c0-.17.03-.27.07-.31l.17-.2.17-.2.2-.27ZM2.52,10c-.17,0-.24-.1-.24-.31,0-.27.17-.41.51-.41.17,0,.24,0,.27.03l.48.24,1.46.44v.1l-.48-.07-1.57-.51h-.14c-.24,0-.34.1-.34.34l.03.14ZM10.82,9.15l.03,2.72-.24-.07v-.92l-.03-.51.03-.37-.03-.65c0-.1.07-.17.24-.2M14.62,9.12l.1.07h.03l.03.27c.03.17.24.37.65.61l.55.2.88.17c.44,0,.68.17.68.51,0,.44-.27.65-.78.61l-1.29-.03c-.07,0-.27.1-.65.31v-.41c.37-.31.68-.44.95-.44h.44s.03-.07.03-.17-.07-.14-.24-.14h-.1l-.85.24-.1.03c-.1,0-.2-.03-.34-.1-.27-.14-.41-.31-.41-.51,0-.1.07-.17.2-.14h.03l.07-.1c-.1-.27-.17-.44-.17-.51s.1-.24.27-.48M5.61,9.73h.27c.34,0,.71-.07,1.09-.2.38-.14.61-.2.71-.2s.17,0,.2-.03l.1-.14.14-.1c.1,0,.17.07.17.17,0,.14-.14.24-.37.31l-.71.27-.85.17-.54.07-.1-.03-.1-.27ZM17.18,9.76c0,.34-.17.51-.48.51-.51,0-.78-.24-.78-.71,0-.51.41-.78,1.22-.78.17,0,.37,0,.54.07l.61.1c-.03.1-.1.17-.14.17-.07,0-.17-.03-.34-.07-.14-.03-.24-.07-.31-.07-.65,0-.99.17-.99.51l.07.34c.14.07.24.1.31.1s.17-.07.27-.17M11.19,9.29c.24-.34.37-.51.44-.51l.07.07s-.1.14-.27.31c-.1.1-.14.24-.14.48,0,.1.07.37.17.75l-.24-.24c-.07-.14-.1-.27-.1-.37l.03-.17c0-.1,0-.2.03-.31M23.91,8.71c.1.03.17.03.24.07h.14c.1,0,.24-.07.41-.14.2-.14.37-.17.48-.17l.14.03-.1.44.37.14c.14.03.2.24.2.58,0,.24,0,.37-.03.44l-.34-.41c-.17-.1-.31-.14-.41-.14-.07,0-.14.07-.24.2-.51-.1-.82-.31-.85-.65l.1.07.48.03v-.14h-.31c-.2,0-.31-.07-.31-.2l.03-.17ZM1.63,8.95c.17-.44.27-.68.31-.68l.1.1v.03c0,.07-.07.2-.2.41-.07.1-.1.27-.1.48,0,.85.48,1.5,1.46,1.94l.37.17v.14l-.37-.1c-.44-.1-.85-.38-1.16-.75-.34-.41-.51-.85-.48-1.29l.03-.41.03-.03ZM10.92,8.47l.48-.24h.03l.07.03c.1.03.14.1.14.24,0,.03-.1.07-.34.17-.24.1-.37.17-.44.2l-.99.65c-.82.58-1.5,1.43-2.07,2.55-.58,1.12-.85,2.24-.82,3.33v.17c.03.14-.07.24-.34.27v-.44c0-.17,0-.34.03-.44,0-.1,0-.2.03-.31l.31-1.36.03-.27.07-.17c.34-.85.61-1.43.82-1.73l.2-.27.07-.17.31-.24.34-.48.31-.24.78-.68.99-.58ZM8.27,8.88c-.41.14-.68.2-.85.2-.44,0-.65-.17-.65-.54l.1-.24c.03-.14.1-.17.2-.17l.27.03-.27.34v.03c0,.24.17.37.55.37.2,0,.41-.03.58-.14l.07.1ZM21.97,8.4c.03-.31.17-.44.48-.44.17,0,.31.14.44.37l-.1.24-.14-.2-.27-.1c-.03.1-.03.17-.07.24v.14c0,.1.07.24.17.41l.75.99.51.75c.24.37.34.68.34.95v.03l-.51-.82-.34-.58-.31-.44c-.17-.1-.27-.2-.34-.37l-.31-.44c-.17-.24-.27-.48-.31-.72M11.33,7.92v.03c0,.07-.07.14-.17.17l.17-.2ZM3.03,7.72l.14-.03.1-.03c.61,0,1.12.27,1.56.78.41.51.61,1.16.61,1.9,0,.65-.14,1.29-.44,1.87l-.1-.24.2-.58.07-.44.1-.85v-.07c0-.17-.03-.37-.1-.54l-.24-.61s-.17-.24-.44-.55c-.38-.31-.71-.48-.95-.48l-.1.03h-.24c-.07,0-.14-.07-.17-.17M1.12,8.03v-.17c0-.17.07-.27.24-.27.1,0,.17.03.21.07l.24.34-.34-.17h-.21l-.07.2h-.07ZM15.71,6.9c.24.14.41.2.51.2s.41.07.88.24c.07.03.2.07.44.1l.48.48.61.37.82.34c-.37,0-.61.03-.71.1-.1.07-.17.1-.2.1.03,0-.03-.03-.17-.07-.65-.14-1.29-.2-1.9-.2-.99,0-1.84.17-2.55.54-.71.37-1.06.82-1.06,1.33,0,.24.07.41.24.58-.2.03-.38.07-.51.1h-.03c-.1,0-.27-.14-.44-.37l-.03-.61-.34.07-.03-.24.2-.34c.1-.17.17-.27.2-.31l.24-.07.2-.17.17-.03c.07-.07.24-.1.41-.14s.24-.07.24-.14l-.03-.1c-.2.14-.34.24-.37.27h-.55c-.31,0-.48-.07-.48-.2,0-.1.07-.14.24-.17l-.03-.1-.31-.1-.14-.2c-.1-.1-.14-.17-.14-.24,0-.03.07-.1.2-.17l.2-.1h.2l.54.07h.27c0-.17.07-.24.2-.24s.41.07.78.24l.17.07.17.07c.48.07.78.1.95.1.72,0,1.06-.14,1.06-.41v-.03c-.1-.07-.2-.1-.27-.1s-.17.03-.34.14l-.1-.24-.1-.2.2-.2ZM20.71,7.72c0,.14-.07.2-.2.2-.37,0-.54-.2-.54-.65,0-.51.24-.75.68-.75.2,0,.31.07.31.2,0,.1-.03.2-.1.34l-.34.24c-.1,0-.14-.03-.14-.1l.07-.1.17-.17v-.14h-.17c-.17,0-.27.17-.27.51,0,.27.17.41.48.41h.07ZM8.23,6.22c-.03.58-.41,1.09-1.16,1.6-.65.41-.95.68-.95.82,0,.1.1.31.27.54l-.17.03c-.34.03-.51-.14-.51-.58,0-.31.17-.58.51-.75l.65-.34c.1-.1.2-.17.34-.24l.24-.17.51-.54.27-.37ZM6.56,6.6c-.31.17-.51.24-.65.24-.17,0-.37-.07-.68-.24-.2-.1-.31-.2-.31-.31s.03-.17.14-.17c.14,0,.24.1.31.31l.14.03-.03-.17c.17-.03.31-.03.37-.03.14-.03.2-.03.24-.03.24,0,.41.14.48.37M2.31,7.31c-.03-.1-.03-.17-.07-.24v-.14c0-.54.2-.82.61-.82.14,0,.24.03.34.14.14.17.2.31.2.37v.24c-.17-.17-.34-.27-.48-.27-.27,0-.41.17-.41.51,0,.37.14.71.44,1.02l.51.44.37.24.27.24-.31-.14-.34-.24c-.1-.03-.2-.1-.27-.17l-.17-.17-.31-.31c-.2-.24-.34-.48-.41-.71M12.18,5.51c.2,0,.31.07.31.24s-.14.27-.37.27c-.17,0-.27-.07-.27-.2v-.03c.07-.17.17-.27.34-.27M11.29,6.6c-.1-.17-.14-.31-.14-.48,0-.58.2-.85.65-.85h.1v.17c-.34.14-.51.38-.51.72,0,.37.14.65.37.78l.54.31.27.2c-.65-.03-1.05-.34-1.29-.85M13.47,5.2c.51.1.78.24.75.41v.1c-.17-.07-.31-.1-.37-.1-.24,0-.37.14-.37.37,0,.1.07.27.17.44l.37.2.17.07c.17.03.31.1.37.1l.14.07c.03.1.07.17.1.24l.07.17c.14.17.2.31.2.34,0,.1-.03.14-.14.1l-.48-.03-.85-.37-.75-.07-.31-.2-.07-.14-.07-.17v-.27l.44-.03.1-.71.14-.1.03-.14.34-.17v-.1ZM12.89,5.1c.1,0,.17.03.17.14,0,.24-.1.34-.34.34-.1,0-.14-.03-.14-.14,0-.24.1-.34.27-.34h.03ZM18.09,6.67c-.03-.1-.03-.2-.07-.27v-.17c0-.85.51-1.29,1.5-1.29.61,0,.92.24.92.75,0,.2-.07.37-.24.54l-.37.07-.34.03c-.17.03-.27.14-.27.27,0,.27.17.44.51.51l.1.14-.17.03-.03.03-.14-.03c-.31-.24-.48-.37-.48-.41v-.17l-.03-.27.03-.1c.03-.14.34-.24.99-.34.1,0,.14-.07.14-.2,0-.1,0-.17-.03-.2-.24-.27-.48-.41-.71-.41-.65,0-.95.34-.95,1.02,0,.58.24.99.72,1.29l.17.1.1.07.27.24.44.14v.07l.31.17.27.14,1.36.95c.17.1.34.27.54.51.2.24.44.51.68.88.71.99,1.05,1.6,1.05,1.84,0,.17-.03.24-.14.27l-.2.03-.03.07-.1.03s-.14-.17-.37-.51l-.27-.48-.58-.68-.41-.44-.65-.58-.51-.31c-.48-.34-.88-.51-1.26-.51-.65,0-.95.27-.95.78,0,.2.03.41.14.58h-.1c-.31,0-.58-.14-.78-.37l-.03-.27c-.03-.24.17-.48.61-.71l-.24-.24c0-.24.34-.37.99-.37.68,0,1.33.24,1.97.75l.2.1.17.07v-.07c-.1-.1-.24-.17-.38-.27-.14-.1-.27-.17-.37-.27l-.31-.2-.31-.17-1.26-.48-.24-.1c-.1-.07-.24-.14-.41-.24l-.51-.27-.44-1.05h.51ZM4.32,5.41c-.44-.2-.72-.31-.78-.31-.37,0-.58.14-.58.37l.1.17c.1.07.14.14.14.17l-.03.07-.07.03c-.24,0-.34-.17-.34-.51,0-.37.24-.54.71-.54.34,0,.65.1.92.31.27.2.41.44.41.68,0,.27-.17.41-.51.41l-.1-.1c0-.14.14-.24.41-.27v-.2l-.27-.27ZM12.04,5.17v-.14c-.03-.17.03-.27.24-.27.17,0,.24.1.24.27s-.1.27-.31.27c-.1,0-.14-.03-.17-.14M8.2,4.63c.07.37.1.68.1.88,0,.24-.03.44-.14.61-.61.99-1.39,1.5-2.38,1.5-.44,0-.88-.1-1.33-.31-.44-.2-.68-.44-.78-.68l-.2-.78-.17-.27v-.07c0-.1.07-.14.17-.14.07,0,.2.03.41.14.24.07.34.14.34.17l-.2.2c-.07.1-.1.17-.1.2v.03c.03.41.17.68.41.78l.14.07.31.17c.24.14.51.2.82.2.65,0,1.05-.1,1.29-.34l.24-.24.34-.24.2-.37.2-.14.1-.27.14-.24.03-.2c0-.1,0-.2.03-.27,0-.14,0-.24.03-.41M7.93,4.59c.03.07.03.2.03.41,0,.61-.2.92-.65.92-.21,0-.31-.1-.31-.31l.07-.27c.1.14.2.2.31.2.24,0,.41-.31.54-.95M11.5,4.59c.2,0,.31.07.31.2,0,.24-.14.37-.41.37-.17,0-.24-.1-.24-.27,0-.2.1-.31.31-.31h.03ZM5.85,5.51l.51-.92.27.1.1.03c.07.03.1.14.1.24,0,.72-.48,1.06-1.43,1.06-.24,0-.34-.07-.34-.2,0-.17.17-.2.48-.17l.41.03.17-.03v-.17l-.27.03ZM15.48,6.73c-.17-.03-.24-.17-.24-.48,0-.54.14-.99.44-1.33.31-.34.68-.51,1.12-.51.78,0,1.26.2,1.39.65l-.41-.03.03.27.03.14c0,.07-.03.2-.07.38-.2.31-.41.48-.61.48-.1,0-.17-.03-.27-.1l-.54-.41h-.07c-.2,0-.31.1-.31.31,0,.17.14.27.41.37-.1.1-.17.14-.2.14-.27,0-.41-.17-.41-.48,0-.24.14-.44.38-.54l.07-.03.07.03.65.24h.07c.27,0,.41-.14.41-.44,0-.44-.27-.65-.78-.65-.31,0-.58.14-.85.44-.2.27-.34.58-.34.95v.31c0,.14,0,.24.03.31M12.65,4.73c.03-.24.14-.34.31-.34s.24.07.24.2c0,.2-.14.31-.38.31-.07,0-.14-.07-.17-.17M13.44,4.76v-.2c0-.24.14-.34.37-.34.41,0,.65.31.68.92l.03.41.1.27-.03.24-.24-.82c-.1-.44-.27-.65-.51-.65-.1,0-.17.1-.17.31l.03.1-.07.03-.2-.27ZM12.52,4.39c-.03.17-.1.24-.27.24-.24,0-.37-.07-.37-.24,0-.1.1-.17.31-.17.1,0,.24.07.34.17M2.28,4.05c.24.1.41.24.51.48l-.1.17.1.03c-.03.1-.1.17-.14.17-.27,0-.41-.17-.37-.54v-.31ZM6.12,3.98l.31.27v.07l-.1.07s-.1-.14-.2-.41M15.68,4.08c.03-.17.1-.24.2-.24l.85.03h.37l.44-.03h.24c.65,0,1.26.1,1.84.27l-3.95-.03ZM10.65,8.37l-.03-.37.07-1.94c.03-.31.03-.58.03-.82v-1.09c.07-.24.24-.37.51-.37l3.33.03c0,.2-.07.27-.2.24h-.44c-.14-.03-.27-.03-.44-.03h-1.9c-.31,0-.51.03-.61.14-.07.07-.1.27-.1.58l.03.58v1.09c-.03.17-.03.34-.03.51v.82l.1.37c0,.1-.1.17-.31.27M24.76,3.33v.51c-.03.1-.03.2-.07.31l-.07.37h.14l.17-1.05c.1.31.17.48.17.58,0,.17,0,.27-.03.31l-.14.48-.2.54-.14.2c0,.1.03.14.1.14.03,0,.17-.2.34-.61.1-.37.17-.61.14-.68v-.34c.1.31.17.51.17.61.03.07-.07.37-.24.89h.2l.07-.48c.1.34.17.58.17.75,0,.44-.14.99-.41,1.63h-.14l-.07-.07-.07-.07-.1.03-.17.31-.48.41c-.24.17-.34.44-.34.82,0,.24,0,.37.03.44l-.31-.37-.07-.78-.34.14c-.14-.37-.2-.65-.2-.88,0-.17.07-.37.2-.65l.03.17.1-.51c-.14.07-.24.1-.31.1-.14,0-.2-.07-.2-.2,0-.37.1-.71.31-1.05l.14-.24.37-.24c.2-.1.37-.17.54-.27l.1-.1c.24-.31.38-.58.38-.75s0-.27-.03-.34l.24-.03ZM24.39,3.33l.03.37c0,.17-.1.37-.31.61l-.03-.61-.14-.34.44-.03ZM5.14,3.23l.14.1.1.14c.44.37.65.71.65,1.05,0,.65-.27.95-.78.95-.14,0-.27-.07-.44-.24l-.1-.37c.31-.24.44-.44.44-.65l-.07-.07-.14.07-.34.51-.17.07c-.44,0-.68-.17-.78-.54v-.07c-.03-.41.17-.65.54-.71l.71-.1.24-.14ZM7.72,3.78l-.03.07-.34-.1-1.33-.24c-.34-.03-.51-.14-.54-.27v-.1l.51.1.92.24c.17.03.44.14.82.31M25.92,3.4l.03-.27.1.03c.1.03.14.1.14.27,0,.24-.1.37-.31.37-.44,0-.68-.17-.78-.54.24.17.41.27.48.27s.17-.03.34-.14M4.42,2.79h.14v.14c.03.2-.1.31-.38.31-.03-.03-.03-.14-.03-.27,0-.1.1-.14.27-.14v-.03ZM21.29,2.76l.24.07.03.54.61,1.56c.17.37.24.85.24,1.36,0,.34-.17.61-.48.78l-.14-.27c.2-.14.31-.31.31-.51v-.44c-.03-.1-.03-.2-.07-.34-.03-.07-.03-.17-.07-.27l-.14-.51-.1-.27-.1-.2-.17-.51c-.14-.31-.2-.51-.2-.65l.03-.34ZM16.77,2.69l4.15.07h.24v.65l.58,1.46c.03.1.1.24.14.44.03.17.1.41.14.72v.27c0,.27-.1.41-.27.41-.1,0-.2-.2-.34-.58-.14-.41-.2-.61-.24-.65l-.44-.68c-.75-.68-1.5-1.02-2.24-1.02l-2.35-.03-.24-.03.34-.48.54-.55ZM3.4,2.86l.14-.24c.17,0,.31.14.34.41v.27l-.37.27-.03.17c-.03.07-.07.24-.1.41-.14-.07-.2-.14-.2-.24l.03-.1-.2.03c.03.24.17.41.41.58l.03.17c-.24-.03-.41-.14-.51-.31l-.14-.2v-.07c0-.37.07-.61.17-.71l.24-.17.2-.27ZM7.93,3.71l-.58-.24-1.67-.44c-.24-.07-.37-.17-.37-.31,0-.1.1-.17.27-.17l1.36.03.34.03.27-.07,2.28.07,3.67.03h1.56l-.44,1.02-3.47-.03c-.44,0-.68.41-.68,1.26v2.89c0,.1,0,.24.03.34l.03.17-.07.17-.92.61-.99.92-.03.03-.07-.07-.03-.07.07-.48v-.37l.03-1.33v-2.14c.03-.27,0-.55-.03-.75-.03-.27-.1-.48-.2-.71l-.37-.41ZM4.49,2.01l.03.07.31.14-.1.27-.1-.17c-.1-.03-.17-.07-.2-.1l-.17-.07.24-.14ZM11.22,1.97c0,.14-.07.2-.2.2s-.2-.07-.2-.2.07-.2.17-.2c.17,0,.24.07.24.2M18.71,1.87l.17-.1h.03c.34,0,.51.1.51.31,0,.17-.03.27-.1.31l-.07-.03-.27-.37-.27-.1ZM3.33,9.18c-.54-.27-1.02-.75-1.36-1.43-.41-.68-.58-1.36-.58-2.04,0-1.22.34-2.24,1.05-3.06.71-.78,1.6-1.19,2.69-1.19.68,0,1.22.1,1.67.34l.34.17.27.14s.07.07.14.17c-.07.03-.2.03-.38.03-.1,0-.34-.1-.78-.34-.31-.17-.68-.24-1.16-.24-.51,0-.95.1-1.39.31-.44.2-.82.48-1.12.82-.31.34-.58.75-.75,1.22-.17.48-.27.99-.27,1.53,0,.78.24,1.53.68,2.24.48.72,1.02,1.16,1.6,1.33l.48.14.31.14.17.07.03.31h-.27l-.24-.14-1.12-.51ZM11.8,1.29c.17,0,.24.07.24.17,0,.14-.07.2-.2.2s-.2-.07-.2-.17l.03-.07c.03-.1.07-.14.14-.14M8.57,1.22c.03.24.17.37.34.37h.03l.14-.03.07-.03.17-.14c.1-.1.24-.14.44-.14.44,0,.68.14.68.41,0,.51-.34.75-.99.75-.37,0-1.19-.27-2.45-.78-.1-.03-.2-.07-.34-.1l.48.03,1.73.54s.17.03.41.03c.61,0,.92-.14.92-.44,0-.17-.14-.27-.38-.27-.03,0-.1.03-.24.07l-.41.2c-.07.07-.17.1-.27.1-.27,0-.41-.1-.41-.31l.07-.27ZM1.16,1.94c.03-.51.27-.78.68-.78s.61.24.61.68c0,.07-.03.2-.07.37l-.2.37-.41.75-.17.31.07-.41.48-1.16-.03-.44c-.17-.14-.34-.2-.44-.2-.17,0-.34.17-.51.51M11.02,1.29c.07-.1.14-.14.2-.14.1,0,.17.07.17.17,0,.17-.07.24-.2.24-.07,0-.14-.1-.17-.27M16.16,1.29l.14-.14.1-.03c.24,0,.34.1.34.31,0,.24-.2.48-.65.75-.03-.03-.03-.07-.03-.17,0-.03.07-.07.2-.17.1-.07.17-.17.17-.34,0-.14-.07-.2-.17-.2h-.1ZM16.36,2.24c.99-.78,2.04-1.16,3.09-1.12l1.02.03.71.03s.14.03.24.03c.24.03.44.07.61.1.17.03.27.03.37.07l1.8.48h.03l.14-.03.55.03.71-.31h.03c.1,0,.14.07.14.17,0,.44-.2.71-.61.85.03.17.07.27.07.24,0,.17-.24.27-.68.27-.48,0-.78-.2-.95-.65-.1-.24-.27-.44-.44-.65-.37-.1-.58-.17-.54-.17-.07,0-.1.03-.1.14,0,.07.03.1.14.14.71.24,1.05.65,1.05,1.26,0,.14-.07.34-.2.61l-.31-.14c-.07.58-.27.85-.61.85-.27,0-.48-.2-.61-.58v-.24l.03-.14.03-.24.03-.27c0-.07-.03-.17-.1-.31h.17c.17,0,.24.14.24.38v.14l-.2.37-.03.1c0,.24.1.34.27.34.07,0,.17-.07.27-.17l.14-.44-.31-.61-.1-.2-.51-.44c-.61-.41-1.19-.61-1.74-.61l-1.09-.03c-.24,0-.37.03-.41.07l-.07.03-.14.03c-2.31.48-3.47,1.87-3.5,4.22,0,.31.14.78.37,1.46l.17.37-.34-.27-.24-.54-.14-.31c-.03-.31-.03-.54-.07-.68v-.38c0-.48.1-1.02.34-1.6l.44-.82.2-.31c.14-.1.24-.24.38-.31l.24-.27ZM13.33,2.18v-.17c0-.48-.14-.71-.44-.71-.14,0-.2.03-.24.1l-.48.54c-.17.1-.34.14-.44.14-.24,0-.37-.07-.37-.24l.1-.1.27.17.03.03.07.03.14-.14.27-.31c.07-.1.2-.2.34-.31.1-.1.24-.14.34-.14.27,0,.41.07.44.24l.14.71c.03.17.2.27.44.27.14,0,.24-.07.27-.17l.24-.65c.03-.17.2-.27.51-.27.58,0,.89.31.89.92,0,.1-.03.2-.14.31l-.65,1.06-.31.82-.14.41c.17-.71.31-1.19.41-1.43l.07-.17s.07-.1.1-.2c.17-.34.24-.58.24-.72v-.17c-.03-.07-.03-.17-.07-.27-.1-.17-.2-.24-.37-.24s-.27.07-.37.24l-.27.48c-.1.14-.27.2-.51.2-.2,0-.37-.1-.51-.27M.82,26.39h25.54V.85H.82v25.54ZM.41.41h26.39v26.39H.41V.41ZM0,27.21h27.21V0H0v27.21Z" fill="#231f20"/>
    </g>
  </g>
</svg>