<?xml version="1.0" encoding="UTF-8"?>
<svg id="Layer_1" xmlns="http://www.w3.org/2000/svg" width="27.21" height="27.21" xmlns:xlink="http://www.w3.org/1999/xlink" viewBox="0 0 27.21 27.21">
  <defs>
    <clipPath id="clippath">
      <rect width="27.21" height="27.21" fill="none"/>
    </clipPath>
    <clipPath id="clippath-1">
      <rect y="0" width="27.21" height="27.21" fill="none"/>
    </clipPath>
  </defs>
  <g clip-path="url(#clippath)">
    <g clip-path="url(#clippath-1)">
      <path d="M18.13,25.95s.1.03.2.03l.1-.1s-.07-.07-.17-.07-.14.03-.14.14M17.96,25.68l-.17-.1-.14.21.27.07.03-.17ZM17.52,25.51l-.17-.03c-.1,0-.14.03-.14.1,0,.1.07.14.17.14s.14-.07.14-.2M16.87,25l-.14-.03-.03.2-.14.07-.07.14.14.1c.1,0,.17,0,.2-.03,0,.14.07.2.17.2s.17-.07.17-.2c0-.17,0-.27-.03-.31h-.07c-.07,0-.1.07-.14.2l-.07.07.07-.2-.07-.2ZM16.26,24.96l-.17.1-.03.03c0,.07.07.1.2.1.24,0,.34-.1.34-.31l-.03-.07c-.03-.1-.07-.14-.1-.17l-.07.03-.03.03-.1.24ZM14.56,24.45l-.24-.14h-.03l-.03.07.03.1.14.1.1.07c.14.1.24.17.31.17l.1.07.1.14.03.03-.51-.61ZM16.87,23.54l-.07-.03h-.03c-.1,0-.14.07-.14.17,0,.14.03.27.1.41l.1.17.1-.03-.07.03s-.03-.24,0-.61v-.1ZM9.01,21.16v-.37c-.1,0-.07-.1.03-.27l.1-.03.03-.24-.03.07v-.03l-.03-.1c-.17,0-.27.17-.27.48,0,.17,0,.27.03.34h-.07c.03.1.07.14.1.17v.03l.1-.03ZM19.69,19.73v.17l-.31.03-.03.1s.1-.03.24-.03c.1,0,.2.07.24.2l.1.07.03-.07-.07-.14-.07-.1-.03-.1.14.07h-.2l.31.03v-.1s-.1,0-.34-.14M17.79,20.82s.1.03.2.03c.07,0,.1-.07.14-.24.14-.31.27-.48.37-.51l.07-.1.41-.2.07-.07h-.03v.1l-.27-.1-.03-.03s-.1.07-.27.14c-.31.1-.54.41-.65.99M17.92,18.77l.03.07.1.07.1.14.1.27.1.1-.03-.44-.41-.2ZM18.64,18.81c-.03-.1-.07-.14-.14-.14-.1,0-.14.03-.14.14,0,.07.03.14.14.24l.03.03c.1-.03.14,0,.14.1.07-.03.07-.14-.03-.37M7.48,18.71c.1.07.14.14.17.2v.1l.07-.03.14-.07-.37-.2ZM7.55,18.37l.14.17.1.07c.1,0,.14,0,.14.03,0-.17-.07-.27-.2-.27h-.17ZM8.33,18.33l-.17.03-.03.03.1.1h.17c0-.1-.03-.17-.07-.17M8.57,17.96l-.27-.1-.07.1c0,.1.03.17.14.17s.14,0,.14.03l.07-.2ZM8.6,17.62l-.14-.03s.03.03.14.03M8.47,15.68l-.14-.41-.14.92.17-.31c.07-.1.1-.17.1-.2M15.41,13.23h-.1l-.07.07c.03.14.07.2.1.2h.1l-.03-.27ZM14.35,13.33c.03-.1.07-.17.1-.17l-.1.07-.37.07c-.58.1-1.06.37-1.4.78l.27.58s.03-.1,0-.31c0-.2.03-.31.07-.34.1-.03.17-.1.24-.14.07-.03.14-.1.24-.14.24-.1.48-.2.61-.27.2-.07.31-.1.34-.14M15.03,13.2l-.14.03-.1.1.17.2.14-.2-.07-.14ZM24.66,11.94l.2-.31-.41.17-.17.07-.03.14h.07c.2.03.31.03.34-.07M25.44,11.36v.2h.14l.07.1-.2-.31ZM7.07,10.58l-.24-.17h.1l.07-.07.24.17-.17.07ZM7.14,10.2l.2-.1.07.1v.03l.03.1-.31-.14ZM7.52,9.97v.14h.03l.1-.03h.1l-.2-.2-.03.1ZM7.65,9.59l-.03.1c.14.1.2.14.2.1,0,.03-.07-.03-.17-.2M24.28,9.25l-.2-.27v.14l.1.07.07.07.03.07c0-.24-.03-.37-.14-.44-.03.03,0,.17.14.37M6.97,9.18s-.07.07-.17.24v-.03l.07-.1c-.1.31-.2.48-.27.58-.1.1-.27.24-.54.44v.07c.37-.1.61-.2.68-.31.14-.1.2-.31.31-.68l-.07-.2ZM24.22,8.84v-.17l.2.27-.03.27-.17-.37ZM10.58,9.35l.03-.03.03-.07v-.07c.1-.17.17-.24.2-.24.17-.17.24-.31.24-.48v-.03s-.17.17-.44.48c-.1.24-.17.34-.2.37v.03l.03-.03v-.03s-.03.03-.17.07c.1-.07.17-.1.17-.14l-.1.1-.2.17-.17.14.07.03c.17,0,.34-.1.51-.27M7.14,8.74c.17,0,.24-.03.24-.1v-.07l-.03-.03-.1-.03-.03.03h-.07l-.03.03.03.17ZM9.45,8.47l-.03.14.1.14s.07-.03.24-.03l-.31-.24ZM15.2,8.4l-.48-.34c.14,0,.24.03.34.14l.1-.03.14-.03.2-.2-.31.48ZM7.52,8.43l-.24-.27.1.2s.07.07.07.17v-.1h.07ZM2.41,8.13l-.03.31-.07-.17.14.44.17.31c-.03-.44-.1-.75-.2-.89M9.76,8.26h.07c-.1.1-.1.14,0,.14-.17.14-.27.14-.27.03s.03-.17.14-.27v.07l.03.03h.03l-.03.07-.03-.1q.1,0,.07.03M10.99,7.72l-.07-.03-.14.17-.31.31-.44.78c-.03.1-.14.27-.37.51-.07.1-.14.17-.17.2l-.1.1-.2.17-.24.24c-.24.1-.37.2-.44.27-.24.03-.31.07-.24.07l-.03.07s.1.07.27.07c.1-.1.2-.17.31-.2s.17-.1.2-.14c.1-.1.2-.17.31-.2l.17-.14.07-.1.1-.14.07-.03c.38-.44.65-.85.78-1.16l.1-.14.03-.1c.17-.31.31-.48.37-.51l-.03-.07ZM7.14,8.03l-.07-.34-.14.2-.03.07v.07c0,.1.03.17.14.17.03,0,.07-.07.1-.17M10.99,7.38l.14-.1c.1,0,.14.03.14.1-.1.1-.17.17-.2.14l-.07-.14ZM2.14,7.96l-.17.03-.1.07c.07.2.17.24.31.14l-.03-.24ZM11.12,8.06c.31-.24.48-.41.48-.51-.03-.24-.07-.37-.1-.37,0,.03-.03.2-.14.44-.1.34-.2.48-.24.44M9.05,6.77c.03.24.03.44.07.58v.37c0,.85-.2,1.53-.65,2.11-.03.07-.17.2-.41.44l-.51.41c-.17.1-.31.2-.41.27l-.07.07-.07.1.75-.31.24-.14.58-.65.27-.44c.1-.14.14-.24.17-.31l.1-.48.17-.41.07-.61v-.34c0-.17.03-.31.14-.41.03-.1.03-.17,0-.24l-.44-.03ZM1.8,6.53c0-.17-.03-.27-.1-.31-.17,0-.24.07-.27.24l.07.17.31-.1ZM9.45,6.22l-.27-.03-.14.03v.07l.03.07.1.07.24-.03.03-.17ZM1.63,6.12v-.03h.07c0-.17-.03-.27-.1-.27-.2,0-.31.1-.31.27l.1.03h.24ZM9.11,5.82l.1-.03.03-.03-.03-.03s-.03-.03-.14-.03c.1,0,.17.03.17.07,0-.03-.03,0-.14.07l-.1-.03c0-.2.03-.24.07-.1l.17.07-.14.07ZM1.57,5.61l-.1-.17-.14.1v.03c0,.07.07.1.17.1l.07-.07ZM8.94,5.41v-.07c0-.07-.03-.1-.14-.1l-.1.03s.07,0,.07.14c0,.1.03.14.1.14h.03l.03-.14ZM17.62,5.71l.03-.03-.27-.31s0,.1.03.2l.2.41v-.27ZM10.14,5.2l-.1.1-.03.07.14.24v.44h.17c0-.58-.07-.85-.17-.85M8.6,4.73l-.14.1-.07.14.1.14.27-.14-.17-.24ZM16.87,4.59c.27-.07.41,0,.37.24,0,.24,0,.37.03.41.03,0,.07-.14.03-.41-.03-.27-.17-.41-.37-.41h-.07c-.07.03-.14.07-.24.17l-.07.14c.07,0,.14-.03.24-.03q.1-.07.07-.1M12.31,4.29l-.14.14-.03.07-.07-.03-.34.14.07.14h.1l.24-.03-.14.14.07.1c.41-.07.61-.2.58-.41v-.1l-.24.07c.07-.1.1-.17.1-.27,0-.17-.07-.24-.2-.2l.07.07-.07.2ZM17.41,3.84l-.27-.41c-.1.03-.1.1-.07.17.1.24.24.37.41.37-.1,0-.07-.03.1-.07l.34-.17h.03c-.1.03-.24.03-.48.07-.17.03-.27,0-.27-.14l.2.17ZM17.96,2.62s.03.03.14.1c0-.07-.07-.17-.24-.31-.17-.14-.2-.2-.14-.2l-.14.03v.07c.2.1.34.2.37.31M18.3,2.18c-.1-.1-.2-.17-.24-.17h-.07l-.07.03v.07l.27.24.1.14v-.31ZM4.83,25.13l.07.1v.1l-.1.1-.51.1-.1.07-.17-.1.27-.07.55-.31ZM13.13,25.1c.24-.14.44-.2.68-.2.27,0,.51.1.75.27.24.17.34.37.34.61,0,.31-.2.48-.61.48-.65,0-.95-.14-.95-.37l.1-.14c.24.17.44.24.61.24.34,0,.51-.14.48-.44v-.17c-.24-.14-.48-.2-.65-.2l-.07.03-1.02.71c-.17.1-.37.17-.61.17-.17,0-.37-.1-.65-.24-.27-.21-.41-.34-.41-.51,0-.1.07-.14.2-.14h.1l.24.24.27.1.07.1,1.12-.54ZM5.54,24.9l.14.1v.07c0,.1-.07.17-.2.17s-.2-.07-.2-.17.1-.17.27-.17M9.66,24.93l.2-.1c.24,0,.34.2.34.61,0,.24-.14.38-.38.38-.31,0-.58-.24-.88-.71l.71-.17ZM6.05,25.82c.14-.1.24-.17.27-.2.07-.03.17-.14.31-.27.37-.41.72-.61,1.05-.61.54,0,.82.24.82.71,0,.17-.03.31-.1.41-.14.24-.31.34-.48.34s-.27-.03-.37-.14c.27-.14.41-.27.41-.41,0,.03-.03-.07-.07-.31-.17-.1-.31-.14-.41-.14-.17,0-.65.24-1.36.68l-.07-.07ZM1.29,24.76l.14.17.1.1c.31.31.48.54.48.72,0,.27-.14.41-.37.41-.31,0-.44-.14-.44-.44.1.1.17.14.24.14l.17-.03c.1-.07.17-.14.17-.2,0-.1-.03-.2-.14-.31l-.17-.2-.17-.34ZM4.32,24.76c.17,0,.27.03.27.1,0,.1-.07.17-.2.17s-.2-.07-.2-.17l.1-.1h.04ZM19.45,25.3c-.14-.14-.2-.27-.2-.37,0-.24.2-.37.61-.37.17,0,.27.03.37.14-.34.1-.51.24-.51.37,0,.1.1.2.31.31l.34.07.54-.03-.07.17-.14-.03-.14-.03h-.54l-.24-.07-.24-.03-.1-.1ZM23.67,24.49l.31.03-.07.14-.03.2c.17-.07.31-.1.41-.1.14,0,.24.03.34.14-.1.24-.14.44-.14.58,0,.31.14.44.44.44.27,0,.41-.14.41-.38l-.07-.27-.03-.24c0-.27.1-.41.31-.41.1,0,.24.1.34.31-.03-.03-.1-.03-.2-.03s-.17.07-.17.17v.07l.2.37s.03.07.03.17c0,.31-.27.48-.78.48-.14,0-.24-.03-.34-.1l-.41-.31-.24.31-.34-.07c-.1-.1-.17-.2-.17-.24,0-.1.03-.21.14-.31s.14-.2.14-.24-.03-.1-.1-.2l-.1-.03-.1.07-.27.27v-.17l-.61.34c.03.1.07.14.17.14.14,0,.27-.1.41-.31-.07.31-.31.44-.68.44-.2,0-.31-.07-.31-.21l.07-.14-.51-.07c-.41,0-.61-.17-.61-.48,0-.1.07-.17.2-.2.1.24.24.34.44.34h.07l.31-.03.99-.41h.07l.1.14v.07h.03c.14,0,.27-.1.37-.27M10.88,25.88c-.17-.17-.24-.34-.24-.51,0-.24.1-.41.31-.61.17-.14.41-.24.65-.24s.51.07.85.24c.17.07.27.14.27.24v.07l-.2.07s-.1-.03-.2-.17c-.14-.07-.24-.14-.31-.14l-.51.03h-.17l-.07.07-.37.27c-.07,0-.07.07-.03.2l.03.48ZM3.23,24.49l.07-.1h.07c.37,0,.58.17.58.48s-.17.44-.54.44c-.41,0-.75-.17-1.02-.51.44.2.68.31.78.31.24,0,.37-.1.37-.31,0-.1-.1-.2-.31-.31M8.33,24.32c.17.1.34.14.54.14.41,0,.71-.1.88-.27.1-.1.2-.17.27-.2.03,0,.03.03.03.14v.03c.03.44-.34.65-1.06.65-.27,0-.51-.17-.68-.48M18.84,23.88c.1.03.17.07.27.14.07,0,.14.07.24.1l.03-.03.17-.03h.48c.1-.03.24-.03.41-.03s.34,0,.44-.03h1.63l1.56.07h.68l.37-.03.1-.07.17-.1c-.03.27-.2.41-.44.41h-4.46l-1.16.07c-.37.03-.54-.07-.54-.31l.03-.14ZM1.9,23.91c.31.07.54.1.75.1l.31-.03.44-.03c.1-.03.27-.03.51-.03h.51c.24,0,.61.03,1.09.03.51.07.88.07,1.12.07.2,0,.48-.03.82-.1-.07.2-.17.31-.34.27l-3.13-.07-1.46.1h-.03c-.37.03-.58-.03-.58-.2v-.1ZM11.12,22.89h.03c.14,0,.2.07.2.17,0,.17-.1.24-.27.24-.14,0-.2-.07-.2-.17l.03-.03.2-.2ZM12.58,22.86l.2-.03.07-.03c.17,0,.41.14.72.41l.14.14.14.1.17.17c.17-.03.24-.07.24-.1,0,.03-.03-.07-.07-.24l.17.1.34.24c.1.1.17.2.2.31.07.1.14.17.17.2l.41.51.1.03c.27.1.41.17.44.17.17,0,.24-.07.24-.24,0-.1-.07-.24-.2-.34l-.07-.07-.24-.24c-.1-.1-.17-.2-.17-.27,0-.31.03-.44.14-.48h.03s.1.03.24.1c.07.07.17.17.2.34h.14c.2-.58.54-.85.99-.85.17,0,.37.07.61.2.24.1.37.24.37.41l-.07.82.31.24c-.14.07-.24.1-.31.1-.31,0-.44-.17-.44-.48v-.03l.14-.31v-.24c-.17-.2-.34-.31-.48-.31-.31,0-.48.17-.48.54,0,.17.1.41.27.71l.03.14.85.65.51.24c.44.2.92.31,1.46.31h.31c.07-.03.2-.03.31-.07.58-.1.85-.17.82-.17.24,0,.34.07.34.21,0,.1-.14.17-.41.2l-.78.17c-.34.07-.61.1-.82.07l-1.36-.03s-.27-.07-.92-.17c-.2,0-.34,0-.41-.03-.92-.27-1.6-.54-2.04-.78l-1.7-1.05c-.31-.2-.65-.31-1.02-.31-.2,0-.34.03-.44.07-.07.03-.27.2-.65.48-.1.07-.2.1-.24.1l-.1-.1c0-.24.17-.48.51-.75s.68-.41,1.02-.41h.37l-.31-.34ZM13.57,22.72v-.17c-.03-.2.07-.31.31-.31.34,0,.61.34.78.99l-.27-.27-.14-.27c-.03-.1-.1-.14-.2-.14-.14,0-.31.07-.48.17M5.82,22.52l-.03-.14c0-.1.07-.17.24-.17.14,0,.2.03.24.14l.14.31c.1.17.14.27.14.34l-.1.1s-.07-.1-.1-.31c-.1-.17-.27-.24-.51-.27M11.8,22.21c.17,0,.27.1.27.27,0,.2-.1.31-.27.31s-.27-.1-.27-.27c0-.2.1-.31.27-.31M24.73,22.01c.17,0,.24.07.24.17,0,.17-.07.27-.24.27-.1,0-.17-.07-.17-.2v-.03l.03-.1.07-.07.07-.03ZM24.11,21.9c.1,0,.17.07.17.17,0,.17-.07.24-.17.24-.14,0-.2-.07-.2-.24v-.07l.1-.1h.1ZM18.64,21.6l-.03.34-.17.2c-.17.27-.31.41-.41.41-.07,0-.1-.07-.07-.24v-.1l-.14-.1c-.24.24-.54.37-.85.37l.17-.41h.2c.14.03.41-.1.85-.34l.1-.1.03.17-.07.24.17-.03.2-.41ZM5.1,21.63l.1.07.07.07.27.88-.31-.34-.14-.68ZM4.39,21.53h.37c.1-.03.17.1.2.41,0,.17.14.48.44.92l.48.31.34.17.31.07.61.1c.17.03.24.07.24.14,0,.2-.17.27-.51.24h-.78c-.31-.03-.61-.03-.92-.07-.27-.03-.54-.03-.78-.07l-.31-.03c-.2,0-.51.03-.88.03-.37.07-.65.07-.82.07-.31,0-.41-.07-.37-.2v-.07c.2-.1.37-.17.54-.2.17-.03.31-.1.41-.14.41-.14.71-.55.88-1.19.03-.2.24-.37.55-.48M11.26,21.73c.03-.17.14-.27.27-.27.17,0,.24.07.24.24s-.1.27-.27.27c-.1,0-.17-.07-.24-.24M17.07,21.22c.03.17.07.27.07.24,0,.14,0,.24-.03.27l-.1-.1-.03-.07-.03-.14s.03-.1.14-.2M24.08,21.22c.17,0,.24.03.24.07,0,.2-.1.31-.27.31-.1,0-.17-.07-.17-.17v-.07c.03-.1.07-.14.17-.14h.03ZM3.06,21.9c.34-.58.88-.85,1.63-.85.82,0,1.43.34,1.87,1.05.27.48.41.82.41,1.06l-.1.07h-.07c-.1-.14-.14-.24-.2-.38l-.07-.24-.07-.17c-.03-.07-.07-.14-.1-.24-.44-.61-1.02-.92-1.73-.92s-1.09.24-1.22.75l-.14.54c-.03.17-.17.27-.34.27l-.14-.1v-.03l.1-.1.03-.51.14-.2ZM16.9,20.88l.03.1-.1.24s-.03-.07-.03-.17l.1-.17ZM15.24,22.24c-.07-.41-.1-.65-.1-.71,0-.44.17-.65.51-.65h.17c.24.1.37.27.37.44,0,.31-.07.44-.24.44h-.1l.03-.2-.17-.03-.1-.1c-.17,0-.24.1-.24.27l.03.34c.03.07.03.17.03.31,0,.1,0,.17.03.2.1.17.14.27.14.31l-.1.17-.07-.07-.03-.07-.07-.34c0-.07-.03-.17-.1-.31M19.08,20.82l.03.17h.1c-.1.17-.17.31-.17.41,0-.03.03.07.07.24h.17l-.1.48.03.51v.38c-.14-.24-.2-.44-.2-.61l.03-.2c0-.1,0-.2.03-.31h-.27l.07-.41.17-.37.03-.27ZM25.2,20.68l.03.1.03.03-.03.07-.03.14-.24.41c-.1.17-.24.27-.34.27h-.14l.07-.2v-.07c.24-.31.44-.54.65-.75M16.8,20.34l-.07.31.07-.31ZM6.33,21.43c-.17-.17-.27-.41-.27-.65,0-.37.14-.58.41-.58.31,0,.48.2.48.58-.1-.1-.2-.14-.37-.14s-.24.14-.2.37v.2l.44.61c.07.1.14.31.17.54l-.17-.27-.31-.44-.14-.17-.03-.07ZM2.55,20.31c.37-.24.65-.41.78-.44.1-.07.2-.1.27-.1.1,0,.14.03.14.14,0,.14-.14.24-.41.31-.34.07-.54.14-.61.2-.58.51-.88.99-.88,1.39,0,.24.1.34.34.34l.24-.03c.17-.2.27-.37.31-.48l.07-.41c.1-.41.27-.65.58-.71l.03.1-.31.34-.54,1.46c-.03.17-.17.24-.44.24-.34,0-.51-.2-.51-.58,0-.51.24-1.02.75-1.53l.1-.1.1-.14ZM15.65,19.25c.07.1.14.17.2.17.1,0,.2,0,.24-.03l.1.31h.61l-.14.34-.1.2c-.07.14-.1.27-.1.37,0,.27.07.51.17.68l.17.27c.03.17.07.27.07.24v.1l-.03.07-.14.14.03.37c0,.14-.1.2-.31.2-.17,0-.27,0-.31-.03.24-.37.37-.68.37-.85,0-.1-.03-.31-.1-.54-.03-.24-.07-.41-.07-.48l.1-.58-.07-.17-.14.14-.31.03-.03-.34-.38-.17-.17-.37.31-.07ZM9.93,19.52c.17-.2.38-.31.61-.31.1,0,.27.07.58.17.31.31.44.61.44.95,0,.31-.1.54-.27.65l-.71.34c-.14.07-.2.27-.2.65,0,.31.14.48.44.48.17,0,.27,0,.31-.03l.03.14c0,.14-.1.2-.31.2-.17,0-.34-.1-.58-.31l-.1-.17-.03-.07c-.03-.1-.03-.2-.07-.31v-.17c0-.1.03-.27.14-.44.07-.2.17-.31.27-.34.41-.17.65-.31.68-.34.03-.17.07-.27.07-.31,0-.24-.2-.34-.65-.34-.55,0-.82.51-.82,1.5,0,.14.03.34.1.58.03.24.07.44.07.54s0,.14-.03.17c-.03-.24-.1-.37-.24-.41v.82l-.07.34.1.1s.1-.17.2-.51l.07-.03c0,.75-.31,1.12-.92,1.12-.37,0-.61-.1-.78-.34-.34-.31-.58-.68-.71-1.19l-.14-.54-.07-.48-.07-.54-.07-.75v-.17c.2.14.34.27.37.37l.03.31c0,.24,0,.37.03.41.14-.03.2-.07.2-.14,0-.14,0-.24-.03-.27l.34.58c-.03.07-.03.17-.03.31v.2c0,.61.14,1.05.44,1.36l-.14.03c0,.1.1.17.31.24l-.07.17s.14.03.31.03c.14,0,.24-.07.31-.24l-.24-.03c.14-.1.2-.2.2-.31,0-.03-.07-.07-.17-.07-.03.17-.07.24-.17.24s-.17,0-.2-.03c.24-.17.37-.37.37-.54,0-.1-.03-.31-.1-.58l-.03-.17-.07-.14-.17-.58c-.03-.1-.03-.24-.03-.34v-.17c0-.31.24-.75.68-1.33l.17.17c.07.1.17.17.27.2l.14-.34ZM1.12,21.77l.1-.34c.1-.31.2-.54.31-.65l.17-.17.54-.65.31-.27.41-.24c.31-.14.48-.2.58-.2s.17.03.17.14,0,.14-.03.17l-.51.17-.44.2-.2.1-.17.17c-.44.51-.75.99-.88,1.43-.14.44-.21.82-.21,1.12,0,.38.03.68.14.92.03.1.07.17.1.2l.03.14c.44,1.26,1.33,1.87,2.65,1.84h.17c.34,0,.58-.03.75-.14.03-.03.24-.17.68-.41.1-.03.2-.07.31-.17l.03-.1c.17-.17.31-.34.41-.58h.27l-.07.17-.07.14c-.41.92-1.22,1.39-2.48,1.39-.71,0-1.39-.27-2.01-.82l-.31-.27-.37-.48-.17-.2-.1-.37c-.14-.54-.2-.95-.2-1.26v-.34c0-.17,0-.27.03-.34l.07-.31ZM5.61,19.01l.24.2-.27.07.03-.27ZM1.22,19.08c.14.34.31.51.51.51.1,0,.24-.07.44-.17.17-.1.51-.24,1.02-.34-.1.1-.2.14-.31.17-.31.1-.48.2-.51.24l-.1.1c-.1.1-.31.17-.68.27h-.1c-.27,0-.41-.14-.41-.44,0-.14.03-.24.14-.34M5.71,17.92c.14.44.27.68.41.71l.68.31.31.24.1.1.1.07c.31.27.54.55.71.85l.24.48.1.31.14.31c.1.17.14.44.14.78v.24c-.03.14-.03.24-.07.34l-.1.03.03-.68-.1-.58c-.17-.51-.41-.88-.71-1.19l-.17-.14c-.24-.24-.55-.38-.85-.38-.54,0-.85.27-.95.85l-.14-.1c-.03-.07-.03-.2-.03-.41,0-.07.03-.17.1-.27.17-.27.48-.44.88-.48l-.07-.14c-.37-.07-.65-.27-.82-.58-.03-.07-.03-.17-.03-.27s.03-.24.1-.41M10.07,17.72l.14-.17.1.1v.03l-.03.1-.17.2c-.14.2-.27.54-.41.99l-.07.34-.07-.24.17-.54.07-.34.27-.48ZM6.56,17.35l.2.1.03.1c0,.2-.1.37-.27.48l-.03.03c-.1,0-.14-.14-.14-.41,0-.1.07-.2.2-.31M25.03,17.55l.1.2v.31c.03.24.1.44.1.61.07.17.07.27.07.37,0,1.06-.44,1.7-1.36,1.91,0-.2.07-.41.17-.58h-.07c-.17,0-.27-.07-.34-.24-.14-.24-.2-.41-.2-.55,0-.17.03-.27.14-.37l.54-.51-.03-.44-.41-.41.34-.07c.38,0,.55.2.55.65,0,.14-.03.24-.14.34l-.51.48c-.07.03-.1.14-.1.31,0,.07.07.17.14.31.14.17.2.24.27.24s.2-.07.38-.17l.07-.07.24-.34.07-.37.07-.24.03-.03c0,.17-.07-.14-.2-.95l-.07-.37.1-.34.07.34ZM15.2,19.11c.88-1.33,1.73-2.01,2.59-2.01h.34l.41-.07s.17.03.34.07l.85.31s.1.07.2.17l.41.54c.1.1.14.31.14.61s-.14.58-.37.82l.03.14.14.03.24.07c.1.1.14.17.14.27,0,.2,0,.34-.03.37v-.07c0-.14-.03-.2-.07-.2l-.14.03v.07c0,.37-.03.65-.14.75-.07.1-.1.17-.1.2v.03l.03.1c.07,0,.14-.07.17-.17l.03.14c0,.1-.07.2-.24.37-.31.31-.48.68-.58,1.05l-.1-.03-.1.07.03-.31v-.37c0-.07.03-.2.1-.41.03-.17.07-.31.1-.37l-.27.03v-.17l.1-.07.1-.17.17-.24-.07-.34c-.1-.14-.2-.2-.27-.2-.2,0-.34.14-.41.44l-.17.65-.27.24v-.17c-.31.17-.54.31-.65.41l-.03-.1c-.1.24-.24.31-.37.27h-.24c.07-.17.1-.27.1-.37s-.07-.27-.17-.44l-.07-.48.1-.24.03-.2h-.37l.07-.27c.14-.24.27-.38.37-.38l.2.03.34-.03c.1-.1.17-.2.17-.27,0-.17-.1-.24-.34-.24s-.37.03-.48.14l-.44.27-.34.03.03-.14.03-.07-.1-.14c-.17.1-.31.14-.41.14s-.14,0-.17-.03l.14-.17.14-.07.54-.48.24-.07.2-.17.1-.03.1-.1.07-.03.2-.03s.14-.03.27-.07.24-.07.31-.07c.17,0,.31.03.48.14.38.1.55.34.55.71l-.03.14c0,.1.07.17.2.24l.03-.1c.2-.1.37-.27.48-.54l-.1-.37-.1-.17-.1-.14c-.44-.31-.89-.48-1.26-.48-.34,0-.58.03-.71.1l-.61.31-.2.07-.37.34-.31.2-.1.17-.41.48-.07.17h-.2l-.1.1.07.27-.24.51s-.03.14-.07.31c-.03.17-.07.27-.03.34v.78l.24,1.16.03.27.17.41.03.37.07.27-.34-.61-.07-.03-.2-.54c-.17-.51-.27-.99-.31-1.5v-.24c0-.65.24-1.29.68-1.94M25.17,17.21l-.03-.14c0-.1.07-.14.17-.14.17,0,.34.27.48.82.14.58.2,1.22.2,1.97,0,1.26-.27,2.41-.82,3.54-.24-.03-.34-.07-.34-.14s.07-.2.2-.38l.17-.41.14-.54.17-.54c.07-.27.1-.71.1-1.33v-.31l-.03-.58-.37-1.67-.03-.17ZM5.68,17.21v-.1c-.03-.14,0-.2.17-.2s.27.07.27.24-.07.24-.24.24c-.07,0-.14-.07-.2-.17M9.08,18.37l.1-.37.2-.65.03-.24c.07-.31.17-.44.31-.44.17,0,.24.14.24.41v.14l-.34.75-.27.95-.1-.48-.17-.07ZM19.25,16.8c.1,0,.27.03.48.07.17.03.27.07.31.07.24,0,.37-.07.37-.24v-.03l-.03-.07v-.03l.07-.1c.17,0,.24.14.24.37,0,.31-.14.44-.41.44-.1,0-.17-.03-.27-.1l-.37-.2-.37-.17ZM1.94,16.5l.24.37c.34.51.68.85,1.05,1.06.03.03.1.1.24.14.07.03.2.1.31.17v.31c-.58-.24-1.02-.54-1.29-.85l-.2-.2-.1-.14c-.24-.24-.34-.38-.34-.48,0-.07.03-.2.1-.37M5.88,16.09h.03c.2,0,.31.07.31.2,0,.17-.1.24-.27.24-.14,0-.2-.07-.2-.24,0-.14.03-.2.14-.2M9.28,15.85l.1.03.03.07-.03.1-.07.1-.03.17-.1.07.1-.54ZM12.58,15.99l.38-.31.34.03.2.03c.37.03.51.07.48.17l-.1.31.2.24.07.37c-.07.24-.17.44-.31.54l-.2.17-.1.31c-.07-.17-.1-.27-.1-.37,0-.17.07-.34.24-.51,0-.37-.2-.65-.58-.75l-.17-.03h-.24l-.1-.2ZM25.95,15.48v.31c0,.34-.17.65-.58.88-.34.27-.75.41-1.12.41-.31,0-.54-.1-.78-.34l-.07-.37c.24.34.48.51.71.51.44,0,.82-.14,1.19-.34.34-.27.54-.61.65-1.05M19.86,15.41c.14.03.2.1.2.14l-.03.07-.54.58s-.14.1-.34.24l-.51.27-1.16.24-.58.24-.2.03.31-.24c.14-.1.61-.27,1.46-.51.51-.27.85-.48,1.02-.61.14-.03.24-.1.27-.17v-.14l.1-.14ZM18.43,15h.1l.14.03.17.37.37.34v.03c0,.1-.07.14-.17.14-.31,0-.51-.31-.61-.92M25.1,14.76c.48.1.71.34.71.68s-.17.65-.51.92c-.34.27-.68.41-1.06.41-.48,0-.71-.24-.71-.68,0-.1.03-.27.1-.48l.17-.17c.07.03.14.1.2.2l.07.1c.1.03.14.1.14.24l-.03.14.27.03c.44-.07.68-.24.65-.54v-.07l-.41-.27-.1-.14-.03-.1-.03-.07c0-.1.1-.14.34-.17l.24-.03ZM19.8,14.73c.51.24.78.54.78.85,0,.51-.2.75-.58.75l-.14-.03-.1-.03c0-.17.14-.24.44-.27.07-.17.1-.31.1-.48,0-.07-.03-.14-.14-.2l-.37-.27-.03-.07.03-.24ZM1.63,16.09l.44-.44.41-.34c.24-.17.41-.31.51-.41.14-.1.24-.14.27-.17v-.03l.07.03v.31l-.44.31-.41.27-.31.27c-.58.65-.88,1.22-.88,1.7s.2.71.58.71c.14,0,.34-.1.58-.31.1.03.14.07.14.14,0,.31-.27.44-.78.44s-.78-.34-.78-1.05c0-.31.14-.68.44-1.12l.17-.31ZM5,14.66l-.07,2.38v3.81l-.95.1-.03-2.55.03-2.76.03-.37.07-.34.34-.14.54-.2.03.07ZM18.57,15.88c-.24.2-.51.31-.75.31-.44,0-.68-.17-.68-.54,0-.78.54-1.16,1.6-1.16.07,0,.2.03.37.07-.03.14-.1.2-.17.2l-.14-.03h-.07l-.14.03c-.07,0-.17,0-.27.03l-.37.1c-.17.1-.31.2-.41.31-.1.1-.17.24-.17.41,0,.24.14.34.37.34l.27-.07.31-.17h.07l.1.03.07.14ZM23.4,14.35c.14.1.24.17.31.2.65.51.99.92.99,1.19,0,.07-.07.1-.24.14l-.2-.24-.17-.2-.03-.1-.17-.17-.1-.07c-.27-.24-.41-.37-.41-.48,0-.14,0-.24.03-.27M5.24,14.35l.1-.07.1.1-.14,6.5h-.2l.03-5.03v-1.19l.1-.31ZM19.05,15.24c.17-.24.27-.51.27-.75v-.03l-.03-.27.17.17c.07.07.1.2.1.37,0,.48-.14.71-.41.71-.03,0-.07-.07-.1-.17v-.03ZM2.89,17.41c.17-.17.27-.44.34-.78l.2-.68.14-.68-.07-1.02v-.03c-.03-.14,0-.2.1-.2.14,0,.2.31.2.88,0,.85-.1,1.46-.34,1.9-.14.27-.2.44-.24.51-.03.17-.07.24-.14.24-.03,0-.1-.03-.2-.14M5.82,15.03c-.07-.17-.1-.27-.1-.37,0-.51.27-.78.82-.78.68,0,1.12.31,1.33.89l.2-.14.1-.24.17-.1c.24.37.34.68.34.92,0,.37-.07.65-.2.88l-.65,1.19-.1.65.03.17c.03.1.07.14.14.14.14,0,.2-.24.24-.75v-.38c.03.07.07.1.17.1s.14-.14.14-.44c0-.17.14-.37.41-.61.14.31.2.65.2.99,0,.24-.03.51-.14.82-.1.34-.14.54-.14.65s0,.2.03.24l.2-.17.1.03c-.03.1-.03.17-.03.27v.17c0,.14,0,.2-.03.24l-.37.61-.07.24h-.14l-.24-.38c-.1-.07-.14-.14-.14-.2s0-.17.07-.34c0-.14.03-.24.03-.34v-.27c-.17.03-.24.14-.24.34v.1c0,.14,0,.24-.03.31v.07l-.61-.51-.14-.1v-.37l.1-.78.1-.17v-.58l.17-1.02-.03-.37-.03-.34v-.14l-.07-.2-.17-.2-.17-.2c-.2-.14-.37-.2-.51-.2-.31,0-.44.14-.44.44,0,.1.03.2.1.27l.75.75.07.37v.14c0,.31-.24.51-.68.58l-.03-.1c.37-.14.54-.34.54-.58,0-.17-.07-.31-.24-.41l-.48-.31-.34-.44ZM1.39,15.88c-.1-.37-.14-.71-.14-.99,0-.03.03-.1.07-.24l.1-.41.17-.44.07-.03c.1,0,.17.07.2.17l-.27.85.03.78v.03c0,.17-.07.24-.24.27M24.42,13.54l.31.27-.07.14c-.1.2-.24.31-.38.31-.58,0-.88-.14-.92-.38l.44.1h.1c.24,0,.41-.14.51-.44M20.14,14.59c-.14-.58-.44-.89-.95-.89-.27,0-.48.1-.58.27l-.14.31-.07.07c-.1,0-.14-.07-.14-.17,0-.2.1-.38.27-.51.17-.17.38-.24.58-.24.31,0,.61.1.85.34.24.24.37.48.37.78l-.03.24-.17-.2ZM17.58,13.26l.24.03-4.49,9.08-.1.03c-.17,0-.24-.03-.24-.14l.31-.41.27-.51,1.02-2.04.88-1.7.24-.58c.03-.1.1-.2.14-.31l.1-.17,1.63-3.3ZM2.72,14.46c-.1-.17-.14-.38-.14-.55l.27-.65c.07,0,.1.07.1.17,0-.03-.07.14-.17.48v.51l-.07.03ZM3.43,12.82c.27.07.41.2.41.41,0,.44-.27.71-.85.78.03-.1.03-.17.07-.2.03-.03.14-.07.37-.1.17-.03.24-.1.24-.24,0,.03-.03-.07-.07-.24l-.1-.2-.07-.2ZM3.16,12.75l.2.44.07.17s-.07.07-.17.07c.1,0,0-.17-.27-.51l.17-.17ZM16.7,12.75l1.22-.1h.37c1.5-.03,2.24.14,2.24.44,0,.1,0,.2-.03.24-.65-.2-1.46-.31-2.42-.31-.31,0-.58,0-.88.03l-.92.1v-.2l-.1-.1.1-.03.17-.07h.24ZM22.99,12.58l.14.07.03,4.28.14,4.49.41,1.39-.14-.14c-.27-.41-.44-.85-.51-1.36l-.1-3.03-.03-2.14.07-3.57ZM20.75,12.58l1.94.07.14,8.33c.03,1.56.65,2.35,1.84,2.38.37.03.58.14.58.31,0,.1-.03.17-.1.17l-.34.03-.17.03-2.25-.07-2.35.03h-.37c-.48,0-.71-.07-.71-.2,0-.1.1-.17.34-.2,1.16-.07,1.73-.88,1.73-2.48v-.68c0-.1,0-.2-.03-.31-.03-.24-.03-.44-.03-.61-.03-.17-.03-.27-.03-.37l-.07-3.44-.07-2.24-.03-.75ZM16.39,12.35l-.1.24h-.27l-.41.1-.07-.1.03-.07.03-.03.27-.1.34-.03.1-.03.07.03ZM17.62,12.04l.37.03c-.07.37-.24.51-.48.48h-.51c-.1,0-.24,0-.34.03l-.07-.14.1-.17.03-.1.88-.14ZM18.33,11.97l.1.03c-.1.31-.2.48-.31.48h-.14l.1-.27c.03-.14.14-.2.24-.24M5.65,12.01c.27.17.41.44.41.78,0,.68-.34,1.16-1.02,1.46l-.68.31-.27.17c-.07,0-.1-.03-.1-.14v-.14l.71-.31c.24-.14.44-.27.61-.44.17-.1.27-.2.31-.37.14-.24.2-.41.2-.58,0-.1,0-.17-.03-.2l-.14-.17v-.37ZM2.72,12.79l-.34.44-.1.03c-.1,0-.17-.07-.17-.17,0-.24.27-.51.82-.85l.48-.34c.17-.1.27-.14.37-.14s.14.03.14.1l-.03.1-.03.07-.1.07-.2.1c-.1.03-.27.14-.48.31l-.34.27ZM1.05,12.38c.07-.44.31-.68.75-.68.17,0,.41.07.65.2.14.07.2.14.2.2s-.07.1-.17.1l-.68-.2-.14-.03c-.24,0-.34.14-.34.41,0,.14.1.37.27.68l.65.48c.1.03.14.07.14.1,0,.1,0,.17-.03.2-.54-.31-.88-.51-1.05-.68-.14-.17-.2-.41-.24-.78M7.24,12.55c-.1-.44-.38-.71-.75-.78-.24-.03-.41-.1-.44-.17l.07-.03c.75,0,1.22.24,1.43.75l.17.37c.1.17.14.31.14.48,0,.14-.03.34-.1.61h-.17l-.24-.24-.55.03c-.1,0-.24-.1-.41-.34l-.03-.14v-.37c0-.1.03-.17.14-.24.07.37.17.54.34.54.1,0,.24-.07.38-.2l.07-.14-.03-.14ZM16.12,12.01c.17-.17.27-.27.37-.31h.2l.85-.14,1.63-.17c.24-.03.44-.1.61-.14.17-.03.34-.1.44-.14h.07c.14,0,.2.07.2.2s-.24.24-.75.31l-3.64.48v-.1ZM12.48,12.48l.24-.31.2-.2c.34-.24.51-.41.51-.51l-.03-.07-.17-.17.14-.14.07-.03c.24,0,.34.14.34.38l-.03.07c-.1.24-.27.37-.44.48l-.27.14c-.1.1-.24.17-.31.2-.14.07-.2.14-.24.17M8.98,10.85l.14-.03c.1,0,.2.17.31.48l3.3,6.39.58,1.09h.17c.37-.58.75-1.22,1.09-2.01.41-.78.78-1.67,1.22-2.69l.27-.48c.07-.14.2-.2.41-.24h.27l.24-.03h.37l-2.04,4.25-2.28,4.49-.21-.07-4.76-9.32-.37-.68-.14-.24-.2-.31c.14-.07.24-.1.27-.1.03-.03.14-.03.31-.03.31-.03.58-.17.85-.37l.2-.1ZM9.39,10.68l.03-.03h.03l.1.03,2.59,5,.95,1.77.24.51.17.27v.03l-.07.27-3.27-6.19-.61-1.22-.1-.1c-.07-.1-.1-.17-.1-.24l.03-.1ZM15.03,10.44l.2.07-.24.48-.27.24-.31.41-.51.41-.75.61-.34.17-.85.68-.44.37-.1-.07c.1-.17.17-.27.27-.37.07-.1.14-.17.2-.2l.82-.65.55-.31c.61-.37,1.19-.99,1.77-1.84M15.14,11.84l.48-.41.24-.48.07-.14v-.14l-.03-.14c0-.17.03-.24.1-.24.1,0,.2.1.31.31.1.17.14.34.14.44,0,.17-.07.38-.17.55-.17.31-.31.48-.48.51l-.48.31-.17.1-.78.03c-.1,0-.31.17-.61.48l.14.07.17-.2.17-.1.03-.07.24-.03.17-.1.34.03.1.1c-.03.14-.07.2-.07.17,0,.07.03.1.14.1l.1-.07.14-.1.61.27c-.24.41-.41.61-.44.61l-.51.1.1.24-.1.03-.68-.07h-.03c-.31-.03-.65,0-1.02.07v.1h.27c.17-.03.27-.03.34-.03l.1-.03s.2.07.51.17l.14.07.24.14.1.2-.31.14.17.31v.1c0,.31-.14.54-.37.71l-.07-.58c-.24-.37-.58-.54-1.09-.54-.14,0-.31.03-.55.07l-.31.14-.37.1-.1-.24-.14-.24-.1-.14c-.07-.17-.1-.31-.1-.41l.58-.58.41-.37.38-.24.65-.34.27-.1.48-.2.2-.14.48-.31ZM12.58,11.26l.2-.34.17-.14.24-.31c.1-.1.24-.17.34-.17.54,0,.82.2.82.58l-.03.14s-.07-.07-.17-.07c-.07-.07-.17-.1-.27-.2l-.17-.07c-.44,0-1.09.72-1.97,2.18-.07.1-.14.17-.24.27l-.24.24c.03-.17.14-.31.24-.44.03-.1.1-.17.14-.2l.1-.17s.1-.14.24-.31c.07-.17.24-.37.41-.61l.2-.38ZM2.82,10.24c.51.37.75.71.75,1.09,0,.34-.2.51-.61.51-.31,0-.48-.17-.48-.51l.03-.1.37.27.1.03.03-.03c.14-.07.2-.17.2-.34,0-.03-.03-.14-.1-.24-.14-.2-.24-.44-.31-.68M10.51,10.07l.24-.14.03-.03c.61,0,.92.31.92.88,0,.37-.07.68-.24.92l-.41.61-.14.17-.14.07.17-.31.17-.24c.17-.31.24-.54.2-.78v-.31l-.03-.14c-.03-.1-.1-.17-.2-.17h-.1l-.03-.1-.03-.03h-.07c-.24,0-.41.17-.48.54-.1-.1-.17-.24-.17-.37,0-.27.1-.48.31-.58M20.07,10.1c-.14-.07-.2-.14-.2-.2,0-.1.07-.14.17-.14.24,0,.37.17.37.51,0,.65-.71,1.02-2.11,1.12l-.99.1c.07-.17.58-.27,1.53-.37.48-.14.85-.27,1.09-.37.1-.17.17-.31.17-.41l-.03-.24ZM23.3,10.27s-.03-.14-.03-.31.03-.27.1-.27c.17.1.24.2.24.31s-.1.17-.31.27M3.06,9.56l.44.34.14.07c.17.07.27.17.27.31,0,.03-.03.17-.07.41-.17-.03-.34-.14-.44-.31-.31-.24-.48-.41-.58-.54l-.1-.07s.03-.07.14-.07h.07l.14-.14ZM11.87,10.14c-.07-.44-.1-.65-.1-.61,0-.1.03-.14.14-.14.14,0,.2.2.2.61,0,.27-.03.51-.14.68l-.1-.54ZM3.61,9.35l.14.07.03.1.03.03-.1.1c-.1,0-.17-.07-.17-.17v-.03l.07-.1ZM25.07,10.03l.34-.78.17.1c.1.03.14.17.17.41,0,.1-.07.17-.2.24-.14.1-.2.17-.2.24,0,.1.1.17.27.2-.27.31-.48.48-.61.51l-.54.17v.24c.44-.17.68-.27.75-.27.1,0,.24.03.41.14l.34.1-.2.44-.34.17-.03.07s.03.1.14.14l.1.1-.03.1-.07.03-.82.07c-.14,0-.2.03-.2.1,0,.1.03.17.14.17l.61-.03h.03c.31,0,.44.1.44.34,0,.1-.1.17-.31.17h-.17v.07l.27.24.1.2c0,.34-.1.51-.27.51l-.27-.07.17-.34-.14-.31-.34-.17-.51-.17c-.07,0-.14-.07-.24-.17-.1-.1-.14-.2-.14-.27v-.03l.14-.2v-.14c0-.07-.03-.1-.14-.1s-.31.03-.58.07c-.27.03-.48.07-.61.07l-4.08-.1c.03-.17.1-.24.27-.24h1.7l1.4.1h.07c.17,0,.68-.07,1.46-.2l.37-.07.03-.14-.14-.07-.14-.14s-.03-.1-.03-.2c0-.14.03-.24.14-.31l.34-.24.07-.14.34-.1v-.1h.1l.14-.1.17-.14.17-.17ZM23.57,9.15c.1.2.2.34.34.37.17.03.27.1.37.17,0,.1-.1.17-.27.17-.34,0-.51-.14-.51-.41,0,.03.03-.07.07-.31M11.39,9.12c.1.17.17.27.17.31,0,.14-.03.2-.14.2s-.14-.07-.14-.17.03-.2.1-.34M12.38,8.81s.03.14.03.27c0,.17-.03.24-.14.24-.14,0-.2-.1-.2-.27s.07-.24.17-.24h.14ZM22.55,8.74l.07.54v1.46l.07.72v.41l-1.02.03-.48.03h-.07c-.27,0-.41-.1-.41-.31l.03-.58-.03-1.84.82-.03.14-.07.54-.17.34-.2ZM15.58,8.67c.31.1.48.31.48.54,0,.31-.17.58-.51.82-.07.03-.17.1-.27.2l-.44-.37c-.17-.17-.24-.34-.27-.54.03-.31.2-.51.44-.61l.07.2.17-.03-.03-.17.24.54.14-.58ZM3.1,8.67h.03c.2,0,.31.1.31.31l-.07.03c-.17,0-.27-.1-.27-.34M23.03,8.54l.1,3.03v.03c0,.2-.07.31-.17.31-.14,0-.17-.07-.14-.2l.03-.48c-.03-.82-.07-1.5-.1-2.04v-.51l.27-.14ZM3.74,8.54l.07.1.07.07v.07c-.03.1-.1.17-.14.17-.03-.03-.07-.1-.07-.2l.07-.2ZM11.8,8.91c-.1-.03-.17-.1-.17-.17,0-.2.07-.31.17-.31s.14.07.14.17-.03.2-.14.31M13.54,8.54l-.03-.1c0-.1.17-.17.48-.17.37,0,.54.07.54.2,0-.03-.17.03-.48.17l-.03.14.58-.07c-.1.1-.24.17-.34.17l-.03.17.07.07c-.17.24-.34.37-.48.37-.17,0-.27-.07-.24-.24l.03-.31-.07-.41ZM3.4,8.2c.1,0,.17.03.17.14s-.07.14-.24.14l-.07-.03.03-.07c.03-.1.07-.14.1-.17M8.2,8.13l.2.2-.1.44h-.07c.03-.07.03-.17.03-.31l-.07-.34ZM5.27,7.99l.2.27-.1,5.1-.17.17v-1.53l-.03-.14.03-1.94.03-1.7.03-.24ZM20.44,7.55l.07.54-.17.2-.27.58-.61,1.16s-.07.1-.07.2c-.07.1-.1.2-.14.34-.03.1-.07.2-.17.34l-.31.03.99-2.07.68-1.33ZM15.99,8.4l.07-.37.14-.14.2-.27c.1-.1.24-.17.34-.17.17,0,.24.24.24.68,0,.34-.17.58-.51.75l-.03-.27-.1-.03.1-.17.03-.31-.48.31ZM17.07,7.18c.1.17.2.31.27.48.14.17.24.31.34.48.17.24.24.48.24.75,0,.85-.31,1.26-.92,1.26-.24,0-.44-.14-.65-.37l.1-.34c.17.17.31.24.41.24.17,0,.34-.07.58-.24l.1-.07.1-.37c0-.24-.1-.55-.27-.85l-.2-.54-.1-.41ZM24.15,7.72c.24-.31.34-.54.31-.65l-.03-.51.17.1.07.58.2-.07v.65l-.48.75v.03c0,.07.07.14.17.2l.14.03.14-.1c0-.07.07-.24.17-.48.07-.17.14-.27.24-.31l.07-.14h.07c.27,0,.44.14.51.44-.07.07-.14.14-.24.17-.07.07-.14.14-.24.17l-.31.48-.17.1-.31.24-.2.07c-.17,0-.38-.1-.61-.34-.1-.17-.14-.31-.14-.44,0-.31.1-.58.31-.75l.17-.24ZM18.2,7.01c.17.03.27.07.31.07.14,0,.2-.07.2-.2v-.03l-.27-.31.27-.1.17.07c.14.03.2.17.2.37,0,.41-.17.61-.51.61-.14,0-.31-.07-.54-.2l-.1-.17-.14-.27-.07-.14.07-.1.07.03.17.27.17.1ZM17.14,6.43c.2.1.34.24.41.41.1.34.31.61.61.85l.24.07c.17.07.27.14.27.17,0,.24-.1.34-.31.34-.1,0-.2-.07-.31-.24l-.14-.1-.07-.03-.1-.14-.34-.48-.1-.27-.07-.1c-.07-.1-.1-.2-.1-.34v-.14ZM12.31,5.92l.41-.17h.14s.1.31.2.82l.07.34v.37l.03.34.03.24c0,1.87-.44,3.3-1.36,4.29-.17.17-.27.34-.34.44-.1.1-.14.17-.17.2-.07.14-.14.24-.17.27h-.03l-.1-.07-.03-.07.03-.27c.2-.27.41-.51.58-.68l.54-.99.44-1.16.03-.03.14-.85v-.37l.03-.41-.03-.44v-.37s0,0-.03-.1c-.03-.1-.07-.31-.1-.54l-.31-.78ZM24.05,6.05c.1-.24.24-.37.34-.37.27,0,.41.14.41.37,0,.07-.07.14-.17.2-.03-.14-.14-.2-.24-.2l-.14.07-.17.68-.24.54c-.1.2-.24.41-.41.61l.07-.24c.1-.17.17-.34.24-.48l.14-.37.07-.48.1-.34ZM18.71,5.54h.07l.03.07v.03c0,.17-.1.27-.31.27-.17,0-.24-.07-.24-.2,0-.1.14-.17.37-.17h.07ZM19.32,5.51s.03.1.03.2c0,.17-.07.24-.2.24-.17,0-.24-.07-.24-.24,0-.14.14-.2.37-.2h.03ZM14.56,5.75c0,.17-.1.27-.31.27s-.31-.1-.31-.27.1-.27.27-.27c.24,0,.34.1.34.27M15.14,5.17c0,.37.03.65.1.78l.48,1.12s.03.14.07.24c.03.1.03.27.07.44-.03.07-.03.14-.03.24l-.03.14c0,.24-.2.38-.58.38-.24,0-.51-.17-.75-.48l-.2-.58-.24-.51-.07-.14-.14-.2c-.24-.2-.34-.37-.37-.48.78.1,1.29.58,1.56,1.46.03.17.1.27.17.31h.03l.1-.07-.31-.75-.07-.07-.14-.27v-.58c0-.37.1-.68.34-.99M18.4,5.41v-.24c0-.2.1-.31.34-.31l.14.07-.1.51-.38-.03ZM12.92,4.83h.1c-.03.58-.31.85-.82.85-.17,0-.31-.03-.48-.14l.17-.1.2-.07c.1,0,.2-.07.34-.14.1-.1.27-.24.48-.41M23.5,4.69c.24.44.37.89.37,1.33l-.03.37c-.2,1.43-.92,2.25-2.14,2.48l-.75.14c-.07.03-.2.03-.41.03-.17,0-.27-.03-.27-.14v-.07l.03-.1h.85c.1,0,.44-.1.95-.31.24-.1.44-.24.68-.48l.2-.2.2-.2c.03-.1.1-.17.14-.27.17-.31.24-.68.24-1.19,0-.17-.03-.41-.1-.65-.07-.24-.1-.41-.1-.48,0-.1.03-.17.14-.27M14.25,4.73h.07c.17,0,.27.07.27.2,0,.2-.14.31-.37.31-.14,0-.2-.07-.2-.2,0-.17.07-.27.24-.31M24.08,5.14c0-.34.1-.51.34-.51.31,0,.54.24.65.68l.14.82-.14.85-.14-.07.07-.48s-.03-.07-.03-.17l.03-.2v-.14c0-.17-.07-.38-.24-.68-.17-.1-.31-.17-.41-.17l-.07.03-.2.03ZM19.39,4.25h.1c.1,0,.14.03.14.07v.03l-.24.48-.07.54-.03.03-.1.07c-.17,0-.24-.07-.24-.17v-.03l.03-.1.07-.17.14-.07.1-.17.1-.51ZM18.94,4.69c-.03-.17-.07-.27-.07-.24,0-.14.07-.2.2-.2s.2.07.2.2-.1.2-.34.24M15.95,4.22l.03.03c0,.14-.03.2-.14.2s-.14-.07-.14-.2c0-.1.03-.14.1-.14h.03l.1.1ZM14.49,4.32c0-.17.1-.24.27-.24.1,0,.17.07.17.17,0,.2-.07.31-.2.31-.17,0-.24-.07-.24-.24M2.52,4.01c-.03.24-.07.41-.07.54-.07.17-.07.27-.07.31,0,.48.17.72.54.72.14,0,.27-.07.41-.2.03-.03.03-.14.03-.31,0,.03-.03-.07-.07-.24.27.24.41.48.41.68,0,.38-.2.55-.58.55-.58,0-.88-.34-.88-1.05,0-.17.1-.48.27-.99M15.24,3.91c.17,0,.27.07.27.17s-.07.17-.2.17c-.1,0-.17-.07-.17-.17v-.07l.03-.03.03-.07h.03ZM2.96,3.74c.1.03.17.1.24.14l.27.2-.07.07-.2-.14-.17-.1-.07-.17ZM25.31,3.67l.1.31.2.65c.1.2.14.58.14,1.09s-.07.95-.17,1.29l-.14.27-.03.27-.17.1s-.07-.03-.1-.14l.07-.34.14-.58c.03-.17.07-.44.07-.75v-.1c0-.31-.03-.58-.07-.78-.03-.27-.1-.44-.14-.54-.1-.2-.14-.37-.14-.51,0-.1.07-.17.24-.24M1.63,3.71l.44.14-.03.03c.14.03.2.07.2.1l-.07.27c-.17.31-.24.65-.24,1.02,0,.1.03.27.07.51.24.78.58,1.16.95,1.12l.2-.03h.24l.14-.1.2-.24.14.31v.2c0,.41-.24.58-.68.54h-.1l.14.31c-.65-.03-1.02-.31-1.12-.82-.1-.24-.2-.34-.34-.34-.07,0-.14.07-.17.17.03.31.14.54.31.65.51.31.75.54.75.75l.1.89v.17l-.1.07h-.03l-.17-.1h-.1c-.1,0-.14.03-.14.1,0,.1,0,.17.03.2l.2.44s.03.07.03.17c0,.2-.07.41-.2.65-.14.2-.31.31-.51.31-.14,0-.27-.03-.44-.1l.27-.44.03-.31c.03-.1.03-.17.07-.2v-.27l-.17-.51-.03-.31-.17-.44c-.2-.78-.31-1.26-.31-1.5l.03-.41-.03.03v-.2l.03-.37c.03-.37.07-.72.1-.99.03-.27.1-.48.14-.61l.34-.85ZM14.05,3.64l.31-.03s.07.03.07.14-.07.17-.17.17c-.14,0-.2-.03-.2-.1v-.17ZM6.97,3.61h.03c.14,0,.2.07.2.2,0,.1,0,.14-.03.17-.1.14-.2.2-.24.2-.14,0-.2-.1-.2-.31,0-.17.07-.24.24-.27M16.73,3.57c.03.14.07.24.1.31.17.48.37.71.65.71.1,0,.17,0,.2-.03-.03.07-.03.17-.03.27v.17c0,.51.17.88.51,1.12l-.2.24s-.14.03-.27.03c-.24,0-.48-.24-.68-.75l-.07-.75-.1-.03-.07.07-.03.07.17,1.05v.17c.03.51-.2.71-.75.68h-.07c.14-.27.2-.51.2-.71l-.07-.72v-.07c-.03-.27,0-.51.03-.78.03-.2.1-.44.2-.68l.27-.37ZM20.71,3.44l-.03.2-.03.07-.37.27-.17.17v.07l-.03.78c0,.17-.17.41-.51.68-.03-.1-.03-.2-.03-.31l-.03-.2c0-.07.07-.24.17-.54l.17-.44c-.61-.1-.99-.31-1.16-.61h.24c.24-.03.44.03.65.17l.31.17.14-.1s.1-.07.2-.14c.07-.07.24-.14.51-.24M25.14,3.2c0,.31-.14.48-.41.51-.68.17-1.16.41-1.39.78-.24.34-.37.92-.34,1.7v1.26l-.14.2-.1.03-.03-1.43.03-.65c.03-.17.03-.38.1-.55,0-.17.07-.34.17-.51.1-.03.17-.17.27-.41l.41-.34c.54-.24.92-.37,1.16-.41.07-.03.17-.1.27-.2M1.5,3.2l.31.17.48.1c.44.07.68.2.68.37l-.31-.1-.17-.03c-.51-.1-.82-.27-.99-.51M7.65,4.32l.03-.27-.03-.24.1-.17.1-.2c.1-.27.27-.41.58-.41l.14.07c-.03.07-.03.2-.03.37,0,.14.07.27.2.44l.14.17c.31.17.51.31.54.44.1.24.17.34.2.34l.1-.07.07-.27.14-.07c.07.1.14.17.17.27l.27.58c.07.14.1.27.1.38,0,.24-.14.68-.37,1.39-.07.17-.1.31-.1.34v.14l.07.2.1.07.1-.14.03-.1.34-.95.31-.48.07.07.07.34.07.03s.1-.03.2-.1c.31-.1.48-.17.51-.17.14,0,.2.07.2.2,0,.03-.03.2-.1.58-.07.44-.24.71-.54.88-.1.03-.14.1-.17.17l.1.1.14.03c-.1.1-.14.2-.17.31-.78,1.46-2.18,2.35-4.15,2.65l-.61.07c-.37.07-.61.1-.71.1-.14,0-.2-.07-.2-.24v-.78l.03-.31-.03-.1.27-.27c.1-.07.17-.14.27-.24.17-.24.31-.51.41-.78l.07.07h.17l-.03-.31v-.55l.27-.44.07-.2h.07c.37.44.54.75.51.95v.17l.31-.07v.24c0,.24-.03.41-.14.54-.1.14-.14.2-.14.24v.14l.14.03s.14-.07.24-.17c.34-.31.51-.68.51-1.16,0-.2-.07-.41-.24-.65-.14-.37-.2-.58-.2-.65v-.17l.54-.03-.17-.14-.65-.51.51.2-.03-.2-.34-.31-.2-.1-.14.24c-.1-.14-.2-.27-.24-.41-.1-.17-.17-.31-.17-.41l.03-.07h.51l-.2-.41v-.27ZM24.35,2.99h.14l.48.03.03.1c0,.1-.2.17-.65.27-1.26.27-1.87,1.09-1.8,2.42v.75l.03.95v.34c.03.41-.58.61-1.9.65v-1.12l-.17-.1s-.2.27-.51.85l-1.19,2.31-.24.54-.75.1c-.1,0-.2,0-.24.03l-.34.1,3.74-7.62.1-.14c0-.1.07-.2.17-.37l.34-.07,2.38-.03h.37ZM7.28,3.37v-.03c0-.24.07-.34.17-.34.17,0,.27.07.27.17s-.14.17-.44.2M6.29,2.99c.17.03.27.14.27.24s-.03.17-.14.17c-.17,0-.24-.1-.24-.27,0-.1.03-.14.1-.14M5.2,2.93l.37.24,2.62,4.86-.2-.07-.27-.41-.07-.07-.37-.65-.34-.68-.34-.58-.07-.14-.03-.1-.24-.44-.07-.17-.03-.1-.1-.17-.41-.75v-.07l-.17-.27-.03-.1-.14-.14-.1-.2ZM3.4,3.84l-.54-.37-.24-.03-.27-.1-.61-.17c-.07,0-.1-.03-.1-.14s.07-.17.2-.17l.99.07,2.11-.03s.14.1.24.31c.27.48.51.88.68,1.26l.48.95.41.75c.1.24.24.44.37.68,0,.03-.03.14-.07.27l-.34.48-.17.71-.17.07-.17.75-.1-.03-.31-.65-.1-.17-.24-.44-.07-.1-.03-.03-.03-.03s-.1-.03-.2-.03l-.07.1.03,2.79v.31c0,.14,0,.24-.03.31v1.16c0,.17,0,.34.03.58l.03.24c0,.44-.14.71-.44.82l-.58.2.03-7.41v-1.63l-.17-.54-.2-.31c-.17-.2-.27-.34-.34-.37M11.63,3.4l.14-.2.24-.17c.31-.17.61-.27.92-.27.1,0,.24.03.34.1.14.07.2.1.24.1l.1-.03.37-.1.41.24.27.1v.1c0,.07-.1.1-.27.1l-.61.03.03.54-.2.31-.37-.78.1-.31c-.2-.14-.37-.2-.48-.2h-.03c-.58-.03-.95.27-1.09.95l-.1.03-.1-.07v-.17c-.03-.1,0-.2.1-.31M10.31,2.86l.14-.1c.14,0,.24.1.27.27l-.24.07.27.24.14.27.24.07-.1-.37c.14.2.2.34.2.44.03.2.17.41.37.61h.2c.27,0,.41-.14.41-.41v-.07l-.17-.2v-.03c0-.14.14-.24.37-.31l.17-.1c.24.31.34.61.34.92s-.14.54-.34.75c-.27.2-.54.31-.88.31-.24,0-.44-.07-.54-.17v-.03c-.03-.24-.17-.44-.34-.54l-.17-.1-.07-.1-.2-.17c-.2-.24-.41-.34-.61-.34-.14,0-.31.03-.51.1l-.14-.03s-.03-.1-.03-.2c0-.07.03-.17.1-.34.1-.14.17-.2.27-.17h.17l.17-.1s.07.03.24.07l.14.07.27.03-.14-.31ZM9.69,2.48l-.34-.03-.88-.1h-.14l-.07-.03c-.51-.03-.88.14-1.05.51-.1.24-.2.37-.27.37-.1,0-.14-.07-.14-.17,0-.24.14-.44.44-.65.31-.17.61-.27.99-.27s.85.14,1.46.37M19.59,2.58c0-.31.17-.54.54-.78.31-.17.65-.27.95-.27,1.4,0,2.35.41,2.92,1.26l-.2-.07c-.78-.65-1.53-.95-2.28-.95-.82,0-1.22.24-1.22.68,0,.27.1.41.31.41.14,0,.24-.03.34-.14l.75-.61.27-.03.14-.03c.1,0,.2.1.31.31-.17-.1-.31-.14-.48-.14l-.2.07-.85.75c-.14.14-.34.2-.58.2-.48,0-.71-.2-.71-.65M5.17,1.77c.44-.14.99-.2,1.7-.2h.27c.14.03.24.03.41.07-.17.1-.31.14-.44.14h-.03c-.07-.03-.27-.03-.58-.07h-.17c-.17-.03-.34,0-.58.1-.31.1-.44.2-.44.37,0,.07.03.14.14.2l.2.07c.07,0,.17-.03.31-.14.14-.07.27-.1.41-.1.17,0,.27,0,.31.03-.1,0-.27.07-.54.2-.31.14-.44.2-.48.2l-.58-.03c-.24,0-.34-.14-.34-.37,0-.17.14-.31.44-.48M18.13,1.56l.17-.1.1-.03c.1,0,.24.1.44.27.14.17.24.34.2.51l-.03.24-.2-.44v-.07l-.68-.37ZM14.76,2.69c-.17-.24-.24-.44-.24-.61,0-.51.2-.75.58-.75.31.03.58.14.75.31.17.17.31.2.34.14.07,0,.24-.07.54-.17-.24.37-.41.58-.51.58h-.37s-.17-.1-.41-.31c-.1-.07-.2-.1-.31-.1-.17,0-.27.1-.27.27,0,.44.31.68.88.68.27,0,.61-.14.99-.37.37-.37.75-.58,1.12-.58.58,0,.88.27.88.78,0,.27-.2.58-.61.95.03-.14.07-.24.17-.31l.14-.14s-.03-.07-.14-.07l-.1.07-.14.17c-.07.14-.1.24-.1.27l.1.1.1-.03-.03.24c0,.27.17.44.48.51-.03.24-.14.34-.31.34-.24,0-.34-.03-.37-.14-.1-.2-.14-.34-.14-.37l-.07-.03-.07.03-.07.27-.2-.07-.2-.2c-.14-.24-.2-.41-.2-.58,0-.31.2-.54.58-.71.14-.07.2-.14.2-.2l-.07-.07-.03-.07-.34.03-.61.75c-.17.17-.34.27-.51.24l-.51-.07.24-.27-.72-.14-.31-.2-.14-.17ZM25.14,2.86l-.14-.2-.51-.54v-.1s-.03-.1-.07-.24c-.07-.1-.1-.2-.1-.24,0-.31.2-.44.61-.44.03,0,.17.03.34.07.24.14.34.31.34.54l-.1.44.07.24-.17-.07-.1-.31.03-.17c.03-.24-.07-.34-.27-.34-.24,0-.34.07-.34.24l.07.17.31.54.03.41ZM19.01,1.6c.51-.37,1.22-.54,2.14-.54,1.19,0,2.07.27,2.65.82l.51.44.38.31.03.07.03.03v.07l-.48-.14-1.16-.85c-.44-.31-1.09-.48-1.87-.48-.65,0-1.36.14-2.07.44l-.17-.17ZM12.04,1.09l.07-.03.14-.03s.14.03.31.07c.2.1.34.2.41.31l.2.51c.1.17.24.27.41.27.14,0,.31-.07.48-.2v.27l-.1.07-.07.14-.17.07c-.44,0-.71-.24-.85-.71-.17-.17-.31-.24-.48-.24-.31,0-.48.14-.48.44l.07.17c0,.07.07.24.14.48l-.68.55c-.44-.2-.68-.44-.68-.68,0-.31.07-.48.17-.48.14,0,.27.03.44.14l.27.03-.1-.27v-.2c-.03-.31.14-.51.51-.65M2.45,1.87l.54-.14v.1l-.07.07-.1.07-.65.27c-.17.1-.34.14-.54.14h-.03c-.41.03-.61-.2-.61-.78,0-.37.2-.54.65-.54.14,0,.2,0,.24.03l.34.17.58.07-.27.2-.88-.2c-.17,0-.24.1-.24.27,0,.14,0,.24.03.27l.51.1.51-.1ZM4.42,1.43l.2-.07h.07c.68-.24,1.29-.34,1.84-.34.85,0,1.53.1,2.07.31l.48.17c.37.1.65.2.85.37l.38.27.2.14.03.03.03.1c0,.1-.07.14-.24.14-.1,0-.24-.07-.41-.2-1.12-.65-2.18-.95-3.09-.92h-1.09l-.37.03-.68.31-.68.27-.24.14-.48.31-.17.2-.51-.03c.37-.51.75-.82,1.19-.95l.34-.1.27-.17ZM10.54,1.97c-.37-.2-.55-.41-.55-.65,0-.2.14-.31.44-.31.1,0,.2.07.31.2l-.14-.03c-.14,0-.24.07-.34.2l-.03.03.03.1c.1.2.17.34.27.44M5.03,24.56c.14-.03.2.03.2.17,0,.1-.07.17-.17.17s-.17-.07-.17-.17.03-.17.14-.17M.82,26.39h25.54V.85H.82v25.54ZM.41.41h26.39v26.39H.41V.41ZM0,27.21h27.21V0H0v27.21Z" fill="#231f20"/>
    </g>
  </g>
</svg>