<?xml version="1.0" encoding="UTF-8"?>
<svg id="Layer_1" xmlns="http://www.w3.org/2000/svg" width="27.21" height="27.21" xmlns:xlink="http://www.w3.org/1999/xlink" viewBox="0 0 27.21 27.21">
  <defs>
    <clipPath id="clippath">
      <rect width="27.21" height="27.21" fill="none"/>
    </clipPath>
    <clipPath id="clippath-1">
      <rect y="0" width="27.21" height="27.21" fill="none"/>
    </clipPath>
  </defs>
  <g clip-path="url(#clippath)">
    <g clip-path="url(#clippath-1)">
      <path d="M16.46,12.07c.14-.03.24-.07.34-.1.34-.1.61-.24.82-.41.17-.17.34-.48.51-.88l.31-1.02c.03-.14.1-.2.24-.2.17,0,.27.31.27.95,0,.07-.03.2-.07.44l-.07.27-.03.61-.1.75.2,3.09s0,.1-.14.14l-.03.03c-.1,0-.14-.03-.17-.1l-.58-1.63c-.1-.31-.34-.54-.78-.75-.44-.2-.82-.31-1.19-.31h-4.15l.14-.17.1-.1c.17-.27.31-.44.37-.44.07-.07.24-.07.48-.07l3.54-.1ZM9.12,8.4v3.16c0,.44.44.65,1.29.65h.34l.75-.03-.14.14-.1.14-.17.31c-.07.1-.14.17-.17.27l-1.46-.03c-.24,0-.34.2-.34.61v.54c0,.07,0,.14.03.24l.03,3.81.07,3.03.1.41.07.34.07.17.1.2.2.34c.07.1.14.2.17.31l3.95.03h.48l.14.03h.03l.27-.03h.92c.24-.03.48-.03.68-.03h.51c.31,0,.48,0,.51-.03l1.09-.2h.27c.24-.03.51-.1.78-.27.65-.2,1.16-.48,1.53-.85.1-.1.17-.17.24-.27l.24-.24c.27-.27.44-.41.51-.41l.1.1c0,.07-.03.14-.1.24l-1.74,2.86-.31.24-15.71-.17-.03-.14c0-.1.07-.17.24-.2l1.16-.27c1.02-.24,1.53-.85,1.53-1.9v-12.18l.71-.31c.27-.1.54-.24.85-.41l.31-.17ZM19.83,2.48h.58c.03.17.07.31.1.37v.1c-.03.17,0,.34.07.51.1.44.2.82.24,1.09.03.34.07.58.1.75v.31c.03.27-.03.44-.27.48-.2-1.02-.44-1.67-.75-1.97-.34-.44-.95-.68-1.84-.72l-.17-.88h1.74l.2-.03ZM7.24,6.63c-.03-.1-.03-.17-.03-.24v-.51c0-.37,0-.58-.03-.61l-.1-.24-.1-.51c-.2-.85-1.05-1.4-2.52-1.6-.51-.07-.75-.17-.75-.31,0-.17.2-.27.61-.24l.99.03.51.03c.31.03.48.07.51.03h10.92l.17.82-7.69.03c-.44,0-.68.27-.68.85v.31c0,.1,0,.2.03.31v.37l-.03.92.03.2c.03.07.03.17.03.31,0,.24-.37.34-1.12.34-.48,0-.71-.1-.75-.31M22.38,20.95s.03.07.03.17c0,.03-.03.14-.1.31l-.2.48-.41.58-.58,1.12s-.07.1-.1.2c-.24.51-.51.78-.78.78-.1,0-.2,0-.24-.03l-15.17-.17-.41-.24h9.76l4.29.1,1.46.07h.03c.27,0,.48-.1.58-.31l1.84-3.06ZM10.27,22.82h-.07c-.1,0-.2-.1-.31-.31l-.34-.71s-.03-.14-.03-.37l-.14-1.43-.03-4.59.03-.78v-.51c0-.1,0-.24-.03-.34l-.03-.24c0-.14.03-.24.1-.27.07-.07.2-.1.41-.1l.51.03.31-.03h.03l.14.03c-.03.17-.07.24-.17.24h-.14c-.1-.03-.24-.03-.41-.03h-.03c-.31,0-.44.14-.44.44l.07,7.41.1.34.1.54.2.34c.07.1.14.24.17.34M11.63,13.37l.17-.24h2.38l1.67.03c.51,0,1.05.17,1.56.48l-1.09-.24-4.69-.03ZM19.05,9.66c.17.24.27.51.27.78,0,.17-.03.54-.1,1.12-.07.54-.1.85-.1.92l.07.88.03.99.03.34.03.54c0,.17,0,.27.03.31v.14c0,.27-.1.41-.34.37h-.2l-.03-.1c.24-.1.34-.24.31-.41l-.14-2.01v-.34l-.03-.44v-.31l.03-.44.14-1.02c.03-.07.03-.17.03-.31v-.61c0-.17,0-.31-.03-.41M9.56,12.01c-.17-.17-.27-.41-.27-.65l.07-1.19-.07-1.97.24-.24.1.78-.07.34v2.92ZM15.14,3.43h2.28v.34h-7.38c-.2,0-.34.07-.44.17-.07.14-.1.41-.07.82v1.02l.03.54-.24.24-.07-.54v-1.7c0-.27,0-.44.03-.48.07-.24.34-.37.82-.37l5.03-.03ZM3.54,2.75l1.33.48c.37.14.71.24,1.02.31.37.31.58.48.61.58-.44-.38-.95-.58-1.6-.68-.58-.1-.95-.2-1.09-.27-.14-.07-.24-.2-.27-.41M20.61,2.48c.14.1.2.24.24.44l.1.85.34,1.53s.03.14.03.27c0,.51-.14.75-.37.75.03,0-.07-.03-.24-.07.24-.17.37-.37.37-.61s-.07-.58-.14-1.02c-.14-.44-.24-1.16-.34-2.14" fill="#a91e22"/>
    </g>
  </g>
</svg>