<?xml version="1.0" encoding="UTF-8"?>
<svg id="Layer_1" xmlns="http://www.w3.org/2000/svg" width="27.21" height="27.21" xmlns:xlink="http://www.w3.org/1999/xlink" viewBox="0 0 27.21 27.21">
  <defs>
    <clipPath id="clippath">
      <rect width="27.21" height="27.21" fill="none"/>
    </clipPath>
    <clipPath id="clippath-1">
      <rect y="0" width="27.21" height="27.21" fill="none"/>
    </clipPath>
  </defs>
  <g clip-path="url(#clippath)">
    <g clip-path="url(#clippath-1)">
      <path d="M25.1,23.98c.1.03.17.1.17.17,0,.34-.37.48-1.09.44l-1.67-.17-2.55.07h-.03c-.71,0-1.12-.14-1.16-.38h.1c.34.1.61.14.82.14l1.67-.07,2.48.1.71-.03h.27l.07-.03.14-.1.07-.14ZM2.24,24.11c.34.1.58.14.68.14l2.28-.1,1.77.07.24-.17v-.03c.1,0,.14.07.14.17,0,.24-.24.34-.71.34-.17,0-.27,0-.31-.03l-.51-.07h-.24l-2.96.03c-.27,0-.41-.07-.41-.21l.03-.14ZM9.59,18.3c.03.07.03.17.03.27s-.1.27-.27.44c-.88.82-1.97,2.04-3.27,3.67v.37l-.1.03c-.03-.07-.03-.17-.03-.31,0-.1.07-.24.17-.41l1.02-1.19.41-.51,2.04-2.38ZM8.88,17.41l.31.24c.24.17.34.31.34.48l-.03.03-1.8,2.14-.14.17s-.1.14-.2.24l-.75.82-.17.24-.14.14c-.34.37-.51.65-.51.82v.14c.03.07.03.17.07.27l.07.14.2.1.55.24c.37.07.54.14.54.24,0,.17-.17.27-.54.27-.14,0-.38-.03-.68-.07-.34-.03-.61-.07-.78-.07l-2.31.14-.24-.03c-.27,0-.41-.07-.41-.17,0-.07.03-.1.14-.14l.37-.24.68-.14.27-.2c.44-.37.99-.95,1.63-1.73l3.54-4.05ZM11.36,16.26l.24-.24.82-.89c.1-.14.2-.27.31-.37l.27-.37c.03-.1.1-.14.2-.17l.14.1-.07.17-.07.14-2.62,2.99-.03-.24-.03-.14.1-.1.75-.88ZM15.44,13.71l7.18,8.6.27.37.1.1.14.17.17.1.27.24.31.17.34.07.37.07.27.1.07.03.1.2c0,.17-.41.24-1.26.24-.31,0-.58-.03-.82-.1l-.34-.07-2.89.07h-.17c-.1,0-.2,0-.27-.03l-.48-.07c.03-.2.31-.37.78-.51.51-.14.75-.34.75-.58,0-.1-.07-.27-.2-.44l-.51-.68-.99-1.16-.44-.51-.14-.17-1.26-1.57-1.33-1.6-.24-.27-.48-.54-.1-.1.78-2.14ZM15.58,13.23l3.64,4.39.34.37.1.14.07.1.2.27.1.1.17.17.27.41,1.9,2.24,1.26,1.46.2.24.14.07-.2.03c-.1,0-.2-.07-.34-.24l-.24-.17-.14-.14-.54-.71-.34-.44-.41-.48-.17-.17-.24-.31-.03-.03-.1-.07-.17-.24-.17-.2-.17-.2-.2-.24-.1-.1-.37-.48-.44-.55-.1-.14-.34-.34-1.09-1.36-.48-.58-.17-.17-.37-.44c-.1-.1-.2-.24-.31-.34l-.27-.34-.27-.34-.61-.78-.07-.1v-.03l.07-.27ZM18.09,8.4c.17.03.27.1.27.17,0,.03-.07.14-.17.24l-3.47,3.88-.14-.2,1.84-2.21.58-.61,1.09-1.26ZM18.74,3.2l.2.03.34.17.17.07.31.2c.17.14.24.27.24.41l-.03.24-.1-.17-.07-.1c-.1-.03-.17-.1-.24-.14l-.2-.14c-.27-.14-.48-.34-.61-.58M3.16,3.2l.37.14.24.07.2.07c.37.07.54.17.54.31v.1l-.85-.2c-.24-.07-.41-.24-.51-.48M23.26,2.86c.17.07.27.14.27.24,0,.2-.14.37-.41.51l-.54.27-.48.44-2.82,3.33c-.1.14-.24.2-.37.2-.1,0-.14-.03-.17-.1l.1-.1c.07-.07.17-.17.27-.34l.92-1.02.2-.27,1.63-1.8.14-.17.58-.51v-.03l.44-.2c.17-.07.27-.17.24-.34v-.1ZM4.63,3.67l-.37-.24-.78-.24c-.17-.03-.27-.14-.27-.24.03-.1.24-.17.58-.17h.1c.1.03.17.03.24.03h.65l.88.03,2.38-.07c.1-.03.2-.03.31-.03h.17c.2,0,.31.07.31.2l-.07.1-.61.31c-.24.1-.34.34-.34.78,0,.14.14.41.41.82l5.58,6.67.07-.07.1-.07c.07-.03.41-.41.99-1.12l.44-.44,1.39-1.67.48-.51.44.37.17.1.1.14s-.07.14-.2.31l-2.11,2.38-1.19,1.5.17.2c.1.1.17.17.2.27v.1l-.17.34-.48,1.29-.1.31-.1-.07-.1-.1-.17-.2-.27-.41-.1-.14.07.1-.17-.2c-.24.17-.44.37-.58.58l-.27.37-1.97,2.14c0-.48-.1-.82-.31-1.02l.03-.14.07-.14.07-.03,1.97-2.28.14-.14.1-.1v-.07c-.1-.24-.27-.44-.51-.68l-.44-.54-.68-.85-.65-.85-.31-.31-.51-.58-.58-.71-.07-.1-.44-.54-.17-.24-1.33-1.57-.82-.99-.17-.24-.17-.17-.31-.37-.71-.82ZM22.21,2.76c.1-.03.24-.03.34-.03h.2c.24,0,.37.07.37.24s-.2.34-.61.51c-.14.03-.34.2-.58.48l-.48.48-2.89,3.33-.82-.48.48-.61.88-.92.71-.95c.24-.31.34-.54.34-.72,0-.14-.07-.27-.2-.41l-.41-.27-.68-.27-.1-.1v-.03l-.03-.03c0-.1.1-.17.34-.17l.17.03h.71l2.24-.03h-.17l.17-.03Z" fill="#a91e22"/>
    </g>
  </g>
</svg>