<?xml version="1.0" encoding="UTF-8"?>
<svg id="Layer_1" xmlns="http://www.w3.org/2000/svg" width="27.21" height="27.21" xmlns:xlink="http://www.w3.org/1999/xlink" viewBox="0 0 27.21 27.21">
  <defs>
    <clipPath id="clippath">
      <rect width="27.21" height="27.21" fill="none"/>
    </clipPath>
    <clipPath id="clippath-1">
      <rect y="0" width="27.21" height="27.21" fill="none"/>
    </clipPath>
  </defs>
  <g clip-path="url(#clippath)">
    <g clip-path="url(#clippath-1)">
      <path d="M6.6,24.86l.14.03c.07,0,.17-.03.31-.07.14-.07.24-.1.34-.1l.07.03c.07.03.17.03.31.03l.1-.1c0-.07-.03-.1-.14-.1l-.2.03-.55.03c-.24,0-.37.07-.37.2M20.31,24.76h.17l-.2-.24.03.24ZM3.91,24.52l-.1.03.07.27.2.03-.17-.34ZM19.97,24.79l.17-.17-.14-.2v.17l-.03.2ZM7.04,24.56l.24-.03h.07c.1,0,.14-.03.14-.1l-.1-.07-.44.07c-.31.03-.48.14-.51.24.17-.03.37-.07.61-.1M4.32,24.93l.1-.1-.14-.17.03-.24v-.03l-.07-.07c-.1,0-.17.07-.17.17s.07.27.17.44h.07ZM4.69,24.73v-.58c-.14,0-.2.1-.2.34,0,.1.07.2.2.37l.07.03.07.07h-.03l-.1-.24ZM17.01,22.24h-.03l-.03.2.1.2.14.31.48.1-.65-.82ZM19.86,21.6l.03.14c.1.17.24.37.37.54s.31.31.48.34l-.68-.95-.2-.07ZM20.34,19.49l-.03.24h.14l.07-.17-.17-.07ZM20.61,19.32l-.14-.03-.03.07s.07.03.31.03c.1,0,.03-.03-.14-.07M20.37,18.33l-.2.48-.44.48.31-.58.34-.37ZM20.92,18.4l-.31-.07v.17c.1.03.17.07.24.1h.14v-.1l-.07-.1ZM19.73,18.64l.48-.65-.61.58-.2.51-.07.31c-.03.07-.03.17-.03.34,0,.03.07.1.17.14v-.31l.27-.92ZM21.29,18.23c-.1-.2-.27-.31-.48-.31-.1,0-.17,0-.2.03l.03.1.31.07c.1.03.17.1.2.17.03.14.07.2.14.2.03,0,.03-.1,0-.27M2.35,17.89l-.1-.1h-.1l-.17.17-.07.2h.1c.1-.03.17-.1.2-.14l.14-.14ZM2.52,17.58l-.54-.03c-.1,0-.17.1-.2.31l.07.03.2-.2.48-.1ZM25.24,16.94l-.31.55.14.03h-.07c.1-.1.17-.2.24-.31.03-.1.07-.17.1-.24l-.1-.03ZM23.03,17.07c.1-.1.14-.2.14-.24,0,.03.03-.03.07-.17v-.1l-.24.31c-.17.2-.27.34-.37.37l.1.14.24-.14.07-.17ZM22.82,15.68l.31-.2-.51.1c-.07.03-.1.03-.1-.07l-.44.03c0,.1.07.17.2.17l.14.03c.24-.07.37-.1.41-.07M23.16,14.86l-.37.1s-.14,0-.31.1c-.03.03-.07.03-.17.03s-.17,0-.24.03c-.1.03-.17.1-.2.2l.24-.03.07-.07.44-.03.54-.34ZM25.37,14.32l.03-.1-.03-.2-.2.2.2.1ZM25.34,13.71l-.2.1-.03.1h.31l-.07-.2ZM25.31,13.5l-.17-.14c-.1,0-.14.03-.14.14l.1.07c.14,0,.2-.03.2-.07M10.58,12.92l.2.07c-.1,0-.1-.14,0-.44l-.17.17-.17.14s.03.07.14.07M15.95,12.45c.03.24.17.37.37.41l.27.1-.2-.2c-.17-.17-.27-.27-.27-.31h-.17ZM10.2,12.62c.1.07.14.1.17.1.14,0,.24-.14.27-.37l-.44.27ZM10.41,12.21l-.38.17.1.07h.03c.14,0,.2-.03.2-.1l.03-.14ZM10.1,12.07l-.38.17s.07.03.17.03c.03,0,.1-.07.2-.2M9.8,11.63c-.03.2-.17.34-.34.44l.1.03.03.03s.1-.03.2-.1l.03-.03-.03-.37ZM7.59,11.56l-.99-.14s-.07.03-.07.14h.31l.38.07h.37l.78-.14-.78.07ZM18.13,11.94c-.1-.1-.1-.14,0-.14h.1l.34-.14.17.14-.61.14ZM9.62,11.29c-.03.31-.17.51-.48.65l.17.03-.03-.03c.31-.1.48-.31.48-.61h-.03l-.1-.03ZM6.8,11.16l-.07.1.75.03.75-.17-1.43.03ZM18.77,11.19l.27-.17c-.31-.03-.51,0-.58.07-.07.1-.17.17-.34.2-.24.07-.34.17-.34.31l.07.03s.14-.07.27-.2l.65-.24ZM17.24,10.92l-.31.58-.2.1.03.1c.07-.03.17-.1.27-.2.1-.1.2-.2.24-.31l-.07.07c.34-.44.48-.65.44-.65-.2.31-.34.41-.41.31M6.53,9.9l-.03.07.07.03c.31.14.51.2.61.2l.07-.07c0-.1-.1-.14-.34-.14-.1,0-.2-.03-.37-.1M10,8.4l.24-.14.07-.1c.07-.1.14-.17.24-.2l-.2.07c-.14.07-.24.1-.34.14l-.07.17-.2.07v.03l-.03.03.1.1.1-.03.1-.14ZM2.62,6.56c-.03.17-.07.27-.07.24,0,.07.03.1.14.1l.1-.07s-.03-.07-.07-.24l-.1-.03ZM16.36,5.65v-.14l-.24.03.24.1ZM21.73,5.27v.1c.17,0,.27,0,.27.03l-.2-.1-.1-.1.03.07ZM16.39,5.31l-.17-.1-.1.1h.27ZM21.33,5.41l.03-.24s.03.07.14.2c.14.17.2.24.2.27l-.14-.03c-.14-.03-.2-.07-.24-.1v-.1ZM25.03,4.93l.1.07.1-.03-.2-.03ZM16.43,4.69l-.1-.14.07.54.17.31c.07.1.1.17.1.2l.17.03-.2-.37-.2-.58ZM25.2,4.69v-.24l-.14.1-.14.03.07.1.03.03h.1l.07-.03ZM16.8,4.35h-.14l-.1.1.07.07c.07.03.17.03.31.03l-.14-.2ZM21.67,4.46l-.14-.1c-.14,0-.2.03-.2.14,0,.03.03.07.14.07h.17l.03-.1ZM20.71,4.29l-.37.24-.03-.1.27-.2.07-.03.07-.03v.14ZM25.17,4.22l-.34.03c.1.1.17.14.24.14.03,0,.07-.07.1-.17M16.87,4.22l-.1-.14-.07-.03c-.07,0-.1.03-.1.14l.27.03ZM6.7,4.12v-.17l-.14.17-.17.24v.03l.1.07s.1-.07.14-.17l.07-.17ZM19.25,3.81h-.31l.2.2.07-.03.03-.1v-.07ZM19.28,3.4l-.24.1c.07.1.14.14.2.14l.03-.14v.07-.17ZM7.14,3.23l-.27.17.1.03.27-.07.03-.1-.14-.03ZM5.61,2.99l-.31.34.07.17.27-.31.07-.1-.1-.1ZM21.19,2.93l-.1.27.31-.03-.2-.24ZM20.68,2.82v.31h.14l.07-.07v-.03c0-.14-.03-.2-.14-.24l-.07.03ZM6.12,2.55l-.1.1.27.24-.17-.34ZM24.86,2.45v.14l.37.24-.37-.37ZM24.9,2.93l-.44-.58-.07-.03-.03-.03v-.1l.14.1c.07.07.14.14.2.24.1.1.17.17.2.27.07.1.1.14.1.17l-.03.03-.07-.07c-.07-.07-.14-.2-.24-.44h-.07l-.07-.03c.03.1.1.17.17.24.07.07.14.14.2.24M20.14,26.22c-.31,0-.48-.14-.48-.44,0-.37.2-.54.61-.54l1.16.1c.1.03.2.03.31.03h.2l.2-.03.34-.07h.34c-.44.1-.71.17-.75.17l-.68.03-1.09.03c-.17,0-.24.1-.24.31,0,.14.1.24.34.34l-.27.07ZM11.19,25.51c.2.2.37.31.51.31.34,0,.51-.14.51-.44v-.41l.1-.17.03-.03.03.07.1.07c.03.07.03.2.03.37,0,.54-.24.82-.71.82-.44,0-.65-.17-.61-.48v-.1ZM13.98,25.1c.1-.24.24-.34.44-.34.58,0,.85.17.85.54,0,.1-.1.27-.34.51v.2c-.1.03-.2.03-.27.03l-.14.03c-1.09,0-1.73-.41-1.94-1.19.03-.1.07-.14.14-.14l.03.03.1.1.14.2c.24.34.61.51,1.16.51.37,0,.58-.1.58-.34,0,.03-.03-.03-.07-.17-.17-.1-.27-.14-.34-.14-.14,0-.24.03-.34.14M1.33,24.56l.17.07.2.07c.37.1.58.17.61.17l.37.1c.51.1.75.31.75.65s-.17.51-.48.51c-.1,0-.2-.07-.31-.24.24-.03.37-.14.37-.24,0,.03-.03-.07-.07-.31-.17-.1-.41-.2-.78-.31-.37-.14-.65-.31-.85-.48M23.71,25.13c.17-.03.31-.1.44-.14l.2-.1h.17l.1-.07.34-.17.2-.14-.03.14c-.31.2-.54.34-.71.37v.07l-.03.03c-.48.14-.71.34-.71.65,0,.07.03.14.1.24l-.27.07c-.17,0-.27-.14-.27-.41,0-.17.17-.37.48-.54M17.35,24.15c.14.1.2.2.2.24,0,.24-.34.34-.99.31l-1.7-.14-4.45.03c-.48,0-.78-.03-.92-.1l-.1-.1-.14-.17c.37.1.65.17.82.17s.34,0,.58-.03c.24,0,.48,0,.78-.03.1-.03.24-.03.41-.03h1.09c.1-.03.24-.03.38-.03h.61c.51.03.99.07,1.36.1.37.03.72.03.95.07h.27c.17.03.44-.03.82-.17l.03-.1ZM22.45,23.4l.03-.03.27.03-.1.24.03.24c.17.14.37.2.61.2.37,0,.68-.03.99-.14-.24.27-.71.41-1.36.41-.48,0-.71-.17-.71-.54,0-.17.07-.31.24-.41M24.76,23.06c-.07.24-.17.37-.27.37s-.17-.07-.17-.2c0-.17.07-.27.24-.27.03,0,.1.03.2.1M2.96,23.47c-.1-.14-.24-.2-.34-.2h-.07l-.41.24.07-.31c.03-.17.17-.24.41-.24.44,0,.65.2.65.61s-.31.61-.88.61c-.24,0-.41-.03-.58-.1l-.41-.17.1-.03c.31.07.58.1.85.1.24,0,.44-.1.58-.27l.03-.24ZM25.17,22.89c.17,0,.24.07.24.21,0,.17-.07.24-.24.24-.14,0-.2-.07-.2-.2v-.07c.03-.1.1-.17.2-.17M6.6,23.26l.37-.41.17.17-.07.17c0,.07-.07.24-.1.44l.24.03v.07c-.31.31-.51.48-.61.51-.1.03-.68.07-1.67.1-.1,0-.14.03-.14.14,0-.03.03.03.07.17l.2.03h.17c.24,0,.37,0,.41-.03l.27-.1.34-.07.34-.1.31-.14.55-.1.88.03c.2,0,.31.03.31.1v.07l-.2.2-.03.14.34-.03c.31,0,.58.1.82.31.24.17.34.41.34.68,0,.34-.24.51-.71.51-.07,0-.2-.03-.37-.07l-.75-.31h-.07c-.1,0-.27.07-.51.21.03-.27.2-.41.54-.41.17,0,.34.03.51.1l.61.21.2.07.03-.03.07-.14c0-.1,0-.14-.03-.17l-.1-.1c-.37-.17-.82-.24-1.26-.2l-1.87.31c-.1.03-.24.03-.37.03-.14.03-.27.03-.44.03-.92,0-1.46-.24-1.7-.71l-.07-.1c-.07-.03-.17-.03-.34-.03-1.16-.17-1.87-.41-2.11-.78l.31.03.38.17.68.17c.1.03.17.03.24.03h.2c.14,0,.2,0,.24.03h.37l.1-.37.34-.37c.24-.14.41-.2.55-.2h.85c.37,0,.75-.1,1.19-.27M22.04,22.99c.82.03,1.36,0,1.63-.14.17-.07.27-.1.37-.1s.14,0,.17.03c0,.17-.03.24-.14.27l-.24.03-.44.14h-.41c-.17-.03-.31-.07-.48-.1-.14-.03-.31-.1-.48-.14M3.37,22.58h.2c-.03.1-.1.17-.17.17-.1,0-.14,0-.17-.03l.14-.14ZM19.35,23.26c-.14-.17-.2-.31-.2-.44,0-.24.14-.37.41-.37.17,0,.31.1.37.34-.03-.03-.14-.03-.24-.03-.14,0-.2.07-.2.2,0,.1.03.2.14.31l1.05.75c-.41-.1-.61-.17-.65-.2l-.07-.14-.14.03-.24-.17-.24-.27ZM25.03,22.69l-.14.14-.07.03c-.17,0-.27-.07-.27-.2,0-.2.07-.31.2-.31.24,0,.34.07.34.24l-.03.07-.03.03ZM25.37,22.31h.07c.1,0,.17.07.17.24s-.07.24-.2.24-.2-.07-.2-.17c0-.14.07-.24.17-.31M2.52,22.65c-.17-.03-.24-.14-.27-.24h-.03l.07-.1c.1,0,.17.1.24.34M3.1,22.31c-.07.2-.14.31-.17.31-.17,0-.27-.07-.27-.24,0-.1.07-.14.17-.14h.1s.07.03.17.07M23.94,22.41c0-.17.14-.24.37-.24.1,0,.14.03.14.1,0,.24-.1.34-.31.34-.14,0-.2-.07-.2-.2M14.86,22.14h.14c.07-.03.2,0,.37.07l.41.17c.51.17.99.54,1.36,1.09l.27.17.41.24.31.17.2.1-.03.07c-.48-.07-.92-.34-1.36-.82l-.24-.17-.14-.17c-.37-.38-.95-.65-1.7-.75v-.17ZM7.52,23.23l-.1-.07.24-.14.34-.31.07-.17-.03-.14-.17-.2.1-.1.1-.03c.2,0,.31.1.31.34,0,.17-.17.37-.54.61l-.31.2ZM25.24,21.87c.14,0,.2.03.2.1,0,.17-.07.24-.24.24-.1,0-.14-.03-.14-.14v-.07c.03-.1.07-.14.17-.14M24.69,21.87l.14.14.03.07c0,.1-.07.14-.2.14-.1,0-.17-.07-.17-.17,0-.07.07-.14.2-.17M10.24,22.28l.34-.27.17-.14c.1-.1.27-.17.44-.17.44,0,.65.17.65.54s-.17.58-.48.58c-.03,0-.14-.07-.24-.17.24-.07.34-.17.34-.34v-.07c-.17-.1-.31-.17-.37-.17-.03,0-.17.03-.34.07l-.78.61-.51.41-.27.27c-.41.27-.68.44-.85.51l.03-.1.03-.07.82-.58.27-.17.14-.14c.07-.07.17-.17.31-.34.17-.17.27-.24.31-.27M2.48,21.87l.07.1.03.03c0,.1-.07.17-.17.17-.17,0-.24-.1-.24-.31v-.07c.03-.1.07-.14.17-.14l.1.03.03.17ZM3.67,21.63l.07-.03c.17,0,.24.07.24.2,0,.17-.07.24-.24.24s-.24-.07-.24-.2c0-.1.07-.17.17-.2M3.4,22.21c.17.03.34.03.54.03.14.03.31.03.41.03.58,0,.99-.1,1.29-.34l.68-.48v.14l-.07.14c-.17.1-.31.17-.41.24-.1.1-.24.17-.34.24l-.54.14c-.31.07-.51.1-.61.1l-.65-.03c-.17,0-.27-.07-.31-.2M2.89,21.43h.07c.24,0,.34.1.34.31,0,.24-.1.37-.27.37-.24,0-.37-.14-.37-.37,0-.17.07-.27.24-.31M2.45,21.26l.03-.03.14.1c0,.07-.03.1-.14.14h-.03l-.14-.07c0-.1.03-.14.14-.14M14.86,21.6c.03-.31.14-.44.37-.44.31,0,.54.14.71.37l.37.54.14.17s.03.07.03.17l-.03.03-.07-.03-.88-.88-.17-.07c-.17,0-.31.03-.48.14M3.47,21.12l.2.1v.03c0,.14-.07.2-.2.2-.1,0-.14-.07-.14-.17,0-.03.03-.1.14-.17M3.13,21.09c-.03.1-.1.17-.17.17-.1,0-.17-.03-.17-.1s.07-.1.17-.1l.17.03ZM17.62,20.95c.2-.24.41-.34.61-.34.58,0,.85.27.85.82,0,.31-.1.48-.34.48-.1,0-.14,0-.17-.03l.03-.07c.24-.1.34-.2.34-.37s-.1-.24-.27-.24c-.31,0-.48.2-.48.61,0,.31.24.75.68,1.33l.2.24.1.14c.1.1.27.2.54.31l.82.41.34.07.1.07c.17.03.31.03.37.07.14.03.24.03.34.07.14.03.31.03.48.07h.78l.34-.03.41-.1c.34-.1.54-.14.58-.14.1-.03.24-.1.41-.2.2-.14.37-.2.48-.2.17,0,.24.07.24.17-.03.14-.1.27-.27.44-.17.03-.27.07-.34.1l-.68.24c-.17.07-.27.1-.31.14-.51.17-1.09.24-1.7.2l-2.55-.2c-.07-.03-.17-.03-.34-.03h-.2c-1.06,0-1.6.24-1.6.71,0,.1.1.21.31.31h.24c-.1.17-.24.24-.48.24-.44,0-.65-.2-.65-.58,0-.1.07-.24.17-.41l-.34-.17.41-.17.34-.14.27-.1.37-.14h.27l.44-.03.58.1.1.03.1.07.2-.07-.03-.14c-.24-.1-.44-.2-.61-.24-.17-.07-.27-.1-.37-.14-.58-.17-1.05-.41-1.46-.75l-.2-.27-.24-.31-.03-.27c-.07-.17-.1-.27-.1-.37,0-.14.03-.2.14-.2.14,0,.34.1.58.27l.14-.03-.07-.07c-.07-.2-.1-.37-.1-.48,0-.17.03-.37.14-.65h.1ZM8.98,21.77l-.07-.03-.1-.31-.37-.54s-.03-.14-.03-.31c0-.51.24-.78.68-.78.27,0,.51.1.71.27.17.17.27.38.27.61,0,.44-.2.92-.65,1.43-.44.51-.92.89-1.46,1.12,1.19-.78,1.77-1.53,1.77-2.28v-.14c-.03-.07-.03-.17-.07-.27l-.1-.14c-.17-.17-.31-.24-.41-.24-.27,0-.41.14-.41.37,0-.03.03.03.07.17l.27.61-.1.44ZM3.43,19.86l.03-.1.2.07.65.31c.1.07.14.2.14.44,0,.14-.03.2-.1.2l-.2.07.1-.31c-.17-.1-.31-.24-.41-.41-.1-.17-.24-.27-.41-.27M21.5,19.49l.17.17.14.31.24.24v.03l-.07.1-.17.03-.07.1c-.1.31-.2.48-.31.48l-.1-.03c-.17-.1-.27-.27-.27-.44,0-.31.14-.61.44-.99M16.46,20.92c-.1-.2-.14-.41-.14-.58,0-.65.31-.95.88-.95.17,0,.34.07.54.24.14.17.24.34.24.51,0,.34-.17.51-.48.51-.1,0-.17-.03-.27-.1.31-.07.48-.2.48-.41,0-.31-.17-.48-.54-.48-.44,0-.65.24-.65.72,0,.37.07.65.2.85l.14.2.2.31h-.17l-.44-.82ZM24.35,19.45l.14-.2.1.03-.41.51-.07.24-.07.24-.03.14c0,.31.17.54.48.71.1.07.2.1.34.1.1,0,.24-.07.37-.2.14-.1.2-.24.17-.34v-.27c.17.1.24.24.24.41,0,.31-.17.58-.54.82-.24.03-.34.07-.31.07-.65,0-.95-.37-.95-1.12,0-.37.17-.75.54-1.12M3.43,19.18l.65.24c.34.17.78.24,1.33.24h.61c.17-.03.34-.03.44-.07l.44-.14.38-.03c-.07.17-.14.27-.17.31s-.17.07-.37.1l-.68.14c-.1.03-.2.03-.31.03-.1.03-.17.03-.2.03-.44,0-.88-.07-1.33-.2l-.37-.14c-.31-.1-.44-.2-.44-.34l.03-.17ZM5.31,18.43h.27c.24.03.37.2.37.44,0,.37-.2.58-.61.58-.65,0-1.12-.14-1.5-.44.58.17,1.02.27,1.26.27.37,0,.54-.1.54-.34,0-.1-.14-.17-.44-.17-.17,0-.24.03-.24.14v.07l-.1-.17c0-.17.14-.27.44-.37M24.22,19.15l-.03-.48.14-.14.1-.1.1-.07s.07.07.1.24c0,.2-.14.37-.41.54M18.23,18.84c-.1-.03-.14-.07-.14-.14,0-.31.14-.48.41-.48l.07.03.07.2.34-.03-.27.41.07.1.17-.14.03-.14.07.1-.14.31.03.34c0,.1-.2.24-.58.37l-.03-.14-.07-.1-.07-.34c0-.17,0-.31.03-.37M16.33,19.08c-.37-.1-.55-.27-.55-.54,0-.41.24-.61.68-.61.48,0,.92.37,1.29,1.12-.1-.03-.17-.1-.2-.14l-.14-.14c-.37-.34-.65-.51-.82-.51-.31,0-.44.14-.44.37,0,.1.07.27.17.44M22.69,17.92l.44.24.1-.1c.1,0,.31.2.54.58.1.17.17.34.17.51s-.1.24-.31.24c.03.1.03.2.03.27l.03.14s-.03.07-.03.2c-.07.07-.1.24-.14.48l-.41-.17-.71-.17c-.2-.03-.34-.17-.44-.38-.1-.1-.17-.24-.17-.41l.14.1h.2l-.03-.1c-.24-.1-.37-.24-.37-.34,0,.03.03-.07.07-.31l.14.1.24.07-.07-.17c-.24-.1-.34-.27-.34-.51.24.1.44.2.61.37.1.1.17.24.27.34l.2.37h.14v.03l.03-.14c0-.1-.1-.27-.27-.44l-.07-.14-.31-.24-.1-.1-.07-.1-.17-.1.24-.03.31.07v-.1l.1-.07ZM9.15,18.64c.2-.31.37-.54.58-.61.14-.14.34-.17.55-.17.51,0,.75.2.71.65v.1s-.03.14-.03.24l-.17.2-.07.14c-.03.1-.1.17-.17.17l-.14-.03-.27-.03c-.07,0-.1-.03-.14-.14l-.03-.1.31.07c.1,0,.14,0,.17-.03.17-.07.27-.17.27-.31,0,.03-.03-.03-.07-.17l-.14-.14c-.2-.14-.34-.2-.44-.2l-.78.34-.14.03ZM24.28,18.2c-.1.14-.2.2-.27.2-.24,0-.34-.1-.34-.34v-.07l.07-.2h.1c.03.27.17.41.44.41M19.76,17.99c.31-.24.48-.34.51-.34h.07l.54.07h.14l.1.14.17.07c.2.03.31.27.31.71,0,.07-.03.17-.07.31l-.58.99c-.14,0-.17.2-.14.58.03.07.03.17.03.27v.14c0,.31.03.48.1.54l.17.14.24.31c.17.2.41.31.78.31.24,0,.44-.07.68-.24l.07-.07c.17-.17.24-.31.24-.44v-.34c-.14-.17-.31-.27-.54-.31.17-.14.31-.2.41-.2.17,0,.34.1.54.34.1.17.14.37.14.58,0,.17-.17.41-.48.68l.37.1c-.31.31-.71.48-1.16.48s-.82-.14-1.19-.41l-.17-.17c-.17-.1-.27-.24-.37-.41l-.17-.17c-.2-.41-.31-.75-.31-1.02,0-.24.03-.44.14-.65l-.14-.03s-.1.14-.14.38v.31c-.03.31.1.71.41,1.22l.2.27.61.51.2.14.07.1c.31.31.44.48.44.58l-.03.07-.17.14-.07.27-.2.31-.2-.48-.1-.2-.17-.27-.41-.38-.2-.2-.17-.14-.41-.58-.07-.14c-.14-.14-.24-.31-.31-.51l-.07-.14-.24-.82c-.03-.17-.03-.34-.07-.51v-.34c0-.14,0-.2.03-.24l.1-.37.07-.27.14-.24.07-.1.24-.31ZM24.11,17.41h.03c.14-.03.2.03.2.14s-.07.14-.17.14-.17-.07-.17-.17l.1-.1ZM17.86,18.91c-.48-.61-.71-1.05-.75-1.36v-.27h.2l.03.03s.07.14.07.24c.07.1.1.27.2.44.17.44.27.61.27.58,0,.17,0,.27-.03.34M12.24,17.24l.34.03.31.03h1.26v4.63c0,.58.27,1.02.85,1.33l.17.07.24.14,1.5.37.27.07s.03.07.03.17c0,.14-.24.2-.68.2h-.51l-1.26-.14c-.17-.03-.31-.03-.48-.07-.14,0-.31,0-.48.03l-3.37.14h-.07c-.78.03-1.19-.07-1.19-.31l.1-.17,1.02-.17h.03l.75-.14c.78-.37,1.16-.85,1.16-1.46v-4.76ZM14.45,17.24c.1.03.14.1.14.2v4.83l.17.58c-.31-.37-.44-.85-.44-1.5v-4.08l.14-.03ZM1.63,17.41c.27-.2.51-.31.68-.31l.14.03.24.14.17.1.24.31.03.07.2.1.17.1.37.1c-.03.17-.17.31-.37.37.1.1.14.2.14.31l-.07.1c-.17.03-.31.07-.34.07h-.03l-.27-.2-.2-.1-.1-.2-.07-.2-.17-.1c-.17,0-.27.07-.27.2s.1.24.34.34l.48.31.1.07c.17.27.24.58.2.88v.27c-.03.1-.07.14-.1.14l-.1-.03-.2-.07h-.07c-.1.1-.14.2-.17.37-.1.44-.34.65-.75.65-.1,0-.24-.03-.41-.1v-.14l-.07-.07.27-.44c.1-.1.14-.17.14-.27,0,.03-.03-.07-.07-.24h-.17c-.17-.03-.27.1-.27.44-.17-.07-.27-.14-.27-.24,0-.14,0-.24.03-.27.14-.24.27-.34.41-.34.03,0,.14.03.38.07l.14.14.07.51-.2.44c0,.07.03.1.14.1l.14-.03h-.03l.07-.03.14-.07.03-.07.07-.2c.07-.1.1-.17.1-.24,0-.03-.03-.14-.07-.31l-.1-.2-.07-.2-.14-.17-.2-.27-.1-.14-.1-.14-.24-.48c-.03-.1-.03-.2-.07-.27v-.14c0-.17.1-.31.27-.44M15.17,19.42l-.1-.2c-.1-.24-.17-.51-.17-.82-.07-.31-.07-.65-.1-1.02v-.03c0-.17.07-.27.24-.27s.24.2.2.61v.2c0,.2.03.44.14.75l.1.61c.03.24.2.65.51,1.22.44.85.65,1.22.65,1.19,0,.07-.07.1-.24.14l-.51-.85-.17-.27-.27-.51-.2-.51-.07-.24ZM11.39,17.04l.2.07.34.07.07.34v.03c.03.17.07.27.07.31,0,.51-.24,1.29-.75,2.28-.17.34-.34.65-.51.95-.17.31-.37.58-.54.82-.92,1.26-1.84,1.91-2.82,2.01l.27-.24.51-.31c.65-.44,1.16-.89,1.5-1.36l.41-.51.75-1.6.1-.27.14-.31c.03-.1.07-.27.1-.54l.1-1.22v-.48l.07-.03ZM23.81,16.84l.1.17.03.07c0,.14-.07.2-.17.2s-.14-.07-.14-.2c0-.1.07-.17.17-.24M3.71,16.84c.1.1.17.2.17.27,0,.03-.03.14-.07.38-.1-.17-.14-.27-.14-.38l.03-.27ZM1.67,16.63l.24-.1c.14,0,.2.07.2.2v.07l-.03.07-.37.2-.38.41-.24-.17c.03-.17.07-.27.14-.34.1-.07.17-.14.24-.17l.21-.17ZM5.85,16.43l.34.17c1.02.54,1.53,1.33,1.53,2.35,0,.65-.14,1.09-.41,1.4-.17.17-.24.31-.24.44l.03.07.31.1.03.1-.38,1.09.03.44c-.44-.1-.61-.31-.58-.65v-.2l.27-.48v-.03c0-.17-.07-.24-.24-.24-.03,0-.14.1-.31.27s-.34.27-.54.27c-.31,0-.58-.17-.75-.48h.1c.17,0,.27-.03.31-.03.07-.07.27-.2.58-.48.17-.14.31-.2.41-.2.07,0,.2.03.37.1.03.14.07.2.17.2l.07-.03.03-.1.41-.61c.1-.17.17-.44.17-.78,0-.75-.24-1.33-.72-1.7l-.27-.24-.14-.1c-.07,0-.14-.07-.24-.1-.34-.14-.51-.24-.51-.31s.03-.14.14-.24M8.13,16.67c.24-.17.41-.27.48-.27.31,0,.48.2.48.61,0,.51-.17.89-.54,1.16l-.58.44.58-.61c.17-.24.27-.44.27-.61,0-.24,0-.38-.03-.44-.1-.1-.2-.14-.31-.14-.2,0-.34.2-.37.58l-.07-.27c0-.1,0-.14.03-.17v-.07l.03-.07.03-.14ZM24.11,16.39s.07.03.1.14l.03.07c0,.1-.03.14-.14.14s-.17-.07-.17-.17.07-.17.17-.17M3.94,16.8c-.1-.1-.14-.17-.14-.27,0-.17.03-.24.1-.24.1,0,.14.07.14.2,0,.07-.03.17-.1.31M25.1,16.05c-.07.78-.34,1.16-.85,1.16l-.14-.07c0-.1.03-.14.14-.17l.41-.17.27-.37.17-.37ZM4.15,16.43c-.07-.17-.1-.27-.1-.34,0-.1.03-.14.07-.14.07,0,.1.07.1.2l-.07.27ZM18.3,15.65l1.16.31c.24.17.37.37.41.68l-.37-.1.03.1c.27.1.44.34.48.65-.03,0-.14-.07-.31-.17s-.24-.17-.27-.17l-.1.14.03.03v.03l.61.31-.34.07c-.14,0-.24-.03-.34-.14l-.31-.17-.14-.1-.07-.03-.07-.14-.17.03c0,.07.03.14.14.24l.34.2.44.17.1.07.03.14c0,.07-.03.1-.14.1h-.07c-.07-.03-.1-.03-.2-.07l-.24-.03c.07.17.2.24.37.24h.03c-.03.1-.14.17-.27.17-.24,0-.51-.17-.85-.51l-.07-.1c-.37-.38-.75-.55-1.12-.55h-.07s-.07.03-.17.03l-.03-.03s.07-.2.17-.51c.1-.17.2-.27.34-.31v-.1c.17-.1.44-.14.75-.14h.2l.07.03v-.37ZM15.71,15.58l.17-.27.27.17c.07.03.1.14.1.24,0,.92-.95,1.36-2.86,1.36s-2.82-.37-2.82-1.16c0-.14.1-.31.31-.48l.07.14.07.2c.1.51.82.75,2.14.75.14,0,.24,0,.31-.03.99-.03,1.7-.2,2.07-.48.1-.07.14-.17.1-.27v-.14l.07-.03ZM6.94,14.86h.34c.65-.03.99.24.99.85,0,.14,0,.2-.03.24l-.17.37c-.2.51-.37.78-.54.85h-.17l-.14-.1-.07-.1-.54-.44c.1-.1.17-.2.17-.31v-.14c-.1-.1-.2-.14-.34-.14-.24,0-.37.03-.48.1l-.14.14-.24.14c-.24.14-.37.31-.37.51,0,.1,0,.14.03.17v.07l.34.1.27-.07.27.07c.44.24.65.38.65.48-.03.03-.14.1-.31.17-.85.31-1.33.48-1.46.48-.58,0-.92-.17-.99-.54l-.03-.34.1-.58.14-.27.2-.31.31-.41,1.02-.65.44-.17.75-.17ZM4.49,15.71l.03.14-.1.1c-.1,0-.14-.03-.14-.14,0-.14.03-.2.14-.24l.1-.07.48-.41c.51-.44,1.16-.68,1.9-.68.31,0,.58.1.82.34-.07-.03-.17-.03-.34-.03h-.2c-.51,0-.92.07-1.22.24l-.78.44-.34.14c-.07.14-.14.2-.24.2l-.1-.03ZM23.23,14.29c.24.24.34.44.34.65,0,.03-.03.1-.03.31-.07.14-.1.41-.14.71l.37-.17v.2c.03.44-.14.82-.44,1.16-.31.34-.71.55-1.19.61l-.03-.1-.44.07.14-.07.24-.31-.07-.07c-.31.27-.51.41-.58.41-.1,0-.14-.07-.14-.2s.03-.24.14-.34l.24-.24s.1-.07.2-.17c.17-.17.27-.31.24-.34v-.1l-.34.2-.31.41-.31.27-.07-.1-.14.03v.14s-.07.1-.17.14l-.03-.34.03-.17.03-.03-.07-.1-.14.07v.55c.03.07-.03.1-.14.1s-.17-.07-.2-.2l-.07-.31.03-.2-.1-.27v-.07c0-.58.37-1.05,1.09-1.36l.07.31.14.03c.1-.24.38-.41.72-.48.41-.14.68-.24.88-.34l.24-.27ZM16.39,14.11h.1c.37-.03.54.14.54.48s-.17.51-.48.51l-.03-.03-.07-.1.2-.1s.07-.03.07-.14c0-.17-.07-.24-.24-.24-.14,0-.41.24-.85.71l.2-.48c.1-.31.31-.51.54-.61M8.27,14.15l-.31.24v.24l-.14-.03c-.1-.03-.17-.17-.17-.34s.07-.27.2-.27c.1,0,.24.07.41.17M1.63,13.94v.37l-.03.44.14.54.17.17.34-.07c-.1.24-.2.34-.31.34-.03,0-.14-.07-.31-.17l-.07-.14-.07-.31v-.07.07l-.03-.31c0-.1.07-.37.17-.89M19.01,13.98l.41-.14.07-.03c.27,0,.51.1.71.31.2.2.31.44.31.68,0,.54-.24.82-.75.82-.48,0-.71-.14-.71-.44,0-.1,0-.14.03-.17.17.27.34.41.58.41.34,0,.51-.14.51-.41,0-.03-.03-.17-.07-.34-.17-.24-.44-.37-.78-.37-.37,0-.68.17-.92.48-.1.1-.2.17-.24.17h-.1l-.03.24-.24.31-.07.24-.14.03.1-.27c.07-.2.2-.44.37-.71l.1-.24.34-.24.2-.24.31-.07ZM15.48,13.81l.38.24-.14.34-.31.82-.17.65-.44.2.03-.37c0-.24.03-.44.1-.54l.14-.37.03-.24.1-.24.27-.48ZM9.73,13.81c.44.03.78.37,1.02,1.02l-.14-.17-.1-.1c-.24-.31-.44-.48-.58-.48l-.14.03-.27.24v-.37l.2-.17ZM5.07,14.76c.1-.65.48-1.09,1.05-1.33l.27-.1c.17-.07.27-.1.37-.1l.58.07h.07l.44.14.41.24c.95.51,1.43,1.36,1.43,2.55,0,.99-.31,1.73-.88,2.24s-.85.75-.82.75l-.07-.17.1-.17.71-.65s.1-.14.2-.37l.27-.48c.1-.17.14-.54.14-1.16,0-.78-.2-1.39-.61-1.9-.41-.51-.92-.75-1.57-.75-.82,0-1.36.24-1.6.68l-.2.34-.31.17ZM21.8,13.2v-.07l.31.1.41.14,1.09.61c.1.07.24.1.44.1.24,0,.41-.17.44-.51.1.1.14.17.14.24,0,.34-.2.51-.58.51-.1,0-.31-.07-.58-.17l-1.16-.71-.27-.1-.24-.14ZM18.09,13.98l.37-.37.24-.1.31-.2.51-.17.34-.03.2-.03h.17l.14-.03c.78,0,1.36.31,1.8.95l.2.31c.07.1.1.2.1.24l-.1.1h-.1c-.07-.1-.14-.17-.17-.24l-.17-.21c-.37-.58-.99-.85-1.87-.85-.34,0-.68.1-.99.27-.58.31-.92.58-1.02.75l-.2.38-.31.31-.17.68c-.03.14-.14.2-.31.24.03-.2.1-.37.24-.51,0-.17,0-.27.03-.31.03-.03.07-.14.14-.31l.2-.37.24-.31.17-.17ZM17.69,13.13c.03-.07.07-.1.17-.1.24,0,.34.1.34.27,0,.1,0,.17-.03.2l-.1.1-.14.31-.24.27-.2.31-.24.17.14-.17.54-1.05.03-.03c0-.1-.1-.2-.27-.27M15.51,12.92l.44.44.54.2-.07.24c-.1.03-.17.03-.17.07h-.1c-.17,0-.31-.07-.48-.2-.24-.2-.34-.34-.34-.44s.07-.2.17-.31M25,12.48c.31.24.61.41.92.44v.1c.03.17-.07.24-.24.24s-.27-.1-.37-.34l-.31-.44ZM8.2,13.33c-.27-.17-.41-.27-.41-.37l.1-.51c.03-.07.14-.1.34-.1.07,0,.14.03.24.14-.07.07-.17.1-.34.1-.03.24-.07.34-.07.37,0,.1.03.14.1.17l.27.27.07.1c-.1-.03-.2-.07-.31-.17M23.64,11.6c1.46.78,2.21,2.11,2.31,3.98.03.1.03.24.03.34v.03l-.17,1.05-.44,1.26c-.07.17-.1.37-.1.58,0,.48.17.88.51,1.22-.54-.03-.85-.34-.95-.88v-.37c0-.2,0-.31.03-.34.1-.17.17-.31.17-.41l-.1-.07-.37.17-.03-.24c.07-.27.2-.51.44-.75l.27-.61c.03-.1.03-.17.07-.24.03-.1.03-.17.07-.2.14-.44.2-.75.2-.95v-.34c-.03-.1-.03-.24-.07-.41l-.03-.03-.1.07v.41l-.03.24-.07.34-.14.14-.17.27-.41.24.03-.37.03-.14c-.1.03-.2.03-.27.07h-.14c-.1,0-.17-.14-.2-.41.03.03.14.03.31.03.1,0,.31-.14.55-.41.07-.37.1-.65.1-.85,0-.1-.1-.41-.31-.85l-.07-.2-.31-.37-.14-.14c-.1-.1-.24-.2-.34-.34-.1-.07-.2-.17-.31-.27,0-.07.03-.14.14-.24M4.66,12.69c-.14-.17-.2-.31-.2-.48v-.1l.34-.48-.07.54.17.37.48.1.2-.1.2-.24c.1-.17.31-.24.68-.24s.54.2.54.58c0,.17-.07.24-.2.24l-.17-.03.07-.41c-.17-.03-.27-.07-.31-.07-.14,0-.24.07-.27.17l-.24.61c-.1.24-.31.34-.65.34-.51,0-.78-.31-.82-.92.1.17.2.27.31.34l.07-.07-.14-.17ZM3.88,12.21l.1.2c0,.07-.03.1-.14.1-.24,0-.34-.14-.34-.37,0-.14.03-.24.14-.31l.27-.2.24-.1.07.03-.37.31.03.34ZM25.51,11.29c.1.07.14.14.1.17-.1.37-.2.68-.31.85l-.17-.14.37-.89ZM1.09,11.22c.1.34.27.51.51.51l.2-.03.78-.48-.24.27-.24.2-.17.14c-.1.1-.31.2-.61.24l-.17-.1-.1-.17-.03.03s-.03-.14-.03-.27c0-.1.03-.2.1-.34M20.24,11.26l.34-.03.24-.03c.99-.03,1.5.27,1.5.99l-.07.17-.14.1-.14.2-.14.07c-.41,0-.65-.2-.72-.61.17.17.34.27.48.27.24,0,.34-.1.34-.31l-.03-.17c-.17-.38-.48-.55-.95-.55l-.31.04c-.1,0-.24-.04-.41-.14M4.73,10.95l-.03.07c-1.53.65-2.31,1.53-2.31,2.62,0,.24.1.48.31.78l.24.17c.07.03.17.03.34.03.24,0,.44-.1.65-.34.1-.17.14-.34.14-.48,0-.03-.07-.14-.17-.31-.03-.03-.14-.03-.27-.03-.17,0-.27.07-.27.24l.03.17c-.17-.03-.24-.14-.24-.31,0-.37.17-.54.51-.54.51,0,.75.34.75.99,0,.51-.34.85-1.02,1.09.1.17.17.31.17.34,0,.07-.07.1-.17.1-.37,0-.75-.2-1.12-.58l-.1-.2-.1-.07-.07-.58-.07-.34.07-.34.03-.24.14-.27.03-.17.31-.41.17-.24c.44-.54,1.12-.92,2.08-1.16M24.32,13.03s.03.1.03.2v.07c-.1.14-.41.2-.88.2s-.71-.31-.71-.95c0-.71.44-1.33,1.36-1.8l.07.14-.54.34-.2.27-.34.48c-.1.1-.17.27-.17.48,0,.54.27.82.78.82.17,0,.37-.07.61-.24M23.03,11.26c-.03.17-.07.24-.17.24h-.1l-.65-.24-.89-.2c-.1-.03-.2-.03-.27-.03l-.17-.03-.17.03c-.31.07-.54.1-.68.1h-.03c-.14,0-.2-.07-.2-.17s.1-.14.34-.17l.48-.07h.17c.71-.07,1.5.1,2.35.54M24.9,10.54c.75.1,1.12.44,1.12.95,0,.31-.07.48-.24.48h-.07l.03-.2c.07-.14.1-.24.1-.34,0-.03-.07-.14-.17-.31-.24-.24-.51-.34-.82-.34l.03-.24ZM2.45,11.67c1.05-.92,2.08-1.39,2.99-1.39h.17l.1.03h.17l-.31.14-.54.27c-.61,0-1.26.27-1.97.82-1.19.89-1.8,2.04-1.8,3.44,0,.44.03.71.1.88l.17.51c0,.1-.1.17-.34.27-.1-.34-.17-.54-.14-.61v-.41l-.03.03-.03-.65c-.03-.41.07-.89.24-1.46l.24-.54.07-.17c.37-.54.68-.92.92-1.16M8.74,10.17c.75.48,1.43,1.16,2.01,2.04.58.85.95,1.67,1.05,2.38l.2,1.53-.51-.14-.24-.2c-.37-1.26-.99-2.24-1.8-2.89l-.27-.24-.31-.24-.54-.24-.17-.14-.34-.1-.24-.1c-.17-.1-.51-.14-.95-.14-.75,0-1.29.24-1.67.71l-.1-.2.03-.34c.03-.31.27-.48.71-.51l-.03-.14c-.31-.07-.48-.14-.48-.24,0-.03.07-.1.2-.2.17-.1.34-.17.54-.2l.61-.1,1.26.27c.14.03.31.1.51.2l.68.68h.17c.24.03.34,0,.34-.1,0-.07-.03-.17-.1-.31l-.14-.17c-.14-.03-.2-.1-.24-.2-.17-.17-.24-.34-.2-.51v-.17ZM23.54,9.97c.14.1.2.2.2.24,0,.37-.27.58-.82.58-.31,0-.75-.07-1.29-.2h.48c.14,0,.24,0,.31.03h.17c.58.03.92-.2.95-.65M10.92,11.97l-.07-.34-.14-.31s-.07-.17-.07-.34c0-.71.27-1.09.78-1.09.37,0,.54.17.54.51,0,.31-.1.44-.27.44-.07,0-.1-.07-.1-.24l.03-.14c-.1-.07-.2-.1-.31-.1-.24,0-.37.2-.37.58,0,.1.2.68.58,1.73.03.1.03.2.07.34.03.14.07.31.1.48l-.48-1.02-.1-.2-.2-.31ZM25.07,11.77h-.1c-.24-.03-.37-.27-.48-.65l-.1-.27-.03-.27.03-.27v-.27l.34-.34-.17.54s-.03.07-.03.17l.03.14c0,.07,0,.14.03.24.07.27.14.44.24.54l.27.27-.03.17ZM2.24,9.29l.34.24.1.03c.17.1.24.27.27.48l.51-.03.37-.03c.07-.03.2-.03.37-.03.24,0,.51.03.85.14-.17.03-.34.03-.51.07h-1.06c-.31,0-.51.03-.58.14l-.14.31-.48.2-.24.17c.03-.34.2-.54.51-.65l-.03-.07h.17l.03-.1c-.34-.17-.51-.44-.51-.85M1.87,9.15h.14l-.07.31-.07-.1-.03-.1v-.07l.03-.03ZM2.18,10.17l-.27.03c-.44.03-.68-.2-.68-.75,0-.27.07-.41.24-.41h.07s.07.07.1.17l-.1.48.1.07.07.14.1.1.2-.03c.07,0,.14.07.17.2M18.77,10.58c.58-.44,1.43-.68,2.58-.78l1.33-.14c.1-.03.24-.03.44-.07.14-.03.34-.07.48-.07.2-.07.34-.07.48-.14.1,0,.2-.07.24-.1.1-.07.2-.14.27-.17l.17-.1c.1,0,.14.03.14.1s-.1.14-.27.2l-.44.2-1.02.27-2.59.24-1.5.48-.31.07ZM3.13,9.52c-.17-.14-.27-.27-.27-.37,0-.17.1-.24.27-.24l.14.07,1.05.65-.34-.1-.27-.17c-.1-.03-.2-.07-.24-.1h-.1c-.1,0-.2.1-.24.27M1.09,8.5l.07-.1.1-.03c.17,0,.24.07.24.24s-.07.24-.24.24c-.1,0-.17-.07-.17-.2v-.14ZM1.7,8.67v-.07c0-.17.07-.24.2-.24.17,0,.27.1.27.27s-.07.27-.24.27c-.1,0-.17-.07-.24-.24M16.16,10.44l.1-.44-.17-.65-.03-.2c-.03-.54.2-.82.75-.82.17,0,.31.03.48.14.31.27.48.48.48.61l-.03.44-.03.31-.1.37.1.03.14-.1.07.14s-.03.07-.07.24l-.17.48-.44.54-.27.27c-.41.31-.61.48-.61.51,0,.1,0,.2.03.24l.37-.1.37-.54.27-.24.03-.1.61-.44c.31-.24.68-.37,1.06-.37h.17c.07.03.17.03.27.07l-.27.61.54-.07c.48.14.71.38.71.75,0,.27-.07.41-.17.41l-.1-.03c0-.44-.27-.65-.85-.65-.31,0-.51.07-.68.2l-1.6,1.09c-.17.1-.34.17-.44.17-.24,0-.51-.1-.82-.34l-.07-.1-.07-.17-.07-.34c0-.31.24-.71.72-1.16l.14-.2.51-.75c.17-.31.27-.58.27-.75s-.03-.31-.14-.48-.17-.27-.27-.31h-.03c-.34,0-.51.24-.51.75,0,.37.03.65.14.85v.07c0,.17-.1.31-.27.44-.2.17-.37.24-.55.24-.41,0-.61-.24-.61-.68,0-.17.1-.37.27-.61.03-.24.07-.34.07-.31,0-.14-.03-.24-.14-.34h.2l.14.14.14.27v.03s-.07.1-.2.31c-.14.14-.2.31-.2.41,0,.24.14.37.37.37.1,0,.27-.07.48-.2M18.88,9.15v-.07c0-.24-.1-.37-.27-.41l-.27-.07h-.03s-.07.07-.14.17c-.1.1-.14.17-.17.17l-.03-.1c0-.44.17-.65.51-.65.17,0,.34.1.51.31.17.17.24.38.24.55,0,.37-.31.68-.92.92l.2-.31.24-.24.14-.27ZM24.39,8.2l.07-.1.34.24c.65.48.95,1.09.92,1.84l-.03.34c-.1-.03-.17-.14-.17-.24v-.14c.03-.48-.24-1.02-.88-1.67l-.24-.27ZM17.41,7.82c.17,0,.24.07.24.24,0,.1-.07.17-.17.17-.17,0-.24-.07-.24-.2v-.07c.03-.1.07-.14.17-.14M18.09,7.72l.03.03c0,.1-.07.17-.17.17s-.17-.03-.17-.14v-.07l.03-.07.07-.07.2.14ZM7.62,7.41c.44.07.65.2.65.44,0,.14,0,.24-.03.27v.07l-.24-.24-.14-.03s-.1.03-.2.1c-.2.1-.31.31-.31.55,0,.34.17.65.51.95l.27.27c-.03.1-.03.2-.03.27l-.03.14.03.14c0,.07,0,.14.03.24-.1-.03-.24-.07-.31-.1-.14,0-.2,0-.27-.03-.72-.1-1.09-.24-1.19-.37l-.24-.27-.14-.17.03-.07c0-.1.1-.14.34-.14.1,0,.2,0,.24.03v-.03l.34-.17-.03.07c-.34-.17-.51-.44-.51-.89,0-.1.03-.14.1-.14l.31.03c.07-.54.34-.85.82-.92M24.73,7.58c.07-.17.17-.24.31-.24.2,0,.31.1.31.27,0,.1-.07.2-.2.27-.07-.17-.2-.27-.41-.31M21.87,7.41l.03-.07.1-.03c.37,0,.58.17.58.48,0,.51-.54.89-1.67,1.16l.27-.2.61-.27c.31-.14.44-.34.44-.58,0-.2-.14-.37-.37-.48M17.01,7.31c.14,0,.2.07.2.24,0,.14-.07.2-.24.2h-.03s-.07-.1-.1-.27v-.03c.03-.1.07-.14.17-.14M4.49,8.23c.1-.65.41-.99.92-.99.48,0,.75.27.82.78-.31-.24-.58-.37-.75-.37-.41,0-.61.2-.61.65,0,.24.1.48.31.78l.58.37c-.78-.1-1.22-.51-1.26-1.23M2.62,7.24c.17,0,.27.07.31.2l.1.34.1.24.24.27.88.78.44.27.48.2c.24.1.44.17.58.2v.14l.17.14c-1.26-.17-2.28-.82-3.06-2.01l-.2-.24-.1-.27-.1-.17.17-.1ZM17.52,7.18l.1.14.03.14c0,.14-.07.2-.17.2l-.07-.1c0-.07.03-.2.1-.37M9.15,8.61c-.1-.03-.17-.1-.17-.2,0-.17.03-.27.14-.37l.58-.61c.07-.1.1-.17.1-.24v-.1c-.03-.17-.07-.31-.1-.34l.03-.03.07-.03c.1,0,.17.03.2.14l.1.14h.2c-.03.34-.2.61-.58.78l.03.2c.17-.03.34-.14.44-.31l.1-.03.34-.14.07.1.07.07h.17c.1,0,.17.07.17.17,0,.03-.03.07-.14.17-.1.07-.14.14-.14.2l.1.07h.07c0,.2-.1.34-.27.38l-.44.07s-.07.03-.07.14c0,.03.03.03.14.07.17-.1.31-.14.44-.14.07,0,.14.03.27.07.07.03.14.14.14.24l-.31.48-.2-.34-.48-.24c-.24.1-.44.17-.55.2l-.17.07c-.1,0-.17-.1-.2-.34h-.17l-.1.14-.2.14s-.1.14-.17.31c-.14.31-.2.54-.2.71,0,.48.14.78.41.95.14.07.2.14.2.17l-.03.14c-.1-.03-.24-.1-.34-.2l-.17-.27c-.17-.17-.24-.41-.24-.71,0-.44.2-.88.61-1.36l.1-.1s.1-.07.14-.17M19.93,9.12l.27-.41v-.03l-.07-.2-.1-.17c-.07-.14-.51-.34-1.36-.61-.1-.03-.24-.1-.34-.14-.1-.07-.2-.14-.31-.24l-.37-.31c-.1-.1-.17-.2-.17-.31l.03-.07.95.75,1.57.54c.31.14.48.37.48.72,0,.1,0,.17-.03.2-.03.14-.14.2-.24.2l-.31.07ZM9.25,6.46v.07c-.24.37-.34.61-.34.78v.03l.24.24-.24.1h-.03c-.17,0-.24-.14-.24-.37,0-.17.2-.48.61-.85M3.94,7.45c-.37-.17-.54-.34-.54-.58,0-.48.27-.71.78-.71.17,0,.34.03.51.14l.65.31c.17.07.34.14.44.17l.48.31.31.17-.44-.1-.88-.48c-.17-.1-.41-.14-.75-.14-.41,0-.61.17-.61.48v.2c.03.07.03.14.07.24M23.81,6.16c.03-.1.07-.14.17-.14.2,0,.27.14.24.37v.17l-.17.14-.2.37-.2.17c.24-.44.34-.65.34-.61,0-.1-.1-.17-.27-.2l.1-.27ZM10.48,6.02c.14-.03.2.03.2.17s-.07.2-.24.2c-.1,0-.17-.07-.17-.17v-.07c.07-.1.14-.14.2-.14M24.62,5.82l.2.14c.24.24.37.44.37.58,0,.17-.14.41-.44.71-.78.85-1.6,1.43-2.48,1.74l-2.92,1.02-1.29.68.03-.31.34-.2.51-.34.78-.31c.44-.17.65-.27.68-.27l.92-.27.2-.1.24-.03.24-.17.54-.24.2-.14c.51-.37.78-.58.82-.61l.27-.34.24-.24c.2-.24.37-.68.55-1.29M10.14,6.16c0,.17-.07.24-.2.24s-.2-.1-.2-.34c0-.17.07-.27.24-.27.03,0,.1.1.14.27l.03.1ZM10.95,5.61c.1.07.14.14.14.2,0,.1-.03.14-.14.14s-.14,0-.17-.03l.17-.31ZM17.75,5.58l.2.27c.58.71,1.12,1.05,1.7,1.05.44,0,.65-.14.65-.37l-.03-.07-.03-.14c-.1-.1-.17-.14-.27-.14-.14,0-.24.03-.34.14.1-.31.24-.44.48-.44.37,0,.58.2.58.61s-.27.61-.78.61c-1.09,0-1.8-.51-2.14-1.53M10.34,5.48l.07-.1.2.03.07.07v.1c0,.17-.07.27-.24.27s-.24-.07-.24-.2c0-.03.03-.1.14-.17M25.03,5.85c-.31-.27-.58-.41-.78-.41-.51,0-.75.2-.75.65l.03.85v.07l-.07.07-.07.03-.1-.54-.03-.2v-.07c0-.31.1-.54.27-.78.2-.2.44-.31.71-.31.38,0,.75.24,1.06.65.31.48.48.95.48,1.53,0,.51-.14.92-.44,1.29l-.07-.14.14-.44c.1-.34.14-.61.17-.85v-.07c0-.17-.03-.37-.14-.54l-.1-.31-.27-.41-.03-.07ZM2.72,5.37l.14-.17.07-.03c.14,0,.24.07.34.24-.34.1-.51.27-.51.44v.07l.27.51v.1c0,.17-.1.34-.24.48-.2.17-.37.24-.54.24-.41,0-.58-.17-.54-.48v-.37c-.03-.1-.03-.2-.07-.31l-.21-.2-.31-.1.14-.24c.1-.1.17-.14.24-.14l.27.07.2.2c.07.1.1.17.1.2l-.03.1s0,.14-.03.24v.27c0,.24.07.34.24.34l.1-.03.07-.14-.07-.2-.1-.2-.07-.41c.03-.24.1-.41.24-.58l.31.1ZM10.78,5.31c.03-.1.14-.17.27-.17.58,0,.85.37.85,1.09,0,.31-.07.51-.2.68l-.27.34c-.03.1-.1.14-.2.17l-.1-.07c.37-.37.58-.78.58-1.22,0-.51-.31-.78-.92-.82M10.03,5.17l.03-.03.07.07c0,.24-.03.37-.14.37l-.1-.07.03-.14c.03-.14.07-.2.1-.2M5.85,5.51v-.14c-.03-.37.07-.54.24-.54l.27.07c-.1.27-.27.48-.51.61M10.51,4.83h.07c.1,0,.17.03.17.1,0,.17-.1.27-.31.27-.1,0-.14-.07-.14-.17.07-.1.14-.17.2-.2M7.62,5.51c.03-.14.07-.2.07-.17l-.03-.27c0-.17.03-.24.14-.24l.2.1.24-.1.1-.03.07-.03.14.03c-.07.1-.1.2-.1.27l.1.1.1.14c0,.14-.24.31-.68.48l.17-.2-.07-.17h-.07c-.07.27-.17.41-.31.41l-.34-.07.27-.24ZM4.15,4.69l.1-.48.41-.14.03-.03h.03v.31l.07.31h.03l.1.1-.17.41.17-.14.17.14.07.03.07.34v.17l-.1.1-.03-.41-.78.17c0-.27.07-.54.21-.82l-.38-.07ZM2.55,4.46c.17-.34.37-.51.61-.51.1,0,.2.03.34.1h.03c.17.17.24.31.24.41s-.1.24-.27.37v-.37c-.14-.17-.27-.24-.37-.24-.24,0-.44.27-.61.78l-.07-.17v-.03s.03-.17.1-.34M10.14,3.67l.1.03.14.34c.1.2.31.34.58.41-.1.1-.2.17-.27.17-.24,0-.41-.2-.54-.58v-.37ZM1.05,3.81v-.07c.03-.07.07-.1.17-.1h.07v.03c.17.03.24.17.24.44v1.05l-.14-1.16-.38-.1.03-.1ZM9.62,3.57l.27.14v.2l.07.31v.2c-.03.48-.17.95-.41,1.36-.24.48-.44.71-.65.82l-.34.2-.24.17c-.17.14-.44.2-.75.2-.92,0-1.57-.34-2.01-1.02-.1-.17-.17-.31-.17-.37v-.34l-.03-.31.2-.03c.07,1.19.68,1.77,1.8,1.77.85,0,1.46-.34,1.77-.99l.27-.51.14-.24c.03-.14.07-.31.07-.54l.03-.44-.03-.58ZM15.48,3.44c.75-.24,1.29-.34,1.63-.34l-.37.31-1.12.2c-.24.07-.48.27-.68.58-.2.31-.31.61-.31.88l-.07,11.05h-.24l.03-4.52v-6.36c0-.27,0-.44.03-.51.1-.44.34-.82.71-1.09l.07-.14.31-.07ZM7.93,3.71c.03-.44.17-.65.48-.65.2,0,.31.14.31.37v.07l-.14-.07-.27-.07c-.14,0-.2.1-.2.27,0,.37.17.54.51.54.31,0,.58-.24.75-.71-.03.34-.07.51-.1.51l-.2.2c-.17.1-.34.17-.44.17-.37,0-.58-.2-.68-.65M9.28,2.96l.61.14.51.14.48.17c.17.07.27.1.31.14.24.1.37.24.37.41l-.88-.37-1.16-.34-.24-.27ZM3.33,3.1l.14-.48.17.1.07.03v.1l-.1.71.2.31c-.54-.1-.82-.27-.82-.58,0-.2.03-.31.14-.31.03,0,.1.03.2.1M19.86,2.58l.34-.07h.71l.34.14c.17.1.27.2.27.24v.07l.03.07c.24.03.44.17.58.41-.17-.07-.31-.1-.41-.1-.58,0-.85.1-.85.27l.07.07c.1,0,.14,0,.17-.03.27-.1.44-.17.48-.17h.17c.1.03.2.03.31.07l-.07.1s.07-.03.17-.03c.14,0,.24.14.31.37-.31-.17-.54-.24-.68-.24l-.03.03-.07.1.2.07.07.1.07-.1c.37,0,.61.2.65.58-.17-.14-.31-.2-.34-.2l-.07.07.1.07.31.31.03.51-.17-.31c-.07-.14-.44-.24-1.09-.27h-.2c-.1,0-.17,0-.24-.03l.14-.41c-.14-.03-.2-.07-.17-.07-.03,0-.1.1-.17.24-.14.2-.27.27-.48.24l-.61-.03.2-.71-.14-.03c.03-.34.14-.58.34-.68.14-.07.2-.14.2-.2l-.1-.03c-.17,0-.31.1-.44.27l-.14.24-.2.92-.1.03-.14-.2-.07-.03c-.07,0-.1.14-.14.44-.03.03-.07.14-.14.27-.07.1-.14.31-.2.61-.17-.27-.24-.61-.27-1.05l.07-.51.17-.27.17-.27c.03-.1.1-.17.14-.2l.07-.17.27-.1.2-.2.37-.14ZM12.92,2.62l3.47-.1h.24c.44,0,.68.07.68.2s-.07.2-.24.24l-1.5.24c-.41.03-.75.31-1.02.75-.24.48-.37,1.05-.37,1.7l-.03,8.43.03,2.11c-.24.03-.44.03-.58.07h-.37c-.24,0-.58-.03-.99-.1l.03-4.25v-2.55l.03-3.57-.07-.92-.03-.17-.14-.41-.03-.07-.34-.51c-.17-.17-.44-.31-.75-.41l-.31-.14-1.26-.31c-.14-.03-.2-.1-.2-.2v-.03l.37-.2,3.37.2ZM18.67,2.35h.07c-.07.1-.14.17-.17.2l-.14.14c-.27.31-.41.55-.41.68s.03.24.14.34l.17-.07c-.03.31-.1.44-.27.44l-.1-.03-.17-.14.03-.07-.03-.37.14-.27.17-.27.58-.58ZM4.73,2.89c.37-.44.71-.65,1.09-.65.48,0,.71.2.71.61v.14l-.07.2.14.07s.03-.03.07-.14c.1-.1.2-.14.34-.14h.07c.41.1.61.41.61.85,0,.1,0,.17-.03.2l-.31.82.07.65s-.03.03-.14.07h-.03l-.24-.14h-.07s-.14-.03-.24-.07c-.07-.2-.1-.37-.1-.48,0-.17.14-.31.37-.44l.2-.58.07-.17c0-.07-.03-.1-.14-.1l-.07.03-.31.71c-.2.17-.34.27-.41.31l-.07-.07s-.07-.03-.17-.03c-.03,0-.1.07-.24.2-.17.1-.34.17-.51.17s-.24-.03-.24-.14v-.17c0-.24.07-.48.2-.75l-.03-.17h-.17l-.03-.1-.03-.1s.03-.14.1-.27c.31-.31.54-.48.71-.51l.03-.1c0-.07-.03-.1-.14-.1-.37,0-.65.2-.78.65-.14.44-.31.68-.54.78l-.07-.17-.2.03c-.14,0-.24-.07-.34-.2l.51-.27c.17-.07.31-.2.41-.44M7.21,2.41c.03-.1.07-.14.14-.14.1,0,.14.07.14.17,0,.24-.1.34-.31.34-.31,0-.48-.14-.48-.41,0-.24.1-.34.31-.34.1,0,.17.03.17.14s-.03.2-.14.31l.14.03.03-.1ZM8.16,2.01c.2.14.31.27.31.44,0,.2-.1.31-.34.31-.1,0-.24-.1-.37-.27l.17.03c.17.03.27-.03.27-.27,0-.1,0-.2-.03-.24M22.07,1.5c.17.03.34.07.44.14.1,0,.2.03.24.07.03.03.14.1.37.2-.71-.14-1.02-.2-.88-.2-.37,0-.58.14-.58.41,0,.1.03.2.14.31-.24-.07-.38-.2-.38-.44.14-.31.34-.44.65-.48M4.25,1.87c.27-.2.51-.31.68-.34l.24-.03.27-.03h.03c.34,0,.51.1.51.31,0,.17-.2.27-.58.31l.1-.31c-.1-.03-.2-.03-.24-.07h-.17l-.2.07c-.14,0-.34.07-.65.1M13.77,1.26c.17,0,.24.07.24.24,0,.2-.07.31-.24.31s-.27-.1-.27-.27v-.1c.03-.1.1-.17.17-.17h.1ZM24.97,1.29l.37-.24h.07l.1-.03c.1,0,.24.07.41.24.1.17.14.31.14.48s-.1.27-.34.31l.07-.34-.27-.07c-.14,0-.2.14-.2.44v.31c.03.1.03.24.07.34.1.44.14.82.2,1.16,0,.31.03.61.03.85v.1c0,.14-.07.41-.17.82l-.34-.31c-.17-.03-.34-.17-.54-.34l-.07-.37-.1-.31c-.03-.1-.1-.2-.14-.31-.03-.1-.1-.2-.14-.31-.31-.27-.58-.41-.78-.41-.24,0-.34.07-.34.24l.07.27h.44c.31,0,.48.14.48.44s-.1.48-.34.48c-.17,0-.31,0-.34-.03.24-.1.37-.24.37-.34,0-.31-.24-.44-.71-.44h-.17c-.14-.17-.2-.31-.2-.41l.03-.1.14-.31v-.1l.24-.14.07.07v-.1s.07-.07.17-.1c-.1-.07-.17-.14-.17-.2v-.07c.31-.07.51-.1.65-.1s.27.1.41.31l.51.61c.03.17.1.31.14.41l.1.31h.24l-.17-.65-.1-.1.07.07-.72-.95-.1.07v-.07c-.1-.17-.14-.27-.14-.37s.03-.17.14-.17h.1l.07.03.34.2h.07l.1-.1v.14l.03-.1v-.1c0-.17.07-.37.17-.54v-.03ZM23.84,1.29c.03-.17.14-.24.34-.24.17,0,.27.17.31.48l-.27-.17c-.07,0-.14.1-.2.27-.14,0-.2-.07-.2-.17l.03-.17ZM18.6,1.9l.27-.2c.58-.44,1.33-.65,2.28-.65.78,0,1.39.1,1.84.27.2.1.34.17.37.2.24.07.34.2.34.41v.07l-.34-.1c-1.05-.37-1.8-.58-2.24-.58-1.16,0-2.07.31-2.76.99-.65.61-.99,1.53-.99,2.69,0,.31.07.61.24.88.14.27.34.51.54.75.27.24.55.41.89.51.31.14.65.2.99.2.58,0,1.09-.24,1.5-.68.1-.17.14-.31.14-.41,0-.31-.14-.48-.41-.48-.07,0-.2.07-.37.17-.03-.17-.07-.27-.07-.24,0-.03.07-.14.17-.24v-.14h-.1c-.24.24-.54.34-.92.34-.1,0-.2-.03-.37-.14l.14-.17.07-.24-.27.07-.58.31h-.07l-.07-.1s.03-.07.07-.24l.34-.68.34.2-.2.2.14.03h.03l.27-.17.44.03.61-.07.31.07c.1.03.2.03.27.03.1.03.17.03.2.03l.14-.03c.07,0,.14,0,.24-.03l.31.14c.24.24.34.44.34.65v.14c-.03.07-.03.14-.07.24l-.1-.03v-.24l-.27-.03.1.24.07.44-.27.41-.1.14c-.1.2-.37.37-.78.54-.44.17-.78.24-1.02.24-.07,0-.2-.03-.34-.03-.2-.07-.41-.1-.71-.14-.37-.1-.65-.24-.75-.37l-.2-.2-.2-.07-.24-.27-.24-.37-.14-.24.03-.27-.07-.38-.17-.1c-.17-.1-.27-.27-.37-.51l-.1.03v.14c0,.07.07.14.2.24.24.17.34.41.37.68l-.14-.03c-.1,0-.14.03-.14.14l.14.14c.14.1.17.24.14.41v.17c-.03.07-.03.2-.03.37l-.27-.27-.27-.2-.1.17-.07-.03-.07-.1-.07-.03-.07-.58h-.1s-.03.14-.03.24.03.24.14.44c.1.24.14.37.14.48s-.1.27-.27.51l-.2-.1s-.1.07-.14.17c-.14.24-.27.34-.44.34-.1,0-.17-.03-.17-.1l.14-.14c.14-.07.24-.31.34-.71l.1-.31.07-1.43c.03-.41.1-.75.31-1.09.14-.27.34-.44.51-.44h.07l.41.14.14-.61.27-.51c.17-.17.24-.27.27-.34l.24-.2.1-.1.41-.24ZM15.78,1.84c-.07-.1-.1-.17-.1-.24,0-.37.2-.58.61-.58.2,0,.37.17.48.48-.17-.07-.31-.14-.37-.2l-.17-.07c-.17,0-.27.1-.27.34,0,.37.24.54.68.54.27,0,.54-.07.85-.17l.95-.44c.1-.03.27-.1.55-.2l-.78.58-.03-.07c-.71.34-1.26.51-1.63.51-.31,0-.58-.17-.75-.48M8.2,1.12l-.03-.1.51.1,1.46.68c.44.17.82.27,1.12.27.24,0,.44-.17.54-.48l-.03-.07c-.17-.17-.27-.24-.37-.24-.14,0-.34.03-.61.14-.03.03-.17.03-.37.03l-.17-.17.58-.14c.17-.1.31-.14.41-.14.2,0,.34,0,.41.03l.07.03c.31.17.44.34.44.51,0,.44-.34.68-.99.68-.27,0-.48-.03-.65-.14l-1.43-.71c-.1-.07-.37-.17-.88-.31M4.86,1.05l.95-.14.58.03.78.1c.1.03.27.07.48.14.2.07.44.17.75.34l.03.03c.1.07.24.14.34.2.1.1.24.17.34.27l.14.14.07.1c0,.1-.07.14-.17.14s-.2-.03-.34-.1l.07-.14-.37-.2-.68-.37c-.44-.24-1.09-.37-1.9-.37-1.09,0-1.91.27-2.45.82-.54.58-.95,1.57-1.22,2.96-.03.2-.14.31-.24.34l-.03-.61.07-.34.07-.44c.07-.34.17-.58.34-.75,0-.17.1-.41.27-.65.1-.17.24-.34.41-.51l.41-.31.34-.2.2-.14.27-.17.51-.17ZM2.18,1.02c.17.03.27.1.34.2.14.24.2.44.2.58,0,.03-.17.44-.48,1.19-.24.51-.41,1.26-.51,2.21-.03-.07-.03-.17-.03-.31v-.24c0-.71.2-1.43.65-2.21.03-.1.03-.2.03-.34l.03-.24v-.17l-.17-.27c-.17-.1-.34-.17-.44-.17-.34,0-.51.2-.51.58,0,.1.03.24.1.41-.17-.1-.24-.17-.24-.27v-.07l-.07.03.1-.58c.1-.17.24-.31.41-.34l.03-.07.54.07ZM.82,26.39h25.54V.85H.82v25.54ZM.41.41h26.39v26.39H.41V.41ZM0,27.21h27.21V0H0v27.21Z" fill="#231f20"/>
    </g>
  </g>
</svg>