<?xml version="1.0" encoding="UTF-8"?>
<svg id="Layer_1" xmlns="http://www.w3.org/2000/svg" width="27.21" height="27.21" xmlns:xlink="http://www.w3.org/1999/xlink" viewBox="0 0 27.21 27.21">
  <defs>
    <clipPath id="clippath">
      <rect width="27.21" height="27.21" fill="none"/>
    </clipPath>
    <clipPath id="clippath-1">
      <rect y="0" width="27.21" height="27.21" fill="none"/>
    </clipPath>
  </defs>
  <g clip-path="url(#clippath)">
    <g clip-path="url(#clippath-1)">
      <path d="M24.08,25.27l-.71-.03.07.14.68-.03-.03-.07ZM22.14,24.62l.07.27-.07-.27ZM22.65,24.86l-.1-.27-.07-.03-.07.1v.07l.1.24.14-.03v-.07ZM5.88,23.74l.27.24.31-.07-.2-.14-.37-.03ZM4.8,21.73c-.03.07-.03.2-.03.37,0,.03.07.17.17.34l.03-.14.14-.03-.1-.41-.2-.14ZM7.11,19.66l-.1-.07-.24-.03-.31.2-.1.2.44-.24.31-.07ZM6.26,19.62h.03s.14-.07.51-.2l.65-.07-.48-.1-.71.37ZM5.17,17.69c-.54.03-1.06.31-1.53.78l.07.1.54-.48c.31-.2.68-.31,1.19-.31l.27-.07.44.1.44.07-.41-.2-.51-.1-.51.1ZM4.25,17.38l.1.2.07-.07v.03h.03l-.03-.17h-.17ZM3.03,17.18l.31.17-.24.14-.07-.31ZM4.59,17.21l.07.24.07-.07-.14-.17ZM20.2,17.14v-.24l-.17-.07.17.31ZM5.2,16.9c-.1.07-.14.14-.14.17l.03.07.03.14h.17l-.03-.07-.07-.31ZM3.27,16.8l-.1.07.03.1v.1h.2l.14-.1-.17-.14-.1-.03ZM3.37,16.43c.03.2.07.31.17.31l.24-.14-.41-.17ZM3.91,16.33l-.24-.14-.1.1c0,.07.07.1.24.14h.03l.03.03.03-.14ZM5.44,15.61v.03c0,.1.03.14.14.17l.07-.1-.14-.03-.07-.07ZM6.02,15.75l-.07-.07-.07-.37-.1.1-.03.1c0,.14.1.24.31.34l-.03-.1ZM6.26,14.63l-1.46.95h.14l-.03.03.2-.07c.1-.1.2-.14.31-.17.34-.2.61-.44.85-.75M18.98,14.05c-.03.1-.07.17-.14.24,0,.1-.07.17-.1.27-.07.07,0,.14.17.17,0,.07.07.1.2.1l-.03-.14-.07-.17c-.03-.07-.03-.14-.03-.24v-.24ZM19.39,14.56l-.14-.37-.07.07.03.31.07.1.14.03-.03-.14ZM3.98,14.25l.03.03h-.1l.14.34v.07c0-.17-.07.1-.2.88.1-.14.17-.27.17-.41.03-.14.07-.31.14-.48,0-.03-.07-.17-.17-.44M22.38,13.57l.1-.07.03-.03v-.1l-.14.2ZM4.46,10.92l-.07.1c.41.34.71.51.88.51l.37-.1c-.44-.1-.85-.27-1.19-.51M5.68,11.19l.2.17c.03-.14.03-.24,0-.34-.1.2-.17.27-.2.17M5.31,9.56l.48.54c.27.27.41.54.41.78,0,.17-.03.31-.14.48.24-.1.34-.27.37-.44.03-.1-.03-.31-.14-.61l-.34-.34-.65-.41ZM21.94,8.74c-.37-.24-.78-.38-1.16-.38-.17,0-.31,0-.34.03l.1.1c.31.03.61.1.88.2l.14.07.27.17.31.27-.2-.48ZM22.07,7.69l-.1-.03-.1.17-.07.1.07.27c.14-.03.2-.2.2-.51M21.87,7.35l-.14.03.03.14c0,.07-.1.14-.27.2v.1l.1.2c.2-.14.31-.31.31-.51l-.03-.17ZM13.98,6.46l.2.07c.17.1.31.1.34,0l-.2-.2-.27-.03-.17.1-.17.03c.1,0,.14,0,.1.03h.17ZM14.08,6.16l-.14-.17.24-.03.17.14-.27.07ZM14.08,5.54l-.03.1-.03.1.03.03h.17l.14-.03c0-.17-.03-.24-.14-.24l-.14.03ZM17.52,25.64l.24.03h.03c0,.17-.03.27-.1.27l-.07-.03-.14-.03.03-.24ZM16.43,25.68h.07l.1-.03c.17,0,.24.03.24.14s-.03.14-.14.14c-.2,0-.31-.07-.31-.17l.03-.07ZM15.92,25.71h-.07c-.17,0-.24-.07-.24-.17v-.07c.03-.1.1-.17.17-.17.17,0,.27.07.31.2l.03.07-.07.1-.14.03ZM18.77,25.3l.03.07c0,.1-.07.14-.17.14s-.17-.03-.17-.14.03-.17.14-.17h.03l.14.1ZM17.92,25.17c.1,0,.17.03.2.14v.07c0,.1-.07.17-.17.17-.14,0-.2-.07-.2-.2,0-.1.07-.17.17-.17M17.18,25.2l.03-.03c.17,0,.27.07.27.2s-.07.2-.2.2-.2-.07-.2-.24c0-.1.03-.14.1-.14M16.84,25.13c-.1.17-.2.27-.31.27h-.03c-.1,0-.14-.07-.14-.17s.1-.17.27-.17l.2.07ZM17.92,24.86c0,.1-.07.17-.2.17-.1,0-.17-.07-.17-.17s.03-.17.14-.17c.17,0,.24.07.24.17M16.46,24.66h.07c.1-.03.14,0,.14.07,0,.14-.1.2-.27.2s-.24-.07-.24-.17c0-.03.07-.07.2-.1h.1ZM5.58,25.34l-.31-.07-.44-.17s-.1-.03-.2-.03c-.24,0-.34.1-.34.34,0,.03.07.17.2.41,0,.07-.07.1-.24.1-.31,0-.48-.2-.48-.61,0-.37.2-.54.61-.54h.1l.14.07.1.03.85.48ZM17.07,24.62c.1.03.14.07.14.17,0,.14-.07.2-.17.2-.14,0-.2-.07-.2-.17s.07-.17.24-.2M16.22,25.17s-.1.03-.2.03c-.03,0-.07-.03-.17-.1-.31-.24-.72-.34-1.23-.34-.17,0-.37.03-.68.14-.27.1-.48.17-.58.27h-.1c-.1,0-.17-.03-.17-.14h.07s.14-.03.24-.07c.03,0,.2-.1.51-.27.1-.1.37-.14.88-.14s.99.2,1.43.61M21.53,25.17c-.2-.24-.31-.41-.31-.51,0-.17.07-.27.24-.27l.07.03.14.54-.14.2ZM12.45,24.52l.03-.1.2.07.07.17v.41c0,.14.07.2.17.24.14.03.38.1.68.2-.44.1-.68.17-.71.17-.1,0-.17-.03-.2-.1l-.1-.17-.1-.07-.61.27s-.1.03-.2.03c-.17,0-.34-.03-.51-.14-.44-.24-.65-.51-.65-.88,0-.1.03-.14.14-.14.03,0,.1.1.17.34.1.34.41.51.95.51.17,0,.34-.03.51-.14l-.1-.24c.17-.1.24-.27.27-.44M10.27,24.45c-.24.24-.34.41-.34.58s.07.27.17.27c.1.03.2.03.31.07h.14v.07c0,.24-.1.38-.34.38-.31,0-.48-.2-.48-.58,0-.27.07-.48.17-.58l.31-.24v-.03h.07v.07ZM24.83,24.08c.27-.34.51-.51.71-.51.03,0,.14.1.24.31h-.44l-.24.14-.27.07ZM10.07,23.64c.17.17.44.24.85.24h.51c.2,0,.37,0,.48-.03l.99-.14h.75c.17,0,.27,0,.34.03l.24.03.54.07.24.07c.1.03.17.03.24.03h.44c.2,0,.41-.03.58-.14.1-.1.17-.17.27-.2l.03-.03c.07,0,.1.07.1.2,0,.34-.24.51-.75.48l-1.87-.2c-.07-.03-.24-.03-.51-.03h-.27c-.14,0-.24,0-.31.03-.65.03-1.19.1-1.56.1-.37.07-.65.07-.75.07-.48,0-.72-.1-.72-.34,0-.07.03-.14.14-.24M4.83,23.5l.51.78c-.24-.1-.41-.24-.51-.44-.03-.14-.07-.2-.07-.17s.03-.03.07-.17M8.81,23.26c.17.1.27.2.27.31,0,.17-.14.34-.44.51-.27.17-.51.24-.68.24-.24,0-.34-.1-.34-.27,0-.1.1-.2.31-.24.03-.14.07-.2.1-.2.1,0,.14,0,.17.03l.1-.14.31.1-.07-.07-.03-.14h.1s.07.03.1.14l.14-.03-.03-.24ZM6.29,23.26h.17s.1.07.14.17l.17-.03v.14l.14-.1-.17.41.27-.24h.2l.24.14c-.1.37-.34.54-.71.54-.2,0-.48-.07-.75-.2-.34-.17-.48-.34-.48-.51l.07-.1.41-.07.14-.07.17-.07ZM18.54,23.3c.58.34,1.06.51,1.46.51.31,0,.44-.1.44-.31v-.07l-.24-.2v-.03c0-.1.07-.14.2-.14.37,0,.58.14.58.44,0,.37-.24.58-.71.58-.17,0-.31,0-.34-.03-.31-.03-.54-.1-.65-.17l-.44-.27-.24-.14-.07-.17ZM8.03,22.96c.14,0,.2.07.2.17s-.07.14-.17.14-.17-.03-.14-.14v-.07l.1-.1ZM7.55,22.89h.03c.1,0,.14.03.14.1,0,.24-.1.37-.27.37-.14,0-.2-.03-.2-.14,0-.17.1-.31.31-.34M6.77,22.89l.2-.14.03-.03.07.03.07.14c0,.14-.07.2-.2.2-.1,0-.14-.07-.17-.2M8.3,22.58l.07-.03h.1c.17,0,.24.07.24.2s-.07.2-.24.2c-.1,0-.17-.14-.17-.38M7.82,22.38c.14-.03.2.03.2.2,0,.1-.07.17-.2.17-.1,0-.14-.07-.14-.17s.03-.17.14-.2M7.21,22.55v-.03c-.03-.17,0-.24.1-.24.14,0,.2.07.2.24,0,.14-.07.2-.17.2-.03,0-.1-.07-.14-.17M6.8,22.41v-.1c0-.1.03-.14.14-.14s.14.07.14.17-.03.14-.14.14l-.14-.07ZM8.74,22.11h.03c.17,0,.27.07.27.2,0,.1-.07.17-.2.17-.1,0-.17-.07-.17-.17v-.07l.03-.1.03-.03ZM24.08,21.94c.27.14.41.31.41.48,0,.14,0,.2-.03.24l-.1.2v.2l-.2.31-.1.24.14-.03.24-.03v.27c0,.27-.1.41-.31.44l-.37.07.2-.14.17-.1c-.31.03-.48.1-.48.2l.03.14c-.65.03-.95.1-.95.27,0,.1.03.17.14.27l.2.03c.14,0,.27-.03.44-.14l.61-.27c.31-.1.55-.17.65-.14.37,0,.58.03.58.1l-.1.1s-.14.1-.24.17c.44.1.68.24.68.37,0,.37-.07.58-.17.58l-.07-.07-.07-.1c-.14-.14-.27-.2-.44-.2-.03,0-.24,0-.61.03-.37.03-.68.03-.92.03l-.34.03c-.31,0-.58-.1-.88-.31-.17-.1-.27-.2-.31-.34,0-.44.2-.78.58-.95.1-.03.2-.1.34-.14.07-.03.17-.1.27-.14l.65-.48c.27-.31.41-.58.41-.82,0-.2,0-.34-.03-.41M8.23,22.01h.07c.14,0,.2.07.2.17s-.07.17-.2.17c-.1,0-.17-.07-.17-.2l.1-.14ZM7.59,22.11l.14-.34.2.07-.03.17-.03.17v.03l-.07.07h-.07s-.1-.07-.14-.17M7.01,21.94v-.03c0-.2.07-.31.17-.31l.17.1.07.2c0,.1-.07.14-.2.14-.03,0-.1-.03-.2-.1M8.74,21.56c.17.07.27.1.31.1,0,.14-.1.2-.27.2-.14,0-.2-.07-.2-.17,0-.03.07-.1.17-.14M9.59,21.8l-.07-.2.1-.07c.31,0,.48.17.48.51,0,.2-.1.44-.27.75-.17.31-.37.44-.54.44-.1,0-.2-.1-.31-.27l.17-.03c-.1-.03-.14-.07-.14-.1,0-.1.07-.14.17-.14h.07l-.03-.14.31-.07c-.2-.14-.31-.24-.31-.34s.03-.14.14-.1h.07l-.14-.17c.03-.1.07-.14.14-.14-.03,0,.03.03.17.07M8.13,21.5h.1l.07.14-.03.03-.07.17c-.1,0-.14-.03-.17-.1v-.1c0-.1.03-.14.1-.14M7.55,21.29c.1,0,.17.03.17.1,0,.1-.07.17-.17.17s-.14-.03-.14-.14.03-.14.14-.14M23.03,21.05c.07.1.1.2.1.24v.27l-.03.37c0,.14-.07.27-.17.37-.1.14-.24.27-.41.34-.17.14-.34.2-.48.27-.2.07-.34.1-.44.1l-.58-.03h-.24l-.1-.03.51-.1h.14c.24,0,.58-.17,1.02-.48.1-.17.17-.34.24-.48.03-.17.07-.31.1-.41l.2.07.14-.51ZM8.47,21.12l.2.07.03.03-.03.07-.14.07c-.1,0-.14-.03-.14-.14l.07-.1ZM19.42,21.33l.1-.41.14.17.14.14.03.2.03.85.17.27-.41-.03v-.14l-.17-.07.1.31.31.2-.44.03.1.04-.03.07c-.41,0-.68-.2-.78-.58l.44-.03-.03-.07c-.03-.24-.07-.34-.07-.31l.1-.14c.07-.14.17-.27.27-.51M7.93,20.99l.1.14c0,.1-.03.17-.1.17l-.1-.1v-.03l.03-.1.07-.07ZM6.29,23.06c-.24.07-.44.1-.61.1-.75,0-1.12-.38-1.12-1.16,0-.31.1-.61.27-.85s.37-.37.61-.37c.07,0,.17.03.31.1l.14.07c.2.14.34.24.44.34.31.17.48.31.48.34l-.03.07-.07.07.07.14-.17.07-.07.17-.2-.03v.17l-.51-.1.51.17h.1v.07l-.2.07.17.07.1.07-.07.14.03.07-.1.03v.1l-.07.1ZM21.87,20.61l.2.2.24.14.1.03.24.2-.17.2v.51l-.17.37-.27-.24v-.27l-.24.14-.1.2-.17-.1-.1-.17c.07-.2.1-.37.1-.48,0-.03,0-.1-.03-.2,0-.07,0-.17-.03-.27l.34.17-.07-.1-.03-.14.31.14-.14-.34ZM24.22,20.54c.07-.31.2-.48.44-.48.44,0,.68.31.68.92,0,.27-.1.61-.27,1.05.03-.1.03-.2.03-.27.03-.1.03-.17.03-.24,0-.2-.03-.41-.14-.61l-.17-.2c-.17-.14-.31-.2-.37-.2l-.24.03ZM10.85,19.93c.1.17.14.34.14.51,0,.14-.07.31-.24.44-.14.2-.27.27-.41.27-.2,0-.27-.14-.24-.41v-.07c.1.1.24.17.34.17.24,0,.37-.31.41-.92M23.47,19.79c.24.2.34.48.34.85,0,.2-.07.31-.24.31h-.2c.17.24.24.41.24.54,0,.1,0,.17-.03.2l-.27.58-.03.27c-.03.07-.14.1-.24.1s-.17-.03-.17-.1l.2-.24c.1-.17.17-.37.17-.68,0-.1,0-.2-.03-.31,0-.1,0-.24-.03-.34l-.1-.14s0-.1.07-.24c0-.1.03-.2.03-.27h.14l-.07-.17.17.03-.03-.17.1-.24ZM16.36,19.86c.37.44.71.68.95.68.17,0,.31-.07.48-.24-.07.44-.31.65-.71.65-.2,0-.37-.1-.54-.34l-.17-.75ZM3.33,22.52c-.03-.1-.03-.17-.07-.2v-.17c0-1.56.54-2.31,1.6-2.28h.34l.03.48h-.24c-.92,0-1.36.51-1.36,1.5,0,.51.17,1.02.54,1.6l.1.2.82.75c.71.44,1.39.65,2.11.65.51,0,1.05-.1,1.67-.34.17-.1.34-.17.44-.27.14-.07.24-.14.34-.2h.03s.07.03.31.07c-.61.78-1.56,1.16-2.86,1.16-.95,0-1.77-.27-2.45-.82-.71-.51-1.16-1.22-1.36-2.11M8.4,19.73l-.03-.07c0-.1.07-.14.24-.14s.37.03.51.14c.2.1.27.17.27.24l-.1.14.07.17.2.14v-.2c.17.24.27.44.27.61,0,.27-.14.41-.41.41-.03-.1-.07-.14-.1-.14l-.1.03-.03-.1c-.1-.03-.17-.1-.17-.17,0-.14,0-.2.03-.24-.14.14-.24.2-.34.24l-.03-.1-.03.07-.1.1s-.1-.03-.17-.14l-.1.1-.14-.1c.14-.31.2-.61.2-.99h.07ZM14.93,21.43c.31-.24.44-.48.48-.78l.03-.34.07-.38.03-.58.07.07.03.37.07.51.03.2c.03.82-.17,1.22-.61,1.22-.2,0-.31-.07-.31-.17l.07-.07.03-.07ZM5.65,20.48c-.14-.1-.2-.2-.2-.34s.03-.24.14-.34c.51-.44.99-.68,1.43-.68.61,0,.95.24,1.02.71h-.1s-.07.03-.07.14.07.2.24.31c-.1.37-.27.58-.44.58-.14,0-.24-.1-.31-.27l-.17.03c.07.14.1.24.1.34,0,.17-.1.27-.34.27-.17,0-.37-.07-.61-.24l-.24-.17-.37-.24-.07-.1ZM18.88,18.98c.1.58.41.92.85,1.02-.1.14-.24.2-.37.2-.37,0-.54-.2-.58-.65l.03-.34.07-.24ZM18.64,17.89c-.17.17-.31.27-.41.27-.07,0-.14-.03-.24-.14l.65-.14ZM19.01,17.86v.44l-.41.78-.1.58-.07.2.14.65.14.48.24.54v.03c0,.1-.07.17-.17.17h-.03l-.03-.1-.27-.41-.1-.24c-.14-.37-.2-.65-.2-.88,0-.99.31-1.74.89-2.24M11.05,17.96l.48.44.41.03c-.1.2-.24.31-.34.31-.17,0-.31-.1-.44-.31l-.03-.1-.2-.31-.03-.07-.03-.1.2.1ZM20.95,17.79c.2,0,.31.07.31.2,0,.17-.1.27-.31.27-.17,0-.27-.07-.27-.24v-.07c.07-.1.17-.17.27-.17M21.73,18.06c.07-.2.24-.31.51-.31.17,0,.37.1.65.31.34.31.65.51.92.65.24.07.44.14.58.14.1,0,.2,0,.24-.03l-.07.37h-.38s-.07.03-.1.14c-.07.07-.14.1-.24.1h-.03l-.41-.17-.34-.41c-.1-.1-.17-.2-.2-.27l-.44-.03.2-.17v-.07c-.2.03-.31.14-.34.31h.14l.2.37.27.14v.03l.1.03c.24.17.37.34.37.51,0,.1-.1.14-.27.14h-.2c.1.31.17.51.17.61,0,.17-.14.37-.37.61l-.2-.14-.24-.14c-.2-.17-.31-.37-.34-.65l-.1.03c-.03.34-.1.51-.2.51s-.2-.03-.31-.1l-.07-.1-.03-.34.07-.51-.1-.17-.17-.07.07-.1.14-.07h-.07c-.17,0-.27.03-.27.1,0,.1,0,.17.03.2v.34c-.03.2,0,.38.1.51l.24.34.1.34.07.2v.37l-.1.07-.2-.1c-.03.68-.41,1.12-1.09,1.29.34-.44.51-.85.51-1.23,0-.17-.03-.41-.1-.71l-.07-.37v-.34l-.03-.51c-.03-.07.03-.34.17-.78.17-.31.31-.44.48-.44.07,0,.17.03.31.1l.17.1c.2.24.34.41.41.51h.1l-.27-.44-.07-.03c-.07-.14-.1-.24-.1-.31,0-.1,0-.17.03-.2.1-.03.14-.07.14-.14v-.14l.07.1ZM24.08,17.62l-.07.03h-.44l-.2.2v-.27c0-.07.1-.1.27-.1.14,0,.27.03.44.14M9.66,18.54c-.27-.48-.65-.75-1.12-.82l-.54-.07-.07-.17.68.07c.1.03.2.07.37.14.14.03.31.14.48.24.51.31.75.65.75,1.05,0,.44-.24.65-.68.65-.17,0-.31-.14-.44-.37.24.03.34.07.31.07.1,0,.2-.07.31-.24l.07-.27v-.14l-.1-.14ZM17.01,17.28l.17.14.03.07v.07c-.03.07-.1.1-.2.1s-.17-.07-.17-.17c0-.07.07-.14.17-.2M16.26,17.18l.27.07.03.1c0,.1-.03.14-.14.14s-.17-.07-.17-.2v-.1ZM8.88,17.04l.54.17c1.36.71,2.04,1.8,2.08,3.33v.58c.03,1.19-.27,1.84-.95,1.9.37-.65.54-1.26.54-1.87l-.03-.17v-.75l-.37-1.02-.17-.34-.34-.48-.1-.14-.27-.2c-.37-.31-.75-.51-1.19-.61-.14-.03-.2-.07-.2-.14l.51-.2-.03-.07ZM14.9,16.94l.27.34c.51.65.85,1.26.95,1.8l.31,1.7c.17.88.65,1.67,1.5,2.38l.2.17.27.2,1.36.82c.24.1.48.14.65.2l.51.07.14.44h-.24c-.51,0-.92-.1-1.29-.31l-.51-.27-.34-.14.41.24.54.27.1.07c.31.17.48.41.48.65,0,.17-.07.24-.24.24l-.14-.03v-.31l-.14-.2-.03-.1v-.07c-.17-.1-.34-.2-.51-.27l-.51-.27-.31-.27v-.1l.14.1.03-.07c-.31-.2-.61-.41-.85-.61-.24-.2-.44-.41-.61-.65l-.34-.48-.17-.24-.17-.34-.17-.58-.07-.1-.48-2.24-.07-.27-.1-.24-.07-.17-.37-.65c-.1-.17-.17-.31-.17-.37,0-.17,0-.27.03-.34M15.85,16.73l.31.17c-.1.1-.17.14-.2.14-.1,0-.14-.03-.14-.14s0-.14.03-.17M17.01,16.67c0,.31-.1.48-.31.48-.1,0-.14-.03-.14-.14,0-.2.14-.31.44-.34M17.28,16.97l-.17-.54v-.07l.03-.07c.2,0,.31.14.31.41,0,.17-.07.27-.17.27M16.33,16.12c.24,0,.34.1.34.27,0,.2-.1.31-.34.31-.17,0-.27-.07-.27-.24s.1-.31.27-.34M15.85,16.36c0,.2-.1.31-.34.31-.14,0-.2-.1-.2-.31s.1-.31.27-.31.27.1.27.31M18.16,17.01c-.2-.2-.31-.41-.31-.61,0-.17.07-.31.2-.41l.27-.14h.1v.24c-.03.54.27.82.92.82.1,0,.14,0,.17-.03l1.05-.41.54-.14.31-.07.99-.03.31.1,1.22.48.31.2.48.34.24.24.1.07c.65.71.95,1.6.95,2.72,0,.44-.07.92-.2,1.5l-.17.34-.2.48c-.14.31-.37.65-.75,1.02l-.03-.24-.03-.14-.03-.07c0-.07.07-.17.24-.31.24-.31.44-.68.61-1.12l.14-.27-.14-.31.14.17c.07-.44.1-.82.1-1.12,0-.55-.1-1.06-.34-1.5l-.27-.44-.14-.2-.34-.37-.1-.1c-.78-.68-1.67-1.02-2.59-1.02-.34,0-.58.03-.75.14l-.24.1-.31.1-.07.14c-.37.24-.54.51-.54.89,0,.1.07.24.2.41-.03.17-.1.24-.24.24-.24,0-.37-.17-.41-.51l-.31.1c0-.27.07-.51.24-.75.31-.31.44-.41.44-.38,0-.1-.07-.14-.2-.14l-.1.03-.71.41c-.14.03-.27.07-.44.07-.44,0-.65-.07-.65-.24,0-.1.1-.17.34-.27M16.63,15.75l.07-.03h.07c.1,0,.17.07.17.2,0,.1-.07.17-.2.17-.07,0-.1-.1-.1-.27v-.07ZM16.43,15.88c-.24-.1-.34-.2-.34-.34s.07-.2.17-.2c.14,0,.2.1.2.27,0,.14,0,.24-.03.27M22.75,16.19c-.44-.03-.68-.24-.68-.61,0-.24.1-.34.31-.31h.1c-.1.17-.14.31-.14.41s.14.27.41.51M15.44,15.61l-.58-.17-.03-.07v-.03l.07-.1c.07,0,.17.03.31.1l.44.24c.31.14.44.24.44.34l-.03.14-.61-.44ZM9.28,15l.54-.07h.07c.58,0,1.05.14,1.46.37.44.27.65.58.61.95l-.03.68.03.17c0,.1-.14.24-.44.48l-.03-.37-.17.03-.27.2-.17.07-.27-.07c-.27-.14-.41-.31-.41-.51l.07-.31.1.17.27.2c.51-.03.75-.2.75-.51,0-.03,0-.1-.03-.2,0-.1,0-.2-.03-.31-.14-.51-.51-.82-1.09-.85l-.58-.03-.37-.1ZM14.32,14.63l.27.07.07.68-.03,5.14v.85l.03.34v.27c.1.51.24.82.44.99l.14.07v.1l-.37-.24-.14-.07-.2-.31c-.17-.31-.24-.54-.24-.71v-5.68l.03-1.5ZM12.04,15.07l-.71-.2c-.41-.1-.71-.14-.92-.1h-.61c-.24-.03-.44,0-.61.07-.17.03-.27.07-.37.07l-.07-.07c0-.27.37-.41,1.12-.41.24,0,.48,0,.72.07.24,0,.48.07.68.07.2.07.37.1.51.14.14.03.2.07.2.1l.07.27ZM12.41,14.29l.85.1.85.2.07,1.67-.03,4.22v1.26l.1.61.14.14.07.14.07-.03.17.31.1.07.41.2,1.12.37c-.07.24-.2.37-.44.34l-2.01-.24c-.07-.03-.24-.03-.48-.03s-.48,0-.75.03l-.92.1c-.31.07-.54.1-.71.1-.58,0-.85-.1-.85-.27,0-.1.41-.27,1.22-.51.31-.1.48-.27.58-.51h.07l.1-.34.07-6.84v-1.09h.2ZM2.08,14.76l-.07-.31.17-.24v-.17c.03-.1.1-.17.24-.27l.24-.1.03.07-.2.31s-.03.1-.03.27c0,.1.1.31.27.54l.17.17c.03.1.03.17.03.2l.03.17c0,.14-.1.2-.31.24-.03.24-.07.44-.1.61-.03.14-.03.24-.07.27-.24.31-.44.51-.54.61l-.03-.31.07-.2.07-.27-.03-.51c-.14,0-.27.07-.37.17l-.1-.07-.1-.37v-.14l.04.07.07-.37.07-.2.2-.51.24.54.03-.07v-.14ZM4.22,13.33c.31.1.48.37.48.82,0,.17-.07.41-.17.68l-.65,1.02-.03.07-.03.1c0,.1.07.2.24.27l.03-.1c.2-.24.31-.41.31-.58l.07-.03.07-.1.2-.34.2-.27.17-.2.41-.27c.14-.1.27-.2.37-.31.17.03.2.1.17.17v.1l.14.03.2-.34.24-.17.51-.14.31-.1c.1-.03.17-.03.24-.07v.2c0,.14-.07.31-.17.48l.2.03c-.14.27-.27.44-.44.51-.03.03-.27.1-.71.24-.31.1-.44.24-.44.44,0,.1.1.1.31.07h.1l.37-.31.2-.07.31-.17c.24-.1.48-.14.68-.14.24,0,.34.03.34.1,0,.14-.07.24-.2.34l.24.07c.07-.03.17-.03.27-.03h.24c.17,0,.31,0,.37.03l.37.07h.38c-.34.71-.78,1.05-1.29,1.02h-.31s-.07.07-.1.17l.1.07c.1.07.17.14.17.17,0,.17-.24.27-.68.27h-.2c-.1,0-.17,0-.24-.03l-1.5-.24h-.1c-.24-.03-.37.03-.37.24v.07c.03.07.1.1.2.1l.85-.1h.03c.2,0,.44.03.72.14l.24.1v.03c0,.1-.07.2-.17.31l.37.07.24.48.2.24-.31.14-.14-.03c-.1,0-.24,0-.41-.03l-.38-.03s.03.07.03.17-.07.14-.2.14-.27-.03-.44-.14c-.44-.24-.82-.34-1.12-.34-.68,0-1.29.27-1.87.82l-.27.24-.24.31-.17.17c.03-.17.1-.31.14-.44l.14-.41.03-.17.17-.34c.37-.75.85-1.33,1.39-1.73.1-.1.2-.17.31-.24l.24-.14.2-.03.2-.1h-.07l.31-.03-.17.03.14-.1.85-.07-.34.03.31-.07.41-.03h-.75c-1.22.17-2.18.71-2.82,1.67-.65.99-.99,2.24-.99,3.81,0,.92.2,1.77.58,2.58l.1.27.27.31.07.1s-.07.1-.17.14l-.48.1h-.03c-.17,0-.31-.1-.41-.31l-.34-.51c0-.07-.03-.17-.14-.24-.07-.14-.1-.2-.1-.27l.07-.1-.14-.37-.03-.1-.07-.2c-.03-.1-.03-.17-.07-.24v-.14c0-.1,0-.2.03-.27l-.07-.31.03-.65-.03-.44.03-.14.03.07.03-.44.2-.68.07-.31.44-1.22.03-.14.03-.1.14-.27.07-.14.44-1.02.14-.51c.03-.17.03-.31.07-.41v-.82l-.24-.58-.1-.17.03-.1-.17-.14.27-.07.37-.03.27-.1.27.1.14-.2.1-.17ZM25.1,13.16l.03.2.17.07.2.07c.24.24.34.44.34.68,0,.27-.03.44-.14.54l-.65.61c-.07.07-.1.17-.1.34,0,.24.2.44.61.58-.14.07-.24.1-.34.1h-.1l-.1-.1-.2-.2c-.03-.14-.07-.24-.07-.34,0-.31.2-.68.58-1.05l.1-.27-.14-.41-.27-.07c-.17,0-.34.1-.48.34-.14.24-.2.48-.2.75,0,.31.07.54.2.78l.88,1.4.07.27.14.34-.58-.71-.48-.68-.14-.03-.07-.27-.27-.58-.03-.1c0-.07,0-.17-.03-.27l-.03-.37v-.07c0-.44.2-.85.58-1.19l-.1-.03h.14v-.1l.24-.1.24-.1ZM16.26,12.75l.17-.1.14-.03c.41,0,.61.24.61.71,0,.58-.31.89-.92.89-.1,0-.34-.07-.75-.17v-.1c.1.03.2.03.27.07h.14c.58,0,.88-.24.88-.75,0-.17-.17-.31-.54-.44v-.07ZM7.65,12.65c.1.03.14.07.17.1,0,.03-.2.14-.61.31v-.07l.44-.34ZM1.57,12.92c.1-.17.24-.27.34-.27l.51.1h.2l.14.14-.24.1-.37-.17h-.07c-.17,0-.27.07-.27.2s.07.24.2.34l-.14.1c-.2,0-.31-.17-.31-.48v-.07ZM24.93,12.58l.31-.14s.1-.07.2-.07c.27,0,.41.17.37.51v.17c-.2-.2-.37-.31-.54-.31h-.07l-.1.03-.1.14-.41.2-.34.31-.44.27c.27-.2.48-.44.65-.75h.14v-.17l.34-.2ZM6.29,13.09l-.03-.14-.03-.14c-.07-.17-.1-.27-.1-.31l.1-.1c.14,0,.2.07.2.17s0,.17-.03.2l.03.17c0,.07-.03.1-.14.14M3.23,12.38h.03l.1.07c0,.2-.07.31-.24.31-.14,0-.2-.07-.2-.17,0-.14.1-.2.31-.2M5,12.55c.03-.17.17-.27.37-.27.34,0,.51.2.51.61,0,.31-.27.75-.85,1.33.1-.14.14-.24.17-.34.1-.17.17-.34.17-.51.07-.17.07-.31.1-.48l-.03-.07c-.1-.17-.27-.24-.44-.27M3.78,12.21h.03c.2,0,.31.07.31.2,0,.17-.07.27-.24.27s-.24-.07-.24-.24c0-.14.03-.2.14-.24M20.99,12.04l.2-.14.27.03c.31.03.44.2.44.54,0,.17-.07.37-.24.68l.03.07.07.17v.03c0,.1-.1.24-.34.44-.24.17-.44.27-.65.27l-1.09.07c-.14,0-.2.07-.2.2,0,.1.03.14.14.17h.44c.07,0,.2-.03.37-.07l.34-.17.17-.07c.07,0,.14-.03.24-.07l.2-.03c.2-.1.41-.17.65-.2l.14-.07.27.03.27-.03.31.03.31.1-.17.24.07.1c.37.07.58.2.58.37l-.07.2c-.31-.17-.58-.27-.78-.27-.17,0-.27,0-.31.03l-1.94.61c-.44.1-.95.17-1.5.17l-.14.03c-.34-.07-.55-.14-.61-.2v-.41l-.58.14-.14.03c-.1,0-.17,0-.24-.03l-1.39-.17-2.59-.68-.95-.17-.88-.1-.34-.03s-.17-.03-.37-.03h-.1c-.78,0-1.36.07-1.77.17l-.82.27-.34.1-.03-.14c0-.1.07-.2.2-.24l.85-.27c.1-.03.34-.07.68-.1.71-.07,1.12-.1,1.26-.1.44,0,.85.03,1.19.03.41.07.75.1,1.06.14h-.17c.17.03.34.03.48.07h.37l.41.14.71.1.85.31c.37.14.78.2,1.22.2h.17c.17-.03.41-.03.71-.07l.27-.03.1-.07h.14l-.07-.17-.1-.1-.03-.17-.03-.03c.03-.24.34-.37.92-.41h.41l.31-.07.41-.07h-.1l.31-.07c.2-.1.41-.24.58-.37.17-.17.27-.34.27-.51,0-.14-.1-.27-.31-.37M7.07,11.97c.1.03.14.07.14.1,0,.34-.1.65-.31.92l-.17.27c-.17.24-.37.41-.54.48l.51-.88.07-.14.03-.2v-.27l.27-.27ZM5.85,12.04l-.1.14-.1-.14h.2ZM6.26,11.84h.07c.1,0,.14.03.14.14v.03l-.17.1c-.1,0-.14-.03-.14-.14l.1-.14ZM2.76,11.84c.14,0,.2.07.2.2,0,.17-.07.24-.24.24-.1,0-.17-.03-.17-.14,0-.2.07-.31.2-.31M16.87,11.8l.95.37.41.2c.14.1.2.31.2.58,0,.17-.07.34-.17.44l-.34.14.1-.41.03-.07c0-.37-.41-.75-1.22-1.09-.1-.03-.2-.07-.31-.17l.03-.14.31.14ZM22.48,11.6c.1.07.14.14.14.17l-.03.14.14-.07c-.03.41-.1.61-.2.61l-.1-.03.07-.82ZM6.94,11.63l.07.1c0,.1-.07.14-.2.14-.1,0-.14-.07-.14-.17l.03-.07.1-.1.14.1ZM8.6,12.38l-.1.07h-.03c-.24,0-.37-.2-.37-.58s.17-.61.48-.65l.17-.03.24-.1h.1c.17,0,.34.07.58.24l.2.17.14.31.1.17v.1c0,.1,0,.17-.03.2-.17.51-.34.82-.55.92l-.54.31-.1.1-.31.07c.65-.44.95-.92.95-1.46,0-.17,0-.24-.03-.27l-.2-.17-.14-.14c-.07-.07-.17-.1-.27-.1l-.14.03-.24.1-.14.1.03.17-.03.2.24.24ZM7.11,11.29c.03-.17.07-.24.17-.24s.17.07.17.17c0,.14-.07.2-.17.2-.03,0-.1-.03-.17-.14M19.22,10.75l.14-.07c.24,0,.34.14.34.37,0,.1-.03.2-.1.38-.31.2-.58.31-.75.31-.65,0-1.26-.17-1.91-.51l.07-.1c.54.24.95.37,1.19.37.1,0,.34-.07.72-.17.17-.14.27-.34.31-.58M7.72,10.68v.14l-.14.03c-.1,0-.17-.07-.17-.2,0-.1.07-.14.17-.14l.1.07.03.1ZM14.45,10.37c.17.17.24.31.24.44,0,.41-.14.61-.37.61-.1,0-.2-.03-.31-.1.24-.07.41-.2.51-.44l-.07-.51ZM14.76,9.9c.31.2.44.34.44.44s-.03.14-.14.17h-.1l-.24-.17c-.07-.03-.1-.07-.1-.17s.03-.17.14-.27M23.33,9.69l.27-.17c.31,0,.54.03.65.1.17.27.24.51.27.71.03-.03.14-.03.24-.03.17,0,.27.14.27.37l-.07.2-.2.41c-.17.44-.31.65-.41.68l-.14.07s-.14.1-.2.27c-.14.2-.41.44-.85.68v.1l.34-.14.03-.07.24-.14-.03-.07h.14l.03-.1c.27-.2.48-.41.65-.65l.1-.2.2-.31.2-.17s.14-.03.31-.03c.2,0,.31.03.31.1,0,.17-.14.24-.44.27l-.37.37-.48.71c-.07,0-.24.17-.51.51-.24.34-.65.54-1.22.58l-.34.03-.27.07h-.14l-.07-.03.1-.1c.07-.1.1-.17.1-.27,0-.14,0-.24-.03-.31l.37-.17.27-.24.1-.1.14-.17.24-.31c.03-.14.1-.2.24-.2l.34-.58c.17-.24.24-.48.24-.72,0-.2-.07-.44-.2-.68l-.41-.31ZM14.86,9.49l.14.03.07.14.31.27v.03s-.07.07-.17.1l-.17-.27c-.1-.07-.17-.14-.17-.2v-.1ZM14.86,8.91c.24.27.41.41.58.41s.27,0,.34-.03c-.07.2-.17.31-.27.31-.24,0-.48-.2-.75-.61l.1-.07ZM11.97,9.15l.51-.27h.1l.1.03s-.24.17-.68.41l-.03-.17ZM3.61,8.5c.17,0,.27.07.27.24,0,.1-.03.14-.1.14-.17,0-.27-.07-.27-.24l.03-.03.07-.1ZM18.64,8.23l-.17.38-.37.44-.14.24-.24.24-.24.44-2.76,3.84-.27-.1.37-.61.44-.58.1-.24.41-.51c.1-.2.24-.34.34-.44l1.67-2.38.48-.72.07-.03.31.03ZM13.77,8.4l.2-.24.37.44.1.2c.14.24.2.44.2.61,0,.34-.07.51-.2.51-.03,0-.1-.1-.2-.27l-.1.03c-.07.54-.14.92-.27,1.05-.07.2-.27.27-.54.31.14-.31.2-.65.17-1.02v-.54l-.03-.17-.03-.14-.03-.34.2-.17.17-.27ZM22.96,9.83l.03-.61c.03-.51.27-.89.75-1.12.1-.07.2-.1.34-.1s.24.07.31.2l.1.31-.61-.17c-.37,0-.68.51-.85,1.5-.03.03-.03.07-.03.17l-.03.2-.1-.03.1-.34ZM2.86,8.16v-.14l.17.1v.24l-.2-.14.03-.07ZM3.23,7.86l.07-.03c.2,0,.31.07.31.24,0,.1-.03.14-.14.14-.2,0-.31-.07-.31-.24l.07-.1ZM3.94,7.72l.2.14-.27.03.07-.17ZM17.45,7.55l.03-.1.48.31.68.2.07.14-.61-.17-.24-.1c-.1-.07-.24-.17-.41-.27M13.81,7.58l.07-.1.07.27-.1.24-.27.41-.2.2-.1-.1v-.1s.14-.17.44-.61l.1-.2ZM3.5,7.28h.07c.1,0,.14.03.14.14s-.1.17-.27.17l-.07-.03c0-.17.03-.24.14-.27M11.8,7.45v-.24l.31.14.14.14c.1.07.2.17.34.34.44.44.65.82.65,1.16,0,.37-.17.58-.55.58-.03,0-.17-.07-.34-.17.41-.14.61-.27.61-.37,0-.2-.1-.44-.34-.75l-.17-.27s-.17-.14-.34-.24c-.2-.1-.31-.2-.31-.31M9.97,7.24l.14-.14.1-.03s.1.03.2.1l.2.27,1.02,1.63,2.18,3.13.03.14c0,.1-.07.24-.17.34l-.54-.75-.24-.34-.07-.17-.27-.38-.1-.14-.34-.51-.14-.17-.03-.07-.07-.2-.27-.37-.61-.85-.2-.34-.07-.1-.31-.48-.44-.58ZM9.76,7.07l3.2,4.76.1.14.54.78.14.07.24-.41.1-.24.34-.41.14-.14.2-.31c.1-.1.2-.24.27-.31l.17-.27.17-.31.31-.41.51-.75.07-.03.82-1.16.17-.27.07-.1.07-.07s.1.07.2.17l.44.2.14.07-3.81,5.51-.03.07-.03.03-.41-.1-.65-.07-.65-.1-.95-.03c-.03-.1-.1-.17-.17-.24s-.14-.14-.17-.24l-.24-.44-.07-.07-.14-.2-.1-.17-.14-.17-.17-.24-.14-.2-.07-.14-.55-.82-.44-.68-.58-.82-.07-.14-.27-.44-.34-.44-.1-.2c0-.1.14-.2.44-.31l.17-.1h-.1l.41-.14.95-.14ZM1.7,6.9l.41.14.24.27.14.14.14.24-.34-.2-.14-.17c-.03-.07-.14-.1-.27-.1-.2,0-.31.1-.31.27,0,.03.03.14.07.31-.17-.1-.27-.24-.27-.34l.03-.2c.03-.17.14-.31.31-.34M8.33,6.87c.37-.17.78-.24,1.19-.24,1.09,0,1.63.17,1.6.54v.1c-.14-.03-.24-.07-.34-.1-.37-.14-.78-.2-1.16-.2-1.39,0-2.07.51-2.07,1.5,0,.37.2.68.61.99l.27.14.51.1c.1.03.14.07.14.17s-.07.14-.17.14c-.58,0-1.05-.24-1.43-.75l-.1-.07-.03-.1-.07-.07-.07-.17-.03-.44c0-.24.07-.48.17-.71.14-.27.34-.48.61-.65l.17-.07.2-.1ZM21.16,5.37l.2.07c-.14.24-.2.44-.2.55,0,.51.27.88.85,1.19l.17.07c.48.27.71.61.71.99,0,.31-.07.51-.24.58l-.27.14.24.41c.03.14.07.27.07.41,0,.58-.14.99-.41,1.19l-.27.24-.17.21-.2.03-1.02.51-.61.14c-.37.07-.61.1-.68.1h-.03c-.14-.03-.31-.03-.44-.07-.2,0-.38-.03-.58-.07l-.54-.07-.71-.27-.27-.1v-.14l.07-.03.07-.07c.24.17.37.24.41.24.61.31,1.26.41,1.97.37l.14-.03.51-.14.61-.1.37-.1c.17-.07.31-.17.34-.27l.03.03c.24-.1.44-.21.58-.34l.37-.48.07-.1.07-.34c0-.07-.07-.2-.2-.37-.1-.1-.2-.14-.34-.14h-.03c.03.1.03.2.07.27v.14c0,.41-.27.61-.82.61-.17,0-.31,0-.37-.03-.44-.03-.85-.07-1.12-.1-.34-.03-.54-.03-.71-.07h-.07c-.48,0-.78.2-.95.65l-.17-.17-.03-.2s-.03-.1-.03-.2v-.03c0-.1.07-.24.17-.37.1-.2.2-.27.27-.27l.2-.07.24-.1.1.1-.2-.27-.03-.03c.03-.24.17-.34.48-.34h.07l.41.1.34.24.14.03.07.03c.34.1.54.17.58.17.17,0,.27,0,.34-.03h.03c.1,0,.17-.07.2-.2l.07-.03.03.17c0,.1-.07.14-.24.17v.14l.14-.03.14-.03c.14.03.2.07.17.07.1,0,.14-.03.14-.1l-.03-.24.07-.03-.2.03-.03-.17-.03-.07-.2-.03v.1c-.17-.07-.31-.1-.41-.1h-.14l-.31.07-.1.03c-.14,0-.31-.1-.51-.31l-.1-.07.03-.1.31-.1h-.03l-.03-.07c-.37-.03-.65-.38-.75-.95l.27-.03.24-.17c.17-.07.31-.1.44-.1.1,0,.2.03.31.1l.1.14.24-.03-.27-.54c.24-.03.34-.07.37-.07.14,0,.34.14.58.41l.07.07c.24-.03.38-.1.38-.14l-.17-.27-.41-.44-.03-.07-.17-.14-.07-.34.07-.27c.03-.1.07-.17.1-.27l.2-.2ZM2.76,6.73c-.07-.17-.1-.31-.1-.41,0-.17.07-.37.17-.54.1-.2.24-.31.41-.31.31,0,.48.14.48.38l-.1.14c-.1-.1-.2-.14-.37-.14-.24-.03-.34.14-.34.51,0,.24.07.51.24.82h-.07s-.1-.07-.2-.17l-.1-.27ZM11.36,6.6c.24-.85.41-1.26.54-1.26.1,0,.17.07.17.17l-.44,1.09.03.1c.03.1,0,.27-.07.51v.07c0,.1,0,.2.03.27l.1.48.48.78-.24.07-.14-.1-.2-.24c-.17-.54-.27-.85-.27-.88v-1.05ZM4.39,6.05l.03-.2.14-.14.14-.17c.1-.1.24-.17.41-.17.44,0,.68.1.71.31l.03.51c.03.17.14.27.27.27.03,0,.17-.03.34-.07,0,.34-.17.51-.48.51-.1,0-.24-.1-.34-.27l-.07-.07v-.31l.03-.65s-.1-.03-.2-.03c-.24,0-.34.2-.34.65,0,.34.14.65.44.95l.14.14.1.14.24.24.1.2.14.14.14.1c.1.17.2.31.31.38.1.14.17.2.24.31.24.37.38.78.38,1.19,0,.51-.17.92-.48,1.22-.31.31-.71.48-1.19.48-.78,0-1.22-.17-1.39-.55l-.1-.2-.14-.1-.41-.71-.2-.27c-.31-.24-.54-.34-.75-.34-.58,0-.88.31-.88.92,0,.41.2.71.58.88l.24.07.71-.07c.24,0,.34.17.34.48,0,.17-.1.27-.27.27-.1,0-.14-.03-.14-.1,0-.1,0-.17.03-.2l-.03-.07-.27-.14-.58-.03c-.44-.03-.75-.38-.92-1.02v-.2c0-.34.07-.58.24-.75l.14-.17c.1-.1.2-.17.31-.2.24-.03.34-.07.34-.14s-.1-.14-.27-.17c.14-.17.27-.24.44-.24l.24.03.1.03.37.2.1.07c.31.31.48.51.51.61l.14.37c.03.1.1.17.2.24l.24.27.2.2h.14l.1.07.14.07-.07.1.37-.07c0-.17-.07-.24-.24-.24-.24,0-.34-.03-.37-.1l-.1-.1-.27-.14-.03-.17h-.1v-.1c-.1-.1-.17-.2-.17-.24v-.14h.24l.14-.1-.24-.27-.1-.61-.17-.24c.1-.07.17-.1.27-.1.03,0,.1.03.2.1.2.07.37.14.51.2l.07.03.17.2.03.07c.14-.03.2-.1.2-.2v-.1l.24-.07.07.1.14.1.24.24.17.17.2.17-.07-.14.03.07.07.07-.07.1.14-.03-.27-.37-.2-.24-.31-.27-.2-.1c-.2-.14-.34-.24-.41-.24-.07-.07-.17-.1-.27-.14-.37-.17-.65-.37-.85-.65l-.1-.17s-.03-.14-.1-.27c-.03-.17-.07-.27-.07-.34.03-.03.1-.07.27-.1l.31.17v-.61ZM17.04,5.17h.31c.1.03.14.14.14.34,0,.17-.1.27-.27.27-.2,0-.31-.1-.31-.31,0-.1.03-.2.14-.31M23.37,4.83h.24c.14-.03.31,0,.48.14.2.07.38.17.48.24.1.1.2.2.27.31.1.1.17.17.24.27l.14.31.1.44.14.65c.03.24.07.37.07.41,0,.2-.03.44-.1.75-.07.31-.1.51-.14.61-.03.24-.07.34-.17.34.07-.41.1-.78.1-1.12,0-.51-.14-1.12-.41-1.77l-.37-.41-.14-.1h-.31c-.41,0-.61.2-.61.58,0,.34.17.51.51.51.17,0,.31,0,.34-.03-.1.31-.37.48-.75.48-.17,0-.37-.1-.61-.34l-.1-.17c-.07-.17-.1-.27-.1-.37l.03-.1.14-.31.03-.1.03-.14c-.17.14-.31.2-.41.2-.14,0-.2-.07-.2-.17,0-.07.1-.31.31-.68l.2-.14.1-.1.27-.14h.51l-.31-.03ZM16.73,4.86l.17.03c-.31.37-.48.72-.48,1.02,0,.44.27.88.78,1.26.1.1.17.17.17.2v.1c-.78-.41-1.19-.99-1.19-1.7,0-.27.14-.55.44-.85l.1-.07ZM12.04,4.86c.17.1.27.2.37.24l.2.1c.07.03.17.03.31.07.14.03.31.03.48.07v.1c-.03.1-.1.14-.2.17h-.03c-.07,0-.17-.03-.31-.03-.14-.07-.27-.1-.41-.14s-.24-.1-.34-.14c-.1-.07-.14-.14-.14-.2,0,.03.03-.07.07-.24M17.79,4.69l.03-.03c.1,0,.17.07.17.24s-.1.27-.27.27c-.14,0-.2-.07-.2-.17l.14-.14.14-.17ZM21.87,4.52l.31-.07.27-.07c.1,0,.17.03.17.14,0,.03-.07.07-.17.1-.34.14-.51.58-.51,1.29,0,.24.07.48.2.71l.17.37.1.27-.78-.41c-.1-.03-.17-.14-.2-.27-.1-.31-.17-.48-.17-.58s0-.17.03-.2l.17-.34v-.31l.07-.14c.03-.17.17-.34.34-.51M16.36,4.32c.24,0,.34.07.34.24,0,.1-.07.17-.17.2-.14.07-.24.1-.27.1-.1,0-.17-.07-.17-.17v-.1c.07-.17.17-.27.27-.27M17.04,4.86c-.1-.17-.14-.31-.14-.41s.07-.14.24-.14c.24,0,.34.1.34.31,0,.17-.07.24-.24.24h-.2ZM1.6,4.18l.2.03.07.03c.31.31.44.54.44.75,0,.1.03.17.1.17l.1-.07.1-.17.1-.1.17-.27.24-.14c.14-.03.2-.07.17-.07l.07.1-.1.1s-.1.1-.17.24l-.31.58-.17.17-.17-.1c-.1,0-.17.07-.17.24l.03.34v.27l.17.51.17.31.44.44v.03l-.1.1c-.17,0-.34-.24-.58-.71-.2-.48-.31-.82-.31-1.02s0-.34.03-.41v-.14c-.1.07-.2.1-.27.1-.03,0-.1-.1-.14-.27l-.03-.2.07-.03-.03-.1.03-.24-.07-.2-.14-.07.03-.2ZM25.24,3.88l.03-.1.14.07.31.82-.1.03-.37-.82ZM17.65,4.39c-.17-.17-.27-.31-.27-.41s.07-.17.17-.17c.31,0,.44.14.44.41,0,.17-.07.27-.24.27l-.1-.1ZM16.63,4.08v-.07c-.03-.17.03-.27.27-.27.17,0,.24.1.24.34-.17.1-.31.17-.34.17s-.1-.07-.17-.17M14.49,3.74l.14.03c.27.2.41.34.41.41,0,.1-.03.24-.14.48-.1.24-.14.41-.14.54v.34l-.03.82c0,.37.24.82.68,1.26.27.1.44.17.48.17.17,0,.27,0,.34-.03l.1-.1-.17-.24-.78-.27-.24-.2-.03-.07-.07-.07c-.03-.1-.03-.2-.07-.27v-.14c0-.07.07-.24.17-.54.1-.17.2-.27.31-.27.14,0,.24,0,.27.03l-.03.1c-.17.03-.27.17-.27.34,0,.27.2.51.61.71l-.03.03c.44.27.65.58.65.92,0,.41-.17.61-.54.61-.2,0-.41-.03-.58-.14l.07.51h-.2l-.14.03c-.2,0-.41-.1-.65-.31l-.1-.1-.14-.2-.2-.37v-1.02l-.14-.07h-.07l-.14.07c-.03.44-.17.85-.41,1.26l-.1-.07v-.27l-.03-.31.03-.37c.03-.17.03-.34.07-.51l.07-.48.14-.55.14-.41.24-.51.07-.1.2-.31.27-.37ZM11.63,4.39c.03-.48.1-.71.27-.71.1,0,.14.1.14.27,0,.44-.14.82-.41,1.12-.31.31-.61.48-.99.48-.41,0-.61-.17-.61-.51,0-.31.14-.65.44-1.02.14.03.2.07.2.1,0,.07-.03.2-.14.37-.1.17-.14.34-.14.44,0,.2.1.31.27.31.41,0,.71-.27.95-.85M9.25,3.3c.17-.1.31-.2.34-.31l-.03-.17.1-.03c.14,0,.2.14.2.41,0,.24-.1.37-.31.41l-.27.07-.2.1c-.27.24-.41.48-.41.65l.61,1.05.1.27.31.37.2.41-.41-.03-.31-.48-.24-.37-.17-.34-.24-.34-.14-.24-.03-.1c-.03-.07-.03-.17-.03-.34,0-.34.31-.68.92-.99M14.93,3.78c-.37-.24-.61-.37-.71-.41l-.75-.14-.03-.1c0-.07.07-.1.17-.1h.07c.37,0,.82.17,1.26.48.44.31.68.65.68,1.02,0,.03-.03.17-.07.34-.14.2-.31.31-.51.31l-.1-.07.07-.1.27-.27.07-.31-.27-.48-.14-.17ZM11.12,3.57l.2-.17.27-.14.24-.14.41-.1c.07-.03.17-.03.34-.03h.1l-.03.24c-.44.07-.68.14-.71.17l-.65.37-.07.03c-.07,0-.1-.07-.1-.24M5.31,4.08l-.2.03c-.2,0-.58-.14-1.12-.41-.24-.1-.34-.24-.34-.48v-.03l.34.2c.17.1.34.17.51.2.14.03.24.1.34.14.2.1.37.24.48.34M7.82,3.1l.51-.1.37-.1c.2-.07.37-.1.54-.1s.27.07.27.17v.03l-.61.41c-.51.24-.75.54-.75.95,0,.17.17.51.54,1.09l.37.51.27.54c-.17.03-.31.07-.41.1-.1,0-.24,0-.37.07-.1,0-.27.07-.41.14-.2.1-.41.2-.68.37l-.2-.31-.07-.14-.17-.24-.14-.17-.17-.37c-.1-.1-.2-.2-.24-.31l-.37-.61-.1-.14-.14-.2-.1-.1-.14-.24-.07-.07-.1-.2-.14-.07c-.37-.24-.58-.37-.61-.37l-.37-.1-.44-.24c-.2-.1-.31-.2-.31-.31s.07-.14.2-.14l.85.07h.37l.2.1.68.07c.24.03.44.03.61.03.17.03.34.03.51.03.1,0,.24,0,.44-.03.14,0,.34,0,.51-.03h-.17ZM10.68,3.81c-.1-.24-.14-.54-.14-.85,0-.44.07-.65.2-.65.1,0,.14.03.14.14l-.1.55v.14c0,.41.2.82.65,1.26-.03.1-.07.14-.17.14-.24,0-.41-.24-.58-.71M17.99,2.24c-.24.07-.41.14-.44.17l-.24.2c-.17.17-.24.27-.2.38l.17.51-.31.07c-.24,0-.34-.17-.34-.51,0-.17.14-.38.44-.58.27-.2.51-.31.68-.31h.14l.14-.03-.03.1ZM1.53,2.18l.24.03v.17c0,.2-.03.31-.1.31l-.07.03c-.07,0-.14-.07-.2-.2l.1-.27.03-.07ZM2.04,2.38c.03-.27.07-.41.14-.41.17,0,.27.1.27.31,0,.17-.07.24-.24.24-.03,0-.1-.03-.17-.14M25.1,1.8c0-.17.1-.27.34-.27.34,0,.51.17.51.51,0,.14,0,.2-.03.24l-.27.48-.07.2c0,.17.03.37.14.54-.2-.17-.31-.31-.31-.41l.03-.38v-.14l.17-.31c.03-.14.07-.2.07-.17,0-.1-.07-.14-.17-.14-.27,0-.41.24-.41.71,0,.1.03.24.1.41.07.17.1.31.1.41,0,.03-.03.14-.1.27-.24-.37-.37-.75-.37-1.12l.03-.31.14-.54h.1ZM1.39,1.56c.1.1.17.2.17.27v.03s-.07.07-.17.1c-.1,0-.14-.07-.14-.2,0-.07.07-.14.17-.17l-.03-.03ZM24.22,1.29l.1.2c-.14.17-.2.34-.2.48,0,.03.03.1.1.2.1.14.2.24.27.34l.1.14.03.17-.03.1-.48-.41-.1-.1-.2-.24-.07-.1-.07-.17.03-.31.2-.24.31-.07ZM2.08,1.5l.17-.07.14-.03c.24,0,.48.1.68.31.17.2.27.44.27.71,0,.65-.27,1.23-.85,1.7l.27-.54.14-.37c.1-.37.17-.61.17-.65,0-.2,0-.34-.03-.41v-.1c-.17-.31-.37-.44-.65-.44-.24,0-.37.1-.44.34l-.17-.14.07-.03.14-.24.1-.03ZM17.86,3.44l.34.14.55.1c.31.03.51.2.61.48v.03l-.03.14-.1-.17-.31-.14-.78-.31-.27-.27ZM22.62,2.93l.37-.03c.07-.03.17-.03.31-.03.17,0,.24.1.24.27,0,.2-.14.34-.37.37l-.41.1-.48.07c-.24.03-.51.14-.82.37-.51.31-.88.65-1.05.95l-.37.58-.27.37-.14.31-.07-.03-1.05,1.53-.31-.03-.31-.2-.17-.07-.2-.14.14-.14.24-.37c.07-.07.14-.17.17-.27l.2-.2.14-.17.1-.17.07-.1c.1-.14.17-.27.24-.38.07-.1.14-.2.17-.31l.27-.34c.17-.17.24-.31.27-.41,0-.17-.07-.34-.2-.54l-.03-.03c-.17-.1-.31-.17-.44-.2-.14-.07-.27-.1-.38-.14-.48-.03-.71-.17-.71-.41,0-.2.2-.31.58-.31.1,0,.2,0,.31.03.1,0,.24,0,.38.03.24.03.48.07.65.1.17,0,.34,0,.44.03l.78.03,1.74-.14ZM22.92,3.67l.2-.07c.07-.03.14-.07.24-.1l.14-.17.14-.17-.03-.03-.03-.1v-.1c.03-.14-.07-.24-.34-.34l-.58-.27-.88-.24-.24-.03-.07.1-.65.14-.24.34-.34-.17.17-.2c.03-.14.1-.17.14-.14h.07l.31-.14c-.17-.03-.27-.07-.31-.1h-.99c-.95,0-1.8.14-2.62.37-.75.27-1.26.61-1.5,1.02-.07.14-.14.2-.17.2h-.03l-.1-.07-.17-.07-.1-.14-.07-.07s.14-.17.37-.34l.75-.55c.17-.1.34-.17.54-.27l.99-.37h.2c.1-.03.24-.07.34-.1l.34-.07.27-.03h.07l.14-.07h-.03l.24-.03,1.19.07c.07.03.17.03.34.03l.99.24.41.1.51.17c.14.03.24.07.27.1.17.07.34.14.51.24.17.07.31.14.44.24,1.5,1.05,2.25,2.55,2.25,4.42,0,.71-.07,1.39-.2,2.11-.07.44-.14.71-.2.82-.1.24-.17.41-.2.44-.03.17-.07.27-.17.31l-.03-.24-.24-.31.1-.24.1-.17.1-.31.17-.41c.14-.31.2-.85.2-1.67,0-.34-.07-.78-.17-1.36l-.1-.48-.2-.58-.27-.51-.17-.2-.14-.14-.41-.51c-.14-.1-.17-.27-.14-.44v-.03l-.17-.07c.07.17.1.31.1.37v.07l-.2.2-.14.2-1.5.37c-.1.03-.31.14-.54.31-.44.31-.71.61-.88.92l-.37.58c-.1.14-.14.2-.17.24l-.1.1-.41.61-.41.51-.14.24-.27.07-.07.1-.14.03.03-.17,2.01-2.79.41-.41c.17-.17.41-.34.65-.51.41-.2.75-.31.99-.31h.17-.24.31ZM12.07,1.33l.54.31c.41.31.61.75.61,1.33,0,.44-.07.78-.24,1.02l-.31.48-.1.27-.14.03-.07.03c-.1,0-.14-.03-.14-.1v-.03l.41-.61c.17-.24.24-.51.24-.88,0-.24-.03-.51-.14-.82l-.1-.17-.17-.31-.07-.07c-.24-.14-.44-.2-.58-.2-.03,0-.1.03-.24.07l-.27.17-.1-.1c0-.1,0-.14.03-.17l.44-.2.37-.03ZM13.37,1.73c.07-.31.2-.48.41-.48h.03l.17.03-.07.48c-.03.24.14.41.54.44h.34l.88-.31.41-.1c.17-.1.34-.17.51-.17l.34-.1.07.07-.34.14-.37.14c-.65.48-1.29.71-1.9.71-.54,0-.88-.24-.99-.68l-.03-.17ZM9.28,1.26l.75.1.38.17c.14.03.2.1.31.14.1.03.14.03.17.07l.1.14c.1.03.2.1.27.17l.17.17.27.44.1.2c0,.1-.03.14-.14.14s-.17-.1-.24-.27l-.1-.17-.34-.31-.24-.14c-.1-.07-.2-.14-.31-.24-.14-.1-.34-.14-.58-.17v-.07c-.2-.07-.37-.1-.51-.1-.37,0-.58.1-.58.34,0,.03.07.14.17.31h-.03v.17c.03.27-.24.41-.75.41-.44,0-.78-.1-1.02-.34l-.54-.44-.24-.14v-.34l.34.17.17.14.24.27.82.41c.48-.03.71-.07.71-.17s0-.14-.03-.17l-.1-.14c-.1-.1-.14-.17-.14-.27s.14-.24.41-.34l.51-.14ZM5.61,1.33l-.07-.17.2.03c.24.03.37.17.37.41,0,.48-.24.71-.68.71-.34,0-.51-.1-.51-.34,0-.27.07-.41.17-.41h.1l.17-.14h.31v.2c-.24.03-.37.14-.37.27,0,.1.03.14.14.14.07,0,.14-.03.27-.1l.14-.2-.03-.14-.2-.27ZM.82,26.39h25.54V.85H.82v25.54ZM.41.41h26.39v26.39H.41V.41ZM0,27.21h27.21V0H0v27.21Z" fill="#231f20"/>
    </g>
  </g>
</svg>