<?xml version="1.0" encoding="UTF-8"?>
<svg id="Layer_1" xmlns="http://www.w3.org/2000/svg" width="27.21" height="27.21" xmlns:xlink="http://www.w3.org/1999/xlink" viewBox="0 0 27.21 27.21">
  <defs>
    <clipPath id="clippath">
      <rect width="27.21" height="27.21" fill="none"/>
    </clipPath>
    <clipPath id="clippath-1">
      <rect y="0" width="27.21" height="27.21" fill="none"/>
    </clipPath>
  </defs>
  <g clip-path="url(#clippath)">
    <g clip-path="url(#clippath-1)">
      <path d="M12.96,24.52c1.12-.03,2.04-.17,2.82-.41l.78-.24.44-.14.37-.21,1.05-.51.34-.2.07.03.07.14c0,.1-.1.17-.31.24-.03.03-.14.07-.24.14-.1.07-.27.17-.51.27-1.46.85-3.47,1.26-6.05,1.23l-5.44-.2-3.5-.03h-.75c-.07-.03-.17-.14-.27-.34.31.07.51.1.65.1l1.67-.07,8.61.24.2-.03ZM24.18,12.69h.17l.03.68-.03,1.12c-.1,1.33-.31,2.31-.61,2.96l-.31.58c-.27.58-.41.88-.44.92l-.07.07-.14.2c-.03-.24-.07-.34-.07-.31,0-.14.07-.27.24-.44.24-.34.54-1.12.85-2.35.17-.68.27-1.29.31-1.84l.07-1.6ZM23.98,11.6c-.14-.92-.51-1.97-1.09-3.2l-.31-.68.1.07.2.34.17.37c.31.54.54,1.06.68,1.53.2.48.31.92.41,1.29.1.37.14.58.14.61,0,.07-.07.1-.24.14l-.03-.24-.03-.24ZM8.4,3.61l2.38-.1h.61c1.94-.03,3.54.24,4.8.85,1.26.58,2.48,1.6,3.64,3.06-.14-.07-.2-.1-.24-.14-.1-.03-.34-.31-.78-.82-.72-.78-1.67-1.43-2.93-1.94-1.46-.51-2.75-.78-3.88-.75l-5.2.24.14,18.77.14.27c-.31-.07-.51-.37-.55-.88l.03-12.28-.03-.61v-2.18l-.03-.48.03-1.33-.03-.99c.07-.37.17-.58.34-.58l.88-.07.68-.07ZM1.5,2.82l.41.14c.14.03.27.1.44.14.78.2,1.36.61,1.7,1.26l-.2-.14-.07-.07c-.24-.17-.41-.31-.51-.41-.14-.07-.24-.1-.27-.14l-1.12-.34c-.17-.03-.27-.2-.37-.44M4.42,20.88l-.03-15.37c0-1.46-.82-2.35-2.45-2.65-.31-.03-.44-.1-.44-.2,0-.17.2-.27.61-.31h.44l3.5.17,3.5-.14h3.84c.99.1,1.8.2,2.45.34.65.17,1.16.34,1.53.51l.58.34.58.31.95.58.51.44.31.2.95,1.02.65.82.03.03c0,.07-.07.14-.24.2-.58.24-.99.37-1.29.37s-.54-.17-.78-.54c-.07-.1-.14-.17-.24-.27-.07-.1-.14-.17-.24-.27l-.44-.41c-1.8-1.67-3.81-2.52-6.02-2.62l-1.16-.03-4.05.17c-.51.03-.82.1-.89.17-.14.14-.17.37-.17.78l.03,15.78v1.43c0,.14,0,.24-.03.31,0,.82.31,1.19.92,1.16l.54-.03,2.25.14.85-.03h1.19c2.07.03,4.01-.61,5.88-1.97.1.58.34,1.09.65,1.5-.65.31-1.26.61-1.84.82-.54.27-1.05.44-1.53.55-.92.24-2.11.34-3.64.31l-5.95-.2-3.3.03c-.24,0-.41-.03-.54-.1s-.2-.14-.2-.2c0-.03.1-.1.27-.14l.75-.1c.51-.07.95-.38,1.23-.89.34-.51.48-1.19.48-1.97M21.26,17.07c.1-.31.2-.54.24-.71.07-.17.1-.34.14-.44l.17-.65c.07-.31.1-.55.1-.78v-1.94l1.19.17h.92l.03.99c-.03.07-.03.14-.03.24v.14c-.17,1.87-.61,3.4-1.33,4.63l-.03-.07c-.17-.72-.65-1.26-1.39-1.57M22.48,7.79c.78,1.43,1.26,2.86,1.5,4.28h-.27c-.17,0-.44-.03-.75-.03-.31-.07-.54-.07-.65-.07-.2,0-.34-.03-.44-.1l-.14-.44c-.03-.17-.07-.31-.1-.44-.03-.17-.07-.31-.14-.44l-.07-.2c-.03-.17-.07-.27-.1-.41l-.07-.2-.31-.58-.24-.48-.17-.34h.2c.58,0,1.16-.17,1.74-.54" fill="#a91e22"/>
    </g>
  </g>
</svg>