<?xml version="1.0" encoding="UTF-8"?>
<svg id="Layer_1" xmlns="http://www.w3.org/2000/svg" width="27.21" height="27.21" xmlns:xlink="http://www.w3.org/1999/xlink" viewBox="0 0 27.21 27.21">
  <defs>
    <clipPath id="clippath">
      <rect width="27.21" height="27.21" fill="none"/>
    </clipPath>
    <clipPath id="clippath-1">
      <rect y="0" width="27.21" height="27.21" fill="none"/>
    </clipPath>
  </defs>
  <g clip-path="url(#clippath)">
    <g clip-path="url(#clippath-1)">
      <path d="M11.97,25.1c-.1.03-.17.1-.17.14l.03.07.17.14.03.1.2.1.03-.07-.03-.1-.14-.1-.03-.2-.1-.07ZM24.45,21.94c.1-.03.14-.07.14-.14,0-.1-.07-.14-.17-.14-.31,0-.44.17-.44.48h.1c.07-.14.14-.2.2-.2h.17ZM17.45,21.77c-.03-.1-.07-.14-.1-.14h-.03l-.1.03c-.14.07-.2.14-.2.24l.44-.14ZM2.01,17.11l.07,1.06c.14,0,.2-.14.2-.41,0-.24-.1-.48-.27-.65M1.39,15.27l-.07.17c0,.1.03.1.14.03.14-.03.2-.07.17-.07.1,0,.17,0,.2.03h.03s-.03-.07-.03-.17c0,.03-.14.03-.44,0M1.6,14.93l.1.24h-.17c-.17.03-.27.03-.27,0,0-.17.03-.24.1-.24h.24ZM15.51,14.73l-.14-.14-.03.24.2.17-.03-.27ZM1.22,14.73l.34.03.03-.1-.1-.1h-.24l-.03.17ZM15.68,14.42l.1-.03.1.17c0,.2.07.31.24.31-.24,0-.34-.03-.34-.07,0,.1,0,.07-.07-.1,0-.14-.03-.24-.03-.27M16.09,14.29s-.03.1-.03.24.1.2.34.2l-.17-.44h-.14ZM16.56,14.11h-.1s-.07.14-.07.24v.03c0,.17.03.27.1.27h.27s-.1-.03-.14-.17c-.03-.1-.07-.24-.07-.38M17.11,14.59c-.31-.1-.44-.24-.31-.37.07-.14.2-.24.34-.27l-.1.31c.03.1.07.2.1.24.14.03.14.07-.03.1M1.22,14.39c.03-.14.1-.24.17-.31l.1-.03c0,.24.03.34.1.34h-.38ZM7.04,13.5c.24-.14.34-.24.34-.27,0-.1-.03-.14-.07-.14-.07,0-.14.07-.17.17-.07.1-.1.2-.1.24M7.18,12.99l-.14.31-.34.37.03-.1c-.03-.1-.03-.17,0-.2l.24-.24c.14-.07.17-.14.14-.14h.07ZM6.63,12.89l.2.03-.03.2-.24.34-.03.1-.07-.17.17-.24v-.27ZM18.6,13.4c.44-.1.75-.2.85-.31.14-.1.24-.17.31-.2l-.03-.07c-.37.24-.54.34-.58.34l-.55.17v.07ZM6.5,12.55c0-.24,0-.34-.03-.31.17,0,.24.03.24.07.07-.03.1.03.1.17-.1.1-.2.14-.31.07M6.02,11.16c-.1-.1-.2-.14-.34-.14-.48,0-.71.1-.75.34l.68-.14.41-.07ZM11.39,9.86l-.03-.44-.14.27-.37.17.03.14.37-.07-.03.14-.03.07.1.1c.24,0,.37-.1.37-.31,0-.1-.1-.1-.27-.07M12.96,9.32l.44-.31-.24-.17.27-.24c-.31.1-.44.17-.44.24-.14.03-.27.03-.41,0l.48.17c-.17.03-.27.1-.27.17l.1.07.07.07ZM8.98,8.54l.27.17.14.07.17.07c.24.24.37.34.41.37h.14l-.2-.1-.03-.14c0-.14-.1-.24-.27-.31l-.61-.14ZM8.98,8.37h.34c.2.1.41.24.61.44l.14-.03c-.27-.38-.58-.55-.92-.55-.14,0-.2.03-.24.1l.07.03ZM12.48,9.59l-.27-.44-.31-.34-.14-.31-.2-.31-.07.17.24.51.2.34.2.2-.17.27.51-.1ZM10.99,7.58l.27.07.14.1.14-.03-.03-.17-.51.03ZM22.01,7.48l-.1-.1-.17.03.14.2-.03.1c-.2.1-.2.2.03.31l.07-.03.07-.17.07-.17-.07-.17ZM21.84,7.01l-.03.2.17-.07-.03-.17-.1.03ZM23.37,6.8l-.1.88c.2,0,.31-.14.27-.44v-.27l-.17-.17ZM21.84,6.67v-.03.03l.14.07.07-.1c0-.1-.03-.14-.1-.14l-.1.17ZM10.71,6.36h-.1c-.07,0-.1.07-.1.17,0,.07.03.2.07.34.03.2.14.27.27.27l-.03-.17-.1-.17v-.44ZM25.41,4.73l.1.1.17.44.17,1.06c.03.1,0,.2-.1.27v-.1l-.14-.41c-.14-.55-.2-.82-.24-.85l.03-.1.03-.31.03-.1h-.07l.07-.07-.07.07ZM24.49,3.78c.03.14.07.2.14.2.24,0,.34-.1.34-.34,0-.1-.03-.14-.14-.14l-.07.03-.1.17-.17.07ZM3.71,1.9l-.27.31c-.1.17-.17.31-.17.34l.1.1.07-.03.17-.41.24-.2-.14-.1ZM22.86,25.64c.1.21.17.34.24.41,0,.07-.03.1-.14.1-.17,0-.24-.1-.24-.27,0-.07.03-.14.14-.24M19.49,25.17s-.07.03-.17.03c-.31,0-.44-.1-.44-.31,0-.07.03-.1.14-.1.37,0,.61.14.71.41l-.14.07-.1-.1ZM14.01,25.85c-.24-.21-.34-.38-.34-.48,0-.51.34-.78,1.05-.78.48,0,1.02.17,1.67.54.1.03.2.1.27.14.14.03.24.1.34.14l.31.1.85.31h.2c.17,0,.27.03.27.14l-.07.07s-.14-.03-.58-.1c-.34-.03-.88-.2-1.6-.51-.37-.17-.68-.27-.92-.34-.24-.07-.44-.1-.61-.14h-.03c-.17,0-.31.14-.44.37.1.24.27.37.48.37.14,0,.24,0,.27-.03l.58-.14.2-.03c.1,0,.2.07.31.2l.07.03.07.07-.1.1s-.07-.03-.17-.07c-.1-.03-.17-.07-.27-.07l-.41.03-.65.2h-.2c-.17,0-.37-.03-.54-.14M16.53,24.56h.2l.34.07.17.2.34.14.17.17c.1.03.17.03.2.07l.17.07c.72.24,1.29.37,1.74.37,1.05,0,1.73-.07,2.04-.24l.37-.2.44-.14c.1-.1.24-.17.34-.17l.1.1-.07.2c-.31.27-.61.41-.99.44-.44.21-.99.31-1.63.31-.78,0-1.36-.07-1.77-.17l-.58-.17c-.37-.1-.65-.2-.85-.37l-.37-.27c-.24-.2-.37-.31-.37-.34v-.07ZM13.1,25.34c-.24-.37-.38-.61-.38-.68,0-.1.03-.17.1-.17.03,0,.14.27.27.85M13.33,26.09h-.41l-.27.03c-.51,0-.88-.2-1.05-.58l-.24-.44c-.1-.31-.17-.44-.17-.48l.07-.14.17.07.24-.03.2.41.1-.1v-.27l.31-.03h.07c.14,0,.2.14.24.44.03.14.1.24.17.34l.55.48.03.31ZM9.08,25.44c-.78-.03-1.19-.24-1.19-.54s.24-.44.71-.41h.1c.17.03.34.07.54.1l.51.14c.51.17.78.27.82.31l.58.44.27.2v.1l-.34-.1-.48-.31-.72-.41-.99-.2c-.17,0-.27.07-.27.24l.07.1,1.12.24c.24.07.34.2.34.38,0,.24-.27.37-.82.37s-1.05-.14-1.5-.37l-1.12-.68c-.17-.03-.31-.07-.34-.07-.37,0-.58.14-.58.37l.07.14.07.1.1.1.68-.1.17.03s.07.07.1.2l-.58.03-.41.1-.1.03c-.1,0-.17-.03-.24-.1l-.34-.27-.48.17-.44-.17.51-.2.48-.48c.31-.24.65-.37.95-.37.1,0,.2,0,.27.03.27.1.44.17.54.2l.61.54.51.27.31.1h.48v-.27ZM5.44,24.49l-.27.24-.24.2c-.07.07-.2.14-.37.2-.2.07-.38.1-.48.1s-.14-.07-.14-.17.03-.14.14-.17l.61-.17.14-.14c.1-.1.24-.14.41-.14.1,0,.17,0,.2.03M21.87,25.13c-.44.1-.72.17-.75.17-.58,0-.88-.17-.88-.54,0-.44.24-.65.68-.65l.03.03.17.03c-.27.17-.41.31-.41.41,0,.07.07.24.17.51l.99.03ZM1.33,24.05l.27.34.1.61s.03.1.1.2c.17.24.44.37.75.37.65,0,1.02-.48,1.16-1.43.17-.03.27-.07.24-.07.03,0,.07.07.07.2,0,.44-.14.85-.41,1.16-.31.31-.65.48-1.05.48-.85,0-1.29-.48-1.26-1.46l.03-.41ZM25.68,25.41c-.37-.24-.54-.51-.54-.85,0-.1.03-.24.1-.41.1-.14.17-.2.27-.2l.03.71.14.44v.31ZM21.53,23.09h.1v.17c.1.17.24.27.41.24h.07c.1,0,.24-.07.41-.17h.17c.17.17.34.27.51.41.14.07.24.17.34.2l.03.03c-.24.44-.65.68-1.22.68-.17,0-.24-.07-.24-.17,0-.14.14-.27.37-.37v-.07c-.17.03-.31.03-.41.03-.1.03-.2.03-.24.03-.17,0-.38-.14-.55-.37v-.17c-.03-.14.07-.31.24-.48M12.62,22.69c.07-.34.27-.51.58-.51.24,0,.41.1.51.34l-.41-.03-.24.17-.44.03ZM1.87,23.37c-.1-.1-.14-.2-.14-.37s.17-.44.51-.85c.2-.27.37-.41.51-.41.1,0,.14.07.14.17l-.03.14h-.03l-.1.03-.14.14-.31.34c-.1.1-.24.38-.41.82M2.52,22.58c.14.71.37,1.05.75,1.05.65,0,.99-.31.99-.88,0-.37-.1-.65-.31-.75l-.24-.1c-.1-.03-.14-.1-.14-.24v-.07l.1-.1c.07,0,.17.03.27.1.41.24.61.61.61,1.12,0,.85-.44,1.26-1.33,1.26-.37,0-.68-.24-.88-.71-.03-.03-.03-.14-.03-.31,0-.07.07-.2.2-.38M3.23,21.43l.31.65c.07.17.14.34.17.44.1.24.14.44.14.61l-.03.07-.07.07-.07.03c-.07,0-.24-.44-.48-1.29l-.07-.17-.07-.17.17-.24ZM23.54,21.33l.07-.03c.17,0,.24.03.24.14,0,.17-.1.27-.34.27-.1,0-.17-.07-.17-.17v-.07l.2-.14ZM16.5,21.29c-.07.2-.14.31-.24.31s-.14-.03-.14-.14c0-.14.1-.2.31-.2l.07.03ZM24.73,20.92l.07.1c0,.17-.1.24-.27.24s-.24-.07-.24-.2.1-.2.27-.2h.03l.14.07ZM22.45,22.38v-.17c0-.51.1-.82.27-.95l.41-.31.03-.03.07-.03c.1-.07.24-.1.44-.1s.31.07.34.24c-.85.03-1.26.41-1.26,1.12,0,.54.07.85.24.95l.17.14.2.2.48.1-.17.07h-.03l-.51-.17-.27-.34-.17-.14-.1-.31c-.07-.1-.1-.17-.14-.27M16.16,20.68h.07c.17,0,.31.07.34.17v.03c-.07.1-.17.17-.34.17-.14,0-.2-.07-.2-.2,0-.1.03-.14.14-.17M3.84,20.95c-.27.07-.48.14-.58.2-.03.03-.17.14-.41.31l-.17.07-.07-.03c0-.1,0-.14.03-.17.31-.48.68-.71,1.16-.71.1,0,.34.07.75.17l.37.58.1.07-.14-.07-.2-.24c-.14-.03-.27-.07-.37-.1l-.34-.07-.07.07-.07-.07ZM20.2,23.84c.44-.37.71-.68.85-.88l1.06-1.63.1-.17.41-.68.07.24v.03c0,.1-.07.27-.24.51l-.68,1.05c-.92,1.36-1.67,2.04-2.21,2.04l-14.76-.1c-.17-.03-.24-.1-.24-.24l.07-.1c.1,0,.37.03.78.1h.31l1.67.03,3.47-.03,3.57.07,1.84-.03h.07c.14,0,.27,0,.41.03.17,0,.31,0,.48.03l.03-.07.88.03h.65c.65,0,1.12-.07,1.43-.24M17.11,20.41l.44.03v.14c0,.31-.1.44-.27.44-.27,0-.41-.1-.41-.27,0-.14.07-.24.24-.34M2.38,20.31l.03.41-.54.58c-.24.31-.37.78-.37,1.36,0,.92.48,1.6,1.46,2.08l.14.03s.1.07.2.1l-.17.27c-.54-.14-1.02-.44-1.39-.92-.38-.51-.58-1.02-.58-1.57,0-.85.41-1.63,1.23-2.35M10.99,20.2c.31.31.44.58.44.82l-.1.75v.82l-.54.07c-.03-.17-.07-.31-.1-.41-.07-.51-.24-.75-.51-.75-.31,0-.48.14-.48.44,0,.2.14.37.44.51-.17.1-.31.17-.34.17-.37,0-.58-.27-.58-.78,0-.31.14-.58.37-.78l.03.24.14.03c.14-.14.24-.2.31-.17h.14c.1,0,.14-.03.14-.1,0-.1-.07-.14-.24-.14l-.1.03-.07-.07.27-.03.48.2.14-.61.17-.24ZM24.49,20.24c-.03.27-.14.41-.27.41-.17,0-.24-.07-.24-.2l.03-.07c.07-.17.17-.24.31-.24l.17.1ZM16.29,20.37c-.07-.14-.1-.24-.1-.31,0-.2.1-.31.31-.31.24,0,.34.14.34.38,0,.2-.1.31-.31.31.03,0-.07-.03-.24-.07M17.69,21.22l.1-.27v-.65c0-.14.03-.27.17-.44.07-.14.2-.2.31-.2l.1.07c0,.1,0,.2-.03.24v.51l-.2-.03.2.48.17-.03-.03.24-.27.17-.03.03c0,.17.24.27.72.27.78,0,1.43-.37,1.94-1.09h.24c-.37.85-1.09,1.29-2.14,1.29-.2,0-.31,0-.34-.03l-.37-.14-.34-.1v.1c0,.1-.07.17-.17.2l-.2.07-.07.07-.44-.03c-.14,0-.31.1-.54.34,0-.71.34-1.09,1.05-1.05h.2ZM5.14,20.68c-.07-.1-.17-.24-.31-.34l-.31-.31c-.14-.1-.2-.17-.2-.27s.07-.14.17-.14c.07,0,.17.07.34.24l.44.41.1.2.48.65s.03.07.03.17l-.03.14-.1.1c-.1,0-.31-.27-.61-.85M17.35,19.35c.2,0,.31.1.31.27,0,.31-.14.48-.37.48-.17,0-.27-.14-.27-.41v-.1c.03-.17.14-.24.31-.24h.03ZM11.19,18.81l.1.14-.03.17-.1.51-.1.31h-.14c.03-.07.03-.14.03-.24s0-.17.03-.2v-.24c.03-.17.1-.31.2-.44M2.82,20.85c-.24-.31-.34-.88-.34-1.8,0-.14.03-.2.1-.2.17,0,.24.24.24.75.03.31.1.61.2.88v.07c0,.1-.07.2-.2.31M5,18.81l-.17.2-.37.34-.14.17-.92.51c-.1.07-.2.1-.24.1-.07,0-.1-.03-.1-.14s.2-.27.58-.44c.14-.07.27-.17.37-.27.38-.31.65-.48.75-.48h.24ZM11.53,22.58c.03-.07.03-.17.03-.27v-.2c.1-1.53.48-2.55,1.05-3.06l.48-.37.34-.2.1.1-.07.37.03.24c.24-.24.37-.34.44-.34s.31.07.68.24h.17c.1,0,.17.03.17.14,0,.14-.07.27-.24.41l.17.48c-.07.44-.24.65-.54.68l-.37.03c-.31.03-.48.2-.48.48s.17.41.51.41c.17,0,.31-.03.48-.14-.17.31-.37.48-.58.48-.71,0-1.06-.27-1.06-.82,0-.61.34-.92,1.02-.92h.37l.31-.31c0-.31-.17-.44-.51-.44-1.12,0-1.7,1.02-1.8,3.09l-.27.03c-.14,0-.27-.03-.44-.1M17.72,18.23c.48.17.71.41.71.65,0,.31-.17.44-.51.48l.03-.2c0-.2-.07-.31-.2-.31l-.54-.03-.1-.03-.65.41c-.54.34-.82.99-.82,1.97,0,.41.07.92.24,1.53-.17-.03-.24-.2-.27-.44l-.1-1.26v-.03c0-.68.2-1.29.65-1.84.44-.51.95-.82,1.56-.88M6.63,18.23h.31l.07-.03h.03c.38,0,.58.2.58.58,0,.31-.1.51-.34.61l-.24.07-.07.07-.37-.03-.24.07c-.2.17-.31.34-.31.48l.07.34c-.17-.14-.27-.27-.27-.44,0-.31.14-.48.37-.51l.41-.03.27-.07c.14-.03.2-.17.2-.41s-.1-.37-.34-.34l-1.09.03.95-.37ZM11.77,18.13c.07.03.1.1.1.2l-.27,1.67c-.03.24-.07.34-.17.34s-.14-.07-.14-.17v-.07l.24-1.09.07-.58.1-.1.07-.2ZM2.55,18.13l.2.17.07.03c.1.1.24.2.31.31.14.07.2.14.31.17.31.17.44.27.41.37l-.03.03-.03.03-.14.03c-.1,0-.27-.1-.51-.31-.03-.03-.14-.1-.34-.24s-.31-.2-.31-.24l.03-.1.03-.27ZM3.23,18.03l.54.2.31.17-.03.07-.24-.03-.34-.14-.2-.1-.03-.17ZM22.18,17.96c.17.03.27.2.27.51,0,.51-.24.99-.75,1.36-.48.38-1.06.58-1.7.58-.07,0-.31-.07-.68-.17.07-.03.17-.03.31-.03h.2c.48-.03.92-.2,1.29-.44.75-.44,1.12-.88,1.12-1.39v-.14c-.03-.07-.03-.17-.07-.27M24.62,17.69c.07.1.1.17.1.2l-.03.2.1.07.07.34.07.31c0,.07-.07.24-.2.54l-.03.07-.03.2-.1-.03s-.1.07-.27.24c-.14.17-.34.24-.61.24-.61,0-.92-.24-.92-.75,0-.14.03-.31.14-.51l.14.03c.1-.1.2-.17.31-.17l.17.03v.07c-.17.17-.24.31-.24.44,0,.24.17.37.48.37.58,0,.85-.41.85-1.19l.03-.71ZM20.41,19.11c.51-.2.75-.41.75-.61v-.03l-.27-.2-.1-.2-.14-.17-.07-.14s.03-.07.14-.1c.1-.03.24-.03.37-.03h.2c.34,0,.55.07.61.2l.07.24.14.27v.1c0,.1,0,.14-.03.17-.31.61-.68.95-1.06,1.05l-.34.07-.27.2c-.37.07-.71.1-1.02.1h-.1c-.37,0-.58-.24-.58-.68,0-.48.34-.88,1.05-1.22l.41.41c-.14.17-.2.31-.2.41s.14.14.44.17M18.3,17.24l.34.03c.55.03,1.02.2,1.5.44.41.24.65.51.65.82,0,.1-.07.14-.24.17-.34-.78-.99-1.16-1.94-1.16-.44,0-.85.1-1.26.31-.95.48-1.53,1.12-1.74,1.9l-.2.92-.07.2v.65c0,.14.03.31.1.51.03.24.07.37.07.48s-.1.14-.27.14c-.14-.82-.2-1.12-.2-.92l.03-.61-.03-.34s0-.2.1-.54l.1-.48.07-.1c0-.07.07-.17.17-.31l.38-.58c.2-.27.37-.48.51-.61l.51-.37c.17-.1.31-.2.41-.31l.31-.03.2-.14.51-.07ZM12.11,16.97l.03.2c0,.1-.1.31-.31.58l-1.29,1.63-1.05,1.46c-.1.1-.17.2-.2.31l-.14.17c-.27.31-.48.58-.61.75-.14.17-.2.27-.24.31l-.1.24-.03-.2-.03-.07s.07-.17.17-.34l3.81-5.03ZM14.83,18.57c-.07-.03-.17-.03-.27-.03h-.37l-.03-.14-.2-.34-.03-.14c0-.2.07-.44.24-.75.07-.17.17-.24.27-.24h.07c-.03.1-.03.2-.07.34v.2c0,.24.03.37.14.48l.2.27.07.34ZM2.52,16.84l.37.14c-.03.2-.14.38-.27.51l-.1-.65ZM2.96,17.35c.1-.1.17-.17.24-.27l.2-.2.2-.07c.24-.17.44-.24.61-.24.58,0,.99.31,1.19.92l-.24.03-.27-.41c-.24-.17-.41-.24-.51-.24-.65,0-1.12.41-1.46,1.19-.14-.03-.2-.07-.2-.14,0-.1.07-.27.24-.58M15.1,16.6h.1l.07-.03c.24,0,.48.1.65.31.17.17.27.41.27.65,0,.2-.07.41-.17.58l-.82,1.33.03-.34.37-.99c.03-.14.07-.24.07-.27,0-.41-.17-.61-.48-.61-.2,0-.37.14-.54.44l-.14-.27c.07-.44.24-.68.54-.78l.03.1v-.1ZM6.63,15.75h-.03l.54.07c.17.03.24.17.24.48,0,.17-.03.31-.07.44l-.14.2-.07.14-.51.44c-.31.24-.71.37-1.22.37-.27,0-.44,0-.51-.03l-.37-.03-.38-.07c-.27-.03-.41-.1-.44-.17l-.1-.14,1.26.27c.1.03.2.03.27.03l.14.03.14-.03.31-.1.24-.1c.51-.31.78-.65.78-.95,0-.24-.1-.37-.31-.34-.2,0-.41.03-.65.1.14-.37.44-.58.88-.61M16.43,17.04h.1c.24.03.37-.07.37-.31,0-.54-.27-.82-.85-.78l-.48.03-.51.03-.2.14-.54.31c-.37.24-.61.51-.68.82l-.24.95-.17.1.2-1.09c.03-.2.17-.41.37-.61.71-.82,1.43-1.22,2.21-1.22.37,0,.71.1,1.05.37.34.2.51.51.51.85,0,.51-.24.78-.71.78-.17,0-.34-.14-.44-.37M20.03,15.17l.17-.03h.14c.14,0,.31.03.48.1s.34.17.51.27.31.24.41.34c.1.14.17.27.17.41,0,.68-.34,1.02-1.05,1.02-.58,0-.85-.24-.85-.75,0-.1.07-.2.2-.31.1.37.31.58.58.58.41,0,.61-.17.58-.51-.03-.1-.1-.27-.24-.44l-.31-.24c-.2-.17-.44-.27-.71-.31l-.07-.14ZM8.6,16.46l.14-.37.2-.65c.07-.24.27-.34.58-.34.34,0,.51.17.51.54,0,.14-.14.34-.41.61.1-.17.14-.31.14-.41,0-.2-.1-.31-.31-.31l-.14.07-.27.31c-.1.1-.17.2-.17.24l-.1.27-.1.07-.07.24-.14.07.14-.34ZM4.93,15.1c.24,0,.37.14.37.41,0,.24-.14.37-.41.37-.31,0-.44-.1-.44-.31,0-.31.17-.48.48-.48M19.93,14.69l.85.07.58.17.31.1.51.2c.54.24,1.02.58,1.43,1.05.37.48.58.92.58,1.33,0,.07-.07.24-.17.51l-.27-.2-.14-.03c-.17.24-.34.37-.48.37s-.24-.03-.34-.1c-.31-.17-.48-.41-.48-.71,0-.37.07-.55.24-.51h.1c.03.38.17.58.34.58.27,0,.41-.17.41-.48,0-.51-.44-1.02-1.29-1.53-.68-.41-1.29-.61-1.8-.61h-.07c-.17-.03-.27-.07-.31-.1v-.1ZM18.64,14.39h.17l-.2.03.03-.03ZM22.11,14.25l.78.31.17.07.31.14.2.14.51.24.41.27.44.2.24.03c.17.03.27-.1.34-.34-.03-.37-.2-.58-.58-.61l-.03-.1c0-.17.14-.24.44-.2h.17c.37.24.54.58.54,1.05,0,.58-.24.88-.71.88-.27,0-.58-.17-.95-.51l-.51-.44-.34-.27-1.46-.75.03-.1ZM19.49,14.39l.51-.24.24.03s.14.03.31.03c.14.03.34.07.58.1.31.03.61.14.89.27l.41.2.34.17.75.44c1.53,1.22,2.31,2.76,2.31,4.63,0,.71-.14,1.36-.41,1.97.24.24.37.44.37.61l-.07.2c-.03.07-.14.27-.24.58-.07.24-.14.27-.17.14l-.1-.24-.24.2-.07.14-.17.37-.03.1c0,.1.07.14.2.17-.07.27-.1.48-.1.61,0,.17.07.34.17.54.14.24.31.38.54.41l-.1.24h-.17l-.31.07h-.03c-.37,0-.55-.17-.58-.51v-.44l-.07-.03-.1.03-.44.41-.07.03-.03.03-.07-.03-.1-.24v-.54l.1-.37.03-.1.1-.1v-.03l.07-.1c.03-.37.37-.75.95-1.19.1-.03.17-.07.17-.1,0-.17-.1-.24-.27-.24-.03,0-.14.07-.24.17l-.31.38-.03.07s-.07.03-.17.03c-.14,0-.24,0-.27-.03-.31-.1-.44-.2-.44-.38,0-.2.17-.48.51-.82s.61-.51.82-.51c.07,0,.2.07.37.17.17-.2.27-.48.41-.82.07-.34.14-.65.14-.95,0-.82-.24-1.7-.68-2.65l-.14-.31-.24-.27-.31-.34-.2-.17-.31-.31c-.48-.48-1.05-.82-1.73-1.02l-.75-.24-.37-.1-.34.03-.44-.1h-.34l-.03-.07ZM6.87,13.91l.24-.03h.03c.99-.03,1.5.51,1.5,1.67,0,.1-.03.24-.07.48l-.24.41-.03.17-.34.37-.14.24s-.1.1-.2.17l-.27.24c-.72.51-1.33.75-1.77.71h-.48l-.17.03-.1.03c-.07,0-.48-.14-1.22-.37-.24,0-.34-.03-.34-.14l.07-.14.1-.14c.1.03.17.07.27.14.1,0,.17.07.27.1l.24.07c.48.1.78.14.89.1l.75-.1c.58-.07,1.09-.34,1.5-.85.44-.51.65-1.05.65-1.67,0-.37-.17-.78-.51-1.16l-.17-.1-.48-.07.03-.17ZM24.69,13.43l.27-.2.03-.03c.1,0,.14.07.14.17s-.03.17-.1.24l-.2.17-.17.2-.2.03-.2.03-.03-.14c.1-.03.17-.1.24-.17.07-.03.14-.1.24-.14v-.17ZM22.96,13.33l.71-.2.07.14-.1.17-.37.31-.07.1-.03.07c.17.17.34.31.48.38s.2.14.2.24l-.07.1-.07-.03-.1-.03-.61-.2c-.2-.03-.31-.2-.34-.44-.07-.03-.17-.03-.34-.03-.34-.07-.54-.1-.58-.1-.1,0-.17,0-.2.03l-.92-.03v-.07l.24-.1.54-.03.27-.07.27.07c.44.17.68.2.71.1l.1-.24.2-.1ZM24.28,12.92l.07-.03c.1,0,.2.07.24.17l.03.07-.03.07c-.07.1-.17.14-.27.14-.17,0-.24-.07-.24-.2l.07-.1.14-.1ZM15.51,13.74l.2-.41c.03-.14.1-.27.14-.41.17,0,.24.1.24.31,0,.34-.31.65-.95.95v-.1s.07-.07.17-.1l.2-.24ZM25.54,12.55c.17,0,.24.07.24.24,0,.24-.1.37-.27.37-.14,0-.2-.07-.2-.24,0-.24.07-.37.24-.37M12.45,12.92l.37-.44c.1,0,.14.1.14.31v.03l-.03.2-.03.85-.2,1.33c-.03.31-.1.58-.17.78-.07.17-.14.34-.17.44l-4.32,5.61c-.1.1-.14.24-.14.41,0,.34.14.48.41.44h.71l3.23.03c1.6.03,2.92,0,3.98-.03,1.05-.04,1.87-.14,2.38-.24.92-.24,1.84-.78,2.82-1.7.51-.51.82-.75.95-.75.07,0,.1.03.1.14v.14l-.17.24-.31.54-.41.58-.68,1.06c-.44.71-1.12,1.09-2.04,1.09l-14.05-.14c-.17,0-.27-.07-.27-.24l.03-.1,7.86-10.58ZM17.35,12.38l.27-.03h.07l.03-.03c.2,0,.31.1.31.27,0,.07-.03.17-.1.27-.07.14-.17.2-.31.2h-.68l-.41.2c.03-.37.17-.61.41-.78l.41-.1ZM24.56,12.38c0-.14.14-.2.44-.2.14,0,.2.1.2.27,0,.2-.1.31-.27.31-.24,0-.37-.14-.37-.37M8.71,12.07c.31.07.61.17.92.37.31.14.55.34.78.54.2.24.37.48.51.71.14.24.2.48.2.72,0,.03-.07.14-.17.24-.48-.92-.95-1.39-1.46-1.39-.14,0-.24,0-.27.07-.03,0-.07.1-.07.24,0,.27.14.54.41.85-.58-.17-.99-.65-1.19-1.39,0-.31.17-.48.54-.48l-.2-.48ZM23.94,12.14l.14-.1.03.07-.1.1-.07-.07ZM24.39,11.8l-.03.14-.1-.03.14-.1ZM16.73,11.67c.24.1.37.27.48.51h-.41l.07.17c-.17.1-.31.14-.48.14-.1,0-.17-.03-.17-.07v-.07l.03-.14c.03-.1.1-.17.14-.24l.17-.24.17-.07ZM6.36,11.63c.24,0,.44.07.61.17-.07.14-.1.24-.1.34s.14.2.41.37c.1.03.17.1.27.2l.24.24.27.27-.07.2.1.07-.1.2.51.48.07.37c-.27-.54-.68-.82-1.19-.82-.72,0-1.09.27-1.09.85,0,.17.1.34.34.48l.48-.1v.1l-.17.17-.2.2-.51.03.03-.14s-.07-.07-.24-.1l.07-.2-.34-.2.07.27c-.1-.1-.17-.17-.2-.17-.1,0-.14,0-.17.03-.1-.17-.14-.37-.14-.54,0-.51.27-.85.82-1.02.14-.03.2-.1.2-.24,0-.07-.1-.1-.27-.1-.31,0-.65.41-1.02,1.23-.31.65-.78.99-1.43.99-.82,0-1.22-.44-1.26-1.36.31.17.51.27.61.27s.27-.03.51-.1l.1.1-.17.1-.44.07c.03.14.07.2.17.2.07,0,.2-.03.37-.1.31-.1.48-.24.48-.34l-.03-.31.2-.2.31-.34.31-.2c.44-.41.82-.61,1.12-.58h.27v-.14c-.27,0-.41-.1-.41-.27s.2-.34.61-.44M3.67,11.12l.1.1-.1.03s-.1.07-.17.17c-.1.1-.2.17-.31.27l-.2.17-.03.14-.17.37.03.1.03.27c0,.17.17.27.48.31.1-.03.2-.1.31-.24l.07.34c0,.34-.24.51-.68.51-.48,0-.71-.27-.71-.82,0-.71.44-1.29,1.36-1.73M2.11,11.12c-.24.31-.41.44-.58.44s-.27-.07-.27-.2c0-.24.17-.34.54-.34.1,0,.2.03.31.1M11.63,13.67l-.1-.34-.44-1.16s-.03-.07-.03-.17c0-.65.27-.95.85-.95.51,0,.75.24.75.72s-.2.71-.58.71h-.07c.17-.17.31-.34.34-.44v-.03c0-.31-.14-.44-.44-.44-.34,0-.51.2-.51.65,0,.14,0,.24.03.27l.2.65.07.48-.07.07ZM17.48,10.78h.1l.17.44.44.48.03.03v.14c0,.2-.14.31-.37.31-.44,0-.68-.24-.68-.75,0-.17.1-.38.31-.65M24.49,11.5l.27-.24.31-.34c.14-.14.27-.2.41-.2.41,0,.61.2.61.58,0,.07-.07.2-.17.37l-.31-.41-.27-.03-.2.07-.61.44-.03-.24ZM8.81,10.58c.1.03.2.1.27.1l.17.1c1.22.61,1.97,1.67,2.24,3.16l-.14.24h-.07l-.14-.38-.17-.41c-.37-1.02-1.16-1.7-2.35-2.07l.17-.75ZM1.16,19.73c.17-.68.27-1.22.27-1.63v-.34c0-.17,0-.31-.03-.37l-.31-2.14s-.03-.17-.03-.41c0-.37.03-.75.14-1.12.1-.37.2-.75.38-1.12.14-.34.31-.65.48-.92.2-.27.41-.48.61-.61l.48-.31.31-.2c.17-.1.37-.17.54-.17.1,0,.14.03.14.07,0,.17-.31.41-.88.71-.58.31-1.02.95-1.33,1.94-.07.24-.1.51-.1.75,0,1.26.44,1.94,1.36,2.04l.03-.03c.07.03.17.03.31.03.1,0,.27-.07.51-.2l.07.07.03.07c0,.24-.14.44-.37.61-.24.17-.54.27-.85.27-.41,0-.71-.27-.92-.82-.03-.03-.07-.14-.1-.24h-.24c.03.24.1.44.2.58.31.44.44.68.44.71l.03.07s0,.07.03.17c.03.17.03.27.03.37.03.1.03.17.03.2,0,.1-.07.37-.17.75-.24.71-.61,1.12-1.09,1.22M19.08,12.07s.03-.14.03-.24l-.07-.17-.78-.58c-.2-.14-.31-.27-.31-.44,0-.44.34-.65,1.02-.65.51,0,.95.14,1.29.48.34.27.51.68.51,1.12,0,.27-.07.48-.17.58l-.1.14-.03.37c.1-.07.2-.1.31-.1l.1.1s-.03.14-.1.27c-.24.44-.41.71-.54.82l-.41.14-.2.14-.78.07-1.16-.14h-.03c-.31,0-.44.1-.44.31,0,.17.1.27.27.27.1,0,.27-.03.48-.1.24-.07.37-.1.48-.1h.07l.03.07c0,.07-.03.14-.14.2v.07l.1.07.03.2s.14.03.27.03.2-.03.2-.14c0-.03-.03-.07-.14-.1h.14c.14-.03.2-.07.2-.14v-.07c.31.1.48.31.54.61-.07.14-.2.2-.41.2h-.1l.03.2c.24.17.37.34.37.48,0,.1-.07.27-.2.44s-.24.27-.34.27c-.03,0-.1-.1-.2-.27l-.1-.03c-.07.41-.24.61-.55.61-.2,0-.34-.17-.41-.51h.2c.34.03.51-.14.51-.58,0-.27-.17-.51-.54-.68-.37-.2-.78-.31-1.29-.31-.85,0-1.63.27-2.35.85s-1.12,1.09-1.22,1.56c-.07.31-.1.54-.14.68-.03.17-.03.27-.07.34l-.1.14c-.03.07-.14.1-.24.17l-.03.14c-.1-.07-.14-.14-.14-.17,0-.07.03-.17.1-.31.03-.07.07-.2.1-.44.17-.78.48-1.5.95-2.18.44-.68.95-1.16,1.5-1.39l.41-.2c.07-.03.17-.1.34-.27.34-.34,1.05-.58,2.11-.68,1.5-.17,2.24-.71,2.24-1.7,0-.78-.37-1.16-1.09-1.16-.37,0-.58.17-.58.48,0,.17.07.27.24.37l.48.34.07.17c0,.48-.24.71-.72.71-.17,0-.24-.07-.24-.2l.51-.03v-.1l.1.07.1-.1ZM21.9,9.93l.34-.03c.68-.03,1.02.34,1.02,1.05,0,.31-.14.61-.37.92-.24.31-.54.51-.85.58l-.58.17.17-.17c.03-.1.2-.17.51-.27.44-.17.68-.58.68-1.22,0-.37-.17-.58-.54-.58-.48,0-.71.17-.71.48s.17.48.51.48c.17,0,.27,0,.34-.03-.1.24-.27.34-.51.34-.55,0-.82-.27-.82-.82,0-.41.27-.71.82-.88M8.06,10.03v-.07c0-.07.03-.1.14-.1.24,0,.37.2.37.61,0,.58-.2.99-.61,1.22-.14.03-.2.07-.24.07-.1,0-.17-.07-.17-.17l.1-.17.41-.31c.17-.1.24-.27.24-.54,0-.14-.07-.31-.24-.54M23.57,9.9v-.24c-.03-.27.1-.41.48-.41.41,0,.61.24.61.68,0,.1-.03.17-.07.2l-.24.44-.24.37-.03-.17c.1-.34.17-.54.17-.61,0-.24-.1-.34-.31-.34-.03,0-.14.03-.37.07M19.93,8.71l.07.07c-.37.48-.82.71-1.33.71-.17,0-.27-.03-.27-.1,0-.1.1-.27.31-.48h.68c.24,0,.41-.07.54-.2M1.39,8.5c.2.1.38.31.48.58.2-.1.37-.14.48-.14.41,0,.61.24.61.75,0,.27-.1.41-.31.41.03,0-.07-.03-.24-.07.1-.17.17-.31.17-.37.03-.17-.1-.24-.34-.24-.27,0-.41.17-.41.51s.2.51.65.51c.03,0,.17-.03.41-.07l.88-.24.41-.03-.37.17-.2.07-1.02.51h-.14c-.37,0-.68-.1-.95-.24-.27-.2-.41-.37-.41-.61v-.07c.14-.44.2-.71.27-.85,0-.14.03-.34.03-.58M1.12,7.82c0-.31.1-.44.27-.44s.27.07.38.24l.2.34.2.31.14.31-.2-.17-.37-.44c-.1-.1-.24-.17-.38-.17-.1,0-.2,0-.24.03M5.2,8.88c-.27-.31-.41-.58-.41-.85,0-.17.07-.34.24-.51s.31-.24.48-.24l.14.1c-.1.17-.14.37-.14.58,0,.55.37,1.02,1.16,1.46l1.09.61c.2.1.31.31.31.58,0,.03-.03.1-.07.24-.17.27-.34.41-.51.44l-2.11.14c-.17,0-.27.03-.41.14-.07.1-.2.24-.34.41v.14c0,.17.03.27.14.37-.1.1-.2.17-.27.17h-.03c-.14,0-.24-.03-.27-.07l-.24-.17-.24-.03c-.07-.17-.1-.31-.1-.41s.1-.17.31-.24c-.03.17-.07.27-.07.31,0,.07.07.14.2.24l-.07-.27.1-.2-.14-.17-.03-.07c0-.1.17-.24.54-.48-.07-.1-.17-.17-.31-.2.07-.41.41-.61.99-.61h.24c.1.03.2.03.31.07l.48.1.75.37.48-.03c.14-.03.2-.07.2-.17l-.03-.17.07.1.07.07c0,.1-.03.17-.14.27l.1.1c.17-.17.24-.31.24-.44,0-.17-.1-.24-.27-.24l-.1.1-.27-.1-1.29-.1-.34-.07.03-.1c.17.03.27.07.31.07l.1-.07.03-.07-.37-.07-.2-.17h-.14l.1.2-.07.1c-.24-.24-.37-.44-.48-.61l-.03-.44h.2l.1-.1ZM9.22,7.28l.07-.03c.34,0,.51.17.51.48,0,.14-.07.2-.17.2-.34,0-.51-.17-.51-.48l.1-.17ZM24.11,7.62c-.14-.07-.2-.2-.2-.41,0-.17.03-.31.1-.44.1-.14.17-.2.24-.2l.1.03.07.03.31.03.1.14.2.14.03.1.03.07.14.65.03.1v.03c0,.1-.07.37-.2.82l-.03-.38v-.27c.03-.51-.14-.78-.54-.78-.17,0-.27.1-.38.34M9.69,6.6c.27.03.44.14.51.34-.07.2-.17.31-.34.31-.2,0-.31-.1-.31-.27,0-.1.03-.2.14-.37M9.59,6.26c-.44.58-.95.95-1.46,1.09-.92.24-1.39.41-1.43.51l-.03.14v.03c0,.17.14.27.44.31l-.2.2-.24.03c-.31,0-.44-.17-.44-.55,0-.44.24-.71.71-.78l1.12-.17.31-.17.31-.07.34-.17.58-.41ZM15.58,5.95v.44-.44ZM10.24,6.26l-.03.1-.07.03c-.1,0-.14-.07-.14-.17,0-.2.07-.31.21-.31l.1.1-.07.24ZM12.35,5.85l.2.03.07.17c0,.1-.07.14-.17.14-.03,0-.1-.03-.17-.14l-.03-.1.1-.1ZM14.05,6.16c.14-.24.31-.34.48-.34.41,0,.61.24.61.71,0,.24-.14.44-.41.65l-.27.48c.03.37.17.54.44.54.48,0,.71-.31.71-.88l-.03-.92.17.37c.03.07.07.31.1.68-.03.58-.27,1.06-.72,1.5l-.78.78-.24.31c-.07.1-.14.17-.17.24v-.34c.03-.24.07-.44.17-.58l.27-.37c.07-.1.1-.14.14-.17v-.1l-.34-.38s-.03-.1-.03-.24c0-.17.03-.34.07-.51l.44-.85.07-.14c0-.24-.24-.37-.68-.44M16.26,5.78c.17.44.34.65.51.65.1,0,.2-.07.34-.24l.07.17c0,.27-.17.41-.48.41s-.48-.2-.44-.65v-.34ZM16.22,7.58c-.1-.2-.17-.37-.24-.58-.03-.14-.07-.31-.1-.41l-.03-.34-.03-.34c0-.24.07-.34.2-.34.1,0,.14.14.14.44v.44c0,.14.03.24.14.34.14.24.2.37.2.41,0,.1-.1.24-.27.37M16.22,5.44l.1.17-.1.14v-.31ZM4.66,9.22c-.44-.14-.65-.2-.68-.24l-.27-.2-.44-.34c-.48-.34-.71-.88-.71-1.6,0-.44.14-.82.37-1.12.27-.31.58-.44.95-.44.34,0,.61.1.88.31.2.24.34.48.34.78,0,.2-.03.37-.14.51-.1.14-.2.24-.31.34-.1.1-.24.17-.34.2-.1.07-.17.1-.21.14l-.03.1c0,.17.03.31.14.48-.37-.1-.54-.24-.54-.44,0-.27.07-.44.24-.54l.27-.14.2-.14c.1-.17.14-.27.14-.37,0-.24-.14-.37-.44-.37-.65,0-.99.37-.99,1.12,0,.37.14.71.37,1.05.24.31.54.51.85.61.2.03.31.14.34.31M11.19,5.82c-.27-.1-.41-.2-.41-.38s.07-.24.17-.24c.17,0,.24.2.24.61M1.7,5.14c.37.24.54.34.54.31,0,.03-.03.14-.07.24-.03.1-.07.2-.07.31,0,1.22.51,2.21,1.5,2.92l.27.2.27.17.48.14.27.37h-.37s-.31-.1-.82-.27c-.1-.03-.17-.1-.24-.14-.1-.03-.17-.1-.24-.14-.99-.71-1.5-1.74-1.6-2.99l-.03-.17.1-.95ZM11.33,5.37c0-.24.1-.37.27-.37.24,0,.37.17.37.54,0,.2-.1.31-.27.31-.24,0-.37-.17-.37-.48M6.43,5.99l.1-.34.2-.31.03-.14c.03-.17.1-.24.2-.2.1,0,.17.07.17.17l-.41.68-.24.88-.07.14c-.03.14-.1.17-.2.17l-.1.03s-.14-.1-.24-.27c.24-.03.37-.14.44-.31,0-.17.07-.34.1-.51M12.38,4.83h.07c.31,0,.48.17.48.48,0,.24-.14.34-.44.34-.24,0-.34-.14-.34-.44,0-.24.07-.34.24-.37M22.21,4.86l.14-.1.1.03.14.31.34.72.03.71.17-.03c.2-.41.34-.61.44-.61h.07v.68c0,.65-.07,1.05-.17,1.26-.1.14-.17.24-.2.27,0,.07.07.14.17.17.17-.17.31-.27.37-.24h.17c.44.1.68.34.68.68,0-.03-.03.07-.07.31-.24-.17-.48-.27-.65-.27-.03,0-.17.03-.34.07l-.2.1-.51.14-.65.34v-.07c0-.1-.03-.14-.1-.14h-.03l-.44.44-.07.03c-.07,0-.1-.03-.1-.14s0-.14.03-.17l-.14-.03-.14.2-.31.14-.07.07-.1-.07s.14-.17.48-.41c.03-.03.1-.14.2-.31.2-.44.31-.61.31-.58l-.1-.1-.07.03-.51.85c-.03.1-.14.17-.31.27l-.71.37-.41.03.44-.37.2-.27-.14.03-.24.24-.07.03-.2.1-.54.1-.2.03-.17-.14.27.03.24-.14.41-.14c.2-.2.37-.41.51-.61s.2-.34.2-.41c0-.17-.07-.34-.17-.44l-.1-.07-.17-.58.2-.07-.14.2.03.1.2-.07.17-.07h.2v-.27l.07.03.41.03c-.1-.31-.17-.51-.17-.68v-.07c0-.24.03-.41.07-.44l.1-.2c.07-.17.1-.24.14-.27h.1c.03.17.1.24.2.27.07-.17.17-.38.24-.51.14-.2.27-.31.44-.37M9.28,5.03l.07.14c0,.31-.2.48-.65.48-.34,0-.51-.17-.51-.51,0-.1.07-.2.17-.31.1-.07.2-.1.24-.1h.1c-.1.1-.17.2-.2.27v.03c0,.17.1.27.34.27.1,0,.27-.1.44-.27M6.87,4.86c-.1.1-.17.2-.2.27-.17.24-.27.44-.31.58-.1.44-.17.75-.2.88l-.14.03c-.2,0-.31-.1-.31-.34l.1-.82.03-.61c.03-.1.14-.17.27-.17.03,0,.31.07.75.17M13.81,4.73l-.1.27.2,3.4-.03.07c-.03-.17-.07-.24-.17-.24-.03,0-.07.03-.07.14l.03.27c0,.1-.03.2-.07.27-.03.14-.07.2-.07.24v.03l.07.1.14-.14.07.03-.14.24-.03.17h-.07l-.2.07h-.48l.38.75c.17.34.24.78.27,1.29v.37l.03.41-.03.58v.54l-.24,1.39-.78,2.59-.34,1.67-.31.44.31-1.77.71-2.65c.14-.51.2-1.29.2-2.35,0-1.6-.27-2.48-.82-2.65-.24.31-.51.48-.78.48-.48,0-.92-.14-1.36-.41l-1.22-.78c-.44-.27-.88-.41-1.33-.41-.17,0-.34.03-.58.1v-.17c0-.07.03-.17.14-.34.2-.31.48-.48.82-.48.1,0,.17,0,.2.03l.54.14.03-.51c.65.03,1.16.27,1.46.78l.37.71c.03.1.1.14.27.14s.27-.07.27-.24c0-.1-.07-.2-.17-.31l-.61-.51c-.17-.1-.24-.41-.27-.89l.07-.24.54.2.03-.17c-.2-.2-.31-.41-.31-.58v-.24c.03-.1.03-.2.07-.31l.1-.54c.37.17.61.31.78.37.17.14.27.2.34.31v.03l.14-.07.1-.34.34.34c.07.03.14.14.17.24.17.31.24.51.24.68v1.05c0,.17.07.27.24.27s.24-.1.24-.34c0-.14,0-.24-.03-.27l-.38-1.36v-.1c0-.17,0-.31.03-.37l.07-.41.24.34.14-.07c-.03-.1-.03-.2-.03-.27-.03-.1-.03-.17-.03-.27,0-.44.2-.68.65-.78M16.84,4.56h.1s.1.03.14.24c.03.31.17.44.44.44l.34-.07s.03.07.03.17c0,.27-.17.41-.51.41-.1,0-.27-.07-.51-.2l-.07.17c-.27-.1-.41-.34-.41-.78,0-.1.03-.2.14-.37h.31ZM15.51,4.56h.58l.14.2c-.1.48-.37.78-.85.92l.03-.55c-.24.27-.54.41-.85.41-.24,0-.44-.14-.58-.37.58-.2.85-.31.88-.34l.34-.27h.31ZM9.56,6.09l.17-.2.24-.41.14-.37.17-.54.1.1-.24.58-.03.24-.03.1c-.07.03-.1.1-.14.2-.03.1-.1.17-.14.27-.07.1-.14.14-.17.17l-.07-.03v-.1ZM6.73,6.53c.1.03.2.03.34.07h.2c.44,0,.85-.1,1.22-.31.71-.37,1.05-.82,1.09-1.4.03-.27.1-.41.24-.41s.2.07.2.17c0,.17-.03.37-.14.54l-.24.48-.27.34c-.51.65-1.22.95-2.14.95-.14,0-.31-.03-.55-.1l.03-.34ZM2.86,5.03c-.1.14-.24.2-.34.2s-.24-.03-.41-.1c-.37-.2-.58-.44-.58-.68,0-.1.03-.14.1-.14.03,0,.07.07.14.17.1.1.14.17.17.2l.24.1.14.1.41.03.14.1ZM8.44,4.05l9.9.07c.2,0,.31.07.31.24l-.03.14-1.46-.14-5.14-.03h-3.71l-.24.1-.1-.1.07-.07.14-.03.14-.1.24-.07h-.1ZM6.19,4.01l.44-.03.24.1.51.1c.14.03.27.17.44.37.14.27.2.44.2.61,0,.44-.2.68-.58.68.03,0-.07-.03-.24-.07.17-.17.24-.31.24-.48,0-.1-.07-.27-.2-.48-.31-.24-.65-.37-1.02-.37-.58,0-.85.27-.85.78v.14l.14.27c.07.14.1.24.1.34s-.03.17-.1.17c-.03,0-.14-.1-.27-.34-.17-.24-.24-.44-.24-.61,0-.48.2-.82.61-.99.24-.1.44-.17.58-.2M13.37,15.31l7.96-10.61.17-.2.44-.71s.03.14.03.24c0,.07-.03.14-.1.24l-8.5,11.53-.07-.07v-.07l.07-.34ZM6.16,2.86l15.54.14c.1.03.17.14.17.24,0,.31-.2.71-.58,1.22l-4.35,5.85-3.4,4.42.07-.37.07-.44c.1-.37.14-.75.1-1.09v-.41c0-.24,0-.48-.03-.68l-.03-.31.07-.17,4.52-6.05c.34-.34.51-.61.51-.78s-.03-.31-.17-.37c-.07-.07-.27-.1-.58-.1l-9.59-.07c-.1,0-.24.03-.44.14-.14.1-.24.14-.27.14-.03-.03-.07-.07-.17-.07-.1-.07-.2-.1-.37-.2-.17-.1-.41-.14-.72-.1h-.37l.03-.92ZM25.54,2.72l.07-.1.07.55c.1.2.24.34.34.37l-.14.1c-.31,0-.48-.2-.48-.61,0-.1.03-.2.14-.31M23.03,2.38c.34.1.65.27.95.51v.14l-.65-.44c-.14-.07-.27-.17-.31-.2M20.65,1.9h.31c.1-.03.27,0,.48.1l-.03.07h-.14c-.17,0-.24,0-.27.03-.17.07-.27.14-.27.2l.07.17h.17l.03.1h.37s.14-.03.31-.07h.2c.41-.03.61.1.61.38l-.07.17h-.03l-.1-.07-.31-.24c-.07-.03-.17-.03-.27-.03h-.34l-.71.07h-.24c-.37,0-.54-.1-.54-.34,0-.31.2-.48.61-.44h.07l.1-.1ZM13.54,1.7l.1-.07h.03c.31,0,.48.14.48.41,0,.2-.14.31-.37.31-.31,0-.44-.1-.44-.34,0-.1.07-.2.2-.31M6.12,1.56h.24c.82.03,1.22.24,1.22.61,0,.34-.17.51-.55.51-.14,0-.34-.1-.58-.27l.44-.03.17-.07c.03-.17.07-.27.07-.24,0-.24-.24-.34-.75-.31l-1.02.07c-.1.07-.2.1-.31.1l-.07-.03-.1-.07h-.03l1.26-.27ZM25.27,1.46h.24c.27-.03.44.14.51.51l.03.1c0,.14-.07.27-.24.44l-.1-.07c.07-.17.1-.27.1-.34,0-.27-.1-.41-.31-.41-.34,0-.51.24-.51.71,0,.24.03.48.14.65l.51,1.46.24,1.09.07.24.03.44.07.48-.03.68-.03.37c-.17,1.19-.44,2.04-.88,2.62l-.37.51-.78,1.05c-.1.1-.41.31-.92.61l-.61.34s-.1.1-.24.1l-.34.14-.75.17-.14.03.03-.41.72-.24c.51-.17.82-.31.99-.41.31-.17.54-.34.71-.51.17-.14.31-.24.41-.34l.17-.2.14-.17c.31-.31.55-.68.72-1.12l.51-1.26c.07-.17.1-.31.07-.38l-.03-.27.14-.37-.03-.31.03-.41v-.03c-.03-.51-.14-.95-.37-1.36l-.31-.61-.14-.31-.27-.24-.24-.27c-.1-.1-.27-.17-.48-.17-.31,0-.48.14-.48.41,0,.34.27.54.82.65l.27.07c.1.03.17.07.27.1.07.2.1.34.1.44s-.03.2-.14.37l-.2.03.03-.37v-.1c-.03-.1-.37-.31-1.09-.55-.44-.17-.68-.41-.68-.65,0-.2.1-.37.34-.54l-.07-.17-.37-.14.27-.27c.24-.14.41-.2.54-.2.1,0,.34.07.65.2l.41.34c.17-.03.24-.07.24-.14,0-.1-.1-.24-.27-.41l-.27-1.29c.14,0,.27.03.38.1l.2-.03.1-.1c.07-.14.17-.2.34-.24l.17-.07ZM20.65,1.29c.14-.03.24-.03.37-.07h.27c.24,0,.44.03.65.1l.61.14.17.07.14.07c.37.1.65.24.88.41.17.1.24.24.2.34v.2c-.1-.1-.2-.14-.31-.17-.92-.51-1.87-.75-2.86-.75-.1,0-.17,0-.2.03l-.65.17-.58.14-.34.17-.38.17-.54.41h-.41l-.37-.07.2-.2.2-.14.1-.14h.1v-.07h.14l.31-.24.24-.07.38-.17.2-.1c.48-.14.82-.2,1.05-.24l.31-.03.1.03ZM15.37,1.16h.1l.31.03.38.14c.1.03.17.03.24.03.1.03.2.03.31.03h.34c.17,0,.27,0,.34-.03-.1.2-.24.31-.34.31-.03,0-.1-.03-.24-.03-.14-.07-.34-.1-.65-.14h-.24c-.48,0-.72.14-.72.44s.24.44.75.44c.31,0,.71-.1,1.26-.27l.37-.17.37-.14-.2.1-.2.24-.24.14-.2.14-.17.03-.95.24-.34.03-.1.03c-.24,0-.48-.07-.71-.24-.2-.14-.31-.31-.31-.51,0-.1.03-.27.1-.51l.37-.24.37-.1ZM8.23,1.16l.27.07h.2l.37.1,1.29.65c.37.2.68.31.99.31.17,0,.41-.03.71-.14.17-.1.27-.24.27-.34,0-.24-.2-.37-.58-.37h-.07l-.54.34-.27.07-.14-.03-.31-.1-.14-.03-.17-.34c.37.1.61.17.65.17.14,0,.27-.03.41-.1l.51-.24s.1-.03.27-.03c.71,0,1.06.24,1.06.75,0,.58-.34.85-1.02.85-.48,0-.95-.14-1.39-.37l-1.09-.65-1.29-.54ZM1.63,3.13c-.17.31-.27.44-.34.44l-.1-.07s.03-.1.14-.24.14-.27.14-.37l-.04-.1-.24-.82s-.03-.1-.03-.27c0-.44.2-.65.58-.65s.61.24.71.71l.14.03c.1,0,.14-.07.17-.24.1.27.17.41.17.44,0,.37-.03.65-.14.82l-.34.61.03.54h-.31c.14.24.27.34.41.34h.14l.14-.14-.14-.2.17-.17c.03-.1.03-.2.03-.31.03-.1.03-.17.03-.24v-.41c0-.2.1-.48.34-.85.34-.37.68-.54,1.06-.54.24,0,.31.2.27.58v.2l.2-.03c.1,0,.14,0,.17-.03h.1c.17,0,.34.1.48.31.14.2.2.41.2.61,0,.17-.03.31-.1.41-.14.2-.31.31-.48.31l-.75-.17h-.03l-.07.03c-.17.07-.27.24-.27.48,0,.31.2.48.65.48h.07c-.1.2-.24.31-.37.31-.48,0-.71-.27-.71-.78s.2-.85.61-.95c.1.03.2.03.31.03h.37c.17,0,.27-.07.27-.17,0-.27-.24-.41-.68-.41-.2,0-.41.1-.61.34l-.14.17-.41,1.09-.2.31c-.03.07-.17.1-.37.1-.71,0-1.09-.24-1.09-.75,0-.03,0-.17.07-.37,0-.17.07-.44.1-.82.03-.07.03-.24.03-.48,0-.54-.1-.82-.34-.82-.17,0-.27.07-.27.24l.27,1.19v.27ZM4.76,1.36l.44-.17.41-.07.54-.07.48.03c1.4.1,2.31.44,2.69,1.09.03.03.1.1.14.2.03.07.1.14.17.24-.1.03-.2.07-.24.03h-.03c-.85-.88-1.9-1.33-3.09-1.33-.14,0-.2,0-.24.03l-.51.14-.2.03-.17.1-.27.03-.03-.07-.07-.24ZM2.96,1.12l.1-.1h.1v-.03c.24,0,.37.1.37.34,0,.14-.1.27-.34.44.03-.07.03-.17.03-.34,0-.1-.1-.17-.27-.2v-.1ZM.82,26.39h25.54V.85H.82v25.54ZM.41.41h26.39v26.39H.41V.41ZM0,27.21h27.21V0H0v27.21Z" fill="#231f20"/>
    </g>
  </g>
</svg>