<?xml version="1.0" encoding="UTF-8"?>
<svg id="Layer_1" xmlns="http://www.w3.org/2000/svg" width="27.21" height="27.21" xmlns:xlink="http://www.w3.org/1999/xlink" viewBox="0 0 27.21 27.21">
  <defs>
    <clipPath id="clippath">
      <rect width="27.21" height="27.21" fill="none"/>
    </clipPath>
    <clipPath id="clippath-1">
      <rect y="0" width="27.21" height="27.21" fill="none"/>
    </clipPath>
  </defs>
  <g clip-path="url(#clippath)">
    <g clip-path="url(#clippath-1)">
      <path d="M17.69,3.4l.44.27c1.26.82,1.91,2.04,1.91,3.67,0,1.16-.24,2.11-.68,2.82-.44.71-1.29,1.43-2.52,2.11l-.07.07v.1c0,.07.07.17.17.27.31,0,.54.03.75.1.34.1.61.17.82.27.41.17.75.37.99.61.1.07.17.14.2.17l.1.1c.2.17.34.24.34.31.07,0,.1.1.14.2-.2-.03-.41-.03-.54-.07h-.48c-.2,0-.48.03-.85.14-.37.07-.61.1-.75.1h-.07s-.24-.17-.61-.41c-1.02-.68-2.82-1.02-5.41-1.05h-3.16v7.14l.14,1.19c.07.54.31.95.71,1.26.24.1.48.17.71.2.24.07.44.1.68.14l.2.92-3.4-.14h-.14c-.31-.03-.78,0-1.36.1l-1.12.17h-.24c-.44.03-.65-.07-.65-.31l.03-.1,1.29-.54c.17-.07.37-.27.61-.61.03-.1.14-.27.24-.44.1-.17.17-.37.2-.61l.17-1.22.03-10.03v-.51l-.03-.41.03-1.6v-1.05c.1,0,.24.07.34.17l.31.1c.1.03.17.03.2.07l.27.1.34.24c.31.2.44.48.44.78,0,.14,0,.34-.03.61-.03.27-.03.48-.03.58s0,.2.03.27v.34l.03,2.31h4.73c.24,0,.85-.07,1.77-.2l.44-.07c.17-.03.34-.1.48-.17l.37-.17.27-.2.24-.17.31-.27c.78-.85,1.19-1.87,1.19-3.03,0-.37-.1-.85-.27-1.4l-.54-.92-.31-.41.1-.68c.07-.24.14-.48.24-.71l.24-.51ZM16.05,4.56c-1.26-.71-2.89-1.09-4.86-1.09-.17,0-.75.1-1.73.31h-.24l-.07.14-.14.1-.03.2-.1.2-.14,2.69-.2-.31-.03-.14.1-1.77.07-.2.14-.85.07-.14c.58-.31,1.33-.44,2.28-.44,1.94,0,3.57.41,4.9,1.19v.1ZM3.91,24.22c.24.1.51.14.82.14.44,0,1.02-.07,1.73-.2.48-.07.78-.1.95-.07l3.54.24-1.63.03h-.92c-.37.03-.85.03-1.43.07-.51.03-.95.03-1.33.07h-1.02c-.24,0-.48-.1-.71-.27M19.18,15.27h.68c.2,0,.41.03.58.1h.07c.31-.03.54.24.71.82.2.58.31,1.26.31,2.07,0,1.56-.71,2.89-2.11,3.98-1.4,1.09-3.13,1.67-5.27,1.74l-.1-.61v-.1c0-.07.1-.1.27-.1h.14c1.4,0,2.69-.51,3.84-1.53l.61-.85c.07-.14.14-.27.2-.37.07-.1.14-.2.17-.31l.07-.34.1-.41c.03-.1.03-.24.07-.31v-.34l-.03-.58c0-.82-.27-1.63-.82-2.41l-.14-.14-.2-.24.58-.03h.07l.2-.03ZM18.74,4.01c.58.37.95.75,1.12,1.19l.44,1.02c.03.14.07.24.1.37.03.07.03.17.07.27v.41c0,.48-.07.95-.14,1.43-.14.48-.27.92-.48,1.36-.2.41-.44.78-.71,1.09-.27.34-.58.58-.89.75l-.99.51-.17.17-.2-.1.07-.17.34-.14.54-.37.27-.14.31-.24c.14-.1.2-.17.27-.2l.41-.48c.71-1.05,1.05-2.18,1.05-3.43,0-.37-.07-.82-.2-1.33-.1-.37-.2-.61-.31-.75l-.34-.51-.58-.71ZM3.5,2.92c1.26.14,2.11.68,2.48,1.63-.65-.65-1.5-1.19-2.48-1.63M5.31,3.37l-.31-.14-.34-.2-.37-.14-1.19-.2-.07-.07v-.07c0-.17.1-.24.34-.24l3.37.17,3.95-.07,3.81.1h-.07c.31.03.68.07,1.05.17.38.1.78.2,1.23.37l-.58,1.29c-1.43-.82-3.03-1.23-4.83-1.23-.85,0-1.43.03-1.73.1-.65.17-1.02.55-1.05,1.12l-.07.68-.07,1.73-.24-.17c-.65-.31-1.09-.48-1.33-.51l-.34-.07.03-.51-.1-.34-.07-.31c-.07-.31-.17-.54-.34-.71l-.1-.2-.58-.58ZM21.09,15.51c.58.17.89,1.05.89,2.62s-.65,2.89-1.97,4.15c-1.26,1.22-2.76,1.91-4.42,2.01l-.85.03h-.41s-.07-.07-.1-.2h.48l1.43-.2.61-.17s.14-.07.31-.1c.17-.03.37-.1.54-.17.37-.17.61-.24.68-.24l.44-.27.27-.14c.14-.1.27-.2.37-.31l.31-.2.37-.37.31-.34.17-.2.24-.31.14-.31c.54-.78.82-1.73.82-2.86,0-.51-.14-1.19-.44-1.97l-.17-.44ZM9.28,13.33h2.82l1.09.1.17-.03s.14,0,.31.03c.17.03.31.07.34.07l1.12.2c.31.03.51.1.58.14l.31.14.37.1.75.41-.37-.14-.24-.1c-.17-.07-.58-.17-1.29-.34l-.34-.07c-.65-.17-1.5-.24-2.55-.24h-2.86l-.71.07.03.78v3.54l.14,3.5.24,1.09-.17-.27c-.03-.1-.1-.17-.14-.27-.03-.07-.07-.14-.1-.24l-.14-.88-.07-1.46.03-1.43-.03-.78.03-1.02-.03-2.55.03-.24.68-.1ZM8.57,8.03c.17.1.24.24.24.44v3.67l-.2.03v-.51l-.03-.31v-3.33Z" fill="#a91e22"/>
    </g>
  </g>
</svg>