<?xml version="1.0" encoding="UTF-8"?>
<svg id="Layer_1" xmlns="http://www.w3.org/2000/svg" width="27.21" height="27.21" xmlns:xlink="http://www.w3.org/1999/xlink" viewBox="0 0 27.21 27.21">
  <defs>
    <clipPath id="clippath">
      <rect width="27.21" height="27.21" fill="none"/>
    </clipPath>
    <clipPath id="clippath-1">
      <rect y="0" width="27.21" height="27.21" fill="none"/>
    </clipPath>
  </defs>
  <g clip-path="url(#clippath)">
    <g clip-path="url(#clippath-1)">
      <path d="M5.48,16.53c-.44-1.53-.65-2.76-.65-3.67,0-2.76.88-4.97,2.65-6.63,1.8-1.7,4.11-2.55,7.01-2.55.61,0,1.16.03,1.63.07.48.03.88.1,1.26.2.72.17,1.63.54,2.75,1.12-1.9-.82-3.67-1.22-5.34-1.22-2.89,0-5.24.85-7.01,2.55-1.77,1.67-2.65,3.88-2.65,6.6,0,.85.17,1.97.51,3.44l-.17.1ZM3.78,17.79c-.65-1.53-.95-2.99-.95-4.32,0-.17,0-.34.03-.61,0-.2,0-.51.03-.82.17.07.31.1.44.1.17,0,.37-.03.54-.14.1.1.2.17.27.17.03,0,.1-.07.17-.17.17-.31.27-.65.27-.95,0-.54-.37-1.02-1.16-1.43,1.05-2.48,2.48-4.32,4.25-5.41,1.8-1.16,4.15-1.7,7.04-1.7,1.8,0,3.64.34,5.44,1.06l1.26.51c.1.03.2.03.31.07h.2c.24,0,.41-.07.51-.24l.07-.14.14-.1c.1,0,.14.17.14.54v.17c-.03.71,0,1.19.07,1.46l.55,2.01c.03.1.03.2.07.31v.27c0,.14-.03.31-.1.55l-.2-.27-.58-1.22c-.58-1.26-1.6-2.25-2.99-2.93-1.39-.75-3.06-1.09-5-1.09-2.93,0-5.34.88-7.21,2.62-1.8,1.73-2.72,4.01-2.72,6.8,0,.78.24,2.04.68,3.71-.31.17-.58.34-.85.54-.24.17-.48.41-.71.65M23.13,17.92c.2.1.31.24.31.41l-.65,3.5c-.51.37-.95.71-1.36.95-.41.27-.78.48-1.09.65-.51.24-1.46.58-2.86.95l-.2-.24c.65-.17,1.16-.31,1.57-.44.41-.14.78-.27,1.16-.44s.75-.38,1.09-.61c.41-.24.85-.58,1.39-.99l.68-3.3.03-.1-.07-.34ZM6.6,19.15c1.56,1.7,2.86,2.82,3.88,3.37,1.05.58,2.45.82,4.11.78h.89l.27.44.27.48c-.37.03-.71.03-.99.07h-.72c-2.11,0-3.88-.34-5.27-1.05-1.43-.71-2.82-1.87-4.18-3.5.68-.31,1.26-.51,1.74-.58M22.89,3.78c.2.1.31.24.27.41v.34c-.03.31.03.75.17,1.33.37,1.39.54,2.31.54,2.79,0,.31-.07.44-.2.44.03,0-.03-.03-.17-.07.1-.17.14-.38.14-.61,0-.2-.1-.65-.27-1.29-.1-.44-.2-.85-.31-1.22-.07-.38-.1-.78-.14-1.16v-.71l-.03-.24ZM16.53,23.13c2.01-.44,3.4-.99,4.15-1.6.78-.65,1.53-1.84,2.28-3.64.1.17.14.27.14.37l-.71,3.3-1.16.85c-.37.24-.71.44-1.02.61-.58.31-1.56.65-3.03,1.02l-.31-.44-.34-.48ZM16.09,24.35l.2.2c-.85.07-1.6.1-2.21.1-1.6,0-3.47-.54-5.68-1.63,2.28.92,4.22,1.39,5.88,1.39h.75c.34-.03.68-.03,1.05-.07" fill="#a91e22"/>
    </g>
  </g>
</svg>