<?xml version="1.0" encoding="UTF-8"?>
<svg id="Layer_1" xmlns="http://www.w3.org/2000/svg" width="27.21" height="27.21" xmlns:xlink="http://www.w3.org/1999/xlink" viewBox="0 0 27.21 27.21">
  <defs>
    <clipPath id="clippath">
      <rect width="27.21" height="27.21" fill="none"/>
    </clipPath>
    <clipPath id="clippath-1">
      <rect y="0" width="27.21" height="27.21" fill="none"/>
    </clipPath>
  </defs>
  <g clip-path="url(#clippath)">
    <g clip-path="url(#clippath-1)">
      <path d="M17.35,24.15c.14.1.2.2.2.24,0,.24-.34.34-.99.31l-1.7-.14-4.46.03c-.48,0-.78-.03-.92-.1l-.1-.1-.14-.17c.37.1.65.17.82.17s.34,0,.58-.03c.24,0,.48,0,.78-.03.1-.03.24-.03.41-.03h1.09c.1-.03.24-.03.37-.03h.61c.51.03.99.07,1.36.1.37.03.71.03.95.07h.27c.17.03.44-.03.82-.17l.03-.1ZM12.24,17.24l.34.03.31.03h1.26v4.63c0,.58.27,1.02.85,1.33l.17.07.24.14,1.5.37.27.07s.03.07.03.17c0,.14-.24.21-.68.21h-.51l-1.26-.14c-.17-.03-.31-.03-.48-.07-.14,0-.31,0-.48.03l-3.37.14h-.07c-.78.03-1.19-.07-1.19-.31l.1-.17,1.02-.17h.03l.75-.14c.78-.37,1.16-.85,1.16-1.46v-4.76ZM14.46,17.24c.1.03.14.1.14.2v4.83l.17.58c-.31-.37-.44-.85-.44-1.5v-4.08l.14-.03ZM15.48,3.43c.75-.24,1.29-.34,1.63-.34l-.37.31-1.12.2c-.24.07-.48.27-.68.58-.2.31-.31.61-.31.88l-.07,11.05h-.24l.03-4.52v-6.36c0-.27,0-.44.03-.51.1-.44.34-.82.71-1.09l.07-.14.31-.07ZM9.29,2.96l.61.14.51.14.48.17c.17.07.27.1.31.14.24.1.38.24.38.41l-.89-.37-1.16-.34-.24-.27ZM12.92,2.62l3.47-.1h.24c.44,0,.68.07.68.2s-.07.2-.24.24l-1.5.24c-.41.03-.75.31-1.02.75-.24.48-.38,1.06-.38,1.7l-.03,8.44.03,2.11c-.24.03-.44.03-.58.07h-.37c-.24,0-.58-.03-.99-.1l.03-4.25v-2.55l.03-3.57-.07-.92-.03-.17-.14-.41-.03-.07-.34-.51c-.17-.17-.44-.31-.75-.41l-.31-.14-1.26-.31c-.14-.03-.2-.1-.2-.2v-.03l.37-.2,3.37.2Z" fill="#a91e22"/>
    </g>
  </g>
</svg>