<?xml version="1.0" encoding="UTF-8"?>
<svg id="Layer_1" xmlns="http://www.w3.org/2000/svg" width="27.21" height="27.21" xmlns:xlink="http://www.w3.org/1999/xlink" viewBox="0 0 27.21 27.21">
  <defs>
    <clipPath id="clippath">
      <rect width="27.21" height="27.21" fill="none"/>
    </clipPath>
    <clipPath id="clippath-1">
      <rect y="0" width="27.21" height="27.21" fill="none"/>
    </clipPath>
  </defs>
  <g clip-path="url(#clippath)">
    <g clip-path="url(#clippath-1)">
      <path d="M10.07,23.64c.17.17.44.24.85.24h.51c.2,0,.37,0,.48-.03l.99-.14h.75c.17,0,.27,0,.34.03l.24.03.54.07.24.07c.1.03.17.03.24.03h.44c.2,0,.41-.03.58-.14.1-.1.17-.17.27-.2l.03-.03c.07,0,.1.07.1.2,0,.34-.24.51-.75.48l-1.87-.2c-.07-.03-.24-.03-.51-.03h-.27c-.14,0-.24,0-.31.03-.65.03-1.19.1-1.56.1-.37.07-.65.07-.75.07-.48,0-.71-.1-.71-.34,0-.07.03-.14.14-.24M14.32,14.63l.27.07.07.68-.03,5.14v.85l.03.34v.27c.1.51.24.82.44.99l.14.07v.1l-.37-.24-.14-.07-.2-.31c-.17-.31-.24-.55-.24-.72v-5.68l.03-1.5ZM12.41,14.29l.85.1.85.2.07,1.67-.03,4.22v1.26l.1.61.14.14.07.14.07-.03.17.31.1.07.41.2,1.12.37c-.07.24-.2.37-.44.34l-2.01-.24c-.07-.03-.24-.03-.48-.03s-.48,0-.75.03l-.92.1c-.31.07-.54.1-.71.1-.58,0-.85-.1-.85-.27,0-.1.41-.27,1.23-.51.31-.1.48-.27.58-.51h.07l.1-.34.07-6.84v-1.09h.2ZM18.64,8.23l-.17.37-.37.44-.14.24-.24.24-.24.44-2.76,3.84-.27-.1.37-.61.44-.58.1-.24.41-.51c.1-.2.24-.34.34-.44l1.67-2.38.48-.71.07-.03.31.03ZM9.97,7.24l.14-.14.1-.03s.1.03.2.1l.2.27,1.02,1.63,2.18,3.13.03.14c0,.1-.07.24-.17.34l-.55-.75-.24-.34-.07-.17-.27-.37-.1-.14-.34-.51-.14-.17-.03-.07-.07-.2-.27-.37-.61-.85-.2-.34-.07-.1-.31-.48-.44-.58ZM9.76,7.07l3.2,4.76.1.14.55.78.14.07.24-.41.1-.24.34-.41.14-.14.2-.31c.1-.1.2-.24.27-.31l.17-.27.17-.31.31-.41.51-.75.07-.03.82-1.16.17-.27.07-.1.07-.07s.1.07.2.17l.44.2.14.07-3.81,5.51-.03.07-.03.03-.41-.1-.65-.07-.65-.1-.95-.03c-.03-.1-.1-.17-.17-.24s-.14-.14-.17-.24l-.24-.44-.07-.07-.14-.2-.1-.17-.14-.17-.17-.24-.14-.2-.07-.14-.54-.82-.44-.68-.58-.82-.07-.14-.27-.44-.34-.44-.1-.2c0-.1.14-.2.44-.31l.17-.1h-.1l.41-.14.95-.14ZM9.25,3.3c.17-.1.31-.2.34-.31l-.03-.17.1-.03c.14,0,.2.14.2.41,0,.24-.1.37-.31.41l-.27.07-.2.1c-.27.24-.41.48-.41.65l.61,1.05.1.27.31.37.2.41-.41-.03-.31-.48-.24-.37-.17-.34-.24-.34-.14-.24-.03-.1c-.03-.07-.03-.17-.03-.34,0-.34.31-.68.92-.99M5.31,4.08l-.2.03c-.2,0-.58-.14-1.12-.41-.24-.1-.34-.24-.34-.48v-.03l.34.2c.17.1.34.17.51.2.14.03.24.1.34.14.21.1.38.24.48.34M7.82,3.1l.51-.1.37-.1c.2-.07.37-.1.54-.1s.27.07.27.17v.03l-.61.41c-.51.24-.75.54-.75.95,0,.17.17.51.54,1.09l.37.51.27.54c-.17.03-.31.07-.41.1-.1,0-.24,0-.37.07-.1,0-.27.07-.41.14-.2.1-.41.2-.68.37l-.2-.31-.07-.14-.17-.24-.14-.17-.17-.37c-.1-.1-.2-.2-.24-.31l-.37-.61-.1-.14-.14-.2-.1-.1-.14-.24-.07-.07-.1-.2-.14-.07c-.37-.24-.58-.37-.61-.37l-.37-.1-.44-.24c-.2-.1-.31-.2-.31-.31s.07-.14.2-.14l.85.07h.38l.2.1.68.07c.24.03.44.03.61.03.17.03.34.03.51.03.1,0,.24,0,.44-.03.14,0,.34,0,.51-.03h-.17ZM17.86,3.44l.34.14.54.1c.31.03.51.2.61.48v.03l-.03.14-.1-.17-.31-.14-.78-.31-.27-.27ZM22.62,2.93l.37-.03c.07-.03.17-.03.31-.03.17,0,.24.1.24.27,0,.2-.14.34-.37.37l-.41.1-.48.07c-.24.03-.51.14-.82.37-.51.31-.88.65-1.05.95l-.37.58-.27.37-.14.31-.07-.03-1.06,1.53-.31-.03-.31-.2-.17-.07-.2-.14.14-.14.24-.37c.07-.07.14-.17.17-.27l.2-.2.14-.17.1-.17.07-.1c.1-.14.17-.27.24-.37.07-.1.14-.2.17-.31l.27-.34c.17-.17.24-.31.27-.41,0-.17-.07-.34-.2-.54l-.03-.03c-.17-.1-.31-.17-.44-.2-.14-.07-.27-.1-.37-.14-.48-.03-.71-.17-.71-.41,0-.2.2-.31.58-.31.1,0,.2,0,.31.03.1,0,.24,0,.37.03.24.03.48.07.65.1.17,0,.34,0,.44.03l.78.03,1.74-.14ZM23.6,3.78c-.15.1-1.5.37-1.5.37-.1.03-.31.14-.54.31-.44.31-.71.61-.88.92l-.37.58c-.1.14-.14.2-.17.24l-.1.1-.41.61-.41.51-.14.24-.27.07-.07.1-.14.03.03-.17,2.01-2.79.41-.41c.17-.17.41-.34.65-.51.41-.2.75-.31.99-.31h.17-.24.31l.2-.07c.07-.03.14-.07.24-.1l.14-.17.14-.17s.12.52-.03.61" fill="#a91e22"/>
    </g>
  </g>
</svg>