<?xml version="1.0" encoding="UTF-8"?>
<svg id="Layer_1" xmlns="http://www.w3.org/2000/svg" width="27.21" height="27.21" xmlns:xlink="http://www.w3.org/1999/xlink" viewBox="0 0 27.21 27.21">
  <defs>
    <clipPath id="clippath">
      <rect width="27.21" height="27.21" fill="none"/>
    </clipPath>
    <clipPath id="clippath-1">
      <rect y="0" width="27.21" height="27.21" fill="none"/>
    </clipPath>
  </defs>
  <g clip-path="url(#clippath)">
    <g clip-path="url(#clippath-1)">
      <path d="M2.38,9.18c.1-.17.17-.27.2-.34.07-.1.14-.17.17-.2-.24,0-.34.03-.34.14l-.03.41ZM3.2,13.26c-.03.1-.03.2-.07.31v.41c.03.1.03.2.07.31.03-.07.03-.24.03-.55,0-.27,0-.44-.03-.48M8.74,11.33c.03.27.14.41.37.41l.27.07c-.2-.1-.41-.24-.65-.48M8.6,10.95c.1-.03.2-.17.31-.37l.14-.31.03.07c.1.24-.07.44-.48.61M4.28,24.45c-.27-.17-.44-.31-.48-.37.03.1.07.2.14.2.03.07.17.1.34.17M3.94,25.13c-.17-.14-.34-.24-.48-.31l-.27-.14c.17.14.34.24.48.31l.27.14ZM5.58,25.61c.17-.1.27-.2.27-.24l-.1-.17-.03.03-.1.03c0,.24,0,.34-.03.34M5.95,25.27c.07.1.1.17.1.2l-.1.17c.14-.03.2-.07.24-.03,0-.1,0-.14.03-.1l-.1-.1-.17-.14ZM3.78,22.21c.07.03.17.03.27.03h.2c.14,0,.41-.07.82-.17h-.41c-.1-.03-.38.03-.88.14M5.31,22.04l.99-.41.34-.85-.48.75-.85.51ZM4.15,20.17c.1.03.17.1.27.2.07.1.1.14.14.14l.14-.03c.07,0,.17,0,.27-.03l.07-.03s-.34-.07-.88-.24M5.37,19.11c-.24-.17-.58-.31-1.02-.41-.44-.1-.85-.17-1.26-.24l.75.31,1.53.34ZM5.54,19.22c.1,0,.17.07.17.17,0,.03,0,.07-.03.17-.03.1-.03.17-.03.2,0,.17.1.24.31.27-.1-.03-.17-.14-.17-.24-.03-.37-.14-.54-.24-.58M8.13,23.98c-.07-.03-.03-.54.1-1.6v.27c.03.1.03.24.03.38s0,.27.03.37v.31c-.03.2-.1.31-.17.27M7.11,19.39c.44-.31.68-.65.68-.99l-.03-.03-.1.1-.41.71-.14.2ZM7.86,18.03c.1-.24.14-.48.14-.68,0-.1-.07-.38-.17-.82-.03-.07-.03.17-.03.68,0,.17,0,.27.03.38s.03.24.03.44M8.57,19.39c.1-.07.2-.14.34-.14l.2-.1h-.07c-.17,0-.31.07-.48.24M8.3,18.77c.24-.03.41-.37.44-1.02l-.03.1c-.03.2-.14.44-.31.68-.03.1-.07.17-.1.24M10,19.96l.31.14c.41-.07.65-.14.75-.21-.2.1-.54.1-1.06.07M13.88,20.48c.1-.34.1-.65.03-.88v-.71c-.03.24-.03.41-.07.54-.03.14-.03.24-.07.31-.1.27-.07.51.1.75M15.37,18.03c.1.34.17.58.17.75l-.03.65c.1-.34.14-.61.14-.78s-.1-.37-.27-.61M17.62,17.31c-.1.03-.24.03-.34.03-.1.03-.24.03-.34.03-.37,0-.58,0-.61-.03.17.1.34.17.44.17.24,0,.54-.07.85-.2M18.13,16.36s-.17-.03-.48-.14c-.27-.1-.41-.14-.37-.14l1.12.17s-.03,0-.17.07c-.2,0-.2.03-.1.03M12.45,18.06c-.24.37-.34.58-.34.61,0,.37.03.61.14.78-.03-.03-.03-.27-.03-.71l.24-.68ZM10.41,16.46c-.48-.1-.89-.17-1.23-.2.68.24,1.09.31,1.23.2M10.58,15.78l-.07.07-.07.03c-.31.1-.48.1-.55,0,.1-.03.24-.03.34-.03.1-.03.24-.03.34-.07M12.65,17.65c0-.17-.14-.24-.44-.27l-.17-.03-.03-.03c.1.03.24.1.31.17.14.07.24.14.34.17M10.58,10.48c-.1.03-.17.03-.24.07-.03.03-.1.17-.2.41.31-.37.44-.51.44-.48M6.26,5.44c-.37.31-.65.72-.82,1.23l.24-.31c.07-.1.14-.17.17-.27.24-.34.37-.55.41-.65M2.48,14.8l-.51,1.26-.31,1.09.31-.71.1-.17c.03-.1.03-.17.07-.24l.07-.2c.1-.2.17-.37.17-.58.07-.14.07-.31.1-.44M21.29,6.26c-.03.17-.07.34-.07.48,0-.03.07.1.2.41.1.17.14.27.2.34l.03.14c-.1-.37-.2-.65-.24-.88-.07-.2-.1-.37-.14-.48M20.88,6.56c.07.03.1.1.07.2-.1.03-.2.1-.24.14,0-.03.03-.1.14-.27l.03-.07ZM21.7,6.22v-.07l.07-.03s.07-.03.17-.03l.07.03.07.03s-.07.03-.17.03-.17,0-.2.03M19.66,5.14l.1.37.07.1.07.17c-.03-.34-.1-.61-.1-.75l-.07-.27v.1c-.03.07-.03.17-.07.27M19.59,7.31s-.03.07-.03.17l.03.07.03.14c.07-.27.14-.51.2-.71,0-.03-.03.03-.1.17-.07.17-.1.2-.14.17M4.63,9.76c.07.03.17.03.31.03.1,0,.34-.07.65-.24-.07-.03-.17-.03-.31,0l-.17.03-.03.03c-.14,0-.27.03-.44.14M17.04,21.29c.1.24.27.41.51.44-.1-.1-.17-.17-.27-.24-.07-.07-.14-.14-.24-.2M22.89,25.17c-.07-.2-.2-.41-.37-.58.03.27.14.48.37.58M23.74,24.86c.14-.03.27-.1.41-.17.1-.03.24-.1.34-.14-.24-.03-.34-.07-.31-.07-.1,0-.27.14-.44.37M23.81,23.57c.31-.1.44-.31.44-.65l-.44.65ZM22.65,24.05c.24-.17.41-.34.54-.54-.27.1-.44.27-.54.54M22.07,16.94c0-.1,0-.14.03-.17.07-.07.03-.14-.14-.17-.03,0-.03.03-.03.14,0,.03.03.1.14.2M20.85,19.05v-.14l.1-.1-.07-.27c-.1.17-.14.27-.14.34-.03.03,0,.1.1.17M18.3,18.98c.24.03.34.07.31.07.31,0,.58-.17.75-.48l-.41.24-.34.07-.31.1ZM20.1,16.87l-.48.37c.24,0,.41-.14.48-.37M19.42,16.94l.27-.24.27-.2c.1-.1.14-.17.14-.24,0,.03-.07.03-.17.03s-.17.1-.24.27l-.1.1c0,.07-.07.17-.17.27M24.73,15.95c.07-.03.14-.03.24.03l.1.03c.07,0,.17-.1.24-.27.14-.17.14-.27.1-.27l-.1.03c-.31.27-.48.41-.58.44M23.81,13.43c.03.37.17.65.48.82-.24-.44-.37-.71-.48-.82M23.5,9.69v.31l.65-.48c.2-.14.41-.27.58-.37,0-.03-.2.07-.58.27-.37.24-.61.31-.65.27M20.44,9.59c.14.27.31.41.48.41s.31,0,.34-.03c-.14-.1-.27-.17-.41-.24-.14-.03-.27-.1-.41-.14M22.92,7.35c.27.27.58.41.95.41-.37,0-.68-.14-.95-.41M22.58,8.09l-.14-.51c0-.1-.03-.17-.07-.24l-.1-.2c0,.44.1.75.31.95M5.41,17.72c-.17,0-.24-.07-.24-.24,0-.1.07-.14.2-.14s.2.07.2.17c0,.14-.07.2-.17.2M10.34,12.07c-.03.17-.07.27-.07.24,0,.17.14.24.37.24.03,0,.14-.03.37-.07l.07.07c-.17.1-.37.14-.61.14-.27,0-.41-.1-.41-.31,0-.1.1-.2.27-.31M11.56,2.62l12.93-.07c-.03.1-.03.24-.03.41v.2c0,.17,0,.31.03.34l.34.82c.1.24.17.68.2,1.33l.03.17c.03.37-.03.54-.2.54-.07,0-.17-.2-.27-.58l-.1-.55c-.2-.92-1.12-1.46-2.76-1.63-.14-.03-.51-.03-1.09-.07h-2.45l-2.89.03-.48.03c-.2.58-.31,1.26-.31,2.04v1.9c.03.31.03.65.03.99v2.79l.03,5.31c-.17.03-.31.03-.37.03-.14.03-.2.03-.27.03-.1,0-.2,0-.34-.03-.1,0-.27,0-.44-.03l-.51-.03V5.48c0-.71-.1-1.36-.31-1.87l-.34-.03c-.14-.17-.24-.37-.31-.61l-.14-.34ZM14.62,20.58c0,1.67.54,2.62,1.6,2.86l1.12.2c.17.03.27.1.27.17,0,.14-.27.2-.82.2h-.54c-.2-.03-.48-.03-.75-.07-.27-.03-.54-.03-.75-.07h-.54l-3.77.17h-.1c-.38.03-.58-.03-.58-.2,0-.1.17-.2.51-.24,1.67-.1,2.52-1.12,2.48-3.03v-.48l.38.37c.17.24.34.48.44.68l.31.54c.1-.17.24-.37.37-.54.14-.2.27-.41.37-.58M14.76,16.56l-.03-10.51-.03-.65c0-.37.1-.92.27-1.63l2.52-.07,3.2.07c.99,0,1.77.1,2.38.31-.51-.03-1.09-.07-1.7-.1-.68-.03-1.39-.03-2.18-.03h-2.79c-.37,0-.78,0-1.22.03-.17.51-.24.88-.24,1.19l.07,10.71v.65l-.24.03ZM15,20.14v.61c-.03.31,0,.61.07.88.07.34.17.65.27,1.02-.37-.31-.54-.92-.54-1.87v-.31l.2-.34ZM24.69,2.62l.17.14v.44l.34.92c.17.44.24,1.05.24,1.77,0,.54-.14.82-.37.82-.1,0-.17-.07-.2-.17.27-.07.37-.31.34-.68l-.07-1.09-.14-.54-.31-.88v-.72ZM2.52,2.58l6.97.03h.03c.27-.03.72.31,1.29.95h-4.8c-2.08-.03-3.26.65-3.57,2.01-.1.24-.14.44-.14.55-.03.1-.1.17-.14.2-.14,0-.2-.24-.2-.72v-.2c.03-.1.03-.2.07-.31.24-.92.41-1.53.44-1.8.03-.03.03-.27.03-.72M12.04,3.78c.17.03.24.07.24.17h-.17l-.07-.17ZM2.14,6.53c.1-.03.17-.1.24-.24.07-.14.14-.31.2-.48.03-.17.1-.38.17-.55.07-.17.14-.34.24-.48.17-.24.41-.44.75-.61.61-.31,1.6-.44,2.92-.44h4.01c.17,0,.27.07.37.24l-5-.03c-1.05,0-1.8.14-2.28.44-.48.31-.82.85-1.02,1.63-.14.51-.31.75-.51.75-.03,0-.07-.07-.1-.24M11.46,15.82l.07.17v.24c0,.48.71.71,2.14.71,1.56,0,2.38-.31,2.48-.95.03-.14.07-.2.1-.2.2,0,.31.14.31.41,0,.31-.27.54-.82.75-.54.17-1.22.27-2.01.27-.71,0-1.36-.1-1.84-.27-.54-.17-.78-.41-.78-.68,0-.1.07-.2.24-.37l.1-.07ZM11.26,15.78c-.17.17-.24.27-.27.34h-.17c-.34-.03-.51,0-.51.1s.07.1.2.07h.41c.1.37.31.61.61.75.17.1.44.17.78.24.37.03.82.1,1.33.14l.07.27.03.88c0,.1.03.17.1.17s.1-.07.1-.2l-.03-.24v-.27c0-.17.03-.41.1-.65.2-.03.41-.03.61-.03.2-.03.41-.07.65-.1l-.07.17.03.14.1-.07.14-.17v-.1c.24-.14.51-.24.75-.27l.27-.24c.17-.17.34-.24.51-.2h.2c.14.03.2,0,.2-.1,0-.07-.03-.1-.14-.1l-.17.03s-.14.03-.27.03c-.1,0-.14-.07-.14-.24,0-.1-.03-.17-.07-.2l-.24-.2.41-.03.41.03.07.14c.31.1.58.17.85.2.07.03.17.03.27.07.1.03.24.03.41.07-.17.27-.34.44-.51.51l-.58.2-.07.1.03.1.34.17-.27.27c-.17.17-.41.24-.78.27l-.2.03c-.2,0-.37-.03-.54-.1-.44-.17-.65-.27-.68-.27-.1,0-.17.03-.17.1l.1.2.27.41.1.71-.17.68c-.03.14-.1.2-.14.2l-.14-.03c-.31-.24-.44-.37-.37-.37-.03,0-.03.03-.07.14-.14.37-.41.78-.78,1.16-.07.1-.14.17-.17.27l-.14.17c-.03-.1-.1-.17-.17-.27-.07-.1-.14-.17-.17-.27-.1-.17-.24-.31-.34-.41-.1-.1-.2-.24-.31-.34l-.07-.37-.1-.1-.1.07-.07.17c-.03.1-.14.14-.24.17l-.2.07-.2-1.26.48-.75v-.03c0-.14-.07-.2-.2-.2l-.1.03-.48.31c-.1.07-.24.1-.34.1-.14,0-.24,0-.31-.03.17-.07.27-.14.31-.2h-.14l-.34.03-.41-.03-.07.03.07.1h-.1l-.51-.31c-.17-.1-.27-.2-.27-.24,0-.17.17-.27.48-.34l.07-.03.07-.07-.07-.07h-.03l-.31-.03c-.34-.1-.68-.27-1.05-.58.1-.03.2-.03.2-.07l.1-.07c.58-.34,1.12-.51,1.7-.51.1,0,.31.07.61.17M2.99,2.28c1.02-.75,2.21-1.12,3.54-1.12,2.28,0,4.01,1.02,5.2,3.03l-.1.27c-1.09-2.08-2.79-3.1-5.07-3.1-1.02,0-2.04.31-3.1.95l-.48-.03ZM2.21,3.13l-.03.27s-.07.14-.14.34c-.07.14-.17.37-.31.61-.17.31-.24.68-.24,1.19,0,.92.31,1.74.88,2.45.58.71,1.22,1.05,2.01,1.05.44,0,.82-.1,1.12-.34.34-.24.51-.51.51-.82,0-.27-.1-.41-.34-.41s-.41.1-.58.31c-.41.44-.71.65-.92.65-.37,0-.58-.24-.58-.71,0-.1,0-.2.03-.24v-.14h-.17c-.1-.03-.17-.1-.17-.17s.03-.17.1-.37c.03-.14.07-.31.1-.41l.37.24.07.24.07.1.14-.07c.1-.03.24-.07.48-.1-.03.1-.1.17-.14.2l-.1.17-.14.37h-.27c-.1,0-.17.1-.17.31,0,.31.14.44.37.44.17,0,.38-.14.61-.37.37-.37.65-.54.85-.54.51,0,.78.27.78.82,0,.24-.07.44-.2.61l-.27.37-.07.17.14.14-.27.2c-.17.17-.44.24-.88.24-.41,0-.65-.03-.75-.14l-.41-.34-.37-.14-.41-.37-.1-.03c-.1,0-.14.03-.14.1l.07.14.65.37.48.37.2.14.07.17.1.27h-.17l-.14.03c0,1.06-.37,1.6-1.09,1.6s-.99-.34-.95-1.02l.03-.65c.03-.37-.14-.58-.54-.61.17-.07.31-.1.41-.1.31,0,.48.14.48.44l.07.99c.03.48.2.72.54.72s.51-.27.51-.85c0-.24-.24-.61-.68-1.05-1.05-.99-1.6-2.25-1.6-3.71,0-1.02.38-2.07,1.09-3.13M13.1,2.31c-.03-.58-.34-.88-.85-.88-.65,0-.99.31-.99.95,0,.37.17.82.51,1.33-.44-.51-.65-.95-.65-1.33,0-.85.41-1.26,1.26-1.26.61,0,.92.24.92.75,0,.14-.07.27-.2.44M7.59,15.82c.61.51.92.99.95,1.5,0,.17.03.24.07.24-.03,0,.03-.03.17-.07l.14-.1v.41l-.34.92-.61.58c-.1.1-.14.17-.14.27s.03.14.1.14c.1,0,.17-.03.24-.14l.37-.41.88-.24c-.51.71-.99,1.09-1.36,1.09l-.14-.03-.92-.24h-.1c-.31,0-.48.14-.48.38,0,.37.24.58.68.61l-.2.14.24.07.14-.03.07-.1h.27l.31.03c.17.03.27.27.27.71v.2c-.03.31,0,.44.1.44s.14-.07.14-.17c0-.03-.1-.44-.27-1.16l-.03-.1c0-.1.07-.17.24-.17l.1.03.07.2.65.37c.24.14.34.37.34.71,0,.24-.03.44-.14.61l-.07.24-.1-.1.1.07c-.1-.1-.2-.17-.24-.17-.1,0-.14.03-.17.1l-.03.34-.58,1.12-.14.44c-.31-.17-.51-.34-.54-.48-.07-.14-.14-.41-.17-.85-.03-.17-.07-.24-.14-.24l-.17.07c-.1.07-.14.1-.17.1s-.07-.07-.07-.17.14-.48.38-1.19c.03-.17.07-.31.07-.34,0-.34-.07-.51-.24-.51-.07,0-.14.1-.17.27l-.2,1.26-.14.14c-.07.07-.17.17-.34.27-.17.17-.37.24-.61.24l-.61-.03.03-.21c0-.1-.07-.14-.17-.14-.17,0-.27,0-.34.03-.03.03-.31-.03-.82-.14-.14-.03-.34-.07-.65-.1l.17-.44.48-.27v-.2l-.31-.27.68-.34.72-.03.34-.03c.65-.07.99-.2.99-.41,0-.07-.07-.1-.2-.1l-.1.03-1.02.31c-.14.03-.41-.03-.78-.2l-.61-.24-.07-.03-.03-.03s.07-.1.17-.2c.1-.07.17-.1.17-.14l-.31-.31s-.14-.2-.27-.48c-.1-.17-.24-.31-.44-.44l-.17-.1.54-.44c.1,0,.24-.03.44-.14.07-.03.17-.03.31-.03.2.03.37.07.48.1.17,0,.27-.07.27-.17l-.1-.07.1-.1-.03-.14.82.61.65,1.19c.1.17.2.24.34.24.1,0,.17-.1.17-.27l-.27-1.02-.03-.1c0-.2.1-.48.34-.85.03-.1.1-.17.14-.17l.27.24.41-.55c.07-.07.1-.31.07-.71v-.07c0-.1.07-.24.2-.34M9.9,24.18l1.09.03,2.69-.14h1.29l1.46.1h.24c.71.03,1.05-.1,1.05-.41l.2.31c0,.24-.41.34-1.26.34-.24,0-.51,0-.82-.03-.31-.03-.61-.07-.99-.1h-1.39l-2.18.17-.31.03c-.37,0-.75-.1-1.09-.31M1.63,13.84c-.1.17-.17.31-.17.37,0,.17.07.24.2.24.2,0,.31-.14.31-.38,0-.14-.07-.31-.17-.48-.31-.37-.44-.65-.44-.85,0-.37.21-.58.61-.58.31,0,.61.2.92.58l-.1.17c0,.1.03.14.14.14s.17-.14.24-.37c.17.58.27.95.27,1.12,0,.27-.03.44-.14.54l-.58.85-.03.1c0,.1.03.14.1.14.03,0,.14-.07.24-.2l.41-.58c.17-.31.41-.44.71-.48h.58c-.1,0-.14.03-.03.14l.34.1c.14,0,.2.14.2.31v.1c-.03.1-.1.17-.14.2l-.34-.24s-.1-.03-.2-.03c-.75,0-1.43.51-2.01,1.5-.58.99-.85,2.11-.85,3.37,0,1.09.48,2.38,1.46,3.91l.17.65c-1.39-1.46-2.07-3.23-2.07-5.31,0-1.16.27-2.38.82-3.64.34-.78.51-1.36.51-1.77,0-.17-.07-.37-.27-.61-.14-.24-.34-.34-.54-.34-.17,0-.24.1-.24.31,0,.1.14.24.37.41.17.14.27.34.27.65,0,.55-.24.82-.68.82-.24,0-.34-.1-.34-.34s.17-.41.48-.51M4.56,11.46c.07-.38.24-.55.51-.55.58,0,.85.2.85.65,0,.37-.24.75-.71,1.09l-.48.37-.34.27-.31.2-.37.27.61-.61.78-.68c.27-.27.41-.54.41-.82v-.07c-.03-.24-.2-.38-.51-.38l-.2.07c-.1.03-.17.03-.17.07l-.07.1ZM7.45,6.46l-.03-.37.17-.24.07-.1-.31.03c-.1.1-.24.37-.48.82-.17.27-.41.41-.68.41l-.07-.17-.07-.2-.34.27c-.24.1-.41.17-.51.14h-.17c.03-.17.07-.31.07-.37.03-.14.03-.2.07-.31.03-.85.2-1.33.58-1.46.24-.1.37-.17.37-.14,0-.07-.03-.1-.14-.14.17-.31.51-.44,1.05-.44.31,0,.61.07.92.24.31.14.44.2.48.2.03-.03.07-.1.07-.2.07-.1.14-.2.31-.24.1.31.24.48.34.54l-.14.17.14.1.07.31-.17.03.14.34.07.27-.07.27c-.44-.89-1.02-1.33-1.67-1.33-.58,0-.92.1-1.02.34l-.1.17.34-.14c.37-.1.65-.17.82-.17.85,0,1.36.51,1.6,1.57l-.41-.44-.14.03.17.17c.31.31.44.68.44,1.19l-.03.14-.31.75.07-.78v-.07c.03-.07,0-.2-.07-.37-.24-.61-.58-.92-1.02-.92-.1,0-.24.03-.41.1M9.25,9.25c.2.14.31.27.31.41.03.24.07.41.1.44l.17.03v.07c0,.37-.17.65-.51.82-.24.1-.37.2-.37.27,0,.17.1.24.27.24.27,0,.48-.17.58-.51.07-.24.14-.37.14-.41l.17-.2.54-.31.14-.07c.07,0,.1.1.1.27v.07c0,.14.03.24.07.27.03,0,.07-.03.17-.14.31-.31.54-.48.71-.48.37,0,.54.07.54.2,0,.03-.07.07-.17.14-.2.1-.48.31-.85.68-.78.72-1.5,1.09-2.11,1.09-.65,0-.95-.27-.95-.85,0-.2.07-.41.17-.58l.48-.58.24-.44c.1-.1.1-.24.07-.44M4.76,23.37l-.24.17s-.07.1-.07.2c0,.27.17.51.54.75.44.34.75.54.99.61l.71.14c.2.03.31.1.31.17,0,.1-.1.2-.34.31-.24.1-.41.14-.54.14-.65,0-1.39-.14-2.31-.41-.51-.17-.88-.24-1.19-.24-.44,0-.65.14-.65.41,0,.14.03.2.1.24l.31.17-.31.03h-.07c-.34.03-.51-.14-.51-.58v-.1c.07-.31.24-.44.51-.44h.2l.1-.1c0-.1-.1-.2-.34-.34,0-.1.14-.14.41-.14.61,0,1.16.17,1.6.51l.48.34c.17.14.37.2.65.2.17,0,.27-.03.27-.14,0-.17-.24-.31-.75-.37-.31-.03-.55-.17-.75-.41-.24-.2-.34-.44-.34-.68l.03-.03.17.03.1.03s.07-.07.1-.17c.03-.37.17-.54.48-.54.1,0,.2.03.27.14l.07.1ZM9.9,18.03l.2.07c-.07.71-.34,1.29-.85,1.7-.48.48-1.05.68-1.77.68-.54,0-.82-.1-.82-.31,0-.14.07-.2.2-.2l.82.2.14.03c1.09,0,1.77-.72,2.07-2.18M10.65,7.55c-.78-.24-1.16-.54-1.16-.95,0-.14.03-.24.14-.34l.17-.24.14-.1.07-.03v-.17l.1-.07.1.03.41.14c.65.24.95.75.95,1.6,0,.31-.1.75-.27,1.33-.17.58-.37.95-.61,1.05l-.24.07-.31.24-.07-.1c.75-.92,1.12-1.74,1.12-2.52,0-.85-.27-1.29-.85-1.26-.27,0-.41.14-.41.44,0,.14.14.27.38.41.24.1.37.2.37.31s0,.14-.03.17M11.5,6.53l.03-.44c.03-1.06-.31-1.57-.95-1.57-.2,0-.37.17-.48.48-.07-.17-.1-.31-.1-.41,0-.31.21-.44.61-.44.78,0,1.19.58,1.16,1.77l-.07,1.56-.1-.68-.1-.27ZM10.95,9.73c.65-1.19.99-2.28.99-3.26v-.34c0-.17,0-.27-.03-.34l-.07-.68v-.24c0-.31.1-.51.27-.58l.17-.07-.1.41c-.03.14-.03.41.03.78.07.51.1.85.1.95,0,1.6-.37,2.76-1.16,3.5l-.2-.14ZM4.39,10.14l.68-.07.78.03c1.26.03,2.25-.58,2.89-1.91-.44,1.43-1.5,2.14-3.16,2.14-.31,0-.68-.07-1.19-.2M4.05,13.81c.31-.24.65-.48.99-.68.31-.24.65-.41.99-.58l.85-.41c.44-.17.68-.27.72-.27s.14.1.27.34l-1.26.41-1.09.37-.58.24-.48.34-.41.24ZM4.69,13.88c1.02-.54,1.97-.82,2.86-.82.82,0,1.56.17,2.28.54v.34c-.92-.44-1.73-.65-2.45-.65-.82,0-1.46.1-1.97.31l-.37.17-.34.1ZM5.85,14.76l.58-.14.31-.1c.24-.1.37-.27.37-.44l-.03-.07-.03-.03-.03-.07.14-.07c.24,0,.38.1.38.31,0,.41-.24.58-.72.55l-.27-.03c-.07,0-.17.03-.27.03-.14.07-.24.07-.27.07h-.14ZM6.05,13.64c.44-.1.88-.14,1.33-.14.78,0,1.29.17,1.53.54l.14.2v.07c0,.44-.17.68-.51.68-.07,0-.14-.03-.24-.1.17-.14.27-.27.27-.44,0-.24-.17-.44-.54-.61-.37-.17-.78-.27-1.23-.27h-.2c-.14,0-.24,0-.31.03l-.24.03ZM12.41,9.35l-.1-.03-.07-.03s-.07.03-.17.07l-.14.07-.2.14-.1.14.24-.44c.1-.2.2-.31.34-.31l.1.07c.1.1.14.17.14.27l-.03.07ZM10.03,9.01c.07-.1.1-.17.1-.2,0-.24-.14-.38-.41-.38s-.51.14-.71.44l-.17.2-.07.07-.07.1-.27.2.31-.31c.03-.07.1-.14.17-.24.07-.07.14-.14.17-.24.24-.38.48-.55.78-.55.38,0,.58.17.58.48,0,.27-.14.41-.41.41M6.02,10.54h-.41l-.17-.03.61-.03c.31-.03.54-.07.68-.07.1-.07.2-.07.24-.07l.2.03c.2.03.34.14.38.24l.1.17s.03.07.03.17c0,.41-.2.61-.58.61l-.17-.03c.2-.1.31-.2.31-.37,0-.34-.17-.54-.48-.58l-.27-.03-.27-.03-.2.03ZM11.87,16.33c-.07-.17-.17-.34-.27-.54-.1-.17-.24-.37-.37-.54-.14-.2-.27-.37-.41-.54-.14-.14-.24-.24-.34-.31v-.38c.1.1.24.24.41.34.17.14.31.34.48.58l.17.17.17.27.17.27.2.41.1.17.07.17-.03.03-.1-.03s-.14-.03-.24-.07M16.02,4.15c-.31.85-.48,1.56-.48,2.21,0,1.02.34,2.07,1.05,3.2l-.2.24c-.82-1.19-1.22-2.25-1.22-3.2,0-.51.2-1.33.58-2.45h.27ZM25.14,3.2c.61.99.92,1.87.92,2.58,0,2.82-1.6,4.56-4.8,5.17-.37.07-.61.17-.75.31l-.27.27-.1.03c-.1-.03-.17-.14-.17-.27,0-.27.1-.41.34-.44.1-.03.17-.1.17-.14v-.17c0-.17.14-.24.41-.2l.27.03.75-.14.88-.1c.1,0,.14-.03.14-.1,0-.1-.14-.14-.41-.14-.2,0-.37.03-.54.1-.31.17-.58.24-.78.24-.17,0-.41-.07-.71-.2-.27-.14-.41-.31-.41-.48l.07-.1.1-.14.24-.71.1.07.2.58c.14.34.54.51,1.23.51.99,0,1.84-.41,2.58-1.26.78-.85,1.16-1.8,1.16-2.86,0-.31-.03-.54-.14-.71l-.51-1.6.03-.14ZM20.71,5.88l-.1-.03-.07-.03v.27l-.03.1-.17-.07-.1-.07.03.2-.54-.17c-.2-.07-.31-.31-.31-.75,0-.1.03-.24.07-.44.03-.14.07-.27.07-.34,0-.03-.03-.14-.1-.27.07-.03.17-.03.31-.03h.31c.37,0,.68.1.99.34s.44.48.44.75c0,.2-.07.31-.2.31l-.1-.07-.1-.1-.1.1v.17l-.1-.1-.2-.41-.1-.03-.07.1.03.03.14.2.07.2-.03.14ZM20.24,7.11v.27h.17v.17l-.27.31-.51.37-.14-.07-.1-.34-.17-.48c0-.54.31-.82.88-.82h.03l-.07.07-.07.07.1.07c.07,0,.14-.07.17-.17l.03.07.03.03c0,.07-.07.17-.2.27-.14.14-.2.24-.2.34l.03.07c.1,0,.17-.07.27-.24M22.28,5.68l.1-.2-.1-.1h-.03l-.2.2h-.07l.03-.14-.14-.03-.07.17c-.1,0-.14-.03-.14-.1,0-.17.1-.37.37-.54.2-.17.44-.27.61-.27.1,0,.14,0,.17.03l.71.31.2.03.07.07c0,.07-.03.14-.14.24s-.2.17-.31.24c-.1.1-.24.17-.37.2-.1.07-.2.1-.27.1l-.17-.07.03-.03.07-.03c.17-.1.24-.17.24-.2l-.1-.1-.03.03-.31.2h-.17ZM23.06,8.43c-.75-.03-1.12-.34-1.09-.99l.03-.27c.03-.31.03-.51.03-.58q.03-.14.03-.03c0-.17-.07-.24-.2-.24-.03,0-.07.03-.07.14v.07l.1.2s-.03.24-.1.61c-.03.03,0,.2.03.54-.31-.14-.55-.31-.72-.48v-.07c0-.17-.07-.27-.17-.27-.07,0-.1.03-.1.14l.03.07c.07.27.27.48.61.65.38.17.55.34.55.58l-.1.17-.03.2c-.17.24-.31.34-.41.34l-.07-.1.07-.2v-.07c0-.17-.17-.44-.54-.82-.31-.31-.44-.61-.44-.95,0-.82.37-1.22,1.16-1.22.31,0,.54.07.71.17.17.1.31.37.48.82.2.44.48.68.78.68s.41-.14.37-.37v-.14l.03-.03c.14,0,.2.07.2.2l-.03.07-.07.03-.03.14v.07c.03.44-.14.65-.48.65-.07,0-.17,0-.31-.03-.1-.03-.2-.03-.24-.03l-.1.1.07.27ZM19.22,5l-.07.37c-.72.38-1.06.92-1.06,1.67,0,1.05.54,1.84,1.63,2.35l.17.34c-1.39-.58-2.11-1.46-2.11-2.62s.48-1.87,1.43-2.11M17.92,5.82l.2-.78.07-.24c0-.24-.14-.37-.37-.37-.1,0-.17.07-.2.2.07-.24.17-.37.34-.37.31,0,.48.14.48.41s-.17.65-.51,1.16M15.82,7.24c-.03-.07-.03-.17-.03-.34v-.34c0-.48.1-.85.34-1.19.2-.27.44-.44.75-.44.51,0,.75.27.75.78,0,.27-.14.44-.41.54.03-.1.03-.17.07-.2v-.17c0-.34-.17-.51-.54-.51-.51,0-.82.61-.92,1.87M18.26,6.97c.07-.65.27-.95.61-.95.24,0,.34.14.34.37,0,.07-.07.17-.17.27,0-.2-.07-.31-.24-.31-.1,0-.17.03-.2.17-.03.07-.17.24-.34.44M16.9,9.39c-.17-.24-.27-.48-.27-.65,0-.31.14-.48.44-.48.14,0,.24.1.34.34-.1-.1-.2-.14-.34-.14-.17,0-.27.14-.27.38,0,.14.03.31.1.54M18.09,8.71c-.31-.38-.54-.75-.71-1.19-.1-.34-.27-.51-.51-.51-.27,0-.41.14-.41.44,0,.1.03.2.14.37-.31-.2-.44-.37-.44-.54,0-.44.2-.68.65-.68.41,0,.71.37.88,1.09.03.24.17.58.41,1.02M24.83,7.18l.31-.27.14-.03-.2.31c-.1.17-.27.27-.44.27l-.1-.1.03-.07.27-.1ZM16.26,10.03c-.17-.07-.34-.1-.48-.1-.31,0-.44.1-.44.34l.07.31-.03.1-.24-.31-.03-.14c0-.37.2-.54.58-.54.17,0,.38.1.58.34M16.16,11.84c-.1-.17-.14-.37-.14-.55,0-.58.34-1.16,1.02-1.7.34-.27.61-.41.82-.41h.14l.2.07c-.58.17-1.09.48-1.46.88-.37.48-.58.95-.58,1.46v.24ZM18.3,11.56c-.51.58-.95.88-1.29.88-.48,0-.71-.24-.71-.71,0-.44.14-.89.44-1.33.48-.68,1.02-1.02,1.63-1.02.34,0,.51.27.51.78,0,.2-.07.48-.2.82-.31-.1-.55-.2-.65-.34l.03-.17c0-.14-.03-.2-.14-.2l-.14.07-.31.34c-.2.2-.31.37-.31.54,0,.1.03.17.14.17.03,0,.17-.07.34-.17.1.03.24.1.31.17.14.07.24.13.34.17M17.62,10.92l.14-.24,1.84.99,2.08.88,1.5.85h-.51l-1.02-.48-2.79-1.36c-.65-.31-1.06-.55-1.23-.65M20.61,10.27c-.44-.24-.78-.27-1.02-.1-.1.07-.17.1-.2.1l-.03-.07c0-.24.17-.34.54-.34.2,0,.44.14.71.41M19.69,12.28c-.44,0-.71.1-.85.34l-.1.1c-.1,0-.14-.07-.14-.17,0-.27.14-.41.41-.41s.51.03.68.14M19.73,11.5c-.27-.2-.41-.41-.41-.58,0-.2.1-.31.27-.31l.1.07-.1.14-.07.2c0,.1.07.24.2.48M18.16,13.09c-1.16.51-1.87.78-2.14.78-.51,0-.78-.24-.78-.71,0-.44.24-.68.75-.71-.27.17-.41.34-.41.51,0,.41.2.61.58.61.17,0,.51-.07.99-.2l.75-.2.27-.07ZM17.48,14.29c-.14.27-.2.48-.2.61,0,.27.1.41.31.41.03,0,.17-.07.34-.17-.1.31-.24.44-.41.44-.24,0-.37-.14-.37-.41,0-.31.1-.58.34-.88M22.21,13.37l-.2.17c-.82-.24-1.53-.34-2.11-.34-1.84,0-3.23,1.02-4.18,3.06l-.34.17c1.12-2.31,2.59-3.47,4.46-3.47.58,0,1.36.14,2.38.41M21.36,13.6c-.1-.03-.24-.03-.34-.07h-.34c-.85,0-1.29.2-1.29.58,0,.17.1.27.31.27.17,0,.27-.1.37-.34v.07c0,.34-.2.51-.61.51-.44,0-.65-.17-.65-.48,0-.48.34-.71,1.05-.71.17,0,.41.03.65.03l.85.14ZM22.58,12.65c-.51-.14-.78-.37-.85-.68v-.03c0-.1.03-.14.1-.14.1,0,.2.14.34.41.1.17.24.31.41.44M23.37,12.82c-.48-.31-.71-.65-.71-1.02,0-.65.31-.99.88-.99.51,0,.78.2.78.65,0,.17-.1.31-.34.48.1-.1.14-.2.14-.34,0-.31-.17-.48-.51-.48-.48,0-.71.27-.71.78,0,.24.17.54.48.92M25.51,8.71c-.51.85-.75,1.46-.75,1.9,0,.51.17.75.51.75.2,0,.37-.14.51-.41.14.1.2.2.2.27,0,.41-.24.61-.71.61-.58,0-.85-.41-.85-1.19,0-.51.37-1.16,1.09-1.94M19.73,9.18c-.41-.14-.61-.31-.61-.54,0-.14.07-.2.2-.2v.17c0,.17.14.34.41.58M21.7,14.66c-.07-.17-.1-.27-.1-.37,0-.24.17-.38.54-.34h.17l.1-.1c0-.1-.03-.14-.14-.17.1-.03.2-.03.27-.07h.17c.24,0,.44.1.61.31l.41.44.82.65v.1c-.03.27.03.41.27.41.07,0,.1-.07.1-.24s-.07-.31-.2-.44l-.85-.65c-.24-.17-.37-.44-.37-.75,0-.17.03-.37.1-.61.14.03.24.1.27.14.1.03.17.1.2.1l.07.07s.03-.03.07-.14c.14-.48.41-.71.78-.71.44,0,.65.2.65.58s-.1.54-.34.54l-.14-.14.2-.17.07-.14c0-.2-.1-.31-.31-.31-.24,0-.34.17-.34.51,0,.24.1.51.31.82.44.65.65,1.19.65,1.67,0,.61-.27.92-.85.92-.34,0-.61-.17-.85-.51l-.71-1.02c-.34-.44-.68-.68-.99-.68-.37,0-.58.1-.65.31M25.78,16.63l-.31.24s-.14.03-.37.03l-.14-.07.07-.14.31-.1.34-.24h.03c.1,0,.14.03.14.14l-.07.14ZM17.79,15.75c.27-.2.51-.37.68-.51.17-.1.38-.2.51-.27.2-.07.37-.14.58-.14.2-.07.44-.07.75-.07-.1.07-.14.14-.14.2l.07.1.1-.03.34-.2v.03l-.24.17v.07l.07.1.07-.03.37-.31.14-.03.14.03-.68.54c-.24.17-.34.31-.34.37l.07.14.17-.1.27-.37c.24-.31.51-.44.82-.44l.14.03-.31.14-.03.07.07.07.44-.17.17.07c-.37.03-.55.14-.55.31l.07.03h.03l.51-.2.24.03h-.03l-.1.07v.03l.03.07.31.03.17.1-.37-.03-.2.03c-.34.03-.54.17-.61.41l-.17.61-.44.27c-.1-.27-.17-.41-.2-.41l-.1.1-.34.51-1.12.41-.03-.03-.03-1.29.07-.27v-.03c0-.1-.03-.17-.07-.2l-.24.07-.03-.1.31-.37.2-.1.07-.1-.1-.03c-.44.03-.85.27-1.26.75l-.2-.1ZM6.39,15.44h.17c.41-.03.61.14.61.44,0,.2-.1.31-.27.31v-.14c0-.31-.17-.51-.51-.61M10.17,21.63h-.1c-.17,0-.24-.03-.24-.14l.03-.03.07.03s.1.1.24.14M22.82,16.7c.2.31.31.68.31,1.06-.1-.17-.2-.27-.27-.27l-.07.1s.07.1.14.24c.14.14.17.27.17.37v.17c-.41-.71-.68-1.05-.85-1.05l-.03.1s.03.1.1.2c.1.07.2.17.27.27.14.1.2.24.27.41.1.14.14.27.14.44v.1c-.07-.31-.17-.48-.31-.48l-.07.07s.03.1.1.24c.1.14.14.27.14.37l-.03.24c-.1-.37-.24-.58-.34-.58l-.03.03.03.14.2.27v.1c0,.14-.07.37-.2.75.03-.07.03-.24.03-.51,0-.31-.1-.54-.31-.71l-.58-.48c-.1-.1-.14-.24-.14-.41v-.14c.03-.1.07-.17.1-.2h.1l.1-.07v-.07l-.14-.27s-.03-.07-.03-.17c0-.27.17-.54.54-.85.34.51.51.78.54.78.07,0,.1-.07.1-.17v-.03ZM22.38,19.35c-.03.58-.17.95-.41,1.19-.2.24-.61.41-1.23.51.1-.1.14-.17.14-.27l-.03-.1-.1.07-.37.37-.17.03c.24-.14.34-.27.34-.44l-.03-.03-.1.03-.58.44-.2-.07c.82-.51,1.22-1.02,1.22-1.53l-.07-.17s-.14.17-.24.48c-.31.82-.75,1.22-1.29,1.22l-.14-.03-.17-.07.17-.03c.37-.1.58-.27.58-.51l-.07-.03h-.03l-.41.34c-.17.1-.34.17-.48.17-.24,0-.44-.14-.61-.37.07.03.2.03.41.03.34,0,.61-.17.78-.48l.27-.48.1-.14.14-.14.07-.07s.07.03.1.14c.03.1.07.14.1.14.1,0,.14-.07.14-.17l.03-.51.24-.41.34-.34.1-.07.07.07c.24.31.37.54.37.68v.1l-.03.17.07.1s.1-.03.2-.07c.1-.07.14-.1.17-.1.03.03.07.14.07.24,0,.48-.1.78-.31.92l-.31.2-.07.14c0,.07.03.1.14.1.44,0,.78-.41,1.09-1.26M17.72,20.17c-.1-.1-.17-.2-.17-.27v-.03c.03-.07.07-.1.1-.2l-.07-.07-.07-.03.03-.07-.1-.03-.24-.1-.07-.03.07-.07.27.03.07-.07-.07-.1-.24-.03c-.14-.03-.24-.14-.27-.27.44.24.71.37.82.37l.07-.03.1-.14-.44-.14-.51-.27-.07-.1.07-.03v-.14l-.14-.27.03-.1.1.17c.07.24.24.34.51.34.1,0,.24-.03.34-.1l.37-.24c.14-.03.2-.07.24-.07.07,0,.1.07.17.17,0,.14.07.2.14.2s.17-.03.34-.1.27-.1.31-.1h.07c.14,0,.31.03.48.14l-.07.07-.07.03c-.24.24-.34.44-.34.61l-.27.17.03.14.1.07c0,.44-.27.68-.82.68-.17,0-.37-.07-.51-.14l-.27-.17-.07.17.03.17ZM22.41,15.85c.71.2,1.19.54,1.43,1.02.17.31.24.89.24,1.8,0,1.16-.37,2.14-1.12,2.99-.75.82-1.63,1.22-2.69,1.22-.82,0-1.77-.17-2.82-.54.1-.03.2-.03.31-.03l.14-.03c.07,0,.65.1,1.74.31.07.03.17.03.31.03h.34c.88,0,1.7-.41,2.42-1.19.71-.78,1.05-1.7,1.05-2.75,0-.95-.44-1.91-1.33-2.82M24.69,22.18l-.03-.07c.31-.58.44-1.09.44-1.5,0-.61-.14-.92-.41-.92l-.2.03-.07-.1c0-.17.1-.27.34-.27.31,0,.44.24.44.68,0,.58-.17,1.29-.51,2.14M24.11,20.03l.17-.99v-.99c.03-.37.17-.58.48-.68h.07c.24,0,.37.07.37.24,0,.1,0,.14-.03.17-.1-.1-.17-.14-.27-.14-.17,0-.34.44-.44,1.29-.03.1-.07.27-.1.44-.07.17-.14.41-.24.65M16.7,18.5c.24.44.34.85.34,1.19,0,.44-.17.65-.48.65-.1,0-.2-.07-.31-.24h.07c.27.03.41-.04.41-.24l-.1-.92.07-.44ZM24.93,22.75l-.1-.61c.51-1.43.78-2.48.78-3.13,0-.24-.1-.85-.27-1.84l.37-.14c.1.51.17.92.2,1.26.03.37.07.68.07.92,0,.89-.34,2.07-1.05,3.54M25.34,23.33h.07c.41,0,.61.17.61.48,0,.24-.14.37-.41.37.17-.14.24-.27.24-.37,0-.2-.17-.37-.51-.48M21.33,25.03l.2.41c-.37.1-.65.17-.85.2-.24.03-.41.07-.51.07-.24,0-.44-.1-.58-.27l.07-.1s.41-.07,1.05-.1c.17,0,.37-.07.61-.2M25.41,25.95v-.14c0-.31-.24-.48-.71-.48-.03,0-.17.03-.41.07l-.82.27c-.17.03-.27.07-.31.07-.17,0-.37-.1-.54-.27l-.2-.17c-.14.07-.24.1-.34.1-.34,0-.51-.17-.51-.54,0-.17.07-.27.2-.31l.24-.03.07-.1v-.24c.1-.24.2-.41.31-.51l.61-.51c.51-.51.75-.92.75-1.22,0-.1-.03-.17-.07-.24-.07-.1-.1-.14-.1-.17,0-.07.03-.1.14-.1.41,0,.61.2.61.61l-.03.14c0,.07,0,.14-.03.24l.24.1.1-.07v.72c0,.37-.24.68-.72.92-.54.27-.82.48-.82.58s.03.14.1.14l.14-.03.61-.41.51-.17c.37.07.65.14.82.17l-.07.14c-.07.1-.1.14-.1.17l.1.1c.44.17.65.37.65.68,0,.24-.14.41-.41.51M18.09,22.86c.48.1.89.2,1.29.24.34.03.68.07.92.1.85.03,1.29.31,1.29.82,0,.37-.17.58-.55.58-.03,0-.14-.07-.24-.17.31,0,.48-.14.48-.37,0-.34-.27-.54-.78-.61-.37-.03-.65-.1-.82-.1l-.27-.07c-.31-.03-.75-.17-1.33-.41M21.53,23.06h.2l.24.14-.31-.07-.14-.07ZM23.09,20.51v-.24c0-.14-.03-.24-.17-.27l-.14-.1c0-.1.07-.14.2-.14.17,0,.24.1.24.27s-.03.31-.14.48M17.55,22.89c1.33.51,1.97,1.09,1.97,1.8,0,.34-.17.75-.54,1.26-.03-.24-.1-.38-.2-.38h-.03l-.58.38c-.1.07-.24.1-.41.1-.65,0-.99-.31-.99-.88,0-.37.2-.58.58-.58.24,0,.37.1.41.31l.03.27c.03.1.1.14.24.14l.27-.07c-.07.2-.17.31-.34.31-.14,0-.24-.03-.27-.07-.03-.03-.1-.17-.2-.41-.07-.17-.14-.24-.24-.24-.17,0-.24.1-.24.34,0,.37.24.58.68.58.34,0,.61-.14.85-.37.24-.24.34-.54.34-.92,0-.58-.44-1.09-1.33-1.57M15.51,20.03s.07.03.17.03c-.03,0,.03-.03.17-.07.14.51.34.78.61.78h.07l.14-.17h.07c.1,0,.34.17.68.51.24.27.48.41.71.41.1,0,.24-.07.41-.17h.03l.03.1v.1c0,.1-.07.17-.2.17l-.1-.03s-.1-.03-.2-.03l-.07.03-.07.07v.14l-.31.07-.1.03c-.14,0-.24-.03-.31-.1-.07-.03-.2-.2-.41-.48-.17-.2-.31-.31-.37-.31-.1,0-.17.07-.17.17,0,.14.1.34.31.58s.31.44.31.61v.14l-.1-.03-.07-.03-.03.1c-.07.31-.24.44-.51.44l-.07-.07h.03l.17-.27v-.03c0-.24-.07-.44-.24-.61l-.24-.24c-.1-.1-.14-.2-.14-.37v-.14c.03-.1.03-.14.07-.17l.14-.14.07-.1-.07-.07c-.03-.07-.1-.14-.14-.27-.07-.07-.14-.2-.2-.31-.03-.1-.07-.2-.07-.27M21.19,21.16c.31-.17.55-.27.72-.27.2,0,.31.1.31.27,0,.1-.03.17-.14.27-.1-.24-.27-.34-.55-.31l-.34.03ZM18.88,22.21c.07.03.24.03.48.03.54,0,.82-.2.78-.61v-.1c.14,0,.2.1.2.34,0,.34-.2.51-.65.51-.17,0-.44-.07-.82-.17M9.66,17.86c-.03.41-.17.61-.41.61-.14,0-.2-.07-.2-.17l.07-.1.34-.07.2-.27ZM11.84,19.86c.17.17.24.27.24.38,0,.58-.78,1.33-2.35,2.21l.03-.27c.51-.31.92-.58,1.23-.88.17-.2.48-.68.85-1.43M11.5,21.67c-.24.17-.41.34-.51.58-.27.71-.44,1.06-.51,1.06l-.24-.03.65-1.12.61-.48ZM10.58,19.15c-.14.03-.2.1-.2.2v.03l.03.1.27.03c.14.03.27.1.37.14s.2.1.31.14l-.58.65-.31.07-.1.14.1.14.24.1.07.1-.1.03c-.31.14-.61.2-.85.2-.34,0-.71-.24-1.12-.68.31-.24.54-.34.78-.34.2,0,.31-.03.31-.1,0-.1-.07-.17-.17-.17h-.1l.03-.07c.14-.07.24-.17.27-.34.14-.34.24-.51.34-.51s.24.03.41.14M10.2,22.58c-.14.31-.27.58-.41.82-.17.27-.34.54-.51.78l-.07.03-.07.07-.03-.14c0-.24.37-.78,1.09-1.56M6.87,23.47c-.54.14-.82.34-.82.65,0,.03.07.17.24.41l.03.07c-.17-.03-.31-.03-.41-.07-.14-.03-.2-.14-.2-.31,0-.48.37-.71,1.16-.75M2.82,24.15c-.37-.31-.68-.48-.88-.48-.14,0-.31.03-.54.1.31-.17.51-.24.61-.24.2,0,.48.2.82.61M10.95,15.31h-.24c-.44.03-.68-.34-.68-1.16,0-.37.07-.78.2-1.22l.03-.03.1.03c-.1.51-.17.92-.17,1.22,0,.38.2.68.61.99l.14.17ZM2.38,21.73c-.07-.31-.1-.51-.1-.68,0-.44.2-.65.58-.65.1,0,.2.03.24.07l.14.44h-.41l-.44.82ZM1.97,18.77c.03-.17.07-.34.07-.48.03-.1.03-.2.07-.31.1-.48.31-.71.61-.71.1,0,.17.07.17.24v.07s-.1-.03-.2-.03c-.31,0-.54.41-.71,1.22M3.13,17.72c.27-.58.41-1.05.41-1.46,0-.17-.07-.37-.2-.61l.14-.07.14-.07c.1,0,.17.14.17.41,0,.65-.2,1.22-.65,1.8M3.37,17.62c.88-1.8,1.97-2.72,3.23-2.72.68,0,1.5.27,2.48.85l-.2.14c-.92-.51-1.67-.75-2.28-.75-.78,0-1.36.24-1.73.71l-1.29,1.8-.2-.03ZM13.16,25.88c.71-.88,1.36-1.33,2.01-1.33.58,0,.89.2.89.65s-.17.68-.48.68c-.17,0-.31-.07-.41-.24h.2c.24,0,.34-.1.34-.27,0-.31-.2-.48-.65-.48-.14,0-.58.24-1.29.68-.14.1-.34.2-.61.31M8.57,25.13s.14-.03.24-.03.17.03.2.14l.03.31c.03.2.14.31.34.31.24,0,.44-.27.61-.82l.1.14.03.07s-.03.14-.1.27c-.17.38-.37.54-.68.54-.37,0-.51-.1-.48-.31v-.27c.03-.17-.07-.27-.31-.34M4.25,6.53c.07-.34.1-.68.1-.99.03.1.03.2.07.27v.14c0,.1-.07.27-.17.58M1.9,2.82c-.17.31-.34.48-.51.48s-.24-.07-.24-.24l.07-.1h.03l.27.07.37-.2ZM13.2,24.73c.03.07.03.2.03.44,0,.54-.27.82-.78.82l-.14-.03-.65-.21-.14-.03-.07.03.07.14c-.68-.24-1.16-.65-1.43-1.29l.61.1c.51.65.99.95,1.5.95.54,0,.89-.24.99-.68v-.24ZM3.78,1.36c-.1.03-.24.07-.31.14-.14,0-.2.07-.24.1-.71.37-1.16.54-1.36.54-.34,0-.48-.17-.44-.51v-.03c.17.24.34.37.48.37.1,0,.31-.03.54-.1l1.33-.51ZM7.96,1.77l-.37-.03c-.37-.03-.58,0-.68.03-.1.07-.17.24-.2.48-.17,0-.24-.07-.24-.24,0-.24.24-.34.68-.34.24,0,.51.03.82.1M20.24,1.6c.51,0,.92.1,1.22.34l.03.07.07.07c0,.1-.1.17-.34.24h.03c0-.24-.14-.44-.37-.54-.1-.03-.2-.03-.27-.07-.14-.03-.24-.07-.37-.1M10.71,2.41c-.34-.24-.51-.51-.51-.82v-.07c.27.2.44.51.51.88M16.67,2.28h-.17c-.17-.71-.48-1.09-.92-1.09-.41,0-.61.17-.61.54,0,.27.1.41.34.37h.14c-.17.03-.27.07-.31.07-.17,0-.27-.14-.27-.41,0-.44.27-.65.82-.65.65,0,.99.37.99,1.16M17.04,2.04c.37-.24.54-.44.54-.65l-.03-.03-.1-.07.1-.1.2.14v.03c0,.24-.24.44-.71.68M24.08,1.94c.38.1.68.17.92.17.44,0,.68-.14.68-.41,0-.07-.03-.2-.1-.37.24.24.37.44.37.58,0,.24-.24.34-.71.34-.37,0-.75-.1-1.16-.31M17.55,2.28h-.37c1.56-.75,2.72-1.12,3.5-1.12s1.94.37,3.54,1.12h-.41c-1.33-.65-2.38-.95-3.13-.95s-1.8.31-3.13.95M22.89,6.39c.1-.03.14-.07.17-.1l-.17-.1-.17-.03c0-.1.07-.14.24-.14s.27.1.27.34c0,.1-.03.17-.1.17s-.14-.03-.24-.14M10.61,12.35c.2-.37.44-.58.68-.58.27,0,.41.1.37.31v.17c-.14-.17-.27-.27-.41-.27-.17,0-.41.14-.65.37M11.53,11.56l-.2-.03c.24-.24.41-.34.51-.34.37,0,.54.24.54.75,0,.24-.14.51-.41.88l-.07-.14c.24-.31.34-.54.34-.78,0-.34-.14-.51-.37-.51-.03,0-.17.07-.34.17M10.92,14.11c.44.48.78.72,1.09.72h.1c.1,0,.17,0,.24-.03-.03.2-.1.31-.2.31-.37,0-.78-.34-1.22-.99M10.51,13.57l-.03-.14.92-.31.1.1-.99.34ZM11.26,12.21h.1c.37.58.58,1.05.58,1.39,0,.17,0,.31-.03.44,0,.14,0,.27-.03.44l-.14-.07c.03-.07.03-.2.03-.38v-.37c0-.37-.17-.88-.51-1.46M4.46,5.24c0-.1.07-.17.17-.17s.17.07.17.17-.03.14-.14.14c-.14,0-.2-.03-.2-.14M3.98,5.34c-.1,0-.17-.07-.17-.2,0-.1.07-.17.2-.17.1,0,.17.07.17.2,0,.1-.07.17-.2.17M3.94,5.58c.1,0,.17.07.17.17s-.07.17-.17.17-.17-.07-.17-.17.07-.17.17-.17M10.65,1.56c-.1,0-.17-.03-.17-.14,0-.07.03-.1.14-.1s.14.03.14.14l-.1.1ZM9.93,1.33l.07-.14c.14,0,.21.03.21.14l-.14.07-.14-.07ZM9.83,1.6c.1,0,.14.03.14.1s-.03.1-.14.1-.14-.03-.14-.1.03-.1.14-.1M5.2,16.39c-.1-.03-.17-.14-.17-.24,0-.17.07-.24.24-.24.1,0,.17.07.17.24s-.07.24-.24.24M5.99,16.22c-.17,0-.27-.07-.27-.24,0-.14.1-.2.27-.2s.24.07.24.24c0,.14-.07.2-.24.2M4.97,16.87c0-.17.07-.24.24-.24.1,0,.17.07.17.24s-.07.24-.2.24-.2-.07-.2-.24M5.75,16.8c-.17,0-.24-.07-.24-.2,0-.17.07-.24.24-.24s.27.07.27.2c0,.17-.1.24-.27.24M6.46,16.67c-.17,0-.24-.07-.24-.2,0-.17.07-.24.24-.24.14,0,.2.07.2.2,0,.17-.07.24-.2.24M6.87,17.01c-.1,0-.17-.03-.17-.1,0-.17.1-.27.31-.27.07,0,.1.03.1.14,0,.17-.07.24-.24.24M6.26,17.21l-.07.03c-.14,0-.2-.03-.2-.1,0-.1.07-.17.24-.24h.03l.17.07.03.03c0,.1-.07.17-.2.2M5.85,17.58v-.03c.03-.1.07-.14.17-.14.03,0,.07.07.07.17s-.03.17-.14.17c-.07,0-.1-.07-.1-.17M5.65,18.03l.37.14-.14.24-.24-.37ZM6.05,18.88l-.14-.1.07-.17.07.1v.17ZM4.97,17.48c-.1,0-.17-.07-.17-.17s.03-.14.07-.14c.1,0,.17.07.17.17l-.07.14ZM8.74,24.25c-.07,0-.1-.07-.1-.2v-.03c.03-.1.07-.14.17-.14.07,0,.1.07.1.17v.07c-.03.1-.07.14-.17.14M8.94,24.79c-.07-.03-.1-.07-.1-.17v-.03c.03-.1.1-.14.2-.14.07,0,.1.03.1.14,0,.14-.07.2-.2.2M9.52,24.69c-.1,0-.14-.03-.14-.14,0-.14.03-.2.14-.2s.14.07.1.17c0,.1-.03.17-.1.17M22.41,8.57c.1,0,.14.03.14.14s-.03.14-.14.14-.14-.03-.14-.14.03-.14.14-.14M22.14,9.12l.2.07-.17.07-.17-.07s.03-.03.14-.07M23.4,8.74l-.1-.1c.03-.1.1-.17.17-.17l.07.1c0,.1-.03.17-.14.17M22.86,9.12l-.1-.14c0-.17.07-.24.2-.24.07,0,.1.03.1.14,0,.17-.07.24-.2.24M21.5,11.6c-.1-.03-.14-.1-.14-.2s.07-.17.2-.17.2.07.2.24c0,.1-.07.17-.24.17l-.03-.03ZM22.14,11.7c-.07-.03-.1-.07-.1-.17s.03-.13.14-.13.17.07.17.2c0,.07-.07.1-.17.1h-.03ZM22.11,22.86c0-.1.03-.14.14-.14l.1.14c0,.07-.03.1-.14.1l-.1-.1ZM21.87,23.47c.1,0,.14.03.14.1s-.03.1-.14.1-.14-.03-.14-.1.03-.1.14-.1M22.18,23.33c0-.1.03-.14.14-.14l.1.1c0,.1-.07.14-.17.14l-.07-.1ZM21.22,12.07c-.1-.03-.14-.1-.14-.2s.07-.14.17-.14.17.07.17.2c0,.1-.07.14-.17.14h-.03ZM18.2,17.86c-.07,0-.1-.07-.1-.17l.03-.03.1-.1c.07,0,.1.03.1.14v.03l-.07.1-.07.03ZM18.6,17.11c-.14,0-.2-.07-.2-.17,0-.14.07-.2.2-.2.1,0,.17.07.17.24,0,.1-.07.14-.17.14M21.16,17.79l-.1-.14s.03-.07.14-.07l.07.07v.03l-.1.1ZM21.16,17.14c.07,0,.1.03.1.14l-.1.1-.1-.1c0-.1.03-.14.1-.14M20.71,17.86l-.07-.1c0-.07.03-.1.14-.1.07,0,.1.03.1.14,0,.03-.03.07-.14.07h-.03ZM20.61,17.41l-.03-.1c0-.1.03-.17.1-.17l.1.1c0,.1-.07.17-.17.17M20.2,18.2c-.1-.03-.17-.1-.17-.17s.07-.1.17-.1.17.03.17.14-.07.14-.17.14M19.66,17.75l.1.1c0,.1-.03.17-.1.17s-.1-.07-.1-.17l.1-.1ZM19.05,18.03c-.1,0-.14-.03-.14-.1,0-.1.07-.14.17-.14s.14.07.14.17c0,.03-.03.07-.14.07h-.03ZM18.71,17.58c-.1,0-.14-.03-.14-.14s.03-.17.14-.17c.07,0,.1.07.1.2l-.1.1ZM21.63,18.77l-.07-.14.1-.07.1.1-.1.1h-.03ZM20.2,17.58c.14-.03.2-.07.17-.07l.1.1-.1.03s-.03-.03-.17-.07M22.04,19.11c-.1,0-.14-.07-.14-.17v-.03l.14-.1s.07.03.07.14l-.07.1v.07ZM6.84,7.96c.1-.51.27-.75.58-.75.51,0,.75.31.75.95,0,.92-.75,1.5-2.24,1.77,1.26-.37,1.9-.95,1.9-1.67,0-.41-.2-.61-.61-.61-.17,0-.27.1-.38.31M.82,26.39h25.54V.85H.82v25.54ZM.41.41h26.39v26.39H.41V.41ZM0,27.21h27.21V0H0v27.21Z" fill="#231f20"/>
    </g>
  </g>
</svg>