<?xml version="1.0" encoding="UTF-8"?>
<svg id="Layer_1" xmlns="http://www.w3.org/2000/svg" width="27.21" height="27.21" xmlns:xlink="http://www.w3.org/1999/xlink" viewBox="0 0 27.21 27.21">
  <defs>
    <clipPath id="clippath">
      <rect width="27.21" height="27.21" fill="none"/>
    </clipPath>
    <clipPath id="clippath-1">
      <rect y="0" width="27.21" height="27.21" fill="none"/>
    </clipPath>
  </defs>
  <g clip-path="url(#clippath)">
    <g clip-path="url(#clippath-1)">
      <path d="M8.98,23.84l.54.14.31.03.75.17.85.14.65.07h.54s.1.1.14.27h-.17l-.37-.03-1.77-.27-.58-.17c-.31-.1-.48-.14-.54-.17-.07-.03-.17-.07-.34-.17M6.33,15.88l.14.2.03.61v.65c-.03.44.03.92.17,1.43.17.54.37,1.16.68,1.8l-.1-.1-.1-.14-.2-.34-.2-.41-.1-.31-.14-.34c-.14-.71-.2-1.16-.2-1.39l-.03-.44.07-1.22ZM4.29,13.5l.48.37.17.17.65.51.14.1.2.1.07.03.17.1c.03.07.03.17.03.31,0,.17-.03.37-.07.71-.03.27-.07.51-.07.68,0,1.8.54,3.33,1.6,4.52,1.09,1.19,2.52,1.87,4.25,2.01l.41.1.17.65.14.37-.48-.03-.44-.03c-1.6-.03-3.06-.48-4.35-1.29-1.33-.85-2.14-1.84-2.48-3.03l-.24-.68-.07-.41-.03-.07-.07-.37-.14-.82c-.1-.34-.14-1.02-.14-2.04v-.51c0-.1,0-.2.03-.31l.07-1.16ZM21.5,16.53l.03-3.13-.07-3.13M22.89,9.15l.07.07v7.41l-.07.37.03.07-.14.85-.1.51-.2.75-.07.2-.24.51-.1.34-.31.58-.2.44-.24.27-.24.34-.51.51-.41.27-.41.34c-1.16.92-2.79,1.46-4.86,1.63l-.58.07h-.1c-.14,0-.24-.1-.27-.27l.41-.03c.44-.03.82-.03,1.19-.1.37,0,.68-.07.99-.17l1.19-.37.65-.27c.14-.1.31-.17.41-.2l.24-.14.88-.58.17-.1c.58-.37,1.09-.92,1.46-1.63.37-.72.65-1.39.85-2.11.17-.68.27-1.36.31-2.04l-.03-5.61v-.78l-.03-.54v-.07c0-.1.03-.2.1-.34l.17-.17ZM19.25,3.37l1.02.27.07.03c.27.1.51.27.75.48l.14.27c-.24-.14-.41-.24-.54-.31-.17-.07-.27-.1-.31-.14-.58-.07-.95-.27-1.12-.61M2.24,3.3l.85.31.1.07.34.17.24.24c-.27-.1-.48-.2-.65-.24-.14-.03-.24-.1-.34-.1l-.2-.14c-.1-.07-.2-.17-.34-.31M24.83,3.03c.03.17.07.27.07.24,0,.1-.03.17-.14.27l-.1.14-1.05.27c-.48.14-.72.54-.72,1.19v2.35l-.2.54-.07-1.02.03-.61-.03-.65v-.31l.03-.34h-.03c.03-.34.1-.61.27-.85.24-.37.58-.58,1.02-.68l.51-.1c.24-.07.37-.2.41-.44M21.22,4.08c-.41-.31-.71-.51-.88-.54l-1.06-.31c-.17-.03-.24-.07-.24-.14,0-.2.24-.31.75-.31.1,0,.38.03.78.1l2.69.03.48-.07.65.03c.2.03.31.1.31.17,0,.1-.07.2-.17.24l-1.16.31c-.61.2-.92.88-.92,2.04v.44c.03.07.03.17.03.27v.14l.03,1.12.03.44c0,.24-.1.48-.27.65l-.24.2-.34.34-.24.14.03-3.54-.03-.92c0-.34-.07-.61-.24-.85M8.4,2.82c.03.17.07.27.07.31,0,.17-.07.27-.24.34l-.88.31c-.51.17-.78.61-.82,1.33v5.14l-.24-.07s-.07-.14-.07-.31v-.14c0-.1,0-.2.03-.27v-3.91c0-1.02.31-1.67.88-1.9v-.03l.2-.1.27-.03.14-.07.41-.14c.1-.03.2-.2.24-.44M7.65,2.72h.2l.1-.03c.17,0,.27.07.27.2,0,.1-.03.17-.1.2-.17.1-.34.17-.51.24l-.44.14c-.17.03-.31.14-.48.34l-.41.44c-.1.17-.17.37-.17.54v5.34c-.1-.03-.27-.1-.41-.2-.2-.1-.38-.2-.55-.31l-.51-.31-.34-.24-.07-.14v-.82l.03-3.09c-.07-.58-.24-.99-.48-1.22-.24-.24-.68-.44-1.29-.58-.41-.07-.61-.17-.61-.31s.1-.2.34-.2l3.27.14,2.14-.14ZM21.46,10.27l.41-.24.17-.1.48-.31.03,6.02c.03,5.2-2.45,8.06-7.48,8.57-.78.07-1.16.1-1.06.1-.14,0-.24-.07-.31-.24l-.1-.85c5.2-.1,7.86-2.31,7.89-6.7" fill="#a91e22"/>
    </g>
  </g>
</svg>