<?xml version="1.0" encoding="UTF-8"?>
<svg id="Layer_1" xmlns="http://www.w3.org/2000/svg" width="27.21" height="27.21" xmlns:xlink="http://www.w3.org/1999/xlink" viewBox="0 0 27.21 27.21">
  <defs>
    <clipPath id="clippath">
      <rect width="27.21" height="27.21" fill="none"/>
    </clipPath>
    <clipPath id="clippath-1">
      <rect y="0" width="27.21" height="27.21" fill="none"/>
    </clipPath>
  </defs>
  <g clip-path="url(#clippath)">
    <g clip-path="url(#clippath-1)">
      <path d="M14.29,25.03h-.37l-.85-.07h-.41l-.24-.07c-.07,0-.37-.03-.95-.1-.1-.03-.24-.03-.37-.07-.14-.03-.27-.07-.44-.1l-.61-.2c-.27-.1-.41-.14-.41-.17l-.03-.1.92.2,1.33.27,1.02.14h1.36l.07.27ZM21.73,20.88c.1.1.17.17.17.2,0,.07-.03.14-.14.24l-1.53,1.53c-.1.1-.2.2-.31.27-.14.1-.27.17-.44.27l-1.22.65c-.17,0-.51.14-1.09.44-.03.03-.2.07-.51.14-.31.03-.71.14-1.22.24-.1.03-.2.03-.27.03-.1.03-.17.03-.24.03l-.1-.03-.07-.14.41-.07.34-.03,1.02-.27c2.14-.51,3.81-1.57,4.93-3.13l.27-.37ZM6.7,20.61c1.94,2.28,4.32,3.43,7.11,3.4h.31l.03.65h-.75c-.68.03-1.39-.03-2.11-.17-.75-.17-1.53-.37-2.31-.68-1.53-.61-2.72-1.36-3.54-2.24l.17-.41c.1-.1.17-.2.24-.24.07-.03.24-.14.51-.31h.34ZM6.9,20.68v-.1l.2.07.03.03c.2.24.37.48.51.71-.1-.03-.2-.1-.27-.2l-.31-.31-.14-.17-.03-.03ZM14.66,23.91h.24c2.04.03,3.95-1.19,5.68-3.6.48.07.85.24,1.09.51-1.94,2.38-4.25,3.64-6.97,3.74l-.03-.37v-.27ZM2.89,16.56c.31.07.65.1,1.02.1h.44c.2-.03.37-.03.58-.07.31,1.36.75,2.48,1.33,3.4-.07.03-.17.07-.27.17l-.41.31c-.14.07-.27.17-.41.27-.1.07-.2.1-.31.1-.07,0-.17-.1-.31-.31l-.31-.51-.34-.68-.31-.71c-.1-.24-.2-.44-.27-.58l-.07-.2c-.03-.24-.1-.44-.14-.65-.07-.21-.14-.41-.24-.65M5.1,16.6l.1-.07h.07l.14.03.27.99.1.31v.1s.03.07.07.17c.03.2.1.41.2.61.07.2.17.41.27.58l.17.34.14.31-.14.03c-.07,0-.1-.03-.14-.14l-.27-.51-.14-.24-.2-.37-.44-1.36-.21-.78ZM23.88,13.88c.03.07.03.17.03.27v.14c0,.78-.2,1.8-.58,3.06-.37,1.19-.82,2.18-1.36,3.03l-.2-.1c-.31-.17-.61-.31-.99-.41.37-.85.68-1.7.85-2.52.2-.82.31-1.6.34-2.38l.72-.31,1.19-.78ZM24.32,13.43c.03.1.03.24.03.31.03.14.03.2.03.27,0,1.63-.34,3.16-1.02,4.63l-.61,1.33c-.24.44-.41.68-.51.68l-.14-.1v-.14l.2-.27c.03-.07.07-.14.1-.24,1.09-2.28,1.63-4.35,1.67-6.22l.24-.24ZM22.52,7.01c.71.92,1.12,1.7,1.29,2.41l.37,1.36.03.65s.07.14.07.31c.07.17.07.27.07.34,0,.1-.07.2-.24.31l-.17-1.36c-.1-.61-.2-1.19-.41-1.77-.14-.58-.37-1.12-.68-1.63l-.17-.27-.17-.34ZM21.7,7.28l-.31-.48.14-.37c.07-.1.14-.17.2-.17h.1c.92,1.26,1.53,2.55,1.77,3.88l.24,1.39c.03.2.07.37.1.51,0,.17,0,.27.03.37,0,.1-.07.2-.24.31l-.85.65s-.1.1-.2.14c-.1.03-.2.1-.38.2l-.31.17c0-1.19-.07-2.11-.24-2.75l-.14-.68c-.1-.58-.2-.99-.31-1.26l-.17-.37-.27-.58c-.14-.37-.31-.65-.54-.88l-.1-.17s.03-.1.1-.2c.24.37.54.58.85.58.17,0,.34-.1.51-.27M6.67,5.85s.03.14.03.27c0,.03-.07.17-.17.34-1.02,1.26-1.53,3.2-1.53,5.82,0,.54.03,1.12.03,1.77.07.65.1,1.33.2,2.04l-.14.03s-.07-.07-.1-.17l-.14-.61c-.14-.71-.2-1.36-.2-1.97,0-3.26.68-5.78,2.01-7.52M2.79,15.99c-.1-.58-.17-1.09-.2-1.5-.03-.48-.07-.85-.07-1.16,0-2.96,1.05-5.68,3.2-8.16.65,0,.99.14.99.37,0,.14-.14.34-.44.65-.48.51-.92,1.43-1.29,2.69-.34,1.26-.51,2.48-.51,3.61,0,1.19.07,2.07.24,2.69l.1.61.07.34s-.14.03-.31.03c-.17.03-.34.03-.48.03-.1.03-.2.03-.31.03h-.31l-.31-.07c-.2-.03-.34-.1-.37-.17M7.79,4.69c1.26-1.05,2.86-1.6,4.76-1.6s3.2.27,3.91.78l-1.26-.31c-.71-.17-1.5-.27-2.31-.27-2.01,0-3.64.51-4.97,1.56l-.14-.17ZM6.7,4.35c.65-.65,1.53-1.16,2.72-1.56,1.19-.41,2.38-.61,3.64-.61.58,0,1.43.14,2.55.37,1.05.24,1.84.48,2.38.78l.51.27c.41.24.65.48.75.78-.1.03-.24.03-.34.03-.1.03-.24.03-.34.07l-.44.17c-.07.03-.2-.07-.44-.31l-.14-.1c-.07-.03-.14-.1-.24-.14l-.51-.24c-1.19-.65-2.58-.95-4.18-.95-1.97,0-3.61.54-4.93,1.67-.17-.03-.31-.17-.41-.41-.14.03-.24.1-.34.24l-.24-.07Z" fill="#a91e22"/>
    </g>
  </g>
</svg>