<?xml version="1.0" encoding="UTF-8"?>
<svg id="Layer_1" xmlns="http://www.w3.org/2000/svg" width="27.21" height="27.21" xmlns:xlink="http://www.w3.org/1999/xlink" viewBox="0 0 27.21 27.21">
  <defs>
    <clipPath id="clippath">
      <rect width="27.21" height="27.21" fill="none"/>
    </clipPath>
    <clipPath id="clippath-1">
      <rect y="0" width="27.21" height="27.21" fill="none"/>
    </clipPath>
  </defs>
  <g clip-path="url(#clippath)">
    <g clip-path="url(#clippath-1)">
      <path d="M9.63,23.71l.03.07s.03.1.03.2c0,.24-.2.34-.58.34-.07,0-.41-.03-1.02-.1-.17-.03-.31-.03-.41-.07-.14,0-.27,0-.37.03l-3.5.1-.2-.17v-.1c1.8-.07,3.06-.1,3.78-.1.31,0,.54,0,.78.03.2,0,.41,0,.58.03l.24.03.17.03c.24,0,.37-.1.48-.34M24.49,23.5l.1.03c.07.17.1.31.1.34,0,.31-.2.44-.58.41l-1.19-.1-2.18.1h-.03c-.58-.03-.89-.14-.89-.31l3.33-.07h-.27l.58.03c.24.03.41.03.51.07q.1,0,0,0c.2,0,.34-.03.44-.14l.07-.37ZM18.81,20.14l.1-.07.07-.03h.1l.17.1.24.27.17.17.31.34.37.41.65.75.68.61.34.2c-.14,0-.24,0-.34-.03-.1-.03-.27-.14-.58-.34l-.41-.34-.44-.54-.03-.07-.27-.24-.07-.14-.24-.2-.14-.17-.14-.1-.41-.48-.14-.1ZM7.31,21.19c0-.24,0-.41.03-.48v-.27c0-.27,0-.44-.03-.51-.03-.17-.03-.27.03-.34l.2-.14h.07c-.03.24-.03.48-.07.68v.75c0,.78.07,1.39.24,1.84l.07.07.07.03v.07l-.14-.1c-.1-.07-.2-.17-.31-.34-.14-.38-.2-.68-.17-.85v-.41ZM15.71,19.05l.51-.34.31-.07c.17-.07.27-.1.34-.1h.1l.27.03c-.24.37-.34.65-.34.82,0,.1.03.24.1.41l.07.03c-.1.31-.14.54-.14.71,0,.37.17.65.51.82.17.1.31.14.48.14.07,0,.2-.03.37-.1l-.27-.27s-.03-.17-.03-.34c0-.24.1-.37.34-.48.17-.1.31-.17.34-.17l.14.1c.07.07.14.14.2.24.07.1.14.17.2.27l.1.1.14.14.1.07,1.05,1.26.51.41.14.07.37.2.78.17,1.29.17.37.03h.07c.17-.03.24.07.24.24s-.07.27-.24.24l-.99-.07-3.54-.03c-.31-.17-.51-.31-.61-.48l-.2-.14-.41-.48-.14-.17-.1-.03-.37-.44-.78-.88-.24-.2-.2-.24-.34-.34-.2-.2c.14-.2.2-.34.2-.44,0-.24-.17-.41-.54-.51l.03-.14ZM7.28,18.3l.1-.03.2.07v.27l.03.27c0,.14-.07.2-.17.2s-.17-.07-.17-.17v-.61ZM5.75,17.48l.88.1c-.41.34-.61.65-.61.95,0,.41.24.78.68,1.09h.51l-.03,2.14.1.48c.07.41.34.71.85.92l.65.17c.48.1.72.24.72.37,0,.1-.1.17-.31.17l-1.6-.07-2.14.07h-.88l-.58.03h-.07c-.24.03-.34-.07-.34-.24,0-.07.07-.14.17-.17l.82-.31c.48-.17.71-.54.71-1.16l.03-2.01-.07-.31v-1.12l-.03-.85.03-.17c.03-.1.14-.1.27-.07h.07l.17-.03ZM9.86,13.64l.17.07-.2.31-1.97,1.8-.27.24v.85c.03.07,0,.1-.1.1-.14,0-.2-.07-.2-.24l.03-.24.03-.58,2.14-2.04.27-.24.1-.03ZM13.13,10.71l-.14.38-.24.2-.17.2-.48.41c-.1.1-.14.17-.14.24,0,.14.07.24.24.34l5.07,5.48-.27.03c-.1,0-.17-.03-.27-.14l-.17-.2-.1-.03-.1-.14-1.19-1.33-.34-.37-.41-.41-.54-.65-.07-.07-.17-.14-.27-.37-.07-.1-.31-.27-.37-.44-.68-.71-.14-.14-.2-.27c.03-.2.14-.37.31-.54.2-.17.38-.34.55-.51l.27-.31c.1-.03.17-.1.2-.14l.24-.14-.03.14ZM7.11,7.38l.07,5.41c0,.99.03,1.46.1,1.5h.2l.92-.92,3.1-2.89.31-.27.24-.17,1.39-1.36.03.24-.07.44-.07.41-.07.44c0,.07-.58.61-1.7,1.63-.1.07-.14.17-.14.27v.07l.17.27.31.31.17.24,1.05,1.09.27.31.14.2.17.14.17.2.27.31.17.2.14.1.1.14.1.1.41.41.14.14.1.1.41.48.95,1.02c-.75.1-1.33.44-1.7.99l-2.18-2.38-.95-.95-.1-.17-.24-.2-.14-.2-.24-.27-.1-.1-.2-.24-.17-.17-.17-.2-.34-.31c-.03-.17-.1-.24-.24-.24l-.14.07-2.58,2.38v.95c-.58-.1-.88-.17-.92-.17.03,0-.31.03-.99.1l-.07-7.79v-.24c0-.07.1-.14.31-.17l.24-.1.1-.1.27-.17.21-.2.31-.27.48-.37ZM7.45,7.14l.1,4.12v2.72c0,.1-.07.17-.17.17l-.07-.07-.03-4.8v-2.01l.17-.14ZM4.9,4.08l-.1.03-.37-.2-.75-.27c-.2-.07-.31-.17-.31-.31l.51.1.65.24c.1.03.24.17.37.41M16.46,3.3l.95.17c.31.24.44.34.44.37v.34l-.07-.03c-.1-.1-.2-.2-.31-.24l-.14-.1-.51-.17-.37-.34ZM21.97,2.89c.2.14.31.27.31.37,0,.17-.34.37-1.02.58-.44.1-1.12.61-2.08,1.5l-4.86,4.49-.17.07c.03-.2.14-.41.34-.61l.55-.51.85-.82,1.94-1.77,1.46-1.4c.17-.1.31-.2.41-.31.1-.07.14-.1.17-.14l.34-.27c.48-.41.95-.61,1.46-.65h-.17c.31-.07.44-.24.48-.54M8.94,2.86c.1.1.14.17.14.2,0,.24-.31.48-.95.71-.17.03-.27.1-.31.2-.1.17-.17.27-.2.37-.03.1-.1.17-.14.2-.1,0-.14-.07-.14-.24,0-.2.14-.41.34-.65.27-.2.51-.34.82-.37.17-.1.31-.24.41-.41l.03-.03ZM18.03,4.15c0-.1-.03-.24-.07-.41s-.17-.27-.38-.31l-.88-.2c-.17-.03-.27-.14-.27-.27s.2-.2.65-.2h.14c.85.03,1.33.07,1.43.1.17.07.44.07.82-.03.1-.03.34-.03.61-.03.34-.03.72-.03,1.23-.03h.14c.31,0,.48.07.48.2s-.07.24-.17.27l-.95.34c-.38.14-.89.51-1.53,1.12l-5.03,4.69.07-.78v-.68l.95-.92c.27-.24.48-.44.61-.61l1.39-1.22c.51-.48.78-.82.78-1.02M7.11,18.3l.03.68-.2-.17-.03-.1v-.07c0-.1.07-.24.2-.34M7.24,5.78c.17.1.27.24.24.37v.17l-.27.14.03-.68ZM4.83,3.74l-.2-.2-1.05-.27c-.2-.03-.31-.1-.31-.27s.17-.24.55-.24h2.89c.85-.1,1.36-.14,1.53-.07l.2.03.14.03c.17,0,.27.03.27.14v.07l-.03.03-.82.34c-.31.14-.54.41-.71.82l-.1-.17v-.03c-.31,0-.44.27-.44.78,0,.17.14.48.37.85v.51c.03.07.03.17.03.27v.1l-.03.07-1.43,1.22-.48.17v-2.21c.03-.34,0-.82-.1-1.43l-.1-.24-.03-.1-.14-.2Z" fill="#a91e22"/>
    </g>
  </g>
</svg>