<?xml version="1.0" encoding="UTF-8"?>
<svg id="Layer_1" xmlns="http://www.w3.org/2000/svg" width="27.21" height="27.21" xmlns:xlink="http://www.w3.org/1999/xlink" viewBox="0 0 27.21 27.21">
  <defs>
    <clipPath id="clippath">
      <rect width="27.21" height="27.21" fill="none"/>
    </clipPath>
    <clipPath id="clippath-1">
      <rect y="0" width="27.21" height="27.21" fill="none"/>
    </clipPath>
  </defs>
  <g clip-path="url(#clippath)">
    <g clip-path="url(#clippath-1)">
      <path d="M8.74,23.88l.1.07.03.1c0,.31-.2.41-.61.38l-3.09-.31c-.17-.03-.48,0-.92.07-.37.03-.68.07-.92.1-.2.03-.34.03-.41.03-.48,0-.75-.14-.85-.44.24.14.44.2.61.17l1.39-.14h1.74c.1.03.2.03.31.03h.24c.17,0,.31,0,.34.03.41,0,.75.03,1.02.1l.44.03c.31,0,.48-.07.58-.24M17.07,18.16h.03c.2,0,.38.07.55.24.1.1.17.2.17.27,0,.24-.14.41-.37.51l-.2-.17-.03-.1-.1-.03-.31-.41-.1-.03.07-.1c.1-.1.2-.17.31-.17M5.88,17.96h.27v4.22l.31.65-.1.03c-.07,0-.14-.1-.17-.27-.17-.24-.27-.58-.31-.99v-3.64ZM4.69,18.06c.31-.1.54-.14.75-.14h.14l.07.03.1-.03.03,4.08.17.54c.2.58.95.92,2.24,1.02.31.03.44.1.44.24s-.1.2-.27.2l-3.16-.31-.44.03-1.09.07-.82.1h-.24c-.34.03-.51,0-.51-.17,0-.03.03-.14.1-.24l.41-.07.34-.03c1.12-.1,1.7-.82,1.73-2.18v-3.16ZM18.71,17.18l.41.41.41.48.14.17.1.1.1.07.1.17.07.07c.24.2.38.37.48.54.14.07.2.14.2.2l-.1.1c-.07,0-.14-.03-.24-.14l-.17-.17-.1-.14-.17-.17-.58-.65-.1-.07-.17-.14-.31-.34-.1-.1-.07-.14-.03-.07v-.03l.03-.03.03-.07.07-.07ZM21.05,10.71l.92-.03-.1,13.54-4.11-4.73c.2,0,.34-.03.44-.14l.1-.03.03-.1c.31-.17.48-.51.48-.95,0-.17,0-.31-.03-.37h.07l.14.17.07.07c.17.17.37.37.54.58l.65.75.24.24h.17c.17,0,.27-.17.27-.54l-.03-.2v-1.94l.17-6.29ZM22.24,10.65l.07.07-.07,13.57-.03.1-.14.07-.1-.1c0-.1,0-.14.03-.17l.07-7.45.03-4.18.03-1.87.1-.03ZM5.78,10.51l-.1,4.79.03,1.9-1.02.07v-2.86l.03-.99v-1.7c-.03-.07-.03-.17-.03-.34v-.34c0-.17.03-.34.1-.51l.99-.03ZM6.16,10.48l-.03,6.77-.24-.03.03-4.73-.03-.41.03-.71.03-.85.2-.03ZM11.94,10.17l4.42,4.96c.03.17.07.27.07.24v.03l-.27.31-.65.82-.2.27-4.15-4.63.1-.37c.07-.24.14-.44.2-.58l.17-.44.14-.24.17-.37ZM12.14,9.83c.17.1.34.27.48.51l3.37,3.74.24.2.07.14.31.34.07.14.07.1c-.07.07-.14.1-.24.14l-.41-.44-.03-.07-.14-.14-.14-.2-.07-.07-.31-.27-.31-.41-.07-.07-.17-.17-.03-.07-.38-.37-.48-.58-.07-.1-.41-.44-.03-.07-.14-.1-.44-.51-.34-.37-.24-.31c-.2-.1-.31-.2-.31-.31l.03-.1.1-.14ZM5.95,7.79c-.03-.07-.03-.17-.03-.31v-.34c0-.31.03-.44.1-.44.14,0,.2.03.2.1l-.07,1.39v1.36c-.07.1-.14.14-.2.14h-.03l.03-1.9ZM17.99,3.2l.37.14.92.14.58.14c.2.03.44.2.68.44.14.14.2.24.2.34l-.03.03v.03l-.24-.27-.1-.03c-.38-.24-.85-.41-1.43-.48-.61-.1-.92-.24-.95-.48M1.46,3.2l.82.14c.71.1,1.26.48,1.56,1.09-.58-.44-1.09-.72-1.53-.82-.44-.1-.75-.24-.85-.41M24.73,3.1l.1-.1c.1,0,.14.07.14.2,0,.2-.1.31-.31.34l-1.43.34c-.51.14-.78.51-.82,1.12l-.03,4.35-.07.48-.2-.07.03-4.39c0-.27,0-.48.03-.65,0-.17.03-.31.07-.41.07-.1.14-.24.27-.31.07-.14.24-.24.41-.37h.07l.51-.2.71-.14.51-.2ZM5.75,2.93v-.07l.1-.03c.1,0,.31.14.54.41l.61.75,2.42,2.75.17.2.14.07.03.44-.07-.07-.17-.17-.17-.14-.07-.07-.34-.44-.17-.17-1.33-1.5-.07-.1-.2-.2-.1-.1-.24-.34-.17-.14-.82-.95-.1-.14ZM20.37,3.64c-.44-.24-.78-.34-1.02-.34l-.95-.1c-.34-.03-.51-.1-.51-.24s.2-.2.61-.2c.17,0,.37,0,.65.03.27.03.61.07,1.06.1.1.03.27.03.51.03h.82c.24,0,.41,0,.51-.03.17-.03.31-.03.41-.03h.37c.24,0,.41,0,.48-.03.1-.03.24-.03.41-.03h.27l.2-.03s.2.07.54.17l-.34.24-1.43.34c-.58.14-.92.75-.95,1.84l-.03,1.09v3.3c-.68-.03-1.02-.2-1.02-.54l.03-2.04-.03-.27v-.1c0-.1,0-.17.03-.24.03-.14.03-.27.03-.41.03-.14.03-.27.03-.44,0-.58-.1-1.09-.27-1.6l-.1-.1-.07-.1-.24-.24ZM1.53,2.76l.85-.1,1.16.03.85.1,1.05.03,4.18,4.73c.17.17.24.31.24.48s0,.27-.03.31l-.17,1.09c-.03.31-.1.58-.2.82l-3.2-3.64s-.14-.07-.24-.07c-.17,0-.27.2-.27.65v2.55c-.37.07-.61.1-.71.1s-.17-.03-.27-.14v-.24l.03-.82v-.34l-.03-.48-.03-1.36c0-.88-.27-1.63-.85-2.28-.58-.68-1.19-1.02-1.91-1.05-.37,0-.58-.03-.58-.14,0-.07.03-.14.14-.24" fill="#a91e22"/>
    </g>
  </g>
</svg>