<?xml version="1.0" encoding="UTF-8"?>
<svg id="Layer_1" xmlns="http://www.w3.org/2000/svg" width="27.21" height="27.21" xmlns:xlink="http://www.w3.org/1999/xlink" viewBox="0 0 27.21 27.21">
  <defs>
    <clipPath id="clippath">
      <rect width="27.21" height="27.21" fill="none"/>
    </clipPath>
    <clipPath id="clippath-1">
      <rect y="0" width="27.21" height="27.21" fill="none"/>
    </clipPath>
  </defs>
  <g clip-path="url(#clippath)">
    <g clip-path="url(#clippath-1)">
      <path d="M2.99,17.86v.27l-.03.27.07.27c.07-.1.1-.24.1-.44,0-.1-.03-.2-.14-.37M3.33,23.3v-.51c.07-.41.2-.78.41-1.09-.37.34-.54.68-.54.99,0,.1.03.31.14.61M14.73,7.62c.03.07.03.2.03.41l-.03.17-.17.31-.07.14-.07.17c.31-.27.44-.51.44-.72,0-.17-.03-.31-.14-.48M13.77,7.86c.07-.2.14-.37.17-.58.03-.14.1-.31.14-.41.1-.14.14-.24.17-.34l-.1-.14h-.03l-.1.24-.14.17-.1.41v.65ZM12.48,6.77c.1-.44.37-.85.75-1.16-.2.1-.41.27-.61.55l-.17.2-.03.07.07.34ZM11.26,8.95l.03.31-.03.34.03.51c.1-.34.17-.58.17-.75,0-.1-.07-.24-.2-.41M10.99,10.34c-.03-.1-.1-.2-.14-.34l-.1-.2c-.1-.1-.2-.2-.24-.27l-.1-.14c-.1-.27-.2-.41-.27-.41l-.1.1c0,.44.31.85.95,1.26M9.32,9.93c0,.44.17.71.54.85-.1-.17-.2-.34-.34-.48-.07-.14-.17-.27-.2-.37M8.57,9.35s.07.03.17.03h.24c-.1-.03-.14-.1-.17-.2-.03,0-.14.07-.24.17M4.56,1.87c.17.1.27.14.37.14l.1.1.17.03c-.07-.03-.14-.07-.24-.17l-.14-.1h-.27ZM1.94,23.09c.24-.34.37-.82.44-1.46-.27.41-.41.88-.44,1.46M5.07,17.65c.17-.1.31-.17.41-.17.1-.07.2-.07.31-.1.41-.1.61-.2.61-.31,0-.14-.1-.2-.27-.2l-.1.03s-.14.1-.31.2l-.34.2-.31.34ZM6.02,18.6h.51l.37.03.24.07h.14c.14,0,.2,0,.2-.03,0-.14-.31-.2-.92-.2-.17,0-.37.03-.54.14M8.91,18.3l-.54-.31-.92-.2-.1.1.14.07.44.1.48.14.51.1ZM23.91,21.56c.1.48.34.78.72.92-.1-.31-.34-.61-.72-.92M23.54,24.39c-.03.17-.07.31-.14.37,0,.03-.14.14-.31.31.37-.07.51-.24.48-.48l-.03-.2ZM24.66,19.56c.03.17.03.31.03.37.03.14.03.2.03.31.03.44.1.65.27.65l.1-.03c0-.1-.07-.24-.2-.37-.1-.2-.2-.48-.24-.92M20.99,25.85c.1.03.24.03.37.03h.31c.24.03.34,0,.34-.07-.03-.1-.07-.14-.17-.14.1,0,.07.03-.07.03-.17.07-.41.1-.78.14M11.43,14.86c.17-.17.27-.34.34-.58-.24.14-.34.27-.34.44v.14ZM12.21,12.52l.37-.17.24-.1.31-.14h-.2c-.24,0-.48.14-.71.41M12.79,13.13l-.31.1c-.54.1-.82.24-.82.34,0,.07.03.1.14.1.2,0,.44-.07.75-.24l.61-.31.51-.37-.89.37ZM18.64,9.56v.48c0,.31.03.54.1.78.07-.24.1-.41.1-.54,0-.17-.07-.41-.2-.71M17.55,8.84c.03.41.1.68.17.85.14.41.2.65.2.71,0,.31.07.44.17.44l.07.03c0-.2-.03-.37-.1-.51-.03-.03-.1-.31-.2-.75-.03-.17-.14-.44-.31-.78M16.77,9.86c-.03.07-.03.2-.03.41,0,.27.14.58.37.88l-.1-.54-.14-.34-.1-.41ZM22.89,3.78c.2.1.31.24.27.41v.34c-.03.31.03.75.17,1.33.37,1.39.54,2.31.54,2.79,0,.31-.07.44-.2.44.03,0-.03-.03-.17-.07.1-.17.14-.37.14-.61,0-.2-.1-.65-.27-1.29-.1-.44-.2-.85-.31-1.22-.07-.38-.1-.78-.14-1.16v-.71l-.03-.24ZM6.87,19.18l.17-.03c.1.17.24.37.38.58.17.2.34.41.51.65-.24-.2-.44-.41-.58-.61-.2-.2-.34-.41-.48-.58M5.48,16.53c-.44-1.53-.65-2.76-.65-3.67,0-2.76.88-4.97,2.65-6.63,1.8-1.7,4.11-2.55,7.01-2.55.61,0,1.16.03,1.63.07.48.03.88.1,1.26.2.71.17,1.63.54,2.76,1.12-1.91-.82-3.67-1.22-5.34-1.22-2.89,0-5.24.85-7.01,2.55-1.77,1.67-2.65,3.88-2.65,6.6,0,.85.17,1.97.51,3.44l-.17.1ZM3.78,17.79c-.65-1.53-.95-2.99-.95-4.32,0-.17,0-.34.03-.61,0-.2,0-.51.03-.82.17.07.31.1.44.1.17,0,.37-.03.54-.14.1.1.2.17.27.17.03,0,.1-.07.17-.17.17-.31.27-.65.27-.95,0-.54-.38-1.02-1.16-1.43,1.05-2.48,2.48-4.32,4.25-5.41,1.8-1.16,4.15-1.7,7.04-1.7,1.8,0,3.64.34,5.44,1.06l1.26.51c.1.03.2.03.31.07h.2c.24,0,.41-.07.51-.24l.07-.14.14-.1c.1,0,.14.17.14.54v.17c-.03.71,0,1.19.07,1.46l.54,2.01c.03.1.03.2.07.31v.27c0,.14-.03.31-.1.55l-.2-.27-.58-1.22c-.58-1.26-1.6-2.25-2.99-2.93-1.4-.75-3.06-1.09-5-1.09-2.92,0-5.34.88-7.21,2.62-1.8,1.73-2.72,4.01-2.72,6.8,0,.78.24,2.04.68,3.71-.31.17-.58.34-.85.54-.24.17-.48.41-.71.65M23.13,17.92c.2.1.31.24.31.41l-.65,3.5c-.51.37-.95.71-1.36.95-.41.27-.78.48-1.09.65-.51.24-1.46.58-2.86.95l-.2-.24c.65-.17,1.16-.31,1.57-.44.41-.14.78-.27,1.16-.44.37-.17.75-.38,1.09-.61.41-.24.85-.58,1.4-.99l.68-3.3.03-.1-.07-.34ZM16.53,23.13c2.01-.44,3.4-.99,4.15-1.6.78-.65,1.53-1.84,2.28-3.64.1.17.14.27.14.37l-.71,3.3-1.16.85c-.37.24-.71.44-1.02.61-.58.31-1.56.65-3.03,1.02l-.31-.44-.34-.48ZM16.09,24.35l.2.2c-.85.07-1.6.1-2.21.1-1.6,0-3.47-.54-5.68-1.63,2.28.92,4.22,1.39,5.88,1.39h.75c.34-.03.68-.03,1.05-.07M6.6,19.15c1.57,1.7,2.86,2.82,3.88,3.37,1.05.58,2.45.82,4.11.78h.88l.27.44.27.48c-.38.03-.72.03-.99.07h-.71c-2.11,0-3.88-.34-5.27-1.05-1.43-.71-2.82-1.87-4.18-3.5.68-.31,1.26-.51,1.73-.58M9.45,17.79c2.45.24,4.35,1.5,5.75,3.77,1.12,1.8,1.94,2.92,2.48,3.33.61.48,1.5.71,2.69.71.71,0,1.33-.14,1.87-.44.48-.31.75-.68.75-1.12,0-.58-.24-.85-.75-.85-.31,0-.48.17-.48.48,0,.17.1.27.34.27l.2-.03c-.2.24-.37.34-.51.34-.38,0-.58-.2-.58-.61,0-.58.34-.88,1.06-.88.65,0,1.05.38,1.22,1.16l.31-.03c.03.07.03.17.03.27v.17c0,.65-.31.99-.95,1.09-.31.03-.48.07-.58.1-.1.03-.14.07-.14.1,0,.07.1.1.31.1.37,0,.82-.24,1.39-.75.37-.31.72-.44,1.06-.44.2,0,.37.07.54.24-.14.1-.2.17-.2.2.03.03.1.07.2.07.44,0,.65.17.65.51,0,.14-.07.27-.24.44v-.1c.03-.31-.24-.44-.75-.44-.37,0-.68.03-.95.14-1.19.31-2.24.48-3.13.48-1.36,0-2.41-.24-3.2-.75-.78-.51-1.6-1.5-2.48-2.96-.95-1.53-1.77-2.55-2.45-3.06-.65-.54-1.67-.95-2.99-1.26l-.48-.24ZM20.68,10.61c-.44-1.94-1.05-2.89-1.87-2.89-.2,0-.34.14-.41.41-.14-.14-.2-.24-.2-.31,0-.31.2-.48.58-.48.24,0,.48.1.71.27.24.17.44.41.61.71.17.31.31.65.44,1.06.07.37.14.78.14,1.22M21.77,13.3c.2-.54.48-.82.78-.82.17,0,.24.07.24.17,0,.03-.03.1-.1.2-.03-.1-.07-.14-.17-.14-.17,0-.44.2-.75.58M21.73,12.24c.07-.37.1-.65.1-.89.03-.41.17-.61.44-.61l.07.07-.07.2-.31.58-.24.65ZM21.26,9.52c-.17-.58-.37-1.09-.58-1.53-.24-.44-.48-.78-.71-1.09-.24-.31-.61-.68-1.05-1.12-.44-.41-1.02-.89-1.73-1.4l.31.07c.65.44,1.16.85,1.57,1.19.41.38.71.68.92.92.37.44.78,1.09,1.16,1.94l.14,1.02ZM16.73,17.38c1.29-.51,2.25-1.02,2.89-1.6.65-.58,1.26-1.39,1.8-2.45.44-.92.89-1.53,1.26-1.84.37-.34.88-.51,1.5-.51.51,0,.99.17,1.4.48.37.31.58.68.58,1.09,0,.24-.14.58-.41.99l-.07-.2c.17-.31.27-.58.27-.75,0-.37-.17-.68-.51-.95-.37-.31-.78-.44-1.26-.44-.58,0-1.05.17-1.43.48-.31.27-.75.95-1.36,2.01-.58,1.02-1.16,1.77-1.73,2.28-.61.48-1.6.95-2.93,1.43M19.49,15.71c1.33-1.53,1.97-3.3,1.97-5.31,0-1.22-.41-2.89-1.26-4.97l.44.24c.78,1.77,1.16,3.3,1.16,4.56,0,.58-.03,1.12-.1,1.6-.1.44-.24.88-.41,1.29-.17.44-.41.85-.71,1.26-.31.41-.65.85-1.09,1.33M8.98,16.94c.17.03.34.03.51.03h.78c.1,0,.2,0,.31.03l1.97.24c.65.07,1.19.1,1.67.1,1.97,0,3.57-.61,4.8-1.84,1.22-1.22,1.84-2.82,1.84-4.76,0-.71-.1-1.36-.31-1.97-.24-.58-.54-1.09-.88-1.53-.41-.44-.85-.78-1.36-1.05-.54-.24-1.12-.37-1.77-.41.51-.17.85-.27,1.09-.27.48,0,1.06.31,1.7.92,1.29,1.19,1.94,2.72,1.94,4.52s-.68,3.47-2.07,4.8c-1.33,1.33-2.99,1.97-5.03,1.97-.24,0-.41,0-.48-.03l-3.16-.34-1.63-.14.1-.27ZM18.03,5.44c-.07-.03-.17-.03-.31-.03h-.27c-1.05,0-1.56.44-1.53,1.36v.34l-.03.31s-.07.14-.17.31l-.31-.17-.24-.2-.07-.03-.07-.03-.03.07.03.14c.03.1.03.2.07.34v.27c0,.31-.07.51-.24.65l-.61.51-.48.48-.27-.51-.54-.68c-.2-.24-.31-.44-.31-.65v-.03l.03-.14v-.34l.03-.07-.07-.17c-.07,0-.17.07-.34.24-.1-.37-.17-.61-.17-.68,0-.2.1-.48.27-.78.2-.31.41-.48.65-.55.24-.07.34-.17.34-.27s-.07-.14-.2-.14c-.58,0-1.22.48-1.94,1.43.03-.51.24-.89.65-1.19-.51.17-.78.51-.78,1.02,0,.17.03.37.1.51.1.2.2.34.27.54.14.14.2.31.31.41.1.14.14.24.14.31l-.03.1-.03.27c-.17-.1-.31-.17-.41-.17l-.1.03s.03.03.07.17c.17.31.24.51.24.65v.24c0,.07,0,.17-.03.27v.27c-.03.27.1.61.37.99-.07.03-.17.03-.27.03h-.31c-.1,0-.34-.1-.75-.27l-.2-.07s-.07.03-.07.14v.07l.03.17-.41.1-.1.03c-.31,0-.51-.14-.61-.44l-.31-.85c-.03-.14-.14-.2-.24-.2s-.14.17-.14.54c0,.27.1.71.31,1.36l-.31-.34-.2-.82-.03.31c-.14-.27-.2-.48-.2-.65,0-.24.07-.58.24-1.09l.1.07s.07-.07.07-.17c0-.03-.03-.14-.07-.31l.14-.37c0,.24.07.37.2.37l.03-.03-.03-.14-.07-.2-.03-.2c.03-.2.14-.37.27-.51l-.03.07c0,.31.07.48.17.48l.03-.14v-.03l-.03-.2v-.37c.03-.1.1-.17.17-.27.07-.1.17-.17.27-.27-.1.44-.17.75-.17.85,0,.03.03.17.07.41l.24.61c.07.2.14.31.2.31l.07-.07-.03-.1-.24-.61c-.1-.17-.14-.37-.14-.65,0-.2.1-.54.27-1.05l.38-.37.41-.34c-.34.68-.51,1.09-.51,1.26,0,.14.03.2.1.24v-.07l.07-.1.07-.44c.1-.24.24-.48.34-.65l.31-.48c1.26-.51,2.21-.78,2.89-.78l.61.03-.1.1.03.1.31-.2h.37c-.1.03-.17.1-.2.14l-.14.1c-.24.14-.34.27-.34.37l.03.03c.07,0,.24-.1.44-.27.27-.17.41-.31.51-.34l.24.07-.54.31-.54.48c-.24.24-.37.44-.37.55l.03.07c.07,0,.24-.17.51-.51.17-.2.58-.48,1.23-.82l.54.1c-.75.17-1.12.37-1.12.61l.03.03s.07-.07.17-.1c.38-.24.58-.34.61-.34l.2-.07c.14-.03.24-.03.41-.07l.31.14c-.24.07-.44.1-.54.1-.34.03-.51.17-.51.34.1,0,.17,0,.2-.03.34-.17.71-.27,1.09-.31l.61.27ZM15.85,23.33l.71,1.02.75.71c.17.17.24.34.24.54,0,.31-.14.44-.44.44-.1,0-.27-.1-.44-.27l.24.03c.2,0,.31-.1.31-.31s-.07-.37-.24-.54l-.65-.71-.48-.92ZM8.2,10.58c.58,1.06,1.22,1.56,1.94,1.56.03,0,.14-.03.31-.07l1.05-.44h.44c-.1.17-.14.31-.14.41l.03.1.17-.1c.17-.14.31-.24.41-.27.1-.07.31-.14.61-.17l.44-.07-.07.27.03.1.17-.07c.14-.03.24-.07.34-.03h.31c.2,0,.48-.03.78-.1-.1.17-.14.31-.2.41,0,.1-.03.2-.07.24-.17.51-.34.82-.48.88l-.51.37c-.1.07-.14.14-.14.2,0,.03.1.07.27.1-.65.58-1.12.89-1.36.89l-.51-.07h-.03c-.14,0-.2.03-.2.14,0,.17.2.27.61.27.17,0,.31,0,.34-.03l.51-.1.44-.07c-.41.24-.78.37-1.12.34h-.31c-.1,0-.14,0-.17.03l.07.07.03.07h-.17c-.44.03-.85-.1-1.29-.41h.14c.14,0,.2-.03.2-.1s-.07-.1-.2-.1h-.2l-.27-.03-.41-.27c.1.03.24.03.38.03s.24,0,.27.03l.17.03c.17,0,.24-.03.24-.14l-.14-.07h-.54l-.58-.14-.41-.41c.72.17.99.27.82.27.1,0,.17-.03.17-.1l-.1-.1s-.24-.03-.55-.1c-.17-.03-.37-.14-.65-.31l-.2-.41.75.41.72.17c.1.03.2.03.31.03.1.03.17.03.2.03.44,0,.65-.07.65-.2,0-.07-.07-.1-.2-.1-.03,0-.1,0-.27.03-.14.03-.27.03-.41.03l-.17.03c-.24.03-.78-.2-1.63-.65l-.27-.58c.17.14.34.27.51.37.14.14.27.2.44.2l.14-.03c0-.07-.03-.1-.14-.14l-.51-.24-.54-.41-.1-.51.41.37.48.37c.1.1.2.14.31.14l.14-.07-.07-.07-.07-.07-.41-.17c-.24-.1-.51-.34-.82-.78l-.1-.75ZM3.4,20.78v-.48c.31-.31.44-.48.44-.51l-.03-.03s-.17.1-.41.34v-.27c1.12-1.12,2.14-1.73,2.99-1.84.48-.03.71-.1.71-.2,0-.07-.1-.1-.27-.1-.14,0-.31.03-.51.1l-1.16.44c-.41.17-.99.61-1.77,1.39l-.17-.14.14-.31c.27-.27.41-.44.41-.51l-.07-.03h-.07l-.14.1c.17-.71.95-1.39,2.35-2.11l1.05-.54c.78-.37,1.19-.99,1.19-1.77,0-.71-.27-1.05-.82-1.05-.44,0-.65.17-.65.54,0,.1.1.27.31.61.2.27.31.54.31.78,0,.51-.27.75-.82.75-.44,0-.65-.17-.65-.54,0-.31.17-.48.48-.48.14,0,.24.07.34.24-.03-.03-.07-.03-.17-.03-.17,0-.24.1-.24.31,0,.24.1.34.34.34.31,0,.48-.17.48-.54,0-.07-.03-.17-.14-.27l-.27-.41c-.14-.14-.2-.27-.27-.44-.1-.17-.14-.31-.14-.44,0-.37.24-.65.75-.88v-.27l.17.07.24.24s.14.07.31.1c.27.03.54.24.78.54.27.31.41.61.41.85v.31l.03.1.41-.2c-.07.71-.24,1.22-.51,1.53-.27.27-.75.44-1.46.51-.44.03-.68.14-.68.31,0,.07.07.1.17.1l.1-.03.51-.17c.17-.03.27-.07.31-.07.24,0,.58.1.99.31l-.2.1-.07.07c0-.1.14,0,.37.31l.37.48.61.27c-.31.24-.58.37-.75.37h-.14l-.14.07c0,.07.07.14.17.2-.1.03-.2.03-.31.03l-.17.03c-.17,0-.31-.03-.41-.1l-.17-.1-.17-.07-.07.07c0,.17.37.31,1.12.37.17.17.31.41.41.65h-.1l-.1.07-.14.34c-.03.1-.17.2-.37.24.03-.07.03-.14.03-.24v-.24c0-.31-.17-.54-.54-.75-.34-.2-.75-.31-1.26-.31-1.26,0-2.35.65-3.3,1.91M1.19,18.23h.2c.31.03.44-.17.44-.54,0-.27-.14-.55-.34-.89-.27-.27-.38-.54-.38-.78,0-.31.17-.48.55-.48.51,0,.88.44,1.05,1.33l.07.14c.07,0,.1-.07.14-.24.24.31.37.75.37,1.26,0,.99-.17,1.56-.54,1.8-.27.24-.41.41-.41.48l.03.07.17-.1.31-.27.27-.1v.48c.03.41-.1.88-.41,1.46s-.44,1.12-.44,1.67c0,.31.07.48.24.48.1,0,.14-.1.1-.34v-.48c-.03-.68.14-1.26.58-1.77.41-.51.88-.75,1.46-.75l.27.03-.07.17-.03.14.07.07c.37.17.61.31.68.41.24.31.37.61.37.92,0,.41-.14.68-.37.78l-.68.34c-.31.17-.48.37-.48.54,0,.44.27.68.78.68.2,0,.31-.03.31-.14l-.07-.14-.07-.17c0-.1.1-.24.27-.41.2-.14.31-.24.31-.31l-.07-.34c.24.17.34.31.34.48,0,.1-.03.24-.1.37l-.1.27v.1s.07.07.17.1c.48.07.71.27.71.61,0,.24-.17.41-.48.44.1-.1.17-.2.17-.31,0-.24-.1-.34-.31-.34h-.07l-.27.07-.03.03-.2-.1-.14-.1-.2.03c-.14.07-.2.07-.24.07-.65,0-.95-.34-.95-1.02,0-.27.07-.48.2-.58l.61-.48c.17-.1.24-.24.24-.48,0-.51-.27-.78-.82-.78-.24,0-.48.14-.68.41-.2.31-.31.61-.27.95l.03,1.12c.03.44-.2.65-.65.65-.95,0-1.43-.82-1.43-2.48,0-.68.07-1.26.24-1.73l.51-1.63c.17-.71.27-1.26.27-1.6,0-.41-.07-.75-.24-1.05-.17-.31-.34-.44-.58-.44-.21,0-.31.07-.31.24,0,.1.07.24.24.41.37.44.58.85.58,1.16,0,.58-.2.88-.65.88-.14,0-.24-.1-.31-.27M24.83,24.11c.03-.07.03-.2.03-.44,0-.27-.14-.58-.41-.88l-.82-.85c-.1-.1-.14-.24-.14-.44,0-.1,0-.17.03-.27,0-.07,0-.17.03-.27l.17.14.1-.1v-.07l-.2-.58.24-.72.14.14.1.03.07-.07.07-.65.2-.51.03.2.07.1.03-.1v-.37l.27-.2c-.03.1-.03.2-.03.27l-.03.14c0,.1.07.27.17.54.14.24.24.41.27.51.03.24.07.34.17.34l.17-.2.2-.2c.14.65.2,1.09.2,1.26,0,.2,0,.34-.03.41-.03-.2-.1-.31-.2-.31l-.07.03c0,.1,0,.14.03.17l.14.27.07.2-.03.34c-.07-.2-.14-.31-.2-.31l-.07.1c0-.1.07.1.24.54l-.17.54c-.03-.17-.07-.34-.1-.48,0-.1,0-.2-.03-.27-.03-.34-.14-.61-.27-.85l-.07-.07-.1-.07-.07.14c0,.1.07.27.2.48.17.34.27.71.24,1.09v.55l-.03-.14-.03-.1c-.03-.24-.1-.38-.2-.38l-.03.03v.1l.14.27.07.34-.14.2-.07-.41c-.03-.24-.14-.37-.24-.37l-.03.07.03.1.1.34.03.48-.24.2ZM15.48,15.61c1.06-.75,1.57-1.53,1.57-2.38,0-.31-.03-.54-.14-.71l-.44-.71-.1-.55c.17.14.27.2.37.2l.03-.07c0-.1,0-.14-.03-.17l-.24-.41c-.14-.24-.2-.48-.2-.78,0-.27.03-.54.14-.82l.34.14.1.03.03-.14v-.1l-.17-.44c-.03-.17-.07-.31-.07-.38,0-.34.2-.71.61-1.09.1.31.31.58.58.85.1.07.17.14.2.17l.1.1.17.2.07.07.07.03s.1-.07.17-.17c.07-.1.17-.17.27-.2l-.07.27v.14c0,.17.03.48.14.88.07.41.1.71.1.92,0,1.23-.31,2.25-.92,3.1l.2-1.22v-.44c0-.58-.07-.85-.24-.85l-.03.17.1,1.05.03.2c0,.31-.1.78-.34,1.5l-.24.2c.03-.31.1-.54.1-.75.07-.14.07-.24.07-.27,0-.24-.03-.37-.1-.37-.03,0-.07.07-.07.17l-.03.71-.27.82c-.03.1-.1.17-.2.24-.07.03-.14.1-.24.14l.27-.48.24-.92s.03-.14.03-.24-.03-.17-.07-.17-.03.03-.07.14l-.07.58c-.03.24-.27.68-.68,1.29-.24.17-.61.34-1.09.51M11.87,15.58c1.46-.1,2.31-.48,2.55-1.09l.31-.78c.07-.2.17-.31.31-.31l.14.07.14.07s.03-.07.03-.17c0-.17.2-.51.61-.95l.31.41.1.44.07.1c.07,0,.14-.03.24-.14.03.1.03.2.07.31v.17c0,.24-.2.58-.65,1.09-.34.37-.75.75-1.22,1.05l-.27-.03c.1-.07.14-.14.14-.24l-.03-.03s-.1.1-.2.14c-.1.03-.2.1-.31.2h-.41l.41-.24.44-.31c.2-.14.31-.27.31-.37l-.03-.07-.14.07-.31.31c-.1.1-.24.17-.41.27-.17.1-.41.2-.65.31l-.44-.07c.51-.2.78-.34.78-.37h-.03c.1,0-.27.1-1.09.34l-.75-.17ZM14.66,20.41c.03-.48.27-.72.78-.72l.17.03c.07.03.17.03.31.03l.1-.03s-.1-.07-.2-.14c-.1-.1-.24-.2-.38-.37-.1-.17-.17-.34-.17-.51s.14-.37.41-.54l-.07.27c0,.14.17.34.51.65.27.2.41.44.41.75,0,.41-.2.61-.58.61-.1,0-.27-.03-.44-.1-.2-.07-.34-.1-.44-.1s-.24.07-.41.17M9.11,17.45c.71.03,1.36.1,1.87.17.51.1.95.2,1.26.31.58.17,1.63.68,3.13,1.53l-.31.07c-.71-.41-1.33-.71-1.77-.95-.44-.24-.89-.41-1.26-.54-.37-.14-.78-.24-1.22-.27-.44-.07-.95-.14-1.6-.2l-.1-.1ZM12.92,17.79l1.06.07,1.97-.14h.2c.99-.03,1.46.27,1.46.85,0,.37-.17.54-.48.54-.14,0-.27-.03-.44-.14h.24c.24,0,.37-.14.37-.41,0-.44-.41-.68-1.22-.65h-.14c-.24.03-.41.03-.58.03h-.61c-.2,0-.48,0-.75-.07l-1.09-.1ZM16.84,17.52l.99-.31,1.8-.92c.51-.31,1.05-.44,1.67-.44.51,0,.95.27,1.29.78-.1.03-.17.1-.17.14l.07.17c.03.14.07.2.07.27,0,.17-.14.51-.37.95-.1-.07-.2-.1-.24-.1l-.17.1c-.14.1-.24.14-.38.14-.31,0-.54-.17-.68-.54.27.1.41.17.44.17.51,0,.78-.27.78-.82s-.34-.82-1.06-.82c-.31,0-.92.24-1.9.68-.72.38-1.43.55-2.14.55M4.18,4.86l.03.17c0,.1-.07.24-.24.37-.24-.27-.37-.48-.41-.61l.31.07v.03l.03.07.03-.07v-.03h.24ZM5.27,5c0,.2-.03.37-.1.54l-.54-.31c-.14-.07-.2-.17-.2-.31,0-.07.03-.17.1-.31l.14.17.14.2.07.07.03-.14.14.03.24.03ZM4.69,4.08c.07.03.14.03.24.03h.2c.17,0,.41-.1.71-.27.03.03.07.03.17.03l.24-.07c.14-.07.27-.1.48-.07-.27.75-.68,1.12-1.26,1.12-.31,0-.51-.14-.68-.41.17.03.27.07.31.07.1,0,.17-.03.2-.07-.1-.03-.2-.07-.31-.07-.14,0-.24-.03-.31-.14v-.17ZM3.5,2.45s-.03-.1-.03-.2c0-.37.31-.58.92-.58.1,0,.34.03.71.1h.41c.07-.03.14-.03.24-.07.07.24.1.44.1.54s-.03.2-.1.27c-.07.14-.1.17-.1.2l.14.07.14-.03s.03.17.03.34c0,.51-.31.78-.88.78h-.14c.14-.03.2-.1.2-.2l-.03-.03c-.1,0-.2.03-.37.14l-.2-.2c.17,0,.24-.03.24-.14,0-.03-.07-.07-.17-.07l-.14.03v-.27l.17-.14.03-.14-.07-.07-.07.03-.17.14-.31-.07.07-.2-.07-.1c-.07,0-.1.07-.14.24-.17-.07-.27-.14-.27-.2l.03-.07.07-.14.03-.1-.03-.03c-.1,0-.17.07-.24.17M2.86,2.62c-.37,0-.54-.2-.54-.61,0-.24.1-.41.27-.48l.58-.2.34-.2.1.17-.07.17.14.1c-.31.2-.44.44-.44.68l.03.14c0,.07,0,.14.03.24l-.24-.03-.2-.24-.1-.1-.07.1c0,.07.07.17.17.27M2.52,3.13l-.07.07-.03.07c-.31,0-.51-.2-.65-.58-.03-.17-.14-.34-.27-.54.37.03.58.1.61.14l.24.31.17.17.07.14-.03.1-.2-.07-.03.03c0,.1.07.14.2.17M2.76,3.98c-.31-.07-.61-.17-.88-.31.14-.17.27-.24.41-.24l.27.07.14.14c-.1,0-.2.03-.24.07,0,.07.07.1.2.1l.07-.03.03.2ZM2.92,3.71c-.14-.2-.2-.37-.2-.48,0-.24.14-.37.37-.37.34,0,.68.17,1.05.54.2.2.31.44.31.71,0,.37-.17.54-.48.54-.14,0-.34-.1-.58-.27l.2-.14c.1.07.2.1.31.1.17,0,.27-.1.27-.31s-.1-.41-.31-.65c-.17-.2-.37-.31-.54-.31-.2,0-.31.1-.31.27,0,.1,0,.17.03.2l-.14.14ZM4.18,7.41c-.99-.65-1.5-1.46-1.5-2.45,0-.37.17-.78.51-1.16l.03-.14v-.07l-.07-.17v-.03c0-.1.07-.14.17-.14.03,0,.14.07.31.17.27.24.41.48.41.65,0,.1-.03.14-.14.14l-.17-.07c-.1-.07-.14-.1-.17-.1.03,0-.03.03-.17.07-.31.24-.44.54-.44.99,0,.58.44,1.26,1.36,2.11l-.14.2ZM20.37,3.33c.68-1.36,1.63-2.04,2.82-2.04.85,0,1.53.24,2.08.75s.82,1.16.82,1.94c0,1.56-.82,2.35-2.45,2.38l-.07-.31h.27c.58.03,1.02-.17,1.36-.55.34-.37.51-.88.51-1.53,0-.68-.24-1.26-.71-1.67-.48-.48-1.06-.68-1.74-.68-1.16,0-2.01.61-2.58,1.84l-.31-.14ZM21.87,9.46c-.07-.54-.1-.88-.1-1.06,0-.44.14-.65.41-.65.24,0,.34.14.34.44-.1-.1-.17-.14-.24-.14-.2,0-.31.27-.34.82-.03.03-.03.14-.03.27s0,.24-.03.31M13.06,4.18l.48-.03.92.1c.51.03,1.02.14,1.46.24.44.1.88.24,1.29.41-.27-.1-.51-.17-.71-.2-.2-.03-.37-.1-.51-.14-.07-.03-.24-.03-.51-.07-.27-.03-.65-.07-1.09-.1-.37-.03-.82-.1-1.33-.2M23.81,10.85c.27-.1.51-.17.75-.2.85-.14,1.29-.41,1.29-.82,0-.44-.2-.65-.61-.65-.34,0-.51.17-.51.51,0,.14.07.27.24.41h-.2c-.24.03-.37-.1-.37-.48,0-.48.24-.71.71-.71l.17.03s.07.03.17.03c.03,0,.07-.03.14-.14l.03-.1.03.03.07.03.17.17c.14.1.24.34.27.68v.07c.03.65-.31,1.02-1.05,1.05h-.75l-.54.07ZM23.03,13.06c.17-.68.54-1.02,1.19-1.02.85,0,1.29.48,1.29,1.46,0,.31-.1.61-.34.99l-.1-.17c.17-.31.24-.58.24-.85,0-.34-.1-.61-.34-.88-.24-.2-.51-.34-.82-.34-.44,0-.75.27-.95.82h-.17ZM24.05,13.6l-.17.1c-.37-.14-.68-.2-.85-.2-.48,0-.71.14-.71.41,0,.24.14.41.41.55-.03.03-.14.03-.24.03-.24,0-.37-.17-.37-.48,0-.44.27-.68.85-.68.17,0,.54.1,1.09.27M23.6,14.35l-.07-.14c.54-.31,1.06-.51,1.5-.61l.07.14-.41.14-.68.31-.41.17ZM23.03,13.71h.14c.07.51.24.92.54,1.29l-.14.1c-.34-.37-.51-.82-.54-1.4M24.49,14.25l.14-.07c.34.51.51.95.51,1.29l-.03.24c0,.14,0,.24-.03.34l-.17-.2c.03-.07.03-.2.03-.41,0-.31-.14-.68-.44-1.19M24.52,14.76l.07.14c-.65.48-.95.92-.95,1.36,0,.51.17.75.54.75.17,0,.31-.1.48-.34l.14.14c-.24.27-.48.41-.68.41-.44,0-.68-.31-.68-.95,0-.48.37-.99,1.09-1.5M23.16,14.93c-.2.41-.31.75-.31,1.05,0,.51.14.99.41,1.39.27.41.58.61.92.61.58,0,.89-.31.89-.95,0-.41-.31-.85-.95-1.33l.07-.14c.72.51,1.09,1.05,1.09,1.56,0,.72-.34,1.06-1.06,1.06-.44,0-.82-.2-1.09-.65-.34-.41-.48-.92-.48-1.5,0-.37.14-.78.41-1.22l.1.1ZM25.82,17.89l-.1.14.03.1.24.1.17.17c-.14.07-.24.1-.31.1-.07.17-.14.27-.17.31-.1-.17-.24-.27-.37-.27-.1,0-.2.03-.34.1v-.2c.17-.03.24-.07.24-.17h-.24l.31-.27.54-.1ZM23.67,18.23c.31.17.48.37.48.61,0,.27-.1.41-.34.41-.1,0-.2-.1-.27-.31h.1c.14.03.2-.03.2-.2s-.07-.34-.17-.51M25.1,24.22c.2-.24.37-.34.51-.34.37,0,.54.17.54.51,0,.2-.07.31-.24.27h-.14c.1-.1.17-.2.17-.27l-.03-.1c-.03-.14-.14-.2-.24-.2s-.24.07-.41.2l-.17-.07ZM24.08,23.94c.1-.17.14-.31.14-.44,0-.31-.14-.44-.37-.44-.07,0-.17.07-.27.17.03-.24.14-.34.31-.34.37,0,.58.21.58.61,0,.24-.1.44-.34.68l-.03-.24ZM24.11,24.35c.24-.24.44-.51.55-.78.03.14.07.2.07.17l-.03.14-.03.1.07.07v.07c0,.07-.2.2-.61.44v-.2ZM21.12,20.58c.03-.17.07-.34.1-.44.03-.14.03-.24.07-.34.03-.24.03-.41.07-.54.03-.14.03-.24.07-.27.1-.24.31-.34.65-.34h.14c-.37.1-.58.31-.65.61l-.2.85-.24.48ZM18.74,21.12l.07-.14h.37c.48.03.71-.14.71-.58,0-.31-.17-.44-.51-.44l-.27.03c.17-.17.34-.27.44-.27.44,0,.68.24.68.68,0,.51-.31.78-.95.78-.07,0-.14,0-.24-.03-.1,0-.2,0-.31-.03M18.64,21.26c.24.1.55.14.85.14.37,0,.71-.14.99-.37.27-.27.41-.58.41-.95,0-.44-.24-.78-.71-1.02-.1-.03-.17-.1-.24-.14l-.14-.1-.14.07-.14.07s-.1-.03-.2-.1c-.14-.07-.24-.1-.34-.1l-.27.03c.1-.2.27-.31.51-.31.07,0,.17,0,.27.03.1.03.2.03.24.03.1,0,.14-.07.14-.17,0-.14,0-.2-.03-.24v-.07c0-.2.14-.41.41-.58-.03.07-.03.17-.03.27v.14c0,.1,0,.2.03.27l.03.2c0,.07-.03.14-.14.2l-.1.14.07.07.78.58c.1.1.14.27.14.58,0,1.09-.51,1.63-1.5,1.63-.34,0-.65-.03-.95-.14l.07-.17ZM18.4,21.6c.51.17.75.31.72.41v.07l-.2.1c0-.17-.07-.31-.17-.34l-.2-.03-.14-.2ZM16.94,22.75c.1-.17.14-.27.14-.37,0-.17-.17-.48-.51-.85-.2-.24-.31-.44-.34-.68l.07.03.1.03.07-.1c0-.07-.03-.1-.14-.14l-.03-.07.1-.14c.1.1.2.17.24.17l.03-.03s-.03-.14-.1-.24l.24-.03.17.07h.03l.1-.07-.03-.1-.17-.1-.1-.14c.14-.07.2-.1.24-.14-.07-.03-.14-.07-.24-.1l.07-.14h.2l.03-.03c0-.07-.03-.1-.14-.14.2-.14.37-.2.51-.2l.34.07c.31.1.54.14.71.14s.38-.1.55-.27l.1.17c0,.1-.1.2-.31.37l-.07.07.07.07c-.07.1-.14.17-.24.17-.14,0-.24,0-.27-.03-.17-.03-.27-.07-.34-.14l-.1-.03c-.1,0-.17.03-.17.1,0,.17.1.24.31.27h.37c.24,0,.38.1.38.31,0-.07-.14.14-.41.61-.24.37-.41.58-.51.58-.14,0-.24-.07-.34-.2l-.2-.34-.17-.1c-.1,0-.17.03-.17.14s.1.2.27.37c.17.14.31.34.34.58l-.1.07-.1-.07s-.07.03-.1.14c-.07.27-.2.44-.37.48M1.36,5.88c-.17-.17-.24-.31-.24-.41,0-.37.17-.54.51-.54s.65.27.95.85c.34.71.85,1.29,1.56,1.73l-.03.07c-.78-.44-1.33-.95-1.63-1.46-.31-.51-.58-.78-.82-.78s-.34.1-.34.34l.03.2ZM4.35,7.07c-.31-.31-.48-.61-.48-.85,0-.44.2-.65.58-.65s.54.14.54.44c0-.03-.03.07-.07.24-.07-.31-.2-.48-.41-.48-.31,0-.44.17-.44.48,0-.24.1.03.27.82M6.05,2.48s.14-.03.31-.03c.37,0,.58.17.58.51,0,.14-.1.27-.31.44l-.27-.17c.2-.07.31-.17.31-.34,0-.24-.2-.38-.61-.41M5.1,1.53l.14-.24v-.24l.17.03.07.14c0,.2-.14.31-.37.31M6.02,1.73c.17-.03.34-.03.44-.03.1-.03.2-.03.24-.03.1,0,.24.03.41.07l.21.03.1-.1.14-.03h.14s.14.03.31.1c.03.03.14.03.27.03.24,0,.41-.1.48-.34.03.03.03.14.03.27,0,.31-.2.48-.58.48-.1,0-.17,0-.2-.03l-.24-.07h-.1l-.07.03.03.14.17.24s.07.14.07.31c0,.38-.17.58-.48.65.14-.14.2-.24.2-.34,0-.17-.07-.31-.2-.44-.14-.14-.2-.24-.2-.27l.07-.31c0-.14-.17-.2-.51-.2-.03,0-.14,0-.24.03-.1,0-.27,0-.44.03l-.03-.2ZM7.96,2.35c.31.14.54.2.78.2.1,0,.27-.03.48-.1.2-.1.34-.14.37-.14.17,0,.24.03.24.14,0,.24-.27.34-.78.34-.44,0-.78-.14-1.09-.44M11.53,2.45v-.2c-.03-.78.31-1.19,1.09-1.19.65,0,.95.2.95.65,0,.24-.14.37-.41.48.07-.17.1-.27.1-.37,0-.31-.2-.48-.58-.48-.44,0-.68.34-.71,1.02l-.44.1ZM15.65,2.24c-.03-.24-.07-.37-.03-.41v-.07c.03-.14.07-.27.1-.37.03-.1.1-.17.17-.17l.14.1.1.1.14-.1c.17-.17.41-.27.71-.27.51,0,.78.2.78.65,0,.17-.14.34-.41.48.03-.03.03-.14.03-.27,0-.31-.17-.48-.51-.48-.37,0-.61.31-.65.88l-.58-.07ZM20.2,3.23c.2-.55.31-.92.31-1.12,0-.48-.24-.71-.68-.71-.48,0-.71.24-.71.71,0,.37.17.54.48.51l.2-.03c-.17.1-.31.17-.41.17-.44,0-.68-.24-.68-.68l.03-.17c.03-.1.03-.14.03-.17-.03-.03-.1-.07-.24-.1.38-.37.78-.54,1.23-.54.65,0,.99.31.99.88,0,.24-.03.41-.14.58l-.17.38-.14.37-.1-.07ZM20.95,2.14v-.17c.24-.24.34-.41.34-.54l-.07-.14c-.07,0-.14.03-.24.14v-.14c.1-.1.17-.14.27-.14.17,0,.24.07.24.24,0,.14-.17.37-.54.75M24.56,4.97c.07.17.17.27.31.27.1,0,.27-.07.48-.2-.2.31-.41.44-.58.44-.24,0-.34-.1-.34-.27,0-.07.03-.14.14-.24M23.3,3.78l.37-.2h.41l.1-.1c.38.2.58.48.58.78,0,.44-.2.65-.58.65-.1,0-.24-.03-.41-.1.24-.1.37-.24.37-.41,0-.31-.14-.44-.41-.44-.07,0-.17.03-.34.1,0-.07-.03-.17-.1-.27M21.02,3.57c.24-.44.51-.68.82-.68s.44.14.44.41c0,.07-.07.17-.17.27-.03-.31-.17-.44-.48-.44-.24,0-.41.17-.51.51l-.1-.07ZM20.82,3.5c.54-.99,1.16-1.46,1.87-1.46s1.05.27,1.05.85c0,.37-.17.58-.48.58-.14,0-.31-.07-.54-.2h.17c.31.03.44-.1.44-.41,0-.38-.24-.58-.71-.58-.65,0-1.23.41-1.7,1.26l-.1-.03ZM23.13,1.84l.58.03.54.34c.14.07.2.14.24.24,0,.1-.03.14-.14.14l-.14-.07-.2-.2c-.1-.07-.37-.24-.88-.48M24.39,1.33c.1.03.27.07.51.1.27.07.48.1.58.1.17,0,.31-.1.41-.31.07.1.1.17.1.2,0,.24-.14.37-.44.37-.14,0-.27-.03-.44-.14l-.27-.14-.44-.2ZM8.23,23.74c.14,0,.2.03.2.14s-.07.17-.2.17c-.1,0-.17-.03-.17-.14s.07-.17.17-.17M7.65,23.64c.14,0,.2.07.2.17,0,.14-.07.2-.2.2-.1,0-.14-.07-.14-.17s.03-.17.14-.2M7.11,24.18c-.14,0-.2-.07-.2-.24s.07-.24.2-.24c.17,0,.24.07.24.24s-.07.24-.24.24M6.6,23.94c.14,0,.2.1.2.27s-.07.24-.2.24c-.17,0-.24-.07-.24-.2,0-.2.07-.31.24-.31M3.81,24.25l.1.07-.1.1-.1-.07.1-.1ZM3.61,24.66c.1-.03.14,0,.14.1,0,.07-.03.1-.14.1l-.1-.1.1-.1ZM3.2,24.96c.17,0,.24.03.24.14,0,.14-.07.2-.24.2-.1,0-.17-.07-.17-.17,0-.07.07-.14.17-.17M2.62,24.96c.1,0,.17.07.17.2,0,.1-.07.17-.17.17s-.17-.07-.17-.2c0-.1.07-.17.17-.17M2.08,24.83c.1,0,.17.03.17.14s-.03.14-.14.14l-.14-.1.1-.17ZM1.77,24.49c.1,0,.14.07.14.17l-.1.1c-.1,0-.14-.03-.14-.14s.03-.14.1-.14M19.69,17.41c.07,0,.1.03.1.14s-.03.17-.1.17l-.14-.1v-.03c0-.1.03-.17.14-.17M19.25,17.75c-.1,0-.14-.07-.14-.2s.03-.2.14-.2c.07,0,.1.07.1.2s-.03.2-.1.2M19.45,17.92c.17,0,.24.07.24.17,0,.17-.07.24-.17.24-.14,0-.2-.07-.2-.2,0-.1.03-.17.14-.2M18.91,17.75c.1,0,.17.07.17.17,0,.07-.03.1-.14.1s-.14-.03-.14-.14.03-.14.1-.14M19.01,18.16l.1.07v.03l-.07.1c-.1,0-.14-.03-.14-.07,0-.1.03-.14.1-.14M26.02,5.03c-.17.58-.54,1.09-1.12,1.57-.44.34-.65.68-.65.99,0,.44.27.68.78.68.48,0,.71-.2.71-.61,0-.1-.03-.27-.1-.44.27.17.41.34.41.51,0,.61-.27.89-.78.85l-.37-.03s-.07.07-.07.17c-.58-.17-.89-.55-.89-1.12,0-.44.31-.85.89-1.26.54-.41.95-.85,1.19-1.29M24.08,11.36h.17c.58-.03.85.1.85.41l-.17.17c-.07-.31-.34-.48-.85-.58M17.69,24.59h.14c.68.34,1.19.51,1.5.51.58,0,.88-.24.88-.71,0-.24-.14-.37-.44-.37h-.1l.24-.14c.44.03.68.24.68.54,0,.58-.31.88-.95.88s-1.29-.24-1.94-.71M14.08,24.93l.17-.03c.24.65.51.95.88.95s.54-.17.54-.48c0-.1-.07-.24-.24-.41h.03c.38-.03.55.14.55.44,0,.17-.1.31-.24.44-.2.14-.37.2-.61.2l-.14-.03-.24-.03h-.17l-.1.07h-.03c-.17,0-.27-.2-.34-.58-.03-.1-.03-.2-.07-.27v-.27ZM13.91,25.13c.03.1.07.24.1.41.03.17.07.27.07.31l-.03.1c-.1,0-.17-.14-.17-.38v-.17c0-.1,0-.2.03-.27M13.71,24.9l.17.03c-.1.31-.17.48-.17.54s.07.24.17.51c-.31-.03-.44-.14-.44-.38,0-.07.1-.31.27-.71M11.16,24.52c.1.44.37.68.82.68.24,0,.54-.1.92-.34h.14c-.34.37-.75.54-1.26.54s-.78-.2-.78-.61c0-.07.07-.17.17-.27M9.93,24.9c-.24-.17-.34-.34-.34-.54,0-.17.1-.27.27-.27.1,0,.24.1.34.31-.21,0-.31.07-.31.24,0,.14,0,.24.03.27M8.71,23.57l.31.14c.34,1.26,1.12,1.9,2.35,1.9.78,0,1.39-.24,1.87-.75h.2l-.03.2c-.65.54-1.33.82-2.01.82-1.53,0-2.45-.78-2.69-2.31M7.89,25.95c-.44-.21-.65-.48-.65-.78,0-.44.24-.65.71-.65.17,0,.44.14.82.44.75.65,1.6.99,2.59,1.02l-.51.03c-.44.03-.95-.1-1.46-.41l-.88-.48c-.17-.07-.34-.1-.44-.1-.31,0-.44.14-.44.41,0,.03.1.2.27.51M2.65,25.51c.07.03.17.03.34.03.1,0,.27-.07.58-.17.03.1.07.17.1.2.24.24.37.38.37.34,0,.07-.1.1-.27.1-.37,0-.75-.17-1.12-.51M2.59,13.03l-.03.14c-.61.1-.92.37-.92.78,0,.37.24.58.71.58.14,0,.24,0,.27-.03-.24.17-.44.27-.54.27-.54,0-.82-.27-.82-.82,0-.24.1-.48.31-.68.2-.17.44-.27.71-.27l.31.03ZM1.5,10.51c.1-.37.2-.68.37-.88.1-.1.14-.2.14-.31s-.1-.2-.27-.31h.1c.27-.03.41.1.41.34,0,.03-.14.24-.37.61-.03.03-.07.1-.1.2l-.14.17-.14.17ZM2.62,12.45c-.31-.14-.48-.31-.48-.51,0-.1.1-.27.31-.44-.07.17-.1.31-.1.38,0,.17.1.34.27.48v.1ZM3.23,10.44c.27.17.41.34.41.51,0,.2-.1.31-.31.31-.07,0-.17-.03-.31-.1.03-.2.1-.44.2-.71M2.55,12.82c-.71-.37-1.05-.88-1.05-1.53,0-.99.44-1.5,1.36-1.5.37,0,.75.14,1.05.41.31.31.48.61.48.99,0,.17-.1.38-.27.61-.03-.1-.1-.17-.17-.17l-.2.14c-.1.07-.24.1-.37.1-.44,0-.65-.17-.65-.51,0-.14,0-.24.03-.27.14.31.31.44.54.44.37,0,.58-.17.58-.54,0-.58-.34-.88-1.02-.88-.31,0-.58.1-.82.31-.24.24-.34.51-.34.82,0,.58.31,1.06.88,1.4l-.03.2ZM3.4,7.28c-.27-.1-.54-.14-.82-.14-.54,0-.82.24-.82.68s.24.65.68.65c.17,0,.27,0,.34-.03-.24.17-.41.27-.51.27-.51,0-.75-.31-.75-.88s.34-.88.99-.88c.31,0,.58.1.88.34M12.86,20.2c.34.44.51.78.51,1.02,0,.34-.1.51-.34.51-.14,0-.24-.1-.34-.31.03.03.07.03.17.03.2,0,.31-.14.31-.37,0-.07-.1-.37-.31-.88M10.75,22.28c-.03-.34-.17-.51-.41-.51l-.2.07-.14.07-.1-.07c0-.2.2-.31.58-.31s.58.17.58.48c0,.17-.1.27-.31.27M9.52,21.56c.44-.37.89-.58,1.33-.58.65,0,1.16.2,1.53.61l.34.37.34.24-.14.1-.14.07-.14.27-.1.31c-.1-.03-.17-.07-.27-.17-.1-.07-.14-.1-.17-.1l-.14.03c-.1.03-.17.03-.2.03-.1,0-.2-.07-.31-.17.24-.1.37-.27.37-.48,0-.58-.37-.88-1.09-.88-.34,0-.68.14-1.06.44l-.17-.1ZM9.39,21.43c.51-.65.78-1.09.78-1.29,0-.31-.14-.48-.44-.48-.17,0-.27,0-.31.03.03-.17.2-.27.48-.27.38,0,.58.24.58.68,0,.31-.17.61-.55.92-.1.03-.17.1-.27.17-.1.07-.17.14-.27.24M9.9,18.54c1.5.41,2.24.92,2.24,1.5s-.27.82-.78.78l-.1-.03c-.37-.03-.54-.2-.54-.54,0-.03.03-.14.1-.24.03.34.17.51.48.51s.48-.17.48-.48-.34-.68-1.02-1.05l-.85-.44ZM10.14,18.2c2.75.88,4.08,2.38,4.05,4.45v.48l-.27-.07c0-.61-.07-1.16-.17-1.63-.14-.44-.34-.85-.68-1.22-.27-.34-.68-.65-1.16-.95-.51-.31-1.12-.58-1.87-.85l.1-.2ZM14.35,22.69l.07.17s.03.1.07.2h-.14v-.38ZM14.66,21.56c.41.61.61.99.61,1.16s-.14.27-.37.31c.07-.17.1-.27.1-.38,0-.24-.1-.61-.34-1.09M15,21.05l.44.41.48.68c.1.17.24.24.41.27.17,0,.24-.07.24-.2,0-.07-.07-.17-.17-.27.27.03.41.14.41.31,0,.24-.14.37-.37.37-.27,0-.48-.14-.65-.41l-.48-.71-.31-.44ZM19.15,15.24l.31-.54.24-.41c.34-.58.51-1.23.51-2.01,0-.54-.2-.82-.58-.82-.2,0-.31.1-.31.27s.1.27.31.27c.03,0,.1-.03.2-.14-.07.2-.17.31-.27.31-.31,0-.44-.17-.44-.51,0-.38.2-.54.61-.51h.1c.1,0,.14-.03.14-.1l-.03-.07-.07-.2v-.07c0-.07.07-.2.2-.37l.1.48.27.88c.03.17.07.31.07.34,0,1.22-.44,2.28-1.36,3.2M17.58,16.36c.82-.71,1.23-1.26,1.23-1.63s-.14-.58-.38-.58c-.2,0-.31.1-.31.27,0,.14.07.24.2.34-.1,0-.14,0-.17.03-.17,0-.27-.1-.27-.34,0-.38.2-.58.58-.58.41,0,.61.24.61.72,0,.44-.31.92-.95,1.5l-.54.27ZM13.16,17.11c.24-.03.51-.07.78-.1l.75-.07c1.05-.1,1.56-.34,1.56-.71,0-.27-.14-.41-.44-.41l-.17.03c.24-.17.41-.27.48-.27.34,0,.51.17.51.54,0,.68-.85,1.02-2.59,1.02h-.65c-.07,0-.14,0-.24-.03M11.29,15.51c.14.03.27.1.34.14.14.03.2.07.27.1.65.2,1.02.34,1.16.44.14.07.2.2.2.37,0,.31-.17.44-.51.44-.1,0-.24-.07-.41-.17h.1c.24,0,.37-.1.37-.31s-.17-.37-.51-.48c-.37-.14-.71-.31-1.02-.54M8.91,16.77l.51-.14.61-.1c.44-.07.65-.24.65-.54,0-.37-.17-.51-.48-.48h-.14c.17-.14.31-.2.44-.2.41,0,.61.2.61.65,0,.58-.48.85-1.46.85h-.48c-.07,0-.17,0-.27-.03M8.16,9.05c-.03.24-.07.48-.07.68-.03.17-.03.34-.07.44-.03.17-.03.37-.07.58,0,.2,0,.41-.03.61-.1.55-.31.82-.61.82-.1,0-.21-.07-.24-.17l-.03-.14s.07.03.17.03c.24,0,.37-.31.48-.95l.14-.92c.07-.44.17-.78.34-.99M6.7,11.26c-.24.44-.34.75-.34.88s.03.2.14.2c.03,0,.14-.07.24-.17v.1c0,.2-.14.31-.41.31-.1,0-.17-.1-.17-.31,0-.37.17-.71.54-1.02M7.86,7.75l-.17.31-.34.58c-.07.14-.14.24-.17.31-.37.75-.71,1.12-.95,1.12-.17,0-.27-.1-.27-.31,0-.07.03-.17.1-.31.03.14.1.2.24.2.17,0,.44-.27.75-.82.31-.44.58-.82.82-1.09M10,5.88l-.85.92c-.78.78-1.29,1.53-1.56,2.24l-.68,1.53c-.27.65-.78,1.29-1.5,1.9l.03-.24c.31-.37.61-.75.82-1.06.27-.31.44-.61.54-.92l.58-1.33c.54-1.29,1.43-2.31,2.62-3.06M10.14,5.58l-.17.2c-.2.1-.37.2-.54.31l-.92.75c-.17.17-.41.31-.65.44-.24.17-.54.31-.85.41l.2-.34,1.7-1.02c.51-.27.92-.51,1.22-.75M22.72,10.78h.03c.14,0,.2.07.2.2s-.07.2-.2.2-.2-.07-.2-.17.07-.2.17-.24M22.75,10.65c-.17,0-.27-.1-.27-.27,0-.2.1-.31.27-.31s.27.1.27.31c0,.17-.1.27-.27.27M22.14,10.07c.17,0,.24.07.24.2,0,.17-.1.24-.27.24-.1,0-.17-.07-.17-.2,0-.17.07-.24.2-.24M24.05,2.69c.14,0,.2.07.2.17s-.07.17-.2.17l-.14-.1-.03-.03c0-.1.07-.17.17-.2M24.59,2.82c.1,0,.17.07.17.17,0,.17-.07.24-.17.24-.17,0-.24-.07-.24-.17,0-.17.07-.24.24-.24M24.73,2.35c.2,0,.31.07.31.2,0,.1-.07.14-.17.14-.17,0-.24-.07-.24-.2l.1-.14ZM10.17,2.04c.17,0,.24.07.24.24s-.07.24-.2.24c-.17,0-.24-.07-.24-.2,0-.17.07-.27.2-.27M10.1,1.84c-.17,0-.24-.07-.24-.24s.07-.27.24-.27.24.1.24.27-.07.24-.24.24M9.49,1.63c.17,0,.27.1.27.27s-.1.27-.27.27-.27-.07-.27-.24c0-.2.1-.31.27-.31M14.93,12.99c.14,0,.2.03.2.1l-.1.07-.14.07h-.07c-.1,0-.17-.03-.17-.1,0-.1.1-.14.27-.14M15.17,12.48c.2-.03.31.03.31.17s-.1.2-.27.2-.27-.07-.27-.17c0-.14.07-.2.24-.2M16.26,12.07c.14,0,.2.07.2.2,0,.1-.03.17-.07.17-.2,0-.31-.07-.31-.24,0-.1.07-.14.17-.14M16.16,11.94s-.07-.03-.07-.14.03-.14.07-.14c.07,0,.1.03.1.14s-.03.14-.1.14M15.2,11.94c.1-.17.24-.27.37-.27.24,0,.34.07.34.24,0,.27-.17.41-.51.41-.2,0-.31-.03-.31-.14l.1-.24ZM15.85,10.99h.03c.2,0,.31.07.31.2,0,.21-.1.31-.34.34h-.03c-.24,0-.34-.07-.34-.2,0-.17.14-.31.38-.34M14.97,10.95c.24-.03.34.07.34.27,0,.24-.1.34-.34.34-.2,0-.31-.1-.31-.31s.1-.31.31-.31M14.18,11.6c-.24,0-.37-.1-.37-.27s.14-.24.37-.24c.17,0,.27.07.27.24s-.1.27-.27.27M15.27,10.58l.03-.03c.17,0,.24.1.24.27l-.07.1c-.17,0-.27-.07-.27-.24l.07-.1ZM14.35,10.48c.24,0,.34.03.34.14,0,.2-.1.31-.34.31-.27,0-.41-.07-.41-.24,0-.1.14-.17.41-.2M15.71,10.31l.1-.03c.24,0,.37.14.37.41,0,.1-.03.14-.14.14-.31,0-.44-.1-.44-.34l.1-.17ZM15.07,9.86c.17,0,.27.07.27.24,0,.24-.1.34-.34.34-.17,0-.27-.1-.27-.27,0-.2.1-.31.34-.31M14.28,9.59c.2,0,.31.14.31.37s-.1.34-.34.34c-.2,0-.31-.1-.31-.31,0-.27.1-.41.34-.41M16.12,9.76c0,.24-.1.37-.34.37s-.34-.14-.34-.37c0-.17.14-.24.38-.24.2,0,.31.07.31.24M14.93,9.15c.24-.03.34.03.34.2,0,.24-.1.34-.31.34-.24,0-.34-.1-.34-.27s.1-.27.31-.27M15.85,8.81c.24,0,.34.1.34.34,0,.14-.1.2-.27.2-.24,0-.38-.07-.38-.24,0-.2.1-.31.31-.31M15.41,8.43c.17,0,.24.07.24.17,0,.2-.14.31-.41.31-.1,0-.17-.07-.17-.2,0-.17.1-.27.34-.27M16.46,8.78l-.03.03c-.31,0-.48-.1-.48-.31,0-.1.03-.14.14-.17h.03c.24,0,.34.14.34.44M16.36,7.99c.1,0,.17.03.17.14s-.03.17-.1.17c-.17,0-.24-.07-.24-.2,0-.07.07-.1.17-.1M15.61,8.3c-.24,0-.34-.07-.34-.2,0-.1.1-.17.34-.17s.38.07.38.17c0,.14-.14.2-.38.2M13.3,10.99c.24,0,.34.07.34.17s-.1.17-.34.27h-.1c-.17,0-.24-.03-.24-.14,0-.17.1-.27.34-.31M12.48,11.26c.17,0,.27.07.27.17-.03.03-.14.1-.31.17h-.07c-.14,0-.2-.03-.2-.14,0-.14.1-.2.31-.2M12.11,11.22c0,.14-.1.2-.31.2s-.31-.07-.31-.2c0-.1.1-.17.34-.17.17,0,.27.07.27.17M10.99,11.05c.17,0,.27.07.27.17,0,.17-.1.27-.31.27h-.07c-.2.03-.31,0-.31-.17s.14-.27.41-.27M12.65,10.48c.24,0,.34.14.34.37,0,.17-.1.24-.31.24-.31,0-.44-.1-.44-.27,0-.07.07-.14.2-.2l.2-.14ZM13.77,10.41c0,.24-.14.37-.37.37s-.34-.14-.34-.37.14-.37.41-.37c.2,0,.31.14.31.37M12.04,9.97h.03c.2,0,.31.1.31.31,0,.17-.07.24-.2.24-.2,0-.31-.07-.31-.24s.07-.27.17-.31M12.96,9.59c.1,0,.17.07.17.24,0,.31-.14.44-.44.44-.1,0-.17-.07-.17-.2,0-.31.14-.48.44-.48M13.33,9.42s.1.07.14.2v.07l-.03.1s-.1-.03-.17-.14l-.03-.07.1-.17ZM12.38,9.18c.17,0,.24.07.24.2,0,.27-.14.41-.44.41-.17,0-.27-.07-.27-.2,0-.27.17-.41.48-.41M13.16,9.18c0,.1-.07.17-.2.17-.17,0-.24-.07-.24-.17,0-.14.07-.2.2-.2.17,0,.24.07.24.2M12.72,8.67c.1-.03.14.03.14.14l-.1.1c-.1,0-.14-.03-.14-.14l.1-.1ZM12.18,8.64c.17,0,.27.07.27.17,0,.17-.1.24-.31.24-.24,0-.34-.07-.34-.17,0-.17.14-.24.37-.24M12.28,8.09c.17,0,.27.07.27.2,0,.1-.07.17-.2.17s-.2-.07-.2-.2c0-.1.03-.17.14-.17M12.41,7.79c0,.07-.07.1-.17.1l-.03-.03c-.1-.03-.17-.1-.17-.14s.03-.07.14-.07l.14.07.1.07ZM.82,26.39h25.54V.85H.82v25.54ZM.41.41h26.39v26.39H.41V.41ZM0,27.21h27.21V0H0v27.21Z" fill="#231f20"/>
    </g>
  </g>
</svg>