<?xml version="1.0" encoding="UTF-8"?>
<svg id="Layer_1" xmlns="http://www.w3.org/2000/svg" width="27.21" height="27.21" xmlns:xlink="http://www.w3.org/1999/xlink" viewBox="0 0 27.21 27.21">
  <defs>
    <clipPath id="clippath">
      <rect width="27.21" height="27.21" fill="none"/>
    </clipPath>
    <clipPath id="clippath-1">
      <rect y="0" width="27.21" height="27.21" fill="none"/>
    </clipPath>
  </defs>
  <g clip-path="url(#clippath)">
    <g clip-path="url(#clippath-1)">
      <path d="M21.46,25.68l.03.34.34-.07-.31-.17-.07-.1ZM21.09,25.68v.38l.1.03c.17,0,.31-.03.34-.07-.07-.03-.1-.1-.14-.2-.03-.1-.14-.14-.31-.14M20.78,25.61l.14.44.03-.17v-.07s-.07-.1-.17-.2M13.27,25.58v.07l.1.07c.27,0,.31.03.14.07l.03-.1c0-.07.03-.17.07-.27l-.34.17ZM13.03,25.27l-.07.24.51-.24-.14-.17-.31.17ZM19.25,25.1c-.03-.1-.1-.17-.14-.17l-.1.1.1.14c.1.07.17.14.2.17.31.24.44.34.41.34.14,0,.2-.03.2-.07l-.03-.1-.03-.07-.14-.17-.48-.17ZM18.3,25.07l-.75-.31-.03.1.34.07.31.1-.1.07-.1.17.34-.2ZM2.72,24.76h-.07l-.03.07s.03.07.14.17l.27.31-.07.03-.24-.58ZM11.56,23.91l.17.58.1.27.14-.03-.17-.75-.24-.07ZM2.01,23.77l-.14-.17-.27-.07s-.03.1-.03.2,0,.14-.03.17l.48-.14ZM23.3,23.26l-.1-.03v.17c-.07.1-.31.14-.68.14v.14l-.07-.03-.1-.03c.1-.03.27-.1.51-.14.24-.07.34-.1.34-.07l-.07.07.2-.1-.03-.1ZM13.03,23.09l-.07.07-.03.48v.14c-.03.17,0,.27.1.27l.07-.07-.03-.17-.03-.24.1-.48h-.1ZM22.45,22.55l.03.14c-.07,0-.1.03-.1.14l.14.03h.14l-.2-.31ZM22.79,22.52v.14l.14.07.17-.2h-.31ZM22.31,22.04c.03.1.1.17.14.17.1,0,.2-.1.24-.27l.14.14.03-.34-.54.31ZM22.62,21.39l-.51.31v.1c-.1,0,.07-.1.58-.27l-.07-.14ZM12.07,21.22h.17l-.17-.14v.14ZM12.52,20.82h-.41l-.03.07v.07l.14.07h.07l-.03.03.27-.24ZM12.18,20.51l-.1.07c.1.1.17.14.27.14l.1-.03v-.03l.07-.1.03-.03h-.37ZM16.46,18.33c-.37-.51-.72-.75-1.09-.75-.1,0-.24.03-.41.14l.17.07.34-.03c.38-.03.58.03.72.14.07.14.17.27.27.41v.03ZM15.81,17.35h-.48l-.1.03-.07.07.03.07h.24l.2-.03h.17l.48.14.1-.55-.58.27ZM23.64,17.04l-.41-.41.82.58.48.41-.14-.14c-.1-.03-.2-.07-.27-.17-.07,0,.07.1.41.31l-.03.07c-.14,0-.41-.2-.85-.65M4.59,16.43l.24.2h.58l.14.07-.95-.27ZM13.03,16.12l-.24.78.24-.78ZM24.01,15.95h-.27l-.1-.03c-.17.03-.31.07-.37.1l.54-.1-.48.17c.07-.17.24-.24.54-.24.17,0,.37.03.55.1.2.07.27.1.24.14-.03.03-.24.03-.61-.03l-.17-.1-.24-.03c.1-.03.31,0,.51.03.27.03.38.07.38.1l-.1.03-.78-.17.37.03ZM23.54,16.05l-.2.03.31-.17c-.17,0-.27.07-.31.17l.1-.1.88.07h-.78ZM13.54,15.82h-.2l.03.14-.07.65c-.03.2-.1.34-.17.48-.1.07-.17.17-.24.2h.27l.07-.03.07-.24.14-.44v-.48l.1-.27ZM5.88,13.2l-.07-.03-.2.27.31-.07-.03-.17ZM5.65,13.5l-.1-.34-.1.03.1.27-.14.03.1.03.14-.03ZM4.59,12.14l-.14.27h.03c.1,0,.2-.03.24-.1l-.14-.17ZM4.59,12.07l.14-.03-.1-.34-.03.37ZM4.18,11.67l-.07.24.44-.41c-.17-.03-.24-.1-.24-.24,0,.27-.04.41-.14.41M4.56,11.5l-.55-.31.17.07h-.1l.03.65.44-.41ZM24.39,10.85v-.07l.03-.2s.1-.07.14-.17l-.17.44ZM23.98,9.83v.2l-.1-.2h.1ZM1.36,9.25c-.03-.17.07-.1.31.2.17.1.27.14.31.14.17-.03.27-.07.34-.1l-.41.37-.54-.48-.07-.41.07.27ZM25.78,8.54l-.17-.44-.24.14.41.31ZM25.65,7.86v.1l-.24-.14.03.14.07.07h.07l.07-.07.14.2-.14-.31ZM2.65,7.28l-.03-.03-.14.07-.27.71v.03c0,.07.03.1.14.1h.03l.07-.27.1-.27.1-.34ZM24.66,6.9l.03.2-.03-.03.03-.14-.07.03.03-.07ZM24.49,6.6l-.27.14.2.41.17-.54h-.1ZM21.97,6.09l-.2.41.2-.41c-.07.03-.14.1-.24.24l.03.14v.2c.07,0,.03.14-.07.37l.27-.95ZM24.11,6.05l-.14.27v.34c-.03-.07,0-.1.1-.14.1-.03.2-.14.24-.31l-.1-.1-.1-.07ZM21.67,6.77l-.17-.44v-.03l-.07.1v.03l.24.34ZM23.5,5.88l.2.17-.1.17-.1-.34ZM24.59,5.78l.14.17c.14.14.2.27.24.37.07.24.14.34.2.34l.07-.1.17.1c0-.1-.14-.31-.44-.61l-.37-.27ZM22.75,2.93l-.44.2c-.1-.03-.2,0-.2.14-.07.17-.1.27-.14.31.34-.2.58-.31.68-.31l.14-.07s.07-.03.2-.1c.07-.07.2-.1.37-.1-.1,0-.27.03-.44.1-.17.07-.31.1-.37.1.1,0,.27-.03.51-.14.37-.1.41-.17.03-.17l-.34.03ZM12.92,26.16l.41-.03.51-.2.17.17-1.09.07ZM2.72,25.51c.1.1.17.14.24.17.2.07.31.14.31.17,0,.1-.1.2-.31.27-.03-.1-.07-.2-.1-.34-.03-.07-.1-.17-.14-.27M7.18,26.05c.1-.1.2-.14.31-.17.24-.1.41-.21.54-.27.1-.07.2-.14.24-.17l.14-.14.31-.24c.1-.1.24-.17.41-.24.17-.1.31-.14.44-.14.31,0,.51,0,.55.03l.24.1.34.03c-.03.17-.17.27-.41.27v.1c.31.14.48.31.48.48,0,.38-.2.54-.58.54-.03,0-.14-.03-.31-.07l-.34-.2-.48-.21.31-.14.41.34.2.07c.17,0,.27-.1.27-.27,0,.03-.03-.07-.07-.24l-.17-.2c-.17-.1-.31-.14-.48-.14-.14,0-.37.1-.71.31-.58.38-1.12.58-1.67.61l.03-.07ZM4.05,25.71c.61.17,1.09.27,1.46.27,1.05,0,1.77-.27,2.07-.82.27-.44.44-.68.51-.65h.31l.27.03c-.71,1.09-1.8,1.63-3.27,1.63-.51,0-.99-.07-1.43-.24l.07-.24ZM5.71,25.13c-.07-.14-.1-.24-.1-.34,0-.17.17-.27.51-.27.48,0,.71.17.71.48,0,.24-.1.44-.34.58-.24.2-.48.27-.78.27l-.78-.07c-.17,0-.27-.03-.31-.07l.1-.1.31.07h.44c.65,0,.95-.2.95-.65,0-.17-.1-.27-.34-.27-.14,0-.27.14-.37.37M23.23,24.83c-.31.14-.58.2-.75.2-.58,0-.85-.2-.85-.65,0-.2.1-.31.31-.27h.03c.1,0,.17.03.2.07l-.03.24.03.1c.03.14.31.24.82.27l.24.03ZM3.91,24.22c.24.1.51.14.82.14.44,0,1.02-.07,1.73-.2.48-.07.78-.1.95-.07l3.54.24-1.63.03h-.92c-.37.03-.85.03-1.43.07-.51.03-.95.03-1.33.07h-1.02c-.24,0-.48-.1-.71-.27M17.69,24.01l.14.31h-.17c-.17,0-.24-.07-.24-.17,0-.03.1-.1.27-.14M18.4,24.66c-.24-.24-.37-.44-.37-.58,0-.24.1-.34.34-.34.07,0,.17.07.27.17-.24.03-.37.14-.37.31,0,.14.03.27.14.44M1.19,25.82c.17-.17.27-.31.27-.41l-.27-1.29c-.03-.07-.03-.17-.03-.34,0-.41.2-.61.58-.61.24,0,.41.07.51.24l.92,1.12c.31.37.65.54,1.09.54.17,0,.34-.07.55-.2l.1.03c-.1.37-.24.54-.41.54l-.75-.07.03.34c-.58-.1-.99-.34-1.22-.68l-.37-.88c-.1-.1-.17-.14-.24-.14-.1,0-.17.07-.17.2v.03l.37.34c.14.2.2.41.2.65v.17c-.1-.07-.2-.1-.24-.1l-.1.03s.03.14.03.31c0,.1-.1.24-.34.41-.2-.03-.38-.1-.51-.24M1.57,22.89l.31.07.03.1-.24-.03c-.14,0-.31.1-.55.31l.44-.44ZM25.95,22.65c-.03.24-.07.44-.1.61l-.14.58-.17.41-.41.61c-.07.1-.1.24-.1.34s.03.2.1.37c.07.17.17.24.31.24.17,0,.31-.14.41-.44.03.03.03.14.03.31,0,.38-.2.58-.65.58l-.14-.07-.1-.14-.14-.07-.1-.27-.1.07v.17c0,.07-.07.14-.17.2l-.27-.38v-.07s.03-.1.14-.2c.58-.65,1.02-1.36,1.33-2.07l.27-.78ZM15.85,22.14h.03c.1,0,.17.03.17.1v.03l-.17.1c-.1,0-.17-.03-.17-.14,0-.07.03-.1.14-.1M16.63,22.18c-.03.17-.1.27-.17.27-.1,0-.14-.07-.14-.17,0-.14.07-.2.17-.2l.14.1ZM15.71,21.67c-.03.24-.07.34-.17.34s-.17-.07-.17-.2c0-.1.07-.17.2-.17l.14.03ZM16.16,21.56h.03c.1-.03.17,0,.17.17,0,.1-.07.17-.17.17-.14,0-.2-.07-.2-.2,0-.1.07-.14.17-.14M9.56,22.07c.1-.51.34-.75.75-.75.48,0,.78.27.92.78.03.17.07.24.14.24h.14c0-.34.1-.54.34-.65.24.17.44.44.54.78v.61c0,.24.03.44.07.68l.17.48.17.61.17.17c.14-.03.2-.07.24-.1,0-.03-.03-.14-.1-.27-.17-.17-.31-.37-.34-.58l.17-.03c-.1-.2-.14-.41-.14-.58,0-.07.07-.34.17-.78l-.14-.03c-.1,0-.14.34-.17,1.06-.03-.17-.03-.31-.07-.44v-.38c0-.37.07-.65.24-.82.03-.03.1-.14.24-.31.17-.17.27-.24.37-.24l.14.2.07.03-.03.48.03.07h.07c.1,0,.14-.07.14-.2,0-.17,0-.27-.03-.31h.07c.07-.24.24-.34.51-.34.54,0,.82.31.85.95-.17-.14-.34-.2-.48-.2-.37,0-.58.07-.68.24l-.1.2-.1.17c-.1.1-.14.24-.14.48s.03.44.14.61c.24.71.37,1.09.37,1.12,0,.65-.48.99-1.4.99-.58,0-1.02-.41-1.36-1.26l.27.41.14-.03-.03-.1c-.1-.14-.17-.27-.24-.34-.03-.14-.1-.2-.14-.31l-.17-.99-.1-.03-.1.1v.03l.07.2.07.37c.03.17.1.34.14.44s.07.2.1.24c-.1-.31-.17-.48-.17-.54l-.44-1.36-.1-.27c-.1-.24-.31-.48-.61-.68l-.61.17ZM16.63,21.16c.1,0,.17.07.17.17-.03.03-.07.07-.17.1-.1,0-.14-.03-.14-.14.03-.1.07-.14.14-.14M15.71,21.09h.07c.14,0,.2.07.2.17,0,.14-.07.2-.2.2s-.2-.07-.2-.17l.14-.2ZM17.62,21.8c.14-.58.31-.88.54-.88.17,0,.24.07.2.2v.07c-.2.03-.34.07-.41.1-.07.1-.14.2-.2.27l-.14.24ZM15.37,20.65l.34-.03h.03c.38-.03.58.1.58.41,0,.17-.03.27-.14.27l-.1-.07-.14-.37c-.14-.07-.24-.1-.27-.1h-.1c-.1,0-.17-.03-.2-.1M14.76,20.48l.58.24c-.24-.03-.44-.1-.58-.24M13.2,21.36c.03-.65.14-.95.37-.95.17,0,.27.17.27.54h-.27c-.14-.03-.2.1-.24.44l-.17.07.03-.1ZM5.54,20.54l.54-.17.1.03-.03.14h-.61ZM4.97,20.03l-.27.2-.24.2-.24.37-.07.14-.03.07c0,.1.03.14.1.14l.1-.03.27-.61c.17-.37.61-.55,1.39-.55.17,0,.27.03.24.14v.14c-.92.14-1.36.48-1.36.99s.2.75.61.75c.17,0,.27,0,.31-.03-.1.44-.34.65-.78.65-.1,0-.27-.1-.44-.27l-.1-.2-.14.07c-.07.58-.34.88-.85.88-.03,0-.17-.07-.34-.17.2-.17.31-.37.34-.68-.03-.31-.07-.54-.1-.68-.03-.14-.03-.17-.03-.14,0-.1.07-.24.24-.41l-.03-.17s-.14.03-.31.03c-.31,0-.48-.14-.48-.37,0-.14.07-.2.17-.2h.14l.2.07h.44l-.1.07-.03.07.14.07c.07,0,.17-.07.31-.17l.24-.17c.17-.03.31-.07.41-.1.1-.04.2-.04.31-.07M22.07,19.39c.14.03.31.17.48.34l-.14.1.27.34.03.51c-.1-.48-.37-.78-.75-.92l.1-.37ZM9.97,20l-.03-.17c0-.34.2-.51.58-.51.03,0,.14.03.27.07.24.17.37.37.37.61l-.03.31c.03.24.03.48.07.68.03.2.03.37.07.54l-.1-.24-.17-.85c-.1-.44-.34-.68-.65-.68-.1,0-.24.07-.38.24M16.94,22.21c0-.58.1-1.02.27-1.33.2-.34.58-.75,1.09-1.22.37-.37.65-.54.89-.54.03,0,.07.03.07.14v.1h-.07c-.03.37-.14.61-.31.65l-.51.2-.24.2-.2.2c-.17.17-.31.37-.34.61l-.14.71-.51.27ZM25.07,19.01c.31.51.44,1.09.44,1.77,0,.58-.14.85-.41.85-.1,0-.24-.14-.37-.37l-.07-.14.48-.24c.1-.31.17-.51.17-.61v-.24c-.03-.1-.03-.2-.07-.31l-.17-.71ZM22.18,18.94c.48.27.78.58.92.92l.17.41.07.07.1-.1s-.03-.1-.1-.2l-.24-.48-.2-.27c.34.24.58.34.71.37.1.03.17.07.17.1-.03.03-.07.1-.03.24v.41c0,.44-.14.95-.37,1.53l-.17.34c.44-.07.68-.54.68-1.46,0-.14-.07-.41-.2-.78l.27.27.07.24.07.17-.07.37.1.07v.03c.07,0,.1-.07.1-.24s0-.31-.03-.34c.2.31.31.54.31.71l.03,1.39c0,.2.07.44.24.75-.17.1-.31.14-.44.14-.17,0-.27-.14-.34-.37h-.1s-.1.1-.14.27c-.1.37-.48.58-1.05.58-.27,0-.48-.03-.61-.1l-.65-.37c-.17-.03-.31-.07-.34-.07-.1,0-.24.03-.41.1-.1-.17-.14-.31-.14-.48,0-.1.07-.24.2-.44.17-.17.41-.27.71-.31l.1-.03-.03-.1-.14-.14c-.1-.17-.14-.31-.14-.44l.03-.14.48-.14c.14-.03.27-.07.44-.1.17-.03.27-.1.37-.24l.31-.48.07-.2c0-.44-.31-.85-.88-1.16l.1-.31ZM25.37,18.43c.44.78.68,1.63.68,2.52,0,1.22-.27,2.28-.88,3.2-.54.88-1.29,1.43-2.21,1.63-.24.21-.54.34-.92.34-.37.07-.58.07-.61.1s-.17.03-.34.03c-.34,0-.51-.1-.51-.31l.03-.14v-.03c0-.07-.03-.1-.14-.14-.2.34-.37.51-.51.51l-.17-.03c-.07,0-.17,0-.27-.03l-.85-.17-1.84-.68c-.17-.07-.41-.1-.68-.1-.58,0-.89.14-.89.44,0,.2.1.31.34.31h.07l.68-.41s.1-.03.27-.03c.37,0,.54.1.54.27,0,.03-.07.17-.17.34-.1-.2-.24-.31-.41-.31-.24,0-.34.07-.37.21-.2.14-.37.2-.55.2-.48,0-.71-.2-.71-.58,0-.27.14-.51.37-.68.24-.2.55-.31.89-.31.17,0,.34.03.51.14.14.1.24.14.27.14v.03c.1,0,.14-.03.14-.14l-.2-.24h.51c.44,0,.85.24,1.26.68l.31.31c.31.24.61.41.95.44v-.14c-.41-.1-.71-.27-.88-.48l-.27-.27-.1-.14-.07-.2v-.07c0-.1.03-.27.1-.44.14.03.2.14.24.27h.14c.07-.65.34-.95.82-.95.31,0,.54.1.68.34.1.17.17.34.2.48.03.14.1.24.14.34l-.24-.14-.03-.07v-.07c0-.24-.14-.34-.44-.34-.24,0-.37.1-.37.34,0,.1.03.24.14.41l.37.27c.34.24.65.31.95.27l.58-.07.65-.07.31-.14.31-.07.17-.1.31-.14.54-.37.2-.1c.38-.44.58-.71.65-.88.1-.2.17-.37.2-.58.03-.14.1-.31.14-.41.2-.71.31-1.29.31-1.73,0-.27-.07-.65-.2-1.09l-.27-.85c.14-.03.2-.1.2-.2l-.03-.14ZM11.12,18.37c.65.44,1.05.85,1.22,1.29-.31-.44-.71-.82-1.22-1.12v-.17ZM3.61,18.06l.03.07c-.1.1-.2.17-.27.2-.92.71-1.39,1.53-1.39,2.38,0,.37.17.68.48.92l.27.07c.14,0,.2-.07.2-.24l-.1-.17-.48-.34-.03-.1s.03-.1.14-.17l.14.27.41.27c.1.07.17.2.17.37,0,.37-.24.58-.68.61.1.1.14.2.14.34,0,.1-.03.17-.14.17-.03,0-.14-.07-.24-.17l-.48-.54-.03-.2-.17-.48v-.27c0-1.12.68-2.14,2.04-2.99M9.62,19.49l-.14.03c-.31.03-.48-.17-.48-.68,0-.1.03-.17.07-.2l.2-.24-.2-.14v-.03c0-.27.24-.41.75-.41l.03.03.24.07.31.03c.31.07.51.24.61.48l-.34-.07c-.1,0-.17,0-.2.03-.17.03-.34.1-.41.1-.14.07-.2.07-.24.1h-.03l-.07-.03-.2-.03c-.14.24-.2.41-.2.51,0,.14.1.27.31.44M25.34,17.65c.2.07.34.1.44.1-.03,0,.07-.03.31-.07-.03.31-.14.48-.31.48s-.31-.17-.44-.51M1.12,22.69c-.03-.31-.03-.58-.07-.78-.03-.24-.03-.41-.07-.51v-.14c0-.44.1-.88.34-1.33l.27-.51c.17-.34.31-.54.41-.61l.14-.07c.07-.03.24-.2.48-.51.31-.37.65-.58.95-.58l.1.1c0,.1-.1.17-.34.27-.54.24-1.02.68-1.43,1.36-.37.68-.58,1.36-.58,2.07v.34l.17.75c0,.1-.1.17-.34.2l-.03-.07ZM1.26,17.65c.14.34.31.51.54.51.17,0,.31-.03.48-.14l.68-.37.51-.17.24-.1.03.07-.51.2-1.02.68c-.1.1-.24.14-.48.14-.48,0-.72-.17-.72-.48,0-.14.07-.24.24-.34M2.04,17.31l.07-.03c.17,0,.24.07.24.2,0,.1-.07.17-.24.17-.14,0-.2-.07-.2-.17s.03-.14.14-.17M1.7,17.07l.1.1-.14.07.03-.17ZM1.09,17.07l.1-.03h.07l.1.14c0,.1-.03.14-.14.14l-.14-.03v-.2ZM6.12,16.9c.1,0,.17.03.17.07l-.03.2-.03.27-1.19.37c-.17.07-.31.2-.48.44s-.24.44-.24.61c0,.44.17.68.51.68.1,0,.17-.03.2-.07.17-.1.27-.24.27-.34l-.14-.31c-.1-.24-.14-.41-.14-.51,0-.14.1-.27.27-.41.17-.14.34-.2.48-.2.31,0,.44.14.44.37,0,.17-.1.37-.34.68l-.03-.27.14-.27-.03-.17c-.1-.1-.2-.14-.31-.14-.24,0-.34.17-.34.48l.03.07.24.68v.17c-.03.17-.17.31-.41.41-.17.07-.34.1-.44.1-.31,0-.51-.2-.61-.61l-.14-.03s-.07.1-.1.31c-.2-.24-.31-.44-.31-.65,0-.34.24-.68.68-.99l-.31-.14c.07-.55.31-.82.68-.82l.14.1c-.37.27-.58.41-.58.38l.07.1s.1-.03.24-.14c.14-.1.24-.14.31-.17.07-.17.14-.24.2-.24h.14l.2.07c.17.03.44,0,.78-.1M18.64,16.84c.38.27.55.65.55,1.09s-.17.82-.51,1.12l-.95.95-.24.31-.24.27c.1-.31.24-.55.37-.68l.85-1.12c.17-.17.24-.41.2-.68v-.24c-.1-.17-.24-.27-.37-.27-.17,0-.27.14-.24.44v.2c-.17-.1-.27-.24-.27-.41,0-.44.14-.65.37-.65l.34.07.1-.07-.07-.1.1-.24ZM4.11,16.84c-.37.31-.75.44-1.19.44-.34,0-.51-.07-.51-.2,0-.1.07-.17.17-.17l.51.14.03.03.92-.27h.03l.03.03ZM1.57,16.73l-.24.1.24-.1ZM1.87,16.87v-.14c0-.14.03-.2.14-.2s.17.07.17.2c0,.1-.03.17-.14.17s-.14,0-.17-.03M9.15,16.5c.44.17.89.37,1.29.58.41.24.78.44,1.05.68.34.24.58.44.75.65.17.2.27.37.27.54v.17c-.03.1-.03.2-.07.31h-.07l-.14-.24-.14-.14-.07-.1c-.54-.54-1.09-.92-1.6-1.12l-.48-.17c-.17-.07-.27-.1-.37-.17-.1,0-.24-.07-.48-.1l.03-.88ZM1.12,16.36c.03.14.07.2.07.17,0,.03-.03.07-.14.1l-.03-.14.1-.14ZM13.27,17.86c.85-1.06,1.7-1.6,2.52-1.6.24,0,.38,0,.41.03l.37.1c.51.1.78.27.78.44l-.03.1-.24.24h.31c.17,0,.27.07.27.24l-.07.82v.03c-.03.07.03.34.14.85-.14.07-.24.1-.31.1s-.17-.07-.31-.2l-.1.07c0,.58-.31.85-.88.85-.17,0-.31-.03-.41-.1l-.85-.65c-.1-.07-.24-.1-.34-.1-.34,0-.51.2-.51.61,0,.17.07.27.2.27h.03l.24-.24.37.14h.34v.2c-.03.14-.17.2-.34.2h-.1l-.17-.07-.2.03c.1.17.14.31.14.48,0,.14-.1.27-.34.41v-.37l-.17-.24.1-.27c-.24-.24-.34-.44-.34-.61,0-.54.24-.82.71-.82h.1l1.09.44h.14c.17,0,.31-.07.48-.24l.07-.27c0-.17,0-.27-.03-.31-.27-.27-.58-.41-.95-.41-.41,0-.82.14-1.19.44-.37.31-.65.65-.75,1.09l-.27.92-.14.75v.37l-.31.31-.17.34-.37-.51c-.03-.17-.1-.24-.2-.24s-.27.07-.51.24c-.07-.41-.1-.78-.1-1.12,0-.51.07-1.05.2-1.63l.24.24.24.24.24.37-.07.17.07.41h.24l.14-.31.03-.78c.2-.65.41-1.16.58-1.46M2.59,16.26c.2,0,.31.07.31.24,0,.14-.1.2-.27.2-.14,0-.2-.07-.2-.2v-.07c.03-.1.1-.17.17-.17M1.7,16.46h-.14c-.17.03-.24-.03-.24-.17s.07-.2.17-.2c.14,0,.2.14.2.37M10.85,17.11c-.41-.14-.78-.31-1.12-.51-.34-.2-.51-.34-.51-.44v-.31l.41.48s.17.14.37.24c.17.1.48.31.85.54M2.11,15.78c.17,0,.27.1.27.27s-.07.24-.2.24c-.17,0-.27-.1-.27-.27l.03-.07c.03-.1.1-.17.17-.17M1.09,15.75h.03c.1,0,.14.03.14.14l-.1.1-.07-.03-.07-.1.03-.07.03-.03ZM16.87,15.58l.27-.03c.71,0,1.09.24,1.09.75,0,.14-.1.27-.31.41l-.24.03c-.1,0-.2-.07-.31-.24l.03-.2c.1.07.17.1.27.1.07,0,.1-.07.1-.17,0-.31-.31-.48-.92-.48-.1,0-.17,0-.2.03l-.54.17-.44.03c.48-.24.88-.37,1.19-.41M21.09,15.51c.58.17.89,1.05.89,2.62s-.65,2.89-1.97,4.15c-1.26,1.23-2.76,1.91-4.42,2.01l-.85.03h-.41s-.07-.07-.1-.2h.48l1.43-.2.61-.17s.14-.07.31-.1c.17-.03.37-.1.54-.17.37-.17.61-.24.68-.24l.44-.27.27-.14c.14-.1.27-.2.37-.31l.31-.2.37-.37.31-.34.17-.2.24-.31.14-.31c.54-.78.82-1.74.82-2.86,0-.51-.14-1.19-.44-1.97l-.17-.44ZM1.84,15.61l-.1.17-.14.07c-.14,0-.2-.07-.2-.2,0-.1.07-.17.17-.17.03,0,.14.03.24.1l.03.03ZM22.69,16.5c.03-.75.31-1.12.88-1.12.24,0,.51.14.85.41l.48.27c.1.07.2.1.34.14l.27-.07.07-.1.24-.24.1-.27c.1.1.17.2.17.31,0,.44-.1.68-.31.75l-.27.07.07.24.07.37h-.1c-.41,0-.78-.17-1.12-.54l-.17-.24-.2-.1c-.1,0-.17.07-.17.2,0,.1.03.14.1.17l.37.2c.51.31.78.75.78,1.29,0,.2-.03.31-.07.31-.07,0-.17-.03-.24-.14-.14-.1-.17-.14-.2-.14l-.07.07-.03.03c0,.1.1.17.27.24.07.17.1.31.1.34,0,.58-.27.88-.82.88-.1,0-.2-.03-.27-.1-.17-.17-.27-.34-.31-.54v-.78c0-.44-.17-.65-.54-.65s-.58.17-.58.54c0,.17,0,.27.03.31-.17-.17-.24-.34-.24-.51,0-.48.24-.71.71-.71.17,0,.37.07.61.24l.14.17.1.24.14.17-.07.85c0,.17.07.24.2.24.24,0,.34-.17.34-.48,0-.17-.07-.37-.24-.61l-.24-.44-.44-.37c-.34-.24-.58-.51-.75-.88M22.58,16.36c-.2-.03-.31-.14-.31-.31,0-.51.27-.75.78-.75h.1c-.37.31-.54.68-.58,1.05M19.18,15.27h.68c.2,0,.41.03.58.1h.07c.31-.03.54.24.71.82.2.58.31,1.26.31,2.08,0,1.56-.71,2.89-2.11,3.98-1.4,1.09-3.13,1.67-5.27,1.74l-.1-.61v-.1c0-.07.1-.1.27-.1h.14c1.4,0,2.69-.51,3.84-1.53l.61-.85c.07-.14.14-.27.2-.37.07-.1.14-.2.17-.31l.07-.34.1-.41c.03-.1.03-.24.07-.31v-.34l-.03-.58c0-.82-.27-1.63-.82-2.41l-.14-.14-.2-.24.58-.03h.07l.2-.03ZM1.05,15.14c.1-.27.24-.41.44-.41.17,0,.27.03.37.14l.51.54.58.37.48.37c.07.07.17.1.31.14.14.03.2.1.24.24l-.34-.1c-.27-.1-.44-.17-.54-.27l-.17-.17-.54-.34-.68-.51c-.07-.07-.14-.1-.24-.1s-.24.03-.41.1M18.94,14.73l.41-.07.85.03.31.03.41.03.44.1c.17.03.41.1.72.2l.17.03c.07.03.14.07.24.1l-.37.51c-.85-.44-1.74-.65-2.65-.65-.24,0-.48.03-.75.03-.27.07-.58.1-.89.14-.99.2-1.6.34-1.77.44l-1.16.54-.34.14c.78-.92,2.24-1.46,4.39-1.63M4.69,15.95c-.24-.17-.37-.37-.37-.61,0-.03.03-.17.07-.34.14-.24.31-.34.51-.34.24,0,.34.07.34.2l-.1.1c-.1,0-.14,0-.17-.03-.1.1-.17.2-.17.31,0,.37.34.58,1.05.65l.41.03-.03.82c-.37.07-.71.1-1.02.1-.44,0-.78-.17-1.05-.48.17-.17.34-.27.58-.31l-.03-.1ZM21.16,14.52l1.73.14.03-.1.07.1v.03c0,.1-.1.14-.34.14-.03,0-.14-.03-.37-.07l-1.5-.17-.03-.07h.41ZM14.18,16.33c.03-.24.14-.44.34-.65.44-.37.78-.68.99-.92.24-.24.41-.37.55-.37.07,0,.24.07.54.24l-.34.17-.65.44-.24.14-.54.41c-.1.03-.17.07-.2.14l-.07.03c-.1.07-.2.2-.31.41l-.07-.03ZM15,14.15l.37.1c-.03.24-.17.48-.37.68v.14l-.75.71c.37-.44.61-.99.75-1.63M13.23,14.49c0-.38.17-.58.48-.58.54,0,.82.31.82.89,0,.27-.1.51-.31.75h-.07l.1-.54c-.1-.44-.27-.65-.51-.65l-.17.07-.17.24-.17-.17ZM11.73,13.81l.44.1.07.07.37.27.27.41.07.17v.58l.2-.03c0-.24.14-.41.44-.51l.07.2.07.1c.07.07.1.17.1.31l-.03.14-.1.17h.27l-.07.65-.14.41-.24.41-.51.68c-.17.31-.27.51-.34.68l-.14-.17-.48-.48c-.1-.17-.17-.27-.17-.31l.1-.2.14-.51.2-.54v-.24c0-.17-.03-.41-.1-.75l.03-.07-.03.03-.17-.34-.24-.31c-.37-.31-.71-.44-1.09-.44-.78,0-1.16.31-1.16.88,0,.34.17.51.48.51.1,0,.24-.07.34-.17l.41-.34c.17-.14.34-.2.51-.2s.31.07.48.24l-.24.24c.41.17.61.41.61.68,0,.24-.07.48-.27.68-.14.2-.34.31-.54.31-.1,0-.17,0-.2-.03l-.27-.51-.34-.14.14-.14.1-.03h.07l.07.07.31.34s.1.07.2.07c.27,0,.41-.14.41-.41v-.1c0-.44-.2-.65-.58-.65-.17,0-.48.1-.92.34-.14.07-.27.1-.38.1-.03,0-.17-.07-.34-.17-.24-.24-.37-.48-.37-.65,0-.34.17-.65.48-.92.31-.27.68-.41,1.09-.41.31,0,.58.1.82.31l.1-.07-.03-.07.03-.24ZM24.97,13.71c.07.1.1.2.1.24,0,.1-.2.2-.58.31-.38.07-.65.1-.78.1l-2.28-.27h-1.16l-.17-.2.37-.07c.07-.03.17-.03.31-.03h.24c.2,0,.34,0,.41.03l1.7.24c.07.03.17.03.27.03h.31c.44,0,.89-.14,1.26-.37M9.28,13.33h2.82l1.09.1.17-.03s.14,0,.31.03c.17.03.31.07.34.07l1.12.2c.31.03.51.1.58.14l.31.14.37.1.75.41-.37-.14-.24-.1c-.17-.07-.58-.17-1.29-.34l-.34-.07c-.65-.17-1.5-.24-2.55-.24h-2.86l-.71.07.03.78v3.54l.14,3.5.24,1.09-.17-.27c-.03-.1-.1-.17-.14-.27-.03-.07-.07-.14-.1-.24l-.14-.88-.07-1.46.03-1.43-.03-.78.03-1.02-.03-2.55.03-.24.68-.1ZM24.05,14.56h.1c.17,0,.27.14.34.37.1.31.31.48.54.48.37,0,.54-.24.54-.71,0-.31-.07-.58-.27-.82-.14-.27-.24-.41-.24-.44,0-.1.03-.17.14-.17h.03l.07.03s.1.1.2.31c.24.37.34.71.34,1.09,0,.68-.24,1.02-.75,1.02-.48,0-.82-.37-1.06-1.16M19.45,13.4c.54-.24.99-.37,1.36-.37.44,0,.92.17,1.36.48l.03.14-.44-.03c-.44-.24-.85-.37-1.19-.37-.17,0-.37.03-.58.14-.17.1-.27.14-.31.14-.07,0-.14-.03-.24-.1M24.01,12.86c.17.03.27.1.27.17l-.07.27c-.1.37-.17.54-.2.54l-.07-.03-.03-.03.03-.14v-.48l.07-.31ZM21.56,12.75v.1l-.27.03.27-.1v-.03ZM23.71,13.4v.1c0,.1-.07.14-.2.14-.58-.03-.88-.24-.88-.58,0-.44.37-.68,1.12-.68.65,0,.95.1.95.31v.03l-.07.17c-.58-.17-.85-.27-.78-.27-.58,0-.85.14-.85.37,0,.27.24.41.71.41M2.18,13.88c-.14-.24-.2-.44-.2-.68,0-.58.2-.88.65-.88.37,0,.54.17.54.54,0,.1-.1.17-.31.27.1-.1.14-.17.14-.27,0-.14-.07-.2-.24-.2-.31,0-.48.24-.48.71,0,.95.61,1.7,1.87,2.25v.07c-.51-.17-1.02-.54-1.5-1.09l-.2-.2-.27-.51ZM21.12,12.28l-.24.31c-.1.03-.17.03-.2.07l-.17.07c-.68.34-1.09.51-1.22.51l-.27-.17.17-.07.17-.07c.65-.24.99-.34,1.02-.37.17-.1.37-.17.54-.17l.03-.1h.17ZM25,12.11c.24.07.34.2.34.44,0,.48-.31.78-.88.88,0-.17.1-.31.31-.37.17-.1.27-.24.27-.44,0-.07-.07-.17-.17-.27l.14-.24ZM24.35,12.21c.27-.58.61-.85,1.02-.85.48,0,.71.27.71.82,0,.51-.14.88-.44,1.19l-.17-.31.24-.24.03-.17.1-.37v-.07c0-.37-.14-.54-.44-.54-.34,0-.61.2-.85.65l-.2-.1ZM22.96,11.22c-.1.27-.24.44-.37.51l-.68.41c-.2.14-.34.2-.41.2-.03,0-.14-.07-.24-.17.17-.1.31-.17.41-.2l.58-.34c.17-.07.27-.1.31-.14l.17-.07c.03-.07.14-.1.24-.2M15.24,11.73l.1-.95.14.03c.14.03.2.31.2.75,0,.1-.14.14-.44.17M11.84,11.84l.14-.37.07-.51.24-.34.03.17-.17.51h.07l.1-.1c.03-.31.07-.44.17-.44.07,0,.1.03.1.14,0,.48-.24.78-.75.95M1.16,10.48c.24.03.38.14.38.24s0,.2-.03.24c-.07.34-.1.58-.1.75,0,.85.24,1.7.68,2.55.48.82,1.02,1.33,1.6,1.5.37.1.54.17.54.24l-.17.27c-.14-.03-.24-.07-.24-.1l-.27-.17-.61-.37c-.1-.03-.24-.1-.34-.24-.1-.07-.24-.2-.34-.31l-.27-.34c-.44-.71-.72-1.39-.82-2.07-.03-.17-.03-.34-.07-.48-.03-.17-.03-.27-.07-.37v-.51c.03-.14.03-.31.07-.48l.07-.34ZM2.24,10.51l.31-.17h.14s.03.03.17.07c.2.17.31.34.31.51,0,.31-.1.48-.31.48l-.14-.07c.14-.03.17-.1.14-.24v-.07l-.41-.2-.31.24-.2.14v.17l-.14.51v.27l.03.68-.07-.07-.1-.71-.03-.44.07-.27c.1-.31.27-.58.54-.82M9.86,10.07l.03.31-.2.85v.1c0,.31.07.48.24.48.1,0,.2-.03.34-.1-.03.24-.17.34-.41.34-.27,0-.41-.14-.41-.44,0-.1,0-.2.03-.24l.27-.92.1-.37ZM25.07,10.48v-.1s.1-.1.31-.2c.14-.1.27-.14.34-.14.2,0,.31.07.31.2l.03.41-.37-.1-.17.03-2.62,1.77-.31.1-.58.27-.37.1.41-.24.61-.27c.37-.17.85-.48,1.43-.99l.72-.65.27-.2ZM20.88,10.03c0-.1.03-.17.14-.17l.03.03.1.2.27.37c.1.17.17.34.17.51,0,.54-.31.95-.89,1.23l-.58.27c-.71.31-1.12.48-1.26.48h-.03c-.07,0-.14-.03-.24-.1l.34-.17,1.02-.37c.61-.24.95-.65.99-1.19l-.2-.24c-.1-.03-.17-.03-.2-.07h-.17c-.27,0-.41.14-.41.37,0,.07.1.21.27.38-.37-.03-.58-.17-.58-.41,0-.61.27-.92.78-.92l.17.03c.07,0,.17,0,.27.03l.07-.07-.07-.2ZM1.19,9.63l.31.37.14.07.44.07c-.17.17-.31.27-.37.27-.38,0-.58-.17-.58-.48,0,.03.03-.07.07-.31M3.78,9.35c.51.1.75.34.75.71,0,.1-.07.27-.24.51l.07.14c.1-.03.17-.1.24-.17.07-.1.14-.17.24-.27l.17.37-.14.65.14.55.14-.03c-.07-.17-.1-.27-.1-.37s.03-.2.14-.38l.17.1.14-.03c-.03-.24-.07-.34-.07-.31v-.07c.03-.1.1-.2.14-.34l.14-.24c.31.03.44.2.44.54,0,.1-.03.2-.1.34s-.1.2-.1.24l.1.1c.07,0,.14-.07.2-.17.03.03.03.1.03.2,0,.07-.03.17-.1.31.07.24.1.44.1.54v.27c-.24,0-.44-.14-.58-.41v-.1c0-.1-.03-.14-.07-.14-.1,0-.14.03-.14.14,0,.14.07.27.24.41.14.17.27.24.41.24h.14v.2h-.31c-.34,0-.68-.14-.99-.37l-.1.1.34.31.37.1h.68v.41l-.82.2-.03.1.37-.03.44-.1s.03.1.03.2-.07.17-.17.2l-.24.07-.44.1-1.63.1c-.17.03-.37.2-.54.48-.1-.17-.14-.27-.14-.37,0-.21.2-.41.58-.58l-.07-.14-.41-.27c.31-.14.51-.2.65-.2-.03,0,.03,0,.2.07.17,0,.41.07.72.1.17.07.31.1.48.1.1,0,.17-.03.17-.14,0,.03-.03-.03-.07-.17h-.37l-.27.03h-.03c-.68.03-1.19-.27-1.5-.85l-.03-.34c.17.1.27.14.37.14-.17-.44-.24-.65-.24-.58,0,.03.07-.17.24-.68.03-.1.07-.17.1-.2l.03-.14c.14-.31.2-.54.2-.71l-.03-.17c0-.1,0-.2-.03-.31M15.27,9.42l.1-.14.1-.03c.31,0,.61.2.85.61.03.1.07.2.17.31-.58-.03-.95-.24-1.12-.61.1.03.2.07.31.17.1.1.17.14.2.14l.1-.1-.07-.03s-.14-.07-.34-.2l-.31-.1ZM13.54,9.39l.03-.1.24.14c.1.03.17.17.24.44l.1.27.14.31-.51-.41-.2-.37s-.03-.07-.03-.17v-.1ZM14.66,9.05c.51.44.75.92.75,1.46-.17-.03-.27-.07-.31-.17l-.14.07c.1.17.14.37.14.61,0,.44-.1.68-.27.68l-.07-.14c-.07-.03-.1-.1-.14-.2l-.24-.17-.61-.17-.24-.31-.14-.03c0,.24-.1.48-.27.65-.38-.58-.55-.95-.55-1.19v-.2c.03-.07.03-.17.07-.27.1.1.17.24.2.37.07.14.14.27.17.44h.14c-.07-.14-.1-.24-.1-.27s.07-.14.17-.24l.48.58-.27-.58v-.2l.31.44c.24.34.48.51.78.51l.07-.07-.03-.07-.2-.27c-.03-.17-.1-.31-.14-.44l-.14-.41s.14.03.24.03c-.03,0,.07-.03.31-.07l.03-.37ZM11.12,9.56c.24-.34.44-.54.65-.65l.03.41-.68.37v-.14ZM20.37,9.56c.03-.14.07-.2.14-.24h.07c.1,0,.2,0,.27-.03.1,0,.31-.07.51-.17.27-.14.48-.2.65-.2.44,0,.68.14.68.37,0,.1-.1.14-.31.17v.1c.31.03.44.2.44.58,0,.44-.2.68-.65.68-.37,0-.54-.14-.54-.41,0-.03.07-.14.17-.31.1.17.2.27.31.27.24,0,.34-.14.34-.41,0-.37-.31-.54-.95-.54-.17,0-.27,0-.34.03l-.34.07-.44.03ZM12.55,8.71l-.07.1.1.14.1-.14h.1l.14.27v-.41c.03.1.1.17.14.24l.1.31.17-.03-.17-.48c.17.17.24.34.24.54,0,.24-.14.48-.37.71l-.14-.27c-.17-.14-.34-.2-.48-.2s-.24,0-.31.03v-.1s-.03-.14-.03-.31.07-.34.24-.51c-.03.03-.03.07-.03.17l.03.1.24-.17ZM17.01,8.64l.17-.07.24.34.14.27c.03.17.07.31.07.34,0,.44-.17.68-.51.68-.1,0-.24-.1-.37-.31.27-.03.44-.2.54-.51l-.27-.75ZM21.26,8.5c-.1.24-.37.44-.75.61l.1-.44.34-.17.24-.17.07.17ZM9.01,8.26c.37.03.54.14.54.31l-.2.58.27.2c.1.03.1.1.07.24v.41c-.03.07-.03.17-.03.31,0,.1,0,.14-.03.17l-.2.68v.2c-.03.1-.1.17-.17.27l-.17.2.03-1.05c.17-.37.24-.71.24-.95s-.07-.58-.2-1.05c-.03-.03-.03-.1-.07-.2-.03-.1-.03-.2-.07-.31M17.69,8.23c.17.03.27.14.31.27l-.07.27-.27-.17c-.1-.07-.17-.14-.17-.17,0-.07.07-.14.2-.2M13.06,8.23l.07-.03c.1,0,.17.07.17.17s-.03.14-.1.14c-.17,0-.2-.07-.17-.17l.03-.1ZM9.66,8.81c.31-.31.55-.48.68-.51l.61-.2h.27l-.75.37v.14h.14l.27-.2.1.2-.41.31.14.07s.1-.03.2-.14c.1-.1.14-.14.17-.14l.14.03-.41.34-.03.03.03.03.07.07.44-.34-.24.51-.24.41-.1.34.17.03c.17-.31.44-.51.82-.61-.17.1-.24.2-.24.34,0,.03.03.07.14.07l.24-.34s.03.1.03.2c0,.07-.03.17-.14.34l.14.03.14-.27.14-.48v.37l-.14.41h.14c.1-.1.14-.2.14-.34l-.03-.14h.1l-.03.34c-.1.54-.48.92-1.19,1.12l-.03-.27.14-.44h-.17s-.1.1-.24.31c-.14.24-.31.34-.54.34s-.38,0-.44-.03l.17-.68v-.51c-.04-.1-.04-.2-.04-.27l-.03-.17c0-.07.07-.2.17-.37l-.14-.07c-.1.1-.17.14-.24.14l-.27-.07.17-.31ZM13.88,8.3c.07-.17.24-.27.51-.27.24,0,.44.2.65.61l-.44.2-.14.44-.48-.03c-.31-.27-.48-.51-.48-.68,0-.07.03-.1.14-.1l.07.03c.1.03.2.03.27.07h.14l.1-.07-.03-.07-.17-.07-.14-.07ZM13.57,8.03c.1,0,.14.03.14.07,0,.1-.03.14-.1.14-.1,0-.14-.03-.14-.1l.1-.1ZM12.58,7.99h.03c.14,0,.2.07.2.17s-.07.17-.17.17-.17-.07-.17-.17l.1-.17ZM8.57,8.03c.17.1.24.24.24.44v3.67l-.2.03v-.51l-.03-.31v-3.33ZM10.51,7.96c-.44.24-.78.34-1.06.34-.17,0-.27-.03-.27-.14l.03-.07c.1-.2.27-.31.54-.31l.27.07-.38.24h.14l.34-.14h.37ZM13.1,7.75h.03c.1-.03.17,0,.17.14,0,.1-.03.14-.14.14s-.17-.07-.17-.2l.1-.07ZM14.93,7.96v-.07c.03-.14.07-.2.14-.2.41.07.71.14.92.2-.17.07-.31.1-.41.1h-.24c-.17,0-.31,0-.41-.03M13.44,7.58h.1l.07.14-.1.14c-.07,0-.1-.03-.1-.14l.03-.14ZM12.45,7.72l.1-.27h.14c.1,0,.14.07.14.17s-.07.17-.17.17l-.2-.07ZM13.27,7.45l-.03.14-.24-.14.07-.1c.14,0,.2.03.2.1M11.33,7.65l-.03-.1-.03-.03c0-.17.24-.27.71-.27.1,0,.24.03.34.1-.07.1-.2.17-.41.2l-.07.14.54-.1-.58.27.1.07c.17,0,.27.03.31.07,0,.14-.1.2-.34.24l-.03.1.34-.07c-.17.17-.37.27-.61.27-.27,0-.41-.07-.41-.17l.2-.41-.03-.31ZM3.67,7.31c.65-.34,1.16-.51,1.56-.51.71,0,1.05.27,1.05.78s-.2.75-.65.75c-.24,0-.34-.07-.37-.24.03.03.17.03.34.03.24,0,.37-.14.37-.41,0-.17-.1-.34-.34-.51s-.48-.24-.75-.24c-.03,0-.17.03-.34.07l-.61.24-.34.14.07-.1ZM14.18,6.53l.2.54.54.07c0,.44-.24.65-.68.65l-.14-.03.27-.24-.1-.03c-.1,0-.2.07-.31.24h-.07l.27-.48h-.14l-.24.27-.07-.07v-.07l.24-.27-.07-.1c-.1,0-.2.1-.24.27l-.03-.1c0-.34.17-.54.54-.65M15.61,6.53l.1-.07.17.03h.17l.27.07h.1l-.2.41.34-.03h.14c.1.03.24.14.34.34l.24.24.51.14c-.27.51-.61.78-1.02.78-.1,0-.2-.03-.37-.1l-.03.14c.17.1.27.24.27.34l-.07.14c-.31.17-.58.24-.88.24-.24,0-.54-.07-.85-.24v-.1c.24-.03.37-.1.37-.17l-.07-.27-.17-.24h.31c.24.03.61-.1,1.09-.34l-.03-.1c-.44-.03-.75-.1-.92-.17h-.17l-.03-.1-.2.1.1-.37s-.03-.03-.03-.14h-.41v-.07c.24-.17.58-.34.95-.44M10.85,6.33c.65.03.95.1.92.24v.17l.07.24-.68-.44c-.17-.07-.27-.17-.31-.2M3.23,7.24c0-.27.14-.44.44-.54l.41-.17.48-.24c.34-.1.71-.17,1.12-.17,1.43,0,2.59.54,3.47,1.63v.14c0,.07-.07.17-.24.31l-.14-.2-.14-.2-.34-.34-.27-.24c-.58-.48-1.4-.71-2.38-.71-.41,0-.82.1-1.26.27l-.82.48-.34.14v-.14ZM12.86,5.85l.1.03.27.07.2.24.14.27-.03.27-.03.1-.1-.31-.14-.03.03.61-.07.03c-.03-.17-.07-.31-.1-.41l-.03-.1h-.14l.14.48-.07.1c-.1,0-.24-.14-.38-.41l.03.37c-.48-.14-.71-.37-.71-.68,0-.17.03-.31.14-.41.14.07.24.1.34.1.07,0,.14-.03.24-.14l.17-.2ZM3.16,5.71l.14-.07.1-.03c.2,0,.31.1.31.34,0,.17-.03.31-.1.37l-.31.31-.03.1-.1-.14s.07-.17.24-.41l.03-.03v-.14s-.1-.14-.27-.31M15.24,6.22c.1-.31.24-.48.44-.58.2-.07.41-.14.58-.17l.07-.03c-.1.51-.44.85-1.02,1.02.1-.24.27-.44.51-.54l-.03-.1c-.24.1-.41.24-.54.41M14.01,5.34v.27c.03.17-.07.44-.24.82-.07-.17-.1-.27-.1-.37,0-.03.1-.27.34-.72M5.75,5.34l.1-.03.07-.03c.17,0,.24.07.24.24,0,.24-.17.38-.51.38h-.2c.24-.1.34-.2.34-.34,0-.1,0-.17-.03-.2M22.04,5.78v-.14c-.03-.37.03-.58.2-.58l.14.07.07.34.34,1.05s.03.1.03.27c0,.24-.03.51-.14.75l-.07-.07-.1-.71h-.14c.07.27.1.51.1.71,0,.41-.14.71-.41.95.14-.37.2-.61.2-.78v-.14l-.1-.48c-.03-.24-.07-.34-.14-.34l-.14.03c.14.41.2.71.2.95,0,.65-.17.99-.51,1.09.17-.24.24-.51.24-.82,0-.14,0-.2-.03-.24l-.14-.07.07.51v.03c.03.38-.27.72-.95.95.41-.34.61-.61.61-.85,0-.17-.07-.31-.24-.48l-.14-.24-.03-.14-.03-.2-.03-.14c0-.1.17-.17.51-.2h-.27l.37.1v-.2c-.61-.17-.92-.51-.92-1.09,0-.38.07-.55.24-.55l.24.14.55.17.27.31h.14ZM10.82,4.73l.17.07.51.03c.31.03.61.41.85,1.19l-.27-.17-.2-.27h-.17v.1c.17.14.27.24.27.34l-.1.1c-.1-.03-.17-.1-.27-.24l-.14-.03-.07.1.34.2.03.17c-.27-.1-.48-.14-.65-.14l-.54.03-.37-.03-.07.03,1.46.75v.07c-.07,0-.17-.03-.37-.07-.14-.03-.27-.07-.37-.07h-.14l.58.2c-.1.1-.17.17-.2.17l-.2-.03h-.34l-.03.07.07.1s.14-.03.27-.03c.1,0,.17.07.24.2-.1.03-.2.03-.34.03l-.24.03h-.24c-.14,0-.24,0-.34-.03l.03-.1-.2.03-.07-.03-.24-.17c-.14-.1-.17-.17-.17-.2,0-.1.17-.17.54-.2v-.1c-.24-.1-.37-.24-.48-.34l-.14-.2c-.03-.1-.03-.2-.03-.27l-.03-.17c0-.1.03-.31.1-.55l.31.07.44-.17c.17-.03.27-.07.31-.07.07,0,.14,0,.24.03.1,0,.2,0,.31.03l-.03-.24-.03-.07.03-.17ZM1.57,4.63c.78.1,1.16.54,1.16,1.33,0,.27-.03.44-.1.54-.14.17-.2.31-.2.41,0,.07.03.1.14.1l.07-.03.24-.34.1.27s.03.1.03.24c0,.61-.41,1.22-1.22,1.84l-.03.07c0,.24.1.34.27.34.1,0,.17-.07.24-.2l.2-.37.14-.34.24-.34.2-.2.24-.2.54-.07.17-.03.1.1c0,.1-.03.17-.14.27.07-.03.17-.03.27-.03h.17c.17,0,.37.1.61.31.17.14.24.31.24.48,0,.37-.14.54-.41.54h-.03l-.27-.07.27-.31.03-.03c0-.27-.17-.41-.51-.41-.51,0-1.12.48-1.84,1.39-.17.1-.37.14-.54.14-.51,0-.78-.41-.82-1.22,0-.17,0-.27.03-.31.03-.31.14-.58.31-.85l.27-.41c.2-.31.34-.61.41-.99v-.24c.03-.17-.07-.38-.24-.68-.17-.1-.27-.14-.37-.14-.24,0-.34.14-.34.41l.03.1.38.27c.1.07.17.14.2.17v.07c0,.1-.03.24-.14.41l-.14-.31-.44-.48c-.07-.07-.1-.2-.1-.44s.2-.51.58-.75M5.51,4.46l.17.2v.1s-.31.34-.88,1.12l-.14.14-.14.1-.2.07.92-1.06.14-.34.14-.34ZM4.42,4.66c.03-.24.1-.34.24-.34.31,0,.44.17.44.54,0,.17-.07.34-.2.51l-.37.38-.27.31-.2.14-.27.24c0-.1.07-.2.17-.31.1-.07.31-.27.61-.65.2-.24.31-.41.34-.58v-.03c0-.14-.14-.2-.41-.2h-.07ZM12.52,5.99c-.03-.24-.07-.34-.07-.31,0-.17,0-.31.03-.38.1-.31.24-.48.34-.48l.31.24.1-.37.03-.03.07-.1.54-.17.51-.24.2.03c.17.03.24.2.24.54,0,.1-.03.31-.14.61l.14.03c.1-.2.2-.31.37-.31.07,0,.1.07.1.17,0,.72-.27,1.23-.85,1.6l-.03-.44-.1-.14.1-.2c.07-.14.1-.2.1-.27,0-.1-.03-.14-.1-.14l-.03.03-.07.03-.07.34-.2.27.24-1.43h-.14c-.07.07-.14.17-.24.34l-.27.48-.1.24-.14-.07.17-.34v-.03l-.1-.1-.07.03-.17.34-.1-.03.03-.31c-.1,0-.17.1-.2.27l-.2-.03c.07-.1.1-.17.1-.24l-.1-.1s-.1.2-.24.65M18.74,4.01c.58.37.95.75,1.12,1.19l.44,1.02c.03.14.07.24.1.37.03.07.03.17.07.27v.41c0,.48-.07.95-.14,1.43-.14.48-.27.92-.48,1.36-.2.41-.44.78-.71,1.09-.27.34-.58.58-.89.75l-.99.51-.17.17-.2-.1.07-.17.34-.14.54-.37.27-.14.31-.24c.14-.1.2-.17.27-.2l.41-.48c.71-1.05,1.05-2.18,1.05-3.43,0-.37-.07-.82-.2-1.33-.1-.38-.2-.61-.31-.75l-.34-.51-.58-.71ZM11.84,3.95c.44.27.65.54.61.78v.27l-.37-.51-.03.03.31.82c-.14-.1-.27-.2-.37-.34l-.17-.24-.03-.44.07-.37ZM17.69,3.4l.44.27c1.26.82,1.91,2.04,1.91,3.67,0,1.16-.24,2.11-.68,2.82-.44.71-1.29,1.43-2.52,2.11l-.07.07v.1c0,.07.07.17.17.27.31,0,.54.03.75.1.34.1.61.17.82.27.41.17.75.37.99.61.1.07.17.14.2.17l.1.1c.2.17.34.24.34.31.07,0,.1.1.14.2-.2-.03-.41-.03-.54-.07h-.48c-.2,0-.48.03-.85.14-.37.07-.61.1-.75.1h-.07s-.24-.17-.61-.41c-1.02-.68-2.82-1.02-5.41-1.05h-3.16v7.14l.14,1.19c.07.54.31.95.71,1.26.24.1.48.17.71.2.24.07.44.1.68.14l.2.92-3.4-.14h-.14c-.31-.03-.78,0-1.36.1l-1.12.17h-.24c-.44.03-.65-.07-.65-.31l.03-.1,1.29-.54c.17-.07.37-.27.61-.61.03-.1.14-.27.24-.44.1-.17.17-.37.2-.61l.17-1.22.03-10.03v-.51l-.03-.41.03-1.6v-1.05c.1,0,.24.07.34.17l.31.1c.1.03.17.03.2.07l.27.1.34.24c.31.2.44.48.44.78,0,.14,0,.34-.03.61-.03.27-.03.48-.03.58s0,.2.03.27v.34l.03,2.31h4.73c.24,0,.85-.07,1.77-.2l.44-.07c.17-.03.34-.1.48-.17l.37-.17.27-.2.24-.17.31-.27c.78-.85,1.19-1.87,1.19-3.03,0-.37-.1-.85-.27-1.39l-.54-.92-.31-.41.1-.68c.07-.24.14-.48.24-.71l.24-.51ZM16.05,4.56c-1.26-.71-2.89-1.09-4.86-1.09-.17,0-.75.1-1.73.31h-.24l-.07.14-.14.1-.03.2-.1.2-.14,2.69-.2-.31-.03-.14.1-1.77.07-.2.14-.85.07-.14c.58-.31,1.33-.44,2.28-.44,1.94,0,3.57.41,4.9,1.19v.1ZM17.18,3.78l.41-.68-.37.85c-.2.41-.31.85-.31,1.36,0,.24.2.61.58,1.05-.07.17-.14.24-.2.24-.1,0-.2-.07-.24-.17l-.14-.27-.07-.03s-.07-.14-.07-.24v-.34c0-.17,0-.31.03-.37l.1-.71.14-.34.14-.34ZM3.5,2.93c1.26.14,2.11.68,2.48,1.63-.65-.65-1.5-1.19-2.48-1.63M5.31,3.37l-.31-.14-.34-.2-.38-.14-1.19-.2-.07-.07v-.07c0-.17.1-.24.34-.24l3.37.17,3.95-.07,3.81.1h-.07c.31.03.68.07,1.05.17.38.1.78.2,1.23.38l-.58,1.29c-1.43-.82-3.03-1.22-4.83-1.22-.85,0-1.43.03-1.73.1-.65.17-1.02.54-1.05,1.12l-.07.68-.07,1.74-.24-.17c-.65-.31-1.09-.48-1.33-.51l-.34-.07.03-.51-.1-.34-.07-.31c-.07-.31-.17-.54-.34-.71l-.1-.2-.58-.58ZM16.56,2.38v.07c0,.1-.07.17-.24.17s-.24-.07-.24-.24c0-.1.07-.14.17-.14l.31.14ZM22.48,2.31l-.03-.14-.03-.07c0-.07.14-.1.37-.1.71,0,1.09.24,1.19.75l-.07.07c.17.1.31.24.34.44.17.03.31.14.41.24-.1.03-.14.07-.17.1.1.07.17.14.27.2.07.07.14.14.24.17l-.07.1.27.37c.27.31.41.78.41,1.4,0,.17,0,.27-.03.34l-.17-.51-.31-.78-.2-.34-.07-.1c-.58-.71-1.16-1.05-1.77-1.05-.71,0-1.05.24-1.05.75,0,.14.14.31.37.48-.03.14-.17.2-.37.2-.34,0-.58-.2-.75-.65v-.17c0-.07.03-.17.1-.31l.27-.31v.03-.1s-.14.03-.27.03c-.1,0-.2-.03-.31-.14l.17-.24.14-.07.17-.24.27-.14s.14-.03.31-.03h.24c.1.03.2.03.31.07l-.03-.14-.14-.14ZM18.43,2.31l.2-.2.24-.1-.48.68.03.51-.27-.03-.03-.07v-.31c-.03-.17.07-.31.31-.48M15.17,1.9c.17,0,.24.07.27.24,0,.14-.07.2-.24.2s-.24-.07-.24-.24c.03-.14.1-.2.2-.2M15.85,1.77c.14,0,.2.07.2.17,0,.17-.07.27-.24.27-.14,0-.2-.07-.2-.2,0-.17.07-.24.24-.24M17.89,1.77l-.34.24-.44.07-.1.07-.27-.03-.31-.07s-.07-.1-.1-.27l.27.07c.07.03.17.03.31.03h.31c.17,0,.41-.03.68-.1M9.66,1.77c.14,0,.2.03.2.14,0,.14-.07.2-.17.2-.14,0-.2-.07-.2-.17l.03-.07.14-.1ZM10.17,1.7l.17.17v.07c0,.1-.03.14-.14.14s-.17-.07-.17-.17c0-.07.03-.14.14-.2M10.65,1.63l.14.1.03.03c0,.1-.03.14-.14.14s-.17-.03-.17-.14c0-.07.03-.1.14-.14M20.95,1.46l.31.03.89.1c.44.07.65.17.65.27l-.31.03-.68-.14c-.17-.03-.34-.07-.44-.07-.51,0-.95.14-1.33.44-.24.17-.37.37-.37.61,0,.51.24.75.68.72h.14c.17-.14.27-.2.31-.24.03.1.03.2.03.27l.03.14c0,.17-.07.27-.17.31l-.41.03.14.27c-.17.1-.34.14-.51.14-.34,0-.61-.2-.78-.58l-.1.03c.03-.17.07-.34.1-.44.03-.14.03-.24.07-.27l.03-.1.07-.14h-.41l.14-.41.14-.2.03-.14.1-.03.07-.17,1.6-.48ZM2.76,2.65c-.1.14-.2.2-.31.2-.17,0-.27-.14-.27-.38,0-.71.54-1.09,1.67-1.09.44,0,.82.2,1.12.58l-.03.03-.34-.24c-.17-.17-.41-.24-.78-.24-.54,0-.95.2-1.22.61l-.1.2c0,.1.1.2.27.31M15.37,1.33h.03c.17-.03.24.03.24.2,0,.14-.07.2-.2.2s-.2-.07-.2-.24c0-.1.03-.17.14-.17M16.56,1.46v-.17c0-.1.07-.17.2-.17.1,0,.2.1.31.27-.1.17-.17.24-.24.24l-.27-.17ZM1.22,1.16l.1.37c.17.03.27.07.24.07.1,0,.27-.07.48-.2l.03.07s-.07.07-.2.1c-.03,0-.07.03-.17.14-.07.07-.14.1-.24.1-.31,0-.44-.1-.44-.27,0-.1.07-.24.2-.37M23.98,1.22c0,.17.07.37.17.68l-.37-.34-.03-.34.24-.1v.1ZM16.02,1.09c.2,0,.31.07.31.24s-.1.27-.31.27-.31-.1-.31-.34c0-.17.1-.2.27-.17h.03ZM3.27,1.05h.61c.78-.03,1.33.34,1.63,1.05l-.14.03c-.07,0-.14-.07-.17-.17-.31-.51-.78-.75-1.46-.75-.54,0-1.02.2-1.46.54-.44.41-.65.82-.65,1.29s.2.71.58.71h.1l1.12-.34.14-.03c.44,0,.68.24.68.71,0,.31-.1.61-.34.85-.24.24-.48.37-.75.37-.2,0-.31-.03-.34-.14l-.27-.68-.34-.17.44-.17c.1,0,.14.03.14.1l.17.65c.03.1.14.17.27.17.2,0,.41-.1.58-.34.2-.2.31-.41.31-.61,0-.31-.2-.48-.61-.48h-.1l-.92.27c-.17.03-.27.07-.31.07-.58,0-.85-.27-.85-.82,0-.48.21-.92.58-1.36.37-.41.85-.68,1.36-.78M20.41,1.09l.54-.07h.2c.44-.03.89.03,1.26.2l1.12.41c.1.03.17.1.27.14l.17.17-.14.31-.58-.34-.37-.17c-.51-.24-1.05-.34-1.56-.34l-.37-.03h-.24c-1.05-.03-1.97.41-2.82,1.26-.85.85-1.26,1.84-1.26,2.96,0,.38.1.82.31,1.4l-.37-.2.03-.31c-.31-.03-.44-.1-.44-.27,0-.1.1-.27.27-.51l.1-.41-.37.1c.03-.58.2-1.22.51-1.9.34-.68.71-1.16,1.09-1.4l.27-.17.58-.37,1.8-.44ZM8.4,1.02l.2-.03c.17,0,.31.07.48.24h.14l.07-.07.2.17.31-.03v.07c-.03.17-.14.27-.27.27h-.07l-.31-.14v.17l.1.2v.03c0,.17-.07.27-.24.27-.1,0-.14,0-.17-.03.1-.17.17-.27.17-.31l-.03-.07-.1-.17.07-.24c-.14-.14-.27-.2-.37-.2-.17,0-.24.03-.27.14l-.61.78c-.07.1-.17.14-.34.14-.31,0-.48-.14-.48-.44l.07-.27-.03-.14c-.17-.1-.31-.17-.34-.17-.37,0-.61.31-.71.95h-.17v-.2c-.03-.58.27-.88.95-.88.37,0,.58.07.58.24v.58c0,.07.07.1.2.1h.03c.1,0,.2-.03.27-.14l.41-.68.27-.14ZM13.74,1.73c-.1-.34-.17-.51-.17-.48,0-.14.14-.2.44-.24l.48.03.37.17.14.17s.03.14.03.24l-.07.1c-.1,0-.2-.1-.27-.34-.24-.17-.37-.24-.48-.24-.2,0-.27.1-.24.31l.07.48-.03.07c-.03.17-.17.24-.44.2l-.82-.07c-.41-.03-.65-.24-.68-.61.03-.2.1-.31.24-.31.17,0,.31.14.41.37.17.07.27.1.34.1.03,0,.14-.1.24-.27l.1.14c0,.24-.14.34-.41.34-.1,0-.27-.03-.48-.1.03.17.31.27.78.27.27,0,.41-.1.44-.34M24.45,1.36c.14-.27.37-.41.68-.41s.54.14.78.44h.1l-.14.03c.1.03.14.07.14.17v.03l-.1.27h.14l-.1.03-.1.27-.14.24-.03.03v.07s.07.14.2.31l-.03.1-.41-.1-.07-.14-.07-.17s-.03-.14-.03-.24c0,.03.03-.07.07-.24v-.07c.24-.14.34-.31.34-.48v-.03l-.48.07c-.1.17-.17.31-.17.37,0,.03.03.17.07.34.1.37.27.89.51,1.46.31.65.44,1.63.44,2.93,0,.88-.14,1.63-.44,2.24l.03-.14v-.1c0-.1-.03-.14-.1-.14s-.1.07-.1.24c0,.14,0,.24.03.31l.03.07-.17.41-.1.31-.2.31.2-.61.1-.68-.03-.72-.14-.48c-.07-.24-.14-.37-.24-.37l-.1.1s.07.17.2.41c.1.24.17.48.14.71l-.03.55-.03.54-.34.71c-.1.31-.31.54-.61.78.03-.17.07-.27.07-.24l-.07-.07-.03.03-.1.14c0,.07-.07.17-.17.27l-.1.1-.14.14c.31-.58.48-1.02.48-1.26,0-.07-.07-.1-.17-.1l-.03.07c-.1.92-.44,1.5-.95,1.8l.54-.85h-.1s-.1.07-.17.27c-.1.14-.17.27-.24.31l-.54.48-.2.17-.1.07-.31.07-.78.37h-.44l.2-.14,1.6-.71c.17-.07.34-.24.54-.48.2-.24.31-.48.31-.65,0-.03-.07-.34-.17-.92-.07-.24-.1-.51-.1-.85l.1-.03.34.14h-.07l.14.03.03-.17c-.17-.1-.27-.2-.37-.37l-.1-.24.07-.58.27.17.34.03c.1.03.24.2.37.51l.1-.03v-.38c.2.2.38.48.51.85l-.1.07.03.1c0,.24-.07.44-.14.54-.14.14-.17.24-.2.31,0-.07.03,0,.07.17l.24-.17c.14-.44.2-.71.2-.85,0-.58-.17-1.02-.51-1.36-.34-.27-.68-.54-.99-.71-.14-.1-.24-.37-.27-.75l.37.03v-.14c-.44-.24-.71-.68-.82-1.29.07-.24.17-.41.31-.51l.34.37.58.14.2.37h.2l-.1-.41.03-.07.34.2.24.1c.24.1.44.41.65.92.1.31.17.58.17.88l-.03.14-.07.24v.1l.1.14c.1,0,.17-.1.2-.27l-.03-.34.1-1.02-.07-.24-.1-.75-.14-.37-.1-.27-.14-.17-.17-.27-.41-.61-.31-.41-.17-.14-.2-.34v-.27h.07l-.07-.03.27.07c.1,0,.14-.03.14-.1v-.07l-.1-.2.07-.31h-.03l.1-.17ZM.82,26.39h25.54V.85H.82v25.54ZM.41.41h26.39v26.39H.41V.41ZM0,27.21h27.21V0H0v27.21Z" fill="#231f20"/>
    </g>
  </g>
</svg>