<?xml version="1.0" encoding="UTF-8"?>
<svg id="Layer_1" xmlns="http://www.w3.org/2000/svg" width="27.21" height="27.21" viewBox="0 0 27.21 27.21">
  <path d="M9.45,14.15h.03v-.14s.03-.07.07-.24l3.4-7.18c-.17.03-.31.14-.41.31l-3.27,6.84s-.03.1-.03.2c0,.14.07.2.2.2ZM16.8,15.48h-7.72c-.27,0-.48.07-.65.2l.14.07.14-.07h8.6c-.14-.14-.31-.2-.51-.2ZM14.22,2.86l-.37-.14c.1.17.17.27.24.34,0,.07.1.24.2.51l8.27,17.96c.31.65.65,1.12,1.02,1.36l-.34-.58c-.1-.17-.24-.37-.34-.61L14.22,2.86ZM1.9,23.64l-.31.1c-.14.03-.21.1-.21.14,0,.1.17.17.54.17.14,0,.48-.03.99-.1.34-.03.65-.07.92-.07.27-.03.51-.03.72,0h.71l1.63.14c.24,0,.51-.07.82-.2-.1-.03-.2-.1-.34-.14s-.31-.07-.54-.1c-1.05-.07-1.56-.48-1.56-1.26,0-.51.48-1.63,1.39-3.37-.03-.1-.03-.2-.07-.27v-.14c0-.1.03-.2.14-.37l-.14-.03-.17.03-.03.03-.41-.17-1.46,3.23c-.34.75-.68,1.29-1.05,1.6-.34.31-.85.58-1.56.78ZM5.71,22.35c0-.24.07-.48.17-.78l1.05-2.28-.03-.2-.03-.1-.17.2-.85,1.77c-.27.58-.41,1.02-.41,1.33,0,.24.14.48.41.78-.1-.24-.14-.48-.14-.72ZM2.07,24.39h.41l.44-.07s.17-.03.34-.03h.31c.1,0,.24,0,.34-.03h1.02l1.05.1.75.03.37-.03.48-.07c.24-.03.34-.1.34-.24l-.1-.14c-.17.17-.48.24-.99.24h-.58l-.75-.07h-.75c-.2-.03-.41-.03-.54-.03h-.44c-.17,0-.31,0-.37.03l-1.09.1h-.34c-.07,0-.14,0-.27-.03-.07,0-.2,0-.38-.03.1.17.38.27.75.27ZM25.95,24.15l-.03-.14c-.31.14-.54.2-.71.2h-.27c-.1-.03-.27-.03-.44-.07-.07-.03-.38-.03-.89-.03l-1.94-.03h-.89c-.1,0-.27,0-.44.03-.24.03-.44.03-.61.03-.17.03-.34.03-.48.03-.31,0-.54-.03-.78-.1.1.2.27.31.55.31h.48c.1,0,.17,0,.27-.03,1.02-.07,1.7-.1,2.08-.1h.82c.17,0,.34,0,.58.03l1.26.07c.1.03.2.03.31.03h.48c.37,0,.61-.07.65-.2l.03-.03ZM13.03,3.16l-5.71,11.94.88.48c.24-.17.48-.27.71-.27h7.79c.44,0,.78.2.95.58l1.33,2.92.27-.07.41.03.37-.03.24-.03.1-.03c.14,0,.2.1.2.34s-.07.44-.2.65c.2.24.31.51.31.78s-.17.61-.51,1.02c.2.37.31.82.31,1.26s-.44.71-1.36.89l-.41.07c-.17.03-.27.1-.27.17,0,.1.1.14.34.14l.88.03h.34c.17-.03.34-.03.58-.07.31-.03.61-.03.85-.07h.61l.75.03,1.77.1h.58c.44.03.65-.03.65-.14,0-.17-.34-.27-1.02-.34-1.05-.1-1.87-.75-2.38-1.91L13.91,3.13c-.17-.34-.34-.51-.44-.51-.14,0-.27.17-.44.54ZM9.08,13.98l.07-.27,3.2-6.73c.17-.37.37-.58.58-.58.24,0,.51.24.75.68l2.96,6.6c.07.14.1.24.1.27,0,.27-.2.41-.58.41l-6.57-.03c-.34,0-.51-.1-.51-.34Z" fill="#a91e22"/>
</svg>