<?xml version="1.0" encoding="UTF-8"?>
<svg id="Layer_1" xmlns="http://www.w3.org/2000/svg" width="27.21" height="27.21" viewBox="0 0 27.21 27.21">
  <path d="M5.41,25.4l-.2-.14-.17.07-.2.03v.17l.24-.03c.17,0,.31-.03.34-.1ZM3.16,24.58h-.1l-.03.17v.07l.1.1.07-.03v-.31h-.03ZM3.5,24.14h-.1l-.1.24-.03.24v.03c0,.17.1.31.31.48h.14l-.07-.27-.03-.17c-.1-.1-.14-.17-.14-.27,0-.14,0-.24.03-.27ZM5.95,23.26l-.27.44-.44.31.03.03c.48-.07.75-.31.78-.71l-.1-.07ZM24.08,21.76c.1.17.14.37.14.54v.2c0,.1,0,.2-.03.27l.17-.03.03-.14v-.03s-.07-.2-.14-.68l-.03-.1-.14-.03ZM5.1,21.79c-.27-.1-.44-.17-.51-.17-.37,0-.61.14-.75.44l-.31.65-.37.34.24.27.31-.14.85-.07.2-.1.31-.24c.17-.14.24-.27.24-.41s-.03-.27-.14-.44l-.07-.14ZM4.8,21.05l-.17.1c.17,0,.34.07.51.2l.07-.07-.14-.03-.27-.2ZM25.27,19.41h-.1l-.24.14-.14.07-.03.03.1.1c.1,0,.24-.1.41-.34ZM9.59,19.45l-.17-.07h-.07c-.14,0-.24.07-.34.2l.54-.07.03-.07ZM12.35,16.8l-.03-.03-.1.07-.24.2-.17.44.1.03c.1-.31.24-.54.48-.65l-.03-.07ZM17.18,15.47l-.17.03-.03.03c0,.34.2.51.61.51.17,0,.27.03.31.07v.03l-.03-.14.27-.27c-.1.03-.2.03-.27.07h-.17c-.14,0-.31-.1-.51-.34ZM15.27,15.43l.31.2h.14v-.1l-.44-.1ZM8.37,14.72l.03.07.1.03.1-.1-.1-.07-.14.07ZM10.82,14.75l.1-.17-.03.1.17.03s.1.03.34.03l-.34.1-.24-.1ZM8.71,14.52v-.14l.2.1-.2.03ZM9.32,14.14l-.1.1-.14.1-.03-.07c0-.1,0-.14.03-.14h.24ZM11.33,14.24h-.1c-.07,0-.1.03-.1.14,0,.14.14.2.37.2l-.14-.17-.03-.17ZM11.53,13.36c-.07,0-.17.1-.34.31l-.07.03-.1.14-.07.1-.54.71-.14.31-.2.2-.07.07s.17-.34.54-.92c.17-.31.34-.51.41-.68l.17-.2.41-.07ZM11.46,12.92s-.03.03-.2.14c0,.03.1.07.31.1.03-.24,0-.34-.03-.31l-.07.07ZM11.53,12.44h-.1c-.1,0-.14.03-.14.14l.14.14.2-.07-.1-.2ZM18.2,12.2l-.07.03c0,.17.03.24.07.24s.07-.07.1-.17l-.1-.1ZM11.39,12.17l.14-.14.14.07-.03.14-.24-.07ZM18.09,11.76l.14.2.1-.2h-.24ZM18.23,11.49l.1-.03c0-.27-.07-.34-.2-.2-.03,0-.03.07-.03.2l.14.03ZM17.99,10.84v-.07l.1.03.07.03.1.1-.03.07-.03.07c-.1-.03-.17-.1-.2-.24ZM6.5,10.03l-.1.07-.2.03v-.14c.1-.1.14-.14.14-.1l.1-.03h.17l.1.07.1.07.07.24-.37-.2ZM6.46,9.65l-.27.03.31-.2c-.07,0-.03.03.1.07s.24.07.27.07l-.07.14-.34-.1ZM7.89,8.29l-.17.2s.03.07-.07.24v.24l.03.1c.1-.24.2-.44.27-.61.1-.17.17-.34.24-.44l-.31.27ZM11.26,7.88v.17h-.03l-.03.03c-.07,0-.1-.03-.07-.14l.14-.07ZM10.78,7.85v.31l.1-.2-.1-.1ZM7.07,7.88l-.07-.03-.03.07-.31.31-.1.2h.14l.27-.31.1-.24ZM10.58,7.92l-.34-.1.24.31-.07.1.2-.1v-.1l-.03-.1ZM10.85,7.37h.03l.17-.07c0-.1-.07-.14-.24-.14l-.27.03-.31.1-.58.1-.1.03-.2.14c-.03.07-.14.14-.31.2-.17.1-.24.17-.24.24v.07h.17l.31-.27.07-.03.31-.17.31-.1.34-.03.54-.1ZM11.94,6.9l-.27-.14-.03.14.17.1.17.27.03.03-.07-.41ZM10.54,6.73l.24.1-.24.1v-.2ZM9.73,6.69c.1.07.17.1.17.14l-.03.14h-.17c-.07-.17-.07-.24.03-.27ZM9.35,6.9l-.31-.24.07.1.07.14-.03-.03.03.07.07.07-.17.34s.1-.07.2-.14.17-.1.14-.14l-.03-.1-.03-.03.03.03-.03-.07ZM10.07,6.73v.1l.17.1c-.07,0-.07-.03.03-.14l-.07-.07h-.14ZM14.69,5.88c-.24-.1-.44-.14-.54-.14l-.51.14.51.07-.17.14.48.1v-.07c0-.07-.03-.1-.14-.1l-.03-.07.34.1.07-.17ZM15.99,4.96v.14l.14.1.68.99-.1-.07-.1-.58-.03-.03-.2-.27-.1-.1-.27-.17ZM22.18,4.58l-.03.2c.03.1.07.14.1.14.14,0,.2-.07.2-.17s-.1-.17-.27-.17ZM22.28,4.48l.1-.24-.27.03c0,.1,0,.17.03.2h.14ZM22.31,4.07l-.2-.2.2-.07.1.17c0,.07-.03.1-.14.1h.03ZM2.55,3.97l.54-.48-.61.37c-.41.03-.51.07-.34.1l.1.03.31-.03ZM3.98,3.56c-.03-.17-.1-.27-.2-.27l-.07.03-.07.1.07.07.17.14c.07.2.14.31.17.31v-.31l-.07-.07ZM4.12,3.26l.07.1-.07-.1.14.17v.24c.14-.03.2-.1.2-.27,0-.1-.07-.17-.2-.2l-.07.03-.07.03ZM4.49,3.19l.14-.03c0-.14-.03-.2-.14-.2-.03,0-.07.07-.07.17l.07.07ZM16.22,25.81h-.03c0-.17.1-.24.27-.24.24,0,.34.03.34.14,0,.24-.1.37-.31.37-.17,0-.27-.1-.27-.27ZM12.65,24.82l.24.24.51.51c.1.14.24.2.48.2.1,0,.17-.03.2-.1l.2-.44c.03-.1.1-.14.27-.14.2,0,.41.07.61.2.31.17.44.34.44.51l-.03.07c-.1,0-.2-.1-.37-.31l-.07-.07c-.1-.1-.2-.14-.37-.14-.24,0-.37.07-.41.17l-.14.34c-.03.1-.17.17-.37.17-.44,0-.82-.41-1.19-1.22ZM25.51,24.52c.1.51.17.78.17.88,0,.41-.24.58-.68.54h-.07l-.1-.24h.48l.07-.03.07-.07v-.78l.07-.31ZM1.5,24.52c.78.37,1.19.75,1.19,1.05,0,.37-.2.54-.58.54-.1,0-.17-.03-.2-.07l-.37-.41h-.37c.03-.24.1-.34.2-.34l.07.03h.03l.51.41.14.03c.17,0,.27-.1.27-.31,0-.14-.1-.27-.34-.41-.24-.17-.41-.34-.54-.54ZM9.76,24.79c.17-.07.27-.1.31-.14l.65-.2c.44-.1.71-.17.78-.17.61,0,.92.34.92,1.02,0,.58-.31.85-.92.85-.31,0-.54-.1-.78-.31-.31-.27-.51-.44-.58-.44-.1-.07-.2-.07-.31-.07h-.03c-.17,0-.27.17-.31.48l-.07.03c-.1-.1-.14-.2-.14-.31,0-.31.2-.44.65-.44.1,0,.24.03.34.1l.54.44c.17.14.34.2.58.2.41,0,.61-.24.61-.68s-.31-.65-.92-.65c-.07,0-.2.03-.37.07l-.61.17-.34.03ZM8.5,23.39h.17c-.58.37-1.12.58-1.7.68l1.53-.68ZM9.46,23.43l.2-.1.03.07c0,.07-.07.1-.24.14v-.1ZM10.27,23.05c-.03.1-.1.17-.2.17v-.1l.2-.07ZM8.43,22.92c.1.03.17.07.2.1l.17.07c.2,0,.34.03.37.1v.07l-.31-.07-.2-.1-.17-.03v-.03l-.07-.1ZM25.71,22.92c.03.07.03.2.03.37,0,.31-.27.75-.78,1.26l-.68.68c-.58.54-1.56.82-2.93.82-.82,0-1.7-.1-2.62-.34l-6.12-1.46-1.05-.27.14-.1c.14,0,.2,0,.24.03l2.69.48.58.17.51.1.34.1.37.1.2.03c.1.03.24.07.44.1.2.07.41.14.65.2.24.03.44.1.58.14.2.07.27.1.31.1l.17.03c.24.03.37.07.44.1l.75.1.71.1c.2.03.31.03.34.03h.27c.48.03.99-.03,1.56-.17.71-.2,1.39-.65,1.97-1.29.27-.24.51-.58.75-1.05l.14-.37ZM6.8,22.82l.31-.14h.1c.31,0,.44.17.44.54s-.37.58-1.12.68c.17-.1.34-.17.51-.27s.24-.24.24-.44c0-.24-.17-.37-.48-.37ZM10.51,22.92l.85-.44.07.03s-.17.07-.48.27l-.2.14-.34.14v-.1l.1-.03ZM24.93,21.93c.14,0,.2.07.2.2,0,.2-.07.31-.24.31-.1-.03-.14-.1-.14-.27s.07-.24.17-.24ZM24.9,21.28c.17,0,.24.07.24.2s-.07.2-.24.2-.24-.07-.24-.2l.03-.07c.03-.1.1-.14.2-.14ZM25.71,21.11c.1,0,.17.1.17.27,0,.14-.07.2-.24.2-.1,0-.17-.07-.17-.17,0-.2.07-.31.24-.31ZM22.89,20.5l.27.48.14.37c.07.17.1.31.1.41s-.1.37-.27.82c-.1.24-.24.37-.37.37-.1,0-.14-.07-.14-.2l.03-.17-.1-.07-.1.03c-.03.24-.14.37-.24.37h-.07l-.17-.1-.24-.07c-.27,0-.41.14-.41.44,0,.1.1.24.31.41h-.24c-.31.03-.44-.14-.44-.44,0-.27.17-.54.51-.78l.95-.31.24-.2.24-.44.07-.03v-.07s-.03-.14-.07-.37l-.07-.41.07-.03ZM16.87,20.6l1.09-.24.14-.03c.58,0,.85.2.85.65,0,.54-.41.88-1.26,1.05-.07-.03-.14-.03-.24-.03l-.14-.03c-.17-.03-.31-.03-.37-.03-.14-.03-.2-.03-.31-.03-.27,0-.41.14-.41.37,0,.14,0,.24.03.31h-.07c-.24,0-.37-.1-.37-.27l.07-.2c.17-.24.37-.37.58-.37l1.22.07.24-.03c.24-.1.41-.24.51-.37l.07-.14c0-.07-.03-.17-.1-.27-.17-.17-.34-.24-.58-.24-.61,0-1.16.17-1.63.51l-1.73,1.19-.41.1.17-.14.1-.1c.31-.17.54-.34.78-.51.2-.14.37-.24.54-.34.17-.14.37-.27.58-.41l.65-.44ZM23.23,19.79c.14.03.24.1.34.24l.07.1.24.14.1-.2.14-.03c.27,0,.51.14.71.41l.2.14c.41-.03.68-.17.82-.48.03.07.03.17.03.31,0,.03-.07.2-.17.51-.1.03-.17.03-.2.07h-.48l-.07.14-.37-.2c-.24-.17-.41-.27-.51-.27-.17,0-.27.07-.27.2,0,.07.03.14.1.24.37.37.54.78.54,1.29,0,.71-.48,1.12-1.39,1.26.54-.41.82-.88.82-1.39,0-.17-.03-.34-.07-.51-.07-.17-.14-.34-.2-.48s-.14-.24-.2-.31l-.07-.03c0-.14.1-.2.31-.2l-.1-.31-.2-.2c-.1-.07-.17-.14-.17-.17,0,.03.03-.07.07-.24ZM3.4,19.41l.07-.03c.1,0,.14.03.14.14l-.14.07s-.07-.03-.07-.14v-.03ZM17.58,20.03c.65-.48,1.22-.71,1.77-.71.44,0,.68.2.68.65,0,.37-.24.58-.68.58-.27,0-.41-.17-.44-.51.17.14.31.2.44.2.24,0,.34-.1.34-.27,0-.14,0-.24-.03-.27-.31-.1-.44-.17-.48-.17-.2,0-.54.1-1.02.31-.1.07-.27.14-.58.2ZM8.61,19.65c.1-.24.44-.37.99-.37,1.05,0,1.6.48,1.6,1.43,0,.17-.07.44-.2.82-.1.37-.24.58-.37.58l-.1-.03v-.1c.24-.37.37-.71.37-.95,0-.37-.07-.61-.24-.78l-.14-.2c-.14-.1-.31-.14-.48-.17h-.14c-.24-.03-.44.03-.61.17-.17.17-.27.34-.27.51,0,.34.1.51.31.51l.1-.03.34-.14.1-.03h.03c.24,0,.34.14.34.37,0,.03-.07.14-.17.31-.03-.31-.1-.44-.24-.44l-.85.07c-.27.03-.41-.17-.41-.61,0-.17.1-.37.27-.61l.03-.1c0-.07-.1-.14-.27-.17ZM2.75,19.01h.03c.2,0,.31.07.31.2,0,.17-.1.24-.27.24-.14,0-.2-.07-.2-.2s.03-.2.14-.24ZM18.09,18.94v.14s-.24.1-.68.34l-.61.31c.17-.24.31-.37.41-.41l.34-.14.27-.14.27-.1ZM3.54,18.84c.1.03.14.1.14.2s-.07.14-.2.14-.2-.07-.2-.2c0-.1.07-.14.2-.14h.07ZM18.16,19.24l.27-.1.07-.03c.58-.24,1.26-.34,2.01-.34l.17.03c.1,0,.2,0,.31.03-.1.17-.2.27-.24.27-.07,0-.17-.03-.34-.1-.17-.03-.27-.07-.37-.07-.2,0-.44.03-.75.14-.65.14-1.02.24-1.12.31l-.2.14-.68.34c-.07.03-.17.1-.31.24l-.54.41-.78.61c-.2.17-.34.27-.37.31l-.2.2-.54.34-1.19.78c-.78.51-1.56.95-2.38,1.33s-1.67.65-2.52.88l-.03-.1.2-.03,1.6-.68,1.16-.51,1.94-1.16c.1-.1.24-.17.37-.27.1-.07.24-.14.34-.17l.27-.2.95-.68.99-.78c.58-.48,1.12-.82,1.7-1.02l.14-.07.14.07-.03-.1ZM2.21,18.53l.03-.03c.24,0,.37.1.37.27s-.1.27-.31.27-.31-.1-.31-.31c0-.14.07-.2.2-.2ZM15.99,18.26l.24.34.24-.14.24-.03c-.78,1.26-1.77,2.38-3.03,3.44-1.19,1.05-2.48,1.8-3.88,2.28l-1.5.51-.2.07-.58-.17h-.34v-.1c.1-.03.24-.07.37-.1l.34-.07s.14-.03.27-.1c.1,0,.27-.07.51-.14,1.87-.48,3.81-1.67,5.82-3.54l.14-.14.1-.14c.1-.1.17-.2.24-.27l.1-.14c.1-.1.17-.24.24-.34l.24-.41.17-.27.14-.31.14-.24ZM17.28,18.26l.2-.1.54.03.14.34h-.71c-.24,0-.71.48-1.43,1.39l-.1.1-.1.14-.27.27.17-.31,1.26-1.67c.07-.14.17-.2.31-.2ZM3.06,18.09c.17,0,.24.1.24.34,0,.17-.07.24-.24.24-.2,0-.31-.1-.31-.31,0-.17.1-.27.31-.27ZM1.16,19.18c.1-.78.41-1.19.92-1.19.1,0,.17.03.2.07l.14.17-.61.1c-.2,0-.31.2-.31.65,0,.71.27,1.02.78.99.41-.03.78-.03,1.09,0,.27.03.41.03.37.07l-.07-.07-.2-.14c.14,0,.27.07.41.24.1.17.17.31.17.44,0,.51-.2.75-.65.78l-.54.07c-.24.03-.48.14-.65.27-.27.17-.41.37-.41.58,0,.14.1.34.27.58l.61.07c.37-.1.65-.31.82-.68l.24-.48c.31-.54.65-.82,1.05-.82.34,0,.58.17.68.51l.07.31-.07-.03.24.03.1-.14.07.14s.03.1.03.2c0,.14-.03.31-.1.48s-.1.31-.1.34c0,.1,0,.14.03.17v-.1l.17.1c.14-.14.24-.2.31-.2.03,0,.07.14.07.37,0,.34-.14.61-.37.85-.27.24-.58.34-.95.31h-.2l-.37-.07-.34-.03h-.03c-.27-.03-.41.1-.41.34,0,.2.14.31.41.31.54,0,1.12-.1,1.73-.34.2-.1.37-.14.54-.14.03,0,.2.07.51.17l-.37.51h.2l.2-.1s.14-.03.31-.03c.88,0,1.33.27,1.33.85,0,.37-.14.54-.44.54-.03,0-.14-.03-.31-.07v-.1c.24-.1.37-.2.37-.31,0-.27-.14-.41-.44-.41h-.17c-.1.03-.2.03-.31.07-.44.1-.65.17-.68.2l-.31.03s-.31.07-.75.17c-.07.03-.2.07-.44.1v-.1l1.12-.27-1.53.17.03.14-.1.03c-.65,0-1.09-.24-1.39-.71l-.03-.14c-.1-.03-.17-.07-.24-.1l-.14-.07c-.68-.27-1.12-.54-1.33-.85-.03-.14-.07-.2-.07-.17,0-.07.03-.1.14-.1s.2.03.37.14c.37.24.82.41,1.33.44v-.17c-.14-.1-.2-.2-.2-.31,0-.14.1-.27.34-.44l-.1-.14-.17-.1s-.1,0-.2.07c-.1,0-.2.03-.31.03-.58,0-.95-.24-1.19-.75l-.03-.24-.03-.14c0-.1.03-.24.14-.41.27-.41.54-.61.85-.61l.58.07c.14,0,.31-.07.44-.17.2-.1.27-.24.27-.37,0-.37-.17-.54-.48-.54l-.58.14s-.07.03-.17.03c-.34,0-.65-.17-.92-.48l-.17-.27-.07-.34ZM25.24,18.29c.14-.2.27-.31.37-.31.17,0,.27.07.27.17l-.03.03-.24.17-.14.51-.2.14-.03.07c0,.1.03.14.14.14-.03,0,.07-.03.24-.07-.07.17-.2.34-.37.48-.24.17-.48.24-.71.24-.71,0-1.05-.07-1.05-.24v-.1c.07.03.2.03.37.03.1,0,.37-.14.82-.44l.24-.27.1-.27.24-.27ZM14.69,18.09l.27-.2.07-.03c.34,0,.51.17.51.54,0,.24-.14.51-.37.82l-.31.34-.17.31.1-.31.34-.61.07-.37v-.1c-.1-.17-.24-.24-.48-.27l-.03-.1ZM10,18.19l-.51.24-.61.48c-.17.17-.44.24-.82.24-.24,0-.44-.1-.65-.27s-.31-.37-.31-.61c0-.31.07-.44.17-.44h.1l-.03.48.03.17.17.17c.17.17.31.24.48.24.41,0,.65-.03.75-.14l.75-.48.48-.07ZM7.86,17.75h.03c.24,0,.37.1.37.27,0,.2-.07.31-.24.31-.2,0-.31-.1-.31-.34,0-.14.03-.2.14-.24ZM20.54,17.75c.03-.1.14-.17.24-.17.2,0,.31.1.31.27,0,.37-.17.54-.51.51h-.1c.24-.17.34-.31.34-.41l-.03-.07-.24-.14ZM2.48,17.75v-.07c0-.24.1-.34.27-.34.2,0,.31.1.31.27,0,.24-.1.34-.31.34-.17,0-.24-.07-.27-.2ZM18.6,17.51c.03-.17.17-.27.37-.27l.07.03c.41.24.61.48.61.68,0,.34-.1.54-.31.65l-.37.2c-.41.17-.65.27-.71.27l-.1-.1s.1-.07.34-.17c.14-.03.34-.24.58-.54.07-.2.1-.34.1-.37,0-.2-.2-.34-.58-.37ZM24.25,17.78c.1.2.2.31.34.31.24,0,.37-.2.37-.65,0-.1.03-.2.1-.24.07,0,.1.07.1.17,0,.17-.07.41-.2.75-.1.24-.27.37-.44.37-.27,0-.41-.1-.41-.31,0-.1.03-.24.14-.41ZM6.77,17.2l.03-.03c.27,0,.41.1.41.27s-.1.27-.31.27c-.17,0-.27-.07-.27-.24v-.07c.03-.14.07-.2.14-.2ZM10.54,18.16c-.58-.27-.85-.54-.82-.82v-.24l.65.48.37.14v.37l.88.37c.44.17.65.61.65,1.39,0,.31-.07.58-.17.88l-.1.2-.1.34-.17.27-.37.44c-.14.17-.24.27-.27.27l-.14-.07c0-.07.1-.17.27-.27.54-.37.82-1.09.82-2.21,0-.1-.03-.31-.1-.54l-.41-.51-.2-.14-.37-.1h-.17l-.07.07v.2c0,.1-.07.14-.17.14l-.41.03-.37.14c.1-.37.37-.58.82-.65l-.03-.2ZM7.65,16.97c.24,0,.37.1.37.27s-.1.24-.27.24c-.2,0-.31-.1-.31-.31,0-.14.07-.2.2-.2ZM8.4,16.97c.17,0,.24.07.24.24,0,.1-.07.14-.2.14s-.2-.07-.2-.17v-.03l.03-.07.14-.1ZM16.97,16.49l.07.1s-.03.1-.14.17l.07-.27ZM7.21,16.86c-.17,0-.24-.07-.24-.2s.07-.2.24-.2.24.07.24.2-.07.2-.24.2ZM7.89,16.35h.03c.17,0,.27.07.27.2s-.07.2-.24.2c-.14,0-.2-.07-.2-.2,0-.1.03-.17.14-.2ZM16.26,15.91v.24l.1-.03-.03.24v.03h.1l.2-.14-.17.34.17.07.1-.2v-.07l.14-.03-.17.51h.14l.14-.1-.03.48h.17l.14-.68.03.44h.2l.07-.27v.2c.1-.03.17-.07.17-.1l-.07-.27h.14l.1.27.14-.07-.07-.2.07-.07c.1,0,.14.07.14.24h.14l-.07-.31.2.03v.68c0,.17-.07.34-.24.51h-.07l-.03.17-.17-.03-.07-.1-.14-.14-.14-.07c-.1.24-.31.41-.58.51s-.48.17-.65.2c-.07.03-.14-.03-.2-.14s-.1-.2-.1-.24l-.1-.14c-.1-.17-.1-.27-.07-.31l.17-.31-.07-.1s-.1.03-.2.07c-.1.07-.24.1-.34.1h-.2c-.1,0-.17,0-.24-.03l.27-.61.14-.14c.2-.17.37-.31.54-.34l.31-.1ZM23.91,15.77l.1.1-.1.34c-.92,3.64-2.55,5.85-4.86,6.63l-.14.03s-.1.07-.2.1v.24c1.12.65,2.38.99,3.74.99.95,0,1.87-.37,2.72-1.12l.14-.34c.03-.24.07-.34.17-.34s.14.07.14.24c0,.78-.44,1.5-1.36,2.14s-1.9.92-2.99.85l-1.16-.1-.41-.07-3.78-.95-3.95-.78.48-.2.34-.17.24-.17s.1-.03.2-.03h.51c.17,0,.34,0,.58.03l.17.03c1.39.03,2.69-.31,3.88-1.09,1.26-.78,2.14-1.73,2.62-2.79l.1-.27.34-.68c.1-.2.17-.44.27-.68.07-.27.14-.58.2-.88.17-.65.24-.99.2-.99.1,0,.24.03.41.07s.31.07.41.07c.17,0,.51-.07.99-.2ZM19.32,16.01h.24l-.03-.2.34-.07.44.03.68.24h.61c-.07.44-.44.68-1.09.71.03.1.1.2.2.24l.07.1c-.44.17-.68.27-.71.27-.31,0-.65-.1-1.02-.31l.03-.03-.1-.07-.2-.27-.1-.2.27.03v-.14h.54l-.1-.17-.48-.03v-.1l.24-.03h.17ZM21.7,21.18c.34-.34.54-.54.58-.61l.82-1.43c.17-.24.41-.92.75-1.97.03-.17.07-.31.1-.44s.07-.27.1-.44c.1-.44.24-.68.34-.68h.03l.03.03c-.65,3.54-2.14,5.92-4.46,7.18-.51.31-.78.44-.88.44s-.14-.07-.14-.17c0,.03.2-.07.58-.31l.54-.31.31-.17.17-.14,1.12-.99ZM2.18,15.16v.1s-.07.14-.17.31l-.41.61-.07.07c0,.17.07.34.24.51.03.03.14.03.24.03s.17,0,.2-.03c.17-.17.24-.37.24-.61.07.2.1.37.1.48,0,.41-.2.61-.61.61-.34,0-.58-.2-.68-.58l-.03-.27c0-.31.31-.71.95-1.22ZM13.3,15.2l.03.07v.31c0,.17.03.27.1.37l.78,1.29.17.92v.17c.07.75-.1,1.46-.58,2.18-.41.68-.99,1.16-1.63,1.43,1.16-1.12,1.73-2.18,1.73-3.2,0-.92-.37-1.39-1.12-1.43v.03c0,.1-.07.17-.24.17-.17.07-.24.07-.24.1l-.03.2v.17c0,.1.07.24.2.41.54.54.82.95.82,1.26,0,.44-.2.65-.58.65h-.03l-.1-.07c.31-.1.48-.27.48-.48,0-.27-.07-.48-.24-.61l-.41-.34-.51-.54c-.14-.14-.2-.31-.2-.51,0-.17.03-.41.1-.71.1-.24.44-.37,1.02-.44v-.24c.03.07.07.1.17.14l.03.03-.07-.34s0-.14.03-.31v-.1l-.14-.03-.03.58-.1-.03c0-.48.2-.85.58-1.09ZM6.84,14.07c.1.1.17.24.17.34,0,.2-.07.34-.24.44-.37.27-.54.44-.54.48,0,.1.03.17.07.2l.44.58v.24c0,.31-.1.48-.27.48-.07,0-.1-.07-.1-.17l.03-.2s-.1-.14-.27-.27l-.24-.2.07-.41-.54-.14-.07-.37c.1.1.2.14.34.14.1,0,.14,0,.17-.03l.1-.44c.58-.07.85-.27.88-.65ZM25.88,13.94s.03.07.03.17-.03.2-.14.31c-.54.78-.82,1.39-.82,1.77s.17.54.48.54c.17,0,.24-.14.27-.44l-.27-.07-.2.17.03-.24c.03-.2.14-.31.34-.31.24,0,.37.14.37.44,0,.51-.24.75-.75.75-.37,0-.58-.27-.58-.78,0-.31.1-.61.31-.85l.68-.99.24-.48ZM13.77,13.97v-.14l.68.1.48.17c.68.37,1.02.65,1.02.78v.03l-.14.17.27.2.03.17-.41-.34-.34-.1.07.17c.34.27.51.41.51.44l-.03.07-.17.07-.54.24h-.1c-.27,0-.51-.1-.75-.31l-.2-.17c-.1-.17-.17-.27-.17-.31s.1-.1.31-.17c.14-.03.2-.1.2-.2v-.07c-.31-.17-.54-.44-.71-.82ZM8.74,13.7c0,.1-.03.14-.14.14-.14,0-.2-.03-.2-.14,0-.03.07-.07.17-.07-.03,0,.03.03.17.07ZM21.26,13.94c.03-.31.2-.44.51-.44.03,0,.07.03.1.14-.17.17-.27.34-.27.44,0,.31.24.54.71.75.31.14.58.2.85.2.17,0,.48-.03.92-.1-.31.17-.61.27-.92.27-.58,0-1.12-.17-1.6-.51l-.27-.41-.03-.34ZM9.83,13.22l.14.03.03.07c0,.1-.07.14-.17.14s-.17-.03-.17-.1c0-.03.07-.1.17-.14ZM8.88,13.02c.24.03.37.14.37.24,0,.14-.1.2-.31.2-.17,0-.27-.07-.27-.2,0-.03.07-.14.2-.24ZM7.86,13.36l.07-.24c.1-.03.2-.07.24-.1.17,0,.24.1.24.31,0,.1-.07.17-.17.17h-.03l-.14-.07-.2-.07ZM6.6,13.5c-.1-.1-.17-.2-.17-.27,0-.1.07-.17.17-.17.14,0,.2.03.2.14s-.07.2-.2.31ZM7.01,13.09l.44-.03c.1,0,.14.1.14.31,0,.17-.1.27-.27.27-.2,0-.31-.17-.31-.54ZM9.56,12.78l-.03-.1c0-.14.1-.2.27-.2s.27.07.27.24c0,.14-.07.2-.2.2-.1,0-.2-.03-.31-.14ZM15.65,12.68c.03-.24.2-.34.51-.34.44,0,.68.2.75.61.03.24.1.34.2.34s.17-.1.2-.27c.24.24.34.41.34.58,0-.03-.03.07-.07.24l-.37.92-.03.14c0,.48.17.71.51.71.14,0,.27-.03.44-.14l.24-.44.03-.58c0-.27.17-.61.51-1.02.24-.17.48-.27.75-.34l-.17.61.75.03c.31.2.44.37.44.54,0,.14-.03.27-.1.44h-.07l-.07-.14-.31-.24c-.31.1-.48.2-.51.27l-.68,1.12c-.1.17-.34.34-.71.48-.24.07-.48.1-.65.1s-.41-.07-.71-.24c-.1-.03-.17-.1-.2-.2-.07-.07-.14-.14-.17-.24-.17-.51-.27-.82-.27-.99,0-.24.03-.48.1-.71l.07-.2v-.14c0-.14,0-.24-.03-.31-.14-.37-.37-.58-.71-.61ZM22.01,12.2l.07.31c-.85.17-1.26.58-1.26,1.26,0,.71.48,1.22,1.39,1.56.58.07.85.1.82.1.14,0,.24,0,.31-.03.65-.07,1.05-.2,1.26-.44l.37-.37.1-.1.2-.41c.07-.14.14-.27.17-.37v-.03c.07-.17.1-.31.1-.44l-.03-.78.17-.14c.1.37.17.65.17.75,0,.75-.27,1.39-.82,1.87-.58.54-1.22.78-1.97.78-.88,0-1.6-.34-2.18-1.05v-.07c0-.31-.1-.61-.27-.85.03-.44.14-.78.34-.95.14-.17.51-.37,1.05-.58ZM9.46,11.93c.17,0,.24.03.24.1,0,.14-.07.2-.2.2-.1,0-.14-.03-.14-.14l.1-.17ZM24.11,11.9l.1.07.07.07v1.12l-.03.82c-.03.37-.07.61-.17.65-.07.03-.17.07-.31.1l-.37.07h-.58c-.17-.03-.31-.1-.44-.2l-.1-.03.1-1.29v-.03c0,.1-.03-.2-.1-.85v-.14l1.09-.1c.1-.03.24-.07.37-.14.14,0,.27-.07.37-.1ZM24.56,11.69c.07.34.1.51.14.54v1.67c0,.31-.1.51-.34.58l.03-.58c.07-.34.1-.61.1-.82,0-.17,0-.34-.03-.54-.03-.24-.07-.48-.1-.75l.2-.1ZM2.18,11.46l.2.2v.17l-.07-.07-.14-.31ZM11.39,11.56c.31-.24.54-.34.71-.37v.1c-.1.2-.14.44-.14.75,0,.07.03.17.1.34l.34-.07c-.07.48-.17.82-.31.99l.07-.41h-.17c-.03.24-.14.48-.31.68l.07.07.07.07s-.14.1-.34.24l-.07.17c0,.14.1.2.27.2.1,0,.24-.07.41-.2l.24-.2.68-1.19.03-.03c.07-.1.17-.2.27-.34.14-.1.24-.17.34-.17.07,0,.14.17.17.51l.07.07.07-.03.1-.14c.1-.14.24-.2.41-.2l.17.03c.17,0,.34.07.44.27.14.14.2.27.2.37v.27c-.41-.17-.61-.27-.65-.27-.37,0-.68.14-.95.41-.07.1-.2.2-.41.31l-.07-.03.17-.31s-.1.03-.2.14-.2.2-.27.31c-.14.1-.2.2-.31.31s-.14.14-.17.14v.2c.03.1-.1.17-.41.27s-.54.2-.75.31l-.58.24c-.2.03-.37.07-.48.1l-.44.03-.34.03v.1c.07.03.17.03.34.03.44,0,.78-.03.99-.17.2-.07.34-.14.41-.14h.03l.17.07c.2.03.37.2.51.48h-.37c.07.17.1.31.1.41,0,.54-.24.82-.71.82-.17,0-.31-.1-.41-.34.03.03.14.03.27.03.24,0,.37-.14.37-.41,0-.41-.27-.58-.78-.54l-.24.03-.71.07-.31.03-.41.03.03-.2h-.17c.17,0,.03.07-.34.17h-.03l-.27-.03-.17-.03-.03-.03c0-.1.07-.17.2-.14h.07l-.07-.2c-.31.17-.51.24-.65.24-.1,0-.24-.03-.41-.14v-.03l.34-.1.44-.24c.37-.17.58-.31.58-.34s-.03-.07-.14-.07l-.41.24-.14.07s-.1.03-.2.07c-.24.03-.41.1-.51.1l-.17.07-.07-.07c0-.1.17-.2.48-.31.07-.03.17-.07.27-.17.14-.1.24-.17.31-.24.17-.24.31-.37.31-.41.07-.03.14-.1.27-.14v.14c0,.14.03.2.14.2h.07l.24-.27.48-.14.37-.17v.41l-.27.31-.07.17v.03l.1.14-.31.2-.44.14-.03.07c0,.1.07.14.24.14.1,0,.24-.03.37-.1.17-.17.37-.27.54-.34l.24-.27c.07-.1.14-.17.17-.2l.31-.75.1-.54v-.58l.07-.44.1-.07h.03l.17.24h.17c.03-.17.1-.31.14-.44.07-.14.14-.27.24-.37ZM23.98,11.35l.54-.2h.03s.07.07.07.17l-.07.14-.14.03-.54.24c-.44.17-1.02.27-1.8.27-.31,0-.58-.03-.82-.14v-.24c.34.03.61.07.78.1h.17c.51.03,1.02-.03,1.5-.2l.14-.07s.1-.03.2-.07l-.07-.03ZM1.19,11.15l.14.31.31.75.58,1.19c.1.31.17.58.17.82,0,.61-.27.92-.85.92-.17,0-.34-.1-.44-.27-.1-.1-.14-.24-.14-.44l.07-.24.03-.14.27-.51-.07-.51-.07-.14h.2c.1,0,.14.14.14.44,0,.1,0,.17-.03.2l-.24.78.1.34.14.1h.17c.07,0,.17-.03.27-.1l.14-.58c-.03-.17-.03-.37-.1-.54,0-.17-.07-.37-.17-.54-.1-.27-.2-.51-.27-.68l-.17-.44c-.03-.07-.03-.17-.07-.27s-.07-.27-.1-.44ZM19.45,10.91c.1.07.17.14.17.2l-.03.14-.2.85v.68l-.24.2-.03-.31.03-.31c.03-.24.03-.44.03-.58.03-.17.03-.24.03-.27l.03-.14c.03-.07.07-.17.1-.27l.1-.2ZM25.78,10.54l.03-.1h.03c.07,0,.1.03.1.14v.48c-.03.41-.2.82-.51,1.22-.17.14-.37.2-.54.24v-.17s.03-.07.14-.1l.48-.54c.1-.17.14-.34.2-.51,0-.2.03-.41.07-.65ZM19.08,9.96c.07.2.1.37.1.54l-.07.27-.03-.61v-.2ZM20.71,9.92c.24.37.37.85.37,1.36,0,.71-.14,1.09-.41,1.19l-.1.07-.31.14h-.1c-.17,0-.31-.14-.41-.37.17.07.27.1.37.1.44,0,.68-.34.68-1.02,0-.34-.07-.78-.2-1.29l.1-.17ZM15.24,9.86l.41.14.44.03c.51,0,.92.2,1.19.61.34.37.48.88.48,1.46v.27l-.07.54h-.07l-.03-.34v-.14l.07-.1-.1-.17v-.14l-.03-.17-.17-.41-.44-.54-.03-.03c-.31-.17-.51-.24-.68-.24-.48,0-.71.17-.71.51,0,.37.2.58.65.61-.17.2-.34.31-.51.31-.34,0-.61-.2-.78-.58-.03-.03-.03-.14-.03-.27,0-.1.03-.24.1-.41l.14-.1.1-.1c.17-.1.27-.17.27-.2l-.03-.1-.14-.14v-.31ZM12.28,10.74c-.31-.14-.48-.31-.48-.51,0-.44.24-.68.68-.68.58,0,.88.37.88,1.16,0,.88-.17,1.46-.51,1.77.03-.17.07-.31.1-.37.17-.51.27-.85.27-1.05,0-.68-.24-1.02-.75-1.02-.24,0-.37.1-.37.34,0,.07.07.2.17.37ZM24.86,11.18l-.2-.41-.17-.54v-.65h.03l.14-.03.07.1.03.34.07.31.03.37.44.85-.1.31-.14-.2-.1-.17-.1-.27ZM20.03,10.37l-.1-.17c0-.24.14-.41.37-.51.07-.03.17-.14.31-.34.1-.2.27-.31.44-.31.1,0,.14.03.14.14,0-.03-.24.17-.68.58l-.48.61ZM10.54,9.01l.31-.14.07-.03c.31,0,.48.2.48.61,0,.24-.14.44-.41.68.03-.1.03-.2.03-.27l.03-.14c0-.14,0-.24-.03-.27-.07-.24-.24-.41-.48-.44ZM19.35,9.52v-.03c0-.44.14-.65.44-.65.37,0,.58.14.58.37,0,.03-.03.1-.1.2-.17-.17-.31-.24-.41-.24-.2,0-.31.14-.31.41v.07c.03.48.14.78.31.95l.71.65-.03.34c-.37-.24-.65-.51-.82-.78-.03-.1-.1-.17-.14-.2-.17-.31-.27-.54-.27-.68l.03-.41ZM1.8,8.73l.24.78c.1.14.17.2.27.2s.2,0,.24-.03c.03.03.03.1.03.2,0,.17-.1.27-.34.27-.31,0-.44-.24-.48-.71v-.1l.03-.61ZM24.08,8.8c.27.03.51.14.75.31l.2.14.31.2v.37l-.27-.2-.17-.14-.48-.27-.27-.2-.07-.2ZM25.44,10.16c.17-.31.24-.51.24-.68,0-.37-.07-.54-.24-.54l-.51-.03.03-.14c.03-.1.14-.14.37-.14.37,0,.58.24.58.75,0,.54-.24,1.05-.68,1.5l-.07-.1-.03-.1c0-.07.07-.17.17-.27l.1-.2.03-.03ZM13.16,8.46l.07-.14.34.37.17.31c.03.14.07.27.1.37s.03.2.07.31c.03.14.03.27.03.34.03.14.03.2.03.24,0,.51-.07.88-.17,1.19l-.03.14-.07.2c-.03.1-.1.17-.14.17-.1,0-.14-.03-.14-.14l.17-1.67v-.1c.03-.27-.1-.65-.41-1.09l-.03-.1-.1-.14c0-.07.03-.17.1-.27ZM14.25,9.58c0-.71.17-1.19.54-1.5.17-.1.37-.17.61-.17.65,0,.95.27.95.82,0,.44-.2.68-.61.78.17-.24.27-.41.27-.48,0-.17,0-.27-.03-.31-.17-.2-.37-.31-.54-.31-.51,0-.82.31-.92.88l-.17,1.36-.14.37-.03.24-.14.2.07-.34.1-.44c.03-.1.03-.2.07-.34,0-.17,0-.34-.03-.58v-.2ZM6.12,8.67c.51-.85.92-1.26,1.26-1.26h.1l-.07.37.07.24-.24.41s-.03.07-.03.17l-.07.71s.03.17.07.34l.2.41v.48l.07.34.03.17.1.1.1.2h.17l-.1-.31-.07-.17-.07-.17v-.44l.14-.44.07-.1c.03-.07.1-.14.2-.2.17-.1.41-.14.65-.14l.31.03.24.03s.07.07.07.2v.37l-.14-.27h-.1l.1.71.1-.44c.17.71.54,1.09,1.09,1.09.27,0,.48-.1.65-.34l.07.2v.2c-.03.27-.14.41-.31.41h-.65l-.14.17-.07.03c-.1,0-.2-.1-.31-.31l-.14-.1c-.41-.17-.68-.41-.85-.71l-.07-.48-.34-.07c.1-.1.24-.14.41-.14l.03-.1s-.07-.07-.17-.07l.14-.17-.1-.1h-.14c-.1,0-.17.07-.2.2l.14-.03.14.07c-.17.17-.31.24-.37.27v.1l.14.03v.17c-.03.31.1.58.41.82.07.1.17.14.27.17.27.1.41.2.41.27,0,.1-.14.17-.41.24l-.1.1s.03.07.14.1l-.07.07c.31.07.44.24.41.54v.2l-.27-.1h-.75c-.31.03-.58-.1-.82-.41h-.17v.14l-.1.14-.17-.31-.1-.14-.03-.14-.14-.14v-.17l.24.27.1.03.07-.07-.07-.1c-.07-.03-.1-.14-.1-.24v-.1l.31.07-.17-.24c-.03-.17-.07-.27-.07-.31-.07,0-.1.07-.1.17,0,.17,0,.27.03.31l-.17-.24.03-.14-.07-.1-.03-.2c-.1,0-.17.07-.17.24l.03.17-.07-.1v-.31l.2-.41-.1-.27-.14-.03c-.24,0-.34.24-.34.71,0,.2.03.37.1.54l.37.88-.03.37s-.07-.03-.17-.03c-.03,0-.07.07-.1.24-.03.37-.27.65-.71.88.17-.71.27-1.16.27-1.29,0-.17,0-.31-.03-.37l-.07-.27-.03-.61c-.03-.1-.03-.17-.03-.24v-.48c0-.14,0-.31.07-.48l.1-.68.14-.44.07-.17.03-.07ZM12.65,7.27c.24.24.37.48.37.71,0,.54-.2.82-.61.82h-.03l-.17-.07.41-.54c.07-.24.1-.41.1-.51v-.14c-.03-.07-.03-.17-.07-.27ZM19.01,7.07c.07-.1.14-.14.24-.14.51,0,.78.24.78.71,0,.17-.1.37-.27.61l.07-.14-.03-.44c-.17-.17-.31-.27-.41-.27-.24,0-.34.27-.37.82l.07,1.5-.03-.17-.03-.14c-.07-.41-.1-.75-.17-1.05l-.07-.71v-.07c0-.17.07-.34.24-.51ZM2.24,6.29l-.07.88c.1.58.27.88.51.88.03,0,.17-.07.34-.17v-.48c.17.1.24.24.24.41,0,.51-.24.78-.68.78-.17,0-.31-.14-.44-.34-.14-.27-.2-.44-.2-.58,0-.48.1-.95.31-1.39ZM21.87,6.05c.99.78,1.7,1.9,2.14,3.33l.37,1.12.07.31v.03c0,.1-.03.17-.14.17s-.14-.1-.17-.34l-.03-.07v-.07c-.1-.44-.24-.82-.37-1.19-.1-.34-.24-.65-.41-.92l-.03-.17-.48-.85-.07-.07-.27-.41-.14-.2-.1-.14-.37-.54ZM17.48,5.91c-.1-.27-.17-.44-.17-.51,0-.14.07-.2.17-.2.14,0,.2.17.2.51v.2c0,.1,0,.2-.03.27l-.17-.27ZM1.46,6.56l.14-.34.1-.27.14-.24.17-.31.17-.34h.07c.03.07.03.17.03.27v.14c0,.1,0,.14-.03.17l-.37.78c-.07.14-.14.37-.17.75-.14.92-.2,1.5-.17,1.73v.17c0,1.05.14,1.8.44,2.31.31.58.44.92.44,1.02v.17c-.03.07-.03.17-.03.27v.17c-.1-.03-.17-.14-.2-.24l-.03-.07-.17-.27-.1-.24-.17-.37-.1-.17-.1-.37-.17-.48c-.14-.44-.2-.88-.2-1.33v-.51c.03-.1.03-.24.03-.41v-.44c0-.24.1-.75.27-1.46l.03-.1ZM18.47,5.23l-.07.88.48,3.81v.71l.07.99-.03.85c-.03.41-.03.65-.07.68,0,.03-.07.14-.24.27l.03-3.03-.14-1.77c-.03-.1-.07-.27-.07-.51-.07-.2-.1-.48-.2-.78-.14-.51-.2-.92-.2-1.29v-.58c0-.14.03-.2.14-.24l.03-.24.27.24ZM7.96,5.37c.37-.31.68-.44.92-.44.2,0,.34.03.41.14l.2.37c.1.14.2.2.37.2.1,0,.24-.1.41-.27v.14c.03.27-.17.41-.54.41-.17,0-.27-.07-.34-.24l-.2-.34c-.03-.1-.1-.14-.24-.14-.48,0-.71.2-.71.58,0,.48.31.71.88.71.17,0,.31,0,.34-.03l1.5-.2h.03c.1,0,.34.1.65.27.54.37.82.78.82,1.19,0,.48-.24.75-.71.82l.44-.41v-.07h-.1l-.17.2-.31.14-.07.17-.75-.1-.27.07c-.34.17-.51.44-.51.75,0,.1.07.24.2.48.14.07.24.1.31.1s.2-.03.37-.1c-.14.37-.31.54-.54.54-.51,0-.75-.34-.71-1.02v-.24s-.14.03-.24.03l-.07-.07c0-.07.03-.17.14-.34l.37-.34.17-.1.2-.03.1-.1c0-.1-.07-.14-.24-.14-.44,0-.71.14-.82.44l-.24.61-.1.07c-.07,0-.1-.07-.14-.24l-.14-.07-.2.27-.58.24-.34.24-.03-.44v-.2c-.03-.17.1-.48.41-.99l-.17-.07c.1-.34.31-.54.65-.58l.54-.07.1-.03.03-.03s-.03-.07-.03-.17c-.07-.03-.17-.03-.31-.03-.07,0-.17,0-.31.07-.14,0-.24.03-.31.03-.24,0-.48-.17-.71-.48h.07c.24,0,.34-.03.34-.14,0-.03-.03-.14-.03-.24-.07-.1-.07-.2-.07-.27,0-.1.1-.27.27-.51ZM2.82,4.55l-.17.44v-.14s.07-.14.17-.31ZM1.33,5.78c-.27-.41-.41-.68-.41-.82,0-.1,0-.14.03-.17l.2-.27.03.48c.03.14.17.2.41.2l.03-.03.27-.37.2-.14c-.24.44-.37.68-.41.68l-.31.17-.07.27ZM10.34,4.65c.24-.37.51-.65.82-.75.34-.14.61-.2.82-.2h.03c.27,0,.51.03.68.07l.54.17c.17.03.27.1.31.14l.58.48c.2.14.34.31.37.48l-.2-.24-.1-.03s-.1-.07-.2-.17c-.37-.37-.92-.54-1.7-.54-.51,0-.78.24-.78.71,0,.27.14.44.41.54l.34-.03.41-.41.14-.1c.1,0,.24.07.34.2l-.41.07-.58.54c-.1.14-.31.2-.54.2-.31,0-.54-.17-.71-.54v-.48l-.54-.1ZM21.8,3.5l.24-.31.2-.54.34.2.2.24c.17.24.27.44.27.54v.14c-.03.27,0,.41.14.41.07,0,.14-.07.2-.17.1-.1.17-.17.24-.17l.07-.03c.34,0,.51.14.51.44v.07h-.27c-.24-.03-.37.14-.37.51,0,.17.07.31.24.44.17.1.34.14.51.14.44,0,.82-.31,1.09-.92l.17-.31.14-.71c.14.1.2.24.17.41v.14l-.03.31c-.03.58-.27,1.05-.71,1.46l-.78.75c-.17.17-.27.44-.27.75,0,.17.1.34.27.51l.14.07s.14.03.27.03c.24,0,.44-.2.61-.58l-.07-.68c.27.24.41.44.41.61,0,.31-.1.58-.31.82-.2.2-.44.31-.75.31s-.58-.14-.78-.44l-.14-.34v-.1c0-.51.24-.99.75-1.39l.48-.34.24-.24.14-.24.17-.2.03-.1-.1-.1-.1.17s-.1.1-.2.17l-.41.31c-.1.1-.27.14-.51.14-.17,0-.31,0-.37-.03.1.1.27.17.44.17h.37c-.1.17-.2.24-.34.24-.51,0-.99-.2-1.43-.58l-.14-.1.14-.1h-.37l.2.27c.44.34.88.54,1.26.65v.03c-.1.03-.17.03-.24.03l-.14.03c-.37.03-.61-.03-.78-.2l-.14-.17s-.03.03-.17.07l.07.14c-.44-.27-.85-.58-1.19-.95l-.24-.41-.14-.27-.07-.17c-.1-.1-.2-.24-.27-.41h.54l.31.17.2.03.07-.58ZM15.1,2.54c1.6.17,3.27.88,5.03,2.18,1.56,1.19,2.58,2.41,3.1,3.71l.65,1.77c.17.37.24.65.24.82,0,.07-.03.1-.14.14-.48.24-.99.37-1.5.41h-.07c-.2,0-.31-.1-.37-.24,0-.2-.03-.34-.07-.51l-.37-1.16c-.51-1.56-1.29-2.89-2.35-4.05-1.05-1.09-2.28-1.84-3.64-2.21-.37-.1-.54-.31-.51-.65v-.2ZM6.12,18.67c-.51-.78-.95-2.07-1.33-3.91l-.03-.71c-.1-.34-.14-.82-.14-1.43,0-2.21.41-4.05,1.26-5.51.1-.24.24-.48.34-.61.1-.2.2-.34.31-.44.07-.1.31-.34.68-.71l.75-.58.48-.31.44-.27c1.19-.65,2.38-.95,3.64-.95.48,0,.71.07.71.17,0,.07-.07.1-.17.1l-.37-.03-.27-.03c-1.94-.1-3.64.61-5.1,2.07s-2.28,3.3-2.38,5.48l-.03.48c-.03.1-.03.24-.03.34v.78c0,1.67.17,2.96.48,3.91l.68,1.8.1.37ZM10.85,22.44l-.27.2-.41.2c-.44.17-.65.27-.68.27-.17,0-.41-.1-.71-.27l-1.29-.65c-1.56-.78-2.75-2.04-3.61-3.74-.85-1.67-1.26-3.67-1.26-6.02,0-2.55.85-4.83,2.58-6.9s3.64-3.1,5.78-3.1c.44,0,.82.07,1.09.2l.41.24c.14.03.2.1.2.14,0,.07-.03.1-.14.1l-.24-.03c-2.28-.17-4.18.68-5.68,2.55-1.46,1.87-2.21,4.22-2.21,7.04,0,2.04.44,3.91,1.33,5.61s2.01,2.86,3.4,3.47l.61.31,1.09.37ZM13.43,2.41c.14,0,.2.03.2.1,0,.1,0,.14-.03.17l-.17-.2-.07-.07h.07ZM8.37,2.17h.17l-.34.14-.44.1c-.34.07-.51.24-.51.51,0,.14.03.24.14.34h-.14c-.31,0-.44-.1-.44-.31,0-.44.44-.68,1.36-.78h.2ZM8.71,2.14l.44.07-.58.03.14-.1ZM5.65,2.31l-.07-.37h.14l.17.24c.07.03.1.1.17.24l.03.2c0,.14-.07.31-.24.54v-.27l-.1-.41-.1-.17ZM19.42,1.42c.24.24.37.44.37.58,0,.1-.07.24-.14.48-.14.2-.17.37-.17.48l.1.07.14-.1.07-.14.1-.03c.24-.17.44-.27.61-.27.54,0,.82.2.85.65-.17-.17-.34-.27-.51-.27-.1,0-.17.03-.2.07l-.61.48-.14.07c-.1,0-.2-.1-.31-.31-.27.2-.44.37-.51.54-.14-.03-.24-.1-.27-.24l.27-.34.03-.17c-.24-.07-.34-.17-.34-.31v-.07l.03-.07.41-.37c.1-.14.17-.37.2-.71ZM8.4,1.49h.78c.71,0,1.43.1,2.11.31.75.2,1.29.44,1.73.75l.75.61.24.2.14.1s-.07.14-.17.24l-1.05-.78c-.85-.65-2.04-.99-3.57-.99-.78,0-1.5.1-2.07.27l-.61.17-.37.1v-.1l-.24-.44c.37-.1.78-.2,1.16-.27.37-.1.78-.14,1.19-.17ZM21.22,1.63c.58-.17.99-.27,1.19-.27.31,0,.61.03.92.1l.34.07c.37.07.65.1.88.1.27,0,.65-.07,1.09-.2-.03.34-.2.61-.54.78l.2.31c.17.31.27.54.27.65v.2c-.03.14-.03.24-.07.34-.2-.27-.34-.48-.41-.61l-.07-.14-.1-.14-.14-.1-.07-.14h-.07l-.07.07v.07s.1.14.27.31c.1.1.2.27.37.51.1.17.17.34.17.51v.07l-.1-.17-.03-.14c-.07-.1-.14-.24-.24-.37l-.31-.41-.1-.1-.1-.07-.27-.1-.31-.1-.14.34c-.03.24-.17.34-.41.34s-.34-.1-.34-.27l.03-.03.14-.14.03-.24-.2-.37-.07-.1-.1-.07c-.31-.17-.58-.24-.88-.24-.37,0-.58.03-.68.14l-.61.31-.41-.03.03-.1c.17-.1.31-.2.48-.31.14-.07.27-.14.41-.24ZM12.82,2.14c-.2-.2-.31-.37-.31-.48,0-.31.17-.44.48-.44s.48.1.48.34l-.03.17c-.17-.1-.34-.17-.44-.17-.14,0-.2.1-.2.34l.03.24ZM15,1.29l.2-.1h.1l.68.1c.07.03.14.1.2.2.17.24.34.44.51.54.2-.03.37-.1.58-.31.14-.14.34-.24.51-.24.48,0,.71.2.71.58,0,.17-.14.34-.37.51.1-.17.14-.31.14-.41,0-.24-.17-.37-.48-.37-.17,0-.31.07-.41.2l-.37.41-.51.07-.2-.17c-.31-.44-.58-.68-.78-.68-.44,0-.68.27-.68.85,0,.34.14.68.41,1.05l1.43,1.84.24.51.41.65.24.51.41,1.12.2.92.24,1.73v1.9l-.03.61-.14.68c-.14.78-.31,1.16-.54,1.16-.1,0-.14-.14-.14-.37.31-.88.44-1.73.44-2.55,0-.41-.03-.82-.14-1.19l-.27-1.05-.14-.44-.54-1.05-.14-.24-.51-.68-1.02-.71c-.31-.14-.54-.2-.68-.2-.58,0-.85.24-.85.68,0,.24.17.41.54.51-.14.17-.27.24-.37.24-.24,0-.44-.14-.61-.41l-.1-.24.03-.27v-.27l.07-.07-.03-.37c-.2-.03-.34-.17-.41-.41l.51-.1.37-.24c.17-.03.34-.07.48-.07.27,0,.54.1.85.34l.07.07.2.1.44.34.78.51v-.03l.54.65c.14.2.24.41.34.65l.2.48.14,1.05c.03.1.07.24.1.37l.14.34h.07l-.03-.68-.07-.31c-.27-1.05-.58-1.8-.92-2.21l-.2-.24.07.03-.2-.2-.24-.2-.31-.24-.27-.14-.48-.31-.51-.41-.03-.14h.54v-.17l-.37-.2-.31-.27-.31-.34-.07-.27-.1-.24v-.17c.14.07.27.1.37.1.14,0,.2-.03.2-.14,0-.07-.03-.1-.14-.14l-.27-.17-.24-.27-.24-.31c-.07-.17-.1-.31-.1-.41,0-.37.1-.68.34-.99.1.2.17.31.27.31l.17-.17c.14-.24.24-.34.31-.34h.07ZM1.9,1.15h.34l.31.14.34.51c.14.17.31.27.51.27s.44-.17.71-.51v.14c0,.17-.1.34-.31.44-.2.14-.41.2-.58.2-.2,0-.31-.03-.34-.14l-.24-.41c-.1-.14-.24-.2-.41-.2-.31,0-.48.2-.48.58,0,.51.24.78.71.78.14,0,.37-.03.68-.1l.31-.1c.65-.44,1.12-.65,1.5-.65.17,0,.31.1.44.27.1.34.17.51.17.54,0,.37-.27.75-.78,1.09l-.44.31-.34.27.03.07-.07-.03c-.51.37-.75.71-.75,1.05,0,.31.14.48.41.48.31,0,.51-.17.61-.54l.24-.75c.03-.14.1-.24.2-.34.24-.27.41-.41.54-.41.03,0,.14.07.31.17-.37.03-.65.24-.78.65l-.51,1.09c-.24.51-.58.75-1.02.75-.1,0-.17-.03-.2-.07l-.17-.2-.07-.07s-.03-.07-.03-.2c0-.03.03-.2.1-.51-.03-.14-.1-.17-.27-.14h-.07l.07-.51.17.14c.1-.24.17-.41.27-.51,0,.03-.03-.03-.07-.17l.17-.17.34-.24c.1-.1.17-.2.17-.24l-.07-.17-.17-.17h-.07l-.07.03c-.07,0-.24.17-.54.51-.1.1-.17.14-.24.14h-.03l-.07-.07-.41-.07c-.17,0-.24-.1-.24-.27,0-.07.07-.14.17-.2l.07-.17c-.41-.03-.71-.27-.88-.68l-.03-.07-.03-.14v-.44.07-.03c.03-.1.1-.17.14-.17h.07l.14.1c.03-.17.07-.34.14-.44,0-.1.03-.2.07-.24l.07-.03.14-.1.14-.1ZM.82,26.42h25.54V.88H.82v25.54ZM.41,26.83V.44h26.39v26.39H.41ZM0,27.24h27.21V.03H0v27.21Z"/>
</svg>