<?xml version="1.0" encoding="UTF-8"?>
<svg id="Layer_1" xmlns="http://www.w3.org/2000/svg" width="27.21" height="27.21" xmlns:xlink="http://www.w3.org/1999/xlink" viewBox="0 0 27.21 27.21">
  <defs>
    <clipPath id="clippath">
      <rect width="27.21" height="27.21" fill="none"/>
    </clipPath>
    <clipPath id="clippath-1">
      <rect y="0" width="27.21" height="27.21" fill="none"/>
    </clipPath>
  </defs>
  <g clip-path="url(#clippath)">
    <g clip-path="url(#clippath-1)">
      <path d="M16.77,24.96c0-.1.07-.07.24.1l.03.1.31.03-.48.07-.1-.31ZM22.86,24.59l-.1-.03-.07.07c0,.17.07.24.24.24l.14-.03c-.1-.03-.17-.14-.2-.24M13.81,24.18h-.31l.2.17h.48l-.1-.1-.27-.07ZM23.03,24.11l-.14.03-.03.14c0,.07.03.14.1.24l.41.1h-.07l-.14-.14-.14-.37ZM20.14,24.08c-.17.1-.34.2-.41.27l-.17.07.07.07h.07l.14-.14.37-.14.03-.1-.1-.03ZM13.37,20.48l-.44.03-.48.03v.07l.14.07-.03-.03.48-.03.2-.03.2-.07-.2.07.27-.1h-.14ZM12.89,20.14l-.24.17.54-.07-.31-.1ZM19.59,19.08l.03.17-.07.31-.07.24-.03.2.03.07c.07-.17.14-.27.17-.38l.1-.2c.1-.24.03-.37-.17-.41M20.1,18.84l.03.1.03.07c0,.14,0,.2-.03.24-.1.1-.14.24-.14.41s0,.27-.03.31l-.1.44-.07-.37.2-.99-.14-.37.24.17ZM25.17,18.3l.1.27-.14.14-.14-.17.17-.24ZM17.38,18.09h-.14l.03.27c0,.1-.07.27-.17.44v.2c.24-.37.34-.58.34-.61,0,.03-.03-.07-.07-.31M25.07,17.62l-.17-.03-.07.07.07.24.14.1s-.03-.03.07-.07c.07-.03.07-.14-.03-.31M16.56,17.24v.1c.17.03.34.1.44.27l.07-.03-.07-.1s0-.03-.07-.14c-.14-.1-.24-.14-.37-.1M25.03,17.24l.03-.14-.07-.03-.07-.07-.07-.03h-.14l-.03.17.1.2.24-.1ZM20.85,16.94l-1.36.89.37-.07.17-.17c.51-.24.78-.48.82-.65M20.34,17.04l-.24.1-.24.14s-.14.03-.31.03h-.1l.24-.1.24-.1.24-.14c.1-.07.17-.03.17.07M14.25,15.95v.03c.1.17.2.27.24.27l.07-.07-.1-.1-.2-.14ZM20.1,15.44l-.03.14-.17.03h-.1s-.07-.07-.07-.2l.24-.1h.2l-.07.14ZM21.09,14.9l-.1-.07-.17.48-.2.27.03.14c.24-.24.37-.51.44-.82M21.09,14.05l-.07-.03s-.14.07-.27.27c-.17.14-.44.24-.85.24h-.24l-.14-.03c-.07,0-.14.07-.17.17h.1l.07.34-.48.03-.82-.1h-.03c-.68-.03-1.19.31-1.5,1.09l.2.03h-.07l.27-.1h.1l.03-.17-.24.03.17-.2.54-.1-.24-.07.65-.1h-.1.03l.14-.07-.03-.1h.1l-.14-.07.41.14h.24l-.24.03.72-.14h.37v.07l.1-.14-.03-.37.61-.14h.24l-.1-.03.27-.07c.1-.03.24-.17.37-.41M12.41,12.35c-.31.1-.51.17-.65.17l-.17.03-.27.14c.07.03.17.03.31.03.31,0,.65-.14,1.02-.37h-.24ZM22.21,11.56v.2c.03.1.07.2.1.27.03.1.07.17.1.27h.07l-.07.03v.03-.75l-.2-.07ZM6.36,9.73c-.65-.34-1.29-.51-1.87-.51-.1,0-.17,0-.2.03v.07l.54.07,1.53.34ZM3.84,9.15l-.14.1.07.14h.2l.03-.17-.03-.1-.14.03ZM3.4,9.32l.07-.2-.34.1.27.1ZM5.27,8.81l-.1.27c.24-.03.34-.03.34,0,0-.17-.07-.27-.17-.27h-.07ZM4.86,8.95l.2-.17.07-.03c0-.1-.03-.17-.14-.17v.03l-.07.17-.14.14-.07.1.14-.07ZM4.69,8.26l-.14.07s.03.14.03.24-.07.17-.2.2l.03.1c.24-.07.34-.14.34-.24,0-.03-.03-.14-.07-.38M5.24,7.07l.14.17-.07-.07-.03-.07-.1.1v.03l.24.37.2.37.17.27.37.41.34.1-.24-.2-.2-.17-.17-.31c-.14-.1-.24-.24-.31-.41l-.34-.61ZM4.8,7.28l.17-.07.1.07-.17.1-.1-.1ZM4.66,6.97c.03.1.1.1.2.07l.07-.14-.07.07-.14-.03-.07.03ZM2.35,6.6v.03l-.14.03.37.44.17.17.1.07.1.03h.2l-.1-.1c-.34-.24-.54-.41-.58-.51l-.03-.07-.1-.1ZM5.1,6.63l-.03.24.17-.07.03-.14-.03-.07-.14.03ZM3.2,6.97s-.14-.1-.31-.24-.24-.2-.27-.2l-.07.07.07.07.1.1.17.14.07.1.2.07.03-.1ZM4.49,6.67l.14.07h.03c.1,0,.17-.03.17-.1,0-.03-.07-.03-.17-.03h-.03l-.14.07ZM5.37,6.26l-.14-.03c-.1.03-.17.1-.17.17,0-.03.07-.07.2-.03l.1-.1ZM3.71,6.16v.17l.54.85c.1.1.17.24.24.31.03.14.1.2.14.27l.2.27.54.51.07.07.24.17.17.14.17.07.24.17.1-.1-.34-.24c-.1-.03-.2-.1-.31-.17-.07-.03-.14-.1-.24-.14l-.1-.2-.2-.17-.44-.48-.03-.1-.27-.37c-.17-.24-.27-.44-.38-.65l-.17-.34-.1.07-.07-.1ZM4.8,6.19h-.14l-.1.07h-.2c-.1.03-.03.07.17.14.17.03.24-.03.27-.2M5.14,5.85v.14l.2.03.03-.2-.1-.07-.14.1ZM3.57,5.54l-.03.31.27-.17-.24-.14ZM3.37,5.07v.24c.14-.03.2-.03.24,0,.03-.03.03-.1.03-.2l-.1-.03h-.17ZM3.43,4.56l-.17.17.03.17.2-.14-.07-.2ZM3.4,4.18l-.14.07-.1.07s.07,0,.07.17l.03-.07-.03.07.27-.1-.1-.2ZM3.03,3.81l-.14.24.24.07.07-.17-.07-.1-.1-.03ZM4.01,3.67l-.14-.31.17.68.03.34-.03.24.17.27v-.61l-.2-.61ZM11.63,3.54l.17.14-.1.07-.07.03-.31.1.1-.31.2-.03ZM11.63,3.33l-.34-.1-.07.07c-.1.1-.14.2-.1.27l.1-.07.41-.17ZM10.88,2.82l-.1.2.17.14.31-.27-.37-.07ZM10.68,2.79l.14-.14-.34-.07-.03.14.14.2.1-.14ZM10.51,2.38l-.34-.07.07.24.27-.17ZM9.86,2.11l.17.07-.1.14h-.2l-.07-.17.2-.03ZM21.8,25.34l.17.17.1.1.1.1.14.14-.17.14-.17.2-.72-.03.27-.34c.1-.1.2-.27.27-.48M1.09,25.44l.14-.2c.17-.17.31-.27.41-.27h.03c.27.03.61.17,1.05.41.1.07.24.14.34.2.14.03.27.1.37.14l.31.1.34.07.07.07c-.37-.03-.75-.1-1.09-.2l-.85-.27c-.24-.07-.44-.1-.54-.1-.27,0-.41.14-.41.41h-.07l-.07-.17-.03-.17ZM13.77,24.93l.03.07.1.07.27.17c.27.17.41.37.41.58v.07l-.03.07-.31.14v-.34c0-.14-.03-.24-.1-.31l-.27-.24c-.1-.07-.17-.14-.2-.17l.1-.1ZM11.05,25.2c.03-.34.14-.51.37-.51.31,0,.48.14.48.41,0,.07-.03.1-.14.14l-.03-.07c-.1-.14-.2-.2-.31-.2s-.17.03-.17.14v.65l-.03.1c-.14.17-.37.27-.75.27-.51,0-.75-.2-.75-.65,0-.1.07-.14.24-.17.03.37.24.58.58.58.41,0,.58-.17.54-.48l-.03-.2ZM9.56,24.69l-.41.31c.07-.14.2-.24.41-.31M21.97,24.73l.07-.17h.07l.07.1v.07l.14.2.07.1c.24.14.48.24.71.27h-.14.07l.1.07c0,.07-.1.17-.27.31l-.37-.14-.27-.2-.1-.1c-.1-.1-.17-.2-.17-.31l.03-.2ZM12.21,24.66c.31-.03.48-.07.58-.1l.14-.1s.14,0,.27.17l.1.14.03.58-.27-.1.03.24c.03.38-.1.58-.41.58-.1,0-.2-.03-.34-.1l-.03-.14.24-.14v-.1l.07-.24-.14-.24-.14-.14-.2-.24.07-.07ZM5.78,25.03c0-.1.07-.2.2-.34.1-.17.27-.24.48-.24.17,0,.24.1.24.31l-.14-.03c-.24,0-.37.03-.37.14s.1.24.34.37c.17.03.31.03.41.07h.31c.1,0,.27,0,.48-.07l.71-.1.48-.14c-.44.37-1.16.58-2.08.58-.71,0-1.05-.17-1.05-.54M11.33,24.18h1.33l.03.14s-.07.07-.24.07l-.37.03-.14.03-.03-.03-.14-.03-.14.03h-.24l-1.5-.1h-5.14c-.17,0-.34-.1-.48-.31.27.07.48.1.65.1s.27,0,.31-.03l6.09.1ZM17.65,23.57l.03.17c0,.34-.37.54-1.09.58l.14-.1c.17-.03.37-.17.61-.34l.31-.31ZM1.39,23.37l.1.37.03.27.14.41c-.14-.14-.2-.27-.24-.41,0-.1,0-.24-.03-.37v-.27ZM2.62,24.35c-.07-.17-.1-.27-.1-.37s.03-.24.1-.34c.17-.2.37-.31.61-.31.07,0,.2.03.37.1v.1c-.24.1-.37.31-.37.54,0,.14.07.24.24.34l.41.17c.31-.1.48-.17.54-.17h.14c.07.03.14.03.24.07-.27.37-.68.54-1.22.54-.27,0-.51-.1-.71-.31l-.14-.17-.1-.14v-.07ZM18.06,23.64l-.03-.1c0-.17.07-.27.2-.27.17,0,.27.1.27.27s-.1.27-.27.27l-.07-.03-.1-.14ZM17.14,23.2l.07-.03.03-.03c.1,0,.17.07.17.17,0,.2-.07.31-.24.31-.1,0-.14-.03-.14-.14,0-.07.03-.17.1-.27M1.5,22.72l-.07.65-.1-.37.17-.27ZM17.79,22.79c.1,0,.17.1.17.27,0,.14-.03.2-.14.2-.17,0-.24-.1-.24-.27v-.07c.03-.1.1-.14.2-.14M11.05,22.69l.1.03-.03.31-.2-.07.14-.27ZM4.93,22.92v-.03c0-.17.07-.24.17-.24s.14.03.14.14-.07.17-.24.14h-.07ZM9.35,22.21c.14.03.2.14.24.31-.14,0-.2-.1-.24-.31M6.8,22.07l.31.07.89.1.34.03h.82c.07.2.27.41.61.61l.85.34.48.1.31.03.31.03.37.03c.14.03.24.07.37.1.07.03.17.03.27.07l.03.1c.1.07.14.14.14.2,0,.14-.17.2-.55.2l-.48-.03h-.2c-.14,0-.24,0-.31.03l-.41-.03-3.13-.17-3.03.07c-.51,0-.75-.1-.75-.31v-.07l.03-.07.17-.1s.2-.1.48-.14c-.03,0,.17-.07.54-.17.07-.03.17-.07.34-.1l.85-.48.17-.17.17-.31ZM3.1,21.84c.1-.03.2-.03.27-.07h.14c.1,0,.14,0,.17.03.17.1.24.24.24.41,0,.03-.07.1-.24.17-.03-.24-.2-.44-.58-.54M5.31,21.73l.07.17-.17.14-.31.44c-.24.34-.68.51-1.33.51-.07,0-.17,0-.31-.07-.1,0-.24-.07-.34-.1-.14-.03-.27-.1-.34-.14-.14-.03-.17-.1-.17-.14l.1-.1.1-.14c.37.31.71.44,1.02.44.2,0,.54-.14,1.02-.41l.65-.61ZM20.03,21.8c.24.17.37.37.37.61,0,.14-.07.34-.2.61l.03.1.24-.03c-.1.31-.2.51-.31.54l-.41.14-1.36.95c-.17.03-.34.1-.48.14-.14.03-.27.07-.37.1v.07l.51-.14c.51-.1.89-.27,1.09-.48l.17-.1.14-.07.27-.24c.1-.07.17-.14.2-.17h.17c.1-.03.2-.03.31-.03.1-.03.17-.03.2-.03l.24-.03.1.1c0,.1-.03.2-.1.37l.27.1.17.1c.17.24.27.44.27.58,0,.24-.07.44-.27.65-.14.21-.34.31-.54.31-.24,0-.37-.14-.44-.41h.17c.2,0,.31-.1.31-.34,0-.17-.1-.27-.27-.27l-.88.34-.27.03-1.02.24c-.31.07-.78.1-1.36.1-.85,0-1.63-.14-2.31-.41l-.92-.41c-.14-.03-.24-.07-.27-.1l-.03-.14.07.07.2.07.88.03c.27.03.41,0,.41-.1l-.03-.1-.1-.14v-.14c.31.03.65.07.95.14.31,0,.65.03.95.03.65,0,1.22-.14,1.67-.37l.1-.07.27-.1c.1-.07.17-.14.24-.2.1-.07.17-.14.24-.17l.2-.31.2-.2c.03-.1.03-.2.03-.31l.03-.17c0-.27-.1-.41-.34-.41-.14,0-.31.07-.54.24l.1-.31c.17-.24.37-.34.68-.34l.37.07ZM24.11,22.04v-.2l.03-.27.1.17-.14.31ZM23.23,22.41c.03-.1,0-.24-.17-.37-.17-.2-.27-.31-.31-.34,0-.14.1-.2.34-.2.1,0,.17,0,.2.03h-.17c.44.03.68.31.65.82v.14l.17.03-.14.03h.14c.07-.1.14-.17.24-.17h.1v.1c.03.2-.03.41-.14.65l-.03-.24c-.17.1-.31.27-.37.44h.1c.07.03.14,0,.24-.1l.03.14c-.27.2-.51.37-.68.48s-.27.2-.27.31c0,.17.1.24.31.2h.17l.31-.34.37-.61c.17-.27.48-.44.92-.51l-.03.31.24.03.1-.03s.1.03.17.14c.17.24.24.44.24.61,0,.14-.07.31-.17.51-.14.2-.27.31-.44.34l-.75.14c-.07,0-.1.07-.1.17,0,.03.03.14.07.31.17.14.31.2.48.2s.27,0,.34-.03c-.24.17-.44.27-.58.27-.37,0-.58-.17-.58-.48,0-.17.03-.31.14-.48l.44-.27.41-.14.27-.24c.1-.03.14-.07.14-.14,0-.14,0-.24-.03-.27-.17-.1-.31-.17-.41-.17s-.31.17-.61.48l-.24.24c-.37.58-.75.85-1.16.85-.17,0-.37-.1-.61-.31l-.14-.17-.14-.41.2-.51.1-.27.24-.34.07-.2.27-.41-.03-.03.1-.17ZM2.55,21.67c.31-.2.58-.31.82-.31.44,0,.88.17,1.33.54-.1.14-.2.2-.24.2-.07,0-.17-.07-.27-.17-.14-.14-.34-.24-.61-.27-.51,0-.95.14-1.26.44-.34.31-.51.65-.51,1.09,0,.75.41,1.39,1.19,1.9l.1.03.1.07c1.02.44,1.94.65,2.72.61l1.26-.07c.31-.03.58-.07.85-.17.27-.07.54-.17.78-.27l1.4-.75-.14.2c-.03.1-.14.17-.27.2l-.88.48c-.65.38-1.39.58-2.25.58-2.11,0-3.6-.41-4.45-1.19-.41-.37-.61-.85-.61-1.46,0-.65.31-1.19.95-1.7M25.54,21.33l.2.1-.03.2c-.24.03-.44.2-.61.51.03-.31.14-.54.31-.75l.14-.07ZM11.43,21.46c.31-.17.54-.24.78-.24h.17l-.31.2-.24.2-.17.07-.17-.07-.07-.17ZM5.44,20.78v.14l-.1-.03-.14-.1h.24ZM2.31,20.58c.17.07.24.17.24.34,0,.44-.2.78-.65,1.02.31-.44.48-.78.48-.95v-.14c-.03-.07-.03-.17-.07-.27M3.91,20.71c-.1-.03-.14-.07-.14-.17l.07-.03.07.1v.1ZM16.77,20.58l.2-.37.03.1v.03l-.03.07-.17.31-.07.1c0,.1.03.14.1.14l.1-.07.07-.1-.03-.07.1-.03.1-.14.07.07.17.07-.03-.2h.1v.41c.03.2-.03.44-.2.71-.07.1-.14.14-.2.14l-.07-.1v-.1c-.24.17-.44.27-.61.27-.1,0-.14-.07-.14-.17l-.03-.37c-.03-.14.07-.37.31-.71l.24.03h-.17.17ZM4.39,20.17c-.03-.1-.03-.2-.03-.27l-.03-.14c0-.14.1-.2.27-.2l.03.03c0,.1,0,.17-.03.2l-.03.03c0,.07.03.17.1.31.2.27.37.44.48.48v.1c-.17-.1-.31-.17-.44-.24l-.31-.31ZM20.68,19.83c.24-.24.44-.37.54-.37.44,0,.68.31.68.89,0,.99-.37,1.84-1.16,2.55l-.03.14-.03-.1-.03-.03.1-.1.1-.14c.1-.1.17-.2.24-.31.03-.1.1-.17.14-.27.17-.24.31-.58.41-.95v-.34s.03-.14.03-.24c0-.07-.03-.14-.14-.24l-.07-.1-.14-.1c-.24-.03-.34-.07-.31-.07-.14,0-.24.03-.34.14v-.34ZM22.31,21.46l.14-.2.07-.27.41-1.12c.14-.34.41-.51.78-.51.24,0,.37.14.37.41v.07h-.17c-.17,0-.31,0-.41.03-.24.04-.48.38-.78,1.06l-.24.61c-.17.48-.48.99-.92,1.5,0-.14.07-.27.24-.44l.51-1.12ZM2.52,19.35l1.12,1.02v.1l-.1-.03c-.17-.17-.34-.31-.54-.51-.14-.14-.31-.34-.48-.58M2.31,18.98l.2.27c-.1,0-.17-.1-.2-.27M6.05,18.94c.03.1.03.2.07.27v.17c0,.24-.1.68-.31,1.29h-.1l.03-.41.14-.44.1-.54.07-.34ZM12.96,19.05v.07l-.03.07c-.1,0-.14-.03-.14-.14s0-.14.03-.17l.14.17ZM6.05,18.67l.1.24-.14-.07.03-.17ZM4.11,18.6l.1.03.24.27.41.17.27.24.44.1c0,.14-.03.2-.07.2l-.07-.03-.2-.03-.24-.1-.41-.24-.27-.2c-.14,0-.21-.1-.21-.27v-.14ZM8.77,22.04l-.92-.03c-1.53-.1-2.72-.51-3.64-1.29l-.71-.61c-.24-.17-.37-.31-.41-.38l-.37-.51-.17-.2c-.14-.17-.2-.34-.2-.51,0-.14.03-.2.14-.2.03,0,.1.07.17.24.31.54.54.88.71,1.05l.92.78c1.19,1.05,2.79,1.5,4.73,1.39h.17l.54-.07h.03c.14,0,.2.07.2.2h-.07l-.2.07-.92.07ZM17.99,18.16l1.43.2c.58.03.88.27.95.71l.07.31-.1.1-.1.51-.03.17c-.1.14-.17.37-.24.71l-.27-.07-.27-.27h-.14l-.03.58c-.03.41-.41.82-1.16,1.19.03-.07.03-.17.03-.31,0-.03-.03-.27-.1-.75l-.07-.31-.1-.14v-.24l-.1-.14-.03-.17c-.1-.17-.14-.31-.14-.41,0-.14,0-.24.03-.31.1.27.2.37.27.34h.07l-.03-.14-.1-.17v-.44c.1.1.17.2.2.34l.1.07.03-.03.1-.03-.17-.31-.03-.75.17.37h.24l-.07-.1.1.03v-.03l-.17-.07-.17-.24-.03-.24h.1-.24ZM6.67,18.84c-.1-.24-.2-.37-.27-.41-.03-.03-.2-.1-.44-.2-.1-.03-.17-.1-.17-.2l.1-.1c.2.03.44.17.71.41.2.2.31.44.31.71,0,.17-.1.34-.34.51l-.2-.07c.24-.17.34-.31.34-.41l-.03-.24ZM4.15,19.15c-.1.1-.2.14-.34.14-.2,0-.31-.14-.31-.41s.14-.51.44-.71c.31-.17.58-.27.85-.27l.14.03-.07.1-.82.27c-.2.17-.31.31-.31.41,0-.03.03.07.07.31l.34.14ZM23.2,17.62l.1-.03.37.03.44.44.1.31c.24.65.34,1.19.31,1.7v.17l-.17.95c0,.1-.03.17-.07.2l-.07.03.17-1.05v-.27c-.07-1.23-.38-1.84-.92-1.84-.2,0-.37.14-.51.44-.1-.17-.17-.34-.17-.44,0-.14.1-.34.27-.58l.14-.07ZM1.8,21.46c-.07,0-.1-.07-.14-.24-.03-.14-.03-.24-.03-.27-.03-.24-.07-.41-.14-.54,0-.17-.03-.31-.03-.41,0-.34.07-.75.24-1.23.17-.48.34-.82.54-.99l.41-.34c.1-.1.17-.14.24-.14l.07.1c0,.07-.07.14-.2.2-.27.17-.51.44-.78.88-.2.41-.34.82-.31,1.19l.03.14.07.58.1.65.03.17v.07c0,.1-.03.17-.1.17M1.05,17.45l.24-.24h.03c.1,0,.21.07.31.2.14.14.2.24.2.34,0-.03-.03.03-.07.17-.17-.24-.41-.37-.72-.48M4.76,17.28l.14-.1.07-.03c.37,0,.54.17.51.48v.03l-.03.17-.07.34h-.14l-.03-.51-.24-.24-.2-.14ZM21.19,17.01c.38.2.68.58.95,1.09.27.54.41,1.05.41,1.53l-.03.17c0,.1,0,.2-.03.31-.2,1.05-.41,1.7-.61,2.01l-.58.85-.14.2-.27.27-.14.1-.1.07-.1-.03v-.14l.1-.1.68-.82.2-.31.27-.41c.1-.31.17-.54.2-.78s.07-.41.1-.54l.1-.27s.03-.1.03-.24c0-.17-.03-.41-.1-.71l-.1-.51-.03-.1-.2-.48c-.03-.07-.1-.14-.2-.24-.34-.48-.51-.68-.51-.61,0-.07.03-.17.1-.31M16.26,16.94h.27l.31.1.24.14.17.2.1-.03-.03.07c.2.27.31.54.31.78,0,.65-.27,1.26-.82,1.84-.54.58-1.19.99-1.97,1.19l-1.39.37c-.58.17-.85.37-.85.68,0,.17,0,.27.03.31l-.2-.07-.07-.1c-.1-.1-.17-.2-.17-.31,0-.17.14-.41.44-.71h-.07l.27-.14.1-.1.38-.14.17-.03h-.14c.24-.1.41-.17.54-.24l.37-.2.71-.41c.37-.2.61-.41.71-.61l.2-.31.2-.2-.14.2c.14-.1.2-.17.2-.24,0-.1,0-.14-.03-.17v.1l-.14-.03c-.1,0-.17.07-.27.2l-.2.31-.24.24-.17.14-.1.1c-.48.38-.88.65-1.22.75l-.27.1c-.37.17-.75.24-1.09.24.03,0-.07-.03-.24-.07l-.41-.14c-.1-.03-.2-.07-.24-.14l-.03-.1.1-.1.07-.1c0-.07-.17-.1-.48-.1l-.1-.1c-.2-.17-.31-.44-.31-.85,0-.24.07-.48.24-.71.41-.44.82-.65,1.19-.65.54,0,.82.17.82.54,0,.14-.03.24-.14.34v-.1c.03-.31-.17-.48-.65-.48-.58,0-.85.27-.85.85,0,.14.07.27.2.44l.17.1c.17.1.37.14.54.14h.27c.14-.03.24-.03.34-.07l.38-.1c.37-.17.71-.41,1.05-.78l.34-.37.27-.48c.17-.31.44-.58.75-.78l.1-.07.14-.03-.03-.03.34-.07ZM13.71,16.53l.1-.1.14-.03c.1,0,.2.07.31.2l-.14.17.41.03.17.1.24.1-.51.1.07.07.44-.1h.03c.1-.03.2,0,.27.17l-1.19.27h.14l.48-.07h.27l-.2.24-.34.03-.14.07h.44c-.03.17-.1.24-.27.24v.1c0,.1-.07.14-.2.14l-.34-.07-.31-.14c-.41-.17-.61-.31-.61-.44l.03-.07.1-.07.31-.24.2-.1.1-.07-.03.03v-.07l-.07.03-.27-.07.14-.27c.03-.1.14-.17.24-.2M10.95,16.36l.1.14c0,.07-.03.17-.03.27-.07.1-.07.2-.07.27,0,.34.14.51.37.51h.03l.41-.24c.03.17.07.27.07.24,0,.24-.17.37-.54.37-.14,0-.27-.1-.41-.27-.03-.1-.03-.17-.07-.24v-.14c0-.31.03-.61.14-.92M5.75,16.22l.1.03.37,1.5c-.14.03-.2.07-.17.07-.03,0-.07-.07-.1-.17l-.03-.07-.07-.44c-.14-.41-.2-.61-.2-.65,0-.07.03-.17.1-.27M11.09,15.95c-.03-.24-.07-.37-.07-.41,0-.17.07-.24.17-.24h.27c.1.03.24.03.41.07l.24.03h.37l.1-.03v.48c-.03.51.1.88.38,1.16l.1.17-.03.03-.14-.03c-.07,0-.2.03-.44.1l-.07.03c-.1,0-.27-.14-.48-.38l-.03-.14-.07-.2v-.51h-.1c-.17.1-.31.17-.34.17-.1,0-.17,0-.2-.03l-.07-.27ZM9.62,15.68l.38-.07.17-.24.07-.03.1.1c0,.14-.14.31-.38.48l-.17.07c-.1,0-.14-.1-.17-.31M10.78,15.37s.03.1.07.24l.03.54-.14.48-.27,2.21.03,1.02.2.68.07.27.27.51.14.27.27.31.17.27.17.1.1.14.14.14v.03l.17.1.41.27.07.07h.27l.14.2.34.14.1.07.14.07c.07.03.2.03.41.03.17.03.34.03.41.07h.24c.14,0,.37-.03.68-.1h.1c.24-.17.44-.37.61-.65v-.03c.03-.17-.03-.27-.14-.34-.1-.07-.2-.14-.27-.17l-.48.07c-.2.03-.31.1-.31.2l.03.03.03.1v.07l.07-.03c-.14.34-.44.51-.88.51-.54,0-.82-.14-.85-.41l.03-.54.34-.27.14-.14v-.03l.14.1v.07c0,.1-.1.2-.31.31-.1.03-.14.1-.14.2v.1c.24.24.44.34.61.34h.14c.07-.03.14-.03.24-.07v-.2s-.03-.07-.14-.1c.17-.48.58-.71,1.26-.71.17,0,.41.07.68.2.17.17.27.34.24.48v.2l.07.03.31-.1c-.31.99-.85,1.5-1.6,1.5-.31,0-.58-.03-.82-.14,0,.1.03.2.1.27.1.1.14.14.14.17,0,.1-.07.14-.24.14l-.61-.03c-.17,0-.31-.03-.48-.14l-.34-.17.14-.2-.03-.24c-.17-.34-.44-.54-.82-.58-.54-.07-.88-.24-1.05-.54l-.07-.1c-.03-.1-.14-.17-.27-.17-.03.17-.1.31-.2.41l-.07-.14-.1-.14-.2-.34-.31-.78-.24-1.02-.07-.54c-.03-.07-.03-.24-.03-.48v-.78c0-.92.14-1.77.44-2.55l.31-.75.07-.03c.1,0,.17,0,.2.03M16.53,14.83l.03.17.1.2-.1.2-.03.1-.07-.07-.17.03c.1.1.14.17.14.24v.24l-.17-.1-.03-.14-.07-.03-.1-.03.14.31c.14.1.2.2.2.24l-.03.14-.2-.17-.48-.31.41.41h.03l.1.1c.1,0,.17.07.17.24v.03l-.1-.07c-.31-.03-.48-.14-.51-.31-.1-.03-.17-.1-.27-.14-.07-.07-.17-.14-.27-.24h-.03l.1.17.51.51.31.17c-.17.03-.27.07-.24.07-.03,0-.1-.03-.2-.1l-.07-.07-.27-.1.14.2.14.03.03.14-.48-.14.2.17v.07l-.07.07h-.17l-.2-.17-.34-.2-.27-.24-.24-.2-.1-.03-.14-.27-.14-.2-.1-.14-.1-.24,1.8-.24-.31.03.61-.07h-.14l.2-.1.61-.07h-.31l.54-.1ZM3.03,15.95c.24-.85.65-1.29,1.22-1.29.24,0,.48.07.72.2.07.03.14.07.24.17v.07l.17.37-.1.1s-.17-.1-.37-.31c-.2-.2-.41-.31-.58-.31-.72,0-1.06.54-1.06,1.6,0,.1.03.24.07.41l.24.72.07.34-.1.03s-.1-.1-.17-.27l-.24-.65c-.07-.17-.1-.44-.1-.85v-.34ZM24.32,14.29l.14.14.14.41.24.54c.44.88.65,1.97.65,3.3,0,.82-.03,1.36-.14,1.6l-.2.88c-.03.17-.07.34-.1.41-.03.14-.03.2-.07.24-.03.17-.14.41-.31.78h-.1l.1-.41-.34-.03c.03-.14.07-.27.1-.44.03-.14.07-.27.1-.44l.1-.65c.03-.07.03-.24.03-.48,0-1.09-.24-2.04-.68-2.82l-.14-.2-.31-.31-.37-.27c-.17-.07-.31-.1-.37-.1-.44,0-.71.24-.88.71-.14-.03-.2-.1-.24-.14l-.1-.17-.1-.24.14-.41v-.17l.24-.31c.31-.1.54-.17.75-.17h.1l-.2.07.24-.03c-.14-.27-.2-.44-.2-.54,0-.2.07-.31.24-.31l.07.07.44.17.24.14.14.1.14.03c.37.37.58.85.61,1.36,0,.14.1.24.27.27l-.1.03c.1-.1.17-.17.17-.2,0-.07-.07-.2-.17-.37-.17-.41-.31-.68-.41-.82v-.1c-.14-.1-.2-.17-.2-.24,0-.03.07-.27.2-.68l.17-.2ZM6.5,14.29l.1.03c-.31,1.05-.92,1.8-1.87,2.31l-.68.31-.27.14-.03.03h-.03l-.14-.1c0-.1.07-.14.24-.17.37-.1.72-.27,1.02-.51.95-.78,1.46-1.43,1.53-1.97l.14-.07ZM25.03,14.05c.17.03.27.14.27.24,0,.2-.07.31-.24.31-.07,0-.14-.07-.24-.24v-.14l.2-.17ZM2.28,14.46c.24-.55.61-.82,1.16-.82.31,0,.44.17.44.51-.14.24-.24.34-.27.34-.07,0-.1-.07-.1-.17v-.1c-.14-.17-.27-.24-.41-.24-.31,0-.58.31-.82.89-.14.37-.2.71-.2.99,0,.1.03.34.1.78l.03.38c.03.14.07.2.07.17,0,.1,0,.17-.03.2l-.14-.17-.14-1.5c0-.31.03-.58.14-.82l.17-.44ZM20.82,13.81l.31-.2c.24,0,.34.41.34,1.22,0,.37-.03.58-.14.68l-.31.34-.2.31.44-.07-.07.34-.31.71c-.31.68-.82.99-1.5.95l-.88-.07c-.37-.03-.58-.1-.58-.17,0-.03.03-.1.14-.2l.31-.34c-.2.1-.41.24-.58.41l-.07-.1c.03-.17.14-.31.31-.44l.34-.14h-.14l.1-.07.1.03v-.17.14l-.07-.1c-.1,0-.24.07-.41.24l-.27.24c.03-.17.1-.34.27-.44l.1-.17.2-.1.14-.1-.14.1.2-.1.2-.24.27-.07.1-.17-.1-.03.1.03-.17.2.07-.2c-.17.03-.27.07-.34.1-.03.03-.17.14-.37.31-.2.2-.34.31-.44.31l-.14-.03.17-.75h-.14s-.03.1-.07.27v.07c-.03.07-.03.1-.07.2-.1.27-.24.41-.34.41l-.1-.07s.03-.14.1-.27c.1-.17.14-.27.14-.34l-.17.03c-.03.17-.07.31-.14.41-.07.1-.14.17-.17.2-.2,0-.31-.17-.31-.54,0-.71.31-1.33.92-1.77.14-.14.34-.24.58-.31.17-.1.31-.14.41-.14.1-.03.38-.03.82-.07h.44l.34-.07h.24l.51-.2ZM24.42,13.67c.1-.03.2-.07.27-.14l.07-.03h.17c.1.03.17.1.17.17,0,.1-.1.17-.34.2-.07.03-.14.07-.24.14-.1.03-.2.1-.31.2l-.27.24c.1-.31.24-.55.48-.78M25.41,13.98c-.03-.17-.07-.27-.07-.31,0-.1.07-.17.17-.17.2,0,.31.07.31.24s-.14.24-.37.24h-.03ZM4.08,13.4l.27.2-.07-.07-.2-.14ZM14.15,13.23c.2.03.41.1.61.2l-.24.14-.78.14-.31.07-.07-.07v-.07c0-.07.07-.17.17-.27l.61-.14ZM15.31,13.26c-.17.1-.31.17-.34.17l-.07-.1c0-.17.07-.24.24-.24.07,0,.14.07.17.17M10.75,13.06l.31.14c-.37.31-.75.48-1.09.48-.1,0-.14-.1-.14-.31l.92-.31ZM3.3,12.89l.65.51-.75-.37.1-.14ZM24.93,13.23s-.03-.07-.03-.17.07-.17.2-.17c.17,0,.27.07.27.24s-.07.24-.17.24-.17-.03-.27-.14M9.73,13.03l.65-.2h.03c.1,0,.17.07.17.2-.17.03-.27.07-.34.1l-.44.17-.1-.1c0-.1,0-.14.03-.17M19.45,12.96c.1-.2.34-.37.65-.48h.54l.61.14.78.44c.14.1.31.24.48.44l.27.27c.2.2.34.37.37.51l.14.07.14.27.1.1-.03.14-.14-.1-.17-.31-.68-.72c-.54-.58-1.16-.88-1.87-.88-.34,0-.61.17-.85.51l.03.41c-.31-.03-.44-.17-.44-.41,0-.03.03-.17.07-.41M3.71,12.45l.17.07c.24.27.71.58,1.36.88l.82.24.37.03c.31,0,.44.07.44.17,0,.17-.07.24-.24.2l-.48-.03-.41-.03c-.51-.03-1.05-.24-1.63-.68l-.37-.24-.14-.1c-.14-.03-.2-.07-.2-.14l.03-.1.27-.27ZM19.22,11.97l.34.07c-1.12,2.31-3.5,3.37-7.21,3.2l-2.31-.17h-.03c-.31-.03-.51.07-.58.34l-.07,1.05v5l-.2.03-.03-5.41c0-.51,0-.82.03-.88.03-.07.1-.17.2-.27l.2-.1,1.02.03c.1.03.24.03.41.03.14,0,.24,0,.31.03l.61.07h.1l1.23-.07.48.03,1.16-.17.27-.03.37-.07.27-.07.65-.2.44-.17.54-.34-.03-.03.34-.17c.17-.1.31-.2.41-.31l.61-.61.27-.24.17-.31.03-.27ZM3.13,12.35l.34-.34c.24-.24.37-.34.48-.34s.14.03.14.14c0,.03-.24.24-.75.65-.71.58-1.16,1.36-1.39,2.38-.1.58-.17.95-.17,1.12,0,.44.07.78.17,1.06.1.2.17.37.17.44,0,.14-.03.2-.14.2s-.14-.14-.14-.37c-.17-.48-.24-.95-.24-1.43,0-1.46.48-2.62,1.43-3.47l.1-.03ZM1.12,12.07c.14-.24.34-.37.65-.37.24,0,.41.03.48.1l.17.17.31.24c0,.1-.07.17-.17.2-.24-.14-.44-.2-.58-.2-.41,0-.61.17-.61.54,0,.17,0,.31.03.34-.14,0-.24-.07-.31-.17l-.03-.14c-.03-.1-.03-.2-.03-.24l-.03-.1c0-.1.03-.2.14-.37M5.07,11.53c.99.03,1.5.51,1.56,1.5,0,.17,0,.31.03.37l-.14.03s-.07-.07-.07-.2c-.1-.92-.61-1.39-1.46-1.5v-.07l.07-.14ZM4.76,10.95l.14-.07h.07c.14,0,.2.1.24.34-.37.03-.54.2-.54.51,0,.1.03.2.1.31.24.51.54.82.92.92.37.1.54.2.54.31v.03l-.61-.1c-.44-.07-.82-.41-1.12-.99l-.03-.07c-.1-.17-.14-.31-.14-.44,0-.2.1-.44.27-.68l.17-.07ZM20.58,10.68h.14l.34.2.31.2.07.03c.24.1.34.17.34.27s-.03.24-.1.41c-.1-.1-.2-.17-.31-.24l-.24-.14-.34-.14-.31-.17.1-.44ZM2.18,10.31c.24,0,.37.07.41.24l.2.51s.14.24.31.58c.03.14.07.2.07.17,0,.1-.14.2-.37.31l-.14-.14-.17-.34c-.03-.1-.1-.24-.17-.34l-.14-.31c-.17-.24-.24-.41-.24-.54l.1-.1.14.03v-.07ZM10.78,10.31l.41-.17.31.17.03.61.31.34c-.1.17-.24.24-.44.24-.24,0-.37-.07-.41-.24v-.17l.1-.24v-.07c0-.14-.07-.2-.17-.2-.31,0-.48.17-.48.51,0,.51.34.75.99.75.14,0,.31,0,.48-.07l.68-.1.92-.24c.31-.1.58-.17.82-.2l.17-.03.14-.03.44-.17,1.29-.2c.1-.03.24-.03.37-.03.1-.03.24-.03.41-.03.24,0,.48.03.75.03.2.07.48.1.71.14l.78.2c.17.03.31.07.41.1s.2.03.31.07c.51.14.92.34,1.29.61l.2.14.07.03.1.07.31.68-.44-.24-.34-.14-.51-.17-.75-.31c-.82-.31-1.63-.48-2.42-.48-1.43,0-2.76.51-3.94,1.5-.34.31-.58.61-.75.88h-.34l.41-.65h-.14l-.17.31-.17.17-.07.17h-.41l-.41.03-.41-.03c.1-.37.37-.68.78-.85l.2-.1.1-.07.2-.14.51-.24.34-.1-.07.1.03-.24-.27.17-.58.24-.92.41-.1.03c-.24,0-.48-.14-.78-.41l.1-.14.07-.03.07-.14c-.61,0-.92-.37-.92-1.09,0-.2.1-.41.34-.65.14-.17.27-.27.44-.31M17.75,10.68c-.1-.03-.2-.03-.27-.07h-.14l-.61.03h-.24c-.54.03-.82-.1-.82-.48,0-.2.1-.31.31-.31h.07v.17c0,.17.07.24.24.27l.88.14.24.07h.34v.17ZM13.47,9.83l.07-.07.44.24.24.07c.31.1.48.31.48.54,0,.27-.2.37-.58.34h-.14l.1-.1c.07-.1.1-.17.1-.2,0-.1,0-.14-.03-.17l-.68-.65ZM15.58,9.35l.07-.17.07-.03c.07,0,.14.1.17.31-.27.44-.65.65-1.16.65-.27,0-.71-.17-1.29-.48l.03-.2.07.03.17.1.61.27c.07.03.2.03.41.03.17,0,.41-.07.65-.2l.2-.31ZM14.49,9.18c.2,0,.31.07.31.2,0,.24-.17.34-.48.34s-.48-.1-.48-.27h.03l.31.03v-.07.1c.2-.03.31-.14.31-.34M24.18,8.95l-.07.41.14-.07h-.1c.41-.1.65-.17.72-.17.68,0,1.02.34,1.02.99,0,.37-.14.71-.41,1.02l-.14.17-.85.34c-.1.03-.14.1-.14.24,0,.1.03.24.14.37.07.1.14.17.2.17.31,0,.54-.1.71-.34l.03.07.03.07c-.1.17-.17.31-.17.34-.31.14-.51.2-.61.2s-.24-.07-.44-.2c-.24-.24-.37-.48-.37-.71s.03-.41.1-.44l.17-.1.07-.14.92-.34.27-.31.07-.1s.03-.14.03-.31c0-.37-.2-.54-.65-.54l-.1.1.07-.07-.1-.03c-.51.2-.82.37-.89.54l-.2.54c-.1.17-.14.31-.14.44v.27l-.03.14-.03.2c.03.31.1.61.17.88.1.24.17.48.27.65.14.24.2.44.2.54v.07c-.1.17-.17.31-.24.44-.07.17-.14.31-.2.41l-.41-.65-.24-.34-.61-.75.03-.03-.37-.65-.07-.27c-.03-.1-.03-.2-.07-.27v-.14c0-.1,0-.14.03-.17l.1-.27.07-.27.1-.37c.17.03.31.1.31.24.07.14.1.2.17.2l.07-.03.07-.17-.07-.27v-.03l.14-.44c.1-.34.44-.65.99-.95l.31-.1ZM16.22,9.05l.24-.14h.03c.17,0,.27.1.27.34,0,.2-.14.31-.41.31-.2,0-.27-.1-.24-.31v-.1l.1-.1ZM14.9,9.18v-.1c-.03-.17.03-.27.27-.27.17,0,.27.07.27.24,0,.2-.1.31-.31.31-.03,0-.14-.07-.24-.17M15.95,8.33c.1.17.17.31.17.41l-.1.14-.24.03-.07.03c-.14,0-.2-.1-.2-.31s.14-.31.44-.31M21.63,8.33l.41-.2h.1c.1,0,.31.07.61.2.24.2.34.38.34.55,0,.34-.2.54-.61.61l.17-.44c0-.24-.14-.37-.41-.37-.68,0-1.02.37-1.02,1.09,0,.51.14.85.41,1.09.1.1.17.17.17.2l-.03.1-.14-.07-.07-.07-.27-.27-.2-.37-.07-.34-.07-.24s-.03-.14-.03-.27c0-.48.24-.88.72-1.19M16.33,8.13l.07-.03c.17,0,.27.07.27.24s-.07.24-.24.24h-.1l-.07-.38.07-.07ZM10.03,8.13v.1c-.03.31.1.44.37.44.03,0,.27-.1.71-.27l.1-.07.07.07c0,.07-.1.17-.34.31l-.37.27s-.14.03-.31.03h-.03c-.24,0-.44-.1-.61-.34v-.07h.14c0-.2.1-.38.27-.48M15.03,8.06h.03c.24-.03.34.07.34.24,0,.2-.14.31-.37.31-.17,0-.27-.1-.27-.27s.1-.27.27-.27M15.41,7.92v-.1c-.03-.17.03-.27.24-.27.24,0,.34.1.34.31s-.1.31-.27.31c-.1,0-.2-.07-.31-.24M17.62,6.9l.24.07c-.2.31-.31.54-.31.71,0,.34.1.61.27.78.1.1.14.17.14.24v.1l-.1-.03-.24-.34-.07-.07-.03-.1c-.17-.31-.24-.54-.24-.78,0-.03.07-.2.17-.48l.17-.1ZM1.77,6.77l.27.48.14.17v.14l-.07.41v.55l-.34.17-.14-.61.14-1.29ZM20.07,6.16c.44.65.61,1.12.58,1.36v.24c.03.1.03.24.03.34v.82c0,.41-.07.82-.17,1.19l-.07.2-.1.44-.14.37-.27-.14.31-1.26c.17-.48.24-.99.24-1.53s-.14-1.22-.41-2.04M12.96,5.95c.07.14.1.24.1.27l-.03.31c0,.37,0,.61-.03.65v.2c.03.1.03.2.07.31.03.2.03.34,0,.44v.24c0,.14.07.2.17.2l.07-.1v-.03c.17-.03.27-.07.24-.07l.07.03.2.14.14.14h.07l.44-.2c-.03.37-.2.61-.48.68l-.68.14-.07.17v.14l.1.44v.14c.03.27-.14.54-.51.85-.1.03-.17.03-.24.07h-.14c-.1,0-.2-.07-.37-.2.44-.03.65-.17.65-.44,0-.1-.03-.27-.14-.51-.07-.24-.1-.41-.1-.51s.03-.17.1-.2l.44-.24-.1-.31-.03-.38-.07-.37v-.95l.07-.37-.03-.41.1-.17v-.07ZM12.45,5.68c.17.24.27.48.27.71,0,1.67-.61,2.82-1.84,3.54l-.85.48c-.1.07-.2.1-.24.1l-.14-.03v-.41c0-.34.03-.54.14-.65l.58-.14c.24-.03.51-.2.78-.51l.41-.44.27-.51.2-.27c.03-.17.07-.31.1-.34.17-.58.27-1.09.31-1.53M15,5.44l.37.07c.34.03.51.24.51.55,0,.2-.07.31-.24.31-.03,0-.1-.03-.27-.14-.14-.1-.24-.14-.27-.14l-.1.03h-.07l-.17.24.1.17c.14.03.2.07.2.1,0,.17-.07.24-.24.24s-.27-.1-.37-.31v-.17c-.03-.37.2-.58.71-.58l.1.03.14.17h.27l-.03-.17-.14-.07c-.14-.03-.24-.07-.31-.07-.68,0-1.02.31-1.02.88,0,.27.41.44,1.19.48l.07.24-.27-.07-.82-.03c-.27,0-.41-.2-.41-.61,0-.27.17-.54.48-.78l.58-.38ZM22.14,5.31l.34.48.2.07v-.1c-.17-.07-.27-.24-.31-.48l.24.17.31.1h.24c.37,0,.54.1.51.27v.14l-.37.1.2.24.07.14c0,.14-.1.24-.31.31l-.24-.34c-.65-.31-.92-.65-.88-.95v-.14ZM16.67,7.24c-.07-.58-.1-.88-.1-.95v-.24l.17-.99.07.03.2.24c.1.07.14.14.1.2v.17c-.03.37-.03.61-.03.75-.03.17-.03.2-.03.14,0,.92.17,1.56.54,2.01l.41.51.03.1c0,.17-.1.24-.27.24-.03,0-.1-.07-.14-.17l-.2-.24-.1-.07-.14-.17-.2-.51-.17-.34-.07-.41-.07-.2v-.1ZM21.39,4.76l.14.24-.1.2-.03.17.1-.03c0-.1.03-.2.1-.24l.1.1-.07.31h.1l.1-.24.07-.03s.07.03.07.14c0,.27-.17.41-.48.41-.14,0-.24-.03-.27-.07-.03-.07-.07-.2-.07-.41s.07-.37.24-.54M14.97,4.93c.07-.34.27-.51.61-.51.24,0,.48.1.68.27.17.2.27.44.24.68l-.03,1.09.03.48.03.41c-.1-.44-.17-.68-.17-.71v-.27l-.07-.44-.03-.24c-.03-.27-.14-.51-.31-.68l-.07-.07c-.1-.03-.2-.03-.27-.03l-.14-.03c-.14,0-.24.1-.34.34-.1-.03-.17-.14-.17-.24v-.03ZM24.9,4.05c.14,0,.2.2.2.58,0,.78-.2,1.43-.65,1.94-.44.51-.99.75-1.67.75-.17,0-.37-.03-.68-.1-.24-.17-.37-.37-.37-.54,0-.24.17-.37.51-.41v.07c0,.31.07.48.2.54.17.07.41.1.78.1.17,0,.34-.07.58-.24l.17-.07.03-.03.34-.31.41-.65c.14-.51.2-.78.2-.85v-.1c-.03-.17-.03-.31-.07-.41v-.27ZM25.14,3.88c.2.31.31.65.31.95,0,.78-.1,1.26-.34,1.5l-.51.71c-.03.07-.1.14-.2.24l-.34.17-.37.27c-.24.17-.51.24-.88.24l-1.46-.1c-.2,0-.31,0-.34-.03-.1-.07-.14-.24-.1-.48v-.07c.65.2,1.16.31,1.6.31.2,0,.44-.03.68-.1l.2-.1.31-.1.88-.54.17-.34.14-.2c.1-.1.17-.27.24-.51.1-.38.17-.65.17-.78,0-.17-.03-.41-.14-.75v-.27ZM25.41,3.74c.03.1.1.2.14.34l.1.24c.03.1.03.24.07.34,0,.1,0,.2.03.31-.07.68-.14,1.12-.24,1.33-.03.1-.1.24-.2.44-.07.17-.17.44-.34.75-.14.27-.2.51-.2.75,0,.34.17.51.54.51.03,0,.2-.07.48-.17-.07.31-.24.44-.54.44-.2,0-.41-.07-.65-.24l-.17-.14-.1-.17-.03-.65.58-.85.37-.61c.24-.71.37-1.22.37-1.53,0-.03-.03-.17-.07-.41l-.2-.51.03-.07.03-.1ZM10.37,3.67l.24.24-.1.07-.44.03c-.48.03-.72.31-.72.82l.07,1.39-.07.92.03.99v1.67c0,.17,0,.37-.03.54l-.03,1.09c-.03.2-.03.34-.03.37v.34c0,.51.1,1.02.31,1.6l-.1.03c-.07,0-.14-.1-.24-.34-.1-.24-.14-.48-.14-.68l.03-.95-.07-1.4.07-1.63v-2.65l-.03-1.02c-.03-.54.03-.88.2-1.09.17-.14.51-.27,1.05-.34M1.36,4.15c-.2-.03-.31-.07-.31-.17l.03-.07c.1-.17.24-.24.41-.24.07,0,.17.07.27.14.14.14.2.24.2.41,0,.24-.07.65-.17,1.22l-.24.89c-.1.31-.14.65-.14,1.09l.07,1.09c-.07-.17-.1-.31-.1-.41v-1.19l.27-1.6.03-.24-.03-.37-.03-.27c0-.1-.03-.17-.14-.27h-.14ZM12.48,3.57l.61.07.48.03.65.1c.78.1,1.19.24,1.19.37l-1.43-.2-.99-.03-.38-.03-.14-.31ZM21.73,3.98l-.27-.07v-.14c0-.27.14-.41.38-.41.14,0,.27.14.37.41h-.07c-.03-.1-.1-.17-.17-.17-.1,0-.14.07-.17.24l.03-.03c.24,0,.37.17.37.54v.31c-.03.17-.07.24-.17.24.03,0-.03-.03-.17-.07v.17l-.2-.07-.07-.31-.03-.1.24.03v-.1c-.38-.1-.61-.17-.72-.17-.51,0-.85.24-.99.71-.03.1-.1.2-.17.27l-.14-.1c0-.24.07-.44.17-.54l.24-.17.07-.17.34-.2c.17-.07.34-.1.54-.1.1,0,.24.03.44.1l.2.03.03-.07-.1-.07ZM4.56,3.16l.54.2.31.14.37.14.51.34.03.1-.17-.03-.41-.2s-.17-.07-.41-.14c-.37-.14-.65-.31-.82-.48l.03-.07ZM20.75,3.1h.2l.17-.03s.17.07.44.17l-.14.24-.37-.03v.07l.1.03c.17.03.24.07.24.17,0,.17-.07.24-.17.24.03,0-.07-.03-.24-.07l-.31-.17v-.07l-.1-.14.03-.37.14-.03ZM4.73,2.65c1.05.14,1.87.2,2.48.2h1.46c.14,0,.27,0,.37.03.1-.03.17-.03.2-.03l.17-.03c.1,0,.37.24.89.75-.07.03-.14.03-.24.03l-.14.03c-.44.07-.71.2-.82.37-.1.2-.17.54-.17,1.02v7.93c0,.58.34.95,1.06,1.09.24.07.82.1,1.77.1,2.86,0,4.76-.82,5.68-2.41h.44c.41.03.78.1,1.09.2h.14l.03.07c-1.46,2.01-3.57,2.99-6.26,2.89l-3.47-.2c-.27-.03-.44.24-.48.82l-.03,5.27-.03.78h-.24c-.51,0-1.05-.07-1.63-.24l.14-14.76-.14-1.12v-.24c-.07-1.12-.82-1.8-2.21-2.04-.24-.03-.34-.14-.34-.37v-.03l.27-.1ZM22.62,2.58l.61.14c-.07.14-.1.24-.1.27s.07.07.2.07h.03l.14-.1c.51,0,.75.14.75.37l-.07.24-.07.34c0,.1-.03.17-.14.27l-.14.17h-.14l-.07.1h-.14c.1.1.24.17.34.17l.24-.03c-.14.58-.48.85-.99.85-.17,0-.34-.07-.58-.24l.03-.03-.1-.14c0-.1,0-.14.03-.17l.54.03h.14v-.14l-.58-.03.07-.27h.27l.1-.03c.14-.03.2-.07.2-.1v-.1l-.58.14.03-.27.75-.37-.03-.1-.37.17-.34.07c-.1,0-.14-.03-.14-.07,0-.1.14-.2.41-.27l.03-.1-.03.07-.07-.07-.48.2c-.1-.07-.14-.14-.14-.2,0-.03.1-.1.27-.2l.1-.14c-.24.03-.41.1-.51.27h-.1l-.07-.07.14-.27.03-.14.37-.2.1-.07ZM12.24,2.69c.1-.03.2-.03.34-.03l.2-.03h.2s.17.03.34.03h.85c1.87,0,3.33.51,4.46,1.56,1.09,1.05,1.63,2.45,1.63,4.22,0,.34,0,.55-.03.61l-.31,1.36-.17.51c-.03.1-.34,0-.85-.24-.17-.03-.34-.07-.48-.07-.14-.03-.27-.03-.37-.07l.24-2.14v-.1c.03-1.33-.37-2.41-1.22-3.27-.88-.88-2.04-1.36-3.5-1.46l-.92-.07-.34-.03-.31-.14-.17-.34c-.1-.07-.17-.14-.17-.17l.03-.1.54-.03ZM18.71,2.48l.37-.1.37-.03.2.1.34.1v.1c0,.07-.07.1-.24.1v.14l.17-.03c.27,0,.41.24.41.75s-.2.78-.65.78c-.1,0-.17-.07-.27-.2.31-.07.44-.24.44-.51v-.07c0-.1-.03-.17-.14-.24-.17-.17-.31-.24-.44-.24-.27,0-.61.17-.99.48l-.27-.14c-.1-.07-.14-.14-.14-.17l.07-.1c.07-.07.17-.17.27-.34l.48-.38ZM20.1,2.11h-.44l.17-.1.27.1ZM2.01,2.01c.65.03,1.05.27,1.22.68l.14.44.07.07h.07l.1-.41.2-.07c.34.31.55.68.61,1.12l-.1-.14-.03-.2-.07.07c.07.1.1.27.1.51l.07.14v.17c0,.14,0,.2-.03.24l-.03-.07v-.03l.14.07-.03-.34s-.03-.1-.03-.2.03-.17.14-.17.14.14.14.37l-.03.14-.03.48-.03.34-.03.38.17.03c.24-.61.51-.99.85-1.16.27.44.41.78.41.99,0,.17-.07.44-.2.82l-.03.07c0,.07.03.1.14.14l.07.03.2-.27.2-.17.17-.07c.17.24.24.44.24.65l-.07.34c-.1.31-.14.54-.14.71s.03.37.14.54c.1.17.17.31.17.34,0,.14,0,.24-.03.31l.03.65-.03.37v.92l-.92-.03-.44.1c.03-.24.14-.44.37-.54l-.1-.03h.14l-.07-.14v.1l-.03-.1-.31.14-.34.24c-.48.17-.85.27-1.09.31l-.34-.1-.51-.14.17-.2.07-.2.07.03v-.03l-.07-.14-.44.07c-.17-.03-.31-.03-.37-.07h-.27c-.14,0-.31.03-.54.07-.2.07-.34.2-.37.44-.1-.03-.2-.14-.24-.31v-.31l-.03.07.07-.17c.03-.2.1-.37.2-.48l.31-.34.27-.14.17-.14c.14-.03.27-.07.41-.03h.27v-.14c-.2-.03-.34-.14-.44-.34.2-.2.37-.31.54-.31s.37.03.58.14h-.07c.24.1.37.2.37.24l.1.07.37.07s.03-.07.03-.17-.03-.14-.07-.14l-1.12-.37c-.48-.14-.82-.41-.99-.78l-.03-.1-.1-.24-.1-.44.03-.2-.03-.17.24-.24.61.14-.03-.03.17-.03c-.14-.03-.27-.1-.41-.24-.03-.03-.14-.1-.24-.27l-.1-.17v-.07l.07-1.05.1-.41v-.75l-.14-.31.07.03-.24-.44ZM24.97,2.01h.07c.17,0,.24.07.24.24s-.07.27-.2.27c-.2,0-.31-.1-.31-.31,0-.1.07-.17.2-.2M21.8,1.87l-.07.41h.1s.1-.03.2-.03c.07,0,.1.07.1.2,0,.17-.1.38-.31.65l-.14-.38-.03-.17-.14.03.14.34.07.31h-.07l-.31-.34c-.07-.03-.1-.1-.1-.2,0,.03.07-.17.17-.54l.38-.27ZM20.03,1.97l.44-.14.1-.03c.37,0,.54.14.54.41,0,.24-.07.41-.17.48l-.24.1.1-.31-.07-.24c-.2-.14-.41-.2-.65-.2h-.07v-.07ZM25.41,2.04c-.1-.1-.14-.17-.14-.2,0-.14.07-.2.17-.2.27,0,.41.31.41.92s-.37,1.06-1.09,1.33c.61-.41.92-.82.92-1.19v-.07c-.03-.1-.07-.2-.1-.34l-.17-.24ZM4.9,2.45c.54-.58,1.5-.85,2.82-.85,1.19,0,2.28.31,3.26.88l1.22,1.33.85.92.07.1.54.31.24.03c.27,0,.44-.17.54-.54.1.1.14.17.14.27,0,.48-.24.72-.68.72-.03,0-.1,0-.2-.03-.1,0-.2,0-.34-.03l.07.27c-.14.03-.2.07-.17.07-.1,0-.27-.1-.58-.31l-.17-.14-.14-.14-.07-.1-.03-.14c-.1-.37-.2-.61-.27-.71-.07-.14-.14-.2-.2-.2-.14,0-.2.07-.2.17l.07.1.24.17s.1.14.17.31l.17.68v.37c-.07.51-.17.92-.34,1.16l-.27.37-.1-.1v-.1l-.14-.03-.14.24-.2.27-.07.1-.1.03-.27.1s-.07.03-.17.03c-.17,0-.37-.1-.61-.31-.14-.31-.2-.54-.2-.78,0-.41.1-.68.31-.78l.75-.51c.1-.03.14-.1.14-.27,0-.31-.1-.44-.31-.44-.1,0-.24.07-.41.24v-.03c0-.37.17-.54.54-.54s.54.24.54.71c0,.27-.1.48-.31.61l-.92.58c-.1,0-.17.1-.17.31,0,.07.03.17.14.34.17.17.31.24.44.24.1,0,.27-.07.54-.2l.03-.1c.37-.31.58-.78.58-1.36,0-.82-.54-1.77-1.63-2.82-.85-.44-1.67-.68-2.38-.68-.51,0-.89.03-1.12.1-.44.14-.68.2-.71.2h-.03c-.14-.03-.37-.03-.75-.07M17.24,1.63c.1-.1.2-.14.34-.14.2,0,.34.14.44.44.1-.07.17-.1.24-.1.1,0,.14.07.14.24,0,.24-.07.41-.2.58-.24.34-.41.55-.51.58l-.14-.07c-.1-.03-.17-.07-.2-.1l-.03-.07s.03-.1.1-.24l.2-.48v-.03c0-.27-.14-.48-.37-.61M23.03,1.5l.03-.07h.2c.1.03.27.03.48.07.07.03.2,0,.37-.07v.14c.03.07-.07.1-.31.1-.14,0-.41-.07-.78-.17M16.36,2.31l.1-.07c0-.1,0-.14-.03-.17v-.07c0-.37.24-.58.68-.58.1,0,.17,0,.2.03l-.51.34v.14c.03.48-.17.71-.58.71-.55,0-.92-.1-1.16-.34,0-.2.07-.34.17-.37v-.2h-.78c.27-.2.51-.31.71-.31.34,0,.51.14.51.41v.07l-.17.2v.07c0,.1.14.17.41.17h.17c.1,0,.2,0,.27-.03M18.5,1.43l.03-.07h.07c.24,0,.34.1.34.27,0,.03-.03.14-.07.37l.31-.1.54-.24c.44-.2.95-.31,1.6-.31.75,0,1.43.1,2.01.34,1.16.65,1.73,1.19,1.73,1.6,0,.07-.07.14-.24.24l-.17-.24-.03-.1-.34-.44-.07-.07c-.85-.71-1.8-1.05-2.89-1.05-.31,0-.65.07-.99.17l-.88.34-.44.1-.27.1h-.07c.03-.14.1-.24.2-.27l-.14.07-.27.14v-.1c0-.07.07-.17.17-.27.03-.17.07-.27.07-.24,0-.03-.07-.14-.2-.24M24.42,1.56l.2-.2.07-.03c.2,0,.31.1.31.27s-.07.27-.2.27c-.1,0-.2-.03-.31-.1l-.03-.2h-.03ZM12.41,1.36l.24-.07.1-.03c.38,0,.58.2.58.61,0,.37-.34.58-1.06.58-.27,0-.51-.03-.75-.1l-1.8-.58c-.1-.03-.24-.07-.34-.1l-.34-.07.07-.07,1.06.07.44.2.07.03.27.03,1.26.27h.07c.1,0,.24-.03.41-.14.1-.1.14-.17.14-.2,0-.1,0-.17-.03-.2l-.37-.24ZM3.54,1.6c.17-.24.37-.37.58-.37.44,0,.65.2.65.58,0,.2-.03.34-.14.44-.2.31-.38.48-.51.48l-.07-.07-.07-.03c.24-.37.38-.65.38-.78,0-.17-.1-.27-.31-.27l-.07.03-.41.31-.2.07c-.24,0-.37-.07-.41-.17l-.03-.24.27.14.34-.1ZM25.14,1.39l.1-.24.17.1v.03c0,.14-.03.2-.1.2l-.17-.1ZM.82,26.39h25.54V.85H.82v25.54ZM.41.41h26.39v26.39H.41V.41ZM0,27.21h27.21V0H0v27.21Z" fill="#231f20"/>
    </g>
  </g>
</svg>