<?xml version="1.0" encoding="UTF-8"?>
<svg id="Layer_1" xmlns="http://www.w3.org/2000/svg" width="27.21" height="27.21" xmlns:xlink="http://www.w3.org/1999/xlink" viewBox="0 0 27.21 27.21">
  <defs>
    <clipPath id="clippath">
      <rect width="27.21" height="27.21" fill="none"/>
    </clipPath>
    <clipPath id="clippath-1">
      <rect y="0" width="27.21" height="27.21" fill="none"/>
    </clipPath>
  </defs>
  <g clip-path="url(#clippath)">
    <g clip-path="url(#clippath-1)">
      <path d="M13.57,25.61l-.03-.17-.14.17-.31.07v.14c.2,0,.37-.07.48-.2M24.59,24.93h-.1v.41l.03.17h.1l-.07-.27c0-.14,0-.24.03-.31M1.8,24.25v-.1h-.03l-.07.1v.1l.2-.1h-.1ZM12.52,24.49c0-.27-.07-.41-.24-.41-.1,0-.14.03-.14.07,0,.1.03.17.1.2l.14.14h.14ZM13.88,24.32l.03-.24c0-.1,0-.14-.03-.17l-.2.44v.03l.1.17.03.1.07-.34ZM1.46,23.98h.1c.1,0,.17-.03.17-.1l-.1-.1c-.1,0-.14.07-.17.2M24.8,23.77l-.07.1.24.07-.17-.17ZM25,23.47l-.1.2.14.1.1-.2-.03-.07-.1-.03ZM12.38,23.06c0,.14.07.2.17.2l.07-.03c.1-.03.14-.07.14-.14v-.03l-.24.03-.14-.03ZM5.17,22.75l.1-.17-.1-.1-.17.03v.24h.17ZM12.31,22.69l.58.07-.34.17-.24-.24ZM5.61,22.75l.14-.07.03-.1-.27-.1-.07.17.17.1ZM7.93,23.33c-.07-.24-.14-.41-.24-.51l-.17-.2.03.03h-.1l-.14.14c.1.1.2.2.31.34l.17.2h.14ZM6.16,22.72l-.07-.1c-.1,0-.17.03-.17.14,0,.03.07.03.2,0h.03l-.03-.1.03.07ZM12.14,22.14l.34.1.27-.03h.24l-.34.27-.51-.34ZM21.63,22.11l-.07.44.27.41-.03-.82-.17-.03ZM23.26,21.56h-.14c.03.2.07.34.07.37l.1.1c0-.31,0-.44-.03-.48M5.78,21.56l.14-.1.03-.17-.27.03.1.24ZM23.37,21.26l.2.61c0,.07.03.17.07.34s.07.2.07.1c0-.31-.07-.68-.2-1.05h-.14ZM5.34,21.43l-.07-.07v-.14s.07-.03.17,0l-.1.2ZM4.83,21.05l.03.14.14.07v-.14l-.17-.07ZM4.69,20.92l-.14-.07-.17.1.03.1c.14,0,.2,0,.24.03l.03-.17ZM21.73,20.95l.03-.03-.07-.17s-.1-.07-.24-.07c-.1,0-.17.03-.27.14l.27.03.27.1ZM21.29,20.41c.1.07.17.1.27.1.2,0,.34.03.37.07-.24-.17-.37-.27-.41-.24-.07-.03-.14-.03-.24.07M23.26,20.41h-.24l-.1.1.03.07.2.1.1-.27ZM22.52,20.27c.17-.03.24,0,.24.1l.07-.07s.07-.03.03-.14c-.03-.1-.1-.17-.14-.17s-.1.07-.14.17l-.07.1ZM23.64,19.73l.14.17.17.14.31.34c-.37-.44-.58-.65-.61-.65M13.81,19.56l-.1-.03s-.1.03-.17.14c-.1,0-.2.1-.34.27,0,.1.03.14.14.14.03,0,.14-.1.27-.34-.03.07-.07.14-.17.24,0-.1.14-.24.37-.41M13.16,18.94l.1.03.1.31c0-.44-.07-.78-.2-1.02l-.1-.07.1.75ZM5.34,17.52l.1.2v.2c.14,0,.17.03.14.07.17-.31.1-.48-.24-.48M17.69,15.14s-.03.07-.03.17.03.14.1.14h.03l-.03.03.24.07-.31-.41ZM19.8,14.22c-.17.17-.34.27-.48.34-.14.07-.2.14-.2.2l.1.03c.1,0,.2-.07.31-.2l.27-.38ZM24.28,10.44v-.17l-.14.27c.03.17.07.24.17.24,0,.24-.03.41-.1.51.17-.27.2-.54.07-.85M10.85,8.16l-.07.24.17.07.1-.24-.2-.07ZM1.63,8.2l.27.1-.07.14-.07.07c-.24-.03-.27-.14-.14-.31M21.29,7.79l-.1.34.2.48-.1-.82ZM1.5,7.99s-.07-.07-.03-.17c.17-.14.2-.14.1-.03h.14l.03.1-.07.17-.17-.07ZM19.73,7.75h-.1l.1.27.65.44-.31-.41-.27-.17-.07-.14ZM19.28,4.8l-.31-.31c-.1,0-.14.03-.14.07,0,.07.1.17.34.34l.2.1c.1.1.27.27.51.44.14.1.2.17.17.2l-.34-.48c.03.07.07.14.17.24-.24-.31-.48-.54-.71-.68l.03.03.07.03ZM21.29,6.36l.07.14.38.27c-.03-.24-.17-.37-.44-.41M19.76,6.67s-.03-.07-.2-.1-.27-.07-.34-.1c.1.1.27.1.44-.07,0,.07.1-.03.27-.27l-.17.54ZM17.62,4.9l.03.1c.27.37.44.68.54.99l-.1-.72c-.03-.14-.2-.27-.48-.37M7.62,4.83l-.07.17,1.33.24-.58-.2-.68-.2ZM21.73,2.07l.51.07-.24-.1s-.14-.03-.24-.03l-.27.07h.24ZM11.63,1.8c.1.03.17.1.27.1.07.07.14.1.24.14h.14v-.07c-.03-.17-.24-.24-.61-.27-.37-.03-.58-.03-.58,0,.03.03.2.07.54.1M10.82,25.75h.03c.17,0,.27.07.27.17s-.07.17-.24.17c-.14,0-.2-.07-.2-.17s.03-.14.14-.17M2.48,25.44c.07.17.1.31.1.34,0,.07-.07.1-.24.1l.14-.44ZM7.38,25.71l.44-.31.07-.03c.27,0,.41.14.41.41,0,.17-.07.24-.24.27-.1-.24-.2-.34-.37-.34h-.31ZM11.19,25.34c.14.03.2.1.2.14l-.17.1c-.1,0-.14-.03-.14-.1,0-.1.03-.14.1-.14M9.49,25.17l.44.31.55.2-.07.1h-.07l-.07.03c-.1,0-.38-.14-.82-.44l.03-.07-.07-.1.07-.03ZM10.75,25.44c-.24-.03-.34-.07-.34-.14,0-.1.07-.17.2-.17h.07l.1.07-.03.24ZM18.23,25.78l-.31-.03-.78-.31-.58-.17-.58-.14h-.03c-.31,0-.44.1-.44.31,0,.17.07.24.24.27.03.03.1,0,.24-.03l.31-.07h.1c.24,0,.34.1.34.34v.03l-.37-.07-.55.1h-.03c-.41,0-.61-.17-.61-.54,0-.44.24-.65.75-.65s1.05.2,1.63.58c.1.03.2.1.31.17.1.07.24.14.37.2M8.94,24.76h.51l.07-.07.07-.03.07.1c0,.1-.03.14-.1.17l-.34.14.03.31-.2.31-.24-.27v-.31l-.17-.07h-.03l-.1.03-.48.14-.17.03-.71.51-.51.17c.61-.65,1.22-.99,1.84-.99.17,0,.31,0,.37.03l.1-.2ZM5.48,24.56c.07-.17.17-.24.27-.24.31,0,.48.17.48.51,0,.54-.48.82-1.39.82-.44,0-.95-.14-1.5-.37v-.07c.61.2,1.06.31,1.36.31.71,0,1.09-.24,1.09-.68,0-.1-.1-.2-.31-.27M21.63,24.56l-.03-.24.14.07-.1.17ZM20.68,24.32h.03c.17,0,.27.07.27.17,0,.14-.07.2-.2.2-.1,0-.17-.07-.17-.2v-.07l.03-.03.03-.07ZM20.24,24.22h.03c.1,0,.14.03.14.1,0,.03-.07.14-.17.24l-.14-.07.14-.27ZM21.19,23.77h.03c.14,0,.2.03.2.1,0,.2-.1.31-.27.31-.1,0-.17-.07-.17-.17s.07-.2.2-.24M6.97,23.6c.2.31.31.58.31.75,0,.24-.07.44-.24.68-.48.75-1.19,1.12-2.11,1.12s-1.77-.31-2.45-.92l.27.07h.31s.14.03.31.14c.03.03.24.1.61.2l.34.1.51.03h-.1c.44-.03.99-.17,1.6-.48.51-.37.71-.82.68-1.29l-.03-.41ZM23.67,23.33c.17,0,.24.07.24.17,0,.14-.07.2-.17.2-.14,0-.2-.07-.2-.2v-.07l.07-.1h.07ZM2.28,23.3l.37.41.31-.07c.17-.03.27-.1.31-.14,0-.03.1-.07.27-.07.24,0,.37.14.48.44-.17-.1-.27-.14-.34-.14h-.27l-.51.2-.1.03c-.34,0-.51-.17-.51-.51v-.17ZM13.57,23.6c.31-.31.61-.44.95-.44.31,0,.61.14.92.44l.1.03c-.07.34-.14.54-.24.65l-.31.31.07.34-.34.07c-.07,0-.14-.07-.2-.17l.03-.31.61-.41.07-.07.03-.1c0-.31-.17-.48-.51-.48-.44,0-.65.24-.65.71l.03.1c.03.17.03.34.07.48v.24c0,.37-.07.65-.24.82-.24.17-.44.24-.65.24-.58,0-1.06-.24-1.43-.72l-.41-.48-.17-.24c-.31-.24-.54-.37-.65-.37l-.1.03-.31.31-.17-.2c.03-.51.27-.78.68-.78.14,0,.37.07.68.24l.07.14h.2l-.1-.14-.07-.17.41-.03c.51.2.75.44.75.75v.54l.1.2c.03.1.07.14.14.14h.14c.17-.07.24-.17.24-.27,0-.03-.1-.27-.27-.71-.03-.1-.03-.17-.07-.2v-.17c0-.1.03-.24.14-.41.1.14.17.2.24.2.03,0,.1-.03.2-.1M21.29,25.68c-.24.03-.41.03-.54.03-.14.03-.24.03-.27.03-.37,0-.71-.1-1.09-.31-.68-.37-1.02-.78-1.02-1.29,0-.78.24-1.19.72-1.19.27,0,.41.14.41.37-.17-.03-.27-.07-.31-.07-.34,0-.51.24-.51.68s.2.82.58,1.16c.37.31.78.48,1.22.44h.51c.1,0,.2.03.31.14M24.35,23.03c-.07.14-.17.2-.27.2s-.17-.07-.17-.17.1-.17.27-.17c.03,0,.1.03.17.14M15.07,22.89l.1-.03.07-.03c.1,0,.14.03.14.1l-.07.14-.24-.17ZM24.35,22.31l.24.14c0,.14-.1.2-.27.2-.1,0-.17-.07-.17-.17,0-.07.07-.14.2-.17M11.05,22.48c0-.2.14-.31.37-.31.17,0,.27.07.31.17.03.17.07.34.1.48,0,.14,0,.27.03.38-.2-.17-.31-.34-.34-.58-.1-.14-.2-.2-.31-.2.07,0,0,.03-.17.07M15.24,22.14h.07c.1,0,.14.03.14.07,0,.14-.07.2-.2.2l-.1-.1v-.03l.03-.07.07-.07ZM14.62,21.9c.17,0,.27.03.27.14,0,.17-.07.24-.24.24-.1,0-.17-.07-.17-.17l.03-.07.03-.07.07-.07ZM24.28,21.67h.07c.14,0,.2.03.2.14v.07c-.03.1-.1.14-.2.14s-.17-.07-.17-.17v-.03l.03-.07.07-.07ZM2.18,20.48c.1.03.14.07.14.1l-.03.14c.03.82.31,1.19.85,1.16.17,0,.31-.03.48-.14v.07c0,.41-.24.61-.71.61-.51,0-.78-.37-.82-1.09l-.03-.31c0-.17.03-.37.14-.54M12.24,20.03c.31.44.48.78.48.95l-.03.48v.41l-.14.03c-.03-.41-.1-.75-.17-1.02-.07-.24-.14-.44-.17-.54l-.03-.07.07-.24ZM2.41,20c.31.14.51.14.65.03.1-.07.17-.1.2-.1l.07.1c0,.17-.2.27-.61.27-.27,0-.41-.03-.41-.1.03-.03.07-.1.1-.2M17.82,20.14c-.17-.24-.24-.41-.24-.55,0-.1.03-.14.14-.14h.03l.1.31.31.44v.1h.03c0,.1-.07.17-.17.17s-.17-.1-.2-.34M6.12,19.15c.1.1.2.2.27.31.1.1.17.17.2.24.03.17.1.27.17.27l.03-.03.2-.2.17.48.65.95s.03.14.07.27c.03.1.07.27.1.44l-.1-.24-.2-.27-.1-.17-.14-.14-.07-.07-.1.03.03.1c.03.07.1.17.24.31.34.34.51.75.51,1.26l-.1-.1-.03-.1-.07-.07-.14-.2-.03-.1-.2-.1-.03-.03-.31-.17-.44-.2c-.31-.1-.48-.17-.51-.17l-.14.07s.24.14.68.31l.44.2.1.03.17.17.17.07.03.07.2.34.14.1.03-.03.03-.07c.07,0,.1.07.1.17s0,.2-.03.27l-.14.61-.17.44-.1-.65-.1-.37-.55-.38-.07-.07c-.17-.1-.31-.14-.41-.14-.03,0-.1.07-.17.17h.24c.1.03.17.1.27.14.07.03.14.1.24.14.31.27.48.65.48,1.16v.1l.07.07-.07.2v.1c-.17.14-.31.27-.44.44.14-.34.2-.61.2-.78v-.14c-.03-.07-.03-.17-.07-.27l-.17-.31c-.31-.31-.58-.44-.85-.44-.2,0-.37.1-.48.27l-.37.48-.51.1.1-.41.1-.17-.03-.07h-.03l-.31.2-.03.03-.17.03c-.1,0-.17-.03-.27-.1l-.58-.37-.54-.14c.2-.31.44-.44.75-.41h.38l.17-.2h-.1c-.14.03-.24-.03-.27-.2l.44-.1.51.07h.27l.03-.1v-.03l-.37-.14-.44-.1-.38-.24c-.31-.2-.48-.41-.48-.58,0-.1.14-.17.37-.2-.31-.31-.44-.61-.44-.92v-.03l.51.14h.54l.34.14.03-.24c.48.03.88.2,1.19.44.07.1.14.17.17.17l.14-.07-.03-.14c-.24-.1-.41-.24-.51-.44l-.07-.34s.07-.17.17-.34M12.18,19.05v.31c0,.1-.07.27-.17.58-.27.51-.48.92-.65,1.22-.17.31-.27.54-.31.65-.48,1.19-.85,1.87-1.12,2.08-.17.14-.27.24-.31.34l-.07.03h-.03s-.1-.07-.17-.17c.48-.44,1.02-1.33,1.67-2.72l.31-.61.2-.37c.03-.1.14-.27.24-.51l.41-.82ZM14.15,19.01l.14.14-.07.51.2-.03.14-.14h.07c.31,0,.51.1.58.27l.14.44.1.17v.03l-.03.07-.24.1.2.34.03.1c0,.34-.17.51-.51.54l-.88.14c-.17.03-.27.17-.27.37,0,.37.17.58.51.58.1,0,.27-.07.58-.17l.03.14c0,.1-.1.17-.31.2l-.27.03h-.37c-.31-.17-.44-.34-.44-.58,0-.1.07-.27.2-.54l.14-.17.85-.27c.1-.03.17-.14.17-.31v-.17l-.07-.07c-.14-.17-.24-.24-.34-.24-.31,0-.54.2-.82.65-.2.44-.34.92-.37,1.5v.51c-.1,0-.27.2-.51.61l-.2-.24-.51-.24c0-.17,0-.31-.03-.34-.03-.17-.03-.34-.07-.44v-.34c0-.1.03-.44.1-.99l.03-.14c0-.1,0-.17.03-.2l.1-.27.1.27.03.78.07.34c.1.07.17.1.24.1.2,0,.31-.14.27-.41v-.17c-.03-.24-.03-.37-.03-.48q-.03-.1-.03-.07c0-.48.24-.99.75-1.57l.07-.07.51-.31ZM17.14,19.52c.31-.34.54-.51.78-.51.34,0,.51.14.51.37,0,.03-.03.1-.1.2l-.17-.24c-.07-.03-.2-.03-.41-.03-.24,0-.41.07-.48.2-.14.14-.17.2-.2.2l-.1-.03.17-.17ZM10.1,19.18l.14-.27h.03l.1.07c0,.1-.07.17-.24.24l-.03-.03ZM3.61,19.42l.1-.31c.03-.07.03-.14.07-.24l.14-.1-.03.31-.14.41-.14-.07ZM20.58,18.98l.2-.58.61.14.34.24.48.44h.14l.03-.37.14-.2c.14-.07.24-.1.31-.1.14,0,.27.07.44.24.17.24.27.41.37.48l.34.41.14.17.44.2.58-.2.03.17.03.03c0,.1-.03.2-.1.34l-.14-.03c0,.17-.07.27-.24.27l-.14-.03.07.2.17.17c.1.07.14.14.14.17,0,.14-.17.2-.48.2-.17,0-.31-.03-.48-.14l.1.03-.2-.1-.14-.17-.1-.17c-.1-.1-.17-.14-.2-.14l-.07.1.07.14c.07.07.14.14.17.24.03.1.1.17.14.24.03.1.07.14.07.17l.03.65v.03c0,.48-.1.71-.31.71l-.1-.1-.2-.07.03.44c-.1,0-.17.1-.2.27-.03.17-.1.31-.14.34l-.48.48-.14.27c-.07-.03-.2-.14-.44-.37-.07-.17-.1-.27-.1-.34,0-.2.07-.41.24-.65l-.1-.1c-.17.24-.27.34-.37.34-.14,0-.2-.27-.2-.78l.03-.27.27-.71.03-.07v-.03c0-.31-.1-.44-.34-.44-.1,0-.17.03-.17.14l.14.92-.17.34-.1-.14h-.07l-.07.58.1.03.17-.1-.03.27-.07.17-.07.17-.24.34-.1.1h-.1l-.1-.2-.27-.1-.2.48c-.03.14-.24.2-.58.2-.17,0-.27-.1-.34-.34.37-.03.68-.31.88-.82.1-.31.17-.51.17-.61l.07-1.36s.07-.24.2-.61c.03-.07.07-.17.14-.31.07-.17.17-.27.34-.34.1-.07.17-.1.24-.1s.14.1.2.31h.38l-.2-.17-.1-.48-.07-.07c-.17-.24-.41-.37-.75-.44M9.39,18.64l-.03-.27.17.14.1.41.2.58.07.27.27.34c-.03.1-.14.17-.24.2l-.1-.38-.27-.78-.03-.17-.14-.34ZM2.69,19.35c.78-.78,1.29-1.19,1.53-1.19l.1.03.03.07-.48.2-.54.41-.48.41-.2.51-.24-.07.27-.37ZM18.71,17.99h.17c-.03.1-.1.24-.1.31-.07.14-.1.2-.14.31l-.61.1-.34.24-.31.14c-.24.1-.51.37-.82.85-.41.65-.61,1.26-.61,1.84,0,1.7,1.02,2.96,3.03,3.74l.31.14.1.03.34.1.24.03c.17.03.31.03.44.03l.17.03,1.06-.07.85-.24.27-.03.48-.27.48-.17-.07.31-.92.41-.27.1-.03.07c-.37.17-.92.24-1.6.24-.88,0-1.53-.1-1.94-.27l-.68-.38-.71-.34-.2-.2-.31-.2-.27-.24-.27-.2-.14-.34-.2-.34-.17-.41c-.24-.58-.34-1.06-.34-1.4,0-.78.17-1.43.48-1.94l.31-.48c.51-.71,1.02-1.16,1.53-1.26l.82-.24ZM11.39,18.03c.51.17.78.44.78.82l-.03.1-2.31,4.32c-.24.44-.44.68-.54.68-.03-.03-.1-.14-.2-.31l-1.39-3.54-.61-1.63c-.17,0-.24-.07-.27-.2-.03-.17.03-.27.17-.34l.14-.03c.21,0,.44.03.68.14.2.03.37.07.51.07.17.03.31.03.41.07l.24.07.24.14.51,1.74.17.31s.14.03.24.03c.03,0,.14-.14.27-.38l1.02-2.04ZM4.93,17.69v.14l-.31.2-.65.14c-.61.17-1.16.68-1.67,1.53-.51.85-.75,1.7-.75,2.55,0,.48.17.99.51,1.57l.31.27.1.1.24.1c.14.07.24.1.31.1l.03-.03.17-.03v.1l.68-.14.2-.2.03.2c0,.37-.2.54-.65.51l-.27-.03v.2c-.1.03-.2.03-.27.07h-.17c-.17,0-.37-.1-.58-.31l-.1-.14-.1-.1-.07-.03-.03.03-.1.03c.2.31.31.58.31.75,0,.51-.24.75-.71.75-.1,0-.14-.03-.14-.1,0-.03.03-.14.14-.31.1-.24.14-.51.14-.78,0-.1,0-.17-.03-.27,0-.1,0-.2-.03-.31l-.1-.34-.14-.85-.1-.48-.03-.58.03.24.03-.71c.03-.99.41-1.8,1.09-2.48.71-.71,1.6-1.16,2.69-1.36M1.97,17.58l.14.44.1.07.07.03.31.03c.1,0,.24-.03.44-.1-.31.24-.54.37-.71.37-.44,0-.65-.14-.65-.44,0-.1.1-.24.31-.41M14.28,17.48l.17.37-.34.37-.31.54-.2.14s-.03-.14-.03-.27c0-.03.07-.17.17-.34.17-.37.37-.65.54-.82M10.44,17.58l.44-.2.31-.2c.17-.03.31-.07.34-.07.24,0,.51.1.75.27.1.1.17.14.2.17l.07-.27h.07v-.03l.17.1c.44.31.65.68.61,1.09l-.07.78-.03.24-.24.27-.14.2-.14.34-.2-.2-.03-.07-.14-.14v-.27l.07-.31v-.14c0-.17-.03-.34-.1-.54-.2-.58-.54-.85-1.02-.85h-.54l-.37-.17ZM23.88,16.46c.61.54.92,1.12.92,1.7,0,.65-.24.99-.68.99-.27,0-.41-.17-.44-.54l.48.03.31-.31v-.41l-.07-.27-.1-.41-.17-.31-.07-.14-.17-.24v-.1ZM17.52,16.94c.1-.31.24-.44.48-.44.44,0,.65.24.65.71,0,.38-.41.75-1.26,1.12l-.14.03-.14.1v-.07l.31-.2.14-.07.1-.07c.1-.1.24-.17.31-.27.14-.1.2-.2.31-.31v-.17c-.14-.31-.27-.44-.41-.44l-.34.07ZM2.01,16.43c.37.54.92.88,1.6.99v.1c-1.09-.1-1.63-.38-1.63-.89l.03-.2ZM3.74,16.09c.1.1.14.2.17.31l.1.31.07.48.03.2v.07l-.07.14-.14.07-.07-.92-.17-.48.07-.17ZM1.26,18.09l-.03-.65c0-.24.07-.58.2-.99.17-.41.31-.61.41-.61l.1.07.03.03c-.03-.1-.14.07-.27.51-.17.58-.27,1.09-.27,1.5,0,.17.07.41.17.68s.17.44.17.48c0,.07-.03.14-.1.24-.24-.37-.38-.78-.41-1.26M13.47,16.29l.27-.58h.03l.07.1-.03.14-.14.31-.24.48-.27.55-.1-.1c.03-.14.17-.44.41-.88M5.17,17.41l-.24-.2-.37-.2c-.17-.1-.27-.34-.27-.65,0-.44.2-.68.61-.68.1,0,.14,0,.17.03l.37.41.14.07c.1,0,.17-.1.2-.27.14.07.2.14.2.24,0,.31-.17.44-.48.44-.07,0-.17-.07-.27-.17l-.24-.37-.07-.03c-.2,0-.31.1-.31.27,0,.1.27.31.78.61l.07.1.2.27.34.07.14.14s.17,0,.41-.03l.17-.03c.24-.03.48,0,.82.03.27.03.65.1,1.02.2,1.46.34,2.21.68,2.21,1.05l-.1.1c-.1,0-.2-.07-.31-.17-.1-.1-.2-.17-.24-.2l-.31-.17c-.78-.44-1.77-.65-3.03-.65-.34,0-.51.03-.54.14l-.17.31-.31.14-.27.58-.61.24-.2.31c-.14-.17-.2-.27-.2-.37,0-.03.07-.17.17-.44l.07.24.1-.2.1-.1.07-.14-.1-.07.37-.24-.03-.44v-.07l-.07-.07ZM21.09,15.61c.1,0,.17.03.2.1,0,.07-.03.2-.1.44l-1.09,3.23-1.39,3.2-.61,1.16c-.24.41-.41.61-.48.61s-.14-.07-.2-.17l.31-.37.14-.14.24-.54.54-.95.51-1.33.48-1.05.14-.34c.1-.24.2-.48.24-.61.07-.2.14-.34.17-.44l.92-2.79ZM16.63,15.51l.17.51-.07-.07-.1-.44ZM23.71,15.51l.03-.03.34.2c.44.24.78.37.99.37h.17l.37-.2v.37l-.1.17c-.1.1-.27.17-.44.17h-.03c-.1,0-.14-.03-.17-.1l-.85-.75-.31-.2ZM19.97,15.48l.99.14-1.43,4.05-1.57,3.44-.14.24c-.1.24-.27.48-.44.65l-.24-.31-.2-.48-.2-.44c-.1-.24-.17-.44-.2-.58-.24-.44-.34-.75-.34-.88,0-.1.1-.31.27-.61.58-.68.88-1.02.92-1.02.07,0,.14.1.17.27.14.44.34.68.58.68h.07l.07-.07s.07-.14.1-.27c.03-.14.1-.34.17-.61l.03-.07.03-.14c.03-.17.1-.41.24-.71l.37-1.19c.1-.44.24-.82.34-1.16.1-.27.2-.54.31-.71l.1-.2ZM3.03,15.48c-.2.24-.31.44-.31.54,0,.24.07.44.24.58.1.1.17.14.24.17l-.31-.03-.03-.07-.14-.07c-.1-.07-.17-.27-.17-.58,0-.44.14-.65.37-.65l.1.1ZM20.92,15.27l.68.1c.17.03.27.07.34.1,1.05.27,1.56.85,1.56,1.73,0,.14-.07.34-.17.61-.14.31-.27.44-.37.44h-.07l-.03-.03c-.03-.17-.1-.24-.24-.2l-.17.14c-.07.14-.2.17-.37.17-.41,0-.68-.2-.85-.65v-.1c0-.2.07-.38.2-.48.1.44.31.68.55.68.17,0,.37-.1.61-.27.14-.24.2-.41.2-.58,0-.1-.07-.31-.17-.61-.31-.37-.88-.75-1.7-1.05M17.11,15.2l.24.82c-.31-.14-.44-.27-.44-.41,0-.07.07-.2.2-.41M10.92,15.17l.24-.07h.14c.27,0,.41.1.41.34,0,.14-.07.2-.24.24-.03-.27-.2-.44-.54-.51M3.06,15.78h.2c.37.03.58-.1.58-.41,0-.03-.03-.07-.14-.14s-.14-.14-.14-.17l.1-.07c.1,0,.17.03.24.14.07.1.1.17.1.27,0,.14-.07.27-.27.37-.14.1-.31.17-.48.17s-.27,0-.34-.03l.14-.14ZM2.96,14.93c.37.27.54.44.54.51l-.1.1s-.1-.07-.2-.24c-.14-.17-.2-.24-.24-.27v-.1ZM21.05,14.73c1.19.17,2.21.58,2.99,1.19.17.14.31.27.38.37.14.1.2.24.31.34.85.99,1.26,2.31,1.26,3.98,0,.65-.03,1.12-.14,1.46l-.14.61-.1.34-.2.48-.17.61-.31.61c-.1,0-.17.17-.17.54s.14.54.44.54c.07,0,.1-.07.1-.2.14-.03.2-.1.2-.24l-.1-.61-.03-.07c0-.07.07-.2.2-.37l.07.37.24.65v.07c0,.1,0,.14-.03.17l-.24.38v.1c-.03.07-.17.1-.37.1-.54,0-.85-.17-.95-.51l-.17-.07c-.1.1-.2.17-.31.17.07,0,0-.03-.17-.07l.34-.65c.07-.07.14-.14.24-.2.07-.07.14-.14.24-.2l.07-.14.17-.17.03-.03-.1-.1h-.07l-.58.58-.71.41-.17.1-1.05.31-.1.03-.58-.07-.03-.07.03-.07.34-.14-.03-.14c-.27-.07-.41-.17-.38-.34v-.17c.31.24.61.34.99.34.99,0,1.77-.44,2.42-1.36l.14-.27.14-.24.14-.44.2-.27-.03-.1.1-.14-.03-.1.1-.17v.07l.03-.48.1-.85c.03-.07.03-.2.03-.44,0-.17,0-.31-.03-.34l-.07-.37-.07-.37v-.1l-.07-.34-.14-.34-.2-.48-.31-.51-.31-.44-.27-.31c-.37-.37-.78-.68-1.19-.85-1.05-.41-1.91-.61-2.48-.61l-.31.03h-.24l-.14-.1c.17-.2.48-.31.92-.31h.34ZM21.46,14.69l.03-.1.1-.07c.07,0,.1.03.1.14l-.07.07c-.1,0-.14,0-.17-.03M21.09,14.56l.31.03-.31-.03ZM2.31,15.78c-.44-.24-.65-.51-.65-.85,0-.44.17-.65.51-.61h.07c.14,0,.24.03.27.1,0-.07-.03,0-.07.17l-.27-.03c-.24,0-.34.14-.34.41,0,.24.17.48.51.68l-.03.14ZM15.41,14.22l1.16,3.13.37.82.03.07-.03.03v.07l-.65.75c-.1.1-.24.37-.41.78-.03.1-.07.2-.17.34l-.07-.2-.2-.37-.85-2.21c-.1-.44-.2-.75-.31-.99l.07-.17.07-.14.31-.58.27-.58.31-.61.1-.14ZM25.41,14.05c.1.07.14.14.14.2,0,.03-.07.14-.17.31l-.48.24-.41-.03h-.2l-.14-.03v-.1h.65c.34.03.54-.17.61-.58M8.6,14.25c.1-.17.27-.27.44-.27.41,0,.65.24.68.68l.03.65.24.24.34-.03c.17,0,.37.1.65.31h-.34l-.51.27-.14.03c-.1,0-.17-.07-.2-.24h-.14c-.1.27-.17.48-.17.61,0,.34.17.78.51,1.36-.31-.2-.54-.54-.71-1.06l-.03-.2c-.03-.07-.03-.2-.03-.37,0-.1.07-.31.17-.65h-.1c-.1.03-.17-.03-.2-.17.03-.24.03-.44.03-.54.03-.1.03-.17.03-.2s-.03-.1-.1-.2c-.14-.14-.27-.2-.37-.2h-.07ZM25.85,13.98h.03c.1,0,.17.03.17.14s-.03.14-.14.14-.17-.07-.17-.17l.03-.03.07-.07ZM24.11,13.81v.24c0,.17-.17.34-.51.51l.03.17c.34.1.51.27.51.48,0,.03-.03.1-.14.17-.27-.17-.51-.31-.75-.37l.1-.27c-.51-.2-1.02-.31-1.6-.27h-.82c-.1,0-.2,0-.27-.03-.14,0-.24,0-.37-.03l1.09-.1h.17l.37.03,1.43.14.07-.38.34-.07.34-.2ZM24.97,13.77c.14,0,.2.07.2.2,0,.1-.07.17-.2.17-.1,0-.14-.07-.14-.17v-.07l.07-.1.07-.03ZM10,13.98l.14-.2h.07c.34,0,.51.14.51.41l-.03.07-.2.51-.2.17c.14-.24.2-.41.2-.51,0-.24-.17-.41-.48-.44M15.68,13.67l.88,2.65c.03.07.07.17.17.31l.27.51c.2.31.31.58.31.82v.07l-.24.17-.24-.51-.2-.58c-.14-.34-.24-.58-.27-.71-.03-.14-.07-.24-.1-.27l-.31-.78-.24-.71c-.1,0-.17-.24-.17-.68,0-.1.03-.17.14-.27M25.51,13.43h.03c.1,0,.17.07.17.17s-.07.17-.17.17-.14-.07-.14-.17v-.07l.1-.1ZM11.5,13.74c0-.24.03-.34.14-.34h.17l-.07.48-.17.2v.27l-.14.2-.1.17c-.1.14-.2.24-.34.27l-.51.17-.27.1c-.1,0-.17-.03-.21-.14.51-.1.85-.24,1.02-.34.17-.1.31-.31.41-.61l-.37-.17-.1-.17-.07-.07.1-.1.03.03.1.03.34.07-.03-.1.07.03ZM11.12,13.2h.03c.1,0,.17.03.17.14v.07l-.14.1c-.1,0-.17-.07-.17-.17l.1-.14ZM16.36,13.98l.2.03.14.2s.14.07.24.07c.31,0,.48-.14.48-.44v-.17l-.17-.44v-.1l.07-.03c.17,0,.27.2.27.65,0,.55-.2.82-.58.82-.31,0-.54-.2-.65-.58M3.78,13.06l.07.03c-.1.51-.34.95-.68,1.29l-.51.51-.24.44c-.1-.03-.17-.07-.2-.1,0-.1.14-.27.44-.58l.51-.55s.1-.17.24-.34l.37-.71ZM25.07,13.06c.07.03.14.07.24.17,0,.17-.07.24-.17.24s-.17-.07-.17-.2v-.14l.1-.07ZM11.56,12.96c.1.03.14.07.14.17l-.07.1-.07-.03-.07-.07-.03-.07.1-.1ZM25.71,12.75c.14,0,.2.07.2.24,0,.14-.07.2-.17.2s-.17-.07-.17-.2v-.07c.03-.1.1-.17.14-.17M11.12,12.75h.03c.07,0,.1.03.1.14l-.1.07-.07-.07.03-.14ZM24.11,12.62c.31.1.48.2.48.31,0,.03-.03.14-.07.31-.31-.1-.48-.17-.58-.17h-.2c-.07.03-.17.03-.27.07l.58-.37c.14-.1.24-.14.27-.17l-.2.03ZM8.1,12.75l.31-.17s.07-.03.17-.03c.51,0,.75.2.75.58,0,.17-.1.27-.34.31-.03-.44-.31-.65-.88-.68M25.17,12.72l-.03-.14c0-.1.03-.14.1-.14.1,0,.14.03.14.1,0,.1-.07.14-.2.17M17.14,12.92l-.27.41-.07.03-.1-.07c0-.17.1-.34.34-.58.24-.2.41-.31.58-.31.37,0,.61.14.65.37v.24l-.48-.27-.07-.07c-.17,0-.27.03-.37.14l-.2.1ZM17.11,13.98c-.65-.27-.95-.61-.95-1.02,0-.37.2-.54.58-.54.1,0,.14.03.14.14-.37.03-.54.17-.54.41,0,.41.27.68.85.85l-.07.17ZM11.56,12.48c.03-.17.17-.27.37-.27.1,0,.24.03.34.1.34.17.51.41.51.71l-.07.27-.03.27c-.2,0-.34.17-.44.54l-.03.1c0,.1.1.2.27.31-.1.1-.2.17-.24.17-.24,0-.34-.1-.34-.34l.07-.34c.31-.44.48-.75.48-.92l-.07-.34c-.17-.24-.31-.34-.44-.34l-.17.03s-.1,0-.2.03M2.45,12.07c.37.31.54.65.54,1.02,0,.58-.2.85-.61.85-.27,0-.44-.2-.51-.58.1.1.17.14.27.14s.14,0,.17-.03c.17-.14.27-.27.27-.44v-.2l-.24-.54.1-.2ZM25.58,12.38s-.03-.07-.03-.17.03-.14.14-.14.14.03.14.14l-.03.03v.03l-.2.1ZM4.93,12.21l-.48-.31c.27,0,.44.1.48.31M7.89,12.14l1.26-.54c.14,0,.2.07.2.24,0,.07-.1.14-.31.24-.17.03-.27.1-.34.1l-.1.07-.65.2-.03-.1-.03-.2ZM3.81,11.6l.27.2-.27-.14v-.07ZM4.76,11.7l-.31-.07.31.07ZM18.6,11.56c.1-.14.27-.2.55-.2.2,0,.37.04.51.14.14.07.24.14.34.24.07.1.14.17.17.24.03.1.1.14.14.14s.07-.03.1-.14c.1.03.17.17.17.34,0,.71-.34,1.26-1.02,1.63v.14l.31-.03c.17,0,.24.03.24.1s-.03.14-.1.24c-.24.37-.51.54-.85.54l-.92-.03c-.17,0-.27.07-.27.24s.1.27.31.27h.14l.51-.31.51.07c.1.03.17.1.17.14v.03l-.27.14.14.34c.03.14.07.2.07.24,0,.14-.1.37-.27.68l-.1-.07c-.03-.17-.14-.31-.34-.48l-.34-.1-.44-.03c-.44-.03-.65-.24-.65-.68,0-.34.1-.58.31-.71l.37-.27.1-.1c.1-.03.2-.1.34-.14.07-.07.2-.14.31-.17.17-.1.31-.17.41-.27.1-.1.2-.17.31-.27.24-.44.37-.75.37-.85l-.03-.2c0-.1,0-.2-.03-.31-.17-.24-.37-.37-.61-.37-.34,0-.51.14-.51.44v.1l.27.58.03.1c0,.65-.41,1.02-1.23,1.12v-.2c.65-.1.95-.31.95-.65l-.07-.27-.17-.41-.14-.34v-.17c-.03-.1.03-.24.24-.44M17.07,11.16l.03-.03.07-.03c.1,0,.24.07.41.2.17.17.24.31.24.41,0,.17-.17.27-.48.31.07-.17.1-.31.1-.41s-.14-.24-.37-.44M3.88,12.75c-.17-.2-.48-.48-.88-.82-.14-.1-.2-.17-.2-.27s.1-.27.31-.44c.2-.17.34-.27.44-.27l.07.03.1.03.03.03.1.24-.44.14.14.37s.24.14.61.27c.14.03.27.14.44.31l.31.37.31.78-.37.07.24.34c.1.1.14.27.14.55,0,.2-.07.37-.2.54l.03.14-.07-.03c-.03-.37-.14-.71-.24-.99-.1-.34-.24-.61-.41-.85l-.24-.27-.14-.17-.07-.1ZM15.1,11.05l.14-.17h.07c.24,0,.37.31.37.89l-.24.75c.03-.14.07-.27.07-.34.03-.14.03-.2.07-.24,0-.37-.17-.68-.48-.89M15.95,10.85c.31.03.44.1.44.24l-.24.78-.1.44-.48,1.22-1.56,3.1-.54,1.23-.07-.1v-.1l-.03-.03-.03-.07.1-.1.03-.24.34-.61.2-.58,1.12-2.21c.51-.99.78-1.97.82-2.96M9.66,12.41c.2.24.38.34.48.34.24,0,.44-.17.61-.48.14-.24.2-.44.2-.68v-.07l-.17-.44v-.14c0-.1.03-.17.14-.17.17,0,.24.31.24.88,0,.92-.34,1.36-1.05,1.36-.38,0-.51-.14-.48-.41l.03-.2ZM19.83,10.99c.27-.2.51-.31.68-.31.37,0,.54.17.54.51,0,.14-.14.24-.41.31.03-.03.03-.1.03-.2,0-.2-.27-.31-.85-.31M4.52,10.85c.03.07.03.14.03.24v.14l.03.03c0,.07-.03.1-.14.1-.03,0-.03-.03-.03-.14-.03-.07-.03-.14-.07-.24-.03-.1-.07-.17-.14-.24-.1-.1-.2-.14-.37-.14-.31,0-.65.17-.95.48-.58.51-.95.99-1.12,1.36-.31.58-.44,1.22-.44,1.94v.44l.07.27c.03.24.07.37.1.41.07.1.1.2.1.24,0,.07-.03.1-.14.1l-.24-.78-.1-.82s-.03-.2.07-.48l.31-1.16c.03-.17.17-.41.37-.68l.68-.78.17-.24.24-.17.31-.24c.1-.07.24-.1.44-.1.34,0,.61.14.82.44M7.45,10.65c.03-.37.17-.54.44-.54.54,0,.82.24.82.71,0,.24-.03.37-.14.48-.24.38-.48.55-.78.55-.03,0-.07-.03-.1-.14v-.1c.37-.24.58-.44.58-.61,0-.14-.03-.24-.14-.34l-.07-.1c-.14-.07-.24-.1-.31-.1s-.17.07-.31.2M24.22,9.86h.1c.14.27.2.48.2.65,0,.61-.2,1.09-.65,1.46l.03.1.14-.1.24-.24.61-.51c.17-.1.31-.14.48-.14.03,0,.17.07.34.2-.51.03-.85.2-1.05.51l-.44.61-.31.24c-.1.07-.17.14-.27.17-.37.31-.78.51-1.22.61.03-.14.1-.27.1-.37.07-.1.1-.2.14-.31.03-.03.14-.1.24-.17l.44-.27.2-.24.27-.31.24-.34c.1-.17.17-.31.17-.41,0-.03-.03-.14-.1-.27l-.14-.07s-.07.03-.24.07l.03.17c0,.65-.17.95-.54.95-.14,0-.2-.03-.2-.14l.03-.03.31-.27s0-.24-.03-.61c-.03-.14,0-.31.14-.54.07-.2.17-.31.27-.27h.24l-.03.31.17-.1.1-.34ZM1.33,9.73l.07.17.07.14c.17.41.31.61.34.65.24.31.34.48.34.51,0,.07-.07.17-.17.27-.14,0-.27-.2-.41-.61-.17-.31-.24-.68-.24-1.12M9.42,11.43c-.17-.31-.24-.58-.24-.85,0-.54.2-.82.65-.82.24,0,.38.07.38.17,0,.03-.03.1-.1.2-.1-.07-.2-.1-.31-.1-.24,0-.34.2-.34.61,0,.17.14.48.37.85.17.24.34.34.48.38.24.03.34.07.34.17,0,.14-.07.2-.17.2-.37,0-.65-.17-.89-.54l-.17-.27ZM8.74,9.63h.03c.07,0,.1.03.1.14s-.07.17-.17.17c-.14,0-.2-.07-.2-.17,0-.03.03-.07.14-.1l.1-.03ZM7.86,9.39c.2,0,.31.07.34.24,0,.1-.07.17-.17.17-.24,0-.34-.07-.34-.24v-.03c.03-.07.07-.1.17-.14M10.58,9.29c.27.07.41.17.41.27l-.03.2c-.03.24-.07.37-.1.44l-.54.99-.17.21-.07.03c-.1,0-.17-.07-.2-.2v-.03l.03-.03.31-.51c.1-.1.17-.37.24-.82.03-.07.03-.14.03-.24l.1-.31ZM9.52,9.18l-.03.07-.17.1c-.1,0-.17-.07-.17-.17,0-.14.03-.2.14-.2.17,0,.24.07.24.2M8.57,8.98c.17,0,.27.07.27.2s-.07.2-.2.2c-.17,0-.24-.07-.24-.24,0-.1.07-.17.17-.17M7.01,8.98l.07-.03c.2,0,.31.1.31.27,0,.1-.07.17-.2.17-.17,0-.27-.1-.27-.27l.03-.07.07-.07ZM9.76,9.12v-.14c0-.1.17-.17.51-.17.48,0,.88.2,1.22.61.31.41.48.92.48,1.53,0,.34-.17.68-.54,1.05v-.1l.2-.34c.1-.24.17-.44.17-.68,0-.51-.14-.95-.44-1.36-.31-.34-.65-.54-1.05-.54-.17,0-.38.03-.55.14M17.18,9.01l-.1-.2c0-.1.03-.14.14-.14.14,0,.27.07.41.2.1.14.17.27.17.41,0,.17-.03.27-.1.37-.24.34-.48.51-.71.51l-.1-.03-.24-.03-.41-.07-.34-.24c-.34-.31-.58-.61-.75-.99l.14.17.1.14c.44.48.78.71,1.09.71.17,0,.41-.1.71-.31l.03-.34-.03-.17ZM7.93,8.64c.17,0,.27.07.27.24s-.1.27-.27.27-.24-.07-.24-.17l.03-.07c.03-.17.1-.24.2-.27M7.38,8.5h.03c.1,0,.14.03.14.14l-.1.1c-.1,0-.17-.07-.17-.17l.1-.07ZM23.77,8.91c.07-.34.2-.51.44-.51.38,0,.58.24.58.75,0,.17-.03.34-.1.54l-.1.34-.1-.07.1-.61-.14-.31c-.14-.17-.24-.24-.34-.24-.07,0-.17.03-.34.1M8.74,8.43c.17,0,.27.07.27.17s-.03.14-.14.14c-.17,0-.24-.07-.2-.17,0-.1.03-.14.07-.14M8.23,8.13c.1,0,.17.07.17.17s-.03.14-.14.14-.17-.07-.17-.2c0-.07.03-.1.14-.1M9.28,8.4c.03-.31.17-.48.41-.48.31,0,.48.2.48.61l-.1.07c-.17-.2-.31-.31-.41-.31s-.2.03-.37.1M19.25,7.82l.1.58h.14l-.03-.1.2.41.07.31v.1c-.03.1-.07.2-.1.27-.03.1-.03.14-.07.17l-.1-.1-.1-.1h-.17l-.17.37-.44.07-.14.1c-.1-.03-.17-.14-.17-.27l.03-.07.1-.68c.03-.24.14-.44.34-.65v.1c0,.1.07.2.17.24l.1-.68.03.75.14.03.07-.85ZM7.72,7.58l.03.2c.03.07.03.14.03.24s-.07.17-.2.17c-.17,0-.24-.1-.24-.27s.1-.31.31-.37l.07.03ZM24.08,7.35l.31-.27h.07l.03-.03c.24,0,.44.14.61.37s.27.54.27.85v.07c.03.1.03.2.07.27v.17c0,.14-.03.27-.14.41-.07.1-.1.2-.1.24l.03.07.07.07.17-.48.07-1.16c.03-.2.17-.41.41-.65l-.03.34-.03.51v.82l-.2.85-.14.34c-.1.17-.17.34-.24.48-.03.1-.1.24-.14.34l-.37.27c-.1.07-.24.14-.34.2.14-.31.2-.58.2-.89v-.27c.24-.71.37-1.22.37-1.56,0-.17-.03-.38-.1-.61-.24-.31-.48-.48-.68-.44h-.27l.1-.31ZM16.84,7.48c.14-.37.48-.58,1.02-.58.37,0,.54.07.54.17l-.03.07-.03.1.07.07c.1-.1.17-.14.24-.14h.14c-.41.31-.61.44-.61.41l.07.07.03.03c.07,0,.14-.03.24-.14l.41-.17-.14.17.07.31v.07l-.1.17c-.07.03-.14.07-.24.14l-.2.07-.03.03-.2.03-.41.03c-.24,0-.34-.07-.34-.17s.1-.24.27-.41l-.2-.24-.54-.1ZM20.82,6.16l.27-.1.27.07.17.03.1.07.1.1c.24.31.34.54.34.75,0,.1-.03.17-.07.17l-.34.03.07.2.17.41c0,.1,0,.17-.03.2l-.27.61-.03.41-.2-.07-.07-.07c-.07-.07-.1-.1-.14-.2l-.14-.38c-.14.03-.2.14-.2.31v.03l-.34-.17-.34-.1c-.37-.14-.61-.41-.71-.78v-.34s.07-.03.17-.03.2.03.31.14v-.17l.17.07h.03l.14-.03-.24-.31.51.17-.1-.2c.17.03.31.14.41.31l.14-.03-.1-.2-.41-.24.17-.1.07.03.14.03.07-.14-.31-.07.03-.2.37.17.07-.1-.24-.27ZM25.1,7.24l-.1-.03-.03-.03v-.27c0-.41-.14-.61-.44-.65l-.31-.03.17-.2c.03-.07.1-.1.2-.1.37,0,.58.27.58.78v.24c-.03.1-.03.2-.07.31M7.01,6.43c.17-.41.34-.61.55-.61l.1.03.07.03-.27.24s-.03.1-.03.24c0,.17.1.31.27.41-.07.14-.17.2-.31.2-.24,0-.38-.14-.38-.37v-.17ZM7.55,5.44v-.14l.41.03.51.07.44.2-.34.1-.51-.1h-.03c-.37,0-.71.14-1.02.44-.27.31-.41.65-.41,1.05,0,.31.03.51.14.61l.34.44v.1s-.03.03-.14.07c-.07,0-.2-.17-.44-.54-.17-.24-.24-.51-.24-.82,0-.17,0-.34.03-.44.03-.1.07-.2.17-.34.1-.07.2-.2.41-.31.14-.1.38-.27.68-.44M16.39,7.11l-.07-.34-.1-.27s0-.07-.03-.17c0-.07,0-.2-.03-.37v-.07c0-.41.14-.61.41-.61.17,0,.27.1.27.27v.03c-.31.03-.48.31-.48.78,0,.24.03.51.14.75h-.1ZM21.7,5.31l.37-.07.17-.14h.03c.07,0,.1.07.1.2,0,.17-.07.34-.2.55l.14-.03.07.07c0,.07-.03.17-.14.31-.1.17-.2.24-.31.24-.07,0-.14-.1-.2-.27l-.44-.24.31-.55.2-.07h-.1ZM14.11,5.31l.07-.27.07.14c-.07.24-.1.37-.1.41l-.03.31c-.03.07-.03.17-.03.27v.14c0,.31.2.95.58,1.9.71,1.7,1.77,2.55,3.2,2.55,1.53,0,2.52-.37,2.96-1.12.17-.31.31-.44.41-.44.14,0,.2.07.2.2,0,.07-.14.27-.37.58-.85.78-1.8,1.19-2.86,1.19-1.19,0-2.31-.58-3.33-1.73l-.27-.44c-.07-.1-.14-.2-.17-.27l-.1-.27c-.1-.24-.2-.48-.24-.68-.07-.2-.1-.37-.14-.48l-.07-.54c-.03-.1-.03-.24-.03-.37v-.2c0,.1.1-.17.27-.85M2.11,5.95c-.1-.17-.14-.27-.14-.38,0-.03.03-.2.14-.44l.07-.41.07.82.2.27.17.03.27-.07v.24c0,.17-.14.27-.41.27-.17,0-.31-.1-.37-.34M14.32,4.63c.41.37.61.65.61.78l-.07.78v.07c0,.68.17,1.12.54,1.36.17.1.27.2.27.27,0,.14-.07.2-.2.2-.1,0-.24-.07-.37-.24l-.17-.17v-.34h-.1l-.07.14-.14-.07-.14-.24-.07-.07c-.1-.37-.17-.75-.17-1.05l.03-.48.14-.34-.1-.61ZM7.41,5.31l-.1.1h-.27l-.37.14h-.17c-.58,0-.85-.24-.85-.71,0-.2.07-.34.2-.37l.2-.03.03-.03c-.1.1-.14.2-.14.31,0,.17.14.34.41.51l.44.14.31-.03h.31ZM14.08,4.32l.1.2-.07.34c-.1.27-.27.41-.48.41-.1,0-.17-.03-.17-.1l.03-.07.27-.17.31-.61ZM24.83,4.69c-.07-.1-.1-.17-.1-.27s.07-.17.24-.17c.2,0,.37.24.51.75l.27,1.02.07.27-.03.61v.34c-.03.1-.1.2-.17.31-.07.07-.14.14-.17.24l-.14-.34c.03-.1.03-.17.03-.24v-.54c0-.65-.17-1.29-.51-1.97M1.87,4.15l-.03.2c-.1.24-.2.34-.37.34s-.24-.07-.24-.17c0-.07.03-.1.14-.1l.17.03.34-.31ZM2.01,4.49l.17-.41.17.1.03.07-.1.17c-.34.31-.51,1.02-.51,2.08,0,1.16.2,1.94.58,2.31.17.17.31.2.44.17h.24l.27-.1.03-.03c.1-.17.14-.31.14-.44,0,.03-.03-.07-.07-.31l-.31-.27-.71-.14c-.24-.03-.34-.27-.34-.75,0-.1.14-.24.41-.34v.2c0,.1.03.24.1.41l.48.34.24.1c.37.31.58.65.58,1.02,0,.2-.14.44-.37.68l.14.24.1.17c0,.1-.14.17-.41.17-.82,0-1.26-.37-1.33-1.09l-.07-.1c-.1-.07-.2-.1-.24-.1s-.07.03-.07.14.17.41.51.92l.24.34-.27-.27-.2-.07.27.34.37.24v-.1l-.1-.17.37.24c.14.03.2.07.17.07l-.1.14-.2.14-.27.27-.1-.07-.27-.34-.34-.78-.07-.2c-.07-.31-.14-.54-.17-.75-.03-.24-.07-.41-.1-.58l-.07-.44v-.2c0-1.02.24-2.01.75-2.99M20.37,5.37c-.1-.17-.17-.34-.17-.48,0-.61.2-.92.61-.92.1,0,.17.07.24.24l.1.31.03.1.2-.03c.1,0,.17.07.17.2,0,.41-.17.75-.48,1.02l-.03-.27h-.14l.03.44c-.1-.03-.14-.1-.14-.24v-.61c-.14.07-.2.17-.2.31,0,.07,0,.17.03.27.03.1.03.17.03.2l-.1.17v-.89h-.1s-.07.07-.1.17M16.8,3.67h.03c.14-.03.2.03.2.17l-.03.03-.17.1c-.1,0-.17-.03-.17-.14s.03-.17.14-.17M17.89,4.01c-.14.03-.2.07-.17.07-.17,0-.24-.07-.24-.24,0-.14.07-.2.17-.2.24,0,.37.07.37.2v.07l-.14.1ZM8.57,3.4c.51.03.88.14,1.05.37-.17-.03-.37-.1-.51-.17-.2-.03-.37-.1-.54-.2M8.84,3.95l.03.1c0,.1-.1.14-.34.14-.51,0-.75-.24-.75-.71,0-.1.03-.17.14-.17l.1.1c0,.1.07.17.07.27.07.1.1.17.14.27.07.07.17.1.27.1s.2-.03.34-.1M25.71,3.06c.17.03.24.07.24.17,0,.27-.17.44-.54.54-.65.17-1.02.61-1.19,1.33l-.71,3.33-.68,2.62c-.37,1.23-.65,2.14-.82,2.76-.03.17-.1.24-.2.24l-.14-.03,1.02-3.44.68-2.89.37-1.56.07-.37.17-.92c.07-.37.17-.65.31-.75.1-.14.41-.31.92-.48.03,0,.14-.03.27-.14.14-.07.2-.2.24-.41M13.67,3.06c.2,0,.31.07.31.2,0,.24-.14.41-.37.51l-.37.17c-.2.1-.27.27-.24.44v.03c0,.14.07.44.17.95.03.03.03.1.03.2s0,.14.03.17l.37,1.39,1.56,4.97.14.31-.17.31-.65-2.01-.71-2.35c-.2-.68-.31-1.02-.34-1.05-.03-.17-.1-.31-.1-.44l-.1-.2-.27-.99-.27-.95v-.48l.31-.54.51-.2c.1-.1.17-.24.17-.34v-.1ZM17.35,3.06c.1,0,.14.03.14.1,0,.24-.1.34-.31.34-.1,0-.14-.07-.14-.17,0-.17.1-.27.27-.27h.03ZM22.41,4.22c-.17-.1-.34-.2-.51-.27l-.58-.27c-.24-.1-.34-.2-.34-.31,0-.24.14-.34.37-.34h.14c.44.14,1.12.2,2.04.2h.31c.44,0,.72,0,.78-.03l.71-.14h.03c.1,0,.14.03.14.14,0,.14-.07.2-.2.24l-.78.27c-.38.14-.68.95-.99,2.48-.03.14-.07.31-.1.51-.03.2-.1.44-.17.68l-.92,3.88-.85,2.79-1.09.03c.1-.31.17-.61.24-.88l.2-.71,1.46-5.31.34-1.22s.03-.24.03-.58c0-.44-.1-.85-.27-1.16M18.03,3.06c.17,0,.27.03.27.14s-.07.17-.2.17c-.1,0-.17-.07-.17-.17v-.07l.1-.07ZM18.64,4.12v-.03c0-.71.24-1.09.75-1.09-.03,0,.07.03.31.07-.44.17-.65.41-.65.78,0,.31.1.54.27.71l.95,1.02c.1.1.17.31.17.61,0,.65-.37.95-1.12.95-.48,0-.95-.24-1.4-.68l-.24-.37-.1-.14-.14-.24-.07-.07-.17-.27s-.07-.1-.17-.2c-.24-.24-.54-.37-.92-.37h-.1c.17-.24.34-.37.48-.37.1,0,.24.07.44.2h.1l-.1-.24v-.07c.48.03.85.24,1.09.58l.92,1.23.24.14.37.07-.07-.51-.24-.2-.41-.2-.34-.37-.07-.1-.1-.14c-.1-.17-.14-.34-.14-.54v-.2l.44.07ZM5.24,5.61c-.2-.68-.31-1.09-.31-1.26,0-.44.17-.75.48-.85l.82-.31.17-.31.17.24v.03c0,.1-.03.17-.1.2l-.92.34c-.17,0-.27.24-.27.75,0,.24.07.61.24,1.05l3.74,12.04h-.03c-.24,0-.37-.31-.48-.92l-.14-.37-.14-.44-.1-.24-.27-.85-.24-.82-.14-.37-.27-.85-.34-1.05-.37-1.23-.07-.27-.31-.92-.03-.14-.07-.2-.07-.17-.14-.51-.24-.75-.07-.27-.03-.14-.34-.92-.14-.51ZM9.73,3.57c-.34-.2-.68-.31-1.02-.31-.2,0-.31-.07-.31-.2,0-.17.2-.24.58-.2l2.59.27.41-.03,1.19-.07.2.03c.1.03.14.1.14.2s-.03.14-.14.17c-.58.17-.85.48-.85.99,0,.27.07.65.24,1.09l1.67,5.58.2.68.44,1.26-.88,2.01-.1.2-.17.37-.2-.07-.27.44-.1.27-.31.61-.1.24-.48-.17-.24.07-.31-.17.2-.41c.17-.37.34-.71.48-.92.1-.27.2-.44.24-.54.31-.51.44-.88.44-1.16v-.07l-.07-.24-1.84-6.12-.75-2.35-.24-.54-.41-.68-.24-.24ZM2.45,3.74c-.34-.31-.58-.44-.68-.48-.27-.07-.41-.14-.41-.24,0-.17.1-.27.31-.27.07,0,.2,0,.37.03.17.03.37.07.58.07.2.07.41.07.65.1.2.03.37.03.54.03.41,0,.85-.03,1.29-.1.44-.07.75-.1.85-.1.17,0,.27.07.27.17,0,.03-.03.1-.14.17l-.31.14-.41.14c-.37.1-.54.41-.54.92v.31c.03.07.03.2.07.31l2.79,9.11,1.09,3.13.03.14c0,.1-.03.14-.1.14-.1,0-.37-.07-.82-.24-.03-.03-.14-.03-.27-.03s-.24,0-.31-.03l-.65-.03-2.55-8.57-.34-1.09-.31-.95-.2-.58-.07-.27-.2-.65-.27-.75-.14-.24-.14-.27ZM3.4,2.62l.2-.1h.03l.07.07-.1.1-.07-.03-.14-.03ZM6.67,2.99s-.03-.1-.03-.2c0-.31.24-.44.72-.44.27,0,.44.14.54.44-.14-.07-.24-.1-.34-.1h-.03c-.34-.03-.51.14-.51.48,0,.48.34.85.99,1.09.1.07.2.14.34.17,1.87.85,2.79,2.08,2.79,3.74v.27c0,.14,0,.24-.03.34-.14-.03-.27-.1-.37-.14-.1-.07-.17-.17-.2-.31l-.24-.54-.24-.34v-.03l-.14-.14v-.07c-.37-.24-.68-.37-.85-.37-.48,0-.71.17-.71.51,0,.1.07.24.24.48-.37-.03-.58-.24-.58-.58,0-.37.14-.58.41-.65l.44-.17-.24-.27-.07-.24c.24-.07.41-.1.58-.1.1,0,.17,0,.2.03l.34.31.27.14-.03.1.1.14.21.17.03-.1s-.1-.14-.34-.51l-.34-.27-.17-.07c-.31-.24-.58-.38-.75-.41l-1.09-.24c-.44-.07-.65-.2-.65-.44,0-.03.07-.07.24-.07l.2.03v-.17s-.1-.07-.24-.1c-.24-.1-.48-.34-.65-.71v-.07l.03-.07.17-.24v-.27ZM19.49,1.77l.95.07-.34.07h-.51c-.58.03-.85.2-.85.51l.14.31v.07l-.17.07c-.17,0-.31-.14-.41-.38,0-.27.14-.48.44-.65l-.03-.03.78-.03ZM21.29,1.77c.07-.03.17-.03.34-.03.48,0,.88.17,1.26.54l.37.31c.1.1.17.2.17.27s-.07.1-.17.1c.03,0-.07-.03-.24-.07-.51-.24-.92-.34-1.22-.34-.65,0-1.16.34-1.53,1.02l-.14-.61.1-.2c.1-.17.17-.31.24-.37.1-.07.31-.14.61-.24-.07-.03-.14-.1-.24-.2,0-.03.1-.1.27-.17h.17ZM8.47,1.7l.14.17-.31.2-.14.37c-.17-.1-.24-.17-.24-.24,0-.2.17-.37.54-.51M8.71,1.8c.03-.17.17-.24.48-.24.14,0,.2,0,.24.03l.34.1c.14.03.2.1.2.17v.03c-.37-.14-.68-.2-.85-.2-.1,0-.24.03-.41.1M24.9,1.8l.41-.31h.14c.14-.03.27.14.41.44l-.27-.03c-.44,0-.65.27-.61.85v.1l-.72.07-.17-.41c-.07-.1-.1-.17-.1-.27,0-.07.03-.2.1-.37.1-.1.2-.17.31-.2.1,0,.2.07.31.2l.2-.07ZM23.26,2.41c-.1-.1-.17-.17-.17-.2v-.24l-.03-.2v-.14c.03-.1.1-.14.2-.14h.03l.07-.03c.03.1.03.2.07.31l.07.17.41.48c.1.17.17.31.17.37,0,.1-.03.17-.14.17-.17,0-.27,0-.31-.03l-.31-.38-.07-.14ZM10.85,1.67c.24-.17.44-.27.54-.27.14,0,.34.07.61.17.27.17.51.34.68.54l.14.24c.21.24.38.41.51.51-.07.03-.17.03-.31.03h-.38c-.1-.03-.24-.1-.34-.17-.1-.07-.24-.14-.41-.17l-.61-.17c-.1-.03-.2-.03-.31-.07h-.27c-.17,0-.44.03-.82.1.2-.34.48-.51.82-.51h.27l.03-.1s-.07-.1-.17-.14M22.75,1.39l-.03.37c-.1-.1-.14-.17-.14-.24l.1-.1.07-.03ZM16.43,1.84c-.41.27-.75.41-1.02.41-.41,0-.61-.17-.61-.51,0-.1.03-.17.07-.2l.2-.17v-.03l.07.03v.1c-.03.17.07.34.24.51h.17c.24,0,.54-.03.88-.14M13.47,1.87c.1-.37.31-.58.58-.58.14,0,.27.07.37.2-.31.2-.44.41-.44.65v.2l.41.68.1.24.24.37.85,1.46.72,1.91c.14.37.2.95.2,1.73,0,.1-.03.41-.1.88-.24-.1-.37-.2-.37-.31,0-.14,0-.24.03-.27v-.65l-.07-.34v-.24c-.03-.1-.07-.24-.07-.41-.07-.14-.1-.31-.2-.51-.03-.1-.07-.24-.1-.34-.03-.1-.07-.24-.1-.34l-.14-.27-.31-.68-.2-.31-.17-.17-.14-.2-.31-.27c-.31-.31-.48-.48-.48-.44,0-.07.07-.14.24-.24v-.14l.1-.2-.07-.27-.54-.2-.41-.44-.1-.07c-.03-.14-.03-.24-.07-.34v-.2l.1-.14.03-.1.14.07.14.31.14-.03ZM19.25,1.22h.78l.31.03c.24.03.44.07.61.1.17.07.34.14.51.24l-.51.14-.95-.1-1.05.07c-1.74.1-2.92.88-3.64,2.35l-.2-.2-.17-.31-.07-.03.17-.27.1-.14.07-.1c.31-.48,1.02-.92,2.11-1.36l.37-.14c.17-.07.54-.14,1.12-.2.03-.03.07-.03.17-.03s.2,0,.27-.03M12.69,1.19l-.24.44-.14-.27.03-.1.1-.1h.1l.14.03ZM5.48,1.22l.07-.07.14.03c.24.07.34.2.34.37,0,.1-.03.2-.14.37l-.14-.41-.27-.31ZM7.99,1.05h.78l.37.03c.2.03.37.07.51.1.17.03.27.03.34.07.38.1.55.17.55.2,0-.03-.03.07-.07.24-.17-.03-.31-.07-.37-.1-.61-.17-1.12-.27-1.57-.27-.75,0-1.5.1-2.24.31l-.07-.34.51-.1,1.26-.14ZM1.22,1.6s-.03-.07-.03-.17c0-.24.17-.37.54-.37.03,0,.14.03.31.07l.34.31.37.1.03.07c0,.14-.07.2-.2.2-.1,0-.17,0-.2-.03l-.54-.34h-.03l-.07-.03h-.03c-.17,0-.27.1-.27.27,0,.07.07.14.24.24l.24.14.34.07h.1l.61-.14,1.09-.48c.31-.14.55-.2.75-.2.51,0,.78.2.78.65,0,.48-.48.71-1.39.71-.1,0-.14-.03-.14-.1,0-.17.03-.27.1-.31l.17-.1v-.1l-1.67.51h-.07l-.41-.07c-.61-.1-.92-.2-.92-.31l.17-.17-.07-.1-.14-.31ZM26.33,26.19h.03l.03-.17-.07.17ZM.82,26.39h25.54V.85H.82v25.54ZM.41.41h26.39v26.39H.41V.41ZM0,27.21h27.21V0H0v27.21Z" fill="#231f20"/>
    </g>
  </g>
</svg>