<?xml version="1.0" encoding="UTF-8"?>
<svg id="Layer_1" xmlns="http://www.w3.org/2000/svg" width="27.21" height="27.21" xmlns:xlink="http://www.w3.org/1999/xlink" viewBox="0 0 27.21 27.21">
  <defs>
    <clipPath id="clippath">
      <rect width="27.21" height="27.21" fill="none"/>
    </clipPath>
    <clipPath id="clippath-1">
      <rect y="0" width="27.21" height="27.21" fill="none"/>
    </clipPath>
  </defs>
  <g clip-path="url(#clippath)">
    <g clip-path="url(#clippath-1)">
      <path d="M24.28,21.26c-.17.03-.31.14-.37.27h.14l.24-.27ZM23.23,21.36v-.31l.17-.27-.1.58h-.07ZM9.73,19.32l.07.68.07.31h.1l-.24-.99ZM13.16,18.2v.1s-.1.27-.24.85l.24-.34.27-.61.34-.17-.34-.03-.27.2ZM15.61,17.99l-.07-.48c.07.2.27.41.65.61-.1-.03-.17-.03-.27-.03l-.31-.1ZM9.08,17.31c.14.03.2.07.17.07l.17-.1-.34.03ZM9.35,16.97l-.03-.03-.07-.03-.17.1-.1.1c.03.14.1.14.2,0h.17v-.14ZM9.25,16.63l-.07-.03-.34.14.14.14.27-.14v-.1ZM18.2,16.39l.03.03v.03l-.03.07v-.07l-.03-.03-.34.24-.17.17.03.24.24-.34c.17-.03.27-.17.27-.34M9.18,16.39l-.14.1h-.24c.03-.14.03-.2.07-.24l.07-.07c.1-.03.14-.03.17,0,.07.03.1.1.07.2M17.28,17.04l.82-.99-.34.17-.07.2-.1-.03-.14.17-.17.48ZM22.55,12.41l.2.17.2.14.2.44.14.07v-.2l-.2-.37-.2-.14-.65-.24.31.14ZM23.54,12.55l-.14-.58-.1.17.03.1c.07.07.1.17.14.31h.07l-.07.03v.03l.07-.07ZM12.79,10.68l.27-.48.54-.24.07-.17-.41.17-.27.07-.17.24-.2.41h.17ZM15.75,9.12v.17l.07-.1-.07-.07ZM15.2,9.66l.27-.24.14-.2-.07-.14-.34-.07.24.2-.24.44ZM23.3,7.89l.27.03-.27-.03ZM21.6,6.7l.03.37.2-.2-.24-.17ZM22.72,6.94l.2-.34-.44.31c-.14.1-.24.2-.27.27-.44.44-.61.82-.58,1.05v.17l.07-.03-.07.07.03-.03.07-.03.03-.2c0-.1.07-.24.17-.41l.14-.24.34-.37.31-.2ZM19.52,6.19l.37.61-.24-1.05-.14.44ZM21.97,6.46l-.2-.2.07.34.27-.03-.14-.1ZM20.82,6.8l-.07-.07.07.07.14.17-.1.07-.17-.03s.03-.07.03-.17l.1-.03ZM21.05,6.29h-.2l-.03.1c0,.1.03.17.07.17s.1-.1.17-.27M22.18,6.22l-.24-.41-.03.24.03.07.03.07c0,.1.03.17.14.17h.17l.27-.1-.37-.03ZM21.09,5.99l-.03-.14-.14.07-.1.03.07.07.03.03h.07l.1-.07ZM21.73,5.14l.03.17-.03-.14-.07.03c-.17.31-.27.58-.34.92-.07.27-.1.61-.14.95v.54c-.03.65.14,1.23.51,1.8v-.17l.03.14.2.24c-.41-.85-.61-1.5-.61-1.94v-.85c.03-.51.14-.88.31-1.19.1-.17.14-.27.14-.34,0-.1,0-.14-.03-.17M24.66,4.63l-.48.37c.2,0,.44-.14.68-.37l.27-.58-.48.58ZM24.18,4.66l-.24.1.31-.07s.14-.07.24-.2c.14-.14.2-.24.2-.27l-.51.44ZM22.69,4.52l.27-.03.03-.03c0-.1-.07-.17-.24-.27l-.07.34ZM23.16,4.22l.14-.1v-.1c.17-.03.1-.1-.14-.14l-.1.1.1.24ZM23.81,3.71s-.03.07-.03.17c-.03-.03-.14,0-.27.03l-.03-.1v-.17c.07-.03.17-.03.34-.03v.1ZM22.99,2.62l-.17.24.61-.27-.44.03ZM8.13,25.47c-.1.17-.17.31-.17.41v.03l.07.17h-.17l-.1-.14v-.1c-.03-.24.07-.34.37-.38M23.94,25.17l.24.27h.14c.24,0,.41.03.58.14-.1.2-.27.31-.44.31-.38,0-.55-.17-.55-.48,0-.1,0-.2.03-.24M1.43,25.03l.31-.1h.48l.37.1.17.07.1.2c-.24-.03-.41-.07-.51-.07l-.17-.03c-.1,0-.24.03-.44.1l-.31.27.07.44-.24-.03-.07-.14c-.1-.1-.14-.17-.14-.24,0-.1,0-.17.03-.2.03-.17.17-.27.34-.37M25.95,25.24l-.44-.1-.51.34c-.1,0-.17-.03-.17-.1v-.03l.17-.1.34-.37h.07s.14-.03.27-.03c.1,0,.2.03.31.1.03.1.07.17.14.17l.03.07c0,.17-.03.24-.1.24-.03,0-.07-.07-.1-.17M22.45,24.9l.17.07c.24.2.34.37.34.54,0,.41-.17.61-.51.61-.03,0-.14-.03-.31-.07l.24-.17.07-.1c-.03-.37-.27-.54-.75-.54h-.24c-.07.03-.14.03-.24.07l-1.16.27-.61.07.17-.1c.41-.1.75-.24,1.05-.41l.03-.03.48-.1-.03-.03.1-.03.51-.07.68.03ZM9.62,25.47c-.07-.1-.1-.17-.1-.24,0-.37.07-.58.24-.58l.17.1h.1l.24.48.07.1.24.17.07.03.24.07c.17-.03.34-.03.48-.07.1-.03.2-.03.27-.07l.75-.37.24-.1c.38,0,.58.17.58.51,0,.1-.07.17-.2.2-.1-.31-.27-.44-.55-.44-.03,0-.14.03-.31.07l-.68.51c-.1.1-.31.17-.58.17-.17,0-.34-.1-.44-.27-.1-.07-.2-.1-.24-.1s-.07.07-.03.24v.14c-.27-.14-.44-.31-.55-.54M5.51,25.03c-.1-.03-.14-.03-.14-.07,0-.24.03-.37.14-.37h.1v.07c.03.24.2.41.44.48v.1l-.48-.07-.07-.14ZM14.22,24.42l.03-.03h.2l.82.07c.54.03.82.31.82.82,0,.37-.17.54-.48.54l-.1-.07v-.03l.2-.34-.14-.37-.03-.07v-.07l-.34-.17-.44-.07-.54-.2ZM16.67,24.32c0,.1-.07.17-.24.17-.14,0-.2-.07-.2-.17,0-.17.07-.24.24-.24.14,0,.2.07.2.24M11.33,23.98l.07.17c0,.24-.2.37-.61.37l-4.52-.14-1.16.03-.54.1s-.2.03-.44.03c-.48,0-.78-.14-.95-.41l.54.2.61-.07.37-.07.82-.03c.24-.03.48-.03.65-.03h.95l.41.03h.61l.37.03.78.03h-.17.27l.68.03h.1c.51.03.92-.07,1.16-.31M25.07,23.91c.1.07.14.14.14.17,0,.41-.51.61-1.53.61-.44,0-.85-.1-1.22-.31l.44.07.34.03h.71c.41,0,.75-.14.99-.41l.14-.17ZM20.78,23.88l.07.03.1.07.24.17.2.1.03.1c-.92.88-2.04,1.33-3.37,1.33-.44,0-.65-.1-.65-.31,0-.14.34-.24.99-.27.07-.03.14-.03.24-.03s.14,0,.17-.03h.17c.1-.03.2-.1.34-.14l.24-.14c.24-.1.37-.17.48-.27.17-.17.31-.27.41-.41.1-.07.2-.17.24-.2h.1ZM17.21,23.81h.03c.17,0,.24.03.24.14,0,.17-.1.24-.27.24-.14,0-.2-.03-.2-.14l.03-.03v-.07c.07-.1.14-.14.17-.14M13.27,23.81c.48.14.88.2,1.26.2.24,0,.51-.03.75-.1.41-.17.68-.24.78-.24.14,0,.2.03.2.14s-.1.14-.34.17c-.31.17-.75.24-1.36.24-.85,0-1.26-.14-1.29-.41M2.18,23.67h.03c.14,0,.27.1.44.34l.14.2.14.14.14.14.51.34.07.03.07.03.48.24c.48.14.95.2,1.39.2.78,0,1.53-.14,2.18-.41h.1l.24-.14.1-.1.75.07c-.78.68-1.8,1.02-3.06,1.02-1.6,0-2.79-.51-3.64-1.56l-.07-.07-.17-.31.17-.17ZM13.67,23.74h-.07c-.1,0-.17-.03-.17-.1l.2.07.03.03ZM16.7,23.43h.07c.17,0,.24.03.24.14l-.03.03c-.07.1-.14.17-.24.17-.14,0-.2-.07-.2-.17,0-.07.07-.14.17-.17M17.55,23.16c.1,0,.17.03.17.14,0,.14-.07.2-.24.2-.1,0-.17-.03-.17-.14,0-.14.07-.2.24-.2M14.93,23.2c.17.07.27.17.27.27,0,.27-.2.41-.65.41-.1,0-.31-.03-.61-.1.37-.03.61-.1.75-.17.07-.03.17-.17.24-.41M15.95,23.16l.07-.03c.14,0,.2.03.2.14l-.03.07-.17.1c-.1,0-.17-.03-.17-.1l.1-.17ZM2.08,23.06l.48-.03.1.03c.17.03.24.14.24.37s-.07.34-.24.34c-.07,0-.1-.1-.1-.34-.03-.03-.14-.03-.31-.03l-.14.03c-.24.07-.34.17-.34.31,0,.03.07.14.17.24.03.14.07.2.07.17,0,.14-.07.2-.24.2-.1,0-.24-.07-.38-.2v-.2c-.03-.17.07-.41.31-.65l.37-.24ZM24.45,23.03h.31l.2.14-.31.1-.2.14-.31-.17.31-.2ZM16.77,22.89c.2,0,.31.03.31.14s-.1.17-.31.17c-.14,0-.2-.03-.2-.14s.07-.17.2-.17M19.25,23.54c-.17-.14-.31-.2-.41-.2-.07,0-.2.07-.44.2l-.03-.03c0-.44.27-.68.82-.68l.27.07.17.07c.27.2.41.44.41.68,0,.82-.51,1.26-1.57,1.33.1-.17.24-.27.41-.31.34-.37.51-.65.51-.82,0-.1-.03-.2-.14-.31M2.11,22.65l.27-.07h.07c.41,0,.58.17.54.48v.14l-.1-.17c-.17-.1-.31-.14-.41-.14-.85,0-1.26.34-1.26.99,0,.14.03.27.14.44l-.2-.03c-.17-.1-.2-.2-.17-.34v-.17l.07-.24v-.1c.17-.31.54-.58,1.05-.78M12.48,23.5c-.31-.2-.48-.34-.58-.44-.07-.1-.14-.14-.17-.14l-.17-.1-.07-.07.03-.2.71.48.2.17.31.1-.03-.17c0-.17.1-.24.31-.24.14,0,.2,0,.24.03l.31.14.44.07-.24.14-.61.1c-.17.03-.24.2-.24.51l.07.14c.2.2.34.34.34.37.07.03.07.17.1.34l-.14.14s-.1-.1-.2-.31c-.03-.03-.1-.07-.2-.14l-.48-.31c-.17-.1-.24-.2-.24-.31,0-.07.1-.14.31-.17v-.14ZM8.84,22.75c.07.03.17.03.34.03s.31-.1.44-.31l.17-.27-.03.61c-.03.17-.24.27-.54.27-.17,0-.27-.1-.37-.34M10.34,22.14c.07.24.1.44.1.58,0,.44-.07.65-.17.65s-.14-.03-.14-.1c.03-.1.07-.2.1-.27.03-.1.03-.17.07-.2.03-.03.03-.14.03-.34v-.31ZM3.54,22.28c.31-.24.54-.37.68-.37s.34.03.58.1.44.1.58.1l.31-.03c-.03.1-.2.17-.51.17l-.61-.03c-.51,0-.78.14-.78.41,0,.14.14.27.37.41-.03.1-.07.14-.17.14-.37,0-.54-.17-.54-.55v-.24l.1-.1ZM9.93,21.43c.2.03.31.31.31.82,0,.03-.03.17-.07.34l-.14.51-.04.17-.07.03-.03.03c-.1,0-.17-.07-.17-.17l.03-.03.14-.24.1-.51-.07-.95ZM3.57,21.12c.2,0,.31.07.31.2,0,.07-.03.1-.14.1-.2,0-.31-.07-.31-.2l.03-.1h.1ZM6.16,21.12v-.03h.14c-.24.27-.41.41-.48.41-.1,0-.14-.07-.14-.17l.07-.14c.1-.03.2-.03.27-.03l.14-.03ZM10.27,21.02l.24.24.51.75c.2.17.37.34.48.48l-.07.1c-.34-.24-.54-.48-.65-.68l-.14-.17-.37-.58v-.14ZM4.76,20.85l.07-.03.07-.03c.14,0,.2.07.2.24,0,.1-.07.17-.17.17s-.17-.1-.17-.27v-.07ZM14.97,20.92l.03-.14.1-.03c.37,0,.58.2.58.58,0,.58-.41.88-1.22.88-.68,0-1.43-.27-2.28-.82v-.07c.48.24,1.02.37,1.67.44.07.03.2.03.44.03.41,0,.71-.14.88-.41v-.24l-.07-.14-.14-.1ZM1.87,21.6c0-.17.07-.37.17-.58.1-.17.27-.27.44-.27.41,0,.61.2.61.65,0,.07-.03.1-.14.1l-.31-.31-.07-.03-.1-.03h-.03c-.31,0-.44.17-.48.54l-.1.07v-.14ZM4.15,20.85l-.17.07c-.1,0-.17-.07-.17-.24v-.03c.07-.14.17-.2.27-.2h.1c.24,0,.34.07.34.24l-.07.07-.31.1ZM10.37,20.27l.31.14.44.48.37.27.24.2.48.27.31.14.41.24.44.14.14.03.14.03.54.14.41.03s.14.03.27.03l.44-.03.27.03.34-.07.61-.07.51-.1c.37-.1.54-.17.58-.2l.54-.31.34-.14.1.17.07.14s-.07.1-.17.14c-.1.03-.24.1-.37.2-.71.44-1.6.68-2.65.68-1.8,0-3.27-.48-4.39-1.46l-.31-.27-.17-.17c-.17-.1-.24-.17-.24-.27v-.41ZM7.79,20.14l.17.07.14,1.9-.2-.24c-.1-.27-.14-.61-.14-1.05v-.34l.03-.34ZM3.3,20.17l.03-.03c.17,0,.24.07.24.2s-.07.2-.2.2-.2-.07-.2-.2c0-.1.03-.17.14-.17M4.76,20.34c-.14,0-.2-.07-.2-.2,0-.1.03-.14.14-.14s.17.07.17.17-.03.17-.1.17M7.52,19.96l.1.17c0,.07,0,.2-.03.37-.03.17-.03.31-.03.41,0,.85.31,1.53.92,2.04l.44.34.17.07.2.07.1.07.51.1.24.03.78.03c.17.03.27.1.27.17,0,.2-.37.31-1.09.31h-.41c-.17,0-.31,0-.41-.03l-1.63-.17-4.08.14-.24-.14-.03-.1-.03-.07c0-.1.14-.14.37-.14.54,0,.99-.14,1.36-.44.37-.31.58-.58.65-.85.1-.03.2-.07.34-.1.07-.03.2-.1.31-.14l.34-.17.17-.2.44-.48c.2-.24.31-.54.31-.92,0-.17,0-.31-.03-.38M24.52,20.41c.2-.41.41-.61.61-.61.03,0,.14.07.24.2l-.07-.14.34.2c.14.07.2.17.24.31l-.07.07.14.03-.07.03-.17-.03.07-.03-.41-.07.14-.2c-.17-.07-.31-.1-.34-.1-.1,0-.24.07-.41.24l-.07.1.03.17h-.17v.07l-.2.03.03-.1v-.07l.14-.1ZM4.01,19.79c.17,0,.24.03.24.1,0,.14-.07.21-.24.21s-.24-.07-.24-.17l.03-.03.14-.1h.07ZM5.61,19.69l.34.14c-.24.17-.37.34-.37.51,0,.24.17.37.48.37.2,0,.41-.1.61-.34v.1c0,.1-.1.24-.34.34-.2.14-.37.2-.51.2-.17,0-.37-.1-.61-.34l.07-.03-.14-.03-.03-.14v-.07l.03-.1.03-.24c0-.1.14-.24.44-.37M21.87,19.49l.17-.07h.1c.58,0,.85.24.82.75v.34l.17.03c.07-.17.14-.24.24-.24s.17.07.17.2l-.03.37v.44l-.03.17-.1.17-.24.27v.07c-.03.1,0,.17.17.17l.07-.03.1-.14.17-.2.14-.31.27-.34.07-.03.2-.07c.1-.1.2-.14.31-.14l.14.03c.07,0,.14,0,.24.03l.65.17c-.03.17-.14.27-.27.34l.07.1.14.1c.41.1.61.37.61.82,0,.41-.24.65-.68.68l.2-.38v-.14c0-.14-.03-.27-.14-.44l-.41-.2h-.27c-.37-.03-.75.24-1.19.88l-.58-.48-.1-.14-.1-.17-.44-.54c-.1-.03-.17-.1-.2-.17,0-.03.03-.17.1-.37.03-.1,0-.34-.07-.65-.1-.38-.34-.55-.68-.51h-.2c.07-.17.2-.31.44-.41M25.68,19.39c.17,0,.27.03.27.14,0,.14-.07.2-.24.2-.14,0-.2-.07-.2-.17v-.07l.1-.1h.07ZM25.17,19.05c.1,0,.17.03.17.14,0,.17-.07.27-.24.27-.1,0-.17-.07-.17-.17,0-.17.07-.24.24-.24M16.97,19.05l.2.03.27.31.24.34c.2.27.37.48.48.58l.07.1v.03c0,.17-.24.27-.68.27h-.24c-.1,0-.2,0-.27-.03l.07.24-.14.1c-.31,0-.65-.14-.95-.37l-.07-.1c-.14-.1-.2-.24-.2-.44l-.1-.38.03-.48.2.1.2.2.03-.27.07.03.14.1.37.27.03-.03.03-.07-.03-.07-.1-.1.1.1-.2-.2-.1-.03.07-.17.24.1.24-.03-.03.07h.07l-.03-.2ZM5.68,18.5l.27.14.24.14.17.41.17.1c.03.07.07.27.07.58,0,.48-.17.72-.54.72-.1,0-.2-.07-.31-.2.03-.17.14-.31.31-.34h-.14l.24.03c.03-.17.07-.27.07-.24,0-.1-.17-.17-.51-.2v-.65l-.03-.48ZM4.97,18.54c.31.17.44.34.44.58,0,.27-.14.41-.41.41-.1,0-.24-.07-.41-.24.03.03.07.03.17.03.17,0,.24-.07.24-.24,0-.07-.03-.17-.1-.27l.07-.27ZM6.9,18.57l-.07-.14.38.27.48.61c.17.24.37.37.58.37.17,0,.27-.14.31-.37h.14c.03.07.03.17.03.34,0,.31-.17.48-.51.48-.17,0-.34-.1-.58-.31l-.2-.27-.14-.31c-.1-.31-.24-.51-.41-.68M23.43,18.54l.07-.14h.31c.17.14.24.31.24.51,0,.41-.1.85-.34,1.29v-.24l.14-.44-.03-.17-.03-.37-.17-.31-.17-.14ZM17.92,18.33l.1-.03.14-.03c.17,0,.24.07.2.17-.03.54-.27.82-.65.82-.1,0-.24-.03-.37-.14-.1-.1-.17-.17-.2-.24,0-.1.1-.14.34-.14.1,0,.2,0,.24.03l.1-.1c0-.1-.03-.14-.14-.14s-.17,0-.2.03l.07-.17.37-.07ZM19.97,18.5c0-.17.1-.27.34-.27.31,0,.44.14.44.41,0,.1-.1.31-.27.61h-.1c.07-.14.1-.24.1-.34v-.14l-.07-.2-.44-.07ZM21.84,18.37c.17-.17.34-.24.58-.24.44,0,.68.2.68.58,0,.17-.07.27-.2.27-.03-.03-.07-.1-.07-.2v-.03l-.1-.14c-.17-.07-.31-.1-.41-.1s-.37.14-.82.44l.07-.2.1-.2.17-.17ZM6.22,18.67c-.17-.1-.31-.17-.44-.24-.1-.1-.2-.17-.31-.2-.17,0-.24,0-.27-.03l-.03-.03.03-.07.07-.2h.1l.17.07c.07.03.14.03.24.07l.37.17c.24.1.41.24.58.41.41.51.61,1.02.61,1.46,0,.51-.17.95-.55,1.36-.37.34-.82.54-1.33.54-.54,0-.95-.2-1.22-.65l-.03-.14c0-.1.03-.14.14-.14l.07.03.31.34.24.1.27.14h.07l.65-.07.48-.31c.34-.37.51-.71.51-1.02,0-.2-.1-.61-.27-1.19l-.1-.03-.17-.17v-.1l-.17-.1ZM4.28,17.75l.17.03-.17.41-.88.24-.14.1c-.1.03-.2.14-.34.24-.24.2-.37.34-.41.34-.03.07-.07.14-.14.31-.1.24-.2.44-.34.65l-.24.41v.27l-.1.31.03.51-.03.24s0-.03.07.07c0,.1.07.27.1.51l-.37.17c-.03-.31-.07-.54-.14-.71,0-.2-.03-.37-.03-.48l-.03-.31s.03-.17.1-.37c.17-.65.54-1.33,1.05-1.97l.17-.14.14-.14.37-.27c.14-.1.31-.2.54-.24l.61-.17ZM14.01,17.69l.24.07.14.03-.31.17.07.14.37-.1-.2.24.27.03-.1.03.14-.03-.07.27h.03c.14,0,.2.03.2.07,0,.17-.14.31-.44.37v.1l.31-.1c.1-.03.17-.07.27-.1v.2h.14l-.1.07h.03c.07,0,.14-.07.17-.2v.24s.07.1.17.14l.03-.07v-.17c.1.03.14.1.14.27,0,.95-.44,1.43-1.33,1.43-.03,0-.1-.03-.2-.1l.03-.14.03-.07-.07-.07-.07.07s-.1.07-.2.1c-.17.03-.51.07-.95.07l.07-.44s-.03-.14-.03-.31c0-.1.03-.2.14-.37l-.14-.1-.07.03-.14.03.03-.2c.1-.58.27-1.02.48-1.29l.2-.1c.1-.1.27-.17.44-.17l.27-.03ZM17.82,18.16l.41-.54h.03c.1,0,.14.03.17.14l2.42,3.13.31.37,1.19,1.22.03.07.1.07.14.1.61.51.65.31.44.14.24.07c.24.03.37.1.37.17l-.03.1-.51.27c-.24.1-.61.14-1.05.07l-.48-.03c-.92-.1-1.74-.48-2.42-1.12l-.88-.88-.58-.65-.1-.1-.03-.07-.2-.31c-.1-.14-.17-.24-.27-.31l-.1-.17.03-.14h.1l.14-.37-.07.2.03-.14-.03-.03-.24-.1c-.17-.03-.27-.2-.34-.48-.1-.07-.17-.14-.17-.17l.03-.1c.41-.03.68-.41.85-1.09-.17-.1-.41-.14-.78-.14M18.47,17.38c.38.37.72.78,1.06,1.26l.75,1.02.2.24.2.27.17.17.48.58,1.09,1.22.17.14.17.2.2.17-.03.14-.1-.1-.24-.2-.2-.17-.75-.82-.2-.17-.1-.17-.71-.82-.1-.1-.54-.75-1.05-1.33-.34-.37c-.1-.1-.14-.17-.14-.24,0-.1,0-.14.03-.17M25.51,16.5h.2c.31,0,.48.14.48.37l-.07.14-.54.03-.03.03-.24.31-.14.34c-.03.1-.1.2-.14.31l.03-.31h.03l-.03-.1c.03-.34.1-.65.2-.92.1-.1.24-.17.34-.17l-.1-.03ZM2.48,16.53c-.17-.07-.27-.17-.27-.27,0-.37.2-.58.65-.58.1-.03.24,0,.37.1.14.14.27.24.37.27.03,0,.07-.07.1-.2l.1-.1c.07.1.14.24.2.31.07.14.14.2.17.31,0,.1,0,.17.03.24l.03.24-.07.17-.17.2c-.27.34-.51.58-.68.68l-.51.34s-.24.2-.58.54l-.24.24c.1-.27.27-.51.48-.71l.82-.82.1-.14c.07-.07.1-.14.14-.24l.07-.17-.03-.48c-.2-.24-.41-.34-.61-.34-.24,0-.41.14-.48.41M24.86,15.48l.1,1.16-.07,1.29c-.03.17-.03.37-.07.58l-.1.61-.31,1.09-.17.34c-.03.14-.1.24-.14.27s-.17.1-.34.14l.03-.24-.03-.2.14-.17-.03-.14.17-.31v-.24c0-.1.03-.31.1-.68.1-.37.14-.61.14-.78v-.31c0-.17,0-.34-.03-.44h.03l-.27-1.7.61-.17.24-.1ZM19.56,15.48l.24-.03s.07-.03.17-.03c.2,0,.34.1.41.34l-.82-.27ZM22.21,15.37c.34.17.51.34.48.51v.03l-.03.14-.07.07-.03.1-.07.07c-.14,0-.2-.03-.2-.14v-.03l.14-.24-.07-.24-.14-.27ZM5.24,15.24l.14.31-.07.68v.37c-.03.1-.07.24-.1.48-.03.2-.14.48-.24.78-.2.65-.51,1.09-.92,1.39-.41.31-.75.44-1.05.44-.2,0-.34,0-.41-.03.03-.1.1-.17.14-.2h.37c.48,0,.99-.48,1.53-1.46l.14-.31c.17-.65.27-1.26.31-1.8l-.03-.24v-.07c0-.17.07-.31.2-.34M16.16,15l.07.07.17.27-.2.1-.07-.2.03-.24ZM15.07,15.85c.03-.27.14-.44.27-.54l.17-.14c.07-.07.17-.14.27-.17.14,0,.2.14.2.44,0,.1-.27.31-.82.68l.17-.31-.27.03ZM21.8,15.07v-.07h.51c.1,0,.31.07.54.2.65.34.95.85.95,1.5,0,.58-.14.92-.41,1.02l-.34.1c-.14.07-.24.1-.31.1-.17,0-.34-.17-.48-.51.07.03.2.03.37.03s.37-.07.61-.24l.03-.1c.1-.27.17-.44.17-.48l-.03-.34c-.27-.65-.71-1.02-1.29-1.12-.07-.03-.17-.07-.34-.1M20.2,14.97h.14l.03-.03.1.1-.03.1-.58.03-.54.24-.24.03.03-.1.27-.1.41-.2.41-.07ZM12.79,15.37l.03-.03.34-.44.03.03.07.03h.07s.03.07.03.17l-.17.31c-.14.17-.2.41-.2.68,0,.31.07.61.2.85.17.24.24.41.24.48,0,.1-.07.14-.17.14s-.14,0-.17-.03l-.17-.31-.1-.14.03-.07c-.1-.07-.14-.2-.17-.37-.03-.1-.03-.2-.03-.27-.03-.1-.03-.17-.03-.2,0,.1.07-.17.17-.82M14.42,14.8l.2.41c.24.44.34.75.34.95s-.07.41-.24.65l-.03-.07-.03-.03c-.1,0-.14.03-.14.1,0,.1,0,.14.03.17v.31l-.07-.07-.03-.1.03-.14-.07-.1h-.17l.14.61-.17-.17v-.1h-.17l.07.27c0,.07-.03.1-.14.1s-.24-.1-.34-.27l-.07-.07-.2-.41.07-.71.48.2.03-.14c-.07-.17-.1-.27-.1-.34s.03-.2.1-.41c.1-.17.24-.41.48-.65M2.45,14.52c.44.24.82.37,1.12.37.71,0,1.22-.07,1.5-.17.1-.07.17-.1.24-.1l.07.1c0,.31-.54.44-1.63.44-.37,0-.78-.1-1.22-.27-.1-.03-.17-.1-.17-.2l.1-.17ZM24.73,14.83l.07-.17c.03-.1.1-.14.17-.17h.03l.1.1c0,.58-.37.85-1.09.85-.37,0-.54-.07-.54-.17s.03-.17.07-.2h.82l.03-.07.34-.17ZM19.66,14.39v.2c.03.24-.2.44-.71.68l.24-.31.27-.24.2-.34ZM18.77,14.32c.03.1.03.2.07.27v.14c0,.41-.24.71-.68.88l-.51.2c-.31.14-.51.37-.65.75l-.1.03-.24.37-.65.2-.31.27.14.17c.14.07.24.1.31.1.03,0,.2-.1.44-.27l-.1.1c.31-.38.48-.61.54-.78.1-.24.37-.51.75-.82l.2-.1c.31-.1.48-.17.51-.17l.34.07-.03-.03.71.14-.1.44.41.03h-.17c.24.03.41.1.51.2.2.24.31.44.31.58,0,.1-.07.27-.2.51l-.07-.1v-.03c0-.41-.31-.61-.92-.61-.24,0-.51.1-.82.34l-.27.2c-.1.14-.17.24-.2.31-.71.88-1.36,1.33-1.9,1.33-.51,0-.88-.17-1.12-.54-.17-.24-.27-.51-.27-.75,0-.55.37-1.16,1.12-1.8l.04-.03h.1l.34-.31v-.03l.71-.37.92-.27c.31-.1.54-.24.75-.44l.1-.17ZM10,15.1v-.41s-.03-.14-.03-.24.07-.14.2-.14h.24c.03.34.14.65.34.92l.03.07.24.14.1.03.2.03.14.03c.17,0,.34-.03.51-.14.1-.1.17-.2.17-.31.03-.17.1-.27.14-.27.14,0,.2.14.2.41,0,.58-.2.85-.65.85l-.65-.03.03.37c-.2-.03-.34-.03-.41-.1-.1,0-.24-.17-.48-.41l-.1-.14-.1-.27-.07-.07-.03-.14-.04-.2ZM8.91,14.32h.78l.03.07c-.1.34-.14.75-.14,1.26,0,.82.24,1.63.68,2.41l.03.1.34.24c.24.17.44.24.65.24.1,0,.27-.07.58-.17l-.17.1c.27-.17.41-.41.41-.75-.17-.27-.34-.41-.48-.41l-.17.07-.31.27c-.07.07-.17.1-.27.1-.24,0-.41-.14-.54-.41l-.1-.17c0-.1,0-.2.03-.24.17.27.34.41.51.41h.1c.31-.03.54-.1.68-.1.1-.07.14-.07.07-.07.37,0,.65.27.88.85-.03.54-.17.88-.41.99l-.48.27.17.31.03.1c0,.17-.2.27-.65.27h-.27l.17-.17-.48-.1c-.07.1-.14.17-.17.17-.1,0-.2-.2-.34-.61-.03-.17-.14-.34-.27-.48l-.07-.1h-.03c-.1-.24-.14-.44-.1-.54,0-.24,0-.34.03-.37,0-.24-.1-.37-.34-.37-.1,0-.17.03-.17.14,0-.03.03.03.07.17l-.1.17c0,.1.03.17.1.27l.58.92.27,1.02.1.58-.1.07-.1.27-.1.03c-.07,0-.1-.03-.14-.14h-.17l.03.17c0,.68-.24,1.02-.71,1.02-.24,0-.37-.1-.41-.27.27-.03.48-.14.58-.27l.17-.54c.03-.1.03-.2.03-.27.03-.1.03-.17.03-.2,0-.14-.03-.34-.1-.61l-.07-.34-.03-.24-.07-.14-.03-.1-.1-.41-.1-.41-.1-.27-.1-.65-.07-1.02.24-1.63.17-.48ZM22.55,14.15c.1.1.14.17.14.27,0,.31-.24.44-.71.41h-.55v-.17l.34.03c.27.03.54-.17.78-.55M1.43,15.71c.04-.1.07-.2.14-.34l.07-.2c.27-.68.48-1.02.58-1.02s.14.03.14.1l-.1.17-.14.34-.17.2-.2.65-.17.95.03,1.06.31.88-.1.27c-.24-.34-.38-.85-.41-1.53-.03-.31-.03-.51-.03-.65-.03-.1-.03-.14-.03-.1v-.1l.07-.31.03-.37ZM12.52,13.81l.17.1-4.73.14v5.27l-.17-.17c-.03-.1-.03-.2-.03-.34v-4.63c0-.24.07-.37.24-.37.03,0,.14.03.37.07l.44-.03h1.6l2.11-.03ZM4.63,13.77l.14-.03c.07-.03.17.2.31.72-.03.03-.07.03-.17.03.03,0-.03-.24-.27-.72M2.01,13.67l1.05.14v.1c-.1.03-.2.03-.31.03-.1.03-.17.03-.2.03-.17,0-.34-.07-.58-.2l.03-.1ZM3.3,14.25v-.37l-.14-.37v-.07l.03-.07.1-.1c.14,0,.2.14.2.37,0,.17-.07.37-.2.61M17.62,13.16l.58.1-.17.03-.14.03c-.48.14-.71.37-.71.75v.1l.2.44h-.31l-.27-.14-.1-.2-.07-.14s-.03-.1-.03-.2.07-.24.2-.41.34-.31.61-.37h.34-.37.24ZM15.95,13.13l-.17.1.17-.1ZM1.43,12.82c.04.2.07.37.1.48.03.1.03.2.07.24l.24.44-.03.24-.14-.07-.14-.31-.14-.2c-.1-.17-.14-.34-.14-.51,0-.1.07-.2.17-.31M19.9,14.01v-.1l-.17-.14-.14-.1-1.36-.58-.78-.07h-.17c-.44,0-.75.03-.82.07-.14.03-.2.07-.27.07l-.07-.07s.1-.1.2-.14l.31-.17c.17-.1.44-.14.85-.14.58,0,1.12.1,1.57.31l.2.1.17.07c.17.1.34.2.48.27.14.07.24.14.27.17l.31.31c.85.78,1.26,1.77,1.26,2.99,0,.85-.17,1.63-.55,2.35-.17.37-.31.58-.34.58s-.14-.1-.27-.34l.1-.2.07-.17.2-.41.17-.44c.03-.14.1-.24.14-.34v-.31c-.03-.85-.07-1.33-.1-1.4,0-.1-.03-.24-.1-.41v-.07l-.31-.68-.17-.37c-.14-.2-.37-.41-.68-.65M2.55,13.54l.24-.37.24-.27c.2-.24.34-.34.37-.34l.1.1s-.1.14-.24.27c-.2.17-.31.27-.34.34-.1.17-.2.24-.37.27M1.02,12.72l.07-.1.14-.2.1-.07c.1-.07.24-.1.41-.1.41,0,.78.14,1.09.37l-.1.17c-.31-.24-.58-.34-.85-.34-.51,0-.82.24-.85.68l-.03-.14.03-.27ZM4.25,12.18l.07-.03s.07-.03.17-.03c.44,0,.65.2.65.61,0,.44-.44.78-1.29,1.05v.03c-.1,0-.14-.03-.14-.14l.03-.1.58-.17c.1-.03.17-.1.24-.14.1-.07.17-.14.24-.2h-.03l.1-.17v-.34c-.14-.17-.34-.24-.58-.24l-.03-.14ZM11.94,11.29l-.03.2-.27.2-.2.14-.24.27-.27.37-.14-.03.17-.24.58-.65.41-.27ZM4.08,12.41l.2.27.07.1.03.07.03.03c0,.1-.03.17-.14.17s-.24-.14-.41-.41c-.14-.17-.31-.37-.51-.58-.2-.2-.44-.41-.75-.58-.1-.03-.14-.1-.17-.17v-.03l.1-.1.68.58.85.65ZM23.88,11.26c.17-.17.41-.27.72-.27.14,0,.27.03.44.14.34.17.51.41.51.65l-.07.99c0,.31.17.44.48.41h.1c-.03.37-.2.58-.51.58-.1,0-.27-.1-.51-.27l-.07-.1c-.03-.07-.03-.2-.03-.37,0-.03.1-.34.31-.88v-.31l-.07-.24c-.17-.2-.34-.31-.51-.31-.44,0-.68.24-.68.68,0,.2.14.51.41.92.31.27.44.58.44.92,0,.14-.03.27-.1.44l-.14-.07-.17.27-.31.07.07.1.14.03c.07,0,.14-.07.2-.17v.1c0,.2-.24.31-.68.31-.14,0-.34-.1-.58-.27l-.41-.48v-.07l-.17-.27-.31-.31c-.27-.1-.44-.17-.48-.17-.44,0-.68.14-.65.44v.14c-.17,0-.27-.07-.37-.2l-.03-.07c-.07-.1-.1-.17-.1-.27,0-.03.07-.2.17-.51.07-.1.2-.17.41-.2h.03l.17-.07-.03-.14-.14-.27.14-.03c.1-.07.17-.1.24-.1-.03,0,0,.03.14.03.14.07.37.1.68.14l.2.03.37.31.2.2.2.41c.1.37.24.65.41.88l-.03.1.41-.07c.07-.1.1-.17.1-.27,0-.03-.03-.1-.14-.2l-.14-.17-.03-.03-.2-.07-.54-.65v-.1c-.14-.24-.2-.41-.2-.58,0-.1,0-.17.03-.27,0-.07,0-.17.03-.27.17.1.27.14.37.1h.17v-.13l.1-.14ZM4.52,10.99c-.24.03-.44.1-.61.2v-.14l.1-.1-.03-.07h.2l.34.1ZM21.09,10.82h.17c.1.07.17.14.24.2l.17.17.03.1-.58-.14-.03-.03h-.03c-.1,0-.24.14-.37.44-.14-.1-.2-.2-.2-.34,0-.24.17-.37.51-.41l.03-.03.07.03ZM18.94,10.71l.07.03-.03.17.07.07h.17l-.03-.07c.1-.03.2-.03.27-.03l.14-.03c.34,0,.51.17.51.48l-.07.07s-.17-.07-.44-.17h-.14v.1c-.24.2-.34.41-.34.58,0,.24.07.41.2.61.17.14.31.31.48.48l.1.2c-.1-.03-.2-.1-.31-.17l-.27-.2-.2-.2-.27-.27-.27-.41-.03-.17c0-.37.1-.72.31-.95l.1-.1ZM1.33,12.11c.31-.75.68-1.19,1.16-1.36l.27-.1.31-.1c.1-.03.17-.03.2-.07.07,0,.1.03.14.14l-.54.14-.37.24-.31.14-.48.54-.14.34-.24.1ZM11.84,10.51l.03-.03.1.14-.03.2-.07.34-.82.68-.61.85h-.78c.24-.82.99-1.53,2.18-2.18M25.44,10.31c.17,0,.24.1.24.27,0,.1-.07.17-.2.17-.1,0-.17-.07-.17-.24,0-.14.03-.2.14-.2M10.71,10.58c.31-.24.48-.34.51-.34.14,0,.24.03.27.07,0,.1-.2.2-.61.37-.37.17-.92.54-1.56,1.19l-.37.37-.2.1-.31.27-.07.03-.03.03c-.07,0-.1-.03-.14-.14l.07-.03c.1-.07.17-.14.17-.14l.1-.1.88-.82.24-.17.1-.1.55-.31.41-.31ZM4.8,10.1h.14c.1,0,.2.07.24.17l-.41-.14.03-.03ZM8.2,10.78c.44-.07.68-.1.71-.1.07-.03.17-.07.34-.1l.61-.17.31-.1c.1-.03.17-.03.24-.07l.44-.24.07-.03h.03l.03.03.1.14c0,.1-.31.24-.95.48l-.58.2c-.27.1-.51.2-.78.27-.2.03-.44.07-.61.1l.03-.41ZM18.5,10.03l.14-.07h.03c.1,0,.14.03.14.14l-.03.07-.58.82-.17.31c-.17.24-.48.55-.92.85l-.27.2-1.26.68-.1.1-.07.03s.07.17.17.34l.2.37.34.37.27.44.31.37v.03c0,.07-.03.1-.14.14l-.2-.24-.75-.99c-.07-.14-.14-.24-.17-.27-.2-.24-.31-.41-.31-.51,0-.14.14-.31.41-.48l.24-.17.1-.07.2-.1.54-.31.41-.24.17-.1c.71-.65,1.16-1.23,1.29-1.74M25.1,9.9c.1,0,.14.03.14.14,0,.14-.03.2-.14.2s-.17-.07-.17-.17.07-.17.17-.17M26.16,9.97v.1c0,.1-.07.17-.17.17-.14,0-.2-.07-.2-.24l.03-.03c.03-.1.1-.17.14-.17.1,0,.17.07.2.17M22.31,9.73l.65,1.16.14.2v.07c0,.07-.03.1-.14.14l-.14-.17-.14-.2-.27-.61-.1-.58ZM25.37,9.63c-.07-.1-.14-.17-.2-.24l-.17-.17-.17-.07h.41l.07.03c.14.1.2.17.24.27l.1.31c0,.07-.03.14-.14.24l-.14-.37ZM2.04,8.81l.48.75-.44-.37-.03-.37ZM19.49,8.71l.41.2.2.1-.03.1-.48-.17-.07-.03-.07-.07.03-.14ZM1.05,9.25c-.03-.24-.07-.34-.07-.31,0-.27.1-.41.31-.41.14,0,.2.14.2.38l-.03.1-.24.14-.03.17-.14-.07ZM2.21,8.23l.17-.2s.14.1.24.31l.1.17.1.31.1.1c.1.17.2.34.31.44.1.1.17.2.2.24l.95.54h.03c.2.14.37.2.51.2.27.03.41.1.41.2v.34l-.68-.1c-.68-.1-1.29-.48-1.8-1.09l-.24-.27-.2-.2-.31-.54.07-.27.03-.17ZM8.47,8.09l.1-.03.31.14.17-.2s.14-.07.24-.07c.24,0,.41.1.51.24.14.2.2.34.2.44s-.03.2-.1.37h-.1s-.07-.03-.1-.14c-.17-.2-.34-.31-.51-.31-.44,0-.65.24-.65.72,0,.54.27.82.85.82h.17c.1-.03.2-.03.37-.07l.17-.03.14-.03c.17-.1.31-.17.37-.17l.07.07s-.07.1-.17.14l-.37.17c-.24.03-.51.07-.85.07-.24,0-.54-.17-.92-.51l-.14-.31-.07-.1c-.03-.07-.03-.14-.03-.24v-.24c0-.31.1-.55.34-.72M24.18,8.33l-.03-.07h.61c.1,0,.2-.07.31-.17.1-.14.14-.2.17-.2.1,0,.14.07.14.24l-.03.14-.1.14-.03.14-.61.27c-.1.07-.17.17-.17.31,0,.1,0,.14.03.17l.14.37s.03.07.03.17c0,.31-.14.44-.38.44-.14,0-.24,0-.27-.03l.1-.17.03-.07s.03-.07.03-.17l-.1-.17-.14-.37.07-.44-.31-.07c-.07,0-.17.07-.27.17-.27.24-.41.58-.41.95,0,.34.17.71.51,1.12v.1l-.1.07-.07-.14-.27-.41-.17-.34c-.03-.07-.03-.17-.03-.31v-.31c0-.78.27-1.16.85-1.16.17,0,.27,0,.34.03,0-.14.03-.2.14-.24M7.82,7.79l.07.07-.03.14v.07l.03.65-.03,1.16.03.71v1.94l-.03.17-.07.03-.03-4.9.07-.03ZM16.29,7.55l.34.2-.34-.2ZM5.65,7.55l.2.07.17.07c.31.14.61.2.92.2h.2c.24-.03.34-.07.31-.07.07,0,.1.1.1.31l.03,4.42v.2l.2.14,3.47.07c1.22.03,2.28-.17,3.16-.65.92-.41,1.53-1.02,1.91-1.77l.31-.68h1.09c.1,0,.24,0,.34.03h.14c.1,0,.17.03.17.1s-.03.14-.1.24l-.88,1.12-.78.65-1.33.71c-.2.1-.31.27-.31.48,0,.17.24.54.75,1.12.17.24.27.41.27.48l-.61.2-.37.44-.2-.27-.2-.68.03.07-.17-.03-.31.27-.31.44-.1-.07-.17-.27-.24-.41-.55-.78-5.17.03s-.03.1-.03.2v4.52l-.03.34-.41-.41-.14-.03c-.41-.37-.85-.58-1.33-.61l-.03-6.74v-1.73l-.03-1.4.03-.34ZM3.03,7.75c.14-.2.27-.31.44-.31.03,0,.1,0,.2.03l.41.03c.14.14.2.31.2.51-.17-.1-.31-.14-.44-.14-.31,0-.48.24-.48.72,0,.24.07.48.24.71l.48.48-.51-.27-.24-.27-.2-.27c-.17-.24-.27-.44-.27-.58,0-.17.03-.34.14-.51l.03-.14ZM2.21,7.58c.41-.58.88-.88,1.43-.88.41,0,.78.17,1.05.51.34.31.48.71.48,1.16,0,.51-.2.92-.61,1.29l-.07-.07c.31-.37.44-.75.44-1.12,0-.17-.03-.37-.1-.65l-.14-.31-.31-.27c-.41-.17-.68-.27-.78-.27-.44,0-.85.24-1.22.65-.37.48-.54.95-.54,1.53,0,.48.1.88.27,1.19l.07.14.07.14h-.07l-.1.07c-.27-.61-.41-1.19-.41-1.7l.03-.34c.1-.44.27-.82.51-1.06M10.17,7.86c-.03-.07-.03-.2-.03-.37,0-.58.31-.85.88-.85.37,0,.58.17.58.54l-.03.1c-.03.1-.03.2-.07.27v.14l.2.44-.37-.03c-.14,0-.2-.1-.2-.27,0-.03.03-.2.1-.51l-.07-.24c-.1-.1-.17-.14-.2-.14-.34,0-.51.17-.51.54,0,.61.37,1.02,1.16,1.26l.65.1h.58l2.93-.14c.48-.07.82-.1,1.02-.1l.95.03h-.31l.75.07.55.1.24.1.51.14.24.07.14.1.07.03.1.03.24.14.54.27.1.07c.24.07.44.2.61.41l.34.27.24.2.07.07.68.65c.03.17.07.27.07.24l-.03.14c0,.07,0,.17-.03.27-.2-.1-.41-.24-.61-.44l-.24-.27-.14-.17-.24-.2-.31-.2-.17-.17-1.63-.61c-.51-.2-1.29-.31-2.35-.31s-1.87.17-2.59.54c-.71.34-1.09.65-1.09.95,0,.24.1.34.34.34.17,0,.31-.14.41-.44l.14-.17.03-.07c.14-.17.24-.24.31-.24l.03-.1c.03-.07.1-.1.24-.1h.17l.2.07.03.24-.41-.07c-.17,0-.27.07-.31.17l-.44.99c-.14.31-.44.48-.88.48-.17,0-.34-.07-.51-.24l-.14-.24.03-.2-.03-.1.14-.2v-.17l-.61.2c-.03-.07-.03-.17-.03-.34,0-.1.07-.24.2-.44.14-.14.27-.31.44-.48l.58-.34.34-.1h-.1l.07-.03c.14-.03.24-.07.27-.07.07,0,.17,0,.34.03.17.03.27.03.37.03.31,0,.48-.07.48-.24v-.17l-.34-.03-.44.24-.82.1c-.1.03-.2.07-.34.17l-.48.27-.14.1-.1.07c-.1.1-.2.14-.34.14-.31,0-.58-.07-.88-.2-.41-.24-.61-.48-.61-.75,0-.03.1-.1.31-.14v-.1l-.37-.34-.07-.03-.27-.48-.03-.07-.07-.2ZM9.9,6.36v.14s-.07.14-.17.27c-.14.14-.2.27-.2.41,0,.07.07.2.24.44-.24-.03-.37-.17-.37-.41v-.07c.1-.17.2-.34.31-.44l.2-.34ZM13.2,6.9l-.2-.07-.14-.1-.37-.27-.03-.07-.07-.07-.03-.07s.03-.07.14-.07c.03,0,.14.1.31.27l.27.24.14.2ZM9.35,6.09l.07.03c-.31.44-.58.68-.82.68-.14,0-.24-.07-.34-.2l-.1-.17v-.17c.31.1.44.17.48.17.24,0,.48-.1.71-.34M13.84,7.14c-.1-.24-.2-.44-.24-.58l-.1-.2c0-.17.07-.31.24-.41l.07-.03.1-.03.07.03.03.44.48.68.03.1v.1c0,.1-.07.17-.2.27l.14.14.14.1c.2.1.37.17.51.2.17.07.27.14.37.17.34.03.51.1.51.17l-.1.03c-.41,0-.92-.17-1.56-.54l-.07-.03-.2-.07c-.1.17-.2.31-.31.34h-.03s-.14-.03-.27-.07l-.61-.31-.07-.03c-.1,0-.24.1-.41.34l-.1-.07s-.03-.1-.03-.2c0-.34.24-.51.68-.51.1,0,.17,0,.2.03.2.03.37.07.44.14l.17.03c.1,0,.14-.07.14-.17v-.07ZM12.24,5.88c-.1.1-.17.14-.24.14l-.07-.1c0-.1.03-.14.14-.14l.17.1ZM10.17,5.88l-.1.2v.07l-.07.03.1-.31.03-.17.03.17ZM15.92,7.38c-.51-.41-.75-.82-.75-1.19s.14-.55.44-.55c.14,0,.24.07.27.17-.27.17-.41.37-.41.58,0,.24.14.54.44.99M13.1,6.39c-.1-.17-.17-.34-.17-.48,0-.2.07-.31.24-.31h.03l-.1.78ZM18.67,5.68l.41.88c.03.17.07.31.1.37,0,.14,0,.2.03.27l.03.41s.03.14.03.31-.03.37-.1.68c-.17-.03-.24-.07-.24-.14,0-.1.03-.24.03-.41.07-.17.07-.31.07-.41,0-.75-.17-1.46-.51-2.14l.14.17ZM5.17,5.24l.1.14c-.24.2-.34.44-.34.68,0,.17.07.34.17.48.1.2.27.34.44.48.17.17.37.27.61.37.24.1.44.14.68.14.27,0,.55-.03.78-.1l.51-.1.34-.17.37-.17.2-.17.14-.1h.03c.41-.51.61-.95.65-1.39.1.1.17.2.17.27,0,.14-.04.27-.14.44-.37.65-.71,1.05-1.05,1.22l-.44.17-.34.17-.48.07-.24.03-.03.03c-.75.03-1.36-.1-1.84-.44-.48-.37-.71-.82-.71-1.39,0-.24.14-.48.41-.65M13.64,5.34c-.17-.1-.24-.17-.24-.27,0-.24.14-.34.44-.34s.48.24.51.75v.2c0,.1,0,.2.03.27l-.17-.58c-.1-.17-.2-.24-.34-.24s-.2.07-.24.2M9.62,3.91h.31l-.07.17v.17c.03.48-.2.88-.65,1.19l-.17.03v-.27l-.61.03-.27-.27.07-.2c.17.07.31.1.44.1.17,0,.37-.14.61-.41l.1-.48.24-.07ZM10.1,3.91l.27-.03h.14l.2.03s.03.03.07.17c.14.41.41.61.85.61h.24c.07-.03.14-.03.24-.07l-.2-.03c.34-.03.61-.2.82-.51.24.03.34.07.34.14v.14c-.03.07-.03.14-.07.24l.27.03c-.1.51-.41.71-.85.68l-.82-.03.07.34-.58.1h-.07c-.17,0-.27-.07-.37-.2l.27-.03-.58-.27.07.24-.27-.34v-.03l-.1-.17.07-.99ZM9.42,3.64c-.07.03-.2.07-.37.1-.37.1-.61.17-.65.2l-.27.17c-.17.1-.24.17-.24.27v.82l-.03,1.16.03.41c.03.07.03.17.03.27,0,.14-.03.2-.07.2l-.14-.07.03-.37c.03-.1.03-.2.03-.27v-.37l-.03-1.57c0-.51.44-.85,1.33-.95l.2-.07.14.07ZM10.14,3.5h1.05c1.12-.03,2.11.17,2.96.58l.27.14.03.07-.1.07s-.14-.03-.31-.14c-.75-.41-1.9-.61-3.47-.61l-.54.07c-.1,0-.17-.03-.24-.1l.34-.07ZM4.69,4.12c-.17-.1-.31-.2-.41-.24l-.2-.1-.58-.17-.41-.14c-.17-.07-.27-.14-.27-.17v-.14l.51.2.31.07.24.07.61.34.2.14v.14ZM15,4.32c.31-.78.61-1.19.89-1.19.1,0,.31.1.61.31l.54.41c1.12.85,1.77,2.14,1.87,3.88l-.07.71-1.87-.14c-.07-1.73-.71-3.06-1.97-3.98M17.65,2.82c.14.17.2.34.2.44,0,.14-.07.2-.17.2-.17,0-.27-.17-.27-.51l.24.1v-.24ZM17.11,2.86v.07c0,.07.03.1.14.1,0,.2-.03.31-.14.31h-.14l-.03-.17s.07-.14.17-.31M16.7,2.72h.1v.03c0,.1.03.14.1.17-.1.1-.17.14-.2.14-.14,0-.2-.07-.2-.17,0-.07.07-.14.2-.17M9.8,2.65l3.13-.07.95.07.51.07.54.07c.2.03.34.1.37.14,0,.03-.03.1-.1.2l-.37.51-.24.41-.37-.1c-1.05-.41-2.18-.61-3.33-.61-.31,0-.61,0-.89.07-.34,0-.65.07-.99.1-.68.1-1.16.34-1.39.75l-.07,2.72v.17c0,.14-.07.2-.2.2l-.78-.07c-.14-.03-.27-.07-.37-.1l-.34-.14c-.07-.03-.14-.1-.24-.2l.03-1.05c0-.2-.03-.44-.14-.68-.03-.17-.07-.24-.1-.27l-.14-.34-.41-.51-.61-.51-1.19-.34-.31-.17s-.03-.1-.03-.2l.1-.03c.17,0,.31,0,.37.03l2.35.1,4.25-.2ZM17.96,2.65v-.14l.41.1c.14.03.2.14.2.24,0,.14-.07.2-.24.2-.1,0-.31-.1-.54-.27l-.14-.17.31.03ZM15.48,3.03c.72-.44,1.29-.68,1.67-.68.17,0,.27.03.27.1,0,.1-.07.14-.2.1h-.37c-.24,0-.51.07-.75.24-.24.14-.48.34-.68.55-.2.27-.37.54-.51.88-.14.31-.2.65-.24.99.2,1.46.85,2.35,1.97,2.72l-.03.27c-1.19-.51-1.87-1.36-2.07-2.62-.03-.1-.03-.2-.03-.27-.03-.1-.03-.17-.03-.2s0-.1.03-.2c0-.1,0-.2.03-.31.24-.65.54-1.16.95-1.56M21.29,2.18l.03.14c0,.17-.14.34-.44.44-.27.1-.51.17-.71.17-.37,0-.82-.14-1.29-.41l-.07-.03.07-.1h.07l.1.07.17.1c.24.14.54.2.92.2.51,0,.88-.2,1.16-.58M16.7,2.28c-.17.1-.31.14-.41.14s-.17-.03-.17-.14c0-.14.07-.2.2-.2.1,0,.2.03.37.14v.07ZM25.31,2.01l.17.31.03.27c-.1.65-.31,1.06-.68,1.23l.14.1c.07,0,.17-.07.27-.2l.1.2c-.1.99-.75,1.43-1.87,1.39h-.65c-.48-.03-.71.14-.71.44,0,.17.1.27.34.31l.17-.07h-.03.17l.07-.1.1-.07.41-.2.82-.03h-.31l.17-.03c.2,0,.31.07.31.17h-.03l-.2.17-.03.1c.2,0,.44.07.75.17.24.24.51.34.85.34h.03l-.44.51c-.31.17-.51.27-.61.27l-.38-.07-.17.1.2.14c.14,0,.24.03.31.14-.24.24-.44.34-.61.34l-.75.03c-.71.03-1.09.54-1.09,1.53,0,.24.03.48.14.71.1.27.14.41.14.37l-.07.07-.27-.31-.51-.51-.14-.14-.2-.14.14.03-.1-.03-.1-.17-.2-.24-.1-.03-.17-.2-.37-.48-.1-.07-.2-.31-.1-.31.24.07h.27l-.17.03c.1,0,.17-.03.17-.1-.1-.07-.17-.14-.24-.2-.07-.07-.14-.14-.24-.17l-.34-.37-.24-.51c-.1-.41-.17-.65-.17-.75v-.38s.07-.03.17-.03l.14.03.51.2-.27-.44-.03-.07-.07-.24-.07-.37.07-.75-.14-.37c.34.07.58.24.71.54h.17c0-.1.03-.17.07-.2.1,0,.17.1.24.27.1.17.14.34.1.44v.14c-.03.31-.03.54-.03.65-.03.1-.03.14-.03.1,0,.24.1.34.31.37.14-.03.2-.07.2-.17,0-.07-.03-.17-.07-.37-.03-.14-.07-.27-.07-.37,0-.78.1-1.26.27-1.43l.34-.31.14-.2.07.03c.03-.1.1-.17.14-.17l.1-.1c.07.03.1.14.14.38l.17.03c.17-.31.34-.44.51-.48l.65-.07.31-.07.58.03.31-.1.51-.27ZM18.09,2.01l.1-.07h.17l.17.07.1.1c0,.2-.17.31-.54.31h-.1l-.07-.07.1-.1v-.2l.07-.03ZM5.85,1.8c.41.03.61.17.61.41,0,.27-.14.41-.44.41l-.07-.1v-.17l-.07-.07c-.03-.1-.14-.17-.31-.2l-.51-.03.07-.07c.17-.1.31-.17.41-.17l.24.03.07-.03ZM15.1,1.63l.03.03v.03h-.07l.03-.07ZM16.56,1.39c.24.1.41.34.48.65l-.14-.17h-.17l.17.31c-.34-.1-.51-.27-.51-.58,0-.03.07-.1.17-.2M8.81,1.53h.2l.17.14.37.1.34.1.27.07c.37,0,.54-.1.54-.27l.03-.41.17.03c.17.03.27.17.27.41,0,.41-.2.61-.61.61-.34,0-.61-.07-.82-.2l-.44-.24s-.1-.1-.2-.14c-.17-.03-.27-.1-.31-.2M17.65,1.87c.17-.41.34-.61.58-.61.1,0,.17.03.17.14s-.03.17-.14.27l-.1.14-.2.2-.14.03-.07-.03.14-.17v-.14c-.1,0-.2.07-.24.17M17.11,1.36l.1-.2h.1c.1,0,.17.07.2.24v.1l-.07.51h-.1l.03-.1-.1-.07-.1.1-.03-.1-.03-.48ZM5.31,1.22l.99-.1c.44,0,.95.07,1.53.17l.2.14c.14.07.2.1.24.07l.1-.03.1.14.27.1.17.14c.34.24.51.41.51.51s-.07.14-.17.14l-.14-.03-.1-.1-.1.1-.1.03c-.07,0-.2-.1-.44-.31-.65-.37-1.33-.58-2.04-.58s-1.19.1-1.53.31l-1.02.58-.17.03h-.24c-.14,0-.24,0-.31-.03l.37-.41.54-.34.27-.17.31-.07.75-.27ZM3.03,1.12h.14l.17.03c.1,0,.14.1.14.34,0,.14-.03.24-.14.34l-.14.17-.14.2-.07-.1c.17-.17.24-.34.24-.51,0-.24-.1-.34-.31-.34l.1-.14ZM20.54,1.63v-.14c-.03-.27.14-.41.54-.41.17,0,.34.1.44.31l-.48-.14c-.24.03-.34.1-.34.24l.03.14.07.2-.07.17c-.48.2-.71.31-.75.27l-.41-.14c-.17-.03-.27-.17-.27-.41,0-.34.2-.51.61-.51.17,0,.27.03.27.14l-.07.07-.37.03c-.17,0-.24.1-.24.27,0,.24.2.37.65.37.31,0,.41-.17.37-.48M22.38,1.53l.03-.48.24.1c.07.03.1.14.1.24,0,.27-.1.41-.31.44l-.37.07-.27.03-.48-.14-.27-.03-.03-.17c.31.14.55.2.72.2.1,0,.34-.1.65-.27M1.22,1.46c.03-.27.17-.41.44-.41.14,0,.27.03.44.14.14.17.2.31.2.41l-.03.27v.03l.14.03s.07-.03.1-.14l.07.1c.1.31.17.48.17.51,0,.07-.07.2-.17.37l-.07.17c.03.17.07.27.07.31,0,.17-.03.34-.1.48l-.68,1.29c-.1.17-.14.34-.14.54,0,.24,0,.38.03.44h.03-.03l.1-.03v-.48l.07-.31.03.07c.07-.34.17-.58.31-.75l.27-.34.17-.2.48-.2c.17.03.27.07.34.1.24.03.37.14.37.24l-.03.03-.14.17-.03.17c.37.1.54.34.54.71,0,.24-.07.41-.24.48l-.75.31-.1.37c-.31-.1-.44-.24-.44-.41,0-.2.14-.34.37-.38l.34-.07.31-.07.07-.24.03-.14-.07-.1-.1-.14c-.17-.07-.31-.1-.37-.1-.51,0-.82.34-.99,1.02l-.07.37v1.16c0,.14-.07.2-.17.2l-.14-.03v.03c.03.17-.03.27-.2.27-.1,0-.17-.27-.27-.85l-.07-.78-.07-.24v-.75l.14-.54v-.31l.14-.44.03-.27c.17-.24.27-.44.31-.68l.07-.1.07-.17.03-.17c.03-.17.07-.27.07-.31,0-.1-.03-.2-.1-.34-.2-.24-.37-.37-.51-.37l-.27.03ZM11.56,2.07c-.03-.17-.07-.27-.07-.31,0-.2.1-.37.34-.51.2-.14.41-.2.61-.2.31,0,.55.07.72.17l.75.54c.1.1.27.14.58.14.17,0,.31-.03.48-.14v.03c.03.24-.17.37-.65.37-.1,0-.2-.03-.24-.07l-.88-.51c-.24-.17-.48-.24-.75-.24-.41,0-.61.14-.61.37,0,.1.03.17.14.27h.37l.31-.14h.17c.34,0,.51.1.51.31,0,.1-.07.17-.17.17h-.03l-.27-.2-1.02.14-.27-.2ZM.82,26.36h25.54V.85H.82v25.51ZM.41.44h26.39v26.36H.41V.44ZM0,27.21h27.21V0H0v27.21Z" fill="#231f20"/>
    </g>
  </g>
</svg>